<?xml version="1.0" encoding="utf-8"?>
<!-- Generator: Adobe Illustrator 23.0.0, SVG Export Plug-In . SVG Version: 6.00 Build 0)  -->
<svg version="1.1" id="图层_1" xmlns="http://www.w3.org/2000/svg" xmlns:xlink="http://www.w3.org/1999/xlink" x="0px" y="0px"
	 viewBox="0 0 141.7 141.7" style="enable-background:new 0 0 141.7 141.7;" xml:space="preserve">
<style type="text/css">
	.st0{fill:#FFFFFF;}
</style>
<title>bandsaw</title>
<polygon class="st0" points="29,63.5 29,75.9 31.3,78.2 33.7,75.9 33.9,75.9 36.3,78.2 38.6,75.9 38.9,75.9 41.2,78.2 43.5,75.9 
	43.8,75.9 46.2,78.2 48.5,75.9 48.8,75.9 51.1,78.2 53.4,75.9 53.7,75.9 56,78.2 58.4,75.9 58.7,75.9 61,78.2 63.3,75.9 63.6,75.9 
	65.9,78.2 68.3,75.9 68.5,75.9 70.9,78.2 73.2,75.9 73.5,75.9 75.8,78.2 78.1,75.9 78.4,75.9 80.8,78.2 83.1,75.9 83.4,75.9 
	85.7,78.2 88,75.9 88.3,75.9 90.6,78.2 93,75.9 93.2,75.9 95.6,78.2 97.9,75.9 98.2,75.9 100.5,78.2 102.8,75.9 103.1,75.9 
	105.5,78.2 107.8,75.9 108.1,75.9 110.4,78.2 112.7,75.9 112.7,63.5 "/>
<path class="st0" d="M97.5,62.2V52.1c0-4.3-3.5-7.8-7.8-7.8H52.1c-4.3,0-7.8,3.5-7.8,7.8c0,0,0,0,0,0v10.1H97.5z"/>
<path class="st0" d="M95.6,80.1l-2.5-2.5l-2.5,2.5l-2.5-2.5l-2.5,2.5l-2.5-2.5l-2.5,2.5l-2.5-2.5l-2.5,2.5l-2.5-2.5l-2.5,2.5
	l-2.5-2.5l-2.5,2.5l-2.5-2.5L61,80.1l-2.5-2.5L56,80.1l-2.5-2.5l-2.4,2.5l-2.5-2.5l-2.5,2.5l-1.9-1.9v11.5c0,4.3,3.5,7.8,7.8,7.8
	h37.6c4.3,0,7.8-3.5,7.8-7.8V78.1L95.6,80.1z"/>
</svg>
