<svg id="图层_1" data-name="图层 1" xmlns="http://www.w3.org/2000/svg" viewBox="0 0 141.73 141.73"><defs><style>.cls-1,.cls-2{fill:#fff;}.cls-2{fill-rule:evenodd;}</style></defs><title>bright-annealing</title><path class="cls-1" d="M103.9,65.06C64.3,65,62.1,62.76,62,23.16h0c-.1,39.6-2.3,41.8-41.9,41.9h0c39.6.1,41.8,2.3,41.9,41.9h0C62.1,67.36,64.3,65.16,103.9,65.06Z"/><path class="cls-2" d="M67.38,54.38c1.9,3.58,4.9,5.68,9.53,6.93.87-4.17,2.56-10.09-5.29-17.87C72.15,47.89,69.82,51.24,67.38,54.38Z"/><path class="cls-2" d="M87.53,82.48c-1.9-1.36-3.54-5.72-2-7.76a15,15,0,0,0,2.88-7.33C66.51,68.52,64.28,74.06,64,101.64c4.27,2.91,8.28,6.07,9.63,10.35,4.08-5.17,8.16-9.12,15.64-14.15C101,90,98.41,80.3,91.3,72.41,90.39,76.36,86.85,78.4,87.53,82.48Z"/><path class="cls-2" d="M58.1,79.58a15.68,15.68,0,0,0-3.34-6.43C54.7,76.17,56.47,78.06,58.1,79.58Z"/><path class="cls-2" d="M83.09,62.39c1.46.16,3,.29,4.75.38a16.42,16.42,0,0,0-5.21-7.22A10.84,10.84,0,0,1,83.09,62.39Z"/><path class="cls-2" d="M59.14,84.81C56,86.36,53,80,53,75.27c-2.59,3.94-2.72,9.93-1.36,15.09,1.16,3.32,4.52,5.94,8.31,8.52A127.2,127.2,0,0,0,59.14,84.81Z"/><path class="cls-2" d="M75.56,65.06a18.92,18.92,0,0,1-8.84-4.73,15.7,15.7,0,0,1-2-2.46c-2.46,3.61-3.64,7.39.77,12.73-8-3.26-2.72-8.84-6.12-12.24a30.38,30.38,0,0,1-3.48,10.21,16.51,16.51,0,0,1,1.39,1.25A18.68,18.68,0,0,1,62,78.66,17.23,17.23,0,0,1,75.56,65.06Z"/></svg>