<svg id="图层_1" data-name="图层 1" xmlns="http://www.w3.org/2000/svg" viewBox="0 0 141.73 141.73"><defs><style>.cls-1{fill:#fff;}</style></defs><title>capillary-tube</title><path class="cls-1" d="M41.2,83.68a4.5,4.5,0,1,0,4.5,4.5,4.5,4.5,0,0,0-4.5-4.5Zm0,7.25A2.75,2.75,0,1,1,44,88.18a2.75,2.75,0,0,1-2.75,2.75Z"/><path class="cls-1" d="M50.2,83.68a4.5,4.5,0,1,0,4.5,4.5,4.5,4.5,0,0,0-4.5-4.5Zm0,7.25A2.75,2.75,0,1,1,53,88.18a2.75,2.75,0,0,1-2.75,2.75Z"/><path class="cls-1" d="M59.2,83.68a4.5,4.5,0,1,0,4.5,4.5,4.5,4.5,0,0,0-4.5-4.5Zm0,7.25A2.75,2.75,0,1,1,62,88.18a2.75,2.75,0,0,1-2.75,2.75Z"/><path class="cls-1" d="M69.24,83.68a4.5,4.5,0,1,0,4.5,4.5,4.5,4.5,0,0,0-4.5-4.5Zm0,7.25A2.75,2.75,0,1,1,72,88.18a2.75,2.75,0,0,1-2.75,2.75Z"/><path class="cls-1" d="M78.92,83.68a4.5,4.5,0,1,0,4.5,4.5,4.5,4.5,0,0,0-4.5-4.5Zm0,7.25a2.75,2.75,0,1,1,2.75-2.75,2.75,2.75,0,0,1-2.75,2.75Z"/><path class="cls-1" d="M88.6,83.68a4.51,4.51,0,1,0,.05,0Zm0,7.25a2.75,2.75,0,1,1,2.75-2.75,2.75,2.75,0,0,1-2.75,2.75Z"/><path class="cls-1" d="M100.32,83.68a4.5,4.5,0,1,0,4.5,4.5,4.5,4.5,0,0,0-4.5-4.5Zm0,7.25a2.75,2.75,0,1,1,2.75-2.75,2.75,2.75,0,0,1-2.75,2.75Z"/><path class="cls-1" d="M83.74,75.89a4.5,4.5,0,1,0,4.5,4.5h0A4.5,4.5,0,0,0,83.74,75.89Zm0,7.25a2.75,2.75,0,1,1,2.75-2.75,2.75,2.75,0,0,1-2.75,2.75h0Z"/><path class="cls-1" d="M74.13,75.89a4.5,4.5,0,1,0,4.5,4.5h0A4.5,4.5,0,0,0,74.13,75.89Zm0,7.25a2.75,2.75,0,1,1,2.75-2.75,2.75,2.75,0,0,1-2.75,2.75h0Z"/><path class="cls-1" d="M78.92,68.18a4.5,4.5,0,1,0,4.5,4.5,4.5,4.5,0,0,0-4.5-4.5Zm0,7.25a2.75,2.75,0,1,1,2.75-2.75,2.75,2.75,0,0,1-2.75,2.75h0Z"/><path class="cls-1" d="M64.48,60.18a4.5,4.5,0,1,0,4.5,4.5,4.5,4.5,0,0,0-4.5-4.5Zm0,7.25a2.75,2.75,0,1,1,2.75-2.75,2.75,2.75,0,0,1-2.75,2.75h0Z"/><path class="cls-1" d="M84.5,61a4.5,4.5,0,1,0,4.5,4.5h0A4.5,4.5,0,0,0,84.5,61Zm0,7.25a2.75,2.75,0,1,1,2.75-2.75h0a2.75,2.75,0,0,1-2.75,2.73Z"/><path class="cls-1" d="M69.53,52.35a4.5,4.5,0,1,0,4.5,4.5h0a4.48,4.48,0,0,0-4.48-4.5Zm0,7.25a2.75,2.75,0,1,1,2.75-2.75h0A2.75,2.75,0,0,1,69.53,59.6Z"/><path class="cls-1" d="M74,60.49a4.5,4.5,0,1,0,4.5,4.5h0a4.48,4.48,0,0,0-4.48-4.5Zm0,7.25A2.75,2.75,0,1,1,76.78,65,2.75,2.75,0,0,1,74,67.74Z"/><path class="cls-1" d="M50.2,67.74a4.5,4.5,0,1,0,4.5,4.5,4.5,4.5,0,0,0-4.5-4.5Zm0,7.25A2.75,2.75,0,1,1,53,72.24,2.75,2.75,0,0,1,50.2,75Z"/><path class="cls-1" d="M89.62,68.85a4.5,4.5,0,1,0,4.5,4.5,4.5,4.5,0,0,0-4.5-4.5Zm0,7.25a2.75,2.75,0,1,1,2.75-2.75h0A2.75,2.75,0,0,1,89.62,76.1Z"/><path class="cls-1" d="M59.71,68.18a4.5,4.5,0,1,0,4.5,4.5A4.5,4.5,0,0,0,59.71,68.18Zm0,7.25a2.75,2.75,0,1,1,2.75-2.75,2.75,2.75,0,0,1-2.75,2.75h0Z"/><path class="cls-1" d="M69,68.18a4.5,4.5,0,1,0,4.5,4.5A4.5,4.5,0,0,0,69,68.18Zm0,7.25a2.75,2.75,0,1,1,2.75-2.75A2.75,2.75,0,0,1,69,75.43h0Z"/><path class="cls-1" d="M64.21,76.1a4.5,4.5,0,1,0,4.5,4.5h0A4.49,4.49,0,0,0,64.21,76.1Zm0,7.25A2.75,2.75,0,1,1,67,80.6h0A2.75,2.75,0,0,1,64.21,83.35Z"/><path class="cls-1" d="M54.7,75.78a4.5,4.5,0,1,0,4.5,4.5,4.5,4.5,0,0,0-4.5-4.5Zm0,7.25a2.75,2.75,0,1,1,2.75-2.75A2.75,2.75,0,0,1,54.7,83Z"/><path class="cls-1" d="M45.7,75.78a4.5,4.5,0,1,0,4.5,4.5,4.5,4.5,0,0,0-4.5-4.5Zm0,7.25a2.75,2.75,0,1,1,2.75-2.75A2.75,2.75,0,0,1,45.7,83Z"/><path class="cls-1" d="M94.49,76.74a4.5,4.5,0,1,0,4.5,4.5,4.5,4.5,0,0,0-4.5-4.5Zm0,7.25a2.75,2.75,0,1,1,2.75-2.75A2.75,2.75,0,0,1,94.49,84Z"/></svg>