<svg id="图层_1" data-name="图层 1" xmlns="http://www.w3.org/2000/svg" viewBox="0 0 141.73 141.73"><defs><style>.cls-1{fill:#fff;}</style></defs><title>centering</title><path class="cls-1" d="M100.51,71.13v-3h2A31.39,31.39,0,0,0,72.64,38.26v2h-3v-2A31.41,31.41,0,0,0,39.77,68.13h2v3h-2A31.41,31.41,0,0,0,69.64,101V99h3v2a31.4,31.4,0,0,0,29.87-29.86ZM48,71.13h-4.2v-3H48ZM69.6,42.32h3v4.2h-3Zm0,6.3h3v4.2h-3Zm0,6.3h3v4.2h-3ZM54.3,71.13H50.1v-3h4.2Zm6.3,0H56.4v-3h4.2Zm12,25.8h-3v-4.2h3Zm0-6.3h-3v-4.2h3Zm0-6.3h-3v-4.2h3Zm6.9-13.2H76.42A5.54,5.54,0,0,1,72.6,75V78h-3V75a5.56,5.56,0,0,1-3.82-3.82H62.7v-3h3.08A5.52,5.52,0,0,1,69.6,64.3V61.22h3V64.3a5.52,5.52,0,0,1,3.82,3.83H79.5Zm6.3,0H81.6v-3h4.2Zm6.3,0H87.92v-3h4.2Zm6.3,0H94.2v-3h4.2Z"/></svg>