<svg id="图层_1" data-name="图层 1" xmlns="http://www.w3.org/2000/svg" viewBox="0 0 141.73 141.73"><defs><style>.cls-1{fill:#fff;}</style></defs><title>coil-ingot-casting</title><path class="cls-1" d="M65.86,45.45,58.93,56.31a4.07,4.07,0,0,1-5.62,1.25h0l-9.4-6a4.08,4.08,0,0,1-1.25-5.63l11.16-17.5a1,1,0,0,0-.25-1.4l-.06,0-1-.62a1,1,0,0,0-1.39.25.16.16,0,0,0,0,.07L39.79,44.38A7.2,7.2,0,0,0,42,54.33l9.79,6.27a7.19,7.19,0,0,0,9.95-2.14l.05-.06L68.39,48a10.08,10.08,0,0,1,10.45-4.52l.15-.24L76.83,41.9a7.88,7.88,0,0,0-6.1-.32A9.51,9.51,0,0,0,65.86,45.45Z"/><rect class="cls-1" x="77.84" y="50.62" width="4.05" height="57.21" rx="1.73"/><rect class="cls-1" x="92.07" y="50.62" width="4.05" height="57.21" rx="1.73"/><path class="cls-1" d="M65.32,45.4,58.41,56.24a4.08,4.08,0,0,1-5.62,1.24l-9.37-6a4.07,4.07,0,0,1-1.24-5.62L53.31,28.41a1,1,0,0,0-.26-1.4L53,27l-1-.62a1,1,0,0,0-1.39.25.16.16,0,0,0,0,.07L39.31,44.31a7.16,7.16,0,0,0,2.19,9.91h0l9.73,6.21a7.19,7.19,0,0,0,9.92-2.19l6.59-10.33A10.08,10.08,0,0,1,78.18,43.4l.15-.23-2.16-1.38a7.84,7.84,0,0,0-6.08-.32A9.41,9.41,0,0,0,65.32,45.4Z"/><path class="cls-1" d="M79,40a7.15,7.15,0,0,0-1.33-.72A15.26,15.26,0,0,0,71.45,38H67.91s-4.08-.14-6.53,0H53.73a24.18,24.18,0,0,0-4.66,0l-5.39,8.43a3,3,0,0,0,.89,4.14l0,0,9.37,6a3,3,0,0,0,4.14-.89l0,0,6.93-10.85a10.45,10.45,0,0,1,5.35-4.34,8.78,8.78,0,0,1,6.87.36l.12.07a11.22,11.22,0,0,1,3.41,3.38v.06A20.66,20.66,0,0,1,84,55.53v52h5.89v-47a24.53,24.53,0,0,0-10-19.91C79.31,40.19,79,40,79,40Z"/></svg>