<svg id="图层_1" data-name="图层 1" xmlns="http://www.w3.org/2000/svg" viewBox="0 0 141.73 141.73"><defs><style>.cls-1{fill:#fff;}</style></defs><title>coil-pickling</title><path class="cls-1" d="M93.91,94.72H43.8a8,8,0,0,1-8-8v-41h3.89V86.84a4.08,4.08,0,0,0,4.07,4.08h50.1a4.08,4.08,0,0,0,4.07-4.08V45.72h3.89V86.84A8,8,0,0,1,93.91,94.72Z"/><rect class="cls-1" x="35.85" y="54.75" width="66.03" height="4.14"/><path class="cls-1" d="M78.8,68.31a9.81,9.81,0,1,0,9.81,9.81h0a9.8,9.8,0,0,0-9.8-9.8Zm0,18.6a8.8,8.8,0,1,1,8.8-8.8h0A8.8,8.8,0,0,1,78.8,86.91Z"/><path class="cls-1" d="M78.8,88.41a10.3,10.3,0,1,1,10.31-10.3A10.3,10.3,0,0,1,78.8,88.41Zm0-19.6a9.3,9.3,0,1,0,9.31,9.3A9.29,9.29,0,0,0,78.8,68.81Zm0,18.6a9.3,9.3,0,1,1,9.3-9.3h0A9.32,9.32,0,0,1,78.8,87.41Zm0-17.59a8.3,8.3,0,1,0,8.3,8.3h0A8.3,8.3,0,0,0,78.8,69.82Z"/><path class="cls-1" d="M78.8,71.52a6.59,6.59,0,1,0,6.6,6.59,6.58,6.58,0,0,0-6.6-6.59Zm0,12.2a5.62,5.62,0,1,1,5.63-5.62,5.62,5.62,0,0,1-5.63,5.62Z"/><path class="cls-1" d="M78.8,85.2a7.09,7.09,0,1,1,7.1-7.09A7.08,7.08,0,0,1,78.8,85.2ZM78.8,73a5.12,5.12,0,1,0,5.13,5.12A5.11,5.11,0,0,0,78.8,73Z"/><g id="_编组_" data-name=" 编组 "><rect class="cls-1" x="58.38" y="86.91" width="20.38" height="1.01" rx="0.5"/><path class="cls-1" d="M78.25,88.41H58.88a1,1,0,1,1,0-2H78.25a1,1,0,0,1,0,2Z"/></g></svg>