<svg id="图层_1" data-name="图层 1" xmlns="http://www.w3.org/2000/svg" viewBox="0 0 141.73 141.73"><defs><style>.cls-1{fill:#fff;}</style></defs><title>coil-cold-rolling</title><path class="cls-1" d="M96.17,54.42A12.78,12.78,0,1,0,109,67.2h0A12.78,12.78,0,0,0,96.17,54.42Zm0,24.24a11.47,11.47,0,1,1,11.46-11.48v0A11.47,11.47,0,0,1,96.17,78.66Z"/><path class="cls-1" d="M96.17,80.63A13.44,13.44,0,1,1,109.6,67.18v0A13.45,13.45,0,0,1,96.17,80.63Zm0-25.56A12.13,12.13,0,1,0,108.3,67.2,12.14,12.14,0,0,0,96.17,55.07Zm0,24.24a12.12,12.12,0,1,1,12.11-12.13v0A12.13,12.13,0,0,1,96.17,79.31Zm0-22.93A10.82,10.82,0,1,0,107,67.21h0A10.84,10.84,0,0,0,96.17,56.38Z"/><path class="cls-1" d="M96.17,58.6a8.6,8.6,0,1,0,8.59,8.61h0a8.6,8.6,0,0,0-8.58-8.6Zm0,15.92a7.33,7.33,0,1,1,7.33-7.33h0a7.33,7.33,0,0,1-7.33,7.32Z"/><path class="cls-1" d="M96.17,76.44a9.25,9.25,0,1,1,9.24-9.26v0A9.26,9.26,0,0,1,96.17,76.44Zm0-15.92a6.68,6.68,0,1,0,6.68,6.68h0A6.69,6.69,0,0,0,96.17,60.52Z"/><path class="cls-1" d="M40.41,54.42A12.78,12.78,0,1,0,53.23,67.2,12.79,12.79,0,0,0,40.41,54.42Zm0,24.24A11.47,11.47,0,1,1,51.87,67.18v0A11.47,11.47,0,0,1,40.41,78.66Z"/><path class="cls-1" d="M40.41,80.63A13.44,13.44,0,1,1,53.84,67.18v0A13.45,13.45,0,0,1,40.41,80.63Zm0-25.56A12.13,12.13,0,1,0,52.54,67.2,12.14,12.14,0,0,0,40.41,55.07Zm0,24.24A12.12,12.12,0,1,1,52.52,67.18v0A12.13,12.13,0,0,1,40.41,79.31Zm0-22.93A10.82,10.82,0,1,0,51.23,67.2h0A10.84,10.84,0,0,0,40.41,56.38Z"/><path class="cls-1" d="M40.41,58.6A8.6,8.6,0,1,0,49,67.21h0a8.6,8.6,0,0,0-8.58-8.6Zm0,15.92a7.33,7.33,0,1,1,7.33-7.33h0a7.33,7.33,0,0,1-7.33,7.32Z"/><path class="cls-1" d="M40.41,76.44a9.25,9.25,0,1,1,9.24-9.26v0A9.26,9.26,0,0,1,40.41,76.44Zm0-15.92a6.68,6.68,0,1,0,6.68,6.68h0A6.69,6.69,0,0,0,40.41,60.52Z"/><g id="_编组_3" data-name=" 编组 3"><rect class="cls-1" x="41.73" y="78.66" width="53.77" height="1.31" rx="0.5"/><path class="cls-1" d="M94.17,80.63H43.06c-1.46,0-2.65-.59-2.65-1.31S41.6,78,43.06,78H94.17c1.46,0,2.65.59,2.65,1.31S95.63,80.63,94.17,80.63ZM43.06,79.31Z"/></g><circle class="cls-1" cx="68.61" cy="72.15" r="5.86"/><circle class="cls-1" cx="68.61" cy="86.48" r="5.86"/><polygon class="cls-1" points="59.59 74.72 59.59 63.22 77.64 63.22 77.64 74.72 80.64 74.72 80.64 60.22 56.59 60.22 56.59 74.72 59.59 74.72"/><polygon class="cls-1" points="77.64 83.94 77.64 95.44 59.59 95.44 59.59 83.94 56.59 83.94 56.59 98.44 80.64 98.44 80.64 83.94 77.64 83.94"/></svg>