<?xml version="1.0" encoding="utf-8"?>
<!-- Generator: Adobe Illustrator 23.0.0, SVG Export Plug-In . SVG Version: 6.00 Build 0)  -->
<svg version="1.1" id="图层_1" xmlns="http://www.w3.org/2000/svg" xmlns:xlink="http://www.w3.org/1999/xlink" x="0px" y="0px"
	 viewBox="0 0 141.7 141.7" style="enable-background:new 0 0 141.7 141.7;" xml:space="preserve">
<style type="text/css">
	.st0{fill:#FFFFFF;}
</style>
<title>coil</title>
<path class="st0" d="M69.6,41.9c-16.8,0-30.4,13.6-30.4,30.4s13.6,30.4,30.4,30.4S100,89.1,100,72.3l0,0
	C100,55.5,86.4,41.9,69.6,41.9z M69.6,99.5c-15.1,0-27.3-12.2-27.3-27.3S54.5,45,69.6,45c15.1,0,27.3,12.2,27.3,27.3
	C96.8,87.3,84.6,99.5,69.6,99.5L69.6,99.5z"/>
<path class="st0" d="M69.6,46.7C55.4,46.7,44,58.1,44,72.3s11.5,25.6,25.6,25.6s25.6-11.5,25.6-25.6c0,0,0,0,0,0
	C95.2,58.1,83.7,46.7,69.6,46.7C69.6,46.7,69.6,46.7,69.6,46.7z M69.6,94.5c-12.3,0-22.3-10-22.3-22.3S57.3,50,69.6,50
	c12.3,0,22.3,10,22.3,22.3S81.9,94.5,69.6,94.5C69.6,94.5,69.6,94.5,69.6,94.5z"/>
<path class="st0" d="M69.6,51.9c-11.3,0-20.4,9.1-20.4,20.4s9.1,20.4,20.4,20.4S90,83.6,90,72.3l0,0C90,61,80.9,51.9,69.6,51.9z
	 M69.6,89.8c-9.6,0-17.4-7.8-17.4-17.4S60,54.9,69.6,54.9S87,62.7,87,72.3C87,81.9,79.2,89.7,69.6,89.8L69.6,89.8z"/>
<path id="_矩形_" class="st0" d="M35.1,99.5H68c0.9,0,1.6,0.7,1.6,1.6l0,0c0,0.9-0.7,1.6-1.6,1.6H35.1c-0.9,0-1.6-0.7-1.6-1.6l0,0
	C33.6,100.2,34.3,99.5,35.1,99.5z"/>
</svg>
