<svg id="图层_1" data-name="图层 1" xmlns="http://www.w3.org/2000/svg" viewBox="0 0 141.73 141.73"><defs><style>.cls-1{fill:#fff;}</style></defs><title>cold-rolling</title><circle class="cls-1" cx="70.13" cy="57.8" r="8.53"/><circle class="cls-1" cx="70.13" cy="81.83" r="8.53"/><path class="cls-1" d="M51.65,64.18V45a.3.3,0,0,1,.3-.29h36.4a.31.31,0,0,1,.3.29V65.64h4.49V45a4.79,4.79,0,0,0-4.79-4.75H51.91A4.79,4.79,0,0,0,47.12,45V64.21Z"/><path class="cls-1" d="M88.65,74.08V94.73a.31.31,0,0,1-.3.3H51.91a.29.29,0,0,1-.3-.3V75.55H47.12V94.73a4.78,4.78,0,0,0,4.79,4.79H88.35a4.8,4.8,0,0,0,4.79-4.79V74.08Z"/><rect class="cls-1" x="47.12" y="68.67" width="4.49" height="2.39"/><polygon class="cls-1" points="68.53 67.89 63.1 66.42 41.27 66.42 41.27 73.3 63.1 73.3 68.53 71.83 96.34 71.83 96.34 67.89 68.53 67.89"/></svg>