<svg id="图层_1" data-name="图层 1" xmlns="http://www.w3.org/2000/svg" viewBox="0 0 141.73 141.73"><defs><style>.cls-1{fill:#fff;}</style></defs><title>continuous-casting</title><path class="cls-1" d="M61.44,45.49,54.53,56.32a4.08,4.08,0,0,1-5.62,1.25l-9.38-6a4.08,4.08,0,0,1-1.24-5.63L49.42,28.5a1,1,0,0,0-.25-1.39l-.06,0-1-.62a1,1,0,0,0-1.39.27l0,.05L35.44,44.4a7.19,7.19,0,0,0,2.19,9.92l9.73,6.21a7.2,7.2,0,0,0,9.93-2.2L63.88,48A10.09,10.09,0,0,1,74.3,43.49l.15-.23L72.3,41.88a7.83,7.83,0,0,0-6.08-.32A9.47,9.47,0,0,0,61.44,45.49Z"/><rect class="cls-1" x="84.03" y="53.6" width="17.57" height="4.04" rx="0.57" transform="matrix(0.55, -0.83, 0.83, 0.55, -4.95, 102)"/><rect class="cls-1" x="69.9" y="46.82" width="4.04" height="17.57" rx="0.57" transform="translate(-18.77 49.24) rotate(-33.69)"/><path class="cls-1" d="M74.48,40.08a6.84,6.84,0,0,0-1.33-.72,15.24,15.24,0,0,0-6.21-1.27H63.4s-4.08-.13-6.53,0H49.22a25.9,25.9,0,0,0-4.66,0l-5.38,8.44a3,3,0,0,0,.89,4.15l0,0,9.37,6a3,3,0,0,0,4.15-.87l0,0,6.92-10.84a10.57,10.57,0,0,1,5.35-4.33,8.86,8.86,0,0,1,6.87.36l.11.06a11.4,11.4,0,0,1,3.42,3.39v0a20.63,20.63,0,0,1,3.16,11.17v52a.05.05,0,0,0,0,0h5.89a0,0,0,0,0,0,0v-47A24.5,24.5,0,0,0,75.35,40.68C74.8,40.27,74.48,40.08,74.48,40.08Z"/><rect class="cls-1" x="69.68" y="72.85" width="8.5" height="10.01" rx="1.3"/><rect class="cls-1" x="86.93" y="87.99" width="8.5" height="10.01" rx="1.3"/></svg>