<svg id="图层_1" data-name="图层 1" xmlns="http://www.w3.org/2000/svg" viewBox="0 0 141.73 141.73"><defs><style>.cls-1{fill:#fff;}</style></defs><title>cooling</title><path class="cls-1" d="M95.73,82.93l-3.68,3.69V50.16a2.5,2.5,0,1,0-5,0V86.62l-3.68-3.69a1.34,1.34,0,0,0-1.9,0,1.32,1.32,0,0,0-.39,1v2.54a3.41,3.41,0,0,0,1,2.41l6.77,6.76a1,1,0,0,0,1.41,0h0L97,88.88a3.41,3.41,0,0,0,1-2.41V83.88a1.35,1.35,0,0,0-1.35-1.35A1.33,1.33,0,0,0,95.73,82.93Z"/><path class="cls-1" d="M74.53,82.93l-3.68,3.69V50.16a2.5,2.5,0,0,0-5,0V86.62l-3.7-3.69a1.35,1.35,0,0,0-1.91,0,1.31,1.31,0,0,0-.39,1v2.54a3.33,3.33,0,0,0,1,2.41l6.76,6.76a1,1,0,0,0,1.41,0l0,0,6.76-6.76a3.41,3.41,0,0,0,1-2.41V83.88a1.35,1.35,0,0,0-1.38-1.32A1.31,1.31,0,0,0,74.53,82.93Z"/><path class="cls-1" d="M53.33,82.93l-3.68,3.69V50.16a2.5,2.5,0,0,0-5,0V86.62L41,82.93a1.35,1.35,0,0,0-1.91,0,1.31,1.31,0,0,0-.39,1v2.54a3.33,3.33,0,0,0,1,2.41l6.76,6.76a1,1,0,0,0,1.41,0l0,0,6.76-6.76a3.41,3.41,0,0,0,1-2.41V83.88a1.35,1.35,0,0,0-1.36-1.34A1.32,1.32,0,0,0,53.33,82.93Z"/></svg>