<svg id="图层_1" data-name="图层 1" xmlns="http://www.w3.org/2000/svg" viewBox="0 0 141.73 141.73"><defs><style>.cls-1{fill:#fff;}</style></defs><title>crack-detection</title><rect class="cls-1" x="33.77" y="66.49" width="73.34" height="10.23" rx="4.06"/><rect class="cls-1" x="33.77" y="55.57" width="3.45" height="4.32"/><path class="cls-1" d="M101.16,59.89H94.52V55.57h6.64Zm-9.13,0H85.39V55.57H92Zm-9.14,0H76.25V55.57h6.64Zm-9.13,0H67.12V55.57h6.64Zm-9.13,0H58V55.57h6.65Zm-9.14,0H48.85V55.57h6.64Zm-9.13,0H39.72V55.57h6.64Z"/><rect class="cls-1" x="103.65" y="55.57" width="3.45" height="4.32"/><rect class="cls-1" x="33.77" y="83.33" width="3.45" height="4.32"/><path class="cls-1" d="M101.16,87.64H94.52V83.33h6.64Zm-9.13,0H85.39V83.33H92Zm-9.14,0H76.25V83.33h6.64Zm-9.13,0H67.12V83.33h6.64Zm-9.13,0H58V83.33h6.65Zm-9.14,0H48.85V83.33h6.64Zm-9.13,0H39.72V83.33h6.64Z"/><rect class="cls-1" x="103.65" y="83.33" width="3.45" height="4.32"/></svg>