<?xml version="1.0" encoding="utf-8"?>
<!-- Generator: Adobe Illustrator 23.0.0, SVG Export Plug-In . SVG Version: 6.00 Build 0)  -->
<svg version="1.1" id="图层_1" xmlns="http://www.w3.org/2000/svg" xmlns:xlink="http://www.w3.org/1999/xlink" x="0px" y="0px"
	 viewBox="0 0 141.7 141.7" style="enable-background:new 0 0 141.7 141.7;" xml:space="preserve">
<style type="text/css">
	.st0{fill:#FFFFFF;}
</style>
<title>cut-to-length</title>
<ellipse class="st0" cx="108" cy="70.4" rx="8.2" ry="17.6"/>
<path class="st0" d="M108,90.3c-6,0-10.5-8.6-10.5-19.9S102,50.6,108,50.6s10.5,8.5,10.5,19.9S114,90.3,108,90.3z M108,55.1
	c-2.4,0-5.9,6-5.9,15.3s3.5,15.3,5.9,15.3s5.9-6,5.9-15.3S110.4,55.1,108,55.1z"/>
<path class="st0" d="M70.1,50.6L69.5,51c-0.1-0.2-0.3-0.3-0.5-0.5H34.2c0,0,0,0,0.1,0c-5.9,0.1-10.4,8.6-10.4,19.9
	c0,11.3,4.4,19.8,10.4,19.9c0,0,0,0-0.1,0H69c0.4-0.4,0.7-0.8,1.1-1.3l1.7,1.3H108V50.6H70.1z M28.4,70.4c0-9.3,3.5-15.3,5.9-15.3
	c2.4,0,5.9,6,5.9,15.3s-3.5,15.3-5.9,15.3S28.4,79.7,28.4,70.4z M77.9,64.6L77.9,64.6L74.5,65c-0.2-1.8-0.5-3.6-1-5.4l3.3-0.9
	C77.3,60.6,77.7,62.6,77.9,64.6z M73.6,50.9c1.1,1.7,1.9,3.6,2.5,5.5l-3.2,1.1c-0.5-1.7-1.3-3.3-2.2-4.8L73.6,50.9z M74.2,89
	L74.2,89l-3-1.7c0.8-1.6,1.5-3.2,2-5l3.3,1C75.9,85.3,75.2,87.2,74.2,89z M77.1,81l-3.3-0.8c0.4-1.8,0.7-3.6,0.9-5.4l3.4,0.3
	C77.8,77.1,77.5,79.1,77.1,81z M78.2,72.8L78.2,72.8l-3.4-0.2v-2.2c0-1.1,0-2.2-0.1-3.3l3.4-0.2c0.1,1.2,0.1,2.3,0.1,3.5
	C78.2,71.2,78.2,72,78.2,72.8z"/>
</svg>
