<svg id="图层_1" data-name="图层 1" xmlns="http://www.w3.org/2000/svg" viewBox="0 0 141.73 141.73"><defs><style>.cls-1{fill:#fff;}</style></defs><title>cut</title><path class="cls-1" d="M109,89.37V58.2H32.77V89.37h8.54V87.8H43.4v1.57H98.67V87.8h2.09v1.57ZM43.42,84.68H41.33V81.57h2.09Zm0-6.22H41.33V75.34h2.09Zm0-6.23H41.33V69.11h2.09Zm0-6.23H41.33V62.92h2.09Zm0-6.23H41.33V58.2h2.09ZM98.69,58.2h2.09v1.57H98.69Zm0,4.69h2.09V66H98.69Zm0,6.22h2.09v3.12H98.69Zm0,6.23h2.09v3.12H98.69Zm0,9.34V81.57h2.09v3.11Z"/></svg>