<?xml version="1.0" encoding="utf-8"?>
<!-- Generator: Adobe Illustrator 23.0.0, SVG Export Plug-In . SVG Version: 6.00 Build 0)  -->
<svg version="1.1" id="图层_1" xmlns="http://www.w3.org/2000/svg" xmlns:xlink="http://www.w3.org/1999/xlink" x="0px" y="0px"
	 viewBox="0 0 141.7 141.7" style="enable-background:new 0 0 141.7 141.7;" xml:space="preserve">
<style type="text/css">
	.st0{fill:#FFFFFF;}
</style>
<title>cutting-cleaning</title>
<path class="st0" d="M81,46.6L81,46.6c-0.3-0.6-0.7-1.2-1.1-1.8c-0.3-0.4-0.6-0.7-0.8-1.1L69.1,29l-9.9,14.7
	c-0.3,0.4-0.5,0.8-0.8,1.1c-0.4,0.6-0.8,1.2-1.1,1.8c-3.5,6.6-1,14.7,5.6,18.2s14.7,1,18.2-5.6C83.1,55.2,83.1,50.5,81,46.6z"/>
<ellipse class="st0" cx="102.5" cy="87.5" rx="6.9" ry="14.9"/>
<path class="st0" d="M102.5,104.4c-5.1,0-8.9-7.3-8.9-16.9s3.8-16.9,8.9-16.9s8.9,7.3,8.9,16.9S107.5,104.4,102.5,104.4z
	 M102.5,74.5c-2,0-5,5.1-5,13s3,13,5,13s5-5.1,5-13S104.5,74.5,102.5,74.5z"/>
<path class="st0" d="M70.2,70.7l-0.5,0.4c-0.1-0.1-0.2-0.3-0.4-0.4H39.8c0,0,0.1,0,0.1,0c-5,0.1-8.8,7.3-8.8,16.9
	c0,9.5,3.7,16.7,8.7,16.9c0,0-0.1,0-0.1,0h29.6c0.3-0.3,0.6-0.7,0.9-1.1l1.5,1.1h30.8V70.7H70.2z M35,87.5c0-7.9,3-13,5-13
	c2.1,0,5,5.1,5,13s-3,13-5,13S35,95.5,35,87.5z M76.9,82.6L74,82.9c-0.2-1.5-0.5-3.1-0.8-4.6l2.8-0.7C76.4,79.2,76.7,80.9,76.9,82.6
	z M73.2,70.9c0.9,1.5,1.6,3.1,2.2,4.7l-2.8,0.9c-0.5-1.4-1.1-2.8-1.9-4.1L73.2,70.9z M73.8,103.3l-2.6-1.4c0.7-1.3,1.3-2.8,1.7-4.2
	l2.8,0.8C75.2,100.2,74.6,101.8,73.8,103.3z M76.2,96.6l-2.8-0.6c0.3-1.5,0.6-3.1,0.7-4.6l2.9,0.3C76.8,93.2,76.6,94.9,76.2,96.6z
	 M77.1,89.5L77.1,89.5l-2.9-0.1v-1.9c0-0.9,0-1.9-0.1-2.8l2.9-0.2c0.1,1,0.1,2,0.1,3C77.1,88.2,77.1,88.9,77.1,89.5z"/>
</svg>
