<?xml version="1.0" encoding="utf-8"?>
<!-- Generator: Adobe Illustrator 23.0.0, SVG Export Plug-In . SVG Version: 6.00 Build 0)  -->
<svg version="1.1" id="图层_1" xmlns="http://www.w3.org/2000/svg" xmlns:xlink="http://www.w3.org/1999/xlink" x="0px" y="0px"
	 viewBox="0 0 141.7 141.7" style="enable-background:new 0 0 141.7 141.7;" xml:space="preserve">
<style type="text/css">
	.st0{fill:#FFFFFF;}
</style>
<title>elbow-pickling</title>
<path class="st0" d="M95.9,97.7H45.8c-4.4,0-8-3.6-8-8V48.6h3.9v41.1c0,2.3,1.8,4.1,4.1,4.1h50.1c2.3,0,4.1-1.8,4.1-4.1l0,0V48.6
	h3.9v41.1C103.9,94.1,100.3,97.6,95.9,97.7z"/>
<rect x="37.9" y="57.7" class="st0" width="66" height="4.1"/>
<path class="st0" d="M95.9,97.7H45.8c-4.4,0-8-3.6-8-8V48.6h3.9v41.2c0,2.3,1.8,4.1,4.1,4.1h50.1c2.3,0,4.1-1.8,4.1-4.1l0,0V48.6
	h3.9v41.2C103.8,94.1,100.3,97.6,95.9,97.7z"/>
<rect x="37.8" y="57.7" class="st0" width="66" height="4.1"/>
<path class="st0" d="M81.5,92.2c0,0.1,0,0.1,0,0.2h8.7c0-0.1,0-0.1,0-0.2c0-9.6-7.8-17.4-17.4-17.4v8.7
	C77.6,83.5,81.5,87.4,81.5,92.2z"/>
</svg>
