<?xml version="1.0" encoding="utf-8"?>
<!-- Generator: Adobe Illustrator 23.0.0, SVG Export Plug-In . SVG Version: 6.00 Build 0)  -->
<svg version="1.1" id="图层_1" xmlns="http://www.w3.org/2000/svg" xmlns:xlink="http://www.w3.org/1999/xlink" x="0px" y="0px"
	 viewBox="0 0 141.7 141.7" style="enable-background:new 0 0 141.7 141.7;" xml:space="preserve">
<style type="text/css">
	.st0{fill:#FFFFFF;}
</style>
<title>extrusion</title>
<path class="st0" d="M29.4,65.5h77.5c3,0,5.4,2.4,5.4,5.4l0,0l0,0c0,3-2.4,5.4-5.4,5.4l0,0H29.4l0,0V65.5L29.4,65.5z"/>
<path class="st0" d="M112.2,69.9c0.1,0.3,0.1,0.6,0.1,0.9C112.3,70.5,112.3,70.2,112.2,69.9z"/>
<path class="st0" d="M106.9,65.5c0.3,0,0.6,0,0.9,0.1C107.6,65.5,107.2,65.5,106.9,65.5z"/>
<path class="st0" d="M109.3,66l0.1,0.1L109.3,66z"/>
<path class="st0" d="M108.1,65.6c0.2,0.1,0.5,0.1,0.7,0.2C108.6,65.7,108.3,65.7,108.1,65.6z"/>
<path class="st0" d="M112,69c0.1,0.2,0.2,0.5,0.2,0.7C112.2,69.5,112.1,69.2,112,69z"/>
<path class="st0" d="M111.7,68.5L111.7,68.5L111.7,68.5z"/>
<path class="st0" d="M112,72.5c0-0.1,0.1-0.2,0.1-0.3c0,0,0-0.1,0-0.1C112.1,72.2,112,72.4,112,72.5z"/>
<path class="st0" d="M112.2,71.8c0.1-0.3,0.1-0.6,0.1-0.9C112.3,71.2,112.3,71.5,112.2,71.8z"/>
<path class="st0" d="M29.4,86.7h53.1c3.5,0,6.5-2.7,7-6.2H29.4V86.7z"/>
<polygon class="st0" points="89.5,76.3 106.6,76.3 106.6,76.3 "/>
<path class="st0" d="M82.5,55H29.4v6.2h60.1C89.1,57.7,86.1,55,82.5,55z"/>
</svg>
