<?xml version="1.0" encoding="utf-8"?>
<!-- Generator: Adobe Illustrator 23.0.0, SVG Export Plug-In . SVG Version: 6.00 Build 0)  -->
<svg version="1.1" id="图层_1" xmlns="http://www.w3.org/2000/svg" xmlns:xlink="http://www.w3.org/1999/xlink" x="0px" y="0px"
	 viewBox="0 0 141.7 141.7" style="enable-background:new 0 0 141.7 141.7;" xml:space="preserve">
<style type="text/css">
	.st0{fill:#FFFFFF;}
</style>
<title>filler-metal</title>
<path class="st0" d="M99.6,44.5c-0.6,0-1.1,0.5-1.1,1.1v14C92.3,44.4,74.9,37,59.6,43.2S37,66.9,43.2,82.1s23.6,22.6,38.9,16.4
	c11.2-4.6,18.6-15.5,18.6-27.6v-1.1h0.1V45.6h-0.1C100.7,45,100.2,44.5,99.6,44.5z M72.8,79.3c-4.6,1.1-9.3-1.8-10.4-6.4
	c-1.1-4.6,1.8-9.3,6.4-10.4c4.6-1.1,9.3,1.8,10.4,6.4c0,0,0,0,0,0.1C80.3,73.6,77.4,78.2,72.8,79.3z"/>
</svg>
