<?xml version="1.0" encoding="utf-8"?>
<!-- Generator: Adobe Illustrator 23.0.0, SVG Export Plug-In . SVG Version: 6.00 Build 0)  -->
<svg version="1.1" id="图层_1" xmlns="http://www.w3.org/2000/svg" xmlns:xlink="http://www.w3.org/1999/xlink" x="0px" y="0px"
	 viewBox="0 0 141.7 141.7" style="enable-background:new 0 0 141.7 141.7;" xml:space="preserve">
<style type="text/css">
	.st0{fill:#FFFFFF;}
</style>
<title>flange</title>
<g>
	<path class="st0" d="M47.7,47.7c-12.9,12.9-12.9,33.5,0,46.4c12.9,12.9,33.5,12.9,46.4,0c12.9-12.9,12.9-33.5,0-46.4
		C81.2,34.8,60.5,34.8,47.7,47.7z M52.1,52.1c2.2-2.2,5.7-2.2,7.9,0c2.2,2.2,2.2,5.7,0,7.9c-2.2,2.2-5.7,2.2-7.9,0
		C50,57.9,50,54.3,52.1,52.1z M60.1,89.6c-2.2,2.2-5.7,2.2-7.9,0c-2.2-2.2-2.2-5.7,0-7.9c2.2-2.2,5.7-2.2,7.9,0
		C62.2,83.8,62.1,87.3,60.1,89.6z M62.5,79.3c-4.6-4.7-4.7-12.2,0-16.8c4.7-4.6,12.2-4.6,16.8,0c4.6,4.6,4.6,12.1,0,16.8
		C74.7,83.9,67.1,83.9,62.5,79.3z M89.7,89.6h-0.1c-2.2,2.2-5.7,2.2-7.9,0c-2.2-2.2-2.2-5.7,0-7.9c2.2-2.2,5.6-2.2,7.9,0
		C91.7,83.8,91.9,87.4,89.7,89.6z M89.7,60.1h-0.1c-2.2,2.2-5.7,2.2-7.9,0c-2.2-2.2-2.2-5.7,0-7.9c2.2-2.1,5.6-2.1,7.9,0
		C91.7,54.3,91.9,57.9,89.7,60.1z"/>
</g>
</svg>
