<svg id="图层_1" data-name="图层 1" xmlns="http://www.w3.org/2000/svg" viewBox="0 0 141.73 141.73"><defs><style>.cls-1,.cls-2{fill:#fff;}.cls-1{fill-rule:evenodd;}</style></defs><title>flattening</title><path class="cls-1" d="M102.08,46.7H38.8a1.5,1.5,0,0,0-1.5,1.5V60.77a1.51,1.51,0,0,0,1.5,1.51h.9a4.48,4.48,0,0,0,8.95,0h1.56a4.47,4.47,0,0,0,8.94,0h1.56a4.48,4.48,0,0,0,8.95,0h1.56a4.47,4.47,0,0,0,8.94,0h1.57a4.47,4.47,0,1,0,8.94,0h1.56a4.48,4.48,0,0,0,9,0h.9a1.51,1.51,0,0,0,1.5-1.51V48.2a1.5,1.5,0,0,0-1.5-1.5Z"/><path class="cls-1" d="M102.08,95H38.8a1.5,1.5,0,0,1-1.5-1.5V81a1.5,1.5,0,0,1,1.5-1.5h.9a4.48,4.48,0,0,1,8.95,0h1.56a4.47,4.47,0,0,1,8.94,0h1.56a4.48,4.48,0,0,1,8.95,0h1.56a4.47,4.47,0,1,1,8.94,0h1.57a4.47,4.47,0,0,1,8.94,0h1.56a4.48,4.48,0,0,1,9,0h.9a1.5,1.5,0,0,1,1.5,1.5V93.53A1.5,1.5,0,0,1,102.09,95Z"/><rect class="cls-2" x="27.96" y="67.64" width="84.96" height="6.46" rx="3.23"/></svg>