<?xml version="1.0" encoding="utf-8"?>
<!-- Generator: Adobe Illustrator 23.0.0, SVG Export Plug-In . SVG Version: 6.00 Build 0)  -->
<svg version="1.1" id="图层_1" xmlns="http://www.w3.org/2000/svg" xmlns:xlink="http://www.w3.org/1999/xlink" x="0px" y="0px"
	 viewBox="0 0 141.7 141.7" style="enable-background:new 0 0 141.7 141.7;" xml:space="preserve">
<style type="text/css">
	.st0{fill:#FFFFFF;}
</style>
<title>forging</title>
<rect x="33.1" y="81.7" class="st0" width="75.5" height="9.9"/>
<path class="st0" d="M20.7,93.2H121c1.4,0,2.5,1.1,2.5,2.5l0,0c0,1.4-1.1,2.5-2.5,2.5H20.7c-1.4,0-2.5-1.1-2.5-2.5l0,0
	C18.2,94.3,19.3,93.2,20.7,93.2z"/>
<path class="st0" d="M101.5,41.1H88.5c0-0.1,0.1-0.3,0.1-0.4v-2.8c0-1-0.8-1.8-1.8-1.8l0,0h-31c-1,0-1.8,0.8-1.8,1.7c0,0,0,0,0,0
	v2.8c0,0.1,0,0.3,0.1,0.4H40.3c-2.4,0-4.4,2-4.4,4.4l0,0v10.6c0,2.4,2,4.4,4.4,4.4h61.2c2.4,0,4.4-2,4.4-4.4V45.5
	C105.8,43.1,103.9,41.1,101.5,41.1z"/>
<polygon class="st0" points="65.9,66.8 70.9,75.4 75.8,66.8 "/>
</svg>
