<svg id="图层_1" data-name="图层 1" xmlns="http://www.w3.org/2000/svg" viewBox="0 0 141.73 141.73"><defs><style>.cls-1{fill:#fff;}</style></defs><title>画板 1 副本 27</title><path class="cls-1" d="M70.87,88.61A17.75,17.75,0,1,1,88.62,70.86h0A17.76,17.76,0,0,1,70.87,88.61Zm0-30.67a12.93,12.93,0,1,0,12.9,13v0A12.94,12.94,0,0,0,70.87,57.94Z"/><path class="cls-1" d="M50.45,67.64a20.67,20.67,0,0,1,40.84,0h5.39V39.52H45.06V67.64Z"/><path class="cls-1" d="M91.29,74.09a20.67,20.67,0,0,1-40.84,0H45.06v28.12H96.68V74.09Z"/></svg>