<svg id="图层_1" data-name="图层 1" xmlns="http://www.w3.org/2000/svg" viewBox="0 0 141.73 141.73"><defs><style>.cls-1{fill:#fff;fill-rule:evenodd;}</style></defs><title>heating</title><path class="cls-1" d="M70.37,111.76c-3.61-11.49-23.13-16.25-26.58-26.09-1.64-6.24-1.48-13.46,1.64-18.22,0,6.24,4.43,14.94,8.53,10.67,3.78-3.94-7.87-5.58-6.23-14.77.33-4.27,3.94-6.57,5.41-16.25,4.11,4.1-2.29,10.83,7.39,14.77-11.65-14.11,9-19.2,7.38-32.82,15.43,15.26.33,24.62,8.7,28.56,3.12,1.31,7.55-7.06,4.6-14,9.19,7.87,8.2,16.41,3.44,23.13-1.8,2.47.17,7.72,2.46,9.36-.82-4.92,3.45-7.39,4.6-12.15,8.53,9.52,11.65,21.16-2.46,30.69C80.22,100.76,75.3,105.52,70.37,111.76Z"/></svg>