<svg id="图层_1" data-name="图层 1" xmlns="http://www.w3.org/2000/svg" viewBox="0 0 141.73 141.73"><defs><style>.cls-1{fill:#fff;}</style></defs><title>hexagon-bar</title><path id="_路径_" data-name=" 路径 " class="cls-1" d="M83.1,94.16,77.87,85.1a2.13,2.13,0,0,1,0-2.13L83.1,73.9A2.13,2.13,0,0,1,85,72.84H95.42a2.14,2.14,0,0,1,1.84,1.06L102.49,83a2.13,2.13,0,0,1,0,2.13l-5.23,9.06a2.13,2.13,0,0,1-1.84,1.07H84.91A2.13,2.13,0,0,1,83.1,94.16Z"/><path id="_路径_2" data-name=" 路径 2" class="cls-1" d="M83.53,69.26,78.3,60.19a2.13,2.13,0,0,1,0-2.13L83.53,49a2.17,2.17,0,0,1,1.85-1.06H95.84A2.15,2.15,0,0,1,97.69,49l5.23,9.07a2.13,2.13,0,0,1,0,2.13l-5.23,9.07a2.13,2.13,0,0,1-1.85,1.06H85.38A2.14,2.14,0,0,1,83.53,69.26Z"/><path id="_路径_3" data-name=" 路径 3" class="cls-1" d="M40.83,93.72,35.6,84.66a2.13,2.13,0,0,1,0-2.13l5.23-9.07a2.13,2.13,0,0,1,1.85-1.06H53.1A2.13,2.13,0,0,1,55,73.46l5.23,9.07a2.13,2.13,0,0,1,0,2.13L55,93.72a2.12,2.12,0,0,1-1.85,1.07H42.68A2.14,2.14,0,0,1,40.83,93.72Z"/><path id="_路径_4" data-name=" 路径 4" class="cls-1" d="M41.3,68.82l-5.2-9.07a2.13,2.13,0,0,1,0-2.13l5.23-9.06a2.14,2.14,0,0,1,1.85-1.07H53.64a2.14,2.14,0,0,1,1.85,1.07l5.23,9.06a2.13,2.13,0,0,1,0,2.13l-5.23,9.07a2.11,2.11,0,0,1-1.85,1.06H43.15A2.11,2.11,0,0,1,41.3,68.82Z"/><path id="_路径_5" data-name=" 路径 5" class="cls-1" d="M62.27,81.26,57,72.19a2.13,2.13,0,0,1,0-2.13L62.27,61a2.15,2.15,0,0,1,1.84-1.07H74.58A2.14,2.14,0,0,1,76.43,61l5.23,9.06a2.13,2.13,0,0,1,0,2.13l-5.23,9.07a2.14,2.14,0,0,1-1.85,1.07H64.1A2.11,2.11,0,0,1,62.27,81.26Z"/></svg>