<svg id="图层_1" data-name="图层 1" xmlns="http://www.w3.org/2000/svg" viewBox="0 0 141.73 141.73"><defs><style>.cls-1,.cls-2{fill:#fff;}.cls-2{fill-rule:evenodd;}</style></defs><title>hot-rolling</title><path class="cls-1" d="M90.22,100.28H48.78a1.86,1.86,0,0,1-1.86-1.86V47.31a1.86,1.86,0,0,1,1.86-1.86H90.22a1.87,1.87,0,0,1,1.87,1.86V98.42A1.87,1.87,0,0,1,90.22,100.28ZM53,94.22H86V51.51H53Z"/><path class="cls-1" d="M33.75,70.47h71.51a2.44,2.44,0,0,1,2.44,2.44h0a2.44,2.44,0,0,1-2.44,2.44H33.75a2.44,2.44,0,0,1-2.44-2.44h0A2.44,2.44,0,0,1,33.75,70.47Z"/><path class="cls-2" d="M69.5,54.4a8,8,0,1,0,8,8A8,8,0,0,0,69.5,54.4Zm0,11.41a3.38,3.38,0,1,1,3.37-3.39v0A3.37,3.37,0,0,1,69.5,65.81Z"/><path class="cls-2" d="M69.5,75.36a8,8,0,1,0,8,8A8,8,0,0,0,69.5,75.36Zm0,11.41a3.38,3.38,0,1,1,3.37-3.39h0a3.36,3.36,0,0,1-3.36,3.38Z"/></svg>