<svg id="图层_1" data-name="图层 1" xmlns="http://www.w3.org/2000/svg" viewBox="0 0 141.73 141.73"><defs><style>.cls-1,.cls-2{fill:#fff;}.cls-2{fill-rule:evenodd;}</style></defs><title>hot-continuous-rolling</title><rect class="cls-1" x="36.25" y="68.44" width="65.85" height="4.21" rx="2.1"/><path class="cls-2" d="M84.83,54.58a6.93,6.93,0,1,0,6.93,6.93h0A6.93,6.93,0,0,0,84.83,54.58Zm0,9.84a2.91,2.91,0,1,1,2.9-2.92h0A2.92,2.92,0,0,1,84.83,64.42Z"/><path class="cls-2" d="M84.83,72.65a6.93,6.93,0,1,0,6.93,6.93h0a6.92,6.92,0,0,0-6.92-6.92Zm0,9.83a2.91,2.91,0,1,1,2.9-2.92h0A2.92,2.92,0,0,1,84.83,82.48Z"/><path class="cls-1" d="M97.84,46.87h-26a1.61,1.61,0,0,0-1.61,1.61v44a1.61,1.61,0,0,0,1.61,1.61h26a1.61,1.61,0,0,0,1.61-1.61v-44A1.61,1.61,0,0,0,97.84,46.87Zm-3.62,42H75.44V52.07H94.22Z"/><path class="cls-2" d="M53.52,54.58a6.93,6.93,0,1,0,6.92,6.94h0A6.92,6.92,0,0,0,53.52,54.58Zm0,9.84a2.91,2.91,0,1,1,2.9-2.92h0A2.92,2.92,0,0,1,53.52,64.42Z"/><path class="cls-2" d="M53.52,72.65a6.93,6.93,0,1,0,6.92,6.94v0A6.92,6.92,0,0,0,53.52,72.65Zm0,9.83a2.91,2.91,0,1,1,2.9-2.92h0A2.92,2.92,0,0,1,53.52,82.48Z"/><path class="cls-1" d="M66.52,46.87h-26a1.61,1.61,0,0,0-1.61,1.61v44a1.6,1.6,0,0,0,1.57,1.65h26a1.61,1.61,0,0,0,1.61-1.61v-44a1.61,1.61,0,0,0-1.57-1.65Zm-3.62,42H44.12V52.07H62.89Z"/></svg>