<svg id="图层_1" data-name="图层 1" xmlns="http://www.w3.org/2000/svg" viewBox="0 0 141.73 141.73"><defs><style>.cls-1{fill:#fff;}</style></defs><title>ingot-casting</title><path class="cls-1" d="M57.93,52.19l-6.14,9.62a3.62,3.62,0,0,1-5,1.11h0L38.47,57.6a3.61,3.61,0,0,1-1.14-5l0,0,9.88-15.49A.92.92,0,0,0,47,35.85h0l-.85-.54a.91.91,0,0,0-1.27.27l-10,15.65a6.39,6.39,0,0,0,2,8.81l8.63,5.51a6.38,6.38,0,0,0,8.8-2h0l5.85-9.17a9,9,0,0,1,9.25-4l.13-.21L67.6,48.94a7,7,0,0,0-5.39-.29A8.37,8.37,0,0,0,57.93,52.19Z"/><path class="cls-1" d="M69.48,47.39a5.74,5.74,0,0,0-1.14-.62,13.43,13.43,0,0,0-5.55-1.14H59.65s-3.62-.12-5.8,0H47.06a21.92,21.92,0,0,0-4.13,0l-4.78,7.49a2.68,2.68,0,0,0,.82,3.7l8.32,5.31a2.69,2.69,0,0,0,3.7-.82l6.13-9.62a9.39,9.39,0,0,1,4.75-3.85,7.75,7.75,0,0,1,6.1.33l.1,0a10,10,0,0,1,3,3c5.08,7.86,9,25.38,9,25.38h10C82.44,55.32,69.48,47.39,69.48,47.39Z"/><path class="cls-1" d="M95.14,104.12h-22a7.39,7.39,0,0,1-7.38-7.37V57.16a1.78,1.78,0,1,1,3.56,0h0V96.75a3.83,3.83,0,0,0,3.82,3.82h22A3.85,3.85,0,0,0,99,96.75V57.16a1.78,1.78,0,0,1,3.55-.27V96.75A7.39,7.39,0,0,1,95.14,104.12Z"/><path class="cls-1" d="M70.61,76.05H97.69v20a3.17,3.17,0,0,1-3.16,3.16H73.77a3.16,3.16,0,0,1-3.16-3.16h0Z"/></svg>