<svg id="图层_1" data-name="图层 1" xmlns="http://www.w3.org/2000/svg" viewBox="0 0 141.73 141.73"><defs><style>.cls-1{fill:#fff;}</style></defs><title>ingot</title><path class="cls-1" d="M88.78,51.63H47.59c-7.07,0-12.6,10.12-12.6,23s5.53,23,12.6,23H88.78c7.07,0,12.61-10.12,12.61-23S95.85,51.63,88.78,51.63Zm0,43.07H53.93l.11-.11.48-.54.15-.17c.2-.24.39-.5.59-.76l.13-.2c.15-.21.3-.42.44-.65S56,92.09,56,92s.29-.47.43-.72l.11-.19c.17-.31.34-.63.5-1l.11-.24c.13-.26.25-.53.36-.8,0-.1.1-.21.14-.31.12-.3.25-.6.36-.91l.07-.18c.14-.37.27-.75.39-1.13l.09-.3c.1-.3.19-.6.27-.91a1.54,1.54,0,0,1,.1-.35c.1-.36.19-.72.27-1.09v-.15c.1-.42.18-.84.27-1.27l.06-.35c.06-.33.12-.67.17-1l.06-.39c.06-.42.11-.84.16-1.27v-.09c0-.46.09-.92.13-1.39V71.29a12.82,12.82,0,0,0-.13-1.39v-.1a8.72,8.72,0,0,0-.16-1.25l-.06-.4a6,6,0,0,0-.17-1l-.06-.36c-.09-.43-.17-.85-.27-1.27v-.15q-.12-.57-.27-1.08a1.21,1.21,0,0,0-.1-.36q-.12-.47-.27-.9l-.09-.31c-.12-.38-.25-.76-.39-1.13L58,61.41l-.36-.9a3.09,3.09,0,0,0-.14-.32c-.11-.27-.23-.53-.36-.79,0-.09-.07-.17-.11-.25-.16-.33-.33-.65-.5-1L56.43,58c-.14-.24-.28-.49-.43-.72L55.83,57c-.06-.09-.29-.44-.44-.65l-.13-.19c-.2-.27-.39-.52-.59-.77l-.15-.17L54,54.65l-.1,0H88.81c5.21,0,9.61,9.17,9.61,20s-4.43,20-9.64,20Z"/><path class="cls-1" d="M93,61.89l-.79-1.49a3.82,3.82,0,0,0-3.45-2.57H62.27a2.12,2.12,0,0,0-1.85,2.36,2,2,0,0,0,.14.53l.78,2.47a2.75,2.75,0,0,0,2.59,2.08l27.6-.15C92.93,65.11,93.75,63.3,93,61.89Z"/></svg>