<svg id="图层_1" data-name="图层 1" xmlns="http://www.w3.org/2000/svg" viewBox="0 0 141.73 141.73"><defs><style>.cls-1{fill:#fff;}</style></defs><title>lubricating</title><path class="cls-1" d="M83.11,60.39A56.11,56.11,0,0,1,68,57.92c-3.28-.87-5.49-1.67-7.26-2.31a16,16,0,0,0-6.29-1.38,20.07,20.07,0,0,0-10.1,3,2.51,2.51,0,1,1-2.51-4.35,25.09,25.09,0,0,1,12.59-3.65h.09a20.72,20.72,0,0,1,7.92,1.69c1.68.61,3.78,1.36,6.84,2.18,4.56,1.21,9.26,2.45,14.9,2.28a35.4,35.4,0,0,0,13.27-3.15,2.5,2.5,0,1,1,2.14,4.52l-.14.06a40.71,40.71,0,0,1-15.12,3.52Z"/><path class="cls-1" d="M83.11,76.82A56.43,56.43,0,0,1,68,74.35c-3.29-.87-5.5-1.67-7.27-2.31a16.83,16.83,0,0,0-6.29-1.39,20.07,20.07,0,0,0-10.1,3,2.51,2.51,0,1,1-2.51-4.35h0a25,25,0,0,1,12.61-3.65,21.16,21.16,0,0,1,8,1.69c1.68.61,3.78,1.36,6.84,2.18,4.57,1.21,9.27,2.46,14.9,2.28a35.77,35.77,0,0,0,13.27-3.1,2.5,2.5,0,0,1,2.31,4.44l-.31.13A40.53,40.53,0,0,1,84.35,76.8Z"/><path class="cls-1" d="M83.11,93.23A56.49,56.49,0,0,1,68,90.77c-3.28-.88-5.49-1.67-7.26-2.31a16.07,16.07,0,0,0-6.22-1.4h-.07a20.27,20.27,0,0,0-10.1,3,2.5,2.5,0,1,1-2.51-4.33,25.08,25.08,0,0,1,12.61-3.66h.09a20.72,20.72,0,0,1,7.92,1.69c1.68.61,3.78,1.37,6.84,2.18,4.56,1.22,9.26,2.46,14.9,2.29a35.77,35.77,0,0,0,13.27-3.1,2.5,2.5,0,0,1,2.31,4.44l-.31.13a40.53,40.53,0,0,1-15.13,3.53Z"/></svg>