<svg id="图层_1" data-name="图层 1" xmlns="http://www.w3.org/2000/svg" viewBox="0 0 141.73 141.73"><defs><style>.cls-1{fill:#fff;}</style></defs><title>marking</title><polygon class="cls-1" points="77.92 78.48 71.81 83.94 70.77 81.08 70.77 81.08 67.23 71.37 34.06 86.16 70.82 58.86 72.1 62.36 74.24 68.25 75.92 72.88 93.53 64.51 77.95 78.45 77.96 78.46 77.92 78.48"/><path class="cls-1" d="M57.41,63.58A22.77,22.77,0,0,1,96.23,51.8,30.84,30.84,0,0,0,41.3,75.55Z"/><path class="cls-1" d="M87.52,89.05a22.67,22.67,0,0,1-15.18.06L70,91.22,68.6,87.41a22.69,22.69,0,0,1-8.42-8.29L45,85.89a30.84,30.84,0,0,0,57.55-16.5A22.79,22.79,0,0,1,87.52,89.05Z"/><circle class="cls-1" cx="100.41" cy="60.03" r="4.04"/></svg>