<svg id="图层_1" data-name="图层 1" xmlns="http://www.w3.org/2000/svg" viewBox="0 0 141.73 141.73"><defs><style>.cls-1{fill:#fff;}</style></defs><title>pilger</title><path class="cls-1" d="M55.68,56V46.78a2.68,2.68,0,0,1,2.68-2.68H84.65a2.68,2.68,0,0,1,2.72,2.64V56h5V46.78a7.69,7.69,0,0,0-7.69-7.68H58.37a7.68,7.68,0,0,0-7.68,7.68V56Z"/><path class="cls-1" d="M87.37,84.6v9.18a2.68,2.68,0,0,1-2.69,2.69H58.37a2.69,2.69,0,0,1-2.68-2.69V84.6h-5v9.18a7.68,7.68,0,0,0,7.68,7.69H84.65a7.69,7.69,0,0,0,7.69-7.69V84.6Z"/><path class="cls-1" d="M75,65.64h0a29.49,29.49,0,0,0-20.2-8H31.37V82.93H54.82a29.4,29.4,0,0,0,20.2-8h0a9.19,9.19,0,0,1,6.29-2.49H112.8v-4.3H81.31A9.14,9.14,0,0,1,75,65.64Z"/><circle class="cls-1" cx="81" cy="60.64" r="6.17"/><circle class="cls-1" cx="81" cy="80.06" r="6.17"/></svg>