<?xml version="1.0" encoding="utf-8"?>
<!-- Generator: Adobe Illustrator 23.0.0, SVG Export Plug-In . SVG Version: 6.00 Build 0)  -->
<svg version="1.1" id="图层_1" xmlns="http://www.w3.org/2000/svg" xmlns:xlink="http://www.w3.org/1999/xlink" x="0px" y="0px"
	 viewBox="0 0 141.7 141.7" style="enable-background:new 0 0 141.7 141.7;" xml:space="preserve">
<style type="text/css">
	.st0{fill:#FFFFFF;}
</style>
<title>pipe-cap-sizing</title>
<path class="st0" d="M40.5,59.2L40.5,59.2c2.2,0,4,1.8,4,4v21.6c0,2.2-1.8,4-4,4l0,0c-2.2,0-4-1.8-4-4V63.1
	C36.5,61,38.3,59.2,40.5,59.2z"/>
<path class="st0" d="M101.4,59L101.4,59c2.2,0,4,1.8,4,4v21.6c0,2.2-1.8,4-4,4l0,0c-2.2,0-4-1.8-4-4V63C97.4,60.8,99.2,59,101.4,59z
	"/>
<path class="st0" d="M58.1,71.3c-0.5,0-0.9,0.4-0.9,0.9c0,0.1,0,0.3,0.1,0.4c4,7.4,13.2,10.2,20.7,6.2c2.6-1.4,4.8-3.6,6.2-6.2
	c0.2-0.4,0.1-1-0.4-1.2c-0.1-0.1-0.3-0.1-0.4-0.1H58.1z"/>
<path class="st0" d="M88.3,57.3v7.7l0,0c0,9.7-7.8,17.5-17.5,17.5s-17.5-7.8-17.5-17.5l0,0v-7.7h-8v7.7l0,0v0.3l0,0
	c0,14.1,11.4,25.5,25.5,25.5s25.5-11.4,25.5-25.5l0,0v-0.3l0,0v-7.7H88.3z"/>
</svg>
