<?xml version="1.0" encoding="utf-8"?>
<!-- Generator: Adobe Illustrator 23.0.0, SVG Export Plug-In . SVG Version: 6.00 Build 0)  -->
<svg version="1.1" id="图层_1" xmlns="http://www.w3.org/2000/svg" xmlns:xlink="http://www.w3.org/1999/xlink" x="0px" y="0px"
	 viewBox="0 0 141.7 141.7" style="enable-background:new 0 0 141.7 141.7;" xml:space="preserve">
<style type="text/css">
	.st0{fill:#FFFFFF;}
</style>
<title>pipe-cap-pickling</title>
<path class="st0" d="M95.8,93.7H45.7c-4.4,0-8-3.6-8-8V44.6h3.9v41.1c0,2.3,1.8,4.1,4.1,4.1h50.1c2.3,0,4.1-1.8,4.1-4.1l0,0V44.6
	h3.9v41.1C103.8,90.1,100.2,93.6,95.8,93.7z"/>
<rect x="37.8" y="53.7" class="st0" width="66" height="4.1"/>
<path class="st0" d="M95.8,93.7H45.7c-4.4,0-8-3.6-8-8V44.6h3.9v41.2c0,2.3,1.8,4.1,4.1,4.1h50.1c2.3,0,4.1-1.8,4.1-4.1l0,0V44.6
	h3.9v41.2C103.7,90.1,100.1,93.6,95.8,93.7z"/>
<rect x="37.7" y="53.7" class="st0" width="66" height="4.1"/>
<path class="st0" d="M69.1,86.9V83l0,0c-0.2-4.9,3.7-9,8.6-9.2s9,3.7,9.2,8.6c0,0.2,0,0.4,0,0.6l0,0v3.9H91V83l0,0v-0.2l0,0
	c0-7.2-5.8-13-13-13s-13,5.8-13,13l0,0V83l0,0v3.9L69.1,86.9z"/>
</svg>
