<?xml version="1.0" encoding="utf-8"?>
<!-- Generator: Adobe Illustrator 23.0.0, SVG Export Plug-In . SVG Version: 6.00 Build 0)  -->
<svg version="1.1" id="图层_1" xmlns="http://www.w3.org/2000/svg" xmlns:xlink="http://www.w3.org/1999/xlink" x="0px" y="0px"
	 viewBox="0 0 141.7 141.7" style="enable-background:new 0 0 141.7 141.7;" xml:space="preserve">
<style type="text/css">
	.st0{fill:#FFFFFF;}
</style>
<title>pipe-cap-forming</title>
<path class="st0" d="M40.5,71.1L40.5,71.1c2.2,0,4,1.8,4,4v21.6c0,2.2-1.8,4-4,4l0,0c-2.2,0-4-1.8-4-4V75
	C36.5,72.8,38.3,71.1,40.5,71.1z"/>
<path class="st0" d="M101.4,70.9L101.4,70.9c2.2,0,4,1.8,4,4v21.6c0,2.2-1.8,4-4,4l0,0c-2.2,0-4-1.8-4-4V74.8
	C97.4,72.6,99.2,70.9,101.4,70.9z"/>
<rect x="35.8" y="62.2" class="st0" width="69.6" height="6"/>
<path class="st0" d="M48.7,43.1c-0.9,0-1.6,0.7-1.6,1.5c0,0.3,0.1,0.5,0.2,0.7c7,12.9,23.1,17.8,36,10.8c4.6-2.5,8.4-6.2,10.8-10.8
	c0.4-0.8,0.1-1.7-0.7-2.1c-0.2-0.1-0.5-0.2-0.7-0.2H48.7z"/>
</svg>
