<?xml version="1.0" encoding="utf-8"?>
<!-- Generator: Adobe Illustrator 23.0.0, SVG Export Plug-In . SVG Version: 6.00 Build 0)  -->
<svg version="1.1" id="图层_1" xmlns="http://www.w3.org/2000/svg" xmlns:xlink="http://www.w3.org/1999/xlink" x="0px" y="0px"
	 viewBox="0 0 141.7 141.7" style="enable-background:new 0 0 141.7 141.7;" xml:space="preserve">
<style type="text/css">
	.st0{fill:#FFFFFF;}
</style>
<title>pipe-cap</title>
<path class="st0" d="M70.9,50.1c-18,0-32.6,12.1-32.6,27v11.8c0,1.4,1,2.8,2.7,2.8h59.9c1.3,0,2.6-1,2.7-2.5c0-0.1,0-0.2,0-0.3V77.1
	C103.5,62.2,88.9,50.1,70.9,50.1z M70.9,56.6c0,1.1-1,2.2-2.2,2.3c-7.3,0.7-13.6,4.1-16.8,8.9c-1,1.4-2.8,1.9-4.3,1h-0.2
	c-1.1-0.7-1.7-2.1-1-3.2c0.1-0.1,0.1-0.2,0.2-0.3C51,59.1,59,54.8,68.4,54.2c1.1-0.1,2.3,0.9,2.4,2.1C70.8,56.4,70.8,56.5,70.9,56.6
	L70.9,56.6z"/>
</svg>
