<?xml version="1.0" encoding="utf-8"?>
<!-- Generator: Adobe Illustrator 23.0.0, SVG Export Plug-In . SVG Version: 6.00 Build 0)  -->
<svg version="1.1" id="图层_1" xmlns="http://www.w3.org/2000/svg" xmlns:xlink="http://www.w3.org/1999/xlink" x="0px" y="0px"
	 viewBox="0 0 141.7 141.7" style="enable-background:new 0 0 141.7 141.7;" xml:space="preserve">
<style type="text/css">
	.st0{fill:#FFFFFF;}
</style>
<title>plate</title>
<path id="_矩形_" class="st0" d="M41.8,85.5h58c0.7,0,1.2,0.6,1.2,1.2v0l0,0c0,0.7-0.5,1.2-1.2,1.2h-58c-0.7,0-1.2-0.6-1.2-1.2
	l0,0l0,0C40.7,86.1,41.2,85.6,41.8,85.5z"/>
<path id="_矩形_2" class="st0" d="M42,90h57.8c0.7,0,1.2,0.5,1.3,1.2l0,0c0,0.7-0.6,1.2-1.2,1.2h0H42c-0.7,0-1.2-0.6-1.2-1.2l0,0
	l0,0C40.8,90.5,41.3,90,42,90z"/>
<path id="_矩形_3" class="st0" d="M42.1,94.4h57.5c0.7,0,1.2,0.6,1.2,1.2v0l0,0c0,0.7-0.6,1.2-1.2,1.2h0H42.1
	c-0.7,0-1.2-0.6-1.2-1.2l0,0l0,0C40.9,94.9,41.5,94.4,42.1,94.4L42.1,94.4z"/>
<path id="_矩形_4" class="st0" d="M42.3,98.8h57.2c0.7,0,1.2,0.5,1.2,1.2l0,0c0,0.7-0.6,1.2-1.2,1.2h0H42.3
	c-0.7,0-1.2-0.5-1.3-1.2c0,0,0,0,0,0l0,0C41,99.3,41.6,98.8,42.3,98.8C42.2,98.8,42.3,98.8,42.3,98.8z"/>
<path class="st0" d="M99.2,40.5H42.5c-1.3,0-2.3,1-2.3,2.3v38.2c0,1.3,1,2.3,2.3,2.3h56.7c1.3,0,2.3-1,2.3-2.3V42.8
	C101.5,41.5,100.5,40.5,99.2,40.5z"/>
</svg>
