<?xml version="1.0" encoding="utf-8"?>
<!-- Generator: Adobe Illustrator 23.0.0, SVG Export Plug-In . SVG Version: 6.00 Build 0)  -->
<svg version="1.1" id="图层_1" xmlns="http://www.w3.org/2000/svg" xmlns:xlink="http://www.w3.org/1999/xlink" x="0px" y="0px"
	 viewBox="0 0 141.7 141.7" style="enable-background:new 0 0 141.7 141.7;" xml:space="preserve">
<style type="text/css">
	.st0{fill:#FFFFFF;}
</style>
<title>press</title>
<rect x="33.1" y="65.9" class="st0" width="75.5" height="9.9"/>
<path class="st0" d="M43.6,42.4h54.5c2.3,0,4.2,1.9,4.2,4.2v11.1c0,2.3-1.9,4.2-4.2,4.2H43.6c-2.3,0-4.2-1.9-4.2-4.2V46.5
	C39.4,44.3,41.3,42.4,43.6,42.4z"/>
<path class="st0" d="M43.6,79.9h54.5c2.3,0,4.2,1.9,4.2,4.2v11.1c0,2.3-1.9,4.2-4.2,4.2H43.6c-2.3,0-4.2-1.9-4.2-4.2V84.1
	C39.4,81.8,41.3,79.9,43.6,79.9z"/>
</svg>
