<?xml version="1.0" encoding="utf-8"?>
<!-- Generator: Adobe Illustrator 23.0.0, SVG Export Plug-In . SVG Version: 6.00 Build 0)  -->
<svg version="1.1" id="图层_1" xmlns="http://www.w3.org/2000/svg" xmlns:xlink="http://www.w3.org/1999/xlink" x="0px" y="0px"
	 viewBox="0 0 141.7 141.7" style="enable-background:new 0 0 141.7 141.7;" xml:space="preserve">
<style type="text/css">
	.st0{fill:#FFFFFF;}
</style>
<title>reducer-forming</title>
<path class="st0" d="M45.6,46.2c-0.8,0-1.5,0.6-1.6,1.4c0,0.2,0,0.4,0.1,0.6l2.6,7.4c4.5,12.9,6.8,26.4,6.8,40.1h34.8
	c0-13.6,2.3-27.2,6.8-40.1l2.6-7.4c0.3-0.8-0.2-1.7-1-1.9c-0.2-0.1-0.4-0.1-0.5-0.1L45.6,46.2z"/>
<path class="st0" d="M49.5,96.8c0-13.9-2.2-27.7-6.6-40.8l-3.7-11.1h-2.7v51.9H49.5z"/>
<path class="st0" d="M102.6,44.9L98.9,56c-4.4,13.2-6.6,27-6.6,40.8h13V44.9H102.6z"/>
</svg>
