<?xml version="1.0" encoding="utf-8"?>
<!-- Generator: Adobe Illustrator 23.0.0, SVG Export Plug-In . SVG Version: 6.00 Build 0)  -->
<svg version="1.1" id="图层_1" xmlns="http://www.w3.org/2000/svg" xmlns:xlink="http://www.w3.org/1999/xlink" x="0px" y="0px"
	 viewBox="0 0 141.7 141.7" style="enable-background:new 0 0 141.7 141.7;" xml:space="preserve">
<style type="text/css">
	.st0{fill:#FFFFFF;}
</style>
<title>reducer</title>
<path class="st0" d="M70.9,43.3C53.1,43.3,34,47.1,34,55.6v0.9c0,0.2,0,0.5,0.1,0.7v0.1c0.4,1,0.9,2,1.7,2.8
	c4.3,6.6,10.9,18.6,11.6,31.4c0,0.2,0,0.3,0.1,0.4V92c0,3.5,10.4,6.5,23.3,6.5c12.6,0,22.9-2.8,23.3-6.3c0.1-0.2,0.2-0.3,0.2-0.6
	c0.8-13.1,7.6-25.3,11.9-31.7c0.4-0.4,0.7-0.9,0.9-1.3c0-0.3,0-0.4,0.1-0.4c0.1-0.4,0.3-0.9,0.6-1.7v-0.9
	C107.8,47.1,88.7,43.3,70.9,43.3z M70.8,62.6c-20,0-31.1-4.7-31.3-6.6c0.3-2.1,11.3-6.8,31.3-6.8s31.1,4.7,31.3,6.6
	C101.8,57.9,90.8,62.6,70.8,62.6z"/>
</svg>
