<?xml version="1.0" encoding="utf-8"?>
<!-- Generator: Adobe Illustrator 23.0.0, SVG Export Plug-In . SVG Version: 6.00 Build 0)  -->
<svg version="1.1" id="图层_1" xmlns="http://www.w3.org/2000/svg" xmlns:xlink="http://www.w3.org/1999/xlink" x="0px" y="0px"
	 viewBox="0 0 141.7 141.7" style="enable-background:new 0 0 141.7 141.7;" xml:space="preserve">
<style type="text/css">
	.st0{fill:#FFFFFF;}
</style>
<title>reducer-pickling</title>
<path class="st0" d="M95.8,93.7H45.7c-4.4,0-8-3.6-8-8V44.6h3.9v41.1c0,2.3,1.8,4.1,4.1,4.1h50.1c2.3,0,4.1-1.8,4.1-4.1l0,0V44.6
	h3.9v41.1C103.8,90.1,100.2,93.6,95.8,93.7z"/>
<rect x="37.8" y="53.7" class="st0" width="66" height="4.1"/>
<path class="st0" d="M95.8,93.7H45.7c-4.4,0-8-3.6-8-8V44.6h3.9v41.2c0,2.3,1.8,4.1,4.1,4.1h50.1c2.3,0,4.1-1.8,4.1-4.1l0,0V44.6
	h3.9v41.2C103.7,90.1,100.1,93.6,95.8,93.7z"/>
<rect x="37.7" y="53.7" class="st0" width="66" height="4.1"/>
<path class="st0" d="M72.8,69.1c-0.3,0-0.6,0.2-0.6,0.6c0,0.1,0,0.1,0,0.2l1,2.8c1.7,4.8,2.5,9.9,2.5,15h13c0-5.1,0.9-10.2,2.5-15
	l1-2.8c0.1-0.3-0.1-0.6-0.3-0.7c-0.1,0-0.1,0-0.2,0H72.8z"/>
</svg>
