<?xml version="1.0" encoding="utf-8"?>
<!-- Generator: Adobe Illustrator 23.0.0, SVG Export Plug-In . SVG Version: 6.00 Build 0)  -->
<svg version="1.1" id="图层_1" xmlns="http://www.w3.org/2000/svg" xmlns:xlink="http://www.w3.org/1999/xlink" x="0px" y="0px"
	 viewBox="0 0 141.7 141.7" style="enable-background:new 0 0 141.7 141.7;" xml:space="preserve">
<style type="text/css">
	.st0{fill:#FFFFFF;}
</style>
<title>reducer-sizing</title>
<path class="st0" d="M102.6,44.9H36.4v51.9h68.8V44.9H102.6z M98.9,56c-3.8,11.4-6,23.3-6.4,35.3c0,0.8-0.7,1.4-1.4,1.4H50.7
	c-0.8,0-1.4-0.6-1.4-1.4c-0.5-12-2.7-23.9-6.5-35.3l-1.7-5.1c-0.3-0.7,0.1-1.6,0.9-1.8c0.2-0.1,0.3-0.1,0.5-0.1h56.7
	c0.8,0,1.4,0.6,1.4,1.4c0,0.2,0,0.3-0.1,0.5L98.9,56z"/>
</svg>
