<svg id="图层_1" data-name="图层 1" xmlns="http://www.w3.org/2000/svg" viewBox="0 0 141.73 141.73"><defs><style>.cls-1{fill:#fff;}</style></defs><title>round-pipe-pickling</title><path class="cls-1" d="M96.17,95.41H46.07a8,8,0,0,1-8-8V46.32H42V87.45A4.08,4.08,0,0,0,46,91.52h50.1a4.07,4.07,0,0,0,4.07-4.07V46.32h3.89V87.45A8,8,0,0,1,96.17,95.41Z"/><path class="cls-1" d="M79.26,91.94a11,11,0,1,1,11-11A11,11,0,0,1,79.26,91.94Zm0-18.16a7.14,7.14,0,1,0,7.14,7.14h0a7.14,7.14,0,0,0-7.14-7.13Z"/><rect class="cls-1" x="38.1" y="55.41" width="66.03" height="4.14"/></svg>