<svg id="图层_1" data-name="图层 1" xmlns="http://www.w3.org/2000/svg" viewBox="0 0 141.73 141.73"><defs><style>.cls-1{fill:#fff;}</style></defs><title>seamless-pipe</title><path class="cls-1" d="M70.84,40.4a15,15,0,1,0,15,15h0A15,15,0,0,0,70.84,40.4Zm0,24.15A9.14,9.14,0,1,1,80,55.41h0a9.14,9.14,0,0,1-9.14,9.11Z"/><path class="cls-1" d="M70.84,70.92A15.51,15.51,0,1,1,86.36,55.41,15.51,15.51,0,0,1,70.84,70.92Zm0-30a14.51,14.51,0,1,0,14.52,14.5h0A14.54,14.54,0,0,0,70.84,40.9Zm0,24.15a9.64,9.64,0,1,1,9.64-9.64h0a9.65,9.65,0,0,1-9.64,9.62Zm0-18.28a8.64,8.64,0,1,0,8.64,8.64h0a8.66,8.66,0,0,0-8.64-8.66Z"/><path class="cls-1" d="M55.83,66.65a15,15,0,1,0,15,15,15,15,0,0,0-15-15Zm0,24.16A9.15,9.15,0,1,1,65,81.65v0a9.14,9.14,0,0,1-9.14,9.14Z"/><path class="cls-1" d="M55.83,97.18A15.52,15.52,0,1,1,71.34,81.65v0A15.52,15.52,0,0,1,55.83,97.18Zm0-30A14.52,14.52,0,1,0,70.34,81.71h0A14.53,14.53,0,0,0,55.83,67.15h0Zm0,24.16a9.65,9.65,0,1,1,9.64-9.66v0a9.65,9.65,0,0,1-9.64,9.61Zm0-18.29a8.65,8.65,0,1,0,8.64,8.66h0A8.65,8.65,0,0,0,55.85,73h0Z"/><path class="cls-1" d="M85.86,66.65a15,15,0,1,0,15,15,15,15,0,0,0-15-15Zm0,24.16A9.15,9.15,0,1,1,95,81.65v0A9.14,9.14,0,0,1,85.86,90.81Z"/><path class="cls-1" d="M85.86,97.18a15.52,15.52,0,1,1,15.51-15.53v0A15.53,15.53,0,0,1,85.86,97.18Zm0-30a14.52,14.52,0,1,0,14.51,14.53h0A14.53,14.53,0,0,0,85.86,67.15h0Zm0,24.16a9.65,9.65,0,1,1,9.64-9.66v0a9.66,9.66,0,0,1-9.64,9.61Zm0-18.29a8.65,8.65,0,1,0,8.64,8.66h0A8.66,8.66,0,0,0,85.86,73h0Z"/></svg>