<?xml version="1.0" encoding="utf-8"?>
<!-- Generator: Adobe Illustrator 23.0.0, SVG Export Plug-In . SVG Version: 6.00 Build 0)  -->
<svg version="1.1" id="图层_1" xmlns="http://www.w3.org/2000/svg" xmlns:xlink="http://www.w3.org/1999/xlink" x="0px" y="0px"
	 viewBox="0 0 141.7 141.7" style="enable-background:new 0 0 141.7 141.7;" xml:space="preserve">
<style type="text/css">
	.st0{fill:#FFFFFF;}
</style>
<title>shear</title>
<path class="st0" d="M39.3,46.4v49h63.2v-49H39.3z M87.8,64.6c0.4,1,0.6,2,0.8,3l-1,0.2c-0.2-1-0.4-1.9-0.8-2.8L87.8,64.6z M64.7,54
	l0.3,0.9c-0.9,0.3-1.8,0.8-2.7,1.3l-0.5-0.9C62.7,54.8,63.7,54.4,64.7,54z M55.3,61.9l0.9,0.5c-0.5,0.9-0.9,1.8-1.3,2.7l-0.9-0.3
	C54.3,63.8,54.7,62.8,55.3,61.9L55.3,61.9z M52.9,70.9c0-1,0.1-2.1,0.3-3.1l1,0.2c-0.2,1-0.3,1.9-0.3,2.9H52.9L52.9,70.9z M54,77.1
	c-0.4-1-0.6-2-0.8-3l1-0.2c0.2,1,0.4,1.9,0.8,2.9L54,77.1z M57.1,82.5c-0.7-0.8-1.3-1.7-1.8-2.6l0.9-0.5c0.5,0.9,1.1,1.7,1.7,2.4
	L57.1,82.5z M57.8,60L57,59.4c0.7-0.8,1.4-1.5,2.2-2.2l0.6,0.8C59.1,58.5,58.5,59.2,57.8,60z M61.9,86.5c-0.9-0.5-1.8-1.1-2.6-1.8
	l0.7-0.8c0.8,0.6,1.6,1.2,2.4,1.7L61.9,86.5z M67.8,88.6c-1-0.2-2-0.5-3-0.8l0.3-0.9c0.9,0.3,1.9,0.6,2.9,0.8L67.8,88.6z M67.9,54.2
	l-0.2-1c1-0.2,2.1-0.3,3.1-0.3v1C69.8,53.9,68.8,54,67.9,54.2L67.9,54.2z M70.9,88.9v-1c1,0,2-0.1,2.9-0.3l0.2,1
	C73,88.8,71.9,88.9,70.9,88.9L70.9,88.9z M73.7,54.1l0.2-1c1,0.2,2,0.4,3,0.8l-0.3,0.9C75.7,54.6,74.7,54.3,73.7,54.1L73.7,54.1z
	 M77,87.8l-0.3-0.9c0.9-0.3,1.8-0.8,2.7-1.3l0.5,0.9C78.9,87,78,87.4,77,87.8z M79.3,56.1l0.5-0.9c0.9,0.5,1.8,1.1,2.6,1.8l-0.6,0.8
	C81,57.1,80.2,56.6,79.3,56.1L79.3,56.1z M82.4,84.7l-0.6-0.8c0.8-0.6,1.5-1.3,2.1-2.1l0.8,0.6C84,83.2,83.2,84,82.4,84.7L82.4,84.7
	z M83.8,59.9l0.8-0.7c0.7,0.8,1.3,1.7,1.8,2.6l-0.9,0.5C85,61.5,84.5,60.7,83.8,59.9L83.8,59.9z M86.4,79.9l-0.9-0.5
	c0.5-0.9,0.9-1.7,1.3-2.7l0.9,0.3C87.4,78,87,79,86.4,79.9L86.4,79.9z M88.8,70.9c0,1-0.1,2.1-0.2,3.1l-1-0.2c0.2-1,0.3-2,0.3-2.9
	L88.8,70.9L88.8,70.9z"/>
</svg>
