<svg id="图层_1" data-name="图层 1" xmlns="http://www.w3.org/2000/svg" viewBox="0 0 141.73 141.73"><defs><style>.cls-1{fill:#fff;}</style></defs><title>shipping</title><path class="cls-1" d="M68.88,47.72H44V78.55H79V47.72Zm-5.61,4.51a1.79,1.79,0,1,1-1.79-1.79,1.79,1.79,0,0,1,1.79,1.79Zm-12.45,0A1.79,1.79,0,1,1,49,50.44h0A1.79,1.79,0,0,1,50.82,52.23Zm3.26-1.79h2.4V61h-2.4ZM47.24,73.65A1.79,1.79,0,1,1,49,75.44h0A1.79,1.79,0,0,1,47.24,73.65Zm6.84,1.79V65.28h2.4V75.45Zm5.61-1.79a1.79,1.79,0,1,1,1.79,1.8,1.79,1.79,0,0,1-1.79-1.8Zm12.45,0a1.79,1.79,0,1,1,1.79,1.79h0a1.79,1.79,0,0,1-1.79-1.79Zm-3.26,1.79h-2.4V65.28h2.36ZM66.48,61V50.44h2.36V61Zm9.19-8.76a1.79,1.79,0,1,1-1.79-1.79h0a1.78,1.78,0,0,1,1.82,1.76v0Z"/><circle class="cls-1" cx="45.13" cy="89.34" r="4.68"/><path class="cls-1" d="M45.13,85.81a3.54,3.54,0,0,0-3.54,3.53h7.07a3.53,3.53,0,0,0-3.53-3.53Z"/><path class="cls-1" d="M30.67,79.8v9.54H39.3A5.83,5.83,0,0,1,51,88.85a4,4,0,0,1,0,.49H82.2V79.8Z"/><circle class="cls-1" cx="99" cy="89.34" r="4.68"/><path class="cls-1" d="M99,85.81a3.53,3.53,0,0,0-3.53,3.53h7.07A3.53,3.53,0,0,0,99,85.81Z"/><path class="cls-1" d="M102.57,59.19H83.93V89.34h9.25a5.83,5.83,0,0,1,11.65-.49,4,4,0,0,1,0,.49h9.25V75.83Z"/></svg>