<svg id="图层_1" data-name="图层 1" xmlns="http://www.w3.org/2000/svg" viewBox="0 0 141.73 141.73"><defs><style>.cls-1{fill:#fff;}</style></defs><title>sizing</title><path class="cls-1" d="M69.11,97.8a25.5,25.5,0,1,1,25.5-25.5A25.54,25.54,0,0,1,69.11,97.8Zm0-35.2a9.6,9.6,0,1,0,9.6,9.6A9.6,9.6,0,0,0,69.11,62.6Z"/><path class="cls-1" d="M59.91,42.2h0a1.61,1.61,0,0,0-2-1A32.89,32.89,0,0,0,38.11,61a1.53,1.53,0,0,0,1,2h0A1.58,1.58,0,0,0,41,62,30.22,30.22,0,0,1,59,44,1.46,1.46,0,0,0,59.91,42.2Z"/><path class="cls-1" d="M39.11,81.4h0a1.61,1.61,0,0,0-1,2,32.89,32.89,0,0,0,19.8,19.8,1.53,1.53,0,0,0,2-1h0a1.58,1.58,0,0,0-1-1.9,30.22,30.22,0,0,1-18-18A1.46,1.46,0,0,0,39.11,81.4Z"/><path class="cls-1" d="M78.31,102.2h0a1.61,1.61,0,0,0,2,1,32.89,32.89,0,0,0,19.8-19.8,1.53,1.53,0,0,0-1-2h0a1.58,1.58,0,0,0-1.9,1,30.22,30.22,0,0,1-18,18A1.56,1.56,0,0,0,78.31,102.2Z"/><path class="cls-1" d="M99.11,63h0a1.61,1.61,0,0,0,1-2,32.89,32.89,0,0,0-19.8-19.8,1.53,1.53,0,0,0-2,1h0a1.58,1.58,0,0,0,1,1.9,30.22,30.22,0,0,1,18,18A1.38,1.38,0,0,0,99.11,63Z"/></svg>