<svg id="图层_1" data-name="图层 1" xmlns="http://www.w3.org/2000/svg" viewBox="0 0 141.73 141.73"><defs><style>.cls-1{fill:#fff;}</style></defs><title>skin-pass-mill</title><path class="cls-1" d="M97,50.39a12.76,12.76,0,1,0,.05,0Zm0,24.25a11.47,11.47,0,1,1,11.46-11.48v.06A11.48,11.48,0,0,1,97,74.64Z"/><path class="cls-1" d="M97,76.61a13.44,13.44,0,1,1,13.43-13.45v.06A13.46,13.46,0,0,1,97,76.61Zm0-25.56a12.13,12.13,0,1,0,12.13,12.17A12.13,12.13,0,0,0,97,51.05Zm0,24.24a12.12,12.12,0,1,1,12.11-12.13v.06A12.14,12.14,0,0,1,97,75.29Zm0-22.93a10.82,10.82,0,1,0,10.81,10.86A10.81,10.81,0,0,0,97,52.36Z"/><path class="cls-1" d="M97,54.58a8.57,8.57,0,1,0,.05,0ZM97,70.5a7.33,7.33,0,1,1,7.33-7.33v0A7.34,7.34,0,0,1,97,70.5Z"/><path class="cls-1" d="M97,72.42a9.25,9.25,0,1,1,9.24-9.26v.06A9.27,9.27,0,0,1,97,72.42ZM97,56.5a6.68,6.68,0,1,0,6.68,6.72A6.68,6.68,0,0,0,97,56.5Z"/><path class="cls-1" d="M41.2,50.39a12.78,12.78,0,1,0,.09,0Zm0,24.25A11.47,11.47,0,1,1,52.66,63.16v.06A11.48,11.48,0,0,1,41.2,74.64Z"/><path class="cls-1" d="M41.2,76.61A13.44,13.44,0,1,1,54.63,63.16v.06A13.46,13.46,0,0,1,41.2,76.61Zm0-25.56A12.13,12.13,0,1,0,53.33,63.22,12.13,12.13,0,0,0,41.2,51.05Zm0,24.24A12.12,12.12,0,1,1,53.31,63.16v.06A12.14,12.14,0,0,1,41.2,75.29Zm0-22.93A10.82,10.82,0,1,0,52,63.22,10.81,10.81,0,0,0,41.2,52.36Z"/><path class="cls-1" d="M41.2,54.58a8.6,8.6,0,1,0,8.59,8.64,8.59,8.59,0,0,0-8.59-8.64Zm0,15.92a7.33,7.33,0,1,1,7.33-7.33v0A7.34,7.34,0,0,1,41.2,70.5Z"/><path class="cls-1" d="M41.2,72.42a9.25,9.25,0,1,1,9.24-9.26v.06A9.27,9.27,0,0,1,41.2,72.42Zm0-15.92a6.68,6.68,0,1,0,6.68,6.72A6.68,6.68,0,0,0,41.2,56.5Z"/><g id="_编组_4" data-name=" 编组 4"><rect class="cls-1" x="42.52" y="74.64" width="53.77" height="1.31" rx="0.5"/><path class="cls-1" d="M95,76.61H43.85c-1.46,0-2.65-.59-2.65-1.31S42.39,74,43.85,74H95c1.46,0,2.65.59,2.65,1.31S96.42,76.61,95,76.61ZM43.85,75.29Z"/></g><circle class="cls-1" cx="69.4" cy="63.96" r="10.03"/><circle class="cls-1" cx="69.4" cy="86.63" r="10.03"/></svg>