<svg id="图层_1" data-name="图层 1" xmlns="http://www.w3.org/2000/svg" viewBox="0 0 141.73 141.73"><defs><style>.cls-1{fill:#fff;}</style></defs><title>splitting</title><path class="cls-1" d="M32.75,49.88V93.56h11v-4h2v4H56v-4h2v4H68.17v-4h2v4H80.38v-4h2v4H92.59v-4h2v4h11V49.88Zm13,36.69h-2V78.65h2Zm0-10.89h-2V67.75h2Zm0-10.9h-2V56.85h2Zm0-10.9h-2v-4h2ZM58,86.56H56V78.64h2Zm0-10.89H56V67.74h2Zm0-10.9H56V56.84h2Zm0-10.9H56v-4h2ZM70.17,86.56h-2V78.64h2Zm0-10.89h-2V67.74h2Zm0-10.9h-2V56.84h2Zm0-10.9h-2v-4h2ZM82.38,86.56h-2V78.64h2Zm0-10.89h-2V67.74h2Zm0-10.9h-2V56.84h2Zm0-10.9h-2v-4h2ZM94.59,86.56h-2V78.64h2Zm0-10.89h-2V67.74h2Zm0-10.9h-2V56.84h2Zm0-10.9h-2v-4h2Z"/></svg>