<svg id="图层_1" data-name="图层 1" xmlns="http://www.w3.org/2000/svg" viewBox="0 0 141.73 141.73"><defs><style>.cls-1{fill:#fff;}</style></defs><title>square-billet</title><path class="cls-1" d="M103.84,81.16,52.75,93.93a1.91,1.91,0,0,1-2.3-1.39,2.22,2.22,0,0,1-.06-.45V65.92A1.9,1.9,0,0,1,52.08,64l51.09-5.68a1.89,1.89,0,0,1,2.1,1.68,1.48,1.48,0,0,1,0,.21V79.32A1.89,1.89,0,0,1,103.84,81.16Z"/><path class="cls-1" d="M33.45,58.73l13.81,5.1a1.61,1.61,0,0,1,1.05,1.51v26A1.59,1.59,0,0,1,46.71,93a1.66,1.66,0,0,1-1-.32L31.92,82.15a1.66,1.66,0,0,1-.64-1.28V60.24a1.62,1.62,0,0,1,1.61-1.61A1.47,1.47,0,0,1,33.45,58.73Z"/><path class="cls-1" d="M34.57,56.87l13.7,5.29a2.8,2.8,0,0,0,1.31.17l50.59-5.6a.8.8,0,0,0,.68-.91.78.78,0,0,0-.57-.65L86.36,51.55a3.06,3.06,0,0,0-.91-.08L34.79,55.34a.79.79,0,0,0-.22,1.53Z"/></svg>