<svg id="图层_1" data-name="图层 1" xmlns="http://www.w3.org/2000/svg" viewBox="0 0 141.73 141.73"><defs><style>.cls-1{fill:#fff;}</style></defs><title>steckel-mill</title><path class="cls-1" d="M39,85.09a20.46,20.46,0,1,0-4.6-28.57A20.45,20.45,0,0,0,39,85.09ZM61.72,53.62a18.36,18.36,0,1,1-25.64,4.13,18.37,18.37,0,0,1,25.64-4.13Z"/><path class="cls-1" d="M50.94,89.33A20.63,20.63,0,0,1,38.76,85.4h0a20.86,20.86,0,1,1,12.18,3.94ZM39.2,84.78a20.08,20.08,0,1,0-4.5-28l0,0A20.09,20.09,0,0,0,39.2,84.78Zm11.74,2.45a18.72,18.72,0,1,1,15.21-7.75A18.71,18.71,0,0,1,50.94,87.23Zm0-36.7a17.87,17.87,0,1,0,.05,0Z"/><path class="cls-1" d="M42.3,80.49A14.79,14.79,0,1,0,39,59.84h0A14.78,14.78,0,0,0,42.3,80.49ZM58.35,58.28a12.62,12.62,0,1,1-17.62,2.85v0a12.61,12.61,0,0,1,17.6-2.83Z"/><path class="cls-1" d="M50.94,83.66a15,15,0,0,1-8.86-2.87h0a15.16,15.16,0,1,1,11.29,2.68,14.33,14.33,0,0,1-2.44.19Zm-8.42-3.47a14.42,14.42,0,1,0-3.24-20.13h0A14.43,14.43,0,0,0,42.52,80.19ZM51,81.49A13,13,0,1,1,58.61,58h0A13,13,0,0,1,51,81.49Zm0-25.23a12.24,12.24,0,1,0,7.15,2.32A12.26,12.26,0,0,0,51,56.26Z"/><g id="_编组_2" data-name=" 编组 2"><rect class="cls-1" x="84.33" y="40.95" width="2.1" height="57.02" rx="0.68" transform="translate(-20.92 97.98) rotate(-54.15)"/><path class="cls-1" d="M107.78,87.13a1,1,0,0,1-.62-.2L62.05,54.33a1.05,1.05,0,0,1-.24-1.48l.44-.6A1.06,1.06,0,0,1,63.72,52l45.11,32.6a1.05,1.05,0,0,1,.24,1.48l-.44.6A1,1,0,0,1,107.78,87.13ZM63.1,52.56a.34.34,0,0,0-.25.13l-.43.6a.32.32,0,0,0-.06.23.3.3,0,0,0,.13.2l45.12,32.6a.27.27,0,0,0,.23.05.24.24,0,0,0,.19-.12l.44-.6a.35.35,0,0,0,.06-.23.39.39,0,0,0-.13-.2L63.29,52.62a.35.35,0,0,0-.19-.06Z"/></g><rect class="cls-1" x="82.28" y="66.38" width="9.37" height="25.37" rx="1.94" transform="translate(-28.06 103.25) rotate(-54.15)"/><rect class="cls-1" x="90.3" y="55.27" width="9.37" height="25.37" rx="1.94" transform="translate(-15.73 105.15) rotate(-54.15)"/><circle class="cls-1" cx="50.96" cy="68.5" r="8.5"/></svg>