<svg id="图层_1" data-name="图层 1" xmlns="http://www.w3.org/2000/svg" viewBox="0 0 141.73 141.73"><defs><style>.cls-1{fill:#fff;}</style></defs><title>steel-making</title><path class="cls-1" d="M95.93,51.83a7.65,7.65,0,0,0-7.65,7.64V91.66A3.35,3.35,0,0,1,84.93,95H51.42a3.35,3.35,0,0,1-3.35-3.35V59.47a7.65,7.65,0,0,0-7.65-7.64H27.15v4.29H40.42a3.37,3.37,0,0,1,3.36,3.35V91.66a7.65,7.65,0,0,0,7.64,7.65H84.93a7.67,7.67,0,0,0,7.65-7.65V59.47a3.35,3.35,0,0,1,3.35-3.35h13.3V51.83Z"/><path class="cls-1" d="M50.21,91.66a1.21,1.21,0,0,0,1.21,1.21H84.93a1.21,1.21,0,0,0,1.21-1.21V65.6c-3.65-.29-9.17-.71-11.67-.73-3.89,0-11.94,2-15,.37-1.78-1-6-.82-9.26-.52Z"/><path class="cls-1" d="M57.85,60.3a1.43,1.43,0,0,1-.46-.07,1.5,1.5,0,0,1-1-1.85l0,0a12.81,12.81,0,0,0,0-6.45,18,18,0,0,1,0-8.69,1.5,1.5,0,0,1,2.89.8h0a15.17,15.17,0,0,0,0,7.09,15.51,15.51,0,0,1,0,8.17A1.51,1.51,0,0,1,57.85,60.3Z"/><path class="cls-1" d="M68.17,60.3a1.43,1.43,0,0,1-.46-.07,1.5,1.5,0,0,1-1-1.85l0,0a12.81,12.81,0,0,0,0-6.45,18,18,0,0,1,0-8.69,1.5,1.5,0,0,1,2.89.8,15.17,15.17,0,0,0,0,7.09,15.51,15.51,0,0,1,0,8.17A1.5,1.5,0,0,1,68.17,60.3Z"/><path class="cls-1" d="M78.59,60.3a1.76,1.76,0,0,1-.46-.06,1.5,1.5,0,0,1-1-1.89h0a12.59,12.59,0,0,0,0-6.45,18.24,18.24,0,0,1,0-8.69A1.5,1.5,0,1,1,80,44a14.91,14.91,0,0,0,0,7.09,15.51,15.51,0,0,1,0,8.17A1.52,1.52,0,0,1,78.59,60.3Z"/></svg>