<svg id="图层_1" data-name="图层 1" xmlns="http://www.w3.org/2000/svg" viewBox="0 0 141.73 141.73"><defs><style>.cls-1{fill:#fff;}</style></defs><title>strip</title><path class="cls-1" d="M82.63,74.49a13.42,13.42,0,0,1-25.9,0h-2.2a15.57,15.57,0,0,0,30.3,0Z"/><path class="cls-1" d="M87,74.49a17.71,17.71,0,0,1-34.7,0h-2.2A19.84,19.84,0,0,0,72,90.59a19.63,19.63,0,0,0,17.1-16.2H87Z"/><path class="cls-1" d="M91.33,74.49a22,22,0,0,1-43.3,0h-2.2a24.09,24.09,0,0,0,47.7,0Z"/><path class="cls-1" d="M95.63,74.49a26.16,26.16,0,0,1-51.9-.1h-2.2a28.32,28.32,0,0,0,56.2,0h-2.1Z"/><path class="cls-1" d="M61.23,66.19A9.29,9.29,0,0,1,72.13,61a9.18,9.18,0,0,1,6,5.2h2.3a11.33,11.33,0,0,0-21.5,0Z"/><path class="cls-1" d="M56.73,66.19A13.33,13.33,0,0,1,72,56.59a13.53,13.53,0,0,1,10.6,9.6h2.2a15.58,15.58,0,0,0-17.5-11.8,15.74,15.74,0,0,0-12.8,11.8Z"/><path class="cls-1" d="M52.33,66.19a17.67,17.67,0,0,1,34.6,0h2.2a19.77,19.77,0,0,0-38.9,0Z"/><path class="cls-1" d="M48,66.19a22,22,0,0,1,43.3,0h2.2a24.09,24.09,0,0,0-47.7,0Z"/><path class="cls-1" d="M43.63,66.19a26.2,26.2,0,0,1,51.9,0h2.2a28.3,28.3,0,0,0-56.1,0Z"/><path class="cls-1" d="M78.13,74.49a9.17,9.17,0,0,1-16.9,0H59A11.35,11.35,0,0,0,72.13,82a11.23,11.23,0,0,0,8.4-7.5Z"/><path class="cls-1" d="M97.53,72.59H79.43a2.26,2.26,0,0,1-2.3-2.3h0a2.26,2.26,0,0,1,2.3-2.3h18.1a2.26,2.26,0,0,1,2.3,2.3h0A2.26,2.26,0,0,1,97.53,72.59Z"/><path class="cls-1" d="M59.93,72.59H41.83a2.26,2.26,0,0,1-2.3-2.3h0a2.26,2.26,0,0,1,2.3-2.3h18.1a2.26,2.26,0,0,1,2.3,2.3h0A2.26,2.26,0,0,1,59.93,72.59Z"/></svg>