<?xml version="1.0" encoding="utf-8"?>
<!-- Generator: Adobe Illustrator 23.0.0, SVG Export Plug-In . SVG Version: 6.00 Build 0)  -->
<svg version="1.1" id="图层_1" xmlns="http://www.w3.org/2000/svg" xmlns:xlink="http://www.w3.org/1999/xlink" x="0px" y="0px"
	 viewBox="0 0 141.7 141.7" style="enable-background:new 0 0 141.7 141.7;" xml:space="preserve">
<style type="text/css">
	.st0{fill:#FFFFFF;}
</style>
<title>tee-forming</title>
<path class="st0" d="M93.5,58H48.2v15h12.1c1.7,0,3,1.3,3.1,3v12.1h15V76c0-1.7,1.4-3,3-3h12.1V58z"/>
<polygon class="st0" points="44.2,63.1 44.2,54 97.5,54 97.5,63.1 105.3,63.1 105.3,44.9 36.4,44.9 36.4,63.1 "/>
<polygon class="st0" points="97.5,67.6 97.5,76.9 82.3,76.9 82.3,92.1 59.4,92.1 59.4,76.9 44.2,76.9 44.2,67.6 36.4,67.6 
	36.4,96.8 105.3,96.8 105.3,67.6 "/>
</svg>
