<?xml version="1.0" encoding="utf-8"?>
<!-- Generator: Adobe Illustrator 23.0.0, SVG Export Plug-In . SVG Version: 6.00 Build 0)  -->
<svg version="1.1" id="图层_1" xmlns="http://www.w3.org/2000/svg" xmlns:xlink="http://www.w3.org/1999/xlink" x="0px" y="0px"
	 viewBox="0 0 141.7 141.7" style="enable-background:new 0 0 141.7 141.7;" xml:space="preserve">
<style type="text/css">
	.st0{fill:#FFFFFF;}
</style>
<title>tee-pickling</title>
<path class="st0" d="M95.8,96.9H45.7c-4.4,0-8-3.6-8-8V47.8h3.9v41.1c0,2.3,1.8,4.1,4.1,4.1h50.1c2.3,0,4.1-1.8,4.1-4.1l0,0V47.8
	h3.9v41.1C103.8,93.3,100.2,96.9,95.8,96.9z"/>
<rect x="37.8" y="57" class="st0" width="66" height="4.1"/>
<path class="st0" d="M95.8,96.9H45.7c-4.4,0-8-3.6-8-8V47.8h3.9V89c0,2.3,1.8,4.1,4.1,4.1h50.1c2.3,0,4.1-1.8,4.1-4.1l0,0V47.8h3.9
	V89C103.7,93.3,100.2,96.8,95.8,96.9z"/>
<rect x="37.7" y="57" class="st0" width="66" height="4.1"/>
<path class="st0" d="M91.7,76.1H68.4v7.7h6.2c0.9,0,1.6,0.7,1.6,1.6c0,0,0,0,0,0v6.2h7.7v-6.2c0-0.9,0.7-1.6,1.6-1.6l0,0h6.2V76.1z"
	/>
</svg>
