<?xml version="1.0" encoding="utf-8"?>
<!-- Generator: Adobe Illustrator 23.0.0, SVG Export Plug-In . SVG Version: 6.00 Build 0)  -->
<svg version="1.1" id="图层_1" xmlns="http://www.w3.org/2000/svg" xmlns:xlink="http://www.w3.org/1999/xlink" x="0px" y="0px"
	 viewBox="0 0 141.7 141.7" style="enable-background:new 0 0 141.7 141.7;" xml:space="preserve">
<style type="text/css">
	.st0{fill:#FFFFFF;}
</style>
<title>tee</title>
<path class="st0" d="M101.1,48H40.6c-1.8,0-3.3,1.4-3.3,3.3c0,0,0,0,0,0.1V67c0,1.8,1.4,3.3,3.3,3.3c0,0,0,0,0.1,0h15.8
	c1.8,0,3.3,1.4,3.3,3.3c0,0,0,0,0,0.1v16.7c0,1.8,1.4,3.3,3.3,3.3c0,0,0,0,0.1,0h15.6c1.8,0,3.3-1.4,3.3-3.3c0,0,0,0,0-0.1V73.7
	c0-1.8,1.4-3.3,3.3-3.3h0.1h15.9c1.8,0,3.3-1.4,3.3-3.3c0,0,0,0,0-0.1V51.3C104.4,49.5,102.9,48.1,101.1,48z"/>
</svg>
