<svg id="图层_1" data-name="图层 1" xmlns="http://www.w3.org/2000/svg" viewBox="0 0 141.73 141.73"><defs><style>.cls-1{fill:#fff;}</style></defs><title>thick-walled-pipe-pickling</title><path class="cls-1" d="M93.25,98.23H43.15a8,8,0,0,1-8-8V49.13h3.9v41.1a4.12,4.12,0,0,0,4.1,4.1h50.1a4.12,4.12,0,0,0,4.1-4.1h0V49.13h3.9v41.1A8,8,0,0,1,93.25,98.23Z"/><rect class="cls-1" x="35.25" y="58.23" width="66" height="4.1"/><path class="cls-1" d="M76.35,94.83a11,11,0,1,1,11-11A11.1,11.1,0,0,1,76.35,94.83Zm0-15.2a4.1,4.1,0,0,0,0,8.2,4.19,4.19,0,0,0,4.1-4.1A4.12,4.12,0,0,0,76.35,79.63Z"/></svg>