<svg id="图层_1" data-name="图层 1" xmlns="http://www.w3.org/2000/svg" viewBox="0 0 141.73 141.73"><defs><style>.cls-1{fill:#fff;}</style></defs><title>画板 1 副本 35</title><path class="cls-1" d="M69.54,105.49a33,33,0,0,1,0-66.09,5.23,5.23,0,0,1,0,10.46,22.59,22.59,0,0,0,0,45.17,5.23,5.23,0,0,1,0,10.46Z"/><path class="cls-1" d="M69.54,102.59a2.38,2.38,0,0,1,0-4.75A25.49,25.49,0,1,0,72.73,47a24.26,24.26,0,0,0-3.19,0,2.39,2.39,0,0,1,0-4.76,30.2,30.2,0,1,1,1.16,60.39Z"/><rect class="cls-1" x="61.81" y="71.45" width="9.69" height="1.91"/><polygon class="cls-1" points="70.09 77.23 78.46 72.4 70.09 67.56 70.09 77.23"/></svg>