<svg id="图层_1" data-name="图层 1" xmlns="http://www.w3.org/2000/svg" viewBox="0 0 141.73 141.73"><defs><style>.cls-1{fill:#fff;}</style></defs><title>water</title><path class="cls-1" d="M71.1,103.66a32.8,32.8,0,1,1,32.8-32.8h0A32.82,32.82,0,0,1,71.1,103.66Zm0-60.57A27.79,27.79,0,1,0,98.89,70.87h0A27.81,27.81,0,0,0,71.1,43.09Z"/><path class="cls-1" d="M83.31,67.89h0a14.08,14.08,0,0,0-1.15-1.8c-.29-.38-.58-.76-.84-1.16l-10.21-15-10.2,15c-.26.4-.55.78-.84,1.17a11.93,11.93,0,0,0-1.16,1.82,13.78,13.78,0,1,0,24.41,0Z"/></svg>