<?xml version="1.0" encoding="utf-8"?>
<!-- Generator: Adobe Illustrator 23.0.0, SVG Export Plug-In . SVG Version: 6.00 Build 0)  -->
<svg version="1.1" id="图层_1" xmlns="http://www.w3.org/2000/svg" xmlns:xlink="http://www.w3.org/1999/xlink" x="0px" y="0px"
	 viewBox="0 0 141.7 141.7" style="enable-background:new 0 0 141.7 141.7;" xml:space="preserve">
<style type="text/css">
	.st0{fill:#FFFFFF;}
</style>
<title>welding-electrode</title>
<path class="st0" d="M94.7,58.8V47.5c0-1.9-1.6-3.5-3.5-3.5s-3.5,1.6-3.5,3.5v11.3c-2.3,0.3-4,2.2-4,4.5v34.4h15V63.3
	C98.6,61,96.9,59.1,94.7,58.8z"/>
<path class="st0" d="M54.1,58.8V47.5c0-1.9-1.6-3.5-3.5-3.5s-3.5,1.6-3.5,3.5v11.3c-2.3,0.3-4,2.2-4,4.5v34.4h15V63.3
	C58,61,56.3,59.1,54.1,58.8z"/>
<path class="st0" d="M74.4,58.8V47.5c0-1.9-1.6-3.5-3.5-3.5s-3.5,1.6-3.5,3.5v11.3c-2.3,0.3-4,2.2-4,4.5v34.4h15V63.3
	C78.3,61,76.6,59.1,74.4,58.8z"/>
</svg>
