<svg id="图层_1" data-name="图层 1" xmlns="http://www.w3.org/2000/svg" viewBox="0 0 141.73 141.73"><defs><style>.cls-1{fill:#fff;}</style></defs><title>wire-rod-pickling</title><path class="cls-1" d="M94.64,97.16H44.54a8,8,0,0,1-8-8V48.06h3.9v41.1a4.12,4.12,0,0,0,4.1,4.1h50.1a4.12,4.12,0,0,0,4.1-4.1h0V48.06h3.9v41.1A8.1,8.1,0,0,1,94.64,97.16Z"/><rect class="cls-1" x="36.64" y="57.19" width="66" height="4.1"/><path class="cls-1" d="M94.64,97.16H44.54a8,8,0,0,1-8-8V48.06h3.9v41.2a4.12,4.12,0,0,0,4.1,4.1h50.1a4.12,4.12,0,0,0,4.1-4.1h0V48.06h3.9v41.2A8.22,8.22,0,0,1,94.64,97.16Z"/><rect class="cls-1" x="36.54" y="57.19" width="66" height="4.1"/><path class="cls-1" d="M74,81.28a7.38,7.38,0,0,1,14.47,0h3a10.37,10.37,0,0,0-20.53,0Z"/><path class="cls-1" d="M88.52,83.64a7.37,7.37,0,0,1-14.64,0h-3a10.37,10.37,0,0,0,20.67,0Z"/></svg>