<svg id="图层_1" data-name="图层 1" xmlns="http://www.w3.org/2000/svg" viewBox="0 0 141.73 141.73"><defs><style>.cls-1{fill:#fff;}</style></defs><title>wire</title><path id="_矩形_" data-name=" 矩形 " class="cls-1" d="M49.75,95.83h36.3a.79.79,0,0,1,.8.78h0v.22a.78.78,0,0,1-.78.8H49.75a.79.79,0,0,1-.8-.78h0v-.22a.79.79,0,0,1,.78-.8h0Z"/><path id="_矩形_2" data-name=" 矩形 2" class="cls-1" d="M47.35,92.93h40.1a.79.79,0,0,1,.8.78h0v.22a.78.78,0,0,1-.78.8H47.35a.79.79,0,0,1-.8-.78h0v-.32a.71.71,0,0,1,.71-.71h.09Z"/><path id="_矩形_3" data-name=" 矩形 3" class="cls-1" d="M49.75,89.93h37.7a.79.79,0,0,1,.8.78h0v.22a.78.78,0,0,1-.78.8H49.75a.88.88,0,0,1-.8-.9v-.2a.71.71,0,0,1,.71-.71h.09Z"/><path id="_矩形_4" data-name=" 矩形 4" class="cls-1" d="M48.15,86.93H86a.79.79,0,0,1,.8.78h0v.22a.78.78,0,0,1-.78.8H48.15a.79.79,0,0,1-.8-.78h0v-.18C47.45,87.33,47.75,86.93,48.15,86.93Z"/><path id="_矩形_5" data-name=" 矩形 5" class="cls-1" d="M48.15,84h40.6a.79.79,0,0,1,.8.78h0V85a.78.78,0,0,1-.78.8H48.15a.79.79,0,0,1-.8-.78h0v-.22C47.45,84.33,47.75,84,48.15,84Z"/><path id="_矩形_6" data-name=" 矩形 6" class="cls-1" d="M45.45,81h43.9a.79.79,0,0,1,.8.78h0V82a.78.78,0,0,1-.78.8H45.45a.79.79,0,0,1-.8-.78h0v-.22a.79.79,0,0,1,.78-.8h0Z"/><path id="_矩形_7" data-name=" 矩形 7" class="cls-1" d="M47.45,63.33h41a.79.79,0,0,1,.8.78h0v.22a.78.78,0,0,1-.78.8h-41a.79.79,0,0,1-.8-.78h0v-.22a.79.79,0,0,1,.78-.8Z"/><path id="_矩形_8" data-name=" 矩形 8" class="cls-1" d="M44.65,66.23h46.4a.79.79,0,0,1,.8.78h0v.22a.78.78,0,0,1-.78.8H44.65a.79.79,0,0,1-.8-.78h0V67A.86.86,0,0,1,44.65,66.23Z"/><path id="_矩形_9" data-name=" 矩形 9" class="cls-1" d="M45.45,69.23h45.1a.79.79,0,0,1,.8.78h0v.22a.78.78,0,0,1-.78.8H45.45a.79.79,0,0,1-.8-.78h0V70a.75.75,0,0,1,.67-.8Z"/><path id="_矩形_10" data-name=" 矩形 10" class="cls-1" d="M43.85,72.23h48.6a.79.79,0,0,1,.8.78h0v.22a.78.78,0,0,1-.78.8H43.85a.79.79,0,0,1-.8-.78h0V73a.79.79,0,0,1,.78-.8h0Z"/><path id="_矩形_11" data-name=" 矩形 11" class="cls-1" d="M44.35,75.13h45.4a.79.79,0,0,1,.8.78h0v.22a.78.78,0,0,1-.78.8H44.35a.79.79,0,0,1-.8-.78h0v-.22A.86.86,0,0,1,44.35,75.13Z"/><path id="_矩形_12" data-name=" 矩形 12" class="cls-1" d="M41.65,78.13h49.4a.79.79,0,0,1,.8.78h0v.22a.78.78,0,0,1-.78.8H41.65a.79.79,0,0,1-.8-.78h0v-.22a.79.79,0,0,1,.78-.8h0Z"/><path id="_矩形_13" data-name=" 矩形 13" class="cls-1" d="M46.25,60.33h39.5a.79.79,0,0,1,.8.78h0v.22a.78.78,0,0,1-.78.8H46.25a.79.79,0,0,1-.8-.78h0v-.22a.79.79,0,0,1,.78-.8h0Z"/><path id="_矩形_14" data-name=" 矩形 14" class="cls-1" d="M48.35,57.43h37.4a.79.79,0,0,1,.8.78h0v.22a.78.78,0,0,1-.78.8H48.35a.79.79,0,0,1-.8-.78h0v-.22a.75.75,0,0,1,.67-.8Z"/><path id="_矩形_15" data-name=" 矩形 15" class="cls-1" d="M49.45,54.43h37.2a.79.79,0,0,1,.8.78h0v.22a.78.78,0,0,1-.78.8H49.45a.88.88,0,0,1-.8-.9v-.1a.79.79,0,0,1,.78-.8h0Z"/><path id="_矩形_16" data-name=" 矩形 16" class="cls-1" d="M48.35,51.53h37.4a.79.79,0,0,1,.8.78h0v.22a.78.78,0,0,1-.78.8H48.35a.79.79,0,0,1-.8-.78h0v-.32a.71.71,0,0,1,.71-.71h.09Z"/><path id="_矩形_17" data-name=" 矩形 17" class="cls-1" d="M49,48.53h36.3a.79.79,0,0,1,.8.78h0v.22a.78.78,0,0,1-.78.8H49a.79.79,0,0,1-.8-.78h0v-.22a.79.79,0,0,1,.78-.8h0Z"/></svg>