<svg id="图层_1" data-name="图层 1" xmlns="http://www.w3.org/2000/svg" viewBox="0 0 141.73 141.73"><defs><style>.cls-1{fill:#fff;}</style></defs><title>wire-rod</title><rect class="cls-1" x="38.6" y="73.24" width="49.09" height="1.41"/><rect class="cls-1" x="96.57" y="73.24" width="2.72" height="1.41"/><path class="cls-1" d="M41.85,72.36c.27-11.68,2.55-18.88,4-19.67a1.54,1.54,0,0,1,.61.79,9.55,9.55,0,0,1,1.93-3.07,3.36,3.36,0,0,0-2.54-1.23c-5.54,0-7.29,13.79-7.47,23.18Z"/><path class="cls-1" d="M45.81,95.73c-1.41-.8-3.78-8.17-4-20.2H38.3c.18,9.39,1.84,23.8,7.47,23.8a3.36,3.36,0,0,0,2.54-1.23A11.74,11.74,0,0,1,46.38,95,1.72,1.72,0,0,1,45.81,95.73Z"/><path class="cls-1" d="M47,72.36c.27-11.68,2.64-18.79,4-19.58a1.54,1.54,0,0,1,.61.79,9.38,9.38,0,0,1,1.93-3.07A3.33,3.33,0,0,0,51,49.18c-5.54,0-7.29,13.79-7.47,23.18Z"/><path class="cls-1" d="M51,95.73c-1.41-.8-3.78-8.17-4-20.2H43.48c.18,9.39,1.85,23.8,7.47,23.8a3.36,3.36,0,0,0,2.54-1.23A11.74,11.74,0,0,1,51.56,95,2.45,2.45,0,0,1,51,95.73Z"/><path class="cls-1" d="M56.08,95.73c-1.4-.8-3.78-8.17-4-20.2H48.57c.17,9.39,1.84,23.8,7.46,23.8a3.59,3.59,0,0,0,2.55-1.15,10.14,10.14,0,0,1-1.93-3.07A1.42,1.42,0,0,1,56.08,95.73Z"/><path class="cls-1" d="M52.13,72.36c.26-11.68,2.63-18.79,4-19.58a1.52,1.52,0,0,1,.62.79,9.28,9.28,0,0,1,1.93-3.07,3.17,3.17,0,0,0-2.55-1.32c-5.53,0-7.29,13.79-7.46,23.18Z"/><path class="cls-1" d="M57.31,72.36c.26-11.68,2.63-18.79,3.95-19.58a1.52,1.52,0,0,1,.62.79,9.28,9.28,0,0,1,1.93-3.07,3.17,3.17,0,0,0-2.55-1.32C55.73,49.18,54,63,53.8,72.36Z"/><path class="cls-1" d="M61.26,95.73c-1.4-.8-3.77-8.17-3.95-20.2H53.8c.17,9.39,1.84,23.8,7.46,23.8a3.4,3.4,0,0,0,2.55-1.23A10.52,10.52,0,0,1,61.88,95,1.64,1.64,0,0,1,61.26,95.73Z"/><path class="cls-1" d="M62.49,72.36c.26-11.68,2.64-18.79,3.95-19.58a1.52,1.52,0,0,1,.62.79A9.38,9.38,0,0,1,69,50.5a3.31,3.31,0,0,0-2.55-1.32C60.91,49.18,59.15,63,59,72.36Z"/><path class="cls-1" d="M66.44,95.73c-1.4-.8-3.77-8.17-3.95-20.2H59c.17,9.39,1.84,23.8,7.46,23.8A3.4,3.4,0,0,0,69,98.1,11.74,11.74,0,0,1,67.06,95,2.62,2.62,0,0,1,66.44,95.73Z"/><path class="cls-1" d="M67.59,72.36c.26-11.68,2.63-18.88,4-19.67a1.54,1.54,0,0,1,.61.79,9.55,9.55,0,0,1,1.93-3.07,3.36,3.36,0,0,0-2.54-1.23C66,49.18,64.25,63,64.07,72.36Z"/><path class="cls-1" d="M71.54,95.73c-1.41-.8-3.78-8.17-4-20.2H64.07c.18,9.39,1.85,23.8,7.47,23.8a3.36,3.36,0,0,0,2.54-1.23A11.74,11.74,0,0,1,72.15,95,1.22,1.22,0,0,1,71.54,95.73Z"/><path class="cls-1" d="M72.73,72.36c.26-11.68,2.63-18.79,4-19.58a1.54,1.54,0,0,1,.61.79,9.31,9.31,0,0,1,1.94-3.07,3.25,3.25,0,0,0-2.55-1.32c-5.53,0-7.29,13.79-7.47,23.18Z"/><path class="cls-1" d="M76.73,95.73c-1.41-.8-3.78-8.17-4-20.2H69.26c.09,9.39,1.85,23.8,7.47,23.8a3.4,3.4,0,0,0,2.55-1.23A11.77,11.77,0,0,1,77.34,95,1.62,1.62,0,0,1,76.73,95.73Z"/><path class="cls-1" d="M78,72.36c.17-11.68,2.55-18.88,4-19.67a1.42,1.42,0,0,1,.61.79,9.41,9.41,0,0,1,1.94-3.07,3.52,3.52,0,0,0-2.55-1.23c-5.53,0-7.29,13.79-7.46,23.18Z"/><path class="cls-1" d="M81.9,95.73c-1.4-.8-3.78-8.17-4-20.2H74.44c.17,9.39,1.84,23.8,7.46,23.8a3.4,3.4,0,0,0,2.55-1.23A11.77,11.77,0,0,1,82.51,95,2.59,2.59,0,0,1,81.9,95.73Z"/><path class="cls-1" d="M83,72.36c.27-11.68,2.64-18.79,3.95-19.58a1.52,1.52,0,0,1,.62.79,9.38,9.38,0,0,1,1.93-3.07A3.17,3.17,0,0,0,87,49.18c-5.53,0-7.29,13.79-7.46,23.18Z"/><path class="cls-1" d="M87,95.73c-1.4-.8-3.77-8.17-3.95-20.2H79.53c.17,9.39,1.84,23.8,7.46,23.8a3.4,3.4,0,0,0,2.55-1.23A11.74,11.74,0,0,1,87.61,95C87.43,95.37,87.26,95.64,87,95.73Z"/><path class="cls-1" d="M88.22,72.36c.27-11.68,2.55-18.88,4-19.67,1.4.79,3.68,7.91,4,19.59h3.56c-.18-9.31-1.93-23.1-7.46-23.1S85,63,84.8,72.36Z"/><path class="cls-1" d="M96.13,75.53c-.18,12-2.55,19.4-3.95,20.2-1.41-.8-3.78-8.17-4-20.2H84.73c.18,9.39,1.84,23.8,7.47,23.8s7.37-14.41,7.46-23.8Z"/></svg>