<?xml version="1.0" encoding="utf-8"?>
<!-- Generator: Adobe Illustrator 23.0.0, SVG Export Plug-In . SVG Version: 6.00 Build 0)  -->
<svg version="1.1" id="图层_1" xmlns="http://www.w3.org/2000/svg" xmlns:xlink="http://www.w3.org/1999/xlink" x="0px" y="0px"
	 viewBox="0 0 42.5 22.7" style="enable-background:new 0 0 42.5 22.7;" xml:space="preserve">
<style type="text/css">
	.st0{fill:#E83719;}
</style>
<title>cold-rolling</title>
<path class="st0" d="M42.5,17H22.8c-1.2,0-2.4,0.2-3.5,0.6l-8.5,3.8c-2,0.8-4.2,1.2-6.3,1.2H0V17h4.2c2.3,0,4.7-0.1,7-0.5l3.9-1
	c2.9-0.8,5.9-1.3,8.9-1.3c0,0,0,0,0.1,0h18.5V17z"/>
<path class="st0" d="M42.5,8.5H24c0,0,0,0-0.1,0c-3,0-6-0.5-8.9-1.3l-3.9-1c-2.3-0.4-4.6-0.5-7-0.5H0V0h4.5c2.1,0,4.3,0.4,6.3,1.2
	L19.3,5c1.1,0.4,2.3,0.7,3.5,0.6h19.7V8.5z"/>
</svg>
