<?xml version="1.0" encoding="utf-8"?>
<!-- Generator: Adobe Illustrator 26.0.0, SVG Export Plug-In . SVG Version: 6.00 Build 0)  -->
<svg version="1.1" id="图层_1" xmlns="http://www.w3.org/2000/svg" xmlns:xlink="http://www.w3.org/1999/xlink" x="0px" y="0px"
	 viewBox="0 0 492.7 215.1" style="enable-background:new 0 0 492.7 215.1;" xml:space="preserve">
<style type="text/css">
	.st0{fill:#0B4B9A;}
</style>
<g>
	<polygon class="st0" points="106.4,94 84,51.6 106.4,1.1 128.9,51.6 	"/>
	<polygon class="st0" points="96.9,98 51,83.8 31.2,32.3 82.7,52.1 	"/>
	<polygon class="st0" points="92.9,107.5 50.5,129.9 0,107.5 50.5,85.1 	"/>
	<polygon class="st0" points="96.9,117 82.7,162.9 31.2,182.7 51,131.2 	"/>
	<polygon class="st0" points="106.4,121 128.9,163.4 106.4,213.9 84,163.4 	"/>
	<polygon class="st0" points="116,117 161.9,131.2 181.7,182.7 130.1,162.9 	"/>
	<polygon class="st0" points="119.9,107.5 162.4,85.1 212.8,107.5 162.4,129.9 	"/>
	<polygon class="st0" points="116,98 130.1,52.1 181.7,32.3 161.9,83.8 	"/>
	<path class="st0" d="M276.7,30.8h15.4l68.5,153.6h-22.4l-20.4-45.3h-65.1l-19.1,45.3h-22.5L276.7,30.8z M308.8,119.7l-24.6-55.3
		l-22.8,55.3H308.8z"/>
	<path class="st0" d="M319,31.5h127.6V51h-53.2v133.5h-22V50.9H319V31.5L319,31.5z"/>
	<path class="st0" d="M457.5,31.7h21.9v152.7h-21.9V31.7z"/>
</g>
</svg>
