<?xml version="1.0" encoding="utf-8"?>
<!-- Generator: Adobe Illustrator 26.0.0, SVG Export Plug-In . SVG Version: 6.00 Build 0)  -->
<svg version="1.1" id="图层_1" xmlns="http://www.w3.org/2000/svg" xmlns:xlink="http://www.w3.org/1999/xlink" x="0px" y="0px"
	 viewBox="0 0 616.5 220.2" style="enable-background:new 0 0 616.5 220.2;" xml:space="preserve">
<style type="text/css">
	.st0{fill:url(#SVGID_1_);}
</style>
<linearGradient id="SVGID_1_" gradientUnits="userSpaceOnUse" x1="0" y1="652.11" x2="616.5001" y2="652.11" gradientTransform="matrix(1 0 0 1 0 -542)">
	<stop  offset="4.178470e-07" style="stop-color:#172688"/>
	<stop  offset="0.5043" style="stop-color:#1466B2"/>
	<stop  offset="1" style="stop-color:#262F8C"/>
</linearGradient>
<path class="st0" d="M27.1,169.5H84v17.6H0V33.5h83.1v17.6h-56v49.1h51V118h-51L27.1,169.5L27.1,169.5z M177.2,116.5
	c0.3,0,0.7,0,1,0c3,0.1,5.2,0.1,6.8,0.1c17.3,0,26.1-4.6,26.1-13.7v-56c0-2.9-1.1-6.9-6.1-10.1c-3.6-2.2-8.2-3.4-13.7-3.4h-82.5
	v153.7h27.1v-136h48.2v48.3h-35.8l-5.5,5L189,187h29.1l-2.6-4.5C202.6,160.4,189.8,138.2,177.2,116.5z M296.2,33.1l43.7,154h-27.2
	l-8.3-32.8h-42.5l-8.3,32.8h-25.7v-3.8l43-150.2H296.2z M283.1,71.6l-17,65.1h34L283.1,71.6z M435.3,169.5H385v-136h-27.1v140.1
	c0,2.9,1.1,7,6.1,10.1c3.6,2.2,8.2,3.4,13.7,3.4h64.6c5.5,0,10.1-1.1,13.8-3.4c5.1-3.1,6.2-7.2,6.2-10.1V33.5h-27L435.3,169.5
	L435.3,169.5z M591.9,33.5l-37.1,92.4l-37.1-92.4h-24.6v153.6H519V98.7l31.7,74.5h8.2l31.7-74.5v88.4h25.9V33.5H591.9z"/>
</svg>
