<?xml version="1.0" encoding="utf-8"?>
<!-- Generator: Adobe Illustrator 26.0.0, SVG Export Plug-In . SVG Version: 6.00 Build 0)  -->
<svg version="1.1" id="图层_1" xmlns="http://www.w3.org/2000/svg" xmlns:xlink="http://www.w3.org/1999/xlink" x="0px" y="0px"
	 viewBox="0 0 952.4 198.2" style="enable-background:new 0 0 952.4 198.2;" xml:space="preserve">
<style type="text/css">
	.st0{fill:#13479D;}
</style>
<g>
	<g>
		<g>
			<path class="st0" d="M72.4,116.1c-10.1,0-18.4-8.2-18.4-18.4c0-10.1,8.2-18.4,18.4-18.4s18.4,8.2,18.4,18.4
				C90.7,107.8,82.5,116.1,72.4,116.1z M72.4,86.4c-6.3,0-11.4,5.1-11.4,11.4s5.1,11.3,11.4,11.3s11.4-5.1,11.4-11.4
				S78.7,86.4,72.4,86.4z"/>
		</g>
	</g>
	<polygon class="st0" points="88.2,83.2 94.3,79.7 80.6,56.1 93,56.1 93,49.1 75.9,49.1 75.9,40.7 68.9,40.7 68.9,49.1 51.7,49.1 
		51.7,56.1 64.1,56.1 50.5,79.7 56.6,83.2 72.2,56.1 72.6,56.1 	"/>
	<polygon class="st0" points="51.9,91.3 45.8,87.8 32.2,111.4 26,100.6 20,104.1 28.5,119 21.2,123.2 24.7,129.3 32,125 40.6,139.9 
		46.7,136.4 40.5,125.7 67.7,125.7 67.7,118.7 36.4,118.7 36.3,118.4 	"/>
	<polygon class="st0" points="77.1,118.7 77.1,125.7 104.3,125.7 98.1,136.4 104.2,139.9 112.7,125 120,129.3 123.5,123.2 
		116.2,119 124.8,104.1 118.8,100.6 112.6,111.4 98.9,87.8 92.9,91.3 108.5,118.4 108.3,118.7 	"/>
	<g>
		<path class="st0" d="M72.4,171.5C32.5,171.5,0,139,0,99.1s32.5-72.4,72.4-72.4s72.4,32.5,72.4,72.4S112.3,171.5,72.4,171.5z
			 M72.4,32.7C35.8,32.7,6,62.5,6,99.1s29.8,66.4,66.4,66.4s66.4-29.8,66.4-66.4S109,32.7,72.4,32.7z"/>
	</g>
	<g>
		<path class="st0" d="M193.8,116.3h-8.5V67.2h27.4V74h-18.9v14.9h18.1v6.6h-18.1V116.3z"/>
		<path class="st0" d="M239.8,117c-6.3,0-11.2-1.6-14.5-4.8s-5-7.9-5-14v-31h8.5v30.4c0,4,1,7.2,3,9.4s4.7,3.3,8.3,3.3
			c3.7,0,6.6-1.2,8.6-3.5s3-5.5,3-9.7v-30h8.4v30.4c0,6.3-1.7,11-5.2,14.4C251.4,115.3,246.4,117,239.8,117z"/>
		<path class="st0" d="M302,102.5c0,4.7-1.5,8.3-4.5,10.8s-7.3,3.7-13,3.7c-5,0-8.9-1.1-11.7-3.2s-4.7-5.4-5.6-9.8l7.9-1.4
			c1.1,5.3,4.4,8,9.8,8c5.9,0,8.9-2.5,8.9-7.6c0-1.5-0.3-2.7-0.9-3.6c-0.6-0.9-1.4-1.7-2.4-2.3s-2.2-1.2-3.6-1.6
			c-1.4-0.4-2.9-0.9-4.4-1.3c-3.8-1.1-6.6-2.2-8.3-3.4c-1.7-1.2-3-2.7-3.9-4.5s-1.4-4-1.4-6.7c0-4.1,1.4-7.3,4.1-9.6
			c2.7-2.3,6.6-3.5,11.4-3.5c4.6,0,8.3,0.9,10.9,2.8c2.6,1.8,4.4,4.7,5.4,8.7l-8,1.4c-1-4.5-3.8-6.7-8.4-6.7c-2.3,0-4.2,0.6-5.4,1.7
			c-1.3,1.2-1.9,2.7-1.9,4.8c0,1.4,0.3,2.6,0.9,3.5s1.4,1.7,2.6,2.4c1.1,0.7,3.3,1.5,6.6,2.5c3.8,1.2,6.5,2.2,8.2,3.1
			c1.6,0.9,2.9,1.9,3.9,3s1.7,2.4,2.2,3.8C301.7,98.9,302,100.6,302,102.5z"/>
		<path class="st0" d="M310.3,116.3V67.2h8.5v20.2h23.6V67.2h8.2v49.1h-8.2V94.4h-23.6v21.9L310.3,116.3L310.3,116.3z"/>
		<path class="st0" d="M381.5,117c-6.3,0-11.2-1.6-14.5-4.8s-5-7.9-5-14v-31h8.5v30.4c0,4,1,7.2,3,9.4s4.7,3.3,8.3,3.3
			c3.7,0,6.6-1.2,8.6-3.5s3-5.5,3-9.7v-30h8.4v30.4c0,6.3-1.7,11-5.2,14.4C393,115.3,388,117,381.5,117z"/>
		<path class="st0" d="M445.3,116.3l-24.8-39.8c0.1,1.5,0.1,3,0.2,4.5s0.1,3,0.1,4.5v30.8h-7.7V67.2h10.1l25.1,40.1
			c-0.1-1.3-0.2-2.7-0.2-4.2c-0.1-1.5-0.1-3.4-0.1-5.5V67.2h7.7v49.1H445.3z"/>
		<path class="st0" d="M518,102.5c0,4.7-1.5,8.3-4.5,10.8s-7.3,3.7-13,3.7c-5,0-8.9-1.1-11.7-3.2c-2.8-2.2-4.7-5.4-5.6-9.8l7.9-1.4
			c1.1,5.3,4.4,8,9.8,8c5.9,0,8.9-2.5,8.9-7.6c0-1.5-0.3-2.7-0.9-3.6c-0.6-0.9-1.4-1.7-2.4-2.3s-2.2-1.2-3.6-1.6
			c-1.4-0.4-2.9-0.9-4.4-1.3c-3.8-1.1-6.6-2.2-8.3-3.4s-3-2.7-3.9-4.5s-1.4-4-1.4-6.7c0-4.1,1.4-7.3,4.1-9.6
			c2.7-2.3,6.6-3.5,11.4-3.5c4.7,0,8.3,0.9,10.9,2.8c2.6,1.8,4.4,4.7,5.4,8.7l-8,1.4c-1-4.5-3.8-6.7-8.4-6.7c-2.3,0-4.2,0.6-5.4,1.7
			s-1.9,2.7-1.9,4.8c0,1.4,0.3,2.6,0.9,3.5s1.4,1.7,2.6,2.4c1.1,0.7,3.3,1.5,6.6,2.5c3.8,1.2,6.5,2.2,8.2,3.1c1.6,0.9,2.9,1.9,3.9,3
			s1.7,2.4,2.2,3.8C517.8,98.9,518,100.6,518,102.5z"/>
		<path class="st0" d="M559.7,82.2c0,3.1-0.7,5.8-2.1,8.1c-1.4,2.3-3.4,4.1-6,5.4c-2.6,1.3-5.8,2-9.4,2h-7.4v18.6h-8.4V67.2h15.5
			c5.7,0,10.1,1.3,13.2,3.9S559.7,77.4,559.7,82.2z M551.2,82.3c0-2.8-0.9-5-2.6-6.6s-4.3-2.4-7.7-2.4h-6.1v18.3h6.3
			c3.2,0,5.6-0.8,7.4-2.4C550.3,87.6,551.2,85.3,551.2,82.3z"/>
		<path class="st0" d="M596.3,116.3h-28.2V67.2h26.8v6.7h-18.3V88h16.1v6.6h-16.1v15.1h19.7V116.3z"/>
		<path class="st0" d="M623.4,117c-6.6,0-11.7-2.3-15.3-6.8s-5.5-10.8-5.5-18.7s1.8-14.1,5.4-18.5c3.6-4.4,8.7-6.6,15.3-6.6
			c4.6,0,8.4,1,11.4,3s5.2,5.2,6.7,9.5l-7.5,2.7c-0.8-2.7-2.1-4.8-3.9-6.2c-1.8-1.4-4-2.1-6.6-2.1c-4,0-7,1.6-9.1,4.8
			s-3.2,7.7-3.2,13.5s1.1,10.4,3.3,13.7s5.2,5,9,5c2.6,0,4.8-0.8,6.6-2.4c1.8-1.6,3.2-3.9,4.1-6.8l7.5,2.9
			C638.4,112.7,632.3,117,623.4,117z"/>
		<path class="st0" d="M658,116.3h-8.5V67.2h8.5V116.3z"/>
		<path class="st0" d="M693.1,67.2l18.3,49.1h-8.5l-4.9-13.4h-19.8l-4.8,13.4h-8.5l18.3-49.1H693.1z M688.1,73.6
			c-0.4,1.3-0.8,2.6-1.2,3.8c-0.4,1.2-0.8,2.4-1.3,3.8l-5.5,15.3h16l-5.5-15.2C689.8,79.1,689,76.6,688.1,73.6z"/>
		<path class="st0" d="M726.7,67.2v42.4h18.9v6.7h-27.4V67.2H726.7z"/>
		<path class="st0" d="M803.3,102.5c0,4.7-1.5,8.3-4.5,10.8s-7.3,3.7-13,3.7c-5,0-8.9-1.1-11.7-3.2c-2.8-2.2-4.7-5.4-5.6-9.8
			l7.9-1.4c1.1,5.3,4.4,8,9.8,8c5.9,0,8.9-2.5,8.9-7.6c0-1.5-0.3-2.7-0.9-3.6c-0.6-0.9-1.4-1.7-2.4-2.3s-2.2-1.2-3.6-1.6
			c-1.4-0.4-2.9-0.9-4.4-1.3c-3.8-1.1-6.6-2.2-8.3-3.4s-3-2.7-3.9-4.5s-1.4-4-1.4-6.7c0-4.1,1.4-7.3,4.1-9.6
			c2.7-2.3,6.6-3.5,11.4-3.5c4.7,0,8.3,0.9,10.9,2.8c2.6,1.8,4.4,4.7,5.4,8.7l-8,1.4c-1-4.5-3.8-6.7-8.4-6.7c-2.3,0-4.2,0.6-5.4,1.7
			s-1.9,2.7-1.9,4.8c0,1.4,0.3,2.6,0.9,3.5c0.6,0.9,1.4,1.7,2.6,2.4c1.1,0.7,3.3,1.5,6.6,2.5c3.8,1.2,6.5,2.2,8.2,3.1
			c1.6,0.9,2.9,1.9,3.9,3s1.7,2.4,2.2,3.8C803.1,98.9,803.3,100.6,803.3,102.5z"/>
		<path class="st0" d="M844.1,67.2V74h-14.7v42.3H821V74h-14.5v-6.8C806.5,67.2,844.1,67.2,844.1,67.2z"/>
		<path class="st0" d="M879.3,116.3h-28.2V67.2h26.8v6.7h-18.3V88h16.1v6.6h-16.1v15.1h19.7V116.3z"/>
		<path class="st0" d="M916.3,116.3h-28.2V67.2h26.8v6.7h-18.3V88h16.1v6.6h-16.1v15.1h19.7V116.3z"/>
		<path class="st0" d="M933.5,67.2v42.4h18.9v6.7H925V67.2H933.5z"/>
	</g>
</g>
</svg>
