<?xml version="1.0" encoding="utf-8"?>
<!-- Generator: Adobe Illustrator 26.0.0, SVG Export Plug-In . SVG Version: 6.00 Build 0)  -->
<svg version="1.1" id="图层_1" xmlns="http://www.w3.org/2000/svg" xmlns:xlink="http://www.w3.org/1999/xlink" x="0px" y="0px"
	 viewBox="0 0 707 199.8" style="enable-background:new 0 0 707 199.8;" xml:space="preserve">
<style type="text/css">
	.st0{fill:#C62034;}
</style>
<g>
	<path class="st0" d="M119.9,107.9l13.2,1.5v9H74.7v-9.5l8.1-1.6V68.1H50.6v39.8l8.1,1.5v9H0v-9.5l13.2-1.6V22.7L0,19.9v-9h58.6v9
		l-8.1,3V55h32.2V22.7l-8.1-2.8v-9h58.5v9l-13.2,3v85.1H119.9z"/>
	<path class="st0" d="M200.4,118.4v-10l13.6-4.2l-7.7-21.5H170l-7.3,23.6l14.8,3v9h-39.8v-8.2l8.8-5.8l34.9-91.9l34.3-3.9l37.8,97.8
		l8.8,3v9L200.4,118.4L200.4,118.4z M186.6,29.3l-12.5,40.4h27.4l-14.4-40.3L186.6,29.3L186.6,29.3z"/>
	<path class="st0" d="M330.9,76.2v31.8l13.2,1.5v9h-63.7v-9.5l13.2-1.6V72.9l-31-50.3l-8.2-2.8v-9h60.6v9l-12.8,3l21.5,36.8h0.7
		l20.1-37l-13-2.8v-9h37.4v9l-8.1,3L330.9,76.2z"/>
	<path class="st0" d="M411.8,10.9l52.5,53.4h0.3V22.7l-13.4-2.8v-9h41.6v9l-13.2,3v98.2h-11.3l-69.1-71.5h-0.4v58.3l13.2,1.5v9
		h-41.6v-9.5l13.2-1.6V22.7l-13.2-2.8v-9H411.8z"/>
	<path class="st0" d="M502.1,108.8l13.2-1.6V22.7l-13.2-2.8v-9h92.7l3,25.1l-8.8,2.6L579,22.7h-26.3v32.4h21.8l6.8-6.5l5.4,1.9
		l-2.4,28.9l-6.5,1.9l-7-13.1h-18.2v38.6h28.2l11.7-18.3h9.8l-3.5,30.1h-96.7V108.8z"/>
	<path class="st0" d="M645.8,110.1c2,0.3,4.6,0.4,6.8,0.4c13.6,0,19.4-6.3,19.4-14c0-7.6-12.3-13.5-21-18.9
		c-13.6-8.4-30.4-18.5-30.4-36c0-16.2,14.2-34.8,50.3-34.8c12.7,0,22.3,3.1,27.2,5l3,28.9l-12.2,3.5l-16.6-25.9
		c-0.7-0.1-1.5-0.1-2-0.1c-7.3,0-16.2,3.6-16.2,12c0,6.2,10.3,11.6,19.7,17.7c13.8,9,33.1,18.2,33.1,40.1c0,24.3-22,34.4-46.1,34.4
		c-21.3,0-34.9-4.3-40.3-7l-2.2-31.2h14.7L645.8,110.1z"/>
	<path class="st0" d="M114.4,189.1l5.8,0.7v3.9H92.3v-4.2l5.8-0.7v-37l-5.8-1.2v-3.9h27.9v3.9l-5.8,1.3
		C114.4,151.9,114.4,189.1,114.4,189.1z"/>
	<path class="st0" d="M152.1,193.5v-3.4l1.3-1.1v-17.3c0-5,0-9.4-4.6-9.4c-2,0-3.9,0.8-4.5,1.1v26l2.8,0.7v3.4h-23.6v-3.4l5.2-1.1
		v-27.4l-5.2-1.7v-3.6l20.3-2.9l0.4,0.4l-0.8,5.7h0.1c2.5-2.8,7.3-6.2,12.1-6.2c12.3,0,13.2,7.5,13.2,19v17.2l4,0.7v3.4h-21
		L152.1,193.5L152.1,193.5z"/>
	<path class="st0" d="M195.7,161.7v15.7c0,4.9,0.1,9.6,4.6,9.6c1.8,0,2.9-0.2,4.7-0.9l0.8,3.5c-2.5,1.6-8.2,5.2-14.6,5.2
		c-10.3,0-11.1-5.4-11.1-14.4v-18.7h-5.2v-3.6l4.9-2.6l12.6-10h3.4v10.1h10.9l-0.9,6.1H195.7z"/>
	<path class="st0" d="M248.1,187.5c-3.9,4.2-10.3,7.6-17.4,7.6c-13.1,0-20.8-8.6-20.8-19c0-11.6,8.5-22.7,22.7-22.7
		c10.5,0,15,8,15,17.5c0,1.1-0.1,1.9-0.2,3l-0.2,0.1h-22.1c0.1,6.6,2.2,14.1,9.4,14.1c4.5,0,9-2,11.2-4L248.1,187.5z M225.2,169.4
		l8.4-0.8c0.1-0.7,0.2-1.7,0.2-2.7c0-6.7-2-7.5-3.7-7.5C226.3,158.3,225.3,164.3,225.2,169.4z"/>
	<path class="st0" d="M272.5,153.9l-0.8,5.7h0.2c3.7-3.8,7.5-6.3,10.5-6.3c4.7,0,7.1,4.2,7.1,8.4c0,4-3.6,7.5-8,9.9h-0.1l-6.6-8.5
		c-0.8,0.3-1.5,0.7-2,1.3v25.1l6.4,0.7v3.4H252v-3.4l5.2-1.1v-27.4l-5.2-1.7v-3.6l20.3-2.9L272.5,153.9z"/>
	<path class="st0" d="M319.9,193.5v-3.4l1.3-1.1v-17.3c0-5,0-9.4-4.6-9.4c-2,0-3.9,0.8-4.5,1.1v26l2.8,0.7v3.4h-23.6v-3.4l5.2-1.1
		v-27.4l-5.2-1.7v-3.6l20.3-2.9l0.4,0.4l-0.8,5.7h0.1c2.5-2.8,7.3-6.2,12.1-6.2c12.3,0,13.2,7.5,13.2,19v17.2l4,0.7v3.4h-21
		L319.9,193.5L319.9,193.5z"/>
	<path class="st0" d="M357.8,159.9v8.9c-2.5,0.8-4.7,0.8-7.3,0.8c-4.5,0-6.2-1.3-6.2-4.2c0-2.8,5-5.7,9.4-8c4-2,10.7-3.8,13.6-3.8
		c4.2,0,8.5,1.3,10.8,3c4.6,3.6,3.9,9.6,3.9,13.5v13.7c0,3.1,0.1,4.4,1.9,4.4c1,0,2.6-0.4,4.3-1l0.8,3.5c-2.8,1.9-7.6,4.7-11.6,4.7
		c-6.1,0-8.8-2.1-10-5.3c-3.3,2.5-9,5.3-13.4,5.3c-6.3,0-10.3-4-10.3-9.6c0-5.6,2.8-8.1,11.3-11.6c3.9-1.7,8.2-2.8,11.3-3.8v-1.6
		c0-6.1-0.7-9.3-5.7-9.3C359.6,159.3,358.3,159.7,357.8,159.9z M366.3,174.6c-1.7,0.6-3.9,1.3-5.2,2.4c-1.9,1.6-2.6,2.9-2.6,5.5
		c0,3.5,1.9,4.5,3.7,4.5c0.9,0,2.8-0.3,4-1c-0.1-1.5-0.1-2.9-0.1-4.6v-6.7H366.3z"/>
	<path class="st0" d="M409,161.7v15.7c0,4.9,0.1,9.6,4.6,9.6c1.8,0,2.9-0.2,4.7-0.9l0.8,3.5c-2.5,1.6-8.2,5.2-14.6,5.2
		c-10.3,0-11.1-5.4-11.1-14.4v-18.7h-5.2v-3.6l4.9-2.6l12.6-10h3.4v10.1H420l-0.9,6.1H409z"/>
	<path class="st0" d="M426.7,161.1l-5.2-1.7v-3.6l20.4-2.9l0.3,0.2v36.5l4.7,0.7v3.4h-25.5v-3.4l5.2-1.1V161.1z M434.8,135.2
		c4.5,0,8.4,2.8,8.4,7c0,4.3-3.9,6.8-8.4,6.8c-4.6,0-8.4-2.6-8.4-6.8C426.5,137.9,430.2,135.2,434.8,135.2z"/>
	<path class="st0" d="M451.2,174.9c0-14.2,9.9-21.4,22.8-21.4c13.2,0,19.2,10,19.2,20c0,11.4-6.7,21.7-22.8,21.7
		C456,195.1,451.2,182.9,451.2,174.9z M477.3,176c0-10.9-1.3-18-5.7-18c-2.9,0-4.7,6.1-4.7,14.1c0,12.3,2.1,17.8,5.5,17.8
		C476.2,190.1,477.3,184,477.3,176z"/>
	<path class="st0" d="M525.9,193.5v-3.4l1.3-1.1v-17.3c0-5,0-9.4-4.6-9.4c-2,0-3.9,0.8-4.5,1.1v26l2.8,0.7v3.4h-23.6v-3.4l5.2-1.1
		v-27.4l-5.2-1.7v-3.6l20.3-2.9l0.4,0.4l-0.8,5.7h0.1c2.5-2.8,7.3-6.2,12.1-6.2c12.3,0,13.2,7.5,13.2,19v17.2l4,0.7v3.4h-21
		L525.9,193.5L525.9,193.5z"/>
	<path class="st0" d="M563.8,159.9v8.9c-2.5,0.8-4.7,0.8-7.3,0.8c-4.5,0-6.2-1.3-6.2-4.2c0-2.8,5-5.7,9.4-8c4-2,10.7-3.8,13.6-3.8
		c4.2,0,8.5,1.3,10.7,3c4.6,3.6,3.9,9.6,3.9,13.5v13.7c0,3.1,0.1,4.4,1.9,4.4c1,0,2.6-0.4,4.3-1l0.8,3.5c-2.8,1.9-7.6,4.7-11.6,4.7
		c-6.1,0-8.8-2.1-10-5.3c-3.3,2.5-9,5.3-13.4,5.3c-6.3,0-10.3-4-10.3-9.6c0-5.6,2.8-8.1,11.3-11.6c3.9-1.7,8.2-2.8,11.3-3.8v-1.6
		c0-6.1-0.7-9.3-5.7-9.3C565.6,159.3,564.3,159.7,563.8,159.9z M572.4,174.6c-1.7,0.6-3.9,1.3-5.2,2.4c-1.9,1.6-2.6,2.9-2.6,5.5
		c0,3.5,1.9,4.5,3.7,4.5c0.9,0,2.8-0.3,4-1c-0.1-1.5-0.1-2.9-0.1-4.6L572.4,174.6L572.4,174.6z"/>
	<path class="st0" d="M615.7,137.6v52.2l4,0.7v3.4h-24.9v-3.4l5.3-1.1v-42.7l-5.3-2.4v-2.9l20.5-3.9L615.7,137.6z"/>
</g>
</svg>
