<?xml version="1.0" encoding="utf-8"?>
<!-- Generator: Adobe Illustrator 26.0.0, SVG Export Plug-In . SVG Version: 6.00 Build 0)  -->
<svg version="1.1" id="图层_1" xmlns="http://www.w3.org/2000/svg" xmlns:xlink="http://www.w3.org/1999/xlink" x="0px" y="0px"
	 viewBox="0 0 927 182.2" style="enable-background:new 0 0 927 182.2;" xml:space="preserve">
<style type="text/css">
	.st0{fill:#D51F1C;}
</style>
<g>
	<g>
		<path class="st0" d="M90.1,143.6c5.5-3.1,10.5-7,14.8-11.6c-4.8-1.9-9.2-4.7-13.1-8.1c-4.2,4-9.2,7.2-14.8,9.3
			C80.9,137.2,85.3,140.7,90.1,143.6z"/>
		<path class="st0" d="M121.2,30.1c-33.6,0-61,27.4-61,61c0,15.5,5.8,29.7,15.4,40.4c5.5-2,10.6-5.1,14.8-9.1
			c-8.1-8-13.2-19.1-13.2-31.4c0-24.3,19.7-44,44-44s44,19.7,44,44s-19.7,44-44,44c-5,0-9.8-0.8-14.3-2.4c-4.3,4.7-9.3,8.8-14.8,12
			c8.7,4.7,18.6,7.4,29.1,7.4c33.6,0,61-27.4,61-61S154.8,30.1,121.2,30.1z"/>
	</g>
	<g>
		<path class="st0" d="M91.8,59.7c8.1,8,13.2,19.1,13.2,31.4c0,24.3-19.7,44-44,44s-44-19.7-44-44s19.7-44,44-44
			c5,0,9.8,0.8,14.3,2.4c4.3-4.7,9.3-8.8,14.8-12c-8.7-4.7-18.6-7.4-29.1-7.4c-33.6,0-61,27.4-61,61s27.4,61,61,61s61-27.4,61-61
			c0-15.5-5.8-29.7-15.4-40.5C101.1,52.7,96,55.8,91.8,59.7z"/>
		<path class="st0" d="M92.1,38.7c-5.5,3.1-10.5,7-14.8,11.6c4.8,1.9,9.3,4.7,13.1,8.1c4.2-4,9.2-7.2,14.8-9.3
			C101.3,45,96.9,41.5,92.1,38.7z"/>
	</g>
	<g>
		<path d="M224.8,135.5V51.3h17.4l25.1,43.3c0.5,0.9,1.3,2.7,2.4,5.3c1.1,2.7,2.3,5.8,3.6,9.5c-0.4-3.5-0.6-6.6-0.8-9.3
			c-0.2-2.7-0.2-5.1-0.2-7.2V51.3h17.4v84.2h-17.4L247.2,92c-0.5-0.9-1.3-2.7-2.4-5.3c-1.1-2.7-2.3-5.8-3.6-9.4
			c0.4,3.5,0.6,6.7,0.8,9.4s0.2,5.1,0.2,7.2v41.6H224.8z"/>
		<path d="M304.4,135.5V51.3h18.3v84.2H304.4z"/>
		<path d="M354.2,135.5h-16.9V51.3h18.9c7.4,0,12.6,0.5,15.6,1.4s5.5,2.5,7.6,4.7c2.4,2.6,4.3,5.8,5.6,9.6c1.3,3.9,1.9,8.1,1.9,12.9
			c0,5-0.6,9.4-1.9,13.3c-1.3,3.8-3.1,7-5.6,9.4c-1.9,1.8-4.1,3.2-6.6,4s-6.6,1.2-12.2,1.2h-3.1h-3.3V135.5z M354.2,89.1h3.4
			c4.4,0,7.4-0.8,9.1-2.3s2.6-4.1,2.6-7.7c0-3.5-0.8-6-2.5-7.5s-4.7-2.2-9-2.2h-3.6V89.1z"/>
		<path d="M413,135.5h-17V51.3h18.9c7.4,0,12.6,0.5,15.6,1.4s5.5,2.5,7.6,4.7c2.4,2.6,4.3,5.8,5.6,9.6c1.3,3.9,1.9,8.1,1.9,12.9
			c0,5-0.6,9.4-1.9,13.3c-1.3,3.8-3.1,7-5.6,9.4c-1.9,1.8-4.1,3.2-6.6,4s-6.6,1.2-12.2,1.2h-3.1H413V135.5z M413,89.1h3.4
			c4.4,0,7.4-0.8,9.1-2.3s2.6-4.1,2.6-7.7c0-3.5-0.8-6-2.5-7.5s-4.7-2.2-9-2.2H413V89.1z"/>
		<path d="M523,93.5c0,6.1-0.9,11.7-2.6,17c-1.8,5.3-4.3,10-7.7,14.2c-3.4,4.1-7.2,7.3-11.6,9.6c-4.3,2.2-8.9,3.4-13.5,3.4
			c-4.7,0-9.3-1.1-13.6-3.4c-4.3-2.2-8.1-5.4-11.4-9.6c-3.4-4.2-6-8.9-7.8-14.3c-1.8-5.3-2.7-11-2.7-17s0.9-11.7,2.7-17
			c1.8-5.3,4.4-10.1,7.8-14.2c3.3-4.1,7.1-7.3,11.4-9.6c4.3-2.2,8.9-3.4,13.6-3.4s9.3,1.1,13.6,3.4s8.2,5.4,11.5,9.6
			c3.3,4.1,5.9,8.9,7.6,14.2C522.1,81.8,523,87.5,523,93.5z M487.5,118.3c5,0,9.2-2.3,12.4-7c3.3-4.7,4.9-10.6,4.9-17.7
			c0-7.1-1.7-12.9-5-17.7c-3.3-4.7-7.4-7.1-12.4-7.1s-9.2,2.4-12.4,7c-3.3,4.7-4.9,10.6-4.9,17.7c0,7.2,1.6,13.1,4.8,17.8
			C478.3,115.9,482.4,118.3,487.5,118.3z"/>
		<path d="M534.3,135.5V51.3h17.4l25.1,43.3c0.5,0.9,1.3,2.7,2.4,5.3c1.1,2.7,2.3,5.8,3.6,9.5c-0.4-3.5-0.6-6.6-0.8-9.3
			s-0.2-5.1-0.2-7.2V51.3h17.4v84.2h-17.4L556.7,92c-0.5-0.9-1.3-2.7-2.4-5.3c-1.1-2.7-2.3-5.8-3.6-9.4c0.4,3.5,0.6,6.7,0.8,9.4
			s0.2,5.1,0.2,7.2v41.6H534.3z"/>
		<path d="M654.2,135.5V97.1L631,51.2h20.8l8.9,21.7c0.1,0.1,0.2,0.3,0.3,0.6c0.9,2.3,1.6,4.4,1.9,6.5c0.3-1.9,1-4,1.9-6.3
			c0.2-0.4,0.3-0.7,0.4-0.9l8.8-21.7h20.8l-23.2,45.8v38.4h-17.4L654.2,135.5L654.2,135.5z"/>
		<path d="M686.7,135.5l22.9-84.2h22.7l22.9,84.2h-18l-3.4-15.1h-25.7l-3.4,15.1H686.7z M712.1,104h18l-6.8-27.8
			c-0.2-0.8-0.5-2.2-0.9-4.1c-0.4-1.9-0.8-4.3-1.4-7.2c-0.4,2.1-0.8,4-1.2,5.9s-0.8,3.7-1.2,5.4L712.1,104z"/>
		<path d="M761.6,135.5V51.3h17.9v38.3l21-38.3h21.1l-24.6,41l26.6,43.2H801l-21.6-37.8v37.8H761.6z"/>
		<path d="M829.3,135.5V51.3h18.3v84.2H829.3z"/>
		<path d="M862.2,135.5V51.3h17.4l25.1,43.3c0.5,0.9,1.3,2.7,2.4,5.3c1.1,2.7,2.3,5.8,3.6,9.5c-0.4-3.5-0.6-6.6-0.8-9.3
			s-0.2-5.1-0.2-7.2V51.3H927v84.2h-17.4L884.5,92c-0.5-0.9-1.3-2.7-2.4-5.3c-1.1-2.7-2.3-5.8-3.6-9.4c0.4,3.5,0.6,6.7,0.8,9.4
			s0.2,5.1,0.2,7.2v41.6H862.2z"/>
	</g>
</g>
</svg>
