<?xml version="1.0" encoding="utf-8"?>
<!-- Generator: Adobe Illustrator 26.0.0, SVG Export Plug-In . SVG Version: 6.00 Build 0)  -->
<svg version="1.1" id="图层_1" xmlns="http://www.w3.org/2000/svg" xmlns:xlink="http://www.w3.org/1999/xlink" x="0px" y="0px"
	 viewBox="0 0 744 215.8" style="enable-background:new 0 0 744 215.8;" xml:space="preserve">
<style type="text/css">
	.st0{fill:#10499E;}
</style>
<g>
	<path class="st0" d="M219.3,168.5l-34-58.8L124.7,181l43.9-100.4l-34.3-59.4c-10.2-17.6-35.6-17.6-45.7,0L54.3,80.6L98.2,181
		l-60.6-71.3l-34,58.8c-10.2,17.6,2.5,39.6,22.9,39.6h60.1c0-13.8,11.2-25,25-25s25,11.2,25,25h60.1
		C216.8,208.1,229.5,186.1,219.3,168.5z"/>
	<g>
		<path class="st0" d="M275.6,78.4c-1.3,1-3.1,1.6-5.4,1.6c-3.2,0-6.3-0.8-9.3-2.5c-3.1-1.7-6.5-4.5-10.1-8.4l-2.5-2.8l-16,23.3
			l1.4,1.7c4.5,5.4,9.7,9.6,15.3,12.4c5.7,2.8,11.9,4.2,18.4,4.2c12.3,0,22.2-3.2,29.4-9.5c7.4-6.4,11.1-15.1,11.1-25.8
			c0-6.1-1.4-11.4-4.2-15.5c-2.8-4.1-7.5-8-14.2-11.8c-1.2-0.7-3-1.7-5.2-2.8c-7.6-3.9-7.7-6-7.7-6c0-1.2,0.4-2.2,1.5-3
			c1.1-1,2.5-1.4,4.2-1.4c1.8,0,3.8,0.6,6.1,1.7c2.5,1.3,5.3,3.3,8.3,5.9l2.7,2.4L313,18.7l-1.9-1.6c-4.4-3.7-9.1-6.6-14-8.5
			c-5-1.9-10.2-2.9-15.6-2.9c-10.3,0-18.9,3.2-25.5,9.5s-10,14.5-10,24.4c0,5.6,1.5,10.5,4.6,14.5c2.9,3.9,8.1,7.7,15.7,11.7
			c0.4,0.2,0.9,0.5,1.6,0.9c8.8,4.6,9.4,7.4,9.4,8.2C277.3,76.4,276.8,77.5,275.6,78.4z"/>
		<path class="st0" d="M379.2,69.1c4.7-2.9,8.4-7.1,11.1-12.5c2.7-5.3,4-11.1,4-17.2c0-6.2-1.3-11.7-3.8-16.3
			c-2.6-4.6-6.5-8.3-11.6-11c-2.8-1.5-6.2-2.5-10-3.1c-3.7-0.6-8.9-0.9-16.1-0.9h-27.5L310,105.7h30.2l5.1-31.9h7.6
			c7.5,0,12.9-0.3,16.5-1C373.1,72.1,376.4,70.8,379.2,69.1z M365.1,40.3c0,3.9-1.5,5.2-2.7,5.9c-1.5,0.9-5,2-13.2,2.1l2.3-14.8h1.8
			c5.6,0,8.3,1,9.5,1.9C363.8,36,365.1,37.2,365.1,40.3z"/>
		<polygon class="st0" points="450.2,105.7 454.3,79.3 426.2,79.3 427.7,70.1 453.9,70.1 457.8,44.2 431.8,44.2 433.2,35.2 
			461.3,35.2 465.5,8.1 407,8.1 391.8,105.7 		"/>
		<path class="st0" d="M477,95c8.3,8.7,19.5,13.1,33.3,13.1c4.5,0,8.7-0.3,12.5-0.8c3.9-0.5,7.5-1.4,10.8-2.4l1.8-0.6l4.9-30.9
			l-5,2.1c-3.6,1.5-7,2.7-10.3,3.4c-3.2,0.7-6.3,1.1-9.3,1.1c-6.7,0-11.7-1.7-15.3-5.2c-3.5-3.5-5.3-8.5-5.3-15.1
			c0-7.5,2.1-13.5,6.5-18.2c4.3-4.7,9.7-7,16.4-7c4,0,8,0.7,11.7,2.1s7.3,3.6,10.4,6.4l4.1,3.6l5.3-32.8l-2-1
			c-4.5-2.3-9.2-4-13.9-5.1S523.9,6,518.9,6c-8.8,0-16.9,1.6-24.1,4.7c-7.2,3.1-13.3,7.7-18.2,13.7c-4.1,5.1-7.2,10.7-9.3,16.9
			c-2.1,6.1-3.2,12.7-3.2,19.5C464.4,74.8,468.6,86.3,477,95z"/>
		<polygon class="st0" points="575.1,105.7 590.5,8.1 559.6,8.1 544.3,105.7 		"/>
		<path class="st0" d="M714,77.8l11-69.7h-30.5l-14.3,91.5L660.9,8.1h-34.7l-48.4,97.6h33.1l8.7-17.3h27.5l3.7,17.3h28.5h2.2h58.2
			l4.3-27.9L714,77.8L714,77.8z M642.4,62h-10.9l7.6-16.6L642.4,62z"/>
		<path class="st0" d="M317.4,110.1l-17.1,37.8c-0.3,0.8-0.7,1.5-1,2.2c-0.1-0.7-0.2-1.4-0.3-2l-6.5-38h-31.7l-29.6,97.6h29.9l13-45
			l8.6,45h19.1l20.9-45l0.3,45h28.4l-2.3-97.6L317.4,110.1L317.4,110.1z"/>
		<polygon class="st0" points="424.8,137.2 429,110.1 370.6,110.1 355.3,207.7 413.7,207.7 417.8,181.3 389.7,181.3 391.2,172.1 
			417.4,172.1 421.4,146.2 395.3,146.2 396.7,137.2 		"/>
		<polygon class="st0" points="498,137.4 502.5,110.1 432.2,110.1 427.8,137.4 448.2,137.4 437.1,207.7 467.6,207.7 478.6,137.4 		
			"/>
		<path class="st0" d="M687.6,134.1c1.8,0,3.8,0.6,6.1,1.7c2.5,1.3,5.3,3.3,8.3,5.9l2.7,2.4l13.5-23.4l-1.9-1.6
			c-4.4-3.7-9.1-6.6-14-8.5c-5-1.9-10.2-2.9-15.6-2.9c-10.3,0-18.9,3.2-25.5,9.5s-10,14.5-10,24.4c0,5.6,1.5,10.5,4.6,14.5
			c2.9,3.8,8.1,7.7,15.7,11.7c0.4,0.2,0.9,0.5,1.6,0.9c8.8,4.6,9.4,7.4,9.4,8.2c0,1.6-0.5,2.7-1.6,3.6c-1.3,1-3.1,1.6-5.4,1.6
			c-3.2,0-6.3-0.8-9.3-2.5c-3.1-1.7-6.5-4.5-10.1-8.4l-2.5-2.8L641,186.8l1.1-6.9h-30l11-69.7h-30.5l-14.3,91.5L559,110.2h-34.7
			l-48.4,97.6H509l8.7-17.3h27.5l3.7,17.3h28.5h2.2h58.2l2.1-13.4c4.3,5,9.2,8.9,14.5,11.5c5.7,2.8,11.9,4.2,18.4,4.2
			c12.3,0,22.2-3.2,29.4-9.5c7.4-6.4,11.1-15.1,11.1-25.8c0-6.1-1.4-11.4-4.2-15.5s-7.5-8-14.2-11.8c-1.2-0.7-3-1.7-5.2-2.8
			c-7.6-3.9-7.7-6-7.7-6c0-1.2,0.4-2.2,1.5-3C684.5,134.6,685.9,134.1,687.6,134.1z M540.4,164h-10.9l7.6-16.6L540.4,164z"/>
	</g>
</g>
</svg>
