<?xml version="1.0" encoding="utf-8"?>
<!-- Generator: Adobe Illustrator 26.0.0, SVG Export Plug-In . SVG Version: 6.00 Build 0)  -->
<svg version="1.1" id="图层_1" xmlns="http://www.w3.org/2000/svg" xmlns:xlink="http://www.w3.org/1999/xlink" x="0px" y="0px"
	 viewBox="0 0 952.5 221.3" style="enable-background:new 0 0 952.5 221.3;" xml:space="preserve">
<style type="text/css">
	.st0{fill:#EA5726;}
</style>
<g>
	<g>
		<g>
			<path class="st0" d="M36.5,166.8L0.4,51.7C-1,47.4,1.2,42.5,5.5,41c4.5-1.5,9.3,0.9,10.7,5.4L52.5,162c0.4,1.4,2.4,1.4,2.9,0
				L91,46.8c1.3-4.4,5.9-7.1,10.3-5.9c4.6,1.3,7.1,6,5.8,10.5L71.4,166.7C66.1,183.8,41.8,183.9,36.5,166.8z"/>
		</g>
	</g>
	<g>
		<g>
			<path class="st0" d="M138.3,148.3c-4.6,0-8.3-3.7-8.3-8.3V48.9c0-4.6,3.7-8.3,8.3-8.3s8.3,3.7,8.3,8.3V140
				C146.7,144.6,142.9,148.3,138.3,148.3z"/>
		</g>
	</g>
	<g>
		<g>
			<path class="st0" d="M182.3,178.9h-44.5c-4.6,0-8.3-3.7-8.3-8.3c0-4.6,3.7-8.3,8.3-8.3h44.5c4.1,0,27.7-7.5,28.5-27.1
				c0.7-17.8,0.6-19.4,0.4-23.1c-0.2-3.3-0.4-7.8-0.4-22.4c0-23.4-21.2-31.2-26.9-31.2h-13.4c-4.6,0-8.3-3.7-8.3-8.3
				s3.7-8.3,8.3-8.3h13.4c14.7,0,43.6,14.4,43.6,47.9c0,14.1,0.2,18.5,0.4,21.5c0.2,4.3,0.3,6.1-0.4,24.7
				C226.3,165.6,194.3,178.9,182.3,178.9z"/>
		</g>
	</g>
	<path class="st0" d="M338.1,54.5l-23.4,78.2c-0.4,1.2-2,1.2-2.4,0L289,54.5c-6.1-20.3-36-15.9-36,5.3l0,111.9h0
		c0,4.7,3.9,8.5,8.6,8.3c4.6-0.1,8.1-4.1,8.1-8.7V58.8c0-1.8,2.6-2.2,3.1-0.4l13.4,45l10,33.4c5.2,17.3,29.7,17.3,34.8,0l10-33.4
		l13.4-45c0.5-1.7,3.1-1.4,3.1,0.4v112.6c0,4.6,3.5,8.6,8.1,8.7c4.7,0.1,8.6-3.6,8.6-8.3h0l0-111.9
		C374.1,38.6,344.1,34.2,338.1,54.5z"/>
	<path class="st0" d="M506.6,165.9"/>
	<g>
		<g>
			<path class="st0" d="M558.6,178.2c-1.6-0.2-2.7-1.6-2.7-3.1c0-12.7,0-97.1,0-125.9c0-2.1-2.8-2.6-3.6-0.7l-38.2,94
				c-2.7,6.6-12.1,6.6-14.8,0l-38.2-94c-0.8-1.9-3.6-1.4-3.6,0.7v125.9c0,1.6-1.1,3-2.7,3.1c-1.8,0.2-3.3-1.2-3.3-3V48.5
				c0-8.5,11.7-10.7,14.9-2.9l38.4,94.3c0.7,1.8,3.3,1.8,4,0L547,45.6c3.2-7.8,14.9-5.6,14.9,2.9v126.7
				C561.8,177,560.3,178.4,558.6,178.2z"/>
		</g>
	</g>
	<g>
		<g>
			<path class="st0" d="M622.5,179.9c-18.2,0-36.6-11.7-36.6-37.8v-33.2c0-18.9,15.6-34.3,34.9-34.3h5.4c13.1,0,32.2,12,34.4,29h0.2
				v8.9c0,10.1-5.8,15.9-15.9,15.9h-53v13.7c0,23.5,16.5,31.9,30.6,31.9c16.2,0,25.4-5.1,30.9-8.2l0.5-0.3c1.4-0.8,3.3-0.3,4,1.2
				c0.8,1.4,0.3,3.3-1.2,4l-0.5,0.3C650.7,174.1,640.2,179.9,622.5,179.9z M591.9,122.4h53c6.8,0,9.9-3.1,9.9-9.9v-5.7
				c0-16-18.8-26.2-28.6-26.2h-5.4c-15.9,0-28.9,12.7-28.9,28.3V122.4z"/>
		</g>
	</g>
	<path class="st0" d="M734.7,171.3c-0.1,0-5.4,3.4-16.4,3.4c-14.9,0-29.6-14.7-29.6-29.7V82.3h47.6c1.6,0,3-1.3,3-3c0-1.6-1.3-3-3-3
		h-47.6V44.7c0-1.6-1.3-3-3-3s-3,1.3-3,3v100.4c0,18.3,17.3,35.6,35.5,35.6c13,0,19.5-4.3,19.7-4.5c1.3-0.9,1.7-2.8,0.8-4.1
		C737.9,170.8,736.1,170.4,734.7,171.3z"/>
	<g>
		<g>
			<path class="st0" d="M802.2,179.7h-16.8c-6.2,0-29.3-5.8-29.3-34.1c0-20.6,13-31.9,36.5-31.9c16.4,0,27.6,2.3,33.1,3.7v-4.5
				c0-19.3-12.1-31.8-30.9-31.8c-18.8,0-28.1,4.1-28.2,4.1c-1.5,0.7-3.3,0-3.9-1.5s0-3.3,1.5-3.9c0.4-0.2,10.4-4.6,30.7-4.6
				c22,0,36.8,15.2,36.8,37.8v8.5c0,0,0,0.1,0,0.1v21.1C831.7,155.9,821.8,179.7,802.2,179.7z M792.6,119.6
				c-20.3,0-30.5,8.7-30.5,26c0,27,23.2,28.2,23.4,28.2h16.8c14.1,0,23.5-18.8,23.5-31.2v-19C821.5,122.3,810.2,119.6,792.6,119.6z"
				/>
		</g>
	</g>
	<g>
		<g>
			<path class="st0" d="M860.6,178.3c-1.6,0-3-1.3-3-3V44.8c0-1.6,1.3-3,3-3s3,1.3,3,3v130.5C863.6,176.9,862.2,178.3,860.6,178.3z"
				/>
		</g>
	</g>
	<g>
		<g>
			<path class="st0" d="M921.2,179.7c-0.2,0-0.3,0-0.4,0h-0.4c-6.3,0-22.6-1.2-29.6-4.9c-1.5-0.8-2-2.6-1.2-4c0.8-1.5,2.6-2,4-1.2
				c5.2,2.7,19.1,4.2,26.8,4.2h0.4c3.7,0,10.5,0,16.1-2.6c6.5-3.1,9.7-9,9.7-18c0-17.1-12.5-20.1-26.9-23.6
				c-14.2-3.4-30.4-7.3-30.4-27.7c0-12.2,5.5-26.8,31.6-26.8c11.9,0,22.7,3.2,23.2,3.3c1.6,0.5,2.5,2.1,2,3.7
				c-0.5,1.6-2.1,2.5-3.7,2c-0.1,0-10.4-3.1-21.5-3.1c-17.2,0-25.6,6.8-25.6,20.8c0,15.7,12,18.6,25.8,21.9
				c14.8,3.5,31.5,7.6,31.5,29.3c0,14.1-7.1,20.5-13.1,23.3C932.8,179.6,925.4,179.7,921.2,179.7z"/>
		</g>
	</g>
</g>
</svg>
