<?xml version="1.0" encoding="utf-8"?>
<!-- Generator: Adobe Illustrator 22.1.0, SVG Export Plug-In . SVG Version: 6.00 Build 0)  -->
<svg version="1.1" id="图层_1" xmlns="http://www.w3.org/2000/svg" xmlns:xlink="http://www.w3.org/1999/xlink" x="0px" y="0px"
	 viewBox="0 0 99.2 99.2" style="enable-background:new 0 0 99.2 99.2;" xml:space="preserve">
<style type="text/css">
	.st0{fill:#333333;}
</style>
<title>画板 34</title>
<g>
	<circle class="st0" cx="27.5" cy="47.9" r="3"/>
	<circle class="st0" cx="32.4" cy="56.6" r="3"/>
	<circle class="st0" cx="22.6" cy="56.6" r="3"/>
	<path class="st0" d="M37.3,62.2c-1.6,0-3,1.3-3,3c0,1.6,1.3,3,3,3c1.6,0,3-1.3,3-3C40.2,63.6,38.9,62.2,37.3,62.2z"/>
	<circle class="st0" cx="37.8" cy="48.4" r="3"/>
	<circle class="st0" cx="42.7" cy="57" r="3"/>
	<circle class="st0" cx="17.7" cy="65.2" r="3"/>
	<circle class="st0" cx="64.7" cy="40.5" r="3"/>
	<circle class="st0" cx="70.3" cy="49.1" r="3"/>
	<path class="st0" d="M58.7,51.4C58.7,51.4,58.7,51.4,58.7,51.4c1.7,0,3-1.3,3-3c0-1.6-1.3-3-3-3c-1.6,0-3,1.3-3,3
		C55.7,50,57,51.4,58.7,51.4z"/>
	<path class="st0" d="M43,42.7c1.6,0,3-1.3,3-3c0-1.6-1.3-3-3-3c-1.6,0-3,1.3-3,3C40,41.4,41.3,42.7,43,42.7z"/>
	<circle class="st0" cx="48.5" cy="31.2" r="3"/>
	<path class="st0" d="M44.9,48.4c0,1.6,1.4,3,3,3c1.6,0,3-1.3,3-3c0,0,0,0,0,0c0-1.6-1.4-3-3-3C46.2,45.4,44.8,46.8,44.9,48.4z"/>
	<circle class="st0" cx="53.4" cy="40" r="3"/>
	<circle class="st0" cx="27.5" cy="65.2" r="3"/>
	<circle class="st0" cx="69.2" cy="65.2" r="3"/>
	<path class="st0" d="M63.9,53.8c-1.6,0-3,1.3-3,2.9s1.3,3,2.9,3c0,0,0.1,0,0.1,0c1.6,0,3-1.4,2.9-3C66.9,55.1,65.6,53.8,63.9,53.8z
		"/>
	<circle class="st0" cx="75.6" cy="57.7" r="3"/>
	<path class="st0" d="M49.6,0C22.2,0,0,22.2,0,49.6s22.2,49.6,49.6,49.6C77,99.2,99.2,77,99.2,49.6S77,0,49.6,0z M70.3,44.2
		c2.7,0,4.9,2.2,4.9,4.9c0,2.7-2.2,4.9-4.9,4.9s-4.9-2.2-4.9-4.9C65.4,46.4,67.6,44.2,70.3,44.2C70.3,44.2,70.3,44.2,70.3,44.2z
		 M64.7,35.7c2.7,0,4.9,2.2,4.9,4.9c0,2.7-2.2,4.9-4.9,4.9s-4.9-2.2-4.9-4.9C59.8,37.8,62,35.7,64.7,35.7z M63.6,48.4
		c0,2.7-2.2,4.9-4.9,4.9s-4.9-2.2-4.9-4.9s2.2-4.9,4.9-4.9S63.6,45.7,63.6,48.4z M58.2,40c0,2.7-2.2,4.9-4.9,4.9s-4.9-2.2-4.9-4.9
		s2.2-4.9,4.9-4.9S58.2,37.3,58.2,40z M52.8,48.4c0,2.7-2.2,4.9-4.9,4.9S43,51.1,43,48.4s2.2-4.9,4.9-4.9
		C50.6,43.5,52.8,45.7,52.8,48.4z M48.5,26.3C48.5,26.3,48.5,26.3,48.5,26.3c2.7,0,4.9,2.2,4.9,4.9c0,2.7-2.2,4.9-4.9,4.9
		s-4.9-2.2-4.9-4.9S45.8,26.3,48.5,26.3z M43,34.8c2.7,0,4.9,2.2,4.9,4.9c0,2.7-2.2,4.9-4.9,4.9s-4.9-2.2-4.9-4.9
		C38.1,37,40.3,34.8,43,34.8z M37.8,43.5c2.7,0,4.9,2.2,4.9,4.9c0,2.7-2.2,4.9-4.9,4.9s-4.9-2.2-4.9-4.9S35.1,43.5,37.8,43.5z
		 M27.5,43c2.7,0,4.9,2.2,4.9,4.9s-2.2,4.9-4.9,4.9s-4.9-2.2-4.9-4.9S24.8,43,27.5,43z M22.6,51.7c2.7,0,4.9,2.2,4.9,4.9
		c0-2.7,2.2-4.9,4.9-4.9s4.9,2.2,4.9,4.9s-2.2,4.9-4.9,4.9s-4.9-2.2-4.9-4.9c0,2.7-2.2,4.9-4.9,4.9s-4.9-2.2-4.9-4.9
		S19.9,51.7,22.6,51.7z M37.3,70.1c-2.7,0-4.9-2.2-4.9-4.9c0,2.7-2.2,4.9-4.9,4.9s-4.9-2.2-4.9-4.9c0,2.7-2.2,4.9-4.9,4.9
		s-4.9-2.2-4.9-4.9s2.2-4.9,4.9-4.9c0,0,0,0,0,0c2.7,0,4.9,2.2,4.9,4.9c0-2.7,2.2-4.9,4.9-4.9c0,0,0,0,0,0c2.7,0,4.9,2.2,4.9,4.9
		c0-2.7,2.2-4.9,4.9-4.9c0,0,0,0,0,0c2.7,0,4.9,2.2,4.9,4.9C42.1,67.9,40,70.1,37.3,70.1z M37.8,57c0-2.7,2.2-4.9,4.9-4.9
		s4.9,2.2,4.9,4.9s-2.2,4.9-4.9,4.9S37.8,59.7,37.8,57z M48.2,70.1c-2.7,0-4.9-2.2-4.9-4.9s2.2-4.9,4.9-4.9s4.9,2.2,4.9,4.9
		S50.9,70.1,48.2,70.1z M48.6,56.8c0-2.7,2.2-4.9,4.9-4.9c2.7,0,4.9,2.2,4.9,4.8c0,0,0,0,0,0c0,2.7-2.2,4.9-4.9,4.9
		C50.7,61.6,48.6,59.5,48.6,56.8z M58.7,70.1c-2.7,0-4.9-2.2-4.9-4.9s2.2-4.9,4.9-4.9c0,0,0,0,0,0c2.7,0,4.9,2.2,4.9,4.9
		C63.6,67.9,61.4,70.1,58.7,70.1z M59,56.8c0-2.7,2.2-4.9,4.9-4.9c2.7,0,4.9,2.2,4.9,4.9c0,2.7-2.2,4.9-4.9,4.9S59,59.5,59,56.8z
		 M69.2,70.1c-2.7,0-4.9-2.2-4.9-4.9s2.2-4.9,4.9-4.9c0,0,0,0,0,0c2.7,0,4.9,2.2,4.9,4.9C74.1,67.9,71.9,70.1,69.2,70.1z M70.7,57.7
		c0-2.7,2.2-4.9,4.9-4.9s4.9,2.2,4.9,4.9s-2.2,4.9-4.9,4.9S70.7,60.4,70.7,57.7z M81.9,70.1c-2.7,0-4.9-2.2-4.9-4.9s2.2-4.9,4.9-4.9
		c0,0,0,0,0,0c2.7,0,4.9,2.2,4.9,4.9C86.8,67.9,84.6,70.1,81.9,70.1z"/>
	<path class="st0" d="M58.7,62.2c-1.6,0-3,1.3-3,3c0,1.6,1.3,3,3,3c0,0,0,0,0,0c1.6,0,3-1.3,3-3C61.7,63.6,60.4,62.2,58.7,62.2z"/>
	<circle class="st0" cx="81.9" cy="65.2" r="3"/>
	<path class="st0" d="M53.4,53.8c-1.6,0-3,1.3-3,3c0,1.6,1.3,3,3,3c0,0,0,0,0,0c1.6,0,3-1.4,2.9-3C56.4,55.1,55.1,53.8,53.4,53.8z"
		/>
	<circle class="st0" cx="48.2" cy="65.2" r="3"/>
</g>
</svg>
