<?xml version="1.0" encoding="utf-8"?>
<!-- Generator: Adobe Illustrator 22.1.0, SVG Export Plug-In . SVG Version: 6.00 Build 0)  -->
<svg version="1.1" id="图层_1" xmlns="http://www.w3.org/2000/svg" xmlns:xlink="http://www.w3.org/1999/xlink" x="0px" y="0px"
	 viewBox="0 0 99.2 99.2" style="enable-background:new 0 0 99.2 99.2;" xml:space="preserve">
<style type="text/css">
	.st0{fill:#333333;}
</style>
<title>画板 49</title>
<g>
	<path class="st0" d="M49.6,0C22.2,0,0,22.2,0,49.6s22.2,49.6,49.6,49.6S99.2,77,99.2,49.6S77,0,49.6,0z M81.2,49.1
		c0,17.4-14.1,31.5-31.5,31.5c-0.4,0-0.8,0-1.2,0c-0.1,0-0.1,0-0.2,0H19.5c-0.8,0-1.4-0.7-1.4-1.6c0-0.9,0.6-1.6,1.4-1.6h16.2
		C25.3,72.2,18.2,61.4,18.2,49c0-17.4,14.1-31.5,31.5-31.5C67.1,17.5,81.2,31.6,81.2,49.1C81.2,49,81.2,49.1,81.2,49.1z"/>
	<path class="st0" d="M49.7,25.9c-12.8,0-23.1,10.4-23.1,23.1c0,12.8,10.4,23.1,23.1,23.1c12.8,0,23.1-10.3,23.1-23.1c0,0,0,0,0,0
		C72.8,36.3,62.5,25.9,49.7,25.9z M70.9,49.1c0,11.7-9.5,21.2-21.2,21.2c-11.7,0-21.2-9.5-21.2-21.2c0-11.7,9.5-21.2,21.2-21.2
		C61.4,27.9,70.9,37.4,70.9,49.1C70.9,49.1,70.9,49.1,70.9,49.1z"/>
	<path class="st0" d="M49.7,20.8c-15.6,0-28.3,12.7-28.3,28.3c0,15.6,12.7,28.3,28.3,28.3C65.3,77.3,78,64.7,78,49c0,0,0,0,0,0
		C78,33.4,65.3,20.8,49.7,20.8z M76.3,49.1c0,14.7-11.9,26.6-26.6,26.5S23.1,63.7,23.2,49c0-14.7,11.9-26.6,26.6-26.5
		C64.4,22.5,76.3,34.4,76.3,49.1C76.3,49,76.3,49.1,76.3,49.1z"/>
	<path class="st0" d="M49.7,31c-10,0-18.1,8.1-18.1,18.1c0,10,8.1,18.1,18.1,18.1v0c10,0,18.1-8.1,18.1-18.1
		C67.8,39.1,59.7,31,49.7,31z"/>
</g>
</svg>
