<?xml version="1.0" encoding="utf-8"?>
<!-- Generator: Adobe Illustrator 22.1.0, SVG Export Plug-In . SVG Version: 6.00 Build 0)  -->
<svg version="1.1" id="图层_1" xmlns="http://www.w3.org/2000/svg" xmlns:xlink="http://www.w3.org/1999/xlink" x="0px" y="0px"
	 viewBox="0 0 99.2 99.2" style="enable-background:new 0 0 99.2 99.2;" xml:space="preserve">
<style type="text/css">
	.st0{fill:#333333;}
</style>
<title>画板 65</title>
<g>
	<path class="st0" d="M49.6,0C22.2,0,0,22.2,0,49.6C0,77,22.2,99.2,49.6,99.2S99.2,77,99.2,49.6C99.2,22.2,77,0,49.6,0z M49.3,82.2
		c-4.3,0-7.7-3.4-7.7-7.7c0-4.3,3.4-7.7,7.7-7.7c9.4,0,17.2-7.7,17.2-17.2s-7.7-17.2-17.2-17.2s-17.2,7.7-17.2,17.2
		c0,4.3-3.4,7.7-7.7,7.7c-4.3,0-7.7-3.4-7.7-7.7c0-18,14.6-32.6,32.6-32.6c0.4,0,0.7,0,1.2,0c17.9,0.4,32.3,15.2,32,33.2
		C82.1,68.2,67.3,82.6,49.3,82.2z"/>
	<circle class="st0" cx="49.3" cy="74.5" r="4.5"/>
</g>
</svg>
