<?xml version="1.0" encoding="utf-8"?>
<!-- Generator: Adobe Illustrator 23.0.0, SVG Export Plug-In . SVG Version: 6.00 Build 0)  -->
<svg version="1.1" id="图层_1" xmlns="http://www.w3.org/2000/svg" xmlns:xlink="http://www.w3.org/1999/xlink" x="0px" y="0px"
	 viewBox="0 0 99.2 99.2" style="enable-background:new 0 0 99.2 99.2;" xml:space="preserve">
<style type="text/css">
	.st0{fill:#333333;}
</style>
<title>画板 10</title>
<path class="st0" d="M49.6,0C22.2,0,0,22.2,0,49.6s22.2,49.6,49.6,49.6S99.2,77,99.2,49.6S77,0,49.6,0z M81,57.3l-9,9
	c-1.1,1.1-2.9,1.2-4.2,0.2c-10.6-8.7-25.9-8.7-36.5,0c-1.2,1-3,1-4.2-0.2L12.7,51.8c-1.2-1.2-1.2-3.3,0.1-4.5
	c20.9-18.6,52.7-18.6,73.6,0c1.3,1.2,1.4,3.2,0.1,4.5C84.2,54.1,81,57.3,81,57.3z"/>
</svg>
