<?xml version="1.0" encoding="utf-8"?>
<!-- Generator: Adobe Illustrator 23.0.0, SVG Export Plug-In . SVG Version: 6.00 Build 0)  -->
<svg version="1.1" id="图层_1" xmlns="http://www.w3.org/2000/svg" xmlns:xlink="http://www.w3.org/1999/xlink" x="0px" y="0px"
	 viewBox="0 0 99.2 99.2" style="enable-background:new 0 0 99.2 99.2;" xml:space="preserve">
<style type="text/css">
	.st0{fill:#313333;}
</style>
<title>画板 50</title>
<g>
	<ellipse transform="matrix(0.9732 -0.2298 0.2298 0.9732 -10.0688 12.7234)" class="st0" cx="49.6" cy="49.6" rx="8.6" ry="8.6"/>
	<path class="st0" d="M84.7,14.5c-19.4-19.4-50.8-19.4-70.1,0s-19.4,50.8,0,70.1s50.8,19.4,70.1,0S104,33.9,84.7,14.5z M79.5,48.5
		L79.5,48.5c0,0.4,0,0.8,0,1.1c0,16.5-13.3,29.8-29.8,29.8S19.9,66.1,19.9,49.6s13.3-29.8,29.8-29.8c12.4,0,23.1,7.6,27.6,18.5v-14
		c0-0.6,0.5-1.1,1.1-1.1s1.1,0.5,1.1,1.1h0.1V48.5z"/>
</g>
</svg>
