<?xml version="1.0" encoding="utf-8"?>
<!-- Generator: Adobe Illustrator 22.1.0, SVG Export Plug-In . SVG Version: 6.00 Build 0)  -->
<svg version="1.1" id="图层_1" xmlns="http://www.w3.org/2000/svg" xmlns:xlink="http://www.w3.org/1999/xlink" x="0px" y="0px"
	 viewBox="0 0 99.2 99.2" style="enable-background:new 0 0 99.2 99.2;" xml:space="preserve">
<style type="text/css">
	.st0{fill:#333333;}
</style>
<title>画板 36</title>
<g>
	<path class="st0" d="M57.7,41.6c-4.4-4.4-11.6-4.4-16.1,0s-4.4,11.6,0,16.1c0,0,0,0,0,0c4.4,4.4,11.7,4.4,16.1,0
		C62.1,53.2,62.1,46,57.7,41.6z"/>
	<path class="st0" d="M31.7,59.9c-2.1,2.1-2.1,5.5,0,7.6c2.1,2.1,5.5,2.1,7.6,0c1.9-2.2,2-5.5,0-7.6C37.2,57.8,33.8,57.8,31.7,59.9z
		"/>
	<path class="st0" d="M39.3,39.3c2.1-2.1,2.1-5.5,0-7.6c-2.1-2.1-5.5-2.1-7.6,0c-2.1,2.1-2.1,5.5,0,7.6
		C33.8,41.4,37.2,41.4,39.3,39.3z"/>
	<path class="st0" d="M59.9,31.7c-2.1,2.1-2.1,5.5,0,7.6c2.1,2.1,5.5,2.1,7.6,0h0.1c2.1-2.1,2-5.5-0.1-7.6
		C65.3,29.7,62,29.7,59.9,31.7z"/>
	<path class="st0" d="M59.9,59.9c-2.1,2.1-2.1,5.5,0,7.6c2.1,2.1,5.5,2.1,7.6,0h0.1c2.1-2.1,2-5.5-0.1-7.6
		C65.3,57.8,62,57.8,59.9,59.9z"/>
	<path class="st0" d="M49.6,0C22.2,0,0,22.2,0,49.6C0,77,22.2,99.2,49.6,99.2C77,99.2,99.2,77,99.2,49.6C99.2,22.2,77,0,49.6,0z
		 M71.8,71.8C71.8,71.8,71.8,71.8,71.8,71.8c-12.3,12.3-32.1,12.3-44.4,0c-12.3-12.3-12.3-32.1,0-44.4c12.3-12.3,32.1-12.3,44.4,0
		C84.1,39.7,84.1,59.5,71.8,71.8z"/>
</g>
</svg>
