<?xml version="1.0" encoding="utf-8"?>
<!-- Generator: Adobe Illustrator 23.0.0, SVG Export Plug-In . SVG Version: 6.00 Build 0)  -->
<svg version="1.1" id="图层_1" xmlns="http://www.w3.org/2000/svg" xmlns:xlink="http://www.w3.org/1999/xlink" x="0px" y="0px"
	 viewBox="0 0 99.2 99.2" style="enable-background:new 0 0 99.2 99.2;" xml:space="preserve">
<style type="text/css">
	.st0{fill:#333333;}
</style>
<path class="st0" d="M49.6,0C22.2,0,0,22.2,0,49.6C0,77,22.2,99.2,49.6,99.2C77,99.2,99.2,77,99.2,49.6C99.2,22.2,77,0,49.6,0z
	 M76.3,72.5c0,1.3-1.1,2.4-2.4,2.4H25.3c-1.3,0-2.4-1.1-2.4-2.4v-3.7c0-1.3,1.1-2.4,2.4-2.4h48.7c1.3,0,2.4,1.1,2.4,2.4V72.5z
	 M76.3,61.9c0,1.3-1.1,2.4-2.4,2.4c0,0,0,0,0,0H25.3c-1.3,0-2.4-1.1-2.4-2.4v-3.7c0-1.3,1.1-2.4,2.4-2.4h48.7c1.3,0,2.4,1.1,2.4,2.4
	V61.9z M76.3,51.4c0,1.3-1.1,2.4-2.4,2.4H25.3c-1.3,0-2.4-1.1-2.4-2.4v-3.7c0-1.3,1.1-2.4,2.4-2.4h48.7c1.3,0,2.4,1.1,2.4,2.4V51.4z
	 M76.3,41c0,1.3-1.1,2.4-2.4,2.4H25.3c-1.3,0-2.4-1.1-2.4-2.4v-3.7c0-1.3,1.1-2.4,2.4-2.4h48.7c1.3,0,2.4,1.1,2.4,2.4V41z
	 M76.3,30.4c0,1.3-1.1,2.4-2.4,2.4c0,0,0,0,0,0H25.3c-1.3,0-2.4-1.1-2.4-2.4v-3.7c0-1.3,1.1-2.4,2.4-2.4h48.7c1.3,0,2.4,1.1,2.4,2.4
	V30.4z"/>
</svg>
