<?xml version="1.0" encoding="utf-8"?>
<!-- Generator: Adobe Illustrator 23.0.0, SVG Export Plug-In . SVG Version: 6.00 Build 0)  -->
<svg version="1.1" id="图层_1" xmlns="http://www.w3.org/2000/svg" xmlns:xlink="http://www.w3.org/1999/xlink" x="0px" y="0px"
	 viewBox="0 0 99.2 99.2" style="enable-background:new 0 0 99.2 99.2;" xml:space="preserve">
<style type="text/css">
	.st0{fill:#333333;}
</style>
<title>画板 44</title>
<path class="st0" d="M49.6,0C22.2,0,0,22.2,0,49.6C0,77,22.2,99.2,49.6,99.2C77,99.2,99.2,77,99.2,49.6C99.2,22.2,77,0,49.6,0z
	 M17.1,36.2l5.1-9c0.4-0.7,1-1,1.8-1h10.3c0.8,0,1.4,0.4,1.8,1l5.2,8.9c0.4,0.7,0.4,1.4,0,2.1l-5.2,9c-0.4,0.7-1,1-1.8,1H24
	c-0.8,0-1.4-0.4-1.8-1l-5.1-8.9C16.7,37.6,16.7,36.8,17.1,36.2z M40.8,62.7l-5.1,8.9c-0.4,0.7-1,1-1.8,1H23.6c-0.8,0-1.4-0.4-1.8-1
	l-5.1-8.9c-0.4-0.7-0.4-1.4,0-2.1l5.1-8.9c0.4-0.7,1-1,1.8-1h10.3c0.8,0,1.4,0.4,1.8,1l5.1,8.9C41.2,61.2,41.2,62.1,40.8,62.7z
	 M54.9,60.4H44.6c-0.8,0-1.4-0.4-1.8-1l-5.1-8.9c-0.4-0.7-0.4-1.4,0-2.1l5.1-8.9c0.4-0.7,1-1,1.8-1h10.3c0.8,0,1.4,0.4,1.8,1
	l5.1,8.9c0.4,0.7,0.4,1.4,0,2.1l-5.1,8.9C56.4,60,55.7,60.4,54.9,60.4z M82.4,63.1l-5.2,9c-0.4,0.7-1,1-1.8,1H65.1
	c-0.8,0-1.4-0.4-1.8-1l-5.1-9c-0.4-0.7-0.4-1.4,0-2.1l5.1-8.9c0.4-0.7,1-1,1.8-1h10.3c0.8,0,1.4,0.4,1.8,1l5.2,8.9
	C82.8,61.7,82.8,62.5,82.4,63.1z M82.7,38.6l-5,8.9c-0.4,0.7-1,1-1.8,1H65.6c-0.8,0-1.4-0.4-1.8-1l-5.2-8.9c-0.4-0.7-0.4-1.4,0-2.1
	l5.1-8.9c0.4-0.7,1-1,1.8-1h10.3c0.8,0,1.4,0.4,1.8,1l5.1,8.9C83.1,37.2,83.1,38,82.7,38.6z"/>
</svg>
