<?xml version="1.0" encoding="utf-8"?>
<!-- Generator: Adobe Illustrator 22.1.0, SVG Export Plug-In . SVG Version: 6.00 Build 0)  -->
<svg version="1.1" id="图层_1" xmlns="http://www.w3.org/2000/svg" xmlns:xlink="http://www.w3.org/1999/xlink" x="0px" y="0px"
	 viewBox="0 0 99.2 99.2" style="enable-background:new 0 0 99.2 99.2;" xml:space="preserve">
<style type="text/css">
	.st0{fill:#323333;}
</style>
<title>画板 39</title>
<g>
	<path class="st0" d="M46.7,28.9c-9.5,0.7-17.6,5-22,11.3c-0.1,0.1-0.1,0.2-0.2,0.3c-0.6,1.2-0.1,2.7,1.1,3.3h0.1
		c1.5,0.8,3.4,0.3,4.3-1.1c3.3-4.9,9.5-8.4,16.9-9c1.2-0.1,2.2-1.1,2.2-2.3c0-0.1,0-0.1,0-0.2C49.1,29.8,48,28.8,46.7,28.9z"/>
	<path class="st0" d="M49.6,0C22.2,0,0,22.2,0,49.6s22.2,49.6,49.6,49.6S99.2,77,99.2,49.6S77,0,49.6,0z M79.3,66.6H19
		c0,0,0,0-0.1,0c-1.5-0.1-2.7-1.3-2.6-2.8V52c0-15,14.7-27.1,32.8-27.1S81.9,37,81.9,52v11.8c0,0,0,0,0,0.1
		C82,65.4,80.8,66.6,79.3,66.6z"/>
</g>
</svg>
