<?xml version="1.0" encoding="utf-8"?>
<!-- Generator: Adobe Illustrator 23.0.0, SVG Export Plug-In . SVG Version: 6.00 Build 0)  -->
<svg version="1.1" id="图层_1" xmlns="http://www.w3.org/2000/svg" xmlns:xlink="http://www.w3.org/1999/xlink" x="0px" y="0px"
	 viewBox="0 0 99.2 99.2" style="enable-background:new 0 0 99.2 99.2;" xml:space="preserve">
<style type="text/css">
	.st0{fill:#313333;}
</style>
<title>画板 58</title>
<path class="st0" d="M49.6,0C22.2,0,0,22.2,0,49.6s22.2,49.6,49.6,49.6S99.2,77,99.2,49.6S77,0,49.6,0z M74.5,75.9H23.4
	c-0.6,0-1.1-0.5-1.1-1.1s0.5-1.1,1.1-1.1h51.1c0.6,0,1.1,0.5,1.1,1.1S75.1,75.9,74.5,75.9z M74.6,72H23.3c-0.6,0-1.1-0.5-1.1-1.1
	s0.5-1.1,1.1-1.1h51.3c0.6,0,1.1,0.5,1.1,1.1S75.2,72,74.6,72z M74.7,68H23.1c-0.6,0-1.1-0.5-1.1-1.1s0.5-1.1,1.1-1.1h51.6
	c0.6,0,1.1,0.5,1.1,1.1C75.8,67.6,75.3,68,74.7,68z M74.9,64.1H23c-0.6,0-1.1-0.5-1.1-1.1s0.5-1.1,1.1-1.1h51.8
	c0.6,0,1.1,0.5,1.1,1.1C76,63.6,75.5,64.1,74.9,64.1z M76.3,57.9L76.3,57.9c0,1.2-0.9,2.1-2.1,2.1H23.6l0,0c-1.1,0-2.1-0.9-2.1-2.1
	V23.8c0-1.1,0.9-2.1,2.1-2.1h50.6c1.1,0,2.1,0.9,2.1,2.1C76.3,23.8,76.3,57.9,76.3,57.9z"/>
</svg>
