<?xml version="1.0" encoding="utf-8"?>
<!-- Generator: Adobe Illustrator 22.1.0, SVG Export Plug-In . SVG Version: 6.00 Build 0)  -->
<svg version="1.1" id="图层_1" xmlns="http://www.w3.org/2000/svg" xmlns:xlink="http://www.w3.org/1999/xlink" x="0px" y="0px"
	 viewBox="0 0 99.2 99.2" style="enable-background:new 0 0 99.2 99.2;" xml:space="preserve">
<style type="text/css">
	.st0{fill:#323333;}
</style>
<title>画板 38</title>
<g>
	<path class="st0" d="M19.6,37.4c0.3,1.9,10.8,6.4,30,6.4s29.7-4.5,30-6.5c-0.3-1.9-10.8-6.4-30-6.4S19.9,35.4,19.6,37.4z"/>
	<path class="st0" d="M49.6,0C22.2,0,0,22.2,0,49.6C0,77,22.2,99.2,49.6,99.2C77,99.2,99.2,77,99.2,49.6C99.2,22.2,77,0,49.6,0z
		 M84.5,39.6c-0.1,0-0.1,0.1-0.1,0.4c-0.3,0.4-0.5,0.8-0.9,1.2c-4.1,6.2-10.7,17.9-11.4,30.4c0,0.2-0.1,0.4-0.2,0.5
		c-0.4,3.4-10.2,6-22.3,6c-12.4,0-22.3-2.8-22.3-6.2v-0.1c-0.1-0.1-0.1-0.3-0.1-0.4c-0.6-12.3-7-23.7-11.1-30.1
		c-0.8-0.8-1.3-1.7-1.6-2.6c0,0,0-0.1,0-0.1c-0.1-0.2-0.1-0.4-0.1-0.6c0-0.1,0-0.1,0-0.2c0-0.2,0-0.4,0-0.7
		c0-8.2,18.3-11.8,35.3-11.8c17,0,35.3,3.6,35.3,11.8c0,0.2,0,0.5,0,0.7c0,0.1,0,0.1,0,0.2C84.8,38.7,84.6,39.2,84.5,39.6z"/>
</g>
</svg>
