<?xml version="1.0" encoding="utf-8"?>
<!-- Generator: Adobe Illustrator 22.1.0, SVG Export Plug-In . SVG Version: 6.00 Build 0)  -->
<svg version="1.1" id="图层_1" xmlns="http://www.w3.org/2000/svg" xmlns:xlink="http://www.w3.org/1999/xlink" x="0px" y="0px"
	 viewBox="0 0 99.2 99.2" style="enable-background:new 0 0 99.2 99.2;" xml:space="preserve">
<style type="text/css">
	.st0{fill:#323333;}
</style>
<title>画板 41</title>
<path class="st0" d="M49.6,0C22.2,0,0,22.2,0,49.6C0,77,22.2,99.2,49.6,99.2C77,99.2,99.2,77,99.2,49.6C99.2,22.2,77,0,49.6,0z
	 M49.4,16.7c5.7,0,10.2,4.6,10.2,10.2c0,5.7-4.6,10.2-10.2,10.2s-10.2-4.6-10.2-10.2C39.1,21.3,43.7,16.7,49.4,16.7z M49.4,73.1
	c-5.7,0-10.2-4.6-10.2-10.2c0,5.7-4.6,10.2-10.2,10.2s-10.2-4.6-10.2-10.2s4.6-10.2,10.2-10.2s10.2,4.6,10.2,10.2
	c0-5.7,4.6-10.2,10.2-10.2s10.2,4.6,10.2,10.2S55,73.1,49.4,73.1z M49.4,44.9c0,5.7-4.6,10.2-10.2,10.2s-10.2-4.6-10.2-10.2
	s4.6-10.2,10.2-10.2S49.4,39.2,49.4,44.9c0-5.7,4.6-10.2,10.2-10.2s10.2,4.6,10.2,10.2s-4.6,10.2-10.2,10.2S49.4,50.5,49.4,44.9z
	 M69.9,73.1c-5.7,0-10.2-4.6-10.2-10.2s4.6-10.2,10.2-10.2s10.2,4.6,10.2,10.2S75.6,73.1,69.9,73.1z"/>
</svg>
