<?xml version="1.0" encoding="utf-8"?>
<!-- Generator: Adobe Illustrator 22.1.0, SVG Export Plug-In . SVG Version: 6.00 Build 0)  -->
<svg version="1.1" id="图层_1" xmlns="http://www.w3.org/2000/svg" xmlns:xlink="http://www.w3.org/1999/xlink" x="0px" y="0px"
	 viewBox="0 0 99.2 99.2" style="enable-background:new 0 0 99.2 99.2;" xml:space="preserve">
<style type="text/css">
	.st0{fill:#323333;}
</style>
<title>画板 28</title>
<g>
	<circle class="st0" cx="66.1" cy="60.1" r="9.6"/>
	<circle class="st0" cx="34.1" cy="60.1" r="9.6"/>
	<ellipse transform="matrix(0.9871 -0.1602 0.1602 0.9871 -4.5816 8.4412)" class="st0" cx="50.1" cy="32.6" rx="9.6" ry="9.6"/>
	<path class="st0" d="M49.6,0C22.2,0,0,22.2,0,49.6C0,77,22.2,99.2,49.6,99.2C77,99.2,99.2,77,99.2,49.6C99.2,22.2,77,0,49.6,0z
		 M34.1,75.9c-8.8,0-15.8-7.1-15.8-15.8c0-8.7,7-15.7,15.8-15.7c8.7,0,15.8,6.9,15.8,15.7C49.8,68.9,42.8,75.9,34.1,75.9z
		 M34.3,32.6c0-8.8,7.1-15.8,15.8-15.8c8.8,0,15.8,7,15.8,15.8c0,8.7-7,15.8-15.8,15.8C41.3,48.4,34.3,41.4,34.3,32.6z M66.1,76
		c-8.8,0-15.8-7-15.8-15.8s7.1-15.8,15.8-15.8s15.8,7,15.8,15.8S74.8,76,66.1,76z"/>
</g>
</svg>
