<?xml version="1.0" encoding="utf-8"?>
<!-- Generator: Adobe Illustrator 22.1.0, SVG Export Plug-In . SVG Version: 6.00 Build 0)  -->
<svg version="1.1" id="图层_1" xmlns="http://www.w3.org/2000/svg" xmlns:xlink="http://www.w3.org/1999/xlink" x="0px" y="0px"
	 viewBox="0 0 99.2 99.2" style="enable-background:new 0 0 99.2 99.2;" xml:space="preserve">
<style type="text/css">
	.st0{fill:#323333;}
</style>
<title>画板 48</title>
<g>
	<path class="st0" d="M69.1,24.1H30c-1.8,0.1-3.2,1.6-3.2,3.4v6.6L72.5,56V27.7C72.6,25.7,71,24.1,69.1,24.1z"/>
	<path class="st0" d="M49.6,0C22.2,0,0,22.2,0,49.6C0,77,22.2,99.2,49.6,99.2C77,99.2,99.2,77,99.2,49.6C99.2,22.2,77,0,49.6,0z
		 M77.3,69.8c0,3.9-3.2,7-7,7H29.2c-3.9,0-7-3.1-7-7V26.7c0-3.9,3.2-7,7-7h41.1c3.9,0,7,3.1,7,7V69.8z"/>
</g>
</svg>
