<?xml version="1.0" encoding="utf-8"?>
<!-- Generator: Adobe Illustrator 23.0.0, SVG Export Plug-In . SVG Version: 6.00 Build 0)  -->
<svg version="1.1" id="图层_1" xmlns="http://www.w3.org/2000/svg" xmlns:xlink="http://www.w3.org/1999/xlink" x="0px" y="0px"
	 viewBox="0 0 99.2 99.2" style="enable-background:new 0 0 99.2 99.2;" xml:space="preserve">
<style type="text/css">
	.st0{fill:#333333;}
</style>
<path class="st0" d="M49.6,0C22.2,0,0,22.2,0,49.6C0,77,22.2,99.2,49.6,99.2C77,99.2,99.2,77,99.2,49.6C99.2,22.2,77,0,49.6,0z
	 M45.1,76H27.2c-2.1,0-3.7-1.7-3.7-3.7V54.4c0-2.1,1.7-3.7,3.7-3.7H45c2.1,0,3.7,1.7,3.7,3.7v17.9h0.1C48.8,74.3,47.1,76,45.1,76z
	 M45.1,48.3H27.2c-2.1,0-3.7-1.7-3.7-3.7V26.8c0-2.1,1.7-3.7,3.7-3.7H45c2.1,0,3.7,1.7,3.7,3.7v17.8h0.1
	C48.8,46.7,47.1,48.3,45.1,48.3z M76.4,72.3c0,2.1-1.7,3.7-3.7,3.7H54.9c-2.1,0-3.7-1.7-3.7-3.7V54.4c0-2.1,1.7-3.7,3.7-3.7h17.8
	c2.1,0,3.7,1.7,3.7,3.7V72.3z M76.4,44.6c0,2.1-1.7,3.7-3.7,3.7H54.9c-2.1,0-3.7-1.7-3.7-3.7V26.8c0-2.1,1.7-3.7,3.7-3.7h17.8
	c2.1,0,3.7,1.7,3.7,3.7V44.6z"/>
</svg>
