<?xml version="1.0" encoding="utf-8"?>
<!-- Generator: Adobe Illustrator 23.0.0, SVG Export Plug-In . SVG Version: 6.00 Build 0)  -->
<svg version="1.1" id="图层_1" xmlns="http://www.w3.org/2000/svg" xmlns:xlink="http://www.w3.org/1999/xlink" x="0px" y="0px"
	 viewBox="0 0 99.2 99.2" style="enable-background:new 0 0 99.2 99.2;" xml:space="preserve">
<style type="text/css">
	.st0{fill:#313333;}
</style>
<title>画板 37</title>
<path class="st0" d="M49.6,0C22.2,0,0,22.2,0,49.6C0,77,22.2,99.2,49.6,99.2C77,99.2,99.2,77,99.2,49.6C99.2,22.2,77,0,49.6,0z
	 M83.6,48.3c0,1.9-1.5,3.4-3.4,3.4H64.3c-1.9,0-3.4,1.5-3.4,3.4V72c0,1.9-1.5,3.4-3.4,3.4H41.8c-1.9,0-3.4-1.5-3.4-3.4V55.2
	c0-1.9-1.5-3.4-3.4-3.4H19.1c-1.9,0-3.4-1.5-3.4-3.4V32.7c0-1.9,1.5-3.4,3.4-3.4h61c1.8,0,3.4,1.5,3.5,3.4V48.3z"/>
</svg>
