<?xml version="1.0" encoding="utf-8"?>
<!-- Generator: Adobe Illustrator 22.1.0, SVG Export Plug-In . SVG Version: 6.00 Build 0)  -->
<svg version="1.1" id="图层_1" xmlns="http://www.w3.org/2000/svg" xmlns:xlink="http://www.w3.org/1999/xlink" x="0px" y="0px"
	 viewBox="0 0 99.2 99.2" style="enable-background:new 0 0 99.2 99.2;" xml:space="preserve">
<style type="text/css">
	.st0{fill:#313333;}
</style>
<title>画板 31</title>
<g>
	<path class="st0" d="M49.6,37.4c2.9,0,5.2-2.3,5.2-5.2c0-2.9-2.3-5.2-5.2-5.2c-2.9,0-5.2,2.3-5.2,5.2
		C44.4,35.1,46.7,37.4,49.6,37.4z"/>
	<path class="st0" d="M33.4,55.3c-2.9,0-5.2,2.3-5.2,5.2c0,2.9,2.3,5.2,5.2,5.2c2.9,0,5.2-2.3,5.2-5.2c0,0,0,0,0,0
		C38.6,57.6,36.3,55.3,33.4,55.3z"/>
	<path class="st0" d="M43.6,47.6c3.1,2.4,5.2,5.9,6,9.9c0.8-4,2.9-7.5,6-9.9c-1.9,0.7-3.9,1.2-6,1.2C47.5,48.7,45.5,48.3,43.6,47.6z
		"/>
	<path class="st0" d="M49.6,0C22.2,0,0,22.2,0,49.6C0,77,22.2,99.2,49.6,99.2C77,99.2,99.2,77,99.2,49.6C99.2,22.2,77,0,49.6,0z
		 M82.2,60.5c0,9.1-7.4,16.4-16.5,16.5c-8.1,0-14.7-5.8-16.2-13.4c-1.4,7.6-8.1,13.4-16.2,13.4c-9.1,0-16.5-7.4-16.5-16.5
		C17,51.4,24.4,44,33.4,44c2.1,0,4.1,0.4,6,1.1c-3.8-3-6.3-7.7-6.3-12.9c0-9.1,7.4-16.5,16.4-16.5c9.1,0,16.5,7.4,16.5,16.5
		c0,0,0,0,0,0c0,5.3-2.5,9.9-6.3,12.9c1.9-0.7,3.9-1.2,6-1.2C74.9,44,82.2,51.4,82.2,60.5C82.2,60.5,82.2,60.5,82.2,60.5z"/>
	<path class="st0" d="M65.8,55.3C65.8,55.3,65.8,55.3,65.8,55.3c-2.9,0-5.2,2.3-5.2,5.2c0,2.9,2.3,5.2,5.2,5.2
		c2.9,0,5.2-2.3,5.2-5.2C71,57.6,68.7,55.3,65.8,55.3z"/>
</g>
</svg>
