<?xml version="1.0" encoding="utf-8"?>
<!-- Generator: Adobe Illustrator 22.1.0, SVG Export Plug-In . SVG Version: 6.00 Build 0)  -->
<svg version="1.1" id="图层_1" xmlns="http://www.w3.org/2000/svg" xmlns:xlink="http://www.w3.org/1999/xlink" x="0px" y="0px"
	 viewBox="0 0 99.2 99.2" style="enable-background:new 0 0 99.2 99.2;" xml:space="preserve">
<style type="text/css">
	.st0{fill:#303233;}
</style>
<title>画板 29</title>
<ellipse class="st0" cx="64.5" cy="64" rx="12" ry="12"/>
<ellipse class="st0" cx="34.7" cy="34.2" rx="12" ry="12"/>
<ellipse class="st0" cx="34.7" cy="64" rx="12" ry="12"/>
<ellipse class="st0" cx="64.5" cy="34.2" rx="12" ry="12"/>
<path class="st0" d="M49.6,0C22.2,0,0,22.2,0,49.6s22.2,49.6,49.6,49.6S99.2,77,99.2,49.6S77,0,49.6,0z M79.4,64
	c0,8.2-6.7,14.9-14.9,14.9S49.6,72.2,49.6,64c0,8.2-6.7,14.9-14.9,14.9S19.8,72.3,19.8,64c0-8.2,6.7-14.9,14.9-14.9
	c-8.2,0-14.9-6.7-14.9-14.9s6.7-14.9,14.9-14.9S49.6,26,49.6,34.2c0-8.2,6.7-14.9,14.9-14.9S79.4,26,79.4,34.2s-6.7,14.9-14.9,14.9
	C72.7,49.1,79.4,55.8,79.4,64z"/>
</svg>
