<?xml version="1.0" encoding="utf-8"?>
<!-- Generator: Adobe Illustrator 23.0.0, SVG Export Plug-In . SVG Version: 6.00 Build 0)  -->
<svg version="1.1" id="图层_1" xmlns="http://www.w3.org/2000/svg" xmlns:xlink="http://www.w3.org/1999/xlink" x="0px" y="0px"
	 viewBox="0 0 99.2 99.2" style="enable-background:new 0 0 99.2 99.2;" xml:space="preserve">
<style type="text/css">
	.st0{fill:#333333;}
</style>
<title>画板 50</title>
<path class="st0" d="M49.7,0C22.3,0,0.1,22.2,0.1,49.5s22.2,49.5,49.5,49.5s49.5-22.2,49.5-49.5S77,0,49.7,0z M36.8,74.9H21.8V40.5
	c0-2.3,1.7-4.2,4-4.5V24.7c0-1.9,1.6-3.5,3.5-3.5h0c1.9,0,3.5,1.6,3.5,3.5V36c2.2,0.3,4,2.2,4,4.5V74.9z M57.1,74.9H42.1V40.5
	c0-2.3,1.7-4.2,4-4.5V24.7c0-1.9,1.6-3.5,3.5-3.5s3.5,1.6,3.5,3.5V36c2.2,0.3,4,2.2,4,4.5V74.9z M77.4,74.9H62.4V40.5
	c0-2.3,1.7-4.2,4-4.5V24.7c0-1.9,1.6-3.5,3.5-3.5s3.5,1.6,3.5,3.5V36c2.2,0.3,4,2.2,4,4.5V74.9z"/>
</svg>
