<?xml version="1.0" encoding="utf-8"?>
<!-- Generator: Adobe Illustrator 22.1.0, SVG Export Plug-In . SVG Version: 6.00 Build 0)  -->
<svg version="1.1" id="图层_1" xmlns="http://www.w3.org/2000/svg" xmlns:xlink="http://www.w3.org/1999/xlink" x="0px" y="0px"
	 viewBox="0 0 99.2 99.2" style="enable-background:new 0 0 99.2 99.2;" xml:space="preserve">
<style type="text/css">
	.st0{fill:#313333;}
</style>
<title>画板 45</title>
<path class="st0" d="M49.6,0C22.2,0,0,22.2,0,49.6C0,77,22.2,99.2,49.6,99.2C77,99.2,99.2,77,99.2,49.6C99.2,22.2,77,0,49.6,0z
	 M25,75.2c-5.9,0-7.6-15.1-7.8-25h3.7C21,62.8,23.5,70.6,25,71.4c0.2-0.1,0.5-0.4,0.6-0.7c0.6,1.3,1.3,2.4,2,3.2
	C26.9,74.7,26,75.2,25,75.2z M17.4,49.3v-1.5h51.5v1.5H17.4z M35.8,75.2c-1,0-1.9-0.5-2.7-1.3c-0.7,0.8-1.6,1.3-2.6,1.3
	c-5.9,0-7.6-15.1-7.8-25h3.7c0.2,12.6,2.7,20.4,4.1,21.2c0.2-0.1,0.4-0.4,0.6-0.7c-2.2-5.2-3-14-3.1-20.5h3.7
	c0.2,12.6,2.7,20.4,4.1,21.2c0.3-0.1,0.5-0.4,0.6-0.6c0.6,1.3,1.3,2.5,2,3.2C37.7,74.7,36.8,75.2,35.8,75.2z M41.2,75.2
	c-5.9,0-7.6-15.1-7.8-25h3.7c0.2,12.6,2.7,20.4,4.1,21.2c0.2-0.1,0.5-0.4,0.6-0.7c0.6,1.3,1.3,2.5,2,3.2
	C43.1,74.7,42.2,75.2,41.2,75.2z M57.4,75.2c-1.1,0-2.1-0.5-2.9-1.4c0,0.1,0.1,0.1,0.1,0.2c-0.7,0.8-1.7,1.3-2.7,1.3
	c-1,0-1.9-0.5-2.7-1.3c-0.7,0.8-1.6,1.3-2.6,1.3c-5.9,0-7.6-15.1-7.8-25h3.7c0.2,12.6,2.7,20.4,4.1,21.2c0.2-0.1,0.4-0.4,0.6-0.7
	c-2.2-5.2-3-14-3.1-20.5h3.7C48,62.8,50.5,70.6,52,71.4c0.3-0.1,0.5-0.4,0.6-0.7c0.3,0.7,0.7,1.4,1.1,2c-3-4.7-4.1-15.1-4.1-22.4
	h3.7c0.2,12.6,2.7,20.4,4.1,21.2c0.2-0.1,0.5-0.4,0.6-0.7c0.6,1.3,1.3,2.4,2,3.2C59.3,74.7,58.4,75.2,57.4,75.2z M68.2,75.2
	c-1,0-1.9-0.5-2.7-1.3c-0.7,0.8-1.6,1.3-2.6,1.3c-5.9,0-7.6-15.1-7.8-25h3.7c0.2,12.6,2.7,20.4,4.1,21.2c0.2-0.1,0.4-0.4,0.6-0.7
	c-2.2-5.2-3-14-3.1-20.5H64c0.2,12.6,2.7,20.4,4.1,21.2c0.3-0.1,0.5-0.4,0.6-0.7c0.6,1.3,1.3,2.4,2,3.2
	C70.1,74.7,69.2,75.2,68.2,75.2z M73.6,75.2c-5.9,0-7.6-15.1-7.8-25h3.7c0.2,12.6,2.7,20.4,4.1,21.2c1.5-0.8,4-8.6,4.1-21.2h3.7
	C81.4,60.1,79.5,75.2,73.6,75.2z M78.2,49.3v-1.5h2.9v1.5H78.2z M77.8,46.8c-0.3-12.3-2.7-19.7-4.1-20.5c-1.5,0.8-3.9,8.4-4.1,20.6
	h-3.7c0.1-6.9,1.1-16.1,3.6-20.9c-0.2,0.4-0.4,0.8-0.6,1.2c-0.2-0.5-0.5-0.7-0.6-0.8c-1.4,0.8-3.9,8.3-4.1,20.5h-3.7
	c0.1-6.4,0.9-14.8,3.1-19.9c-0.2-0.4-0.4-0.7-0.6-0.8c-1.5,0.8-4,8.4-4.1,20.6H55c0.1-6.9,1.1-16.1,3.6-20.9
	c-0.2,0.4-0.4,0.8-0.6,1.2c-0.2-0.5-0.5-0.7-0.6-0.8c-1.4,0.8-3.9,8.3-4.1,20.5h-3.7c0.1-8,1.4-19,5-22.9c-0.7,0.7-1.4,1.8-1.9,3.1
	c-0.2-0.5-0.5-0.7-0.6-0.8c-1.4,0.8-3.9,8.4-4.1,20.6h-3.7c0.1-6.4,0.9-14.7,3.1-19.8c-0.2-0.4-0.4-0.7-0.6-0.7
	c-1.4,0.8-3.9,8.3-4.1,20.5h-3.7c0.1-6.9,1.1-16.1,3.6-20.9c-0.2,0.4-0.4,0.8-0.6,1.2c-0.2-0.5-0.5-0.7-0.6-0.8
	c-1.4,0.8-3.9,8.3-4.1,20.5h-3.7c0.1-6.9,1.1-16.1,3.6-20.9c-0.2,0.4-0.4,0.8-0.6,1.2c-0.2-0.5-0.5-0.7-0.6-0.8
	c-1.4,0.8-3.9,8.3-4.1,20.5h-3.7c0.1-6.4,0.9-14.7,3.1-19.8c-0.2-0.4-0.4-0.7-0.6-0.7c-1.4,0.8-3.9,8.3-4.1,20.5h-3.7
	c0.1-8,1.4-19,5-22.9c-0.7,0.7-1.4,1.8-1.9,3.1c-0.2-0.5-0.5-0.7-0.6-0.8c-1.5,0.8-3.9,8.4-4.1,20.6h-3.7c0.2-9.9,2-24.3,7.8-24.3
	c1,0,1.9,0.5,2.7,1.3c0,0-0.1,0.1-0.1,0.1c0.8-0.9,1.8-1.4,2.9-1.4c1,0,1.8,0.4,2.6,1.3c0.8-0.8,1.7-1.3,2.8-1.3
	c1,0,1.9,0.5,2.6,1.3c0.8-0.9,1.7-1.3,2.8-1.3c1,0,1.9,0.5,2.6,1.3c0.8-0.9,1.7-1.3,2.8-1.3c1,0,1.8,0.4,2.6,1.3
	c0.8-0.8,1.7-1.3,2.8-1.3c1,0,1.9,0.5,2.7,1.3c0,0-0.1,0.1-0.1,0.1c0.8-0.9,1.8-1.4,2.9-1.4c1,0,1.9,0.5,2.6,1.3
	c0.8-0.9,1.7-1.3,2.8-1.3c1,0,1.8,0.5,2.6,1.3c0.8-0.8,1.7-1.3,2.7-1.3c1,0,1.9,0.5,2.6,1.3c0.8-0.9,1.7-1.3,2.8-1.3
	c5.8,0,7.6,14.5,7.8,24.2H77.8z"/>
</svg>
