<?xml version="1.0" encoding="utf-8"?>
<!-- Generator: Adobe Illustrator 22.1.0, SVG Export Plug-In . SVG Version: 6.00 Build 0)  -->
<svg version="1.1" id="图层_1" xmlns="http://www.w3.org/2000/svg" xmlns:xlink="http://www.w3.org/1999/xlink" x="0px" y="0px"
	 viewBox="0 0 99.2 99.2" style="enable-background:new 0 0 99.2 99.2;" xml:space="preserve">
<style type="text/css">
	.st0{fill:#313333;}
</style>
<title>画板 50</title>
<path class="st0" d="M49.6,0C22.2,0,0,22.2,0,49.6C0,77,22.2,99.2,49.6,99.2C77,99.2,99.2,77,99.2,49.6C99.2,22.2,77,0,49.6,0z
	 M74.2,39.2v0.2c0,0.4-0.3,0.9-0.9,0.9H27.8c-0.4,0-0.9-0.3-0.9-0.9v-0.2c0-0.6,0.4-0.9,0.9-0.9h45.5C73.8,38.3,74.2,38.6,74.2,39.2
	z M72.2,29.3v0.2c0,0.4-0.3,0.9-0.9,0.9H30c-0.6-0.1-0.9-0.4-0.9-1v-0.1c0-0.4,0.3-0.9,0.9-0.9h41.3C71.8,28.4,72.2,28.8,72.2,29.3z
	 M28.6,22.8c0-0.6,0.4-0.9,0.9-0.9h40.3c0.4,0,0.9,0.3,0.9,0.9V23c0,0.4-0.3,0.9-0.9,0.9H29.5c-0.4,0-0.9-0.3-0.9-0.9V22.8z
	 M27.9,26c0-0.4,0.3-0.8,0.9-0.8h41.5c0.4,0,0.9,0.3,0.9,0.9v0.2c0,0.4-0.3,0.9-0.9,0.9H28.8c-0.4,0-0.9-0.3-0.9-0.9V26z M27.9,32.6
	c0-0.6,0.3-0.9,0.9-0.9h41.5c0.4,0,0.9,0.3,0.9,0.9v0.2c0,0.4-0.3,0.9-0.9,0.9H28.8c-0.4,0-0.9-0.3-0.9-0.9V32.6z M25.6,35.9
	c0-0.4,0.3-0.9,0.9-0.9h43.9c0.4,0,0.9,0.3,0.9,0.9v0.2c0,0.4-0.3,0.9-0.9,0.9H26.5c-0.4,0-0.9-0.3-0.9-0.9V35.9z M23.8,42.4
	c0-0.4,0.4-0.9,0.9-0.9h51.5c0.4,0,0.9,0.3,0.9,0.9v0.2c0,0.4-0.3,0.9-0.9,0.9H24.7c-0.4,0-0.9-0.3-0.9-0.9V42.4z M76.6,45.7V46
	c0,0.4-0.3,0.9-0.9,0.9H25.6c-0.4,0-0.9-0.3-0.9-0.9v-0.2c0-0.6,0.3-0.9,0.9-0.9h50.1C76.1,44.9,76.6,45.2,76.6,45.7z M71.6,75.5
	c0,0.4-0.3,0.9-0.9,0.9H30.4c-0.4,0-0.9-0.3-0.9-0.9v-0.2c0-0.4,0.3-0.9,0.9-0.9h40.3c0.4,0,0.9,0.3,0.9,0.9V75.5z M73.1,72.3
	c0,0.4-0.3,0.9-0.9,0.9H27.7c-0.4,0-0.9-0.3-0.9-0.9V72c0-0.4,0.3-0.8,0.9-0.8h44.5c0.4,0,0.9,0.3,0.9,0.9V72.3z M27.7,65.6v-0.2
	c0.1-0.4,0.4-0.9,0.9-0.9h42c0.4,0,0.9,0.3,0.9,0.9v0.2c0,0.4-0.3,0.9-0.9,0.9h-42C28.2,66.5,27.7,66.2,27.7,65.6z M73.1,69
	c0,0.4-0.3,0.9-0.9,0.9H30.4c-0.6-0.1-0.9-0.4-0.9-1v-0.2c0-0.4,0.3-0.8,0.9-0.8h41.9c0.4,0,0.9,0.3,0.9,0.9V69z M74.6,62.4
	c0,0.4-0.3,0.9-0.9,0.9H28.6c-0.4,0-0.9-0.3-0.9-0.9v-0.2c0.1-0.6,0.4-0.9,0.9-0.9h45.1c0.4,0,0.9,0.3,0.9,0.9V62.4z M75.2,59.1
	c0,0.4-0.3,0.9-0.9,0.9H25.6c-0.4,0-0.9-0.3-0.9-0.9v-0.2c0-0.4,0.3-0.9,0.9-0.9h48.7c0.4,0,0.9,0.3,0.9,0.9V59.1z M77.1,55.9
	c0,0.4-0.3,0.9-0.9,0.9H21.4c-0.4,0-0.9-0.3-0.9-0.9v-0.2c0-0.6,0.4-0.9,0.9-0.9h54.9c0.4,0,0.9,0.3,0.9,0.9V55.9z M23.5,52.5v-0.2
	c0-0.4,0.4-0.9,0.9-0.9h50.4c0.4,0,0.9,0.3,0.9,0.9v0.2c0,0.4-0.3,0.9-0.9,0.9H24.4C23.9,53.4,23.5,53.1,23.5,52.5z M78.7,49.3
	c0,0.4-0.3,0.9-0.9,0.9h-54c-0.4,0-0.9-0.3-0.9-0.9v-0.2c0-0.6,0.4-0.9,0.9-0.9h54c0.4,0,0.9,0.3,0.9,0.9V49.3z"/>
</svg>
