<svg id="图层_1" data-name="图层 1" xmlns="http://www.w3.org/2000/svg" viewBox="0 0 691.78 672.27"><defs><style>.cls-1{fill:#fff;}.cls-1,.cls-2{stroke:#999899;stroke-width:3px;}.cls-1,.cls-2,.cls-7{stroke-miterlimit:10;}.cls-2,.cls-7{fill:none;}.cls-3,.cls-4,.cls-5{isolation:isolate;}.cls-3,.cls-5{font-size:24px;fill:#231815;font-family:Calibri-Bold, Calibri;font-weight:700;}.cls-5{letter-spacing:-0.02em;}.cls-6{fill:#3a405a;}.cls-7{stroke:#3a405a;stroke-width:6px;}</style></defs><rect class="cls-1" x="123.57" y="27.06" width="541.15" height="541.15" rx="13.13"/><line class="cls-2" x1="123.57" y1="98.99" x2="664.72" y2="98.99"/><line class="cls-2" x1="123.57" y1="255.1" x2="664.72" y2="255.1"/><line class="cls-2" x1="123.57" y1="408.07" x2="664.72" y2="408.07"/><line class="cls-2" x1="341.58" y1="568.21" x2="341.58" y2="27.06"/><line class="cls-2" x1="235.63" y1="568.21" x2="235.63" y2="27.06"/><text class="cls-3" transform="translate(72.54 104.59)">600</text><text class="cls-3" transform="translate(72.54 260.7)">400</text><g class="cls-4"><text class="cls-3" transform="translate(45.66 393.23) rotate(-90)">Du</text><text class="cls-5" transform="translate(45.66 365.22) rotate(-90)">r</text><text class="cls-3" transform="translate(45.66 357.22) rotate(-90)">able Time / h</text></g><text class="cls-3" transform="translate(72.54 413.67)">200</text><text class="cls-3" transform="translate(105.78 594.23)">0</text><text class="cls-3" transform="translate(214.18 594.23)">0.02</text><text class="cls-3" transform="translate(365.96 638.83)">B / %</text><text class="cls-3" transform="translate(320.13 594.23)">0.04</text><line class="cls-2" x1="449.58" y1="568.21" x2="449.58" y2="27.06"/><text class="cls-3" transform="translate(428.13 594.23)">0.06</text><line class="cls-2" x1="557.04" y1="568.21" x2="557.04" y2="27.06"/><text class="cls-3" transform="translate(535.59 594.23)">0.08</text><text class="cls-3" transform="translate(630.16 594.23)">0.10</text><circle class="cls-6" cx="382.17" cy="461.85" r="8.63"/><circle class="cls-6" cx="616.21" cy="494.28" r="8.63"/><circle class="cls-6" cx="129.46" cy="321.86" r="8.63"/><circle class="cls-6" cx="207.27" cy="315.23" r="8.63"/><circle class="cls-6" cx="157.35" cy="71.84" r="8.63"/><circle class="cls-6" cx="164.29" cy="118.55" r="8.63"/><circle class="cls-6" cx="193.43" cy="190.34" r="8.63"/><path class="cls-7" d="M123.57,321.86s12.73-250,32.09-250c32.25,0,14.16,183.85,82.33,289.14,34.28,52.95,163.77,133.3,378.22,133.3"/></svg>