<svg id="图层_1" data-name="图层 1" xmlns="http://www.w3.org/2000/svg" viewBox="0 0 691.78 672.27"><defs><style>.cls-1{fill:#fff;}.cls-1,.cls-2{stroke:#999899;stroke-width:3px;}.cls-1,.cls-2,.cls-9{stroke-miterlimit:10;}.cls-2,.cls-9{fill:none;}.cls-3{isolation:isolate;font-size:24px;fill:#231815;font-family:Calibri-Bold, Calibri;font-weight:700;}.cls-4{letter-spacing:-0.01em;}.cls-5{letter-spacing:0em;}.cls-6{letter-spacing:-0.01em;}.cls-7{letter-spacing:0em;}.cls-8{fill:#fba971;}.cls-9{stroke:#fba971;stroke-width:6px;}</style></defs><title>table1</title><rect class="cls-1" x="123.57" y="27.06" width="541.15" height="541.15" rx="13.13"/><line class="cls-2" x1="123.57" y1="63.89" x2="664.72" y2="63.89"/><text class="cls-3" transform="translate(89.21 63.89)">64</text><line class="cls-2" x1="123.57" y1="190.09" x2="664.72" y2="190.09"/><text class="cls-3" transform="translate(89.21 190.09)">48</text><text class="cls-3" transform="translate(45.66 475.89) rotate(-90)">m<tspan class="cls-4" x="19.52" y="0">a</tspan><tspan x="31.15" y="0">ximum </tspan><tspan class="cls-5" x="105.42" y="0">c</tspan><tspan x="115.35" y="0">or</tspan><tspan class="cls-6" x="136.78" y="0">r</tspan><tspan x="145.02" y="0">osion de</tspan><tspan class="cls-7" x="229.56" y="0">p</tspan><tspan x="242.34" y="0">th / km</tspan></text><line class="cls-2" x1="123.57" y1="316.29" x2="664.72" y2="316.29"/><text class="cls-3" transform="translate(89.21 316.29)">32</text><line class="cls-2" x1="123.57" y1="442.49" x2="664.72" y2="442.49"/><text class="cls-3" transform="translate(89.21 442.49)">16</text><line class="cls-2" x1="223" y1="568.21" x2="223" y2="27.06"/><text class="cls-3" transform="translate(210.83 594.23)">10</text><line class="cls-2" x1="326.75" y1="568.21" x2="326.75" y2="27.06"/><text class="cls-3" transform="translate(314.58 594.23)">20</text><line class="cls-2" x1="430.5" y1="568.21" x2="430.5" y2="27.06"/><text class="cls-3" transform="translate(418.33 594.23)">30</text><line class="cls-2" x1="534.24" y1="568.21" x2="534.24" y2="27.06"/><text class="cls-3" transform="translate(522.08 594.23)">40</text><text class="cls-3" transform="translate(363.96 638.83)">Cr / %</text><line class="cls-2" x1="638" y1="568.21" x2="638" y2="27.06"/><text class="cls-3" transform="translate(625.83 594.23)">50</text><circle class="cls-8" cx="223" cy="78.26" r="8.63"/><circle class="cls-8" cx="258.43" cy="189.84" r="8.63"/><circle class="cls-8" cx="309.92" cy="316.29" r="8.63"/><circle class="cls-8" cx="327.32" cy="350.56" r="8.63"/><circle class="cls-8" cx="347.59" cy="385.69" r="8.63"/><circle class="cls-8" cx="431.07" cy="491.95" r="8.63"/><circle class="cls-8" cx="514.71" cy="543.68" r="8.63"/><circle class="cls-8" cx="642.37" cy="530.76" r="8.63"/><path class="cls-9" d="M223,78.26s147.24,588.36,419.37,452.5"/></svg>