<svg id="图层_1" data-name="图层 1" xmlns="http://www.w3.org/2000/svg" viewBox="0 0 691.78 672.27"><defs><style>.cls-1,.cls-10{fill:#fff;}.cls-1,.cls-2{stroke:#999899;stroke-width:3px;}.cls-1,.cls-2,.cls-9{stroke-miterlimit:10;}.cls-2,.cls-9{fill:none;}.cls-11,.cls-3,.cls-4,.cls-7{isolation:isolate;}.cls-11,.cls-3,.cls-7{font-size:24px;font-family:Calibri-Bold, Calibri;font-weight:700;}.cls-3{fill:#231815;}.cls-5{letter-spacing:-0.01em;}.cls-6{letter-spacing:-0.02em;}.cls-7,.cls-8{fill:#fba971;}.cls-9{stroke:#fba971;stroke-width:6px;}.cls-12{font-size:20px;font-family:MicrosoftYaHei-Bold, Microsoft YaHei;}.cls-13{font-family:Calibri-Light, Calibri;font-weight:300;}.cls-14{letter-spacing:-0.02em;}</style></defs><title>table 2</title><rect class="cls-1" x="123.57" y="27.06" width="541.15" height="541.15" rx="13.13"/><line class="cls-2" x1="123.57" y1="117.25" x2="664.72" y2="117.25"/><text class="cls-3" transform="translate(74.91 117.25)">200</text><text class="cls-3" transform="translate(74.91 27.06)">240</text><line class="cls-2" x1="123.57" y1="207.44" x2="664.72" y2="207.44"/><text class="cls-3" transform="translate(74.91 207.44)">160</text><g class="cls-4"><text class="cls-3" transform="translate(45.66 403.11) rotate(-90)">All<tspan class="cls-5" x="26.33" y="0">o</tspan><tspan x="39.09" y="0">y Du</tspan><tspan class="cls-6" x="83.89" y="0">r</tspan><tspan x="91.9" y="0">ability / h</tspan></text></g><line class="cls-2" x1="123.57" y1="297.64" x2="664.72" y2="297.64"/><text class="cls-3" transform="translate(74.91 297.64)">120</text><line class="cls-2" x1="123.57" y1="478.02" x2="664.72" y2="478.02"/><text class="cls-3" transform="translate(87.07 478.02)">40</text><text class="cls-3" transform="translate(99.24 568.21)">0</text><line class="cls-2" x1="123.57" y1="387.83" x2="664.72" y2="387.83"/><text class="cls-3" transform="translate(87.07 387.83)">80</text><line class="cls-2" x1="231.8" y1="568.21" x2="231.8" y2="27.06"/><text class="cls-3" transform="translate(225.87 594.23)">3</text><line class="cls-2" x1="340.03" y1="568.21" x2="340.03" y2="27.06"/><text class="cls-3" transform="translate(334.1 594.23)">4</text><line class="cls-2" x1="448.26" y1="568.21" x2="448.26" y2="27.06"/><text class="cls-3" transform="translate(442.33 594.23)">5</text><text class="cls-7" transform="translate(359.59 79.89)">15Cr</text><text class="cls-7" transform="translate(394.14 145.89)">12Cr</text><text class="cls-3" transform="translate(350.96 638.83)">Al + Ti / %</text><line class="cls-2" x1="556.49" y1="568.21" x2="556.49" y2="27.06"/><text class="cls-3" transform="translate(550.56 594.23)">6</text><text class="cls-3" transform="translate(117.64 594.23)">2</text><text class="cls-3" transform="translate(658.79 594.23)">7</text><circle class="cls-8" cx="194.09" cy="478.02" r="8.63"/><circle class="cls-8" cx="313.3" cy="207.44" r="8.63"/><circle class="cls-8" cx="359.59" cy="101.26" r="8.63"/><circle class="cls-8" cx="444.03" cy="283.89" r="8.63"/><circle class="cls-8" cx="475.54" cy="368.52" r="8.63"/><circle class="cls-8" cx="494.4" cy="432.92" r="8.63"/><circle class="cls-8" cx="556.49" cy="523.11" r="8.63"/><polyline class="cls-9" points="194.09 478.02 359.59 101.26 556.49 523.12"/><path class="cls-10" d="M334.1,238.89a6.63,6.63,0,1,1,6.63-6.63A6.63,6.63,0,0,1,334.1,238.89Z"/><path class="cls-8" d="M334.1,227.63a4.63,4.63,0,1,1-4.63,4.63,4.64,4.64,0,0,1,4.63-4.63m0-4a8.63,8.63,0,1,0,8.63,8.63,8.63,8.63,0,0,0-8.63-8.63Z"/><circle class="cls-10" cx="359.59" cy="280.54" r="6.63"/><path class="cls-8" d="M359.59,275.91a4.63,4.63,0,1,1-4.63,4.63,4.63,4.63,0,0,1,4.63-4.63m0-4a8.63,8.63,0,1,0,8.63,8.63,8.63,8.63,0,0,0-8.63-8.63Z"/><polyline class="cls-9" points="253.5 443.82 394.14 162.35 573.62 489.48"/><circle class="cls-10" cx="253.5" cy="443.82" r="6.63"/><path class="cls-8" d="M253.5,439.19a4.63,4.63,0,1,1-4.63,4.63,4.63,4.63,0,0,1,4.63-4.63m0-4a8.63,8.63,0,1,0,8.63,8.63,8.63,8.63,0,0,0-8.63-8.63Z"/><circle class="cls-10" cx="394.14" cy="162.35" r="6.63"/><path class="cls-8" d="M394.14,157.72a4.63,4.63,0,1,1-4.63,4.63,4.63,4.63,0,0,1,4.63-4.63m0-4a8.63,8.63,0,1,0,8.63,8.63,8.63,8.63,0,0,0-8.63-8.63Z"/><circle class="cls-10" cx="442.59" cy="249.52" r="6.63"/><path class="cls-8" d="M442.59,244.89a4.63,4.63,0,1,1-4.63,4.63,4.64,4.64,0,0,1,4.63-4.63m0-4a8.63,8.63,0,1,0,8.63,8.63,8.63,8.63,0,0,0-8.63-8.63Z"/><circle class="cls-10" cx="573.62" cy="489.48" r="6.63"/><path class="cls-8" d="M573.62,484.85a4.63,4.63,0,1,1-4.63,4.63,4.63,4.63,0,0,1,4.63-4.63m0-4a8.63,8.63,0,1,0,8.63,8.63,8.64,8.64,0,0,0-8.63-8.63Z"/><text class="cls-11" transform="translate(503.03 65.89)">750<tspan class="cls-12" x="36.49" y="0">℃</tspan><tspan class="cls-13" x="56.49" y="0"> </tspan><tspan x="61.92" y="0">300M</tspan><tspan class="cls-14" x="119.39" y="0">P</tspan><tspan x="131.69" y="0">a</tspan></text></svg>