<?xml version="1.0" encoding="utf-8"?>
<!-- Generator: Adobe Illustrator 26.0.0, SVG Export Plug-In . SVG Version: 6.00 Build 0)  -->
<svg version="1.1" id="图层_1" xmlns="http://www.w3.org/2000/svg" xmlns:xlink="http://www.w3.org/1999/xlink" x="0px" y="0px"
	 viewBox="0 0 1133.9 672.3" style="enable-background:new 0 0 1133.9 672.3;" xml:space="preserve">
<style type="text/css">
	.st0{fill:none;stroke:#999899;stroke-width:3;stroke-miterlimit:10;}
	.st1{fill:#231815;}
	.st2{font-family:'Calibri-Bold';}
	.st3{font-size:24px;}
	.st4{fill:#544343;}
	.st5{fill:none;stroke:#544343;stroke-width:5.3731;stroke-linecap:round;stroke-miterlimit:10;}
</style>
<path class="st0" d="M223.5,35.6h755.9c6.6,0,12,5.4,12,12v517.2c0,6.6-5.4,12-12,12H223.5c-6.6,0-12-5.4-12-12V47.6
	C211.5,41,216.9,35.6,223.5,35.6z"/>
<line class="st0" x1="211.5" y1="113.4" x2="991.4" y2="113.4"/>
<line class="st0" x1="211.5" y1="295.2" x2="991.4" y2="295.2"/>
<line class="st0" x1="367.5" y1="576.7" x2="367.5" y2="35.6"/>
<line class="st0" x1="523.5" y1="576.7" x2="523.5" y2="35.6"/>
<line class="st0" x1="679.4" y1="576.7" x2="679.4" y2="35.6"/>
<line class="st0" x1="835.4" y1="575.2" x2="835.4" y2="34.1"/>
<g>
	<text transform="matrix(6.123234e-17 -1 1 6.123234e-17 115.61 318.4301)" class="st1 st2 st3">τ/min</text>
</g>
<text transform="matrix(1 0 0 1 160.4902 118.99)" class="st1 st2 st3">300</text>
<text transform="matrix(1 0 0 1 160.49 300.8099)" class="st1 st2 st3">200</text>
<line class="st0" x1="211.5" y1="480.2" x2="991.4" y2="480.2"/>
<text transform="matrix(1 0 0 1 160.49 485.7999)" class="st1 st2 st3">100</text>
<text transform="matrix(1 0 0 1 517.3782 602.73)" class="st1 st2 st3">3</text>
<text transform="matrix(1 0 0 1 361.3981 602.73)" class="st1 st2 st3">2</text>
<text transform="matrix(1 0 0 1 829.3381 602.73)" class="st1 st2 st3">5</text>
<text transform="matrix(1 0 0 1 673.3577 602.73)" class="st1 st2 st3">4</text>
<text transform="matrix(1 0 0 1 583.81 647.33)" class="st1 st2 st3">W%</text>
<circle class="st4" cx="378.7" cy="477.2" r="8.6"/>
<circle class="st4" cx="688" cy="183" r="8.6"/>
<circle class="st4" cx="868.7" cy="91.3" r="8.6"/>
<circle class="st4" cx="532.1" cy="361.4" r="8.6"/>
<line class="st5" x1="378.7" y1="477.2" x2="844.1" y2="91.3"/>
</svg>
