<svg id="图层_1" data-name="图层 1" xmlns="http://www.w3.org/2000/svg" viewBox="0 0 691.78 672.27"><defs><style>.cls-1{fill:#fff;}.cls-1,.cls-2{stroke:#999899;stroke-width:3px;}.cls-1,.cls-2,.cls-9{stroke-miterlimit:10;}.cls-2,.cls-9{fill:none;}.cls-3,.cls-4,.cls-5,.cls-6,.cls-7{isolation:isolate;}.cls-4,.cls-6,.cls-7{font-size:24px;}.cls-4,.cls-5,.cls-6{fill:#231815;}.cls-4,.cls-5,.cls-6,.cls-7{font-family:Calibri-Bold, Calibri;font-weight:700;}.cls-5{font-size:18px;}.cls-6{letter-spacing:-0.02em;}.cls-7,.cls-8{fill:#b7c8b5;}.cls-9{stroke:#b7c8b5;stroke-width:6px;}</style></defs><title>table1</title><rect class="cls-1" x="123.57" y="27.06" width="541.15" height="541.15" rx="13.13"/><line class="cls-2" x1="123.57" y1="104.89" x2="664.72" y2="104.89"/><line class="cls-2" x1="123.57" y1="258.63" x2="664.72" y2="258.63"/><g class="cls-3"><text class="cls-4" transform="translate(45.67 350.56) rotate(-90)">σ</text><text class="cls-5" transform="translate(51.67 337.49) rotate(-90)">0.2</text><text class="cls-4" transform="translate(45.67 314.44) rotate(-90)"><tspan xml:space="preserve"> / M</tspan></text><text class="cls-6" transform="translate(45.67 272.3) rotate(-90)">P</text><text class="cls-4" transform="translate(45.67 259.99) rotate(-90)">a</text></g><line class="cls-2" x1="123.57" y1="421.25" x2="664.72" y2="421.25"/><text class="cls-4" transform="translate(77.05 573.81)">700</text><text class="cls-4" transform="translate(77.05 426.86)">800</text><text class="cls-4" transform="translate(77.05 264.23)">900</text><text class="cls-7" transform="translate(348.9 134.42)">20°C</text><text class="cls-7" transform="translate(360.92 312.4)">800°C</text><text class="cls-4" transform="translate(64.88 110.49)">1000</text><line class="cls-2" x1="228.8" y1="568.21" x2="228.8" y2="27.06"/><text class="cls-4" transform="translate(222.71 594.23)">6</text><line class="cls-2" x1="339.79" y1="568.21" x2="339.79" y2="27.06"/><text class="cls-4" transform="translate(333.71 594.23)">7</text><line class="cls-2" x1="449.78" y1="568.21" x2="449.78" y2="27.06"/><text class="cls-4" transform="translate(443.69 594.23)">8</text><line class="cls-2" x1="556.35" y1="568.21" x2="556.35" y2="27.06"/><text class="cls-4" transform="translate(550.27 594.23)">9</text><text class="cls-4" transform="translate(362.83 638.83)">Mo / %</text><line class="cls-2" x1="638" y1="568.21" x2="638" y2="27.06"/><circle class="cls-8" cx="218.34" cy="248.87" r="8.63"/><circle class="cls-8" cx="440.83" cy="129.3" r="8.63"/><circle class="cls-8" cx="572.7" cy="54.56" r="8.63"/><circle class="cls-8" cx="214.23" cy="465.76" r="8.63"/><circle class="cls-8" cx="439.13" cy="331.03" r="8.63"/><circle class="cls-8" cx="345.32" cy="366.41" r="8.63"/><circle class="cls-8" cx="571.22" cy="259.76" r="8.63"/><circle class="cls-8" cx="348.72" cy="170.31" r="8.63"/><line class="cls-9" x1="218.34" y1="248.87" x2="569.28" y2="54.56"/><polyline class="cls-9" points="214.23 465.76 434.45 332.57 571.22 259.76"/></svg>