<svg id="图层_1" data-name="图层 1" xmlns="http://www.w3.org/2000/svg" viewBox="0 0 850.4 566.9"><defs><style>.cls-1{fill:#fff;}.cls-2,.cls-3,.cls-4,.cls-5{fill:none;}.cls-2{stroke:#eee;}.cls-2,.cls-3,.cls-5{stroke-miterlimit:10;}.cls-3,.cls-4,.cls-5{stroke:#999;}.cls-3,.cls-4{stroke-width:2.7px;}.cls-4{stroke-linejoin:round;}.cls-5{stroke-width:0.9px;}.cls-6,.cls-7{fill:#999;}.cls-7{isolation:isolate;font-size:16.2px;font-family:Calibri-Bold, Calibri;font-weight:700;}</style></defs><rect class="cls-1" width="850.4" height="566.9"/><line class="cls-2" x1="850.4" y1="46.7" y2="46.7"/><line class="cls-2" x1="850.4" y1="165.1" y2="165.1"/><line class="cls-2" x1="850.4" y1="283.5" y2="283.5"/><line class="cls-2" x1="850.4" y1="401.9" y2="401.9"/><line class="cls-2" x1="850.4" y1="105.9" y2="105.9"/><line class="cls-2" x1="850.4" y1="224.3" y2="224.3"/><line class="cls-2" x1="850.4" y1="342.7" y2="342.7"/><line class="cls-2" x1="850.4" y1="461" y2="461"/><line class="cls-2" x1="850.4" y1="520.2" y2="520.2"/><line class="cls-2" x1="850.4" y1="135.5" y2="135.5"/><line class="cls-2" x1="850.4" y1="253.9" y2="253.9"/><line class="cls-2" x1="850.4" y1="372.3" y2="372.3"/><line class="cls-2" x1="850.4" y1="76.3" y2="76.3"/><line class="cls-2" x1="850.4" y1="17.1" y2="17.1"/><line class="cls-2" x1="850.4" y1="194.7" y2="194.7"/><line class="cls-2" x1="850.4" y1="313.1" y2="313.1"/><line class="cls-2" x1="850.4" y1="431.4" y2="431.4"/><line class="cls-2" x1="850.4" y1="490.6" y2="490.6"/><line class="cls-2" x1="850.4" y1="549.8" y2="549.8"/><line class="cls-2" x1="10.8" x2="10.8" y2="566.9"/><line class="cls-2" x1="129.2" x2="129.2" y2="566.9"/><line class="cls-2" x1="247.6" x2="247.6" y2="566.9"/><line class="cls-2" x1="366" x2="366" y2="566.9"/><line class="cls-2" x1="484.4" x2="484.4" y2="566.9"/><line class="cls-2" x1="602.8" x2="602.8" y2="566.9"/><line class="cls-2" x1="839.5" x2="839.5" y2="566.9"/><line class="cls-2" x1="721.2" x2="721.2" y2="566.9"/><line class="cls-2" x1="70" x2="70" y2="566.9"/><line class="cls-2" x1="188.4" x2="188.4" y2="566.9"/><line class="cls-2" x1="306.8" x2="306.8" y2="566.9"/><line class="cls-2" x1="425.2" x2="425.2" y2="566.9"/><line class="cls-2" x1="543.6" x2="543.6" y2="566.9"/><line class="cls-2" x1="662" x2="662" y2="566.9"/><line class="cls-2" x1="780.4" x2="780.4" y2="566.9"/><line class="cls-2" x1="810" x2="810" y2="566.9"/><line class="cls-2" x1="99.6" x2="99.6" y2="566.9"/><line class="cls-2" x1="218" x2="218" y2="566.9"/><line class="cls-2" x1="336.4" x2="336.4" y2="566.9"/><line class="cls-2" x1="454.8" x2="454.8" y2="566.9"/><line class="cls-2" x1="573.2" x2="573.2" y2="566.9"/><line class="cls-2" x1="691.6" x2="691.6" y2="566.9"/><line class="cls-2" x1="40.4" x2="40.4" y2="566.9"/><line class="cls-2" x1="158.8" x2="158.8" y2="566.9"/><line class="cls-2" x1="277.2" x2="277.2" y2="566.9"/><line class="cls-2" x1="395.6" x2="395.6" y2="566.9"/><line class="cls-2" x1="514" x2="514" y2="566.9"/><line class="cls-2" x1="632.4" x2="632.4" y2="566.9"/><line class="cls-2" x1="750.8" x2="750.8" y2="566.9"/><path class="cls-3" d="M169.22,261.09A15.76,15.76,0,1,0,185,276.85h0A15.79,15.79,0,0,0,169.22,261.09Zm0,25.34a9.58,9.58,0,1,1,9.58-9.58A9.58,9.58,0,0,1,169.22,286.43Z"/><rect class="cls-4" x="218" y="261.09" width="486.48" height="31.43"/><line class="cls-5" x1="153.47" y1="369.53" x2="153.47" y2="184.54"/><line class="cls-5" x1="159.64" y1="369.53" x2="159.64" y2="276.76"/><line class="cls-5" x1="184.99" y1="276.76" x2="184.99" y2="184.54"/><line class="cls-5" x1="218" y1="276.76" x2="218" y2="184.54"/><line class="cls-5" x1="704.48" y1="276.76" x2="704.48" y2="184.54"/><line class="cls-5" x1="159.94" y1="196.23" x2="178.46" y2="196.23"/><polygon class="cls-6" points="161.2 200.64 153.47 196.23 161.2 191.73 161.2 200.64"/><polygon class="cls-6" points="177.25 200.64 184.99 196.23 177.25 191.73 177.25 200.64"/><polygon class="cls-6" points="167.37 362.6 159.64 358.19 167.37 353.69 167.37 362.6"/><polygon class="cls-6" points="145.73 362.6 153.47 358.19 145.73 353.69 145.73 362.6"/><line class="cls-5" x1="225" y1="196.23" x2="698" y2="196.23"/><polygon class="cls-6" points="225.82 200.64 218 196.23 225.82 191.73 225.82 200.64"/><polygon class="cls-6" points="696.74 200.64 704.48 196.23 696.74 191.73 696.74 200.64"/><text class="cls-7" transform="translate(158.61 189)">OD</text><text class="cls-7" transform="translate(458.07 189)">L</text><text class="cls-7" transform="translate(143.12 385.75)">THK</text></svg>