<svg id="图层_1" data-name="图层 1" xmlns="http://www.w3.org/2000/svg" viewBox="0 0 850.4 566.9"><defs><style>.cls-1{fill:#fff;}.cls-2,.cls-3,.cls-4,.cls-5{fill:none;}.cls-2{stroke:#eee;}.cls-2,.cls-4,.cls-5{stroke-miterlimit:10;}.cls-3,.cls-4,.cls-5{stroke:#999;}.cls-3{stroke-linejoin:round;}.cls-3,.cls-4{stroke-width:2.7px;}.cls-5{stroke-width:0.9px;}.cls-6,.cls-7{fill:#999;}.cls-7{isolation:isolate;font-size:16.2px;font-family:Calibri-Bold, Calibri;font-weight:700;}</style></defs><rect class="cls-1" width="850.4" height="566.9"/><line class="cls-2" x1="850.4" y1="46.7" y2="46.7"/><line class="cls-2" x1="850.4" y1="165.1" y2="165.1"/><line class="cls-2" x1="850.4" y1="283.5" y2="283.5"/><line class="cls-2" x1="850.4" y1="401.9" y2="401.9"/><line class="cls-2" x1="850.4" y1="105.9" y2="105.9"/><line class="cls-2" x1="850.4" y1="224.3" y2="224.3"/><line class="cls-2" x1="850.4" y1="342.7" y2="342.7"/><line class="cls-2" x1="850.4" y1="461" y2="461"/><line class="cls-2" x1="850.4" y1="520.2" y2="520.2"/><line class="cls-2" x1="850.4" y1="135.5" y2="135.5"/><line class="cls-2" x1="850.4" y1="253.9" y2="253.9"/><line class="cls-2" x1="850.4" y1="372.3" y2="372.3"/><line class="cls-2" x1="850.4" y1="76.3" y2="76.3"/><line class="cls-2" x1="850.4" y1="17.1" y2="17.1"/><line class="cls-2" x1="850.4" y1="194.7" y2="194.7"/><line class="cls-2" x1="850.4" y1="313.1" y2="313.1"/><line class="cls-2" x1="850.4" y1="431.4" y2="431.4"/><line class="cls-2" x1="850.4" y1="490.6" y2="490.6"/><line class="cls-2" x1="850.4" y1="549.8" y2="549.8"/><line class="cls-2" x1="10.8" x2="10.8" y2="566.9"/><line class="cls-2" x1="129.2" x2="129.2" y2="566.9"/><line class="cls-2" x1="247.6" x2="247.6" y2="566.9"/><line class="cls-2" x1="366" x2="366" y2="566.9"/><line class="cls-2" x1="484.4" x2="484.4" y2="566.9"/><line class="cls-2" x1="602.8" x2="602.8" y2="566.9"/><line class="cls-2" x1="839.5" x2="839.5" y2="566.9"/><line class="cls-2" x1="721.2" x2="721.2" y2="566.9"/><line class="cls-2" x1="70" x2="70" y2="566.9"/><line class="cls-2" x1="188.4" x2="188.4" y2="566.9"/><line class="cls-2" x1="306.8" x2="306.8" y2="566.9"/><line class="cls-2" x1="425.2" x2="425.2" y2="566.9"/><line class="cls-2" x1="543.6" x2="543.6" y2="566.9"/><line class="cls-2" x1="662" x2="662" y2="566.9"/><line class="cls-2" x1="780.4" x2="780.4" y2="566.9"/><line class="cls-2" x1="810" x2="810" y2="566.9"/><line class="cls-2" x1="99.6" x2="99.6" y2="566.9"/><line class="cls-2" x1="218" x2="218" y2="566.9"/><line class="cls-2" x1="336.4" x2="336.4" y2="566.9"/><line class="cls-2" x1="454.8" x2="454.8" y2="566.9"/><line class="cls-2" x1="573.2" x2="573.2" y2="566.9"/><line class="cls-2" x1="691.6" x2="691.6" y2="566.9"/><line class="cls-2" x1="40.4" x2="40.4" y2="566.9"/><line class="cls-2" x1="158.8" x2="158.8" y2="566.9"/><line class="cls-2" x1="277.2" x2="277.2" y2="566.9"/><line class="cls-2" x1="395.6" x2="395.6" y2="566.9"/><line class="cls-2" x1="514" x2="514" y2="566.9"/><line class="cls-2" x1="632.4" x2="632.4" y2="566.9"/><line class="cls-2" x1="750.8" x2="750.8" y2="566.9"/><path class="cls-3" d="M580.8,87.77a123.7,123.7,0,1,0,123.7,123.7A123.7,123.7,0,0,0,580.8,87.77Zm0,173.91A50.21,50.21,0,1,1,631,211.46h0A50.21,50.21,0,0,1,580.8,261.68Z"/><path class="cls-4" d="M242.26,313.83a10.67,10.67,0,1,0,10.68,10.67h0A10.69,10.69,0,0,0,242.26,313.83Zm0,17.16a6.49,6.49,0,1,1,6.48-6.49h0A6.49,6.49,0,0,1,242.26,331Z"/><line class="cls-5" x1="231.59" y1="372.94" x2="231.59" y2="275.99"/><line class="cls-5" x1="235.77" y1="372.94" x2="235.77" y2="324.41"/><line class="cls-5" x1="252.94" y1="324.41" x2="252.94" y2="275.99"/><line class="cls-5" x1="238.06" y1="287.68" x2="246.49" y2="287.68"/><polygon class="cls-6" points="239.32 292.1 231.59 287.69 239.32 283.19 239.32 292.1"/><polygon class="cls-6" points="245.2 292.1 252.94 287.69 245.2 283.19 245.2 292.1"/><polygon class="cls-6" points="243.5 366.01 235.77 361.6 243.5 357.1 243.5 366.01"/><polygon class="cls-6" points="223.85 366.01 231.59 361.6 223.85 357.1 223.85 366.01"/><text class="cls-7" transform="translate(231.69 269.3)">OD</text><text class="cls-7" transform="translate(220.24 389.16)">THK</text><path class="cls-3" d="M511.33,313.83H299.7v21.34H580.79A123.14,123.14,0,0,1,511.33,313.83Z"/></svg>