<svg id="图层_1" data-name="图层 1" xmlns="http://www.w3.org/2000/svg" viewBox="0 0 850.4 566.9"><defs><style>.cls-1{fill:#fff;}.cls-1,.cls-2,.cls-3,.cls-4,.cls-5,.cls-6,.cls-7{opacity:0.6;}.cls-2,.cls-3,.cls-5{fill:none;stroke:#eee;}.cls-2,.cls-5{stroke-miterlimit:10;}.cls-3{stroke-linejoin:round;stroke-width:2px;}.cls-4,.cls-6,.cls-8{fill:#eee;}.cls-5{stroke-width:0.9px;}.cls-6,.cls-7,.cls-8{isolation:isolate;}.cls-6,.cls-8{font-size:18px;font-family:Calibri-Bold, Calibri;font-weight:700;}</style></defs><rect class="cls-1" width="850.4" height="566.9"/><line class="cls-2" x1="850.4" y1="46.7" y2="46.7"/><line class="cls-2" x1="850.4" y1="165.1" y2="165.1"/><line class="cls-2" x1="850.4" y1="283.5" y2="283.5"/><line class="cls-2" x1="850.4" y1="401.9" y2="401.9"/><line class="cls-2" x1="850.4" y1="105.9" y2="105.9"/><line class="cls-2" x1="850.4" y1="224.3" y2="224.3"/><line class="cls-2" x1="850.4" y1="342.7" y2="342.7"/><line class="cls-2" x1="850.4" y1="461" y2="461"/><line class="cls-2" x1="850.4" y1="520.2" y2="520.2"/><line class="cls-2" x1="850.4" y1="135.5" y2="135.5"/><line class="cls-2" x1="850.4" y1="253.9" y2="253.9"/><line class="cls-2" x1="850.4" y1="372.3" y2="372.3"/><line class="cls-2" x1="850.4" y1="76.3" y2="76.3"/><line class="cls-2" x1="850.4" y1="17.1" y2="17.1"/><line class="cls-2" x1="850.4" y1="194.7" y2="194.7"/><line class="cls-2" x1="850.4" y1="313.1" y2="313.1"/><line class="cls-2" x1="850.4" y1="431.4" y2="431.4"/><line class="cls-2" x1="850.4" y1="490.6" y2="490.6"/><line class="cls-2" x1="850.4" y1="549.8" y2="549.8"/><line class="cls-2" x1="10.8" x2="10.8" y2="566.9"/><line class="cls-2" x1="129.2" x2="129.2" y2="566.9"/><line class="cls-2" x1="247.6" x2="247.6" y2="566.9"/><line class="cls-2" x1="366" x2="366" y2="566.9"/><line class="cls-2" x1="484.4" x2="484.4" y2="566.9"/><line class="cls-2" x1="602.8" x2="602.8" y2="566.9"/><line class="cls-2" x1="839.5" x2="839.5" y2="566.9"/><line class="cls-2" x1="721.2" x2="721.2" y2="566.9"/><line class="cls-2" x1="70" x2="70" y2="566.9"/><line class="cls-2" x1="188.4" x2="188.4" y2="566.9"/><line class="cls-2" x1="306.8" x2="306.8" y2="566.9"/><line class="cls-2" x1="425.2" x2="425.2" y2="566.9"/><line class="cls-2" x1="543.6" x2="543.6" y2="566.9"/><line class="cls-2" x1="662" x2="662" y2="566.9"/><line class="cls-2" x1="780.4" x2="780.4" y2="566.9"/><line class="cls-2" x1="810" x2="810" y2="566.9"/><line class="cls-2" x1="99.6" x2="99.6" y2="566.9"/><line class="cls-2" x1="218" x2="218" y2="566.9"/><line class="cls-2" x1="336.4" x2="336.4" y2="566.9"/><line class="cls-2" x1="454.8" x2="454.8" y2="566.9"/><line class="cls-2" x1="573.2" x2="573.2" y2="566.9"/><line class="cls-2" x1="691.6" x2="691.6" y2="566.9"/><line class="cls-2" x1="40.4" x2="40.4" y2="566.9"/><line class="cls-2" x1="158.8" x2="158.8" y2="566.9"/><line class="cls-2" x1="277.2" x2="277.2" y2="566.9"/><line class="cls-2" x1="395.6" x2="395.6" y2="566.9"/><line class="cls-2" x1="514" x2="514" y2="566.9"/><line class="cls-2" x1="632.4" x2="632.4" y2="566.9"/><line class="cls-2" x1="750.8" x2="750.8" y2="566.9"/><path class="cls-3" d="M190.9,211.76l-.6-.6-.1-.1h0l-14.8-14.8-.7.7a144.43,144.43,0,0,0-42.6,102.8v1h24v-2h-2a122.53,122.53,0,0,1,35.5-85.5l1.4,1.4,1.4-1.4-1.5-1.5Z"/><path class="cls-3" d="M223.5,244.36h0l-.7-.7h0l-1.5-1.5-1.4,1.4,1.4,1.4a78.27,78.27,0,0,0-22.3,53.7h-2v2h24v-1a56.48,56.48,0,0,1,16.5-39.9l.8-.6Z"/><rect class="cls-4" x="161.9" y="298.76" width="5.9" height="2"/><rect class="cls-4" x="173.6" y="298.76" width="5.9" height="2"/><rect class="cls-4" x="185.3" y="298.76" width="5.9" height="2"/><rect class="cls-4" x="205.08" y="225.49" width="2" height="5.9" transform="translate(-101.17 212.63) rotate(-45)"/><rect class="cls-4" x="213.39" y="233.79" width="2" height="5.9" transform="translate(-104.61 220.94) rotate(-45)"/><rect class="cls-4" x="196.9" y="217.16" width="2" height="5.9" transform="translate(-97.68 204.4) rotate(-45)"/><path class="cls-3" d="M428.9,199.76a100.05,100.05,0,0,0-98.5,100v1h24v-2h-2c.5-41.4,34.1-75.6,75.5-76.9v2h2v-24Z"/><rect class="cls-4" x="427.9" y="230.06" width="2" height="6.3"/><rect class="cls-4" x="427.9" y="242.76" width="2" height="6.3"/><path class="cls-3" d="M427.9,257.46a42.2,42.2,0,0,0-39.9,41.3h-2v2h24v-1a20.35,20.35,0,0,1,19-20.3l.9-.1v-24h-2Z"/><rect class="cls-4" x="360.7" y="298.76" width="6.3" height="2"/><rect class="cls-4" x="373.3" y="298.76" width="6.3" height="2"/><path class="cls-3" d="M662.4,202.76a94.51,94.51,0,0,0-94.4,94.4v1h24v-2h-2a72.31,72.31,0,0,1,144.6,0h-2v2h24v-1C756.8,245.06,714.4,202.76,662.4,202.76Z"/><path class="cls-3" d="M662.4,252.36a44.74,44.74,0,0,0-44.7,43.7h-2v2h24v-1a22.7,22.7,0,0,1,45.4,0v1h24v-2h-2A44.81,44.81,0,0,0,662.4,252.36Z"/><rect class="cls-4" x="606.2" y="296.06" width="4.7" height="2"/><rect class="cls-4" x="596.7" y="296.06" width="4.7" height="2"/><rect class="cls-4" x="723.3" y="296.06" width="4.7" height="2"/><rect class="cls-4" x="713.8" y="296.06" width="4.7" height="2"/><line class="cls-5" x1="176.6" y1="257.96" x2="114.5" y2="257.96"/><line class="cls-5" x1="132" y1="300.76" x2="114.5" y2="300.76"/><line class="cls-5" x1="119.8" y1="265.16" x2="119.8" y2="293.56"/><polygon class="cls-4" points="114.8 266.66 119.8 257.96 124.8 266.66 114.8 266.66"/><polygon class="cls-4" points="114.8 292.06 119.8 300.76 124.8 292.06 114.8 292.06"/><line class="cls-5" x1="132" y1="300.76" x2="132" y2="337.66"/><line class="cls-5" x1="568" y1="298.06" x2="568" y2="334.96"/><line class="cls-5" x1="590.1" y1="298.06" x2="590.1" y2="316.56"/><line class="cls-5" x1="603.9" y1="298.06" x2="603.9" y2="316.56"/><line class="cls-5" x1="721" y1="298.06" x2="721" y2="316.56"/><line class="cls-5" x1="221.1" y1="300.76" x2="221.1" y2="337.66"/><line class="cls-5" x1="139.2" y1="329.86" x2="213.9" y2="329.86"/><polygon class="cls-4" points="140.7 334.86 132 329.86 140.7 324.86 140.7 334.86"/><polygon class="cls-4" points="212.4 334.86 221.1 329.86 212.4 324.86 212.4 334.86"/><line class="cls-5" x1="377.3" y1="329.86" x2="422.7" y2="329.86"/><polygon class="cls-4" points="378.8 334.86 370.2 329.86 378.8 324.86 378.8 334.86"/><polygon class="cls-4" points="421.3 334.86 429.9 329.86 421.3 324.86 421.3 334.86"/><rect class="cls-4" x="203.53" y="228.44" width="3.04" height="2" transform="translate(-102.5 219.33) rotate(-46.33)"/><path class="cls-4" d="M183,253l-1.42-1.41L185.2,248l1.42,1.41Zm7.24-7.24-1.42-1.41,3.62-3.62,1.42,1.41Zm7.24-7.24-1.42-1.41,3.62-3.62,1.42,1.41Z"/><rect class="cls-4" x="176.17" y="255.91" width="2.97" height="2" transform="translate(-129.63 200.87) rotate(-45)"/><rect class="cls-4" x="175.6" y="296.76" width="2" height="3"/><path class="cls-4" d="M177.6,291.66h-2v-5.1h2Zm0-10.2h-2v-5.11h2Zm0-10.21h-2v-5.11h2Z"/><rect class="cls-4" x="175.6" y="257.96" width="2" height="3"/><text class="cls-6" transform="translate(96.64 286.35)">B</text><text class="cls-6" transform="translate(536.2 313.85)">T</text><text class="cls-6" transform="translate(93.8 237.92)">45°</text><g class="cls-7"><text class="cls-8" transform="translate(140.7 385.48)">45° Elb</text><text class="cls-8" transform="translate(192.04 385.48)">o</text><text class="cls-8" transform="translate(201.68 385.48)">w</text></g><g class="cls-7"><text class="cls-8" transform="translate(360.7 385.48)">90° Elb</text><text class="cls-8" transform="translate(412.04 385.48)">o</text><text class="cls-8" transform="translate(421.68 385.48)">w</text></g><g class="cls-7"><text class="cls-8" transform="translate(619.75 385.48)">180° Elb</text><text class="cls-8" transform="translate(680.21 385.48)">o</text><text class="cls-8" transform="translate(689.85 385.48)">w</text></g><text class="cls-6" transform="translate(231.33 307.93)">T</text><text class="cls-6" transform="translate(164.8 350.51)">OD</text><line class="cls-5" x1="575.2" y1="326.66" x2="632.5" y2="326.66"/><polygon class="cls-4" points="576.6 331.66 568 326.66 576.6 321.66 576.6 331.66"/><polygon class="cls-4" points="631 331.66 639.6 326.66 631 321.66 631 331.66"/><text class="cls-6" transform="translate(594.43 346.3)">OD</text><text class="cls-6" transform="translate(656.37 328.33)">O</text><text class="cls-6" transform="translate(394.58 350.51)">A</text><text class="cls-6" transform="translate(450.68 339.99)">90°</text><line class="cls-5" x1="199.1" y1="298.76" x2="199.1" y2="322.06"/><line class="cls-5" x1="228.2" y1="314.76" x2="244" y2="314.76"/><polygon class="cls-4" points="229.7 319.76 221.1 314.76 229.7 309.76 229.7 319.76"/><line class="cls-5" x1="176.2" y1="314.76" x2="191.9" y2="314.76"/><polygon class="cls-4" points="190.5 319.76 199.1 314.76 190.5 309.76 190.5 319.76"/><line class="cls-5" x1="176.6" y1="257.96" x2="131.1" y2="212.56"/><path class="cls-5" d="M120.2,250.86a56.75,56.75,0,0,1,11.4-27.6"/><polygon class="cls-4" points="125.4 249.76 119.8 257.96 115.5 248.96 125.4 249.76"/><polygon class="cls-4" points="134.6 227.66 136.4 217.86 127 221.16 134.6 227.66"/><line class="cls-5" x1="370.2" y1="300.76" x2="370.2" y2="337.66"/><line class="cls-5" x1="429.9" y1="279.36" x2="429.9" y2="337.66"/><line class="cls-5" x1="429.9" y1="279.36" x2="466.8" y2="279.36"/><line class="cls-5" x1="429.9" y1="199.76" x2="466.8" y2="199.76"/><line class="cls-5" x1="459.1" y1="272.16" x2="459.1" y2="206.86"/><polygon class="cls-4" points="464.1 270.76 459.1 279.36 454.1 270.76 464.1 270.76"/><polygon class="cls-4" points="464.1 208.36 459.1 199.76 454.1 208.36 464.1 208.36"/><text class="cls-6" transform="translate(452.91 189.82)">T</text><text class="cls-6" transform="translate(465.54 245.9)">OD</text><line class="cls-5" x1="428" y1="222.16" x2="451.3" y2="222.16"/><line class="cls-5" x1="444" y1="192.56" x2="444" y2="176.76"/><polygon class="cls-4" points="449 191.06 444 199.76 439 191.06 449 191.06"/><line class="cls-5" x1="444" y1="245.06" x2="444" y2="229.36"/><polygon class="cls-4" points="449 230.86 444 222.16 439 230.86 449 230.86"/><line class="cls-5" x1="410" y1="300.76" x2="466.8" y2="300.76"/><path class="cls-5" d="M458.2,307.86A29.14,29.14,0,0,1,437.1,329"/><polygon class="cls-4" points="452.9 308.56 459 300.76 462.7 309.96 452.9 308.56"/><polygon class="cls-4" points="437.7 323.66 429.9 329.86 439.2 333.56 437.7 323.66"/><line class="cls-5" x1="639.6" y1="298.06" x2="639.6" y2="334.96"/><line class="cls-5" x1="597.3" y1="307.36" x2="603.9" y2="307.36"/><polygon class="cls-4" points="598.7 312.26 590.1 307.36 598.7 302.36 598.7 312.26"/><line class="cls-5" x1="554.2" y1="307.36" x2="560.8" y2="307.36"/><polygon class="cls-4" points="559.4 312.26 568 307.36 559.4 302.36 559.4 312.26"/><line class="cls-5" x1="611.1" y1="307.36" x2="713.8" y2="307.36"/><polygon class="cls-4" points="612.6 312.26 603.9 307.36 612.6 302.36 612.6 312.26"/><polygon class="cls-4" points="712.3 312.26 721 307.36 712.3 302.36 712.3 312.26"/></svg>