<svg id="图层_1" data-name="图层 1" xmlns="http://www.w3.org/2000/svg" viewBox="0 0 850.4 566.9"><defs><style>.cls-1{fill:#fff;}.cls-1,.cls-2,.cls-3,.cls-4,.cls-5,.cls-6{isolation:isolate;}.cls-1,.cls-2{opacity:0.6;}.cls-2,.cls-3,.cls-6{fill:none;}.cls-2{stroke:#eee;}.cls-2,.cls-3{stroke-miterlimit:10;}.cls-3,.cls-6{stroke:#999;}.cls-3{stroke-width:0.9px;}.cls-4,.cls-5{fill:#999;}.cls-5{font-size:16.2px;font-family:Calibri-Bold, Calibri;font-weight:700;}.cls-6{stroke-linejoin:round;stroke-width:2.7px;}</style></defs><rect class="cls-1" width="850.4" height="566.9"/><line class="cls-2" x1="850.4" y1="46.7" y2="46.7"/><line class="cls-2" x1="850.4" y1="165.1" y2="165.1"/><line class="cls-2" x1="850.4" y1="283.5" y2="283.5"/><line class="cls-2" x1="850.4" y1="401.9" y2="401.9"/><line class="cls-2" x1="850.4" y1="105.9" y2="105.9"/><line class="cls-2" x1="850.4" y1="224.3" y2="224.3"/><line class="cls-2" x1="850.4" y1="342.7" y2="342.7"/><line class="cls-2" x1="850.4" y1="461" y2="461"/><line class="cls-2" x1="850.4" y1="520.2" y2="520.2"/><line class="cls-2" x1="850.4" y1="135.5" y2="135.5"/><line class="cls-2" x1="850.4" y1="253.9" y2="253.9"/><line class="cls-2" x1="850.4" y1="372.3" y2="372.3"/><line class="cls-2" x1="850.4" y1="76.3" y2="76.3"/><line class="cls-2" x1="850.4" y1="17.1" y2="17.1"/><line class="cls-2" x1="850.4" y1="194.7" y2="194.7"/><line class="cls-2" x1="850.4" y1="313.1" y2="313.1"/><line class="cls-2" x1="850.4" y1="431.4" y2="431.4"/><line class="cls-2" x1="850.4" y1="490.6" y2="490.6"/><line class="cls-2" x1="850.4" y1="549.8" y2="549.8"/><line class="cls-2" x1="10.8" x2="10.8" y2="566.9"/><line class="cls-2" x1="129.2" x2="129.2" y2="566.9"/><line class="cls-2" x1="247.6" x2="247.6" y2="566.9"/><line class="cls-2" x1="366" x2="366" y2="566.9"/><line class="cls-2" x1="484.4" x2="484.4" y2="566.9"/><line class="cls-2" x1="602.8" x2="602.8" y2="566.9"/><line class="cls-2" x1="839.5" x2="839.5" y2="566.9"/><line class="cls-2" x1="721.2" x2="721.2" y2="566.9"/><line class="cls-2" x1="70" x2="70" y2="566.9"/><line class="cls-2" x1="188.4" x2="188.4" y2="566.9"/><line class="cls-2" x1="306.8" x2="306.8" y2="566.9"/><line class="cls-2" x1="425.2" x2="425.2" y2="566.9"/><line class="cls-2" x1="543.6" x2="543.6" y2="566.9"/><line class="cls-2" x1="662" x2="662" y2="566.9"/><line class="cls-2" x1="780.4" x2="780.4" y2="566.9"/><line class="cls-2" x1="810" x2="810" y2="566.9"/><line class="cls-2" x1="99.6" x2="99.6" y2="566.9"/><line class="cls-2" x1="218" x2="218" y2="566.9"/><line class="cls-2" x1="336.4" x2="336.4" y2="566.9"/><line class="cls-2" x1="454.8" x2="454.8" y2="566.9"/><line class="cls-2" x1="573.2" x2="573.2" y2="566.9"/><line class="cls-2" x1="691.6" x2="691.6" y2="566.9"/><line class="cls-2" x1="40.4" x2="40.4" y2="566.9"/><line class="cls-2" x1="158.8" x2="158.8" y2="566.9"/><line class="cls-2" x1="277.2" x2="277.2" y2="566.9"/><line class="cls-2" x1="395.6" x2="395.6" y2="566.9"/><line class="cls-2" x1="514" x2="514" y2="566.9"/><line class="cls-2" x1="632.4" x2="632.4" y2="566.9"/><line class="cls-2" x1="750.8" x2="750.8" y2="566.9"/><line class="cls-3" x1="246.24" y1="291.82" x2="153.94" y2="291.82"/><line class="cls-3" x1="246.24" y1="283.76" x2="153.94" y2="283.76"/><polygon class="cls-4" points="170.04 276.06 165.64 283.76 161.14 276.06 170.04 276.06"/><polygon class="cls-4" points="170.04 300.26 165.64 292.56 161.14 300.26 170.04 300.26"/><text class="cls-5" transform="translate(139.27 292.56)">D</text><path class="cls-6" d="M246.24,283.76a4.06,4.06,0,1,0,4.06,4.06h0a4,4,0,0,0-4-4.05h-.11Z"/><path class="cls-6" d="M580.8,44.37a123.7,123.7,0,1,0,123.7,123.7A123.7,123.7,0,0,0,580.8,44.37Zm0,173.91A50.21,50.21,0,1,1,631,168.06h0a50.21,50.21,0,0,1-50.2,50.22Z"/><path class="cls-6" d="M299.7,283.76v8H580.8a123.81,123.81,0,0,1-43.87-8Z"/><line class="cls-3" x1="246.24" y1="372.15" x2="153.94" y2="372.15"/><line class="cls-3" x1="246.24" y1="357.72" x2="153.94" y2="357.72"/><polygon class="cls-4" points="170.04 350.02 165.64 357.72 161.14 350.02 170.04 350.02"/><polygon class="cls-4" points="170.04 380.59 165.64 372.89 161.14 380.59 170.04 380.59"/><text class="cls-5" transform="translate(139.27 370.64)">D</text><line class="cls-3" x1="299.81" y1="365.72" x2="299.81" y2="333.61"/><line class="cls-3" x1="304.29" y1="345.26" x2="699.63" y2="345.26"/><line class="cls-3" x1="704.5" y1="365.72" x2="704.5" y2="333.61"/><polygon class="cls-4" points="307.4 349.57 299.7 345.17 307.4 340.67 307.4 349.57"/><polygon class="cls-4" points="696.8 349.71 704.5 345.31 696.8 340.81 696.8 349.71"/><text class="cls-5" transform="translate(496.99 338.67)">L</text><path class="cls-6" d="M243.08,357.72a7.22,7.22,0,1,0,7.22,7.22h0a7.11,7.11,0,0,0-7-7.2Z"/><rect class="cls-6" x="299.7" y="357.72" width="404.8" height="14.43"/></svg>