<svg id="图层_1" data-name="图层 1" xmlns="http://www.w3.org/2000/svg" viewBox="0 0 850.4 566.9"><defs><style>.cls-1{fill:#fff;}.cls-1,.cls-2,.cls-3,.cls-4,.cls-5,.cls-6{opacity:0.6;}.cls-2,.cls-3{fill:none;stroke:#eee;}.cls-2{stroke-miterlimit:10;}.cls-3{stroke-linejoin:round;stroke-width:2px;}.cls-10,.cls-11,.cls-4,.cls-5,.cls-7,.cls-8,.cls-9{fill:#eee;}.cls-10,.cls-11,.cls-5,.cls-6,.cls-7,.cls-8,.cls-9{isolation:isolate;}.cls-10,.cls-11,.cls-5,.cls-7,.cls-8,.cls-9{font-size:10.53px;font-family:Calibri-Bold, Calibri;font-weight:700;}.cls-8{letter-spacing:-0.01em;}.cls-9{letter-spacing:-0.04em;}.cls-10{letter-spacing:-0.03em;}.cls-11{letter-spacing:-0.01em;}</style></defs><rect class="cls-1" width="850.4" height="566.9"/><line class="cls-2" x1="850.4" y1="46.7" y2="46.7"/><line class="cls-2" x1="850.4" y1="165.1" y2="165.1"/><line class="cls-2" x1="850.4" y1="283.5" y2="283.5"/><line class="cls-2" x1="850.4" y1="401.9" y2="401.9"/><line class="cls-2" x1="850.4" y1="105.9" y2="105.9"/><line class="cls-2" x1="850.4" y1="224.3" y2="224.3"/><line class="cls-2" x1="850.4" y1="342.7" y2="342.7"/><line class="cls-2" x1="850.4" y1="461" y2="461"/><line class="cls-2" x1="850.4" y1="520.2" y2="520.2"/><line class="cls-2" x1="850.4" y1="135.5" y2="135.5"/><line class="cls-2" x1="850.4" y1="253.9" y2="253.9"/><line class="cls-2" x1="850.4" y1="372.3" y2="372.3"/><line class="cls-2" x1="850.4" y1="76.3" y2="76.3"/><line class="cls-2" x1="850.4" y1="17.1" y2="17.1"/><line class="cls-2" x1="850.4" y1="194.7" y2="194.7"/><line class="cls-2" x1="850.4" y1="313.1" y2="313.1"/><line class="cls-2" x1="850.4" y1="431.4" y2="431.4"/><line class="cls-2" x1="850.4" y1="490.6" y2="490.6"/><line class="cls-2" x1="850.4" y1="549.8" y2="549.8"/><line class="cls-2" x1="10.8" x2="10.8" y2="566.9"/><line class="cls-2" x1="129.2" x2="129.2" y2="566.9"/><line class="cls-2" x1="247.6" x2="247.6" y2="566.9"/><line class="cls-2" x1="366" x2="366" y2="566.9"/><line class="cls-2" x1="484.4" x2="484.4" y2="566.9"/><line class="cls-2" x1="602.8" x2="602.8" y2="566.9"/><line class="cls-2" x1="839.5" x2="839.5" y2="566.9"/><line class="cls-2" x1="721.2" x2="721.2" y2="566.9"/><line class="cls-2" x1="70" x2="70" y2="566.9"/><line class="cls-2" x1="188.4" x2="188.4" y2="566.9"/><line class="cls-2" x1="306.8" x2="306.8" y2="566.9"/><line class="cls-2" x1="425.2" x2="425.2" y2="566.9"/><line class="cls-2" x1="543.6" x2="543.6" y2="566.9"/><line class="cls-2" x1="662" x2="662" y2="566.9"/><line class="cls-2" x1="780.4" x2="780.4" y2="566.9"/><line class="cls-2" x1="810" x2="810" y2="566.9"/><line class="cls-2" x1="99.6" x2="99.6" y2="566.9"/><line class="cls-2" x1="218" x2="218" y2="566.9"/><line class="cls-2" x1="336.4" x2="336.4" y2="566.9"/><line class="cls-2" x1="454.8" x2="454.8" y2="566.9"/><line class="cls-2" x1="573.2" x2="573.2" y2="566.9"/><line class="cls-2" x1="691.6" x2="691.6" y2="566.9"/><line class="cls-2" x1="40.4" x2="40.4" y2="566.9"/><line class="cls-2" x1="158.8" x2="158.8" y2="566.9"/><line class="cls-2" x1="277.2" x2="277.2" y2="566.9"/><line class="cls-2" x1="395.6" x2="395.6" y2="566.9"/><line class="cls-2" x1="514" x2="514" y2="566.9"/><line class="cls-2" x1="632.4" x2="632.4" y2="566.9"/><line class="cls-2" x1="750.8" x2="750.8" y2="566.9"/><path class="cls-3" d="M118.27,184.15l2.22-1.29a.33.33,0,0,0,.15-.44.31.31,0,0,0-.15-.15l-2.86-1.64a.32.32,0,0,1-.18-.29v-.88a.18.18,0,0,0-.06-.17l-6.55-8.55a.53.53,0,0,0-.24-.11h-4.68a3.58,3.58,0,0,0-3.51,3.1l-.29,2.34a4.55,4.55,0,0,1-4.51,4H68.35A4.43,4.43,0,0,0,64,184.44v19.89a.39.39,0,0,0,.35.36H103a.37.37,0,0,1,.35.35v5.15a.37.37,0,0,0,.35.35h13.81a.2.2,0,0,0,.18-.06l3-1.7a.32.32,0,0,0,.15-.43.31.31,0,0,0-.15-.15l-2.22-1.29a.33.33,0,0,1-.15-.44.31.31,0,0,1,.15-.15l2.22-1.28a.33.33,0,0,0,.15-.44.31.31,0,0,0-.15-.15l-2.22-1.29a.32.32,0,0,1-.15-.43.31.31,0,0,1,.15-.15l2.22-1.29a.32.32,0,0,0,.15-.43.31.31,0,0,0-.15-.15l-2.22-1.29a.33.33,0,0,1-.15-.44.31.31,0,0,1,.15-.15l2.22-1.28a.33.33,0,0,0,.15-.44.31.31,0,0,0-.15-.15l-2.22-1.29a.32.32,0,0,1-.15-.43.31.31,0,0,1,.15-.15l2.22-1.29a.32.32,0,0,0,.15-.43.31.31,0,0,0-.15-.15l-2.22-1.29a.33.33,0,0,1-.15-.44.31.31,0,0,1,.15-.15l2.22-1.28a.33.33,0,0,0,.15-.44.31.31,0,0,0-.15-.15l-2.22-1.29a.32.32,0,0,1-.15-.43.31.31,0,0,1,.15-.15l2.22-1.29a.32.32,0,0,0,.15-.43.31.31,0,0,0-.15-.15l-2.22-1.29C118,184.55,118,184.26,118.27,184.15Z"/><path class="cls-3" d="M190.6,184.15l-2.22-1.29a.33.33,0,0,1-.15-.44.31.31,0,0,1,.15-.15l2.86-1.64a.32.32,0,0,0,.18-.29v-.88a.18.18,0,0,1,.06-.17l6.55-8.55a.53.53,0,0,1,.24-.11H203a3.58,3.58,0,0,1,3.51,3.1l.29,2.34a4.56,4.56,0,0,0,4.51,4h25.92a4.42,4.42,0,0,1,4.39,4.39v19.89a.38.38,0,0,1-.35.36H205.93a.37.37,0,0,0-.35.35v5.15a.37.37,0,0,1-.35.35H191.42a.2.2,0,0,1-.18-.06l-3-1.7a.33.33,0,0,1-.13-.45.33.33,0,0,1,.13-.13l2.22-1.29a.33.33,0,0,0,.15-.44.31.31,0,0,0-.15-.15l-2.2-1.34a.34.34,0,0,1-.13-.46.33.33,0,0,1,.13-.13l2.22-1.29a.32.32,0,0,0,.15-.43.31.31,0,0,0-.15-.15l-2.22-1.29a.33.33,0,0,1-.13-.45.33.33,0,0,1,.13-.13l2.22-1.29a.33.33,0,0,0,.15-.44.31.31,0,0,0-.15-.15l-2.22-1.28a.34.34,0,0,1-.13-.46.33.33,0,0,1,.13-.13l2.22-1.29a.32.32,0,0,0,.15-.43.31.31,0,0,0-.15-.15l-2.22-1.29a.33.33,0,0,1-.13-.45.33.33,0,0,1,.13-.13l2.22-1.29a.33.33,0,0,0,.15-.44.31.31,0,0,0-.15-.15L188.26,190a.34.34,0,0,1-.13-.46.33.33,0,0,1,.13-.13l2.22-1.29a.32.32,0,0,0,.15-.43.31.31,0,0,0-.15-.15l-2.22-1.29a.33.33,0,0,1-.13-.45.33.33,0,0,1,.13-.13l2.22-1.29C190.84,184.55,190.84,184.26,190.6,184.15Z"/><path class="cls-4" d="M112.3,171.15h-1.75a.28.28,0,0,1-.3-.26v0a.28.28,0,0,1,.27-.29h1.78a.27.27,0,0,1,.29.25v0a.27.27,0,0,1-.25.29Z"/><path class="cls-4" d="M193.18,171.15h-3.4a.27.27,0,0,1-.29-.25v0a.29.29,0,0,1,.27-.29h3.42a.29.29,0,0,1,.29.27v0a.27.27,0,0,1-.25.29Zm-6.73,0h-3.4a.27.27,0,0,1-.29-.25v0a.29.29,0,0,1,.27-.29h3.42a.29.29,0,0,1,.29.27v0a.27.27,0,0,1-.25.29Zm-6.73,0h-3.4a.27.27,0,0,1-.29-.25v0a.29.29,0,0,1,.27-.29h3.42a.29.29,0,0,1,.29.27v0a.27.27,0,0,1-.25.29Zm-6.73,0h-3.4a.27.27,0,0,1-.29-.25v0a.29.29,0,0,1,.27-.29H173a.29.29,0,0,1,.29.27v0a.27.27,0,0,1-.25.29h0Zm-6.73,0h-3.4a.27.27,0,0,1-.29-.25v0a.29.29,0,0,1,.27-.29h3.42a.29.29,0,0,1,.29.27v0a.3.3,0,0,1-.29.29Zm-6.79,0h-3.4a.27.27,0,0,1-.29-.25v0a.29.29,0,0,1,.27-.29h3.42a.29.29,0,0,1,.29.27v0a.27.27,0,0,1-.25.29Zm-6.73,0h-3.4a.27.27,0,0,1-.29-.25v0a.29.29,0,0,1,.27-.29h3.42a.29.29,0,0,1,.29.27v0a.27.27,0,0,1-.25.29Zm-6.73,0h-3.4a.27.27,0,0,1-.29-.25v0a.29.29,0,0,1,.27-.29H146a.29.29,0,0,1,.29.27v0a.27.27,0,0,1-.25.29h0Zm-6.73,0h-3.4a.27.27,0,0,1-.29-.25v0a.29.29,0,0,1,.27-.29h3.42a.29.29,0,0,1,.29.27v0a.3.3,0,0,1-.29.29Zm-6.79,0H129.1a.28.28,0,0,1-.3-.26v0a.28.28,0,0,1,.27-.29h3.42a.27.27,0,0,1,.29.25v0a.27.27,0,0,1-.25.29Zm-6.73,0h-3.39a.28.28,0,0,1-.3-.26v0a.28.28,0,0,1,.27-.29h3.42a.27.27,0,0,1,.29.25v0a.27.27,0,0,1-.25.29Zm-6.73,0h-3.39a.28.28,0,0,1-.3-.26v0a.28.28,0,0,1,.27-.29H119a.27.27,0,0,1,.29.25v0a.27.27,0,0,1-.25.29h0Z"/><path class="cls-4" d="M198.33,171.15h-1.76a.27.27,0,0,1-.29-.25v0a.27.27,0,0,1,.25-.29h1.8a.29.29,0,0,1,.29.27v0a.27.27,0,0,1-.25.29Z"/><path class="cls-4" d="M119,210.54h-1.64a.3.3,0,0,1-.24-.35.3.3,0,0,1,.24-.24H119a.28.28,0,0,1,.29.27v0A.3.3,0,0,1,119,210.54Z"/><path class="cls-4" d="M186.8,210.54h-3.1a.3.3,0,1,1-.11-.59h3.21a.3.3,0,0,1,.24.35A.3.3,0,0,1,186.8,210.54Zm-6.15,0h-3.1a.3.3,0,0,1-.24-.35.3.3,0,0,1,.24-.24h3.1a.3.3,0,0,1,.11.59A.21.21,0,0,1,180.65,210.54Zm-6.14,0h-3.1a.3.3,0,1,1-.11-.59h3.21a.28.28,0,0,1,.29.27v0a.3.3,0,0,1-.29.29Zm-6.2,0H165.2a.3.3,0,0,1-.24-.35.3.3,0,0,1,.24-.24h3.11a.3.3,0,0,1,.24.35.3.3,0,0,1-.24.24Zm-6.15,0h-3.1a.27.27,0,0,1-.29-.25v0a.28.28,0,0,1,.26-.3h3.13a.28.28,0,0,1,.29.27v0a.3.3,0,0,1-.29.29Zm-6.2,0h-3.1a.3.3,0,0,1-.11-.59H156a.3.3,0,0,1,.24.35.3.3,0,0,1-.24.24Zm-6.15,0h-3.1a.3.3,0,0,1-.24-.35.3.3,0,0,1,.24-.24h3.1a.28.28,0,0,1,.3.26v0a.31.31,0,0,1-.3.29Zm-6.2,0h-3.1a.27.27,0,0,1-.29-.25v0a.28.28,0,0,1,.26-.3h3.13a.3.3,0,0,1,.24.35A.3.3,0,0,1,143.61,210.54Zm-6.15,0h-3.1a.3.3,0,0,1-.24-.35.3.3,0,0,1,.24-.24h3.1a.3.3,0,0,1,.11.59A.21.21,0,0,1,137.46,210.54Zm-6.14,0h-3.1a.27.27,0,0,1-.29-.25v0a.28.28,0,0,1,.26-.3h3.13a.28.28,0,0,1,.29.27v0a.3.3,0,0,1-.29.29Zm-6.2,0H122a.3.3,0,0,1-.11-.59h3.21a.3.3,0,0,1,.24.35.3.3,0,0,1-.24.24Z"/><path class="cls-4" d="M191.54,210.54H189.9a.27.27,0,0,1-.29-.25v0a.28.28,0,0,1,.26-.3h1.67a.28.28,0,0,1,.29.27v0A.32.32,0,0,1,191.54,210.54Z"/><path class="cls-4" d="M119.21,180.58h-1.58a.3.3,0,1,1-.11-.59.21.21,0,0,1,.11,0h1.58a.29.29,0,0,1,.29.27v0A.31.31,0,0,1,119.21,180.58Z"/><path class="cls-4" d="M186.33,180.58h-3.39a.3.3,0,1,1-.11-.59.21.21,0,0,1,.11,0h3.33a.27.27,0,0,1,.29.25v0C186.56,180.46,186.45,180.58,186.33,180.58Zm-6.73,0h-3.34a.3.3,0,0,1-.24-.35.3.3,0,0,1,.24-.24h3.34a.27.27,0,0,1,.29.25v0A.31.31,0,0,1,179.6,180.58Zm-6.73,0h-3.34a.3.3,0,0,1-.24-.35.3.3,0,0,1,.24-.24h3.34a.27.27,0,0,1,.29.25v0a.28.28,0,0,1-.26.3Zm-6.67,0h-3.34a.3.3,0,0,1-.24-.35.3.3,0,0,1,.24-.24h3.34a.29.29,0,0,1,.29.27v0a.31.31,0,0,1-.29.3Zm-6.73,0h-3.34a.3.3,0,0,1-.24-.35.3.3,0,0,1,.24-.24h3.34a.29.29,0,0,1,.29.27v0a.31.31,0,0,1-.29.3Zm-6.73,0H149.4a.3.3,0,0,1-.24-.35.3.3,0,0,1,.24-.24h3.34a.3.3,0,0,1,.24.35.3.3,0,0,1-.24.24Zm-6.67,0h-3.34a.3.3,0,0,1-.24-.35.3.3,0,0,1,.24-.24h3.34a.29.29,0,0,1,.29.27v0a.31.31,0,0,1-.29.3Zm-6.73,0H136a.3.3,0,0,1-.24-.35A.3.3,0,0,1,136,180h3.34a.29.29,0,0,1,.29.27v0a.31.31,0,0,1-.29.3Zm-6.73,0h-3.34a.3.3,0,0,1-.24-.35.3.3,0,0,1,.24-.24h3.34a.3.3,0,0,1,.24.35A.3.3,0,0,1,132.61,180.58Zm-6.67,0H122.6a.3.3,0,0,1-.24-.35.3.3,0,0,1,.24-.24h3.34a.29.29,0,0,1,.29.27v0a.31.31,0,0,1-.29.3Z"/><path class="cls-4" d="M191.24,180.58h-1.58a.3.3,0,0,1-.24-.35.3.3,0,0,1,.24-.24h1.58a.3.3,0,0,1,.11.59Z"/><rect class="cls-4" x="206.28" y="141.95" width="0.59" height="25.57"/><rect class="cls-4" x="102" y="141.95" width="0.59" height="25.57"/><rect class="cls-4" x="63.61" y="208.2" width="0.59" height="21.36"/><rect class="cls-4" x="241.34" y="208.2" width="0.59" height="21.36"/><rect class="cls-4" x="209.62" y="170.57" width="61.33" height="0.59"/><rect class="cls-4" x="245.03" y="204.22" width="25.92" height="0.59"/><rect class="cls-4" x="244.62" y="179.58" width="10.01" height="0.59"/><rect class="cls-4" x="106.51" y="147.92" width="95.91" height="0.59"/><polygon class="cls-4" points="201.54 145.29 206.58 148.21 201.54 151.08 201.54 145.29"/><polygon class="cls-4" points="107.33 145.29 102.29 148.21 107.33 151.08 107.33 145.29"/><text class="cls-5" transform="translate(151.54 145.18)">X</text><text class="cls-5" transform="translate(158.43 193.02)">T</text><rect class="cls-4" x="68.12" y="222.65" width="169.3" height="0.59"/><polygon class="cls-4" points="69 225.87 63.91 222.94 69 220.02 69 225.87"/><polygon class="cls-4" points="236.54 225.87 241.63 222.94 236.54 220.02 236.54 225.87"/><text class="cls-5" transform="translate(149.21 232.83)">O</text><g class="cls-6"><text class="cls-7" transform="translate(131.91 252.61)">Th</text><text class="cls-8" transform="translate(142.78 252.61)">r</text><text class="cls-7" transform="translate(146.4 252.61)">eaded</text></g><rect class="cls-4" x="154.14" y="175.31" width="0.59" height="30.43"/><polygon class="cls-4" points="157.36 204.92 154.44 210.01 151.51 204.92 157.36 204.92"/><polygon class="cls-4" points="157.36 176.19 154.44 171.15 151.51 176.19 157.36 176.19"/><text class="cls-5" transform="translate(270.11 190.29)">Y</text><rect class="cls-4" x="265.98" y="175.31" width="0.59" height="24.99"/><polygon class="cls-4" points="269.14 199.48 266.27 204.51 263.34 199.48 269.14 199.48"/><polygon class="cls-4" points="269.14 176.19 266.27 171.15 263.34 176.19 269.14 176.19"/><text class="cls-5" transform="translate(252.72 194.67)">tf</text><rect class="cls-4" x="249.18" y="184.09" width="0.59" height="16.21"/><polygon class="cls-4" points="252.34 199.48 249.47 204.51 246.55 199.48 252.34 199.48"/><polygon class="cls-4" points="252.34 184.96 249.47 179.87 246.55 184.96 252.34 184.96"/><rect class="cls-4" x="328.94" y="209.48" width="0.59" height="20.07"/><path class="cls-3" d="M363.88,178.06h0A7,7,0,0,1,357,184.2H333a3.79,3.79,0,0,0-3.8,3.78V205.8a.37.37,0,0,0,.35.35h35.93a.37.37,0,0,1,.35.35V211a.37.37,0,0,0,.35.35h10.71v-37.5h-8.25A4.81,4.81,0,0,0,363.88,178.06Z"/><path class="cls-3" d="M462.6,178.06h0a7,7,0,0,0,6.91,6.14h23.93a3.8,3.8,0,0,1,3.81,3.79V205.8a.37.37,0,0,1-.35.35h-36a.37.37,0,0,0-.35.35V211a.39.39,0,0,1-.36.35H449.5v-37.5h8.25A4.86,4.86,0,0,1,462.6,178.06Z"/><path class="cls-4" d="M378.51,174.37h-1.58a.29.29,0,1,1,0-.58h1.58a.29.29,0,1,1,0,.58Z"/><path class="cls-4" d="M444.64,174.37h-3.28a.29.29,0,1,1,0-.58h3.28a.27.27,0,0,1,.29.25v0A.3.3,0,0,1,444.64,174.37Zm-6.61,0h-3.28a.29.29,0,1,1,0-.58H438a.29.29,0,0,1,0,.58Zm-6.62,0h-3.27a.29.29,0,0,1,0-.58h3.27a.29.29,0,1,1,0,.58Zm-6.61,0h-3.28a.29.29,0,0,1,0-.58h3.28a.29.29,0,1,1,0,.58Zm-6.61,0h-3.28a.29.29,0,1,1,0-.58h3.28a.29.29,0,1,1,0,.58Zm-6.62,0H408.3a.29.29,0,1,1,0-.58h3.27a.29.29,0,1,1,0,.58Zm-6.61,0h-3.28a.29.29,0,1,1,0-.58H405a.29.29,0,1,1,0,.58Zm-6.61,0h-3.28a.29.29,0,1,1,0-.58h3.28a.29.29,0,1,1,0,.58Zm-6.61,0h-3.28a.29.29,0,0,1,0-.58h3.28a.29.29,0,1,1,0,.58Zm-6.62,0h-3.27a.29.29,0,1,1,0-.58h3.27a.29.29,0,1,1,0,.58Z"/><path class="cls-4" d="M449.55,174.37H448a.29.29,0,1,1,0-.58h1.58a.28.28,0,0,1,.3.26v0a.31.31,0,0,1-.33.29Z"/><path class="cls-4" d="M378.51,211.36h-1.58a.28.28,0,0,1-.29-.27v0a.27.27,0,0,1,.25-.29h1.62a.27.27,0,0,1,.29.25v0a.28.28,0,0,1-.26.3Z"/><path class="cls-4" d="M444.64,211.36h-3.28a.3.3,0,0,1-.24-.35.3.3,0,0,1,.24-.24h3.28a.29.29,0,0,1,.29.27v0A.31.31,0,0,1,444.64,211.36Zm-6.61,0h-3.28a.28.28,0,0,1-.29-.27v0a.27.27,0,0,1,.25-.29H438a.3.3,0,0,1,.24.35.3.3,0,0,1-.24.24Zm-6.62,0h-3.27a.3.3,0,1,1-.11-.59.21.21,0,0,1,.11,0h3.27a.3.3,0,1,1,.11.59Zm-6.61,0h-3.28a.3.3,0,0,1-.24-.35.3.3,0,0,1,.24-.24h3.28a.27.27,0,0,1,.29.25v0a.28.28,0,0,1-.26.3Zm-6.61,0h-3.28a.28.28,0,0,1-.29-.27v0a.27.27,0,0,1,.25-.29h3.32a.3.3,0,0,1,.24.35A.3.3,0,0,1,418.19,211.36Zm-6.62,0H408.3a.3.3,0,1,1-.11-.59.21.21,0,0,1,.11,0h3.27a.3.3,0,0,1,.11.59Zm-6.61,0h-3.28a.3.3,0,0,1-.24-.35.3.3,0,0,1,.24-.24H405a.27.27,0,0,1,.29.25v0a.28.28,0,0,1-.26.3H405Zm-6.61,0h-3.28a.3.3,0,0,1-.24-.35.3.3,0,0,1,.24-.24h3.28a.3.3,0,0,1,.24.35A.3.3,0,0,1,398.35,211.36Zm-6.61,0h-3.28a.28.28,0,0,1-.29-.27v0a.27.27,0,0,1,.25-.29h3.32a.3.3,0,0,1,.24.35A.3.3,0,0,1,391.74,211.36Zm-6.62,0h-3.27a.3.3,0,1,1-.11-.59.21.21,0,0,1,.11,0h3.27a.3.3,0,0,1,.11.59Z"/><path class="cls-4" d="M449.55,211.36H448a.3.3,0,0,1-.24-.35.3.3,0,0,1,.24-.24h1.58a.28.28,0,0,1,.3.26v0A.32.32,0,0,1,449.55,211.36Z"/><rect class="cls-4" x="462.78" y="141.95" width="0.59" height="29.08"/><rect class="cls-4" x="449.67" y="156.52" width="0.59" height="14.57"/><rect class="cls-4" x="376.34" y="156.52" width="0.59" height="14.57"/><rect class="cls-4" x="363" y="141.95" width="0.59" height="29.08"/><rect class="cls-4" x="496.96" y="209.48" width="0.59" height="20.07"/><rect class="cls-4" x="465.3" y="173.55" width="60.57" height="0.59"/><rect class="cls-4" x="500.76" y="205.86" width="25.11" height="0.59"/><rect class="cls-4" x="500.76" y="183.85" width="8.84" height="0.59"/><rect class="cls-4" x="367.51" y="147.92" width="91.35" height="0.59"/><polygon class="cls-4" points="457.98 145.29 463.07 148.21 457.98 151.08 457.98 145.29"/><polygon class="cls-4" points="368.39 145.29 363.3 148.21 368.39 151.08 368.39 145.29"/><text class="cls-5" transform="translate(412.56 145.18)">X</text><rect class="cls-4" x="380.85" y="162.73" width="64.9" height="0.59"/><polygon class="cls-4" points="444.93 160.09 449.96 163.02 444.93 165.94 444.93 160.09"/><polygon class="cls-4" points="381.73 160.09 376.64 163.02 381.73 165.94 381.73 160.09"/><text class="cls-5" transform="translate(412.5 160.01)">B</text><rect class="cls-4" x="333.45" y="222.65" width="159.58" height="0.59"/><polygon class="cls-4" points="334.27 225.87 329.24 222.94 334.27 220.02 334.27 225.87"/><polygon class="cls-4" points="492.21 225.87 497.25 222.94 492.21 220.02 492.21 225.87"/><text class="cls-5" transform="translate(409.68 232.83)">O</text><g class="cls-6"><text class="cls-7" transform="translate(377.98 252.61)">Slip-On </text><text class="cls-9" transform="translate(412.17 252.61)">W</text><text class="cls-7" transform="translate(421.34 252.61)">elding</text></g><text class="cls-5" transform="translate(525.62 192.45)">Y</text><rect class="cls-4" x="521.48" y="178.06" width="0.59" height="23.88"/><polygon class="cls-4" points="524.69 201.06 521.77 206.15 518.84 201.06 524.69 201.06"/><polygon class="cls-4" points="524.69 178.88 521.77 173.85 518.84 178.88 524.69 178.88"/><text class="cls-5" transform="translate(508.22 197.61)">tf</text><rect class="cls-4" x="504.68" y="188.36" width="0.59" height="13.58"/><polygon class="cls-4" points="507.84 201.06 504.97 206.15 502.05 201.06 507.84 201.06"/><polygon class="cls-4" points="507.84 189.24 504.97 184.15 502.05 189.24 507.84 189.24"/><path class="cls-3" d="M626.58,323.54v8.66l-9,21.83a8.08,8.08,0,0,1-7.54,5h-21.5a3.73,3.73,0,0,0-3.75,3.73v19.39a.39.39,0,0,0,.36.35h29.31a.38.38,0,0,1,.36.35v4a.37.37,0,0,0,.35.35h19.48a.37.37,0,0,0,.35-.35v-69a.34.34,0,0,0-.34-.34.37.37,0,0,0-.18.05l-7.73,5.68C626.58,323.31,626.58,323.42,626.58,323.54Z"/><path class="cls-3" d="M710.67,323.54v8.66l9,21.83a8.08,8.08,0,0,0,7.54,5h21.54a3.73,3.73,0,0,1,3.75,3.73v19.39a.39.39,0,0,1-.36.35H722.79a.38.38,0,0,0-.36.35v4a.37.37,0,0,1-.35.35H702.6a.39.39,0,0,1-.36-.35v-69a.35.35,0,0,1,.36-.34.34.34,0,0,1,.17.05l7.73,5.68A.32.32,0,0,1,710.67,323.54Z"/><path class="cls-4" d="M636.12,318H634.6a.24.24,0,0,1-.1-.47h1.62a.27.27,0,0,1,.23.24.21.21,0,0,1-.19.23Z"/><path class="cls-4" d="M698,318h-3.1a.24.24,0,0,1,0-.47H698a.26.26,0,0,1,.24.24.22.22,0,0,1-.21.23Zm-6.2,0h-3.1a.24.24,0,0,1-.1-.47h3.2a.24.24,0,0,1,.23.24.21.21,0,0,1-.18.23h-.05Zm-6.15,0h-3.1a.24.24,0,0,1,0-.47h3.1a.24.24,0,0,1,.1.47Zm-6.2,0h-3.1a.24.24,0,0,1,0-.47h3.1a.26.26,0,0,1,.24.24.22.22,0,0,1-.2.24h0Zm-6.2,0h-3.1a.24.24,0,0,1-.1-.47h3.2a.24.24,0,0,1,.23.24.21.21,0,0,1-.18.23h0Zm-6.15,0H664a.24.24,0,0,1,0-.47h3.1a.24.24,0,0,1,.1.47Zm-6.2,0h-3.1a.24.24,0,0,1,0-.47h3.1a.24.24,0,0,1,0,.47Zm-6.2,0h-3.1a.24.24,0,0,1-.1-.47h3.2a.27.27,0,0,1,.23.24.21.21,0,0,1-.18.23h0Zm-6.15,0h-3.1a.24.24,0,0,1,0-.47h3.1a.24.24,0,0,1,.1.47Zm-6.2,0h-3.1a.24.24,0,0,1-.1-.47h3.2a.24.24,0,0,1,0,.47Z"/><path class="cls-4" d="M702.6,318h-1.53a.24.24,0,0,1,0-.47h1.53a.27.27,0,0,1,.23.24.21.21,0,0,1-.19.23Z"/><path class="cls-4" d="M636.12,387.21H634.6a.24.24,0,0,1-.1-.47h1.62a.27.27,0,0,1,.23.24.21.21,0,0,1-.19.23Z"/><path class="cls-4" d="M698,387.21h-3.1a.24.24,0,0,1,0-.47H698a.26.26,0,0,1,.24.24.22.22,0,0,1-.21.23Zm-6.14,0h-3.1a.24.24,0,0,1-.1-.47h3.2a.24.24,0,0,1,0,.47Zm-6.21,0h-3.1a.24.24,0,0,1,0-.47h3.1a.24.24,0,0,1,.1.47A.17.17,0,0,1,685.65,387.21Zm-6.2,0h-3.1a.24.24,0,0,1,0-.47h3.1a.26.26,0,0,1,.24.24.22.22,0,0,1-.2.24h0Zm-6.2,0h-3.1a.24.24,0,0,1-.1-.47h3.2a.24.24,0,0,1,.23.24.21.21,0,0,1-.18.23.11.11,0,0,1-.08,0Zm-6.15,0H664a.24.24,0,0,1,0-.47h3.1a.24.24,0,0,1,.1.47.17.17,0,0,1-.1,0Zm-6.2,0h-3.1a.24.24,0,0,1,0-.47h3.1a.24.24,0,0,1,0,.47Zm-6.2,0h-3.1a.24.24,0,0,1-.1-.47h3.2a.27.27,0,0,1,.23.24.21.21,0,0,1-.18.23.11.11,0,0,1-.08,0Zm-6.15,0h-3.1a.24.24,0,0,1,0-.47h3.1a.24.24,0,0,1,.1.47A.17.17,0,0,1,648.55,387.21Zm-6.2,0h-3.1a.24.24,0,0,1-.1-.47h3.2a.24.24,0,0,1,0,.47Z"/><path class="cls-4" d="M702.6,387.21h-1.53a.24.24,0,0,1,0-.47h1.53a.27.27,0,0,1,.23.24.21.21,0,0,1-.19.23Z"/><rect class="cls-4" x="721.44" y="288.6" width="0.59" height="61.1"/><rect class="cls-4" x="710.5" y="305.46" width="0.59" height="12.64"/><rect class="cls-4" x="626.46" y="305.46" width="0.59" height="12.64"/><rect class="cls-4" x="614.23" y="288.6" width="0.59" height="61.1"/><rect class="cls-4" x="584.44" y="383.76" width="0.59" height="19.55"/><rect class="cls-4" x="752.16" y="383.76" width="0.59" height="19.55"/><rect class="cls-4" x="708.04" y="317.28" width="74.55" height="0.59"/><rect class="cls-4" x="756.43" y="382" width="26.1" height="0.59"/><rect class="cls-4" x="756.43" y="359.18" width="8.66" height="0.59"/><rect class="cls-4" x="618.74" y="294.69" width="98.78" height="0.59"/><polygon class="cls-4" points="716.64 292.06 721.73 294.98 716.64 297.91 716.64 292.06"/><polygon class="cls-4" points="619.55 292.06 614.52 294.98 619.55 297.91 619.55 292.06"/><text class="cls-5" transform="translate(665.22 291.99)">X</text><rect class="cls-4" x="630.97" y="311.25" width="75.67" height="0.59"/><polygon class="cls-4" points="705.76 308.62 710.79 311.54 705.76 314.41 705.76 308.62"/><polygon class="cls-4" points="631.79 308.62 626.75 311.54 631.79 314.41 631.79 308.62"/><text class="cls-5" transform="translate(662.75 308.51)">Ah</text><rect class="cls-4" x="639.1" y="350.69" width="58.99" height="0.59"/><polygon class="cls-4" points="697.21 348.06 702.3 350.99 697.21 353.91 697.21 348.06"/><polygon class="cls-4" points="639.98 348.06 634.95 350.99 639.98 353.91 639.98 348.06"/><text class="cls-5" transform="translate(665.65 347.99)">B</text><rect class="cls-4" x="588.95" y="396.69" width="159.35" height="0.59"/><polygon class="cls-4" points="589.77 399.91 584.74 396.98 589.77 394.06 589.77 399.91"/><polygon class="cls-4" points="747.42 399.91 752.46 396.98 747.42 394.06 747.42 399.91"/><text class="cls-5" transform="translate(665.04 406.86)">O</text><g class="cls-6"><text class="cls-9" transform="translate(638.73 426.63)">W</text><text class="cls-7" transform="translate(647.9 426.63)">elding Neck</text></g><text class="cls-5" transform="translate(781.32 352.39)">Y</text><rect class="cls-4" x="777.15" y="321.73" width="0.59" height="56.36"/><polygon class="cls-4" points="780.37 377.26 777.44 382.3 774.52 377.26 780.37 377.26"/><polygon class="cls-4" points="780.37 322.6 777.44 317.57 774.52 322.6 780.37 322.6"/><text class="cls-5" transform="translate(763.92 373.34)">tf</text><rect class="cls-4" x="760.36" y="363.63" width="0.59" height="14.45"/><polygon class="cls-4" points="763.57 377.26 760.65 382.3 757.72 377.26 763.57 377.26"/><polygon class="cls-4" points="763.57 364.5 760.65 359.47 757.72 364.5 763.57 364.5"/><text class="cls-5" transform="translate(409.34 406.86)">O</text><text class="cls-5" transform="translate(396.95 426.63)">Lapped</text><path class="cls-3" d="M365.87,382.88h3.45a6.93,6.93,0,0,0,6.91-6.91V337.29a.37.37,0,0,0-.35-.35h-5.39a5.67,5.67,0,0,0-5.62,5.09l-1,9.48a8.11,8.11,0,0,1-8,7.26H333.8a4.56,4.56,0,0,0-4.56,4.56v19.2a.37.37,0,0,0,.35.35Z"/><path class="cls-3" d="M459.91,382.88h-3.45a6.93,6.93,0,0,1-6.91-6.91V337.29a.37.37,0,0,1,.35-.35h5.39a5.67,5.67,0,0,1,5.62,5.09l1,9.48a8.11,8.11,0,0,0,8,7.26H492a4.57,4.57,0,0,1,4.57,4.56v19.2a.39.39,0,0,1-.36.35Z"/><path class="cls-4" d="M377.52,337.47h-1.58a.3.3,0,1,1-.11-.59h1.69a.3.3,0,0,1,.24.35A.3.3,0,0,1,377.52,337.47Z"/><path class="cls-4" d="M445.22,337.47h-3.1a.3.3,0,0,1-.24-.35.3.3,0,0,1,.24-.24h3.1a.28.28,0,0,1,.3.26v0A.31.31,0,0,1,445.22,337.47Zm-6.2,0h-3.1a.27.27,0,0,1-.29-.25v0a.28.28,0,0,1,.26-.3H439a.28.28,0,0,1,.29.27v0a.27.27,0,0,1-.25.29h0Zm-6.14,0h-3.11a.3.3,0,0,1-.24-.35.3.3,0,0,1,.24-.24h3.11a.3.3,0,0,1,.24.35A.3.3,0,0,1,432.88,337.47Zm-6.15,0h-3.1a.27.27,0,0,1-.29-.25v0a.28.28,0,0,1,.26-.3h3.13a.28.28,0,0,1,.29.27v0a.27.27,0,0,1-.25.29Zm-6.14,0h-3.11a.3.3,0,0,1-.24-.35.3.3,0,0,1,.24-.24h3.11a.3.3,0,0,1,.24.35A.3.3,0,0,1,420.59,337.47Zm-6.15,0h-3.1a.27.27,0,0,1-.29-.25v0a.28.28,0,0,1,.26-.3h3.13a.28.28,0,0,1,.29.27v0a.27.27,0,0,1-.25.29Zm-6.14,0h-3.1a.3.3,0,1,1-.11-.59h3.21a.28.28,0,0,1,.29.27v0a.32.32,0,0,1-.29.29Zm-6.15,0h-3.1a.3.3,0,0,1-.24-.35.3.3,0,0,1,.24-.24h3.1a.28.28,0,0,1,.29.27v0a.3.3,0,0,1-.29.29Zm-6.14,0h-3.1a.3.3,0,1,1-.11-.59H396a.28.28,0,0,1,.29.27v0a.32.32,0,0,1-.29.29Zm-6.15,0h-3.1a.3.3,0,0,1-.24-.35.3.3,0,0,1,.24-.24h3.1a.28.28,0,0,1,.3.26v0a.31.31,0,0,1-.3.29Zm-6.14,0h-3.1a.3.3,0,1,1-.11-.59h3.21a.28.28,0,0,1,.29.27v0a.3.3,0,0,1-.29.29Z"/><path class="cls-4" d="M449.9,337.47h-1.58a.3.3,0,0,1-.24-.35.3.3,0,0,1,.24-.24h1.58a.28.28,0,0,1,.3.26v0A.31.31,0,0,1,449.9,337.47Z"/><path class="cls-4" d="M371.08,382.88h-1.76a.3.3,0,0,1-.24-.35.3.3,0,0,1,.24-.24h1.76a.3.3,0,0,1,.24.35A.3.3,0,0,1,371.08,382.88Z"/><path class="cls-4" d="M451.08,382.88h-3.63a.3.3,0,0,1-.11-.59.21.21,0,0,1,.11,0h3.63a.3.3,0,0,1,.24.35A.3.3,0,0,1,451.08,382.88Zm-7.26,0h-3.63a.27.27,0,0,1-.29-.25v0a.28.28,0,0,1,.26-.3h3.66a.3.3,0,0,1,.24.35A.3.3,0,0,1,443.82,382.88Zm-7.26,0h-3.63a.3.3,0,0,1-.24-.35.3.3,0,0,1,.24-.24h3.63a.28.28,0,0,1,.29.27v0a.3.3,0,0,1-.29.29Zm-7.31,0h-3.63a.27.27,0,0,1-.29-.25v0a.28.28,0,0,1,.26-.3h3.66a.3.3,0,0,1,.24.35A.3.3,0,0,1,429.25,382.88Zm-7.26,0h-3.63a.3.3,0,0,1-.24-.35.3.3,0,0,1,.24-.24H422a.28.28,0,0,1,.29.27v0a.27.27,0,0,1-.25.29H422Zm-7.26,0h-3.62a.3.3,0,1,1-.11-.59.21.21,0,0,1,.11,0h3.62a.3.3,0,0,1,.11.59Zm-7.25,0h-3.63a.27.27,0,0,1-.29-.25v0a.28.28,0,0,1,.26-.3h3.66a.28.28,0,0,1,.29.27v0a.32.32,0,0,1-.29.29Zm-7.32,0h-3.63a.3.3,0,0,1-.24-.35.3.3,0,0,1,.24-.24h3.63a.3.3,0,0,1,.11.59Zm-7.25,0h-3.63a.27.27,0,0,1-.29-.25v0a.28.28,0,0,1,.26-.3h3.66a.3.3,0,0,1,.24.35A.3.3,0,0,1,392.91,382.88Zm-7.26,0H382a.3.3,0,0,1-.24-.35.3.3,0,0,1,.24-.24h3.63a.28.28,0,0,1,.29.27v0a.27.27,0,0,1-.25.29Zm-7.26,0h-3.63a.3.3,0,0,1-.24-.35.3.3,0,0,1,.24-.24h3.63a.28.28,0,0,1,.3.26v0a.31.31,0,0,1-.3.29Z"/><path class="cls-4" d="M456.46,382.88H454.7a.3.3,0,0,1-.24-.35.3.3,0,0,1,.24-.24h1.76a.3.3,0,0,1,.24.35.3.3,0,0,1-.24.24Z"/><text class="cls-5" transform="translate(415.42 362.35)">Y</text><text class="cls-5" transform="translate(388.72 368.52)">r</text><rect class="cls-4" x="411.28" y="341.68" width="0.59" height="36.4"/><polygon class="cls-4" points="414.44 377.26 411.57 382.3 408.65 377.26 414.44 377.26"/><polygon class="cls-4" points="414.44 342.56 411.57 337.47 408.65 342.56 414.44 342.56"/><rect class="cls-4" x="463.6" y="303.59" width="0.59" height="43.89"/><rect class="cls-4" x="449.26" y="322.55" width="0.59" height="11"/><rect class="cls-4" x="375.94" y="322.55" width="0.59" height="11"/><rect class="cls-4" x="360.78" y="303.59" width="0.59" height="43.89"/><rect class="cls-4" x="328.94" y="384.75" width="0.59" height="18.14"/><rect class="cls-4" x="496.31" y="385.22" width="0.59" height="18.14"/><rect class="cls-4" x="500.76" y="358.07" width="8.43" height="0.59"/><rect class="cls-4" x="500.76" y="382.59" width="8.43" height="0.59"/><rect class="cls-4" x="365.28" y="309.96" width="94.39" height="0.59"/><polygon class="cls-4" points="458.8 307.33 463.89 310.26 458.8 313.18 458.8 307.33"/><polygon class="cls-4" points="366.16 307.33 361.07 310.26 366.16 313.18 366.16 307.33"/><text class="cls-5" transform="translate(409.59 307.26)">X</text><rect class="cls-4" x="380.44" y="328.75" width="64.9" height="0.59"/><polygon class="cls-4" points="444.52 326.12 449.55 329.04 444.52 331.97 444.52 326.12"/><polygon class="cls-4" points="381.32 326.12 376.23 329.04 381.32 331.97 381.32 326.12"/><text class="cls-5" transform="translate(409.94 326.03)">B</text><rect class="cls-4" x="333.45" y="396.75" width="158.94" height="0.59"/><polygon class="cls-4" points="334.27 399.97 329.24 397.04 334.27 394.12 334.27 399.97"/><polygon class="cls-4" points="491.51 399.97 496.6 397.04 491.51 394.12 491.51 399.97"/><text class="cls-5" transform="translate(508.22 373.06)">tf</text><rect class="cls-4" x="504.68" y="362.52" width="0.59" height="16.15"/><polygon class="cls-4" points="507.84 377.79 504.97 382.88 502.05 377.79 507.84 377.79"/><polygon class="cls-4" points="507.84 363.39 504.97 358.36 502.05 363.39 507.84 363.39"/><rect class="cls-4" x="376.23" y="365.5" width="10.24" height="0.59"/><path class="cls-3" d="M749.7,190.87H588.19a3.48,3.48,0,0,0-3.45,3.46v19.43a.37.37,0,0,0,.35.35h35a.37.37,0,0,1,.35.35v4.21a.37.37,0,0,0,.35.35h96.39a.37.37,0,0,0,.35-.35v-4.21a.37.37,0,0,1,.35-.35h35a.39.39,0,0,0,.36-.35V194.33A3.64,3.64,0,0,0,749.7,190.87Z"/><rect class="cls-4" x="756.61" y="213.7" width="8.9" height="0.59"/><rect class="cls-4" x="756.49" y="190.58" width="9.01" height="0.59"/><text class="cls-5" transform="translate(764.13 204.92)">tf</text><rect class="cls-4" x="760.59" y="195.09" width="0.59" height="14.75"/><polygon class="cls-4" points="763.75 208.96 760.88 213.99 757.96 208.96 763.75 208.96"/><polygon class="cls-4" points="763.75 195.97 760.88 190.88 757.96 195.97 763.75 195.97"/><text class="cls-5" transform="translate(657.74 240.2)">Blind</text><rect class="cls-4" x="752.81" y="171.5" width="0.59" height="16.03"/><rect class="cls-4" x="584.44" y="171.5" width="0.59" height="16.03"/><rect class="cls-4" x="588.95" y="177.36" width="159.99" height="0.59"/><polygon class="cls-4" points="748.07 174.72 753.1 177.65 748.07 180.57 748.07 174.72"/><polygon class="cls-4" points="589.77 174.72 584.74 177.65 589.77 180.57 589.77 174.72"/><text class="cls-5" transform="translate(665.37 174.64)">O</text><path class="cls-3" d="M111.6,356V336.42a.39.39,0,0,0-.35-.36h-6.91a5.33,5.33,0,0,0-5.26,4.33l-.3,1.58a5.94,5.94,0,0,1-5.79,4.8H67.42A3.42,3.42,0,0,0,64,350.19v18.7a.37.37,0,0,0,.35.35h34.9a.38.38,0,0,1,.35.36v3.86a.37.37,0,0,0,.35.35H116.4a.37.37,0,0,0,.35-.35v-16.8a.37.37,0,0,0-.35-.35H112A.39.39,0,0,1,111.6,356Z"/><path class="cls-3" d="M184,356V336.42a.38.38,0,0,1,.35-.36h7a5.35,5.35,0,0,1,5.27,4.33l.29,1.58a6,6,0,0,0,5.8,4.8h25.57a3.42,3.42,0,0,1,3.45,3.39v18.73a.37.37,0,0,1-.35.35h-35a.38.38,0,0,0-.35.36v3.86a.39.39,0,0,1-.36.35H179.19a.37.37,0,0,1-.35-.35v-16.8a.37.37,0,0,1,.35-.35h4.39A.38.38,0,0,0,184,356Z"/><path class="cls-4" d="M113.06,336.65h-1.75a.3.3,0,0,1-.11-.59h1.86a.28.28,0,0,1,.29.27v0A.3.3,0,0,1,113.06,336.65Z"/><path class="cls-4" d="M178.9,336.65h-3.69a.27.27,0,0,1-.29-.25v0a.28.28,0,0,1,.26-.3h3.72a.3.3,0,0,1,.24.35A.3.3,0,0,1,178.9,336.65Zm-7.32,0H167.9a.3.3,0,1,1-.11-.59h3.79a.28.28,0,0,1,.29.27v0a.27.27,0,0,1-.25.29Zm-7.31,0h-3.69a.27.27,0,0,1-.29-.25v0a.28.28,0,0,1,.26-.3h3.72a.3.3,0,0,1,.24.35A.3.3,0,0,1,164.27,336.65Zm-7.32,0h-3.68a.3.3,0,0,1-.11-.59H157a.28.28,0,0,1,.29.27v0a.27.27,0,0,1-.25.29H157Zm-7.31,0H146a.27.27,0,0,1-.29-.25v0a.28.28,0,0,1,.26-.3h3.72a.3.3,0,0,1,.24.35.3.3,0,0,1-.24.24Zm-7.32,0h-3.68a.3.3,0,0,1-.11-.59h3.79a.28.28,0,0,1,.29.27v0a.27.27,0,0,1-.25.29Zm-7.31,0h-3.69a.27.27,0,0,1-.29-.25v0a.28.28,0,0,1,.26-.3H135a.28.28,0,0,1,.29.27v0a.32.32,0,0,1-.29.29Zm-7.32,0H124a.3.3,0,0,1-.11-.59h3.79a.28.28,0,0,1,.29.27v0a.31.31,0,0,1-.28.29Zm-7.31,0h-3.69a.27.27,0,0,1-.29-.25v0a.28.28,0,0,1,.26-.3h3.72a.28.28,0,0,1,.29.27v0a.32.32,0,0,1-.29.29Z"/><path class="cls-4" d="M184.28,336.65h-1.75a.3.3,0,1,1-.11-.59h1.86a.28.28,0,0,1,.29.27v0a.27.27,0,0,1-.25.29Z"/><path class="cls-4" d="M113.06,373.75h-1.75a.28.28,0,0,1-.3-.26v0a.28.28,0,0,1,.27-.29h1.78a.27.27,0,0,1,.29.25v0A.3.3,0,0,1,113.06,373.75Z"/><path class="cls-4" d="M178.9,373.75h-3.69a.27.27,0,0,1-.29-.25v0a.27.27,0,0,1,.25-.29h3.73a.27.27,0,0,1,.29.25v0a.29.29,0,0,1-.27.29Zm-7.32,0H167.9a.28.28,0,0,1-.3-.26v0a.28.28,0,0,1,.27-.29h3.71a.27.27,0,0,1,.29.25v0a.27.27,0,0,1-.25.29Zm-7.31,0h-3.69a.27.27,0,0,1-.29-.25v0a.27.27,0,0,1,.25-.29h3.73a.27.27,0,0,1,.29.25v0a.29.29,0,0,1-.27.29Zm-7.32,0h-3.68a.28.28,0,0,1-.3-.26v0a.28.28,0,0,1,.27-.29H157a.27.27,0,0,1,.29.25v0a.27.27,0,0,1-.25.29H157Zm-7.31,0H146a.27.27,0,0,1-.29-.25v0a.27.27,0,0,1,.25-.29h3.73a.27.27,0,0,1,.29.25v0a.29.29,0,0,1-.26.3Zm-7.32,0h-3.68a.28.28,0,0,1-.3-.26v0a.28.28,0,0,1,.27-.29h3.71a.27.27,0,0,1,.29.25v0a.27.27,0,0,1-.25.29Zm-7.31,0h-3.69a.27.27,0,0,1-.29-.25v0a.27.27,0,0,1,.25-.29H135a.27.27,0,0,1,.29.25v0a.32.32,0,0,1-.29.29Zm-7.32,0H124a.28.28,0,0,1-.3-.26v0a.28.28,0,0,1,.27-.29h3.71a.27.27,0,0,1,.29.25v0a.31.31,0,0,1-.28.29Zm-7.31,0h-3.69a.27.27,0,0,1-.29-.25v0a.27.27,0,0,1,.25-.29h3.73a.27.27,0,0,1,.29.25v0a.32.32,0,0,1-.29.29Z"/><path class="cls-4" d="M184.28,373.75h-1.75a.28.28,0,0,1-.3-.26v0a.28.28,0,0,1,.27-.29h1.78a.27.27,0,0,1,.29.25v0a.27.27,0,0,1-.25.29Z"/><path class="cls-4" d="M118.09,356.9h-1.75a.28.28,0,0,1-.29-.27v0a.27.27,0,0,1,.25-.29h1.79a.3.3,0,1,1,.11.59A.21.21,0,0,1,118.09,356.9Z"/><path class="cls-4" d="M174,356.9h-3.51a.28.28,0,0,1-.29-.27v0a.27.27,0,0,1,.25-.29H174a.27.27,0,0,1,.29.25v0a.28.28,0,0,1-.26.3Zm-7,0h-3.51a.3.3,0,0,1-.11-.59H167a.3.3,0,0,1,.24.35A.3.3,0,0,1,167,356.9Zm-7,0h-3.52a.3.3,0,0,1-.24-.35.3.3,0,0,1,.24-.24H160a.3.3,0,0,1,.24.35A.3.3,0,0,1,160,356.9Zm-7,0h-3.51a.28.28,0,0,1-.29-.27v0a.27.27,0,0,1,.25-.29H153a.27.27,0,0,1,.29.25v0a.28.28,0,0,1-.26.3Zm-7,0h-3.51a.3.3,0,0,1-.11-.59H146a.3.3,0,0,1,.24.35A.3.3,0,0,1,146,356.9Zm-7,0h-3.51a.3.3,0,0,1-.24-.35.3.3,0,0,1,.24-.24H139a.3.3,0,0,1,.11.59A.21.21,0,0,1,139,356.9Zm-7,0h-3.51a.28.28,0,0,1-.29-.27v0a.27.27,0,0,1,.25-.29H132a.27.27,0,0,1,.29.25v0a.28.28,0,0,1-.21.3Zm-7,0h-3.51a.3.3,0,1,1-.11-.59H125a.29.29,0,0,1,.29.27v0a.32.32,0,0,1-.17.3Z"/><path class="cls-4" d="M179.25,356.9h-1.76a.3.3,0,0,1-.24-.35.3.3,0,0,1,.24-.24h1.76a.3.3,0,0,1,.24.35A.3.3,0,0,1,179.25,356.9Z"/><g class="cls-6"><text class="cls-7" transform="translate(68.16 426.63)">Soc</text><text class="cls-10" transform="translate(83.21 426.63)">k</text><text class="cls-11" transform="translate(87.98 426.63)">e</text><text class="cls-7" transform="translate(93.21 426.63)">t </text><text class="cls-9" transform="translate(99.24 426.63)">W</text><text class="cls-7" transform="translate(108.41 426.63)">elding(NPS 1/2 </text><text class="cls-11" transform="translate(175.96 426.63)">t</text><text class="cls-7" transform="translate(179.51 426.63)">o 3 Only)</text></g><rect class="cls-4" x="197.21" y="301.6" width="0.59" height="32.07"/><rect class="cls-4" x="183.64" y="320.85" width="0.59" height="11.76"/><rect class="cls-4" x="111.36" y="320.85" width="0.59" height="11.76"/><rect class="cls-4" x="97.61" y="301.6" width="0.59" height="32.07"/><rect class="cls-4" x="63.61" y="373.17" width="0.59" height="30.2"/><rect class="cls-4" x="231.39" y="373.17" width="0.59" height="30.2"/><rect class="cls-4" x="201.25" y="336.06" width="59.16" height="0.59"/><rect class="cls-4" x="234.55" y="369.13" width="25.92" height="0.59"/><rect class="cls-4" x="234.55" y="346.54" width="8.72" height="0.59"/><rect class="cls-4" x="102.12" y="308.09" width="91.17" height="0.59"/><polygon class="cls-4" points="192.41 305.52 197.51 308.38 192.41 311.31 192.41 305.52"/><polygon class="cls-4" points="102.94 305.52 97.91 308.38 102.94 311.31 102.94 305.52"/><text class="cls-5" transform="translate(144.8 305.4)">X</text><rect class="cls-4" x="115.87" y="327.17" width="63.9" height="0.59"/><polygon class="cls-4" points="178.9 324.54 183.93 327.46 178.9 330.39 178.9 324.54"/><polygon class="cls-4" points="116.69 324.54 111.66 327.46 116.69 330.39 116.69 324.54"/><text class="cls-5" transform="translate(144.85 324.45)">B</text><text class="cls-5" transform="translate(157.86 349.22)">D</text><rect class="cls-4" x="183.64" y="376.91" width="0.59" height="11.35"/><rect class="cls-4" x="111.36" y="376.91" width="0.59" height="11.35"/><rect class="cls-4" x="115.87" y="381.48" width="63.9" height="0.59"/><polygon class="cls-4" points="178.9 378.84 183.93 381.77 178.9 384.69 178.9 378.84"/><polygon class="cls-4" points="116.69 378.84 111.66 381.77 116.69 384.69 116.69 378.84"/><text class="cls-5" transform="translate(144.85 391.87)">B</text><rect class="cls-4" x="68.12" y="396.75" width="159.35" height="0.59"/><polygon class="cls-4" points="69 399.97 63.91 397.04 69 394.12 69 399.97"/><polygon class="cls-4" points="226.59 399.97 231.68 397.04 226.59 394.12 226.59 399.97"/><text class="cls-5" transform="translate(143.45 406.95)">O</text><text class="cls-5" transform="translate(259.4 355.35)">Y</text><rect class="cls-4" x="255.21" y="340.57" width="0.59" height="24.7"/><polygon class="cls-4" points="258.43 364.39 255.5 369.42 252.63 364.39 258.43 364.39"/><polygon class="cls-4" points="258.43 341.39 255.5 336.36 252.63 341.39 258.43 341.39"/><text class="cls-5" transform="translate(242 360.58)">tf</text><rect class="cls-4" x="238.41" y="350.99" width="0.59" height="14.22"/><polygon class="cls-4" points="241.63 364.39 238.71 369.42 235.78 364.39 241.63 364.39"/><polygon class="cls-4" points="241.63 351.86 238.71 346.83 235.78 351.86 241.63 351.86"/><rect class="cls-4" x="160.87" y="319.97" width="0.59" height="11.88"/><polygon class="cls-4" points="158.24 331.03 161.17 336.06 164.09 331.03 158.24 331.03"/><rect class="cls-4" x="160.87" y="361.11" width="0.59" height="9.25"/><polygon class="cls-4" points="158.24 361.93 161.17 356.9 164.09 361.93 158.24 361.93"/></svg>