<svg id="图层_1" data-name="图层 1" xmlns="http://www.w3.org/2000/svg" viewBox="0 0 850.4 566.9"><defs><style>.cls-1{fill:#fff;}.cls-2,.cls-4,.cls-5{fill:none;}.cls-2{stroke:#eee;}.cls-2,.cls-4{stroke-miterlimit:10;}.cls-3{font-size:16.2px;font-family:Calibri-Bold, Calibri;font-weight:700;}.cls-3,.cls-6{fill:#999;}.cls-4,.cls-5{stroke:#999;}.cls-4{stroke-width:0.91px;}.cls-5{stroke-linejoin:round;stroke-width:2.74px;}</style></defs><rect class="cls-1" width="850.4" height="566.9"/><line class="cls-2" x1="850.4" y1="46.7" y2="46.7"/><line class="cls-2" x1="850.4" y1="165.1" y2="165.1"/><line class="cls-2" x1="850.4" y1="283.5" y2="283.5"/><line class="cls-2" x1="850.4" y1="401.9" y2="401.9"/><line class="cls-2" x1="850.4" y1="105.9" y2="105.9"/><line class="cls-2" x1="850.4" y1="224.3" y2="224.3"/><line class="cls-2" x1="850.4" y1="342.7" y2="342.7"/><line class="cls-2" x1="850.4" y1="461" y2="461"/><line class="cls-2" x1="850.4" y1="520.2" y2="520.2"/><line class="cls-2" x1="850.4" y1="135.5" y2="135.5"/><line class="cls-2" x1="850.4" y1="253.9" y2="253.9"/><line class="cls-2" x1="850.4" y1="372.3" y2="372.3"/><line class="cls-2" x1="850.4" y1="76.3" y2="76.3"/><line class="cls-2" x1="850.4" y1="17.1" y2="17.1"/><line class="cls-2" x1="850.4" y1="194.7" y2="194.7"/><line class="cls-2" x1="850.4" y1="313.1" y2="313.1"/><line class="cls-2" x1="850.4" y1="431.4" y2="431.4"/><line class="cls-2" x1="850.4" y1="490.6" y2="490.6"/><line class="cls-2" x1="850.4" y1="549.8" y2="549.8"/><line class="cls-2" x1="10.8" x2="10.8" y2="566.9"/><line class="cls-2" x1="129.2" x2="129.2" y2="566.9"/><line class="cls-2" x1="247.6" x2="247.6" y2="566.9"/><line class="cls-2" x1="366" x2="366" y2="566.9"/><line class="cls-2" x1="484.4" x2="484.4" y2="566.9"/><line class="cls-2" x1="602.8" x2="602.8" y2="566.9"/><line class="cls-2" x1="839.5" x2="839.5" y2="566.9"/><line class="cls-2" x1="721.2" x2="721.2" y2="566.9"/><line class="cls-2" x1="70" x2="70" y2="566.9"/><line class="cls-2" x1="188.4" x2="188.4" y2="566.9"/><line class="cls-2" x1="306.8" x2="306.8" y2="566.9"/><line class="cls-2" x1="425.2" x2="425.2" y2="566.9"/><line class="cls-2" x1="543.6" x2="543.6" y2="566.9"/><line class="cls-2" x1="662" x2="662" y2="566.9"/><line class="cls-2" x1="780.4" x2="780.4" y2="566.9"/><line class="cls-2" x1="810" x2="810" y2="566.9"/><line class="cls-2" x1="99.6" x2="99.6" y2="566.9"/><line class="cls-2" x1="218" x2="218" y2="566.9"/><line class="cls-2" x1="336.4" x2="336.4" y2="566.9"/><line class="cls-2" x1="454.8" x2="454.8" y2="566.9"/><line class="cls-2" x1="573.2" x2="573.2" y2="566.9"/><line class="cls-2" x1="691.6" x2="691.6" y2="566.9"/><line class="cls-2" x1="40.4" x2="40.4" y2="566.9"/><line class="cls-2" x1="158.8" x2="158.8" y2="566.9"/><line class="cls-2" x1="277.2" x2="277.2" y2="566.9"/><line class="cls-2" x1="395.6" x2="395.6" y2="566.9"/><line class="cls-2" x1="514" x2="514" y2="566.9"/><line class="cls-2" x1="632.4" x2="632.4" y2="566.9"/><line class="cls-2" x1="750.8" x2="750.8" y2="566.9"/><text class="cls-3" transform="translate(141.92 291.26)">D</text><text class="cls-3" transform="translate(491.57 195.5)">L</text><text class="cls-3" transform="translate(199.3 195.5)">THK</text><line class="cls-4" x1="704.5" y1="288.05" x2="704.5" y2="192.5"/><rect class="cls-5" x="285.49" y="237.95" width="419.01" height="100.12"/><line class="cls-4" x1="190.59" y1="288.33" x2="190.59" y2="192.5"/><line class="cls-4" x1="149.14" y1="237.95" x2="226.17" y2="237.95"/><line class="cls-4" x1="149.14" y1="338.16" x2="226.17" y2="338.16"/><line class="cls-4" x1="235.11" y1="288.33" x2="235.11" y2="192.5"/><line class="cls-4" x1="285.49" y1="288.05" x2="285.49" y2="192.5"/><line class="cls-4" x1="197.29" y1="204.61" x2="228.4" y2="204.61"/><polygon class="cls-6" points="198.6 209.26 190.59 204.61 198.6 200.04 198.6 209.26"/><polygon class="cls-6" points="227 209.26 235.11 204.61 227 200.04 227 209.26"/><line class="cls-4" x1="161.53" y1="331.45" x2="161.53" y2="244.65"/><polygon class="cls-6" points="166.19 330.06 161.53 338.16 156.87 330.06 166.19 330.06"/><polygon class="cls-6" points="166.19 246.05 161.53 237.95 156.87 246.05 166.19 246.05"/><line class="cls-4" x1="292.2" y1="204.61" x2="697.79" y2="204.61"/><polygon class="cls-6" points="293.59 209.26 285.49 204.61 293.59 200.04 293.59 209.26"/><polygon class="cls-6" points="696.49 209.26 704.5 204.61 696.49 200.04 696.49 209.26"/><path class="cls-5" d="M227.56,238H198a7.44,7.44,0,0,0-7.45,7.45h0v85.12a7.38,7.38,0,0,0,7.32,7.45h29.65a7.44,7.44,0,0,0,7.45-7.45v-85A7.56,7.56,0,0,0,227.56,238Z"/></svg>