<svg id="图层_1" data-name="图层 1" xmlns="http://www.w3.org/2000/svg" viewBox="0 0 850.4 566.9"><defs><style>.cls-1{fill:#fff;}.cls-2,.cls-4,.cls-5{fill:none;}.cls-2{stroke:#eee;}.cls-2,.cls-5{stroke-miterlimit:10;}.cls-3{font-size:16.2px;font-family:Calibri-Bold, Calibri;font-weight:700;}.cls-3,.cls-6{fill:#999;}.cls-4,.cls-5{stroke:#999;}.cls-4{stroke-linejoin:round;stroke-width:2.7px;}.cls-5{stroke-width:0.9px;}</style></defs><rect class="cls-1" width="850.4" height="566.9"/><line class="cls-2" x1="850.4" y1="46.7" y2="46.7"/><line class="cls-2" x1="850.4" y1="165.1" y2="165.1"/><line class="cls-2" x1="850.4" y1="283.5" y2="283.5"/><line class="cls-2" x1="850.4" y1="401.9" y2="401.9"/><line class="cls-2" x1="850.4" y1="105.9" y2="105.9"/><line class="cls-2" x1="850.4" y1="224.3" y2="224.3"/><line class="cls-2" x1="850.4" y1="342.7" y2="342.7"/><line class="cls-2" x1="850.4" y1="461" y2="461"/><line class="cls-2" x1="850.4" y1="520.2" y2="520.2"/><line class="cls-2" x1="850.4" y1="135.5" y2="135.5"/><line class="cls-2" x1="850.4" y1="253.9" y2="253.9"/><line class="cls-2" x1="850.4" y1="372.3" y2="372.3"/><line class="cls-2" x1="850.4" y1="76.3" y2="76.3"/><line class="cls-2" x1="850.4" y1="17.1" y2="17.1"/><line class="cls-2" x1="850.4" y1="194.7" y2="194.7"/><line class="cls-2" x1="850.4" y1="313.1" y2="313.1"/><line class="cls-2" x1="850.4" y1="431.4" y2="431.4"/><line class="cls-2" x1="850.4" y1="490.6" y2="490.6"/><line class="cls-2" x1="850.4" y1="549.8" y2="549.8"/><line class="cls-2" x1="10.8" x2="10.8" y2="566.9"/><line class="cls-2" x1="129.2" x2="129.2" y2="566.9"/><line class="cls-2" x1="247.6" x2="247.6" y2="566.9"/><line class="cls-2" x1="366" x2="366" y2="566.9"/><line class="cls-2" x1="484.4" x2="484.4" y2="566.9"/><line class="cls-2" x1="602.8" x2="602.8" y2="566.9"/><line class="cls-2" x1="839.5" x2="839.5" y2="566.9"/><line class="cls-2" x1="721.2" x2="721.2" y2="566.9"/><line class="cls-2" x1="70" x2="70" y2="566.9"/><line class="cls-2" x1="188.4" x2="188.4" y2="566.9"/><line class="cls-2" x1="306.8" x2="306.8" y2="566.9"/><line class="cls-2" x1="425.2" x2="425.2" y2="566.9"/><line class="cls-2" x1="543.6" x2="543.6" y2="566.9"/><line class="cls-2" x1="662" x2="662" y2="566.9"/><line class="cls-2" x1="780.4" x2="780.4" y2="566.9"/><line class="cls-2" x1="810" x2="810" y2="566.9"/><line class="cls-2" x1="99.6" x2="99.6" y2="566.9"/><line class="cls-2" x1="218" x2="218" y2="566.9"/><line class="cls-2" x1="336.4" x2="336.4" y2="566.9"/><line class="cls-2" x1="454.8" x2="454.8" y2="566.9"/><line class="cls-2" x1="573.2" x2="573.2" y2="566.9"/><line class="cls-2" x1="691.6" x2="691.6" y2="566.9"/><line class="cls-2" x1="40.4" x2="40.4" y2="566.9"/><line class="cls-2" x1="158.8" x2="158.8" y2="566.9"/><line class="cls-2" x1="277.2" x2="277.2" y2="566.9"/><line class="cls-2" x1="395.6" x2="395.6" y2="566.9"/><line class="cls-2" x1="514" x2="514" y2="566.9"/><line class="cls-2" x1="632.4" x2="632.4" y2="566.9"/><line class="cls-2" x1="750.8" x2="750.8" y2="566.9"/><text class="cls-3" transform="translate(133.92 295.31)">D</text><rect class="cls-4" x="315.91" y="244.9" width="388.59" height="93.26"/><line class="cls-5" x1="315.91" y1="291.53" x2="315.91" y2="194.87"/><line class="cls-5" x1="322.67" y1="207.12" x2="697.74" y2="207.12"/><polygon class="cls-6" points="324.05 211.82 315.91 207.12 324.05 202.42 324.05 211.82"/><polygon class="cls-6" points="696.37 211.82 704.5 207.12 696.37 202.42 696.37 211.82"/><text class="cls-3" transform="translate(505.18 199.58)">L</text><line class="cls-5" x1="704.5" y1="291.53" x2="704.5" y2="194.87"/><path id="_路径_" data-name=" 路径 " class="cls-4" d="M193.25,333.72,171.44,296a8.89,8.89,0,0,1,0-8.87l21.81-37.76a8.83,8.83,0,0,1,7.64-4.43H244.5a8.89,8.89,0,0,1,7.68,4.43L274,287.09a8.89,8.89,0,0,1,0,8.87l-21.8,37.76a8.85,8.85,0,0,1-7.68,4.44H200.89A8.84,8.84,0,0,1,193.25,333.72Z"/><line class="cls-5" x1="141.25" y1="244.9" x2="219.2" y2="244.9"/><line class="cls-5" x1="141.25" y1="338.16" x2="219.2" y2="338.16"/><line class="cls-5" x1="153.85" y1="331.39" x2="153.85" y2="251.66"/><polygon class="cls-6" points="158.55 330.02 153.85 338.16 149.14 330.02 158.55 330.02"/><polygon class="cls-6" points="158.55 253.03 153.85 244.9 149.14 253.03 158.55 253.03"/></svg>