<svg id="图层_1" data-name="图层 1" xmlns="http://www.w3.org/2000/svg" viewBox="0 0 850.4 566.9"><defs><style>.cls-1{fill:#fff;}.cls-2,.cls-3,.cls-5,.cls-6{fill:none;}.cls-2{stroke:#eee;}.cls-2,.cls-3{stroke-miterlimit:10;}.cls-3,.cls-5,.cls-6{stroke:#999;}.cls-3{stroke-width:0.9px;}.cls-4{isolation:isolate;font-size:18px;font-family:Calibri-Bold, Calibri;font-weight:700;}.cls-4,.cls-7{fill:#999;}.cls-5,.cls-6{stroke-linejoin:round;}.cls-5{stroke-width:2px;}.cls-6{stroke-width:2.7px;}</style></defs><rect class="cls-1" width="850.4" height="566.9"/><line class="cls-2" x1="850.4" y1="46.7" y2="46.7"/><line class="cls-2" x1="850.4" y1="165.1" y2="165.1"/><line class="cls-2" x1="850.4" y1="283.5" y2="283.5"/><line class="cls-2" x1="850.4" y1="401.9" y2="401.9"/><line class="cls-2" x1="850.4" y1="105.9" y2="105.9"/><line class="cls-2" x1="850.4" y1="224.3" y2="224.3"/><line class="cls-2" x1="850.4" y1="342.7" y2="342.7"/><line class="cls-2" x1="850.4" y1="461" y2="461"/><line class="cls-2" x1="850.4" y1="520.2" y2="520.2"/><line class="cls-2" x1="850.4" y1="135.5" y2="135.5"/><line class="cls-2" x1="850.4" y1="253.9" y2="253.9"/><line class="cls-2" x1="850.4" y1="372.3" y2="372.3"/><line class="cls-2" x1="850.4" y1="76.3" y2="76.3"/><line class="cls-2" x1="850.4" y1="17.1" y2="17.1"/><line class="cls-2" x1="850.4" y1="194.7" y2="194.7"/><line class="cls-2" x1="850.4" y1="313.1" y2="313.1"/><line class="cls-2" x1="850.4" y1="431.4" y2="431.4"/><line class="cls-2" x1="850.4" y1="490.6" y2="490.6"/><line class="cls-2" x1="850.4" y1="549.8" y2="549.8"/><line class="cls-2" x1="10.8" x2="10.8" y2="566.9"/><line class="cls-2" x1="129.2" x2="129.2" y2="566.9"/><line class="cls-2" x1="247.6" x2="247.6" y2="566.9"/><line class="cls-2" x1="366" x2="366" y2="566.9"/><line class="cls-2" x1="484.4" x2="484.4" y2="566.9"/><line class="cls-2" x1="602.8" x2="602.8" y2="566.9"/><line class="cls-2" x1="839.5" x2="839.5" y2="566.9"/><line class="cls-2" x1="721.2" x2="721.2" y2="566.9"/><line class="cls-2" x1="70" x2="70" y2="566.9"/><line class="cls-2" x1="188.4" x2="188.4" y2="566.9"/><line class="cls-2" x1="306.8" x2="306.8" y2="566.9"/><line class="cls-2" x1="425.2" x2="425.2" y2="566.9"/><line class="cls-2" x1="543.6" x2="543.6" y2="566.9"/><line class="cls-2" x1="662" x2="662" y2="566.9"/><line class="cls-2" x1="780.4" x2="780.4" y2="566.9"/><line class="cls-2" x1="810" x2="810" y2="566.9"/><line class="cls-2" x1="99.6" x2="99.6" y2="566.9"/><line class="cls-2" x1="218" x2="218" y2="566.9"/><line class="cls-2" x1="336.4" x2="336.4" y2="566.9"/><line class="cls-2" x1="454.8" x2="454.8" y2="566.9"/><line class="cls-2" x1="573.2" x2="573.2" y2="566.9"/><line class="cls-2" x1="691.6" x2="691.6" y2="566.9"/><line class="cls-2" x1="40.4" x2="40.4" y2="566.9"/><line class="cls-2" x1="158.8" x2="158.8" y2="566.9"/><line class="cls-2" x1="277.2" x2="277.2" y2="566.9"/><line class="cls-2" x1="395.6" x2="395.6" y2="566.9"/><line class="cls-2" x1="514" x2="514" y2="566.9"/><line class="cls-2" x1="632.4" x2="632.4" y2="566.9"/><line class="cls-2" x1="750.8" x2="750.8" y2="566.9"/><line class="cls-3" x1="305.65" y1="209.92" x2="305.65" y2="249.12"/><line class="cls-3" x1="512.25" y1="209.92" x2="512.25" y2="249.12"/><text class="cls-4" transform="translate(528.52 230.79)">T</text><text class="cls-4" transform="translate(535.97 313.04)">E</text><text class="cls-4" transform="translate(397.17 208.57)">OD</text><line class="cls-3" x1="492.25" y1="226.52" x2="492.25" y2="249.12"/><path class="cls-5" d="M492.25,249.12v48.6c0,26.7-38.2,49.3-83.3,49.3s-83.3-22.6-83.3-49.3v-48.6h-20v48.6c0,19.4,11.4,37.3,32,50.4,19.2,12.2,44.5,18.9,71.3,18.9s52.1-6.7,71.3-18.9c20.6-13.1,32-31,32-50.4v-48.6Z"/><rect class="cls-6" x="325.65" y="249.12" width="3" height="2"/><path class="cls-7" d="M483.25,251.12h-5.9v-2h5.9Zm-11.9,0h-5.9v-2h5.9Zm-11.9,0h-5.9v-2h5.9Zm-11.9,0h-5.9v-2h5.9Zm-11.8,0h-5.9v-2h5.9Zm-11.9,0H418v-2h5.9Zm-11.9,0h-5.9v-2H412Zm-11.9,0h-5.9v-2h5.9Zm-11.9,0h-5.9v-2h5.9Zm-11.9,0h-5.9v-2h5.9Zm-11.9,0h-5.9v-2h5.9Zm-11.9,0h-6v-2h5.9v2Zm-11.9,0h-5.9v-2h5.9Z"/><rect class="cls-6" x="489.25" y="249.12" width="3" height="2"/><line class="cls-3" x1="519.45" y1="237.82" x2="533.85" y2="237.82"/><polygon class="cls-7" points="520.85 242.82 512.25 237.82 520.85 232.82 520.85 242.82"/><line class="cls-3" x1="485.05" y1="237.82" x2="470.55" y2="237.82"/><polygon class="cls-7" points="483.65 232.82 492.25 237.82 483.65 242.82 483.65 232.82"/><line class="cls-3" x1="505.05" y1="218.72" x2="312.75" y2="218.72"/><polygon class="cls-7" points="503.65 213.72 512.25 218.72 503.65 223.72 503.65 213.72"/><polygon class="cls-7" points="314.25 213.72 305.65 218.72 314.25 223.72 314.25 213.72"/><line class="cls-3" x1="512.25" y1="249.12" x2="534.85" y2="249.12"/><line class="cls-3" x1="408.95" y1="367.02" x2="535.95" y2="367.02"/><line class="cls-3" x1="527.45" y1="256.32" x2="527.45" y2="359.82"/><polygon class="cls-7" points="522.45 257.82 527.45 249.12 532.45 257.82 522.45 257.82"/><polygon class="cls-7" points="522.45 358.42 527.45 367.02 532.45 358.42 522.45 358.42"/></svg>