<svg id="图层_1" data-name="图层 1" xmlns="http://www.w3.org/2000/svg" viewBox="0 0 850.4 566.9"><defs><style>.cls-1{fill:#fff;}.cls-1,.cls-2,.cls-3,.cls-4{stroke:#eee;}.cls-1,.cls-2,.cls-3{stroke-miterlimit:10;}.cls-1,.cls-2,.cls-3,.cls-4,.cls-5,.cls-6{isolation:isolate;opacity:0.6;}.cls-2,.cls-3,.cls-4{fill:none;}.cls-3{stroke-width:0.9px;}.cls-4{stroke-linejoin:round;stroke-width:2.7px;}.cls-5,.cls-6{fill:#eee;}.cls-6{font-size:16.2px;font-family:Calibri-Bold, Calibri;font-weight:700;}</style></defs><rect class="cls-1" width="850.4" height="566.9"/><line class="cls-2" x1="850.4" y1="46.7" y2="46.7"/><line class="cls-2" x1="850.4" y1="165.1" y2="165.1"/><line class="cls-2" x1="850.4" y1="283.5" y2="283.5"/><line class="cls-2" x1="850.4" y1="401.9" y2="401.9"/><line class="cls-2" x1="850.4" y1="105.9" y2="105.9"/><line class="cls-2" x1="850.4" y1="224.3" y2="224.3"/><line class="cls-2" x1="850.4" y1="342.7" y2="342.7"/><line class="cls-2" x1="850.4" y1="461" y2="461"/><line class="cls-2" x1="850.4" y1="520.2" y2="520.2"/><line class="cls-2" x1="850.4" y1="135.5" y2="135.5"/><line class="cls-2" x1="850.4" y1="253.9" y2="253.9"/><line class="cls-2" x1="850.4" y1="372.3" y2="372.3"/><line class="cls-2" x1="850.4" y1="76.3" y2="76.3"/><line class="cls-2" x1="850.4" y1="17.1" y2="17.1"/><line class="cls-2" x1="850.4" y1="194.7" y2="194.7"/><line class="cls-2" x1="850.4" y1="313.1" y2="313.1"/><line class="cls-2" x1="850.4" y1="431.4" y2="431.4"/><line class="cls-2" x1="850.4" y1="490.6" y2="490.6"/><line class="cls-2" x1="850.4" y1="549.8" y2="549.8"/><line class="cls-2" x1="10.8" x2="10.8" y2="566.9"/><line class="cls-2" x1="129.2" x2="129.2" y2="566.9"/><line class="cls-2" x1="247.6" x2="247.6" y2="566.9"/><line class="cls-2" x1="366" x2="366" y2="566.9"/><line class="cls-2" x1="484.4" x2="484.4" y2="566.9"/><line class="cls-2" x1="602.8" x2="602.8" y2="566.9"/><line class="cls-2" x1="839.5" x2="839.5" y2="566.9"/><line class="cls-2" x1="721.2" x2="721.2" y2="566.9"/><line class="cls-2" x1="70" x2="70" y2="566.9"/><line class="cls-2" x1="188.4" x2="188.4" y2="566.9"/><line class="cls-2" x1="306.8" x2="306.8" y2="566.9"/><line class="cls-2" x1="425.2" x2="425.2" y2="566.9"/><line class="cls-2" x1="543.6" x2="543.6" y2="566.9"/><line class="cls-2" x1="662" x2="662" y2="566.9"/><line class="cls-2" x1="780.4" x2="780.4" y2="566.9"/><line class="cls-2" x1="810" x2="810" y2="566.9"/><line class="cls-2" x1="99.6" x2="99.6" y2="566.9"/><line class="cls-2" x1="218" x2="218" y2="566.9"/><line class="cls-2" x1="336.4" x2="336.4" y2="566.9"/><line class="cls-2" x1="454.8" x2="454.8" y2="566.9"/><line class="cls-2" x1="573.2" x2="573.2" y2="566.9"/><line class="cls-2" x1="691.6" x2="691.6" y2="566.9"/><line class="cls-2" x1="40.4" x2="40.4" y2="566.9"/><line class="cls-2" x1="158.8" x2="158.8" y2="566.9"/><line class="cls-2" x1="277.2" x2="277.2" y2="566.9"/><line class="cls-2" x1="395.6" x2="395.6" y2="566.9"/><line class="cls-2" x1="514" x2="514" y2="566.9"/><line class="cls-2" x1="632.4" x2="632.4" y2="566.9"/><line class="cls-2" x1="750.8" x2="750.8" y2="566.9"/><line class="cls-3" x1="704.5" y1="302.6" x2="704.5" y2="257.1"/><rect class="cls-4" x="387.6" y="292" width="316.9" height="23.6"/><line class="cls-3" x1="198.4" y1="303.8" x2="198.4" y2="256.4"/><line class="cls-3" x1="166.5" y1="291.9" x2="279.1" y2="291.9"/><line class="cls-3" x1="166.5" y1="315.6" x2="279.1" y2="315.6"/><line class="cls-3" x1="359.7" y1="303.2" x2="359.7" y2="255.9"/><line class="cls-3" x1="387.6" y1="303.8" x2="387.6" y2="255.9"/><line class="cls-3" x1="179.1" y1="308.8" x2="179.1" y2="298.7"/><polygon class="cls-5" points="183.8 307.5 179.1 315.6 174.4 307.5 183.8 307.5"/><polygon class="cls-5" points="183.8 300.1 179.1 291.9 174.4 300.1 183.8 300.1"/><line class="cls-3" x1="394.4" y1="272" x2="697.7" y2="272"/><polygon class="cls-5" points="395.7 276.7 387.6 272 395.7 267.3 395.7 276.7"/><polygon class="cls-5" points="696.4 276.7 704.5 272 696.4 267.3 696.4 276.7"/><line class="cls-3" x1="205.2" y1="272" x2="352.9" y2="272"/><polygon class="cls-5" points="206.6 276.7 198.4 272 206.6 267.3 206.6 276.7"/><polygon class="cls-5" points="351.5 276.7 359.7 272 351.5 267.3 351.5 276.7"/><text class="cls-6" transform="translate(274.25 264.51)">A</text><text class="cls-6" transform="translate(542.69 264.51)">L</text><text class="cls-6" transform="translate(129.2 308.56)">THK</text><rect class="cls-4" x="198.4" y="292" width="161.2" height="23.6"/></svg>