<svg id="图层_1" data-name="图层 1" xmlns="http://www.w3.org/2000/svg" viewBox="0 0 850.4 566.9"><defs><style>.cls-1{fill:#fff;}.cls-1,.cls-2,.cls-3,.cls-4,.cls-5,.cls-6,.cls-7,.cls-8{opacity:0.6;}.cls-2,.cls-6,.cls-8{fill:none;stroke:#eee;}.cls-2,.cls-8{stroke-miterlimit:10;}.cls-3,.cls-4,.cls-5{isolation:isolate;font-size:17.51px;font-family:Calibri-Bold, Calibri;font-weight:700;}.cls-3,.cls-4,.cls-5,.cls-7{fill:#eee;}.cls-4{letter-spacing:-0.01em;}.cls-5{letter-spacing:-0.01em;}.cls-6{stroke-linejoin:round;stroke-width:2px;}.cls-8{stroke-width:0.9px;}</style></defs><rect class="cls-1" width="850.4" height="566.9"/><line class="cls-2" x1="850.4" y1="46.7" y2="46.7"/><line class="cls-2" x1="850.4" y1="165.1" y2="165.1"/><line class="cls-2" x1="850.4" y1="283.5" y2="283.5"/><line class="cls-2" x1="850.4" y1="401.9" y2="401.9"/><line class="cls-2" x1="850.4" y1="105.9" y2="105.9"/><line class="cls-2" x1="850.4" y1="224.3" y2="224.3"/><line class="cls-2" x1="850.4" y1="342.7" y2="342.7"/><line class="cls-2" x1="850.4" y1="461" y2="461"/><line class="cls-2" x1="850.4" y1="520.2" y2="520.2"/><line class="cls-2" x1="850.4" y1="135.5" y2="135.5"/><line class="cls-2" x1="850.4" y1="253.9" y2="253.9"/><line class="cls-2" x1="850.4" y1="372.3" y2="372.3"/><line class="cls-2" x1="850.4" y1="76.3" y2="76.3"/><line class="cls-2" x1="850.4" y1="17.1" y2="17.1"/><line class="cls-2" x1="850.4" y1="194.7" y2="194.7"/><line class="cls-2" x1="850.4" y1="313.1" y2="313.1"/><line class="cls-2" x1="850.4" y1="431.4" y2="431.4"/><line class="cls-2" x1="850.4" y1="490.6" y2="490.6"/><line class="cls-2" x1="850.4" y1="549.8" y2="549.8"/><line class="cls-2" x1="10.8" x2="10.8" y2="566.9"/><line class="cls-2" x1="129.2" x2="129.2" y2="566.9"/><line class="cls-2" x1="247.6" x2="247.6" y2="566.9"/><line class="cls-2" x1="366" x2="366" y2="566.9"/><line class="cls-2" x1="484.4" x2="484.4" y2="566.9"/><line class="cls-2" x1="602.8" x2="602.8" y2="566.9"/><line class="cls-2" x1="839.5" x2="839.5" y2="566.9"/><line class="cls-2" x1="721.2" x2="721.2" y2="566.9"/><line class="cls-2" x1="70" x2="70" y2="566.9"/><line class="cls-2" x1="188.4" x2="188.4" y2="566.9"/><line class="cls-2" x1="306.8" x2="306.8" y2="566.9"/><line class="cls-2" x1="425.2" x2="425.2" y2="566.9"/><line class="cls-2" x1="543.6" x2="543.6" y2="566.9"/><line class="cls-2" x1="662" x2="662" y2="566.9"/><line class="cls-2" x1="780.4" x2="780.4" y2="566.9"/><line class="cls-2" x1="810" x2="810" y2="566.9"/><line class="cls-2" x1="99.6" x2="99.6" y2="566.9"/><line class="cls-2" x1="218" x2="218" y2="566.9"/><line class="cls-2" x1="336.4" x2="336.4" y2="566.9"/><line class="cls-2" x1="454.8" x2="454.8" y2="566.9"/><line class="cls-2" x1="573.2" x2="573.2" y2="566.9"/><line class="cls-2" x1="691.6" x2="691.6" y2="566.9"/><line class="cls-2" x1="40.4" x2="40.4" y2="566.9"/><line class="cls-2" x1="158.8" x2="158.8" y2="566.9"/><line class="cls-2" x1="277.2" x2="277.2" y2="566.9"/><line class="cls-2" x1="395.6" x2="395.6" y2="566.9"/><line class="cls-2" x1="514" x2="514" y2="566.9"/><line class="cls-2" x1="632.4" x2="632.4" y2="566.9"/><line class="cls-2" x1="750.8" x2="750.8" y2="566.9"/><text class="cls-3" transform="translate(195.81 390.09)">Conce</text><text class="cls-4" transform="translate(240.04 390.09)">n</text><text class="cls-3" transform="translate(249.27 390.09)">tric</text><text class="cls-5" transform="translate(277.15 390.09)">R</text><text class="cls-3" transform="translate(286.75 390.09)">educe</text><text class="cls-4" transform="translate(330.51 390.09)">r</text><text class="cls-3" transform="translate(336.52 390.09)">s</text><text class="cls-4" transform="translate(496.42 390.09)">E</text><text class="cls-3" transform="translate(504.75 390.09)">cce</text><text class="cls-4" transform="translate(528.23 390.09)">n</text><text class="cls-3" transform="translate(537.46 390.09)">tric</text><text class="cls-5" transform="translate(565.34 390.09)">R</text><text class="cls-3" transform="translate(574.94 390.09)">educe</text><text class="cls-4" transform="translate(618.7 390.09)">r</text><text class="cls-3" transform="translate(624.71 390.09)">s</text><path class="cls-6" d="M226.47,305.41H207V291.79c0-14.11,4.68-28.21,13.53-40.86,6.63-9.45,10-19.46,10-29.66V203.49H250v17.76c0,14.12-4.68,28.21-13.53,40.86-6.64,9.45-10,19.46-10,29.66Z"/><path class="cls-6" d="M312.83,305.41h19.46V291.79c0-14.11-4.68-28.21-13.54-40.86-6.63-9.45-10-19.46-10-29.66V203.49H289.29v17.76c0,14.12,4.68,28.21,13.54,40.86,6.63,9.45,10,19.46,10,29.66Z"/><path class="cls-6" d="M514.45,305.41H495V291.79c0-14.86,7.28-29.51,21.06-42.37,9.86-9.2,14.86-18.68,14.86-28.14V203.49h19.46v17.76c0,14.86-7.28,29.52-21,42.37-9.89,9.25-14.88,18.68-14.88,28.14Z"/><rect class="cls-6" x="598.17" y="203.49" width="19.46" height="101.92"/><path class="cls-7" d="M289.29,205.44H285v-1.95h4.25Zm-10.08,0h-5.84v-1.95h5.84Zm-11.68,0h-5.84v-1.95h5.84Zm-11.67,0H250v-1.95h5.84Z"/><path class="cls-7" d="M598.17,205.44h-1.11v-1.95h1.11Zm-6.95,0h-5.84v-1.95h5.84Zm-11.67,0h-5.84v-1.95h5.84Zm-11.68,0H562v-1.95h5.84Zm-11.67,0h-5.84v-1.95h5.84Z"/><path class="cls-7" d="M312.83,305.41H308.2v-1.94h4.62Zm-10.46,0h-5.84v-1.94h5.84Zm-11.68,0h-5.83v-1.94h5.83Zm-11.67,0h-5.84v-1.94H279Zm-11.67,0h-5.84v-1.94h5.84Zm-11.68,0h-5.84v-1.94h5.84Zm-11.67,0h-5.84v-1.94H244Zm-11.68,0h-5.84v-1.94h5.84Z"/><path class="cls-7" d="M598.17,305.41h-2v-1.94h2Zm-7.84,0h-5.84v-1.94h5.84Zm-11.68,0h-5.84v-1.94h5.84Zm-11.67,0h-5.84v-1.94H567Zm-11.68,0h-5.84v-1.94h5.84Zm-11.67,0h-5.84v-1.94h5.84Zm-11.68,0h-5.83v-1.94H532Zm-11.67,0h-5.84v-1.94h5.84Z"/><line class="cls-8" x1="308.75" y1="203.49" x2="354.57" y2="203.49"/><line class="cls-8" x1="329.67" y1="305.41" x2="354.57" y2="305.41"/><line class="cls-8" x1="346.29" y1="211.44" x2="346.29" y2="298.44"/><polygon class="cls-7" points="341.43 212.86 346.29 204.47 351.14 212.86 341.43 212.86"/><polygon class="cls-7" points="341.43 297.02 346.29 305.41 351.14 297.02 341.43 297.02"/><text class="cls-3" transform="translate(357.15 259.47)">H</text><line class="cls-8" x1="207.03" y1="305.41" x2="207.03" y2="343.53"/><line class="cls-8" x1="332.29" y1="305.41" x2="332.29" y2="343.53"/><text class="cls-3" transform="translate(342.24 340.81)">T</text><text class="cls-3" transform="translate(259.7 356.03)">D1</text><text class="cls-3" transform="translate(259.7 184.98)">D2</text><line class="cls-8" x1="312.83" y1="305.41" x2="312.83" y2="327.42"/><line class="cls-8" x1="339.19" y1="321.25" x2="354.57" y2="321.25"/><polygon class="cls-7" points="340.65 326.12 332.29 321.25 340.65 316.39 340.65 326.12"/><line class="cls-8" x1="290.55" y1="321.25" x2="305.82" y2="321.25"/><polygon class="cls-7" points="304.46 326.12 312.83 321.25 304.46 316.39 304.46 326.12"/><line class="cls-8" x1="214" y1="335.94" x2="325.3" y2="335.94"/><polygon class="cls-7" points="215.42 340.8 207.03 335.94 215.42 331.1 215.42 340.8"/><polygon class="cls-7" points="323.88 340.8 332.29 335.94 323.88 331.1 323.88 340.8"/><line class="cls-8" x1="494.98" y1="305.41" x2="494.98" y2="343.53"/><line class="cls-8" x1="617.63" y1="305.41" x2="617.63" y2="343.53"/><text class="cls-3" transform="translate(627.58 340.81)">T</text><text class="cls-3" transform="translate(545.88 356.03)">D1</text><line class="cls-8" x1="598.17" y1="305.41" x2="598.17" y2="327.42"/><line class="cls-8" x1="624.53" y1="321.25" x2="639.9" y2="321.25"/><polygon class="cls-7" points="625.99 326.12 617.63 321.25 625.99 316.39 625.99 326.12"/><line class="cls-8" x1="575.89" y1="321.25" x2="591.16" y2="321.25"/><polygon class="cls-7" points="589.8 326.12 598.17 321.25 589.8 316.39 589.8 326.12"/><line class="cls-8" x1="501.97" y1="335.94" x2="610.65" y2="335.94"/><polygon class="cls-7" points="503.39 340.8 494.98 335.94 503.39 331.1 503.39 340.8"/><polygon class="cls-7" points="609.23 340.8 617.63 335.94 609.23 331.1 609.23 340.8"/><line class="cls-8" x1="230.56" y1="203.49" x2="230.56" y2="183.88"/><line class="cls-8" x1="308.75" y1="203.49" x2="308.75" y2="183.88"/><line class="cls-8" x1="237.54" y1="192.9" x2="301.77" y2="192.9"/><polygon class="cls-7" points="238.96 197.75 230.56 192.9 238.96 188.05 238.96 197.75"/><polygon class="cls-7" points="300.35 197.75 308.75 192.9 300.35 188.05 300.35 197.75"/><text class="cls-3" transform="translate(563.2 184.98)">D2</text><line class="cls-8" x1="530.93" y1="203.49" x2="530.93" y2="183.88"/><line class="cls-8" x1="617.59" y1="203.49" x2="617.59" y2="183.88"/><line class="cls-8" x1="537.91" y1="192.9" x2="610.6" y2="192.9"/><polygon class="cls-7" points="539.33 197.75 530.93 192.9 539.33 188.05 539.33 197.75"/><polygon class="cls-7" points="609.19 197.75 617.59 192.9 609.19 188.05 609.19 197.75"/><line class="cls-8" x1="617.63" y1="203.49" x2="642.87" y2="203.49"/><line class="cls-8" x1="617.63" y1="305.41" x2="642.87" y2="305.41"/><line class="cls-8" x1="632.68" y1="210.47" x2="632.68" y2="298.44"/><polygon class="cls-7" points="627.82 211.89 632.68 203.49 637.52 211.89 627.82 211.89"/><polygon class="cls-7" points="627.82 297.02 632.68 305.41 637.52 297.02 627.82 297.02"/><text class="cls-3" transform="translate(643.54 259.47)">H</text></svg>