<svg id="图层_1" data-name="图层 1" xmlns="http://www.w3.org/2000/svg" viewBox="0 0 850.4 566.9"><defs><style>.cls-1{fill:#fff;}.cls-2,.cls-3,.cls-4{fill:none;}.cls-2{stroke:#eee;}.cls-2,.cls-3{stroke-miterlimit:10;}.cls-3,.cls-4{stroke:#999;}.cls-3{stroke-width:0.9px;}.cls-4{stroke-linejoin:round;stroke-width:2.7px;}.cls-5,.cls-6{fill:#999;}.cls-6{isolation:isolate;font-size:16.2px;font-family:Calibri-Bold, Calibri;font-weight:700;}</style></defs><rect class="cls-1" width="850.4" height="566.9"/><line class="cls-2" x1="850.4" y1="46.7" y2="46.7"/><line class="cls-2" x1="850.4" y1="165.1" y2="165.1"/><line class="cls-2" x1="850.4" y1="283.5" y2="283.5"/><line class="cls-2" x1="850.4" y1="401.9" y2="401.9"/><line class="cls-2" x1="850.4" y1="105.9" y2="105.9"/><line class="cls-2" x1="850.4" y1="224.3" y2="224.3"/><line class="cls-2" x1="850.4" y1="342.7" y2="342.7"/><line class="cls-2" x1="850.4" y1="461" y2="461"/><line class="cls-2" x1="850.4" y1="520.2" y2="520.2"/><line class="cls-2" x1="850.4" y1="135.5" y2="135.5"/><line class="cls-2" x1="850.4" y1="253.9" y2="253.9"/><line class="cls-2" x1="850.4" y1="372.3" y2="372.3"/><line class="cls-2" x1="850.4" y1="76.3" y2="76.3"/><line class="cls-2" x1="850.4" y1="17.1" y2="17.1"/><line class="cls-2" x1="850.4" y1="194.7" y2="194.7"/><line class="cls-2" x1="850.4" y1="313.1" y2="313.1"/><line class="cls-2" x1="850.4" y1="431.4" y2="431.4"/><line class="cls-2" x1="850.4" y1="490.6" y2="490.6"/><line class="cls-2" x1="850.4" y1="549.8" y2="549.8"/><line class="cls-2" x1="10.8" x2="10.8" y2="566.9"/><line class="cls-2" x1="129.2" x2="129.2" y2="566.9"/><line class="cls-2" x1="247.6" x2="247.6" y2="566.9"/><line class="cls-2" x1="366" x2="366" y2="566.9"/><line class="cls-2" x1="484.4" x2="484.4" y2="566.9"/><line class="cls-2" x1="602.8" x2="602.8" y2="566.9"/><line class="cls-2" x1="839.5" x2="839.5" y2="566.9"/><line class="cls-2" x1="721.2" x2="721.2" y2="566.9"/><line class="cls-2" x1="70" x2="70" y2="566.9"/><line class="cls-2" x1="188.4" x2="188.4" y2="566.9"/><line class="cls-2" x1="306.8" x2="306.8" y2="566.9"/><line class="cls-2" x1="425.2" x2="425.2" y2="566.9"/><line class="cls-2" x1="543.6" x2="543.6" y2="566.9"/><line class="cls-2" x1="662" x2="662" y2="566.9"/><line class="cls-2" x1="780.4" x2="780.4" y2="566.9"/><line class="cls-2" x1="810" x2="810" y2="566.9"/><line class="cls-2" x1="99.6" x2="99.6" y2="566.9"/><line class="cls-2" x1="218" x2="218" y2="566.9"/><line class="cls-2" x1="336.4" x2="336.4" y2="566.9"/><line class="cls-2" x1="454.8" x2="454.8" y2="566.9"/><line class="cls-2" x1="573.2" x2="573.2" y2="566.9"/><line class="cls-2" x1="691.6" x2="691.6" y2="566.9"/><line class="cls-2" x1="40.4" x2="40.4" y2="566.9"/><line class="cls-2" x1="158.8" x2="158.8" y2="566.9"/><line class="cls-2" x1="277.2" x2="277.2" y2="566.9"/><line class="cls-2" x1="395.6" x2="395.6" y2="566.9"/><line class="cls-2" x1="514" x2="514" y2="566.9"/><line class="cls-2" x1="632.4" x2="632.4" y2="566.9"/><line class="cls-2" x1="750.8" x2="750.8" y2="566.9"/><line class="cls-3" x1="704.5" y1="298.7" x2="704.5" y2="261.2"/><rect class="cls-4" x="387.6" y="296.4" width="316.9" height="6.7"/><line class="cls-3" x1="198.4" y1="299.7" x2="198.4" y2="260.7"/><line class="cls-3" x1="166.5" y1="296.3" x2="279.1" y2="296.3"/><line class="cls-3" x1="166.5" y1="303.1" x2="279.1" y2="303.1"/><line class="cls-3" x1="359.7" y1="299.2" x2="359.7" y2="260.3"/><line class="cls-3" x1="387.6" y1="299.7" x2="387.6" y2="260.3"/><polygon class="cls-5" points="183.8 288 179.1 296.1 174.4 288 183.8 288"/><polygon class="cls-5" points="183.8 311.3 179.1 303.1 174.4 311.3 183.8 311.3"/><line class="cls-3" x1="394.4" y1="276.4" x2="697.7" y2="276.4"/><polygon class="cls-5" points="395.7 281.1 387.6 276.4 395.7 271.7 395.7 281.1"/><polygon class="cls-5" points="696.4 281.1 704.5 276.4 696.4 271.7 696.4 281.1"/><line class="cls-3" x1="205.2" y1="276.4" x2="352.9" y2="276.4"/><polygon class="cls-5" points="206.6 281.1 198.4 276.4 206.6 271.7 206.6 281.1"/><polygon class="cls-5" points="351.5 281.1 359.7 276.4 351.5 271.7 351.5 281.1"/><text class="cls-6" transform="translate(274.25 268.86)">A</text><text class="cls-6" transform="translate(542.69 268.86)">L</text><text class="cls-6" transform="translate(129.2 305.03)">THK</text><rect class="cls-4" x="198.4" y="296.4" width="161.2" height="6.7"/></svg>