<svg id="图层_1" data-name="图层 1" xmlns="http://www.w3.org/2000/svg" viewBox="0 0 850.4 566.9"><defs><style>.cls-1{fill:#fff;}.cls-2,.cls-3,.cls-6{fill:none;}.cls-2{stroke:#eee;}.cls-2,.cls-3{stroke-miterlimit:10;}.cls-3,.cls-6{stroke:#999;}.cls-3{stroke-width:0.9px;}.cls-4,.cls-5{fill:#999;}.cls-5{isolation:isolate;font-size:16.2px;font-family:Calibri-Bold, Calibri;font-weight:700;}.cls-6{stroke-linejoin:round;stroke-width:2.7px;}</style></defs><rect class="cls-1" width="850.4" height="566.9"/><line class="cls-2" x1="850.4" y1="46.7" y2="46.7"/><line class="cls-2" x1="850.4" y1="165.1" y2="165.1"/><line class="cls-2" x1="850.4" y1="283.5" y2="283.5"/><line class="cls-2" x1="850.4" y1="401.9" y2="401.9"/><line class="cls-2" x1="850.4" y1="105.9" y2="105.9"/><line class="cls-2" x1="850.4" y1="224.3" y2="224.3"/><line class="cls-2" x1="850.4" y1="342.7" y2="342.7"/><line class="cls-2" x1="850.4" y1="461" y2="461"/><line class="cls-2" x1="850.4" y1="520.2" y2="520.2"/><line class="cls-2" x1="850.4" y1="135.5" y2="135.5"/><line class="cls-2" x1="850.4" y1="253.9" y2="253.9"/><line class="cls-2" x1="850.4" y1="372.3" y2="372.3"/><line class="cls-2" x1="850.4" y1="76.3" y2="76.3"/><line class="cls-2" x1="850.4" y1="17.1" y2="17.1"/><line class="cls-2" x1="850.4" y1="194.7" y2="194.7"/><line class="cls-2" x1="850.4" y1="313.1" y2="313.1"/><line class="cls-2" x1="850.4" y1="431.4" y2="431.4"/><line class="cls-2" x1="850.4" y1="490.6" y2="490.6"/><line class="cls-2" x1="850.4" y1="549.8" y2="549.8"/><line class="cls-2" x1="10.8" x2="10.8" y2="566.9"/><line class="cls-2" x1="129.2" x2="129.2" y2="566.9"/><line class="cls-2" x1="247.6" x2="247.6" y2="566.9"/><line class="cls-2" x1="366" x2="366" y2="566.9"/><line class="cls-2" x1="484.4" x2="484.4" y2="566.9"/><line class="cls-2" x1="602.8" x2="602.8" y2="566.9"/><line class="cls-2" x1="839.5" x2="839.5" y2="566.9"/><line class="cls-2" x1="721.2" x2="721.2" y2="566.9"/><line class="cls-2" x1="70" x2="70" y2="566.9"/><line class="cls-2" x1="188.4" x2="188.4" y2="566.9"/><line class="cls-2" x1="306.8" x2="306.8" y2="566.9"/><line class="cls-2" x1="425.2" x2="425.2" y2="566.9"/><line class="cls-2" x1="543.6" x2="543.6" y2="566.9"/><line class="cls-2" x1="662" x2="662" y2="566.9"/><line class="cls-2" x1="780.4" x2="780.4" y2="566.9"/><line class="cls-2" x1="810" x2="810" y2="566.9"/><line class="cls-2" x1="99.6" x2="99.6" y2="566.9"/><line class="cls-2" x1="218" x2="218" y2="566.9"/><line class="cls-2" x1="336.4" x2="336.4" y2="566.9"/><line class="cls-2" x1="454.8" x2="454.8" y2="566.9"/><line class="cls-2" x1="573.2" x2="573.2" y2="566.9"/><line class="cls-2" x1="691.6" x2="691.6" y2="566.9"/><line class="cls-2" x1="40.4" x2="40.4" y2="566.9"/><line class="cls-2" x1="158.8" x2="158.8" y2="566.9"/><line class="cls-2" x1="277.2" x2="277.2" y2="566.9"/><line class="cls-2" x1="395.6" x2="395.6" y2="566.9"/><line class="cls-2" x1="514" x2="514" y2="566.9"/><line class="cls-2" x1="632.4" x2="632.4" y2="566.9"/><line class="cls-2" x1="750.8" x2="750.8" y2="566.9"/><line class="cls-3" x1="241.5" y1="336.8" x2="241.5" y2="297.8"/><line class="cls-3" x1="209.6" y1="331.5" x2="322.2" y2="331.5"/><line class="cls-3" x1="209.6" y1="341.5" x2="322.2" y2="341.5"/><line class="cls-3" x1="352.8" y1="336.3" x2="352.8" y2="297.4"/><polygon class="cls-4" points="226.9 323.2 222.2 331.3 217.5 323.2 226.9 323.2"/><polygon class="cls-4" points="226.9 349.7 222.2 341.5 217.5 349.7 226.9 349.7"/><line class="cls-3" x1="248.3" y1="313.5" x2="344.6" y2="313.5"/><polygon class="cls-4" points="249.7 318.2 241.5 313.5 249.7 308.8 249.7 318.2"/><polygon class="cls-4" points="344.6 318.2 352.8 313.5 344.6 308.8 344.6 318.2"/><text class="cls-5" transform="translate(292.24 305.96)">A</text><text class="cls-5" transform="translate(172.27 342.13)">THK</text><rect class="cls-6" x="241.5" y="331.5" width="111.3" height="10"/><path class="cls-6" d="M632.4,261.4a80.15,80.15,0,0,0-80.1-80.1,75.11,75.11,0,0,0-1.5,150.2H382.5v10H552.8A80.17,80.17,0,0,0,632.4,261.4Zm-77.7,13.1a13.2,13.2,0,1,1,13.2-13.2A13.19,13.19,0,0,1,554.7,274.5Z"/><line class="cls-6" x1="550.7" y1="331.5" x2="550.7" y2="341.5"/></svg>