<svg id="图层_1" data-name="图层 1" xmlns="http://www.w3.org/2000/svg" viewBox="0 0 850.4 566.9"><defs><style>.cls-1{fill:#fff;}.cls-10,.cls-11,.cls-2,.cls-8{fill:none;}.cls-2{stroke:#eee;}.cls-11,.cls-2{stroke-miterlimit:10;}.cls-3,.cls-4,.cls-5,.cls-6,.cls-7{isolation:isolate;font-size:16.64px;font-family:Calibri-Bold, Calibri;font-weight:700;}.cls-3,.cls-4,.cls-5,.cls-6,.cls-7,.cls-9{fill:#999;}.cls-4{letter-spacing:-0.02em;}.cls-5{letter-spacing:-0.01em;}.cls-6{letter-spacing:-0.09em;}.cls-7{letter-spacing:-0.01em;}.cls-10,.cls-11,.cls-8{stroke:#999;}.cls-10,.cls-8{stroke-linejoin:round;}.cls-8{stroke-width:2px;}.cls-10{stroke-width:2.7px;}.cls-11{stroke-width:0.9px;}</style></defs><rect class="cls-1" width="850.4" height="566.9"/><line class="cls-2" x1="850.4" y1="46.7" y2="46.7"/><line class="cls-2" x1="850.4" y1="165.1" y2="165.1"/><line class="cls-2" x1="850.4" y1="283.5" y2="283.5"/><line class="cls-2" x1="850.4" y1="401.9" y2="401.9"/><line class="cls-2" x1="850.4" y1="105.9" y2="105.9"/><line class="cls-2" x1="850.4" y1="224.3" y2="224.3"/><line class="cls-2" x1="850.4" y1="342.7" y2="342.7"/><line class="cls-2" x1="850.4" y1="461" y2="461"/><line class="cls-2" x1="850.4" y1="520.2" y2="520.2"/><line class="cls-2" x1="850.4" y1="135.5" y2="135.5"/><line class="cls-2" x1="850.4" y1="253.9" y2="253.9"/><line class="cls-2" x1="850.4" y1="372.3" y2="372.3"/><line class="cls-2" x1="850.4" y1="76.3" y2="76.3"/><line class="cls-2" x1="850.4" y1="17.1" y2="17.1"/><line class="cls-2" x1="850.4" y1="194.7" y2="194.7"/><line class="cls-2" x1="850.4" y1="313.1" y2="313.1"/><line class="cls-2" x1="850.4" y1="431.4" y2="431.4"/><line class="cls-2" x1="850.4" y1="490.6" y2="490.6"/><line class="cls-2" x1="850.4" y1="549.8" y2="549.8"/><line class="cls-2" x1="10.8" x2="10.8" y2="566.9"/><line class="cls-2" x1="129.2" x2="129.2" y2="566.9"/><line class="cls-2" x1="247.6" x2="247.6" y2="566.9"/><line class="cls-2" x1="366" x2="366" y2="566.9"/><line class="cls-2" x1="484.4" x2="484.4" y2="566.9"/><line class="cls-2" x1="602.8" x2="602.8" y2="566.9"/><line class="cls-2" x1="839.5" x2="839.5" y2="566.9"/><line class="cls-2" x1="721.2" x2="721.2" y2="566.9"/><line class="cls-2" x1="70" x2="70" y2="566.9"/><line class="cls-2" x1="188.4" x2="188.4" y2="566.9"/><line class="cls-2" x1="306.8" x2="306.8" y2="566.9"/><line class="cls-2" x1="425.2" x2="425.2" y2="566.9"/><line class="cls-2" x1="543.6" x2="543.6" y2="566.9"/><line class="cls-2" x1="662" x2="662" y2="566.9"/><line class="cls-2" x1="780.4" x2="780.4" y2="566.9"/><line class="cls-2" x1="810" x2="810" y2="566.9"/><line class="cls-2" x1="99.6" x2="99.6" y2="566.9"/><line class="cls-2" x1="218" x2="218" y2="566.9"/><line class="cls-2" x1="336.4" x2="336.4" y2="566.9"/><line class="cls-2" x1="454.8" x2="454.8" y2="566.9"/><line class="cls-2" x1="573.2" x2="573.2" y2="566.9"/><line class="cls-2" x1="691.6" x2="691.6" y2="566.9"/><line class="cls-2" x1="40.4" x2="40.4" y2="566.9"/><line class="cls-2" x1="158.8" x2="158.8" y2="566.9"/><line class="cls-2" x1="277.2" x2="277.2" y2="566.9"/><line class="cls-2" x1="395.6" x2="395.6" y2="566.9"/><line class="cls-2" x1="514" x2="514" y2="566.9"/><line class="cls-2" x1="632.4" x2="632.4" y2="566.9"/><line class="cls-2" x1="750.8" x2="750.8" y2="566.9"/><text class="cls-3" transform="translate(220.88 390.52)">St</text><text class="cls-4" transform="translate(234.51 390.52)">r</text><text class="cls-3" transform="translate(240.06 390.52)">aig</text><text class="cls-5" transform="translate(260.25 390.52)">h</text><text class="cls-3" transform="translate(269.03 390.52)">t</text><text class="cls-6" transform="translate(278.56 390.52)">T</text><text class="cls-3" transform="translate(285.36 390.52)">ee</text><text class="cls-7" transform="translate(532.17 390.52)">R</text><text class="cls-3" transform="translate(541.29 390.52)">educing</text><text class="cls-6" transform="translate(599.16 390.52)">T</text><text class="cls-3" transform="translate(605.96 390.52)">ee</text><text class="cls-3" transform="translate(313.11 205.66)">T</text><path class="cls-8" d="M209.73,279.43a39,39,0,0,0,36.89-38.18V221.37h2.77v-1.85H226.28v20.71A18.82,18.82,0,0,1,208.72,259l-.84.09H188.1v20.24h21.63Z"/><path class="cls-8" d="M315.58,279.43h21.63V259.18H317.43l-.84-.09A18.81,18.81,0,0,1,299,240.32v-20.8H278.69v21.64A39,39,0,0,0,315.58,279.43Z"/><rect class="cls-9" x="265.29" y="219.52" width="5.36" height="1.85"/><rect class="cls-9" x="254.66" y="219.52" width="5.27" height="1.85"/><rect class="cls-10" x="275.92" y="219.52" width="2.77" height="1.85"/><rect class="cls-10" x="335.36" y="279.43" width="1.85" height="2.77"/><rect class="cls-9" x="335.36" y="286.91" width="1.85" height="4.71"/><rect class="cls-9" x="335.36" y="296.34" width="1.85" height="4.71"/><polygon class="cls-8" points="335.36 308.55 263.44 308.55 263.44 308.27 261.59 308.27 261.59 308.55 189.86 308.55 189.86 305.77 188.01 305.77 188.01 308.55 188.01 308.55 188.01 328.79 337.21 328.79 337.21 308.55 337.21 308.55 337.21 305.77 335.36 305.77 335.36 308.55"/><rect class="cls-10" x="188.01" y="279.43" width="1.85" height="2.77"/><rect class="cls-9" x="188.01" y="286.91" width="1.85" height="4.71"/><rect class="cls-9" x="188.01" y="296.34" width="1.85" height="4.71"/><rect class="cls-9" x="311.51" y="293.01" width="5.73" height="1.85"/><rect class="cls-9" x="322.97" y="293.01" width="5.73" height="1.85"/><rect class="cls-9" x="265.47" y="293.01" width="5.73" height="1.85"/><rect class="cls-9" x="277.03" y="293.01" width="5.73" height="1.85"/><rect class="cls-9" x="299.96" y="293.01" width="5.73" height="1.85"/><rect class="cls-9" x="288.49" y="293.01" width="5.73" height="1.85"/><rect class="cls-9" x="230.99" y="293.01" width="5.73" height="1.85"/><rect class="cls-9" x="242.55" y="293.01" width="5.73" height="1.85"/><rect class="cls-9" x="254.01" y="293.01" width="5.73" height="1.85"/><rect class="cls-9" x="196.51" y="293.01" width="5.73" height="1.85"/><rect class="cls-9" x="219.53" y="293.01" width="5.73" height="1.85"/><rect class="cls-9" x="208.07" y="293.01" width="5.73" height="1.85"/><rect class="cls-9" x="261.59" y="274.99" width="1.85" height="5.55"/><rect class="cls-9" x="261.59" y="252.8" width="1.85" height="5.55"/><rect class="cls-9" x="261.59" y="286.08" width="1.85" height="5.55"/><rect class="cls-9" x="261.59" y="263.9" width="1.85" height="5.55"/><rect class="cls-9" x="261.59" y="241.71" width="1.85" height="5.55"/><rect class="cls-9" x="261.59" y="219.52" width="1.85" height="5.55"/><rect class="cls-9" x="261.59" y="297.17" width="1.85" height="5.55"/><rect class="cls-9" x="261.59" y="230.62" width="1.85" height="5.55"/><path class="cls-8" d="M641.89,259.18H622.11l-.83-.09a18.82,18.82,0,0,1-17.57-18.77v-20.8H580.6v1.85h2.78v19.79a39,39,0,0,0,36.88,38.17h36.15V259.09H641.89Z"/><path class="cls-8" d="M534.57,279.43h1.85a39,39,0,0,0,36.88-38.18V221.37h2.77v-1.85H553v20.71A18.81,18.81,0,0,1,535.4,259l-.83.09h-34.3v20.24h34.3Z"/><rect class="cls-10" x="500.27" y="279.43" width="1.85" height="2.77"/><rect class="cls-9" x="500.27" y="286.73" width="1.85" height="4.53"/><rect class="cls-9" x="500.27" y="295.79" width="1.85" height="4.53"/><rect class="cls-10" x="654.56" y="279.43" width="1.85" height="2.77"/><rect class="cls-9" x="654.56" y="286.73" width="1.85" height="4.53"/><rect class="cls-9" x="654.56" y="295.79" width="1.85" height="4.53"/><polygon class="cls-8" points="656.41 304.85 654.56 304.85 654.56 307.62 502.12 307.62 502.12 304.85 500.27 304.85 500.27 307.62 500.27 307.62 500.27 329.71 656.5 329.71 656.5 307.62 656.41 307.62 656.41 304.85"/><rect class="cls-9" x="564.43" y="292.55" width="5.55" height="1.85"/><rect class="cls-9" x="575.52" y="292.55" width="5.55" height="1.85"/><rect class="cls-9" x="553.24" y="292.55" width="5.55" height="1.85"/><rect class="cls-9" x="530.87" y="292.55" width="5.55" height="1.85"/><rect class="cls-9" x="542.06" y="292.55" width="5.55" height="1.85"/><rect class="cls-9" x="519.78" y="292.55" width="5.55" height="1.85"/><rect class="cls-9" x="642.54" y="292.55" width="5.55" height="1.85"/><rect class="cls-9" x="609.08" y="292.55" width="5.55" height="1.85"/><rect class="cls-9" x="508.59" y="292.55" width="5.55" height="1.85"/><rect class="cls-9" x="631.35" y="292.55" width="5.55" height="1.85"/><rect class="cls-9" x="620.17" y="292.55" width="5.55" height="1.85"/><rect class="cls-9" x="586.71" y="292.55" width="5.55" height="1.85"/><rect class="cls-9" x="597.89" y="292.55" width="5.55" height="1.85"/><rect class="cls-9" x="577.37" y="230.62" width="1.85" height="5.55"/><rect class="cls-9" x="577.37" y="297.17" width="1.85" height="5.55"/><rect class="cls-9" x="577.37" y="274.99" width="1.85" height="5.55"/><rect class="cls-9" x="577.37" y="263.9" width="1.85" height="5.55"/><rect class="cls-9" x="577.37" y="286.08" width="1.85" height="5.55"/><rect class="cls-9" x="577.37" y="252.8" width="1.85" height="5.55"/><rect class="cls-9" x="577.37" y="241.71" width="1.85" height="5.55"/><line class="cls-11" x1="226.28" y1="185.41" x2="226.28" y2="219.52"/><text class="cls-3" transform="translate(253.18 184.14)">D2</text><text class="cls-3" transform="translate(152.72 262.25)">M</text><text class="cls-3" transform="translate(359.56 298.24)">D1</text><text class="cls-3" transform="translate(220.88 358.22)">C</text><line class="cls-11" x1="299.03" y1="219.52" x2="299.03" y2="185.41"/><line class="cls-11" x1="232.84" y1="192.25" x2="292.37" y2="192.25"/><polygon class="cls-9" points="234.23 196.88 226.28 192.25 234.23 187.63 234.23 196.88"/><polygon class="cls-9" points="291.08 196.88 299.03 192.25 291.08 187.63 291.08 196.88"/><line class="cls-11" x1="278.69" y1="219.52" x2="278.69" y2="203.26"/><line class="cls-11" x1="272.04" y1="211.39" x2="262.52" y2="211.39"/><polygon class="cls-9" points="270.74 206.77 278.69 211.39 270.74 216.01 270.74 206.77"/><line class="cls-11" x1="315.3" y1="211.39" x2="305.69" y2="211.39"/><polygon class="cls-9" points="306.98 206.77 299.03 211.39 306.98 216.01 306.98 206.77"/><text class="cls-3" transform="translate(617.49 205.66)">T</text><text class="cls-3" transform="translate(569.28 184.14)">D2</text><line class="cls-11" x1="559.62" y1="192.25" x2="597.06" y2="192.25"/><polygon class="cls-9" points="561.01 196.88 552.97 192.25 561.01 187.63 561.01 196.88"/><polygon class="cls-9" points="595.67 196.88 603.72 192.25 595.67 187.63 595.67 196.88"/><line class="cls-11" x1="576.63" y1="211.39" x2="566.83" y2="211.39"/><polygon class="cls-9" points="575.34 206.77 583.28 211.39 575.34 216.01 575.34 206.77"/><line class="cls-11" x1="619.61" y1="211.39" x2="610" y2="211.39"/><polygon class="cls-9" points="611.39 206.77 603.44 211.39 611.39 216.01 611.39 206.77"/><line class="cls-11" x1="226.28" y1="219.52" x2="166.75" y2="219.52"/><line class="cls-11" x1="196.61" y1="293.94" x2="167.21" y2="293.94"/><line class="cls-11" x1="176.08" y1="226.18" x2="176.08" y2="287.28"/><polygon class="cls-9" points="171.46 227.57 176.09 219.53 180.71 227.57 171.46 227.57"/><polygon class="cls-9" points="171.46 285.9 176.09 293.94 180.71 285.9 171.46 285.9"/><text class="cls-3" transform="translate(457.39 262.25)">M</text><line class="cls-11" x1="552.96" y1="219.52" x2="471.43" y2="219.52"/><line class="cls-11" x1="500.27" y1="293.48" x2="470.88" y2="293.48"/><line class="cls-11" x1="480.77" y1="226.18" x2="480.77" y2="286.91"/><polygon class="cls-9" points="476.15 227.57 480.77 219.53 485.39 227.57 476.15 227.57"/><polygon class="cls-9" points="476.15 285.53 480.77 293.48 485.39 285.53 476.15 285.53"/><line class="cls-11" x1="188.93" y1="328.79" x2="188.93" y2="350.14"/><line class="cls-11" x1="262.61" y1="328.79" x2="262.61" y2="350.14"/><line class="cls-11" x1="195.59" y1="339.51" x2="256.05" y2="339.51"/><polygon class="cls-9" points="196.98 344.04 188.93 339.51 196.98 334.89 196.98 344.04"/><polygon class="cls-9" points="254.66 344.04 262.61 339.51 254.66 334.89 254.66 344.04"/><text class="cls-3" transform="translate(535.4 358.22)">C</text><line class="cls-11" x1="501.29" y1="328.79" x2="501.29" y2="350.14"/><line class="cls-11" x1="578.29" y1="328.79" x2="578.29" y2="350.14"/><line class="cls-11" x1="507.95" y1="339.51" x2="571.64" y2="339.51"/><polygon class="cls-9" points="509.33 344.04 501.29 339.51 509.33 334.89 509.33 344.04"/><polygon class="cls-9" points="570.34 344.04 578.29 339.51 570.34 334.89 570.34 344.04"/><line class="cls-11" x1="337.21" y1="259.18" x2="360.6" y2="259.18"/><line class="cls-11" x1="337.21" y1="328.79" x2="360.6" y2="328.79"/><line class="cls-11" x1="352.09" y1="265.74" x2="352.09" y2="322.13"/><polygon class="cls-9" points="347.47 267.13 352.09 259.18 356.71 267.13 347.47 267.13"/><polygon class="cls-9" points="347.47 320.84 352.09 328.79 356.71 320.84 347.47 320.84"/><text class="cls-3" transform="translate(678.76 298.5)">D1</text><line class="cls-11" x1="656.41" y1="259.18" x2="679.79" y2="259.18"/><line class="cls-11" x1="656.41" y1="329.71" x2="679.79" y2="329.71"/><line class="cls-11" x1="671.29" y1="265.74" x2="671.29" y2="323.06"/><polygon class="cls-9" points="666.67 267.13 671.29 259.18 675.91 267.13 666.67 267.13"/><polygon class="cls-9" points="666.67 321.76 671.29 329.71 675.91 321.76 666.67 321.76"/><line class="cls-11" x1="603.71" y1="219.52" x2="603.71" y2="185.41"/><line class="cls-11" x1="583.38" y1="219.52" x2="583.38" y2="203.26"/><line class="cls-11" x1="552.96" y1="219.52" x2="552.96" y2="185.41"/></svg>