<svg id="图层_1" data-name="图层 1" xmlns="http://www.w3.org/2000/svg" viewBox="0 0 850.4 566.9"><defs><style>.cls-1{fill:#fff;}.cls-2,.cls-3,.cls-4,.cls-5{fill:none;}.cls-2{stroke:#eee;}.cls-2,.cls-3,.cls-5{stroke-miterlimit:10;}.cls-3,.cls-4,.cls-5{stroke:#999;}.cls-3,.cls-4{stroke-width:2.7px;}.cls-4{stroke-linejoin:round;}.cls-5{stroke-width:0.9px;}.cls-6,.cls-7{fill:#999;}.cls-7{isolation:isolate;font-size:16.2px;font-family:Calibri-Bold, Calibri;font-weight:700;}</style></defs><title>weldedpipedrawing1</title><rect class="cls-1" width="850.4" height="566.9"/><line class="cls-2" x1="850.4" y1="46.7" y2="46.7"/><line class="cls-2" x1="850.4" y1="165.1" y2="165.1"/><line class="cls-2" x1="850.4" y1="283.5" y2="283.5"/><line class="cls-2" x1="850.4" y1="401.9" y2="401.9"/><line class="cls-2" x1="850.4" y1="105.9" y2="105.9"/><line class="cls-2" x1="850.4" y1="224.3" y2="224.3"/><line class="cls-2" x1="850.4" y1="342.7" y2="342.7"/><line class="cls-2" x1="850.4" y1="461" y2="461"/><line class="cls-2" x1="850.4" y1="520.2" y2="520.2"/><line class="cls-2" x1="850.4" y1="135.5" y2="135.5"/><line class="cls-2" x1="850.4" y1="253.9" y2="253.9"/><line class="cls-2" x1="850.4" y1="372.3" y2="372.3"/><line class="cls-2" x1="850.4" y1="76.3" y2="76.3"/><line class="cls-2" x1="850.4" y1="17.1" y2="17.1"/><line class="cls-2" x1="850.4" y1="194.7" y2="194.7"/><line class="cls-2" x1="850.4" y1="313.1" y2="313.1"/><line class="cls-2" x1="850.4" y1="431.4" y2="431.4"/><line class="cls-2" x1="850.4" y1="490.6" y2="490.6"/><line class="cls-2" x1="850.4" y1="549.8" y2="549.8"/><line class="cls-2" x1="10.8" x2="10.8" y2="566.9"/><line class="cls-2" x1="129.2" x2="129.2" y2="566.9"/><line class="cls-2" x1="247.6" x2="247.6" y2="566.9"/><line class="cls-2" x1="366" x2="366" y2="566.9"/><line class="cls-2" x1="484.4" x2="484.4" y2="566.9"/><line class="cls-2" x1="602.8" x2="602.8" y2="566.9"/><line class="cls-2" x1="839.5" x2="839.5" y2="566.9"/><line class="cls-2" x1="721.2" x2="721.2" y2="566.9"/><line class="cls-2" x1="70" x2="70" y2="566.9"/><line class="cls-2" x1="188.4" x2="188.4" y2="566.9"/><line class="cls-2" x1="306.8" x2="306.8" y2="566.9"/><line class="cls-2" x1="425.2" x2="425.2" y2="566.9"/><line class="cls-2" x1="543.6" x2="543.6" y2="566.9"/><line class="cls-2" x1="662" x2="662" y2="566.9"/><line class="cls-2" x1="780.4" x2="780.4" y2="566.9"/><line class="cls-2" x1="810" x2="810" y2="566.9"/><line class="cls-2" x1="99.6" x2="99.6" y2="566.9"/><line class="cls-2" x1="218" x2="218" y2="566.9"/><line class="cls-2" x1="336.4" x2="336.4" y2="566.9"/><line class="cls-2" x1="454.8" x2="454.8" y2="566.9"/><line class="cls-2" x1="573.2" x2="573.2" y2="566.9"/><line class="cls-2" x1="691.6" x2="691.6" y2="566.9"/><line class="cls-2" x1="40.4" x2="40.4" y2="566.9"/><line class="cls-2" x1="158.8" x2="158.8" y2="566.9"/><line class="cls-2" x1="277.2" x2="277.2" y2="566.9"/><line class="cls-2" x1="395.6" x2="395.6" y2="566.9"/><line class="cls-2" x1="514" x2="514" y2="566.9"/><line class="cls-2" x1="632.4" x2="632.4" y2="566.9"/><line class="cls-2" x1="750.8" x2="750.8" y2="566.9"/><path class="cls-3" d="M201.87,228.44a48.41,48.41,0,1,0,48.41,48.41h0A48.48,48.48,0,0,0,201.87,228.44Zm0,86.69a38.28,38.28,0,1,1,38.28-38.28A38.28,38.28,0,0,1,201.87,315.13Z"/><rect class="cls-4" x="299.68" y="228.44" width="404.8" height="96.72"/><line class="cls-5" x1="153.47" y1="369.53" x2="153.47" y2="184.54"/><line class="cls-5" x1="163.59" y1="369.53" x2="163.59" y2="276.76"/><line class="cls-5" x1="250.19" y1="276.76" x2="250.19" y2="184.54"/><line class="cls-5" x1="299.68" y1="276.76" x2="299.68" y2="184.54"/><line class="cls-5" x1="704.48" y1="276.76" x2="704.48" y2="184.54"/><line class="cls-5" x1="159.94" y1="196.23" x2="243.71" y2="196.23"/><polygon class="cls-6" points="161.2 200.64 153.47 196.23 161.2 191.73 161.2 200.64"/><polygon class="cls-6" points="242.45 200.64 250.19 196.23 242.45 191.73 242.45 200.64"/><line class="cls-5" x1="153.47" y1="358.19" x2="163.65" y2="358.19"/><polygon class="cls-6" points="171.38 362.6 163.65 358.19 171.38 353.69 171.38 362.6"/><polygon class="cls-6" points="145.73 362.6 153.47 358.19 145.73 353.69 145.73 362.6"/><line class="cls-5" x1="306.15" y1="196.23" x2="698" y2="196.23"/><polygon class="cls-6" points="307.5 200.64 299.68 196.23 307.5 191.73 307.5 200.64"/><polygon class="cls-6" points="696.74 200.64 704.48 196.23 696.74 191.73 696.74 200.64"/><text class="cls-7" transform="translate(191.25 189)">OD</text><text class="cls-7" transform="translate(498.76 189)">L</text><text class="cls-7" transform="translate(145.01 385.75)">THK</text></svg>