<svg id="图层_1" data-name="图层 1" xmlns="http://www.w3.org/2000/svg" viewBox="0 0 165.03 82.7"><defs><style>.cls-1{fill:#323333;}</style></defs><title>cold-rolling</title><path class="cls-1" d="M165,18.61H88.41a39.75,39.75,0,0,1-13.49-2.37L42,4.3A71.54,71.54,0,0,0,17.54,0H0V20.31H16.49a165.32,165.32,0,0,1,27.12,2.24l25.44,4.22a148.24,148.24,0,0,0,24.26,2H165Z"/><path class="cls-1" d="M165,64.09H88.41a39.51,39.51,0,0,0-13.49,2.37L42,78.4a71.78,71.78,0,0,1-24.45,4.3H0V62.38H16.49a165.31,165.31,0,0,0,27.12-2.23l25.44-4.22a148.25,148.25,0,0,1,24.26-2H165Z"/></svg>