<svg id="图层_1" data-name="图层 1" xmlns="http://www.w3.org/2000/svg" viewBox="0 0 410 337.8"><defs><style>.cls-1{fill:#666;}.cls-2,.cls-5{fill:#2f5288;}.cls-3,.cls-5,.cls-6{font-size:12px;}.cls-3,.cls-4{fill:#fff;}.cls-3,.cls-4,.cls-5,.cls-6{font-family:Calibri-Bold, Calibri;font-weight:700;}.cls-4{font-size:10px;}.cls-6{fill:#323333;}.cls-7{letter-spacing:-0.02em;}.cls-8{letter-spacing:-0.01em;}.cls-12,.cls-13,.cls-9{fill:none;stroke-miterlimit:10;}.cls-9{stroke:#323333;stroke-linecap:round;stroke-width:0.67px;}.cls-10{letter-spacing:-0.01em;}.cls-11{letter-spacing:-0.01em;}.cls-12,.cls-13{stroke:#2f5288;}.cls-13{stroke-width:1.02px;}</style></defs><rect class="cls-1" x="53.36" y="56.48" width="268.15" height="60"/><rect class="cls-1" x="338.36" y="56.48" width="15" height="60"/><polygon class="cls-2" points="208.28 143.65 208.28 137.49 201.71 137.49 201.71 143.65 197.25 143.65 205 157.08 212.75 143.65 208.28 143.65"/><path class="cls-1" d="M259.83,178.09a99.92,99.92,0,0,0-33.9,5.92h0a100.24,100.24,0,0,1-30.18,5.83v36.5a100.24,100.24,0,0,1,30.18,5.83h0a99.92,99.92,0,0,0,33.9,5.92h72.53v-60Z"/><path class="cls-1" d="M189,189.86a99.93,99.93,0,0,1-30.25-5.64l-1.19-.42a100,100,0,0,0-33.31-5.71H53.36v60h70.86a100,100,0,0,0,33.31-5.71l1.19-.42A99.93,99.93,0,0,1,189,226.32Z"/><text class="cls-3" transform="translate(339.99 89.28)">S1</text><rect class="cls-1" x="342.71" y="190.04" width="10.66" height="36.11"/><text class="cls-4" transform="translate(343.14 210.89)">S2</text><text class="cls-5" transform="translate(181.86 35.22)">L1</text><text class="cls-6" transform="translate(53.36 302.42)">Elon<tspan class="cls-7" x="21.69" y="0">g</tspan><tspan class="cls-8" x="27.18" y="0">a</tspan><tspan x="32.99" y="0">tion = </tspan></text><text class="cls-6" transform="translate(131.77 292.05)">L2 - L1</text><text class="cls-6" transform="translate(141.9 312.03)">L1</text><line class="cls-9" x1="119.74" y1="299.24" x2="175.21" y2="299.24"/><text class="cls-6" transform="translate(194.94 302.42)"><tspan class="cls-10">R</tspan><tspan x="6.58" y="0">eduction of A</tspan><tspan class="cls-11" x="73.38" y="0">r</tspan><tspan x="77.51" y="0">ea = </tspan></text><text class="cls-6" transform="translate(309.32 292.05)">S1 - S2</text><text class="cls-6" transform="translate(319.75 312.03)">S1</text><line class="cls-9" x1="297.88" y1="299.24" x2="353.36" y2="299.24"/><line class="cls-12" x1="60.54" y1="42.79" x2="314.34" y2="42.79"/><polygon class="cls-2" points="62 47.78 53.36 42.79 62 37.8 62 47.78"/><polygon class="cls-2" points="312.88 47.78 321.51 42.79 312.88 37.8 312.88 47.78"/><text class="cls-5" transform="translate(187.06 248.34) scale(1.04 1)">L2</text><line class="cls-13" x1="60.68" y1="255.92" x2="325.04" y2="255.92"/><polygon class="cls-2" points="62.17 261 53.36 255.91 62.17 250.83 62.17 261"/><polygon class="cls-2" points="323.55 261 332.36 255.91 323.55 250.83 323.55 261"/></svg>