<?xml version="1.0" encoding="utf-8"?>
<!-- Generator: Adobe Illustrator 23.0.0, SVG Export Plug-In . SVG Version: 6.00 Build 0)  -->
<svg version="1.1" id="图层_1" xmlns="http://www.w3.org/2000/svg" xmlns:xlink="http://www.w3.org/1999/xlink" x="0px" y="0px"
	 viewBox="0 0 850.4 243.1" style="enable-background:new 0 0 850.4 243.1;" xml:space="preserve">
<style type="text/css">
	.st0{fill:#32558E;}
	.st1{fill:none;stroke:#666666;stroke-width:2;stroke-linecap:round;stroke-miterlimit:10;}
	.st2{fill:none;stroke:#666666;stroke-width:2;stroke-linecap:round;stroke-miterlimit:10;stroke-dasharray:12.0103,12.0103;}
	#layer2{
		animation: layer2 5s linear infinite;
	}
	@keyframes layer2{
		0%{transform: translate(0, 0);}
		100%{transform: translate(130px, 0);}
	}
	#layer1{
		animation: layer1 5s linear infinite;
	}
	@keyframes layer1{
		0%{transform: translate(0, 0);}
		100%{transform: translate(-130px, 0);}
	}
</style>
<title>cold-rolling</title>
<title>cold-rolling</title>
<g id="layer1">
	<path class="st0" d="M97.9,27.5c-15.9,0-28.7,12.8-28.7,28.7S82,84.9,97.9,84.9s28.7-12.8,28.7-28.7S113.8,27.5,97.9,27.5z
		 M101.3,63.6c0,0.2,0,0.4-0.1,0.5c-0.1,0.2-0.2,0.3-0.3,0.4c-0.1,0.1-0.3,0.2-0.4,0.2c-0.2,0-0.3,0.1-0.5,0.1h-1.4
		c-0.3,0-0.6,0-0.8-0.1c-0.2-0.1-0.4-0.2-0.6-0.3c-0.2-0.2-0.4-0.4-0.5-0.6c-0.2-0.3-0.4-0.6-0.6-1L92,55.1c-0.2-0.5-0.5-1-0.7-1.5
		s-0.5-1-0.7-1.5l0,0c0,0.6,0.1,1.2,0.1,1.8s0,1.2,0,1.9v8.6c0,0.1,0,0.2-0.1,0.2c0,0.1-0.1,0.1-0.2,0.2s-0.3,0.1-0.5,0.1
		s-0.4,0-0.8,0c-0.3,0-0.5,0-0.7,0s-0.3-0.1-0.5-0.1c-0.1,0-0.2-0.1-0.2-0.2c0-0.1-0.1-0.1-0.1-0.2V49.6c0-0.4,0.1-0.7,0.3-0.9
		c0.2-0.2,0.5-0.3,0.9-0.3h1.8c0.3,0,0.6,0,0.8,0.1c0.2,0.1,0.4,0.1,0.6,0.3c0.2,0.1,0.3,0.3,0.5,0.5s0.3,0.5,0.5,0.8l3.2,6
		c0.2,0.4,0.4,0.7,0.6,1.1c0.2,0.4,0.4,0.7,0.5,1.1s0.3,0.7,0.5,1s0.3,0.7,0.5,1l0,0c0-0.6,0-1.2-0.1-1.9c0-0.6,0-1.3,0-1.8v-7.7
		c0-0.1,0-0.2,0.1-0.2c0.1-0.1,0.1-0.1,0.3-0.2s0.3-0.1,0.5-0.1s0.4,0,0.8,0c0.3,0,0.5,0,0.7,0s0.3,0.1,0.5,0.1s0.2,0.1,0.2,0.2
		c0,0.1,0.1,0.1,0.1,0.2v14.7H101.3z M107.9,64.4c0,0.1,0,0.2-0.1,0.2c-0.1,0.1-0.1,0.1-0.3,0.2c-0.1,0-0.3,0.1-0.5,0.1
		s-0.5,0-0.8,0s-0.6,0-0.8,0c-0.2,0-0.4-0.1-0.5-0.1s-0.2-0.1-0.3-0.2c-0.1-0.1-0.1-0.1-0.1-0.2V53.1c0-0.1,0-0.2,0.1-0.2
		c0.1-0.1,0.1-0.1,0.3-0.2c0.1,0,0.3-0.1,0.5-0.1s0.5,0,0.8,0s0.6,0,0.8,0c0.2,0,0.4,0.1,0.5,0.1s0.2,0.1,0.3,0.2
		c0.1,0.1,0.1,0.1,0.1,0.2V64.4z M107.7,50.5c-0.3,0.2-0.7,0.4-1.5,0.4c-0.7,0-1.2-0.1-1.5-0.4s-0.4-0.7-0.4-1.3s0.1-1.1,0.4-1.3
		s0.7-0.4,1.5-0.4c0.7,0,1.2,0.1,1.4,0.4c0.3,0.2,0.4,0.7,0.4,1.3C108.1,49.8,108,50.3,107.7,50.5z"/>
	<path class="st0" d="M228.7,27.5c-15.9,0-28.7,12.8-28.7,28.7s12.8,28.7,28.7,28.7s28.7-12.8,28.7-28.7S244.6,27.5,228.7,27.5z
		 M232.1,63.6c0,0.2,0,0.4-0.1,0.5c-0.1,0.2-0.2,0.3-0.3,0.4c-0.1,0.1-0.3,0.2-0.4,0.2c-0.2,0-0.3,0.1-0.5,0.1h-1.4
		c-0.3,0-0.6,0-0.8-0.1s-0.4-0.2-0.6-0.3c-0.2-0.2-0.4-0.4-0.5-0.6c-0.2-0.3-0.4-0.6-0.6-1l-4.1-7.7c-0.2-0.5-0.5-1-0.7-1.5
		s-0.5-1-0.7-1.5l0,0c0,0.6,0.1,1.2,0.1,1.8s0,1.2,0,1.9v8.6c0,0.1,0,0.2-0.1,0.2c0,0.1-0.1,0.1-0.2,0.2s-0.3,0.1-0.5,0.1
		s-0.4,0-0.8,0c-0.3,0-0.5,0-0.7,0s-0.3-0.1-0.5-0.1c-0.1,0-0.2-0.1-0.2-0.2c0-0.1-0.1-0.1-0.1-0.2V49.6c0-0.4,0.1-0.7,0.3-0.9
		s0.5-0.3,0.9-0.3h1.8c0.3,0,0.6,0,0.8,0.1s0.4,0.1,0.6,0.3c0.2,0.1,0.3,0.3,0.5,0.5s0.3,0.5,0.5,0.8l3.2,6c0.2,0.4,0.4,0.7,0.6,1.1
		c0.2,0.4,0.4,0.7,0.5,1.1s0.3,0.7,0.5,1s0.3,0.7,0.5,1l0,0c0-0.6,0-1.2-0.1-1.9c0-0.6,0-1.3,0-1.8v-7.7c0-0.1,0-0.2,0.1-0.2
		c0.1-0.1,0.1-0.1,0.3-0.2s0.3-0.1,0.5-0.1s0.4,0,0.8,0c0.3,0,0.5,0,0.7,0s0.3,0.1,0.5,0.1s0.2,0.1,0.2,0.2c0,0.1,0.1,0.1,0.1,0.2
		v14.7H232.1z M238.7,64.4c0,0.1,0,0.2-0.1,0.2c-0.1,0.1-0.1,0.1-0.3,0.2c-0.1,0-0.3,0.1-0.5,0.1s-0.5,0-0.8,0s-0.6,0-0.8,0
		s-0.4-0.1-0.5-0.1s-0.2-0.1-0.3-0.2c-0.1-0.1-0.1-0.1-0.1-0.2V53.1c0-0.1,0-0.2,0.1-0.2c0.1-0.1,0.1-0.1,0.3-0.2
		c0.1,0,0.3-0.1,0.5-0.1s0.5,0,0.8,0s0.6,0,0.8,0s0.4,0.1,0.5,0.1s0.2,0.1,0.3,0.2c0.1,0.1,0.1,0.1,0.1,0.2V64.4z M238.5,50.5
		c-0.3,0.2-0.7,0.4-1.5,0.4c-0.7,0-1.2-0.1-1.5-0.4s-0.4-0.7-0.4-1.3s0.1-1.1,0.4-1.3s0.7-0.4,1.5-0.4c0.7,0,1.2,0.1,1.4,0.4
		c0.3,0.2,0.4,0.7,0.4,1.3C238.9,49.8,238.8,50.3,238.5,50.5z"/>
	<path class="st0" d="M359.4,27.5c-15.9,0-28.7,12.8-28.7,28.7s12.8,28.7,28.7,28.7s28.7-12.8,28.7-28.7S375.3,27.5,359.4,27.5z
		 M362.8,63.6c0,0.2,0,0.4-0.1,0.5c-0.1,0.2-0.2,0.3-0.3,0.4c-0.1,0.1-0.3,0.2-0.4,0.2c-0.2,0-0.3,0.1-0.5,0.1h-1.4
		c-0.3,0-0.6,0-0.8-0.1c-0.2-0.1-0.4-0.2-0.6-0.3c-0.2-0.2-0.4-0.4-0.5-0.6c-0.2-0.3-0.4-0.6-0.6-1l-4.1-7.7c-0.2-0.5-0.5-1-0.7-1.5
		s-0.5-1-0.7-1.5l0,0c0,0.6,0.1,1.2,0.1,1.8s0,1.2,0,1.9v8.6c0,0.1,0,0.2-0.1,0.2c0,0.1-0.1,0.1-0.2,0.2s-0.3,0.1-0.5,0.1
		s-0.4,0-0.8,0c-0.3,0-0.5,0-0.7,0s-0.3-0.1-0.5-0.1c-0.1,0-0.2-0.1-0.2-0.2c0-0.1-0.1-0.1-0.1-0.2V49.6c0-0.4,0.1-0.7,0.3-0.9
		c0.2-0.2,0.5-0.3,0.9-0.3h1.8c0.3,0,0.6,0,0.8,0.1c0.2,0.1,0.4,0.1,0.6,0.3c0.2,0.1,0.3,0.3,0.5,0.5s0.3,0.5,0.5,0.8l3.2,6
		c0.2,0.4,0.4,0.7,0.6,1.1c0.2,0.4,0.4,0.7,0.5,1.1s0.3,0.7,0.5,1s0.3,0.7,0.5,1l0,0c0-0.6,0-1.2-0.1-1.9c0-0.6,0-1.3,0-1.8v-7.7
		c0-0.1,0-0.2,0.1-0.2c0.1-0.1,0.1-0.1,0.3-0.2s0.3-0.1,0.5-0.1s0.4,0,0.8,0c0.3,0,0.5,0,0.7,0s0.3,0.1,0.5,0.1s0.2,0.1,0.2,0.2
		c0,0.1,0.1,0.1,0.1,0.2L362.8,63.6L362.8,63.6z M369.4,64.4c0,0.1,0,0.2-0.1,0.2c-0.1,0.1-0.1,0.1-0.3,0.2c-0.1,0-0.3,0.1-0.5,0.1
		s-0.5,0-0.8,0s-0.6,0-0.8,0c-0.2,0-0.4-0.1-0.5-0.1s-0.2-0.1-0.3-0.2c-0.1-0.1-0.1-0.1-0.1-0.2V53.1c0-0.1,0-0.2,0.1-0.2
		c0.1-0.1,0.1-0.1,0.3-0.2c0.1,0,0.3-0.1,0.5-0.1s0.5,0,0.8,0s0.6,0,0.8,0c0.2,0,0.4,0.1,0.5,0.1s0.2,0.1,0.3,0.2
		c0.1,0.1,0.1,0.1,0.1,0.2V64.4z M369.2,50.5c-0.3,0.2-0.7,0.4-1.5,0.4c-0.7,0-1.2-0.1-1.5-0.4s-0.4-0.7-0.4-1.3s0.1-1.1,0.4-1.3
		s0.7-0.4,1.5-0.4c0.7,0,1.2,0.1,1.4,0.4c0.3,0.2,0.4,0.7,0.4,1.3C369.6,49.8,369.5,50.3,369.2,50.5z"/>
	<path class="st0" d="M490.2,27.5c-15.9,0-28.7,12.8-28.7,28.7s12.8,28.7,28.7,28.7s28.7-12.8,28.7-28.7S506.1,27.5,490.2,27.5z
		 M493.6,63.6c0,0.2,0,0.4-0.1,0.5c-0.1,0.2-0.2,0.3-0.3,0.4c-0.1,0.1-0.3,0.2-0.4,0.2c-0.2,0-0.3,0.1-0.5,0.1h-1.4
		c-0.3,0-0.6,0-0.8-0.1c-0.2-0.1-0.4-0.2-0.6-0.3c-0.2-0.2-0.4-0.4-0.5-0.6c-0.2-0.3-0.4-0.6-0.6-1l-4.1-7.7c-0.2-0.5-0.5-1-0.7-1.5
		s-0.5-1-0.7-1.5l0,0c0,0.6,0.1,1.2,0.1,1.8s0,1.2,0,1.9v8.6c0,0.1,0,0.2-0.1,0.2c0,0.1-0.1,0.1-0.2,0.2s-0.3,0.1-0.5,0.1
		s-0.4,0-0.8,0c-0.3,0-0.5,0-0.7,0s-0.3-0.1-0.5-0.1c-0.1,0-0.2-0.1-0.2-0.2c0-0.1-0.1-0.1-0.1-0.2V49.6c0-0.4,0.1-0.7,0.3-0.9
		c0.2-0.2,0.5-0.3,0.9-0.3h1.8c0.3,0,0.6,0,0.8,0.1c0.2,0.1,0.4,0.1,0.6,0.3c0.2,0.1,0.3,0.3,0.5,0.5s0.3,0.5,0.5,0.8l3.2,6
		c0.2,0.4,0.4,0.7,0.6,1.1c0.2,0.4,0.4,0.7,0.5,1.1s0.3,0.7,0.5,1s0.3,0.7,0.5,1l0,0c0-0.6,0-1.2-0.1-1.9c0-0.6,0-1.3,0-1.8v-7.7
		c0-0.1,0-0.2,0.1-0.2c0.1-0.1,0.1-0.1,0.3-0.2s0.3-0.1,0.5-0.1s0.4,0,0.8,0c0.3,0,0.5,0,0.7,0s0.3,0.1,0.5,0.1s0.2,0.1,0.2,0.2
		c0,0.1,0.1,0.1,0.1,0.2L493.6,63.6L493.6,63.6z M500.2,64.4c0,0.1,0,0.2-0.1,0.2c-0.1,0.1-0.1,0.1-0.3,0.2c-0.1,0-0.3,0.1-0.5,0.1
		s-0.5,0-0.8,0s-0.6,0-0.8,0c-0.2,0-0.4-0.1-0.5-0.1s-0.2-0.1-0.3-0.2c-0.1-0.1-0.1-0.1-0.1-0.2V53.1c0-0.1,0-0.2,0.1-0.2
		c0.1-0.1,0.1-0.1,0.3-0.2c0.1,0,0.3-0.1,0.5-0.1s0.5,0,0.8,0s0.6,0,0.8,0c0.2,0,0.4,0.1,0.5,0.1s0.2,0.1,0.3,0.2
		c0.1,0.1,0.1,0.1,0.1,0.2V64.4z M500,50.5c-0.3,0.2-0.7,0.4-1.5,0.4c-0.7,0-1.2-0.1-1.5-0.4s-0.4-0.7-0.4-1.3s0.1-1.1,0.4-1.3
		s0.7-0.4,1.5-0.4c0.7,0,1.2,0.1,1.4,0.4c0.3,0.2,0.4,0.7,0.4,1.3C500.4,49.8,500.3,50.3,500,50.5z"/>
	<path class="st0" d="M620.9,27.5c-15.9,0-28.7,12.8-28.7,28.7s12.8,28.7,28.7,28.7s28.7-12.8,28.7-28.7S636.8,27.5,620.9,27.5z
		 M624.3,63.6c0,0.2,0,0.4-0.1,0.5c-0.1,0.2-0.2,0.3-0.3,0.4c-0.1,0.1-0.3,0.2-0.4,0.2c-0.2,0-0.3,0.1-0.5,0.1h-1.4
		c-0.3,0-0.6,0-0.8-0.1s-0.4-0.2-0.6-0.3c-0.2-0.2-0.4-0.4-0.5-0.6c-0.2-0.3-0.4-0.6-0.6-1l-4.1-7.7c-0.2-0.5-0.5-1-0.7-1.5
		s-0.5-1-0.7-1.5l0,0c0,0.6,0.1,1.2,0.1,1.8s0,1.2,0,1.9v8.6c0,0.1,0,0.2-0.1,0.2c0,0.1-0.1,0.1-0.2,0.2s-0.3,0.1-0.5,0.1
		s-0.4,0-0.8,0c-0.3,0-0.5,0-0.7,0s-0.3-0.1-0.5-0.1c-0.1,0-0.2-0.1-0.2-0.2c0-0.1-0.1-0.1-0.1-0.2V49.6c0-0.4,0.1-0.7,0.3-0.9
		s0.5-0.3,0.9-0.3h1.8c0.3,0,0.6,0,0.8,0.1s0.4,0.1,0.6,0.3c0.2,0.1,0.3,0.3,0.5,0.5s0.3,0.5,0.5,0.8l3.2,6c0.2,0.4,0.4,0.7,0.6,1.1
		c0.2,0.4,0.4,0.7,0.5,1.1s0.3,0.7,0.5,1s0.3,0.7,0.5,1l0,0c0-0.6,0-1.2-0.1-1.9c0-0.6,0-1.3,0-1.8v-7.7c0-0.1,0-0.2,0.1-0.2
		c0.1-0.1,0.1-0.1,0.3-0.2s0.3-0.1,0.5-0.1s0.4,0,0.8,0c0.3,0,0.5,0,0.7,0s0.3,0.1,0.5,0.1s0.2,0.1,0.2,0.2c0,0.1,0.1,0.1,0.1,0.2
		L624.3,63.6L624.3,63.6z M630.9,64.4c0,0.1,0,0.2-0.1,0.2c-0.1,0.1-0.1,0.1-0.3,0.2c-0.1,0-0.3,0.1-0.5,0.1s-0.5,0-0.8,0
		s-0.6,0-0.8,0s-0.4-0.1-0.5-0.1s-0.2-0.1-0.3-0.2c-0.1-0.1-0.1-0.1-0.1-0.2V53.1c0-0.1,0-0.2,0.1-0.2c0.1-0.1,0.1-0.1,0.3-0.2
		c0.1,0,0.3-0.1,0.5-0.1s0.5,0,0.8,0s0.6,0,0.8,0s0.4,0.1,0.5,0.1s0.2,0.1,0.3,0.2c0.1,0.1,0.1,0.1,0.1,0.2V64.4z M630.7,50.5
		c-0.3,0.2-0.7,0.4-1.5,0.4c-0.7,0-1.2-0.1-1.5-0.4s-0.4-0.7-0.4-1.3s0.1-1.1,0.4-1.3s0.7-0.4,1.5-0.4c0.7,0,1.2,0.1,1.4,0.4
		c0.3,0.2,0.4,0.7,0.4,1.3C631.1,49.8,631,50.3,630.7,50.5z"/>
	<path class="st0" d="M751.7,27.5c-15.9,0-28.7,12.8-28.7,28.7s12.8,28.7,28.7,28.7s28.7-12.8,28.7-28.7S767.6,27.5,751.7,27.5z
		 M755.1,63.6c0,0.2,0,0.4-0.1,0.5c-0.1,0.2-0.2,0.3-0.3,0.4c-0.1,0.1-0.3,0.2-0.4,0.2c-0.2,0-0.3,0.1-0.5,0.1h-1.4
		c-0.3,0-0.6,0-0.8-0.1s-0.4-0.2-0.6-0.3c-0.2-0.2-0.4-0.4-0.5-0.6c-0.2-0.3-0.4-0.6-0.6-1l-4.1-7.7c-0.2-0.5-0.5-1-0.7-1.5
		s-0.5-1-0.7-1.5l0,0c0,0.6,0.1,1.2,0.1,1.8s0,1.2,0,1.9v8.6c0,0.1,0,0.2-0.1,0.2c0,0.1-0.1,0.1-0.2,0.2s-0.3,0.1-0.5,0.1
		s-0.4,0-0.8,0c-0.3,0-0.5,0-0.7,0s-0.3-0.1-0.5-0.1c-0.1,0-0.2-0.1-0.2-0.2c0-0.1-0.1-0.1-0.1-0.2V49.6c0-0.4,0.1-0.7,0.3-0.9
		s0.5-0.3,0.9-0.3h1.8c0.3,0,0.6,0,0.8,0.1s0.4,0.1,0.6,0.3c0.2,0.1,0.3,0.3,0.5,0.5s0.3,0.5,0.5,0.8l3.2,6c0.2,0.4,0.4,0.7,0.6,1.1
		c0.2,0.4,0.4,0.7,0.5,1.1s0.3,0.7,0.5,1s0.3,0.7,0.5,1l0,0c0-0.6,0-1.2-0.1-1.9c0-0.6,0-1.3,0-1.8v-7.7c0-0.1,0-0.2,0.1-0.2
		c0.1-0.1,0.1-0.1,0.3-0.2s0.3-0.1,0.5-0.1s0.4,0,0.8,0c0.3,0,0.5,0,0.7,0s0.3,0.1,0.5,0.1s0.2,0.1,0.2,0.2c0,0.1,0.1,0.1,0.1,0.2
		L755.1,63.6L755.1,63.6z M761.7,64.4c0,0.1,0,0.2-0.1,0.2c-0.1,0.1-0.1,0.1-0.3,0.2c-0.1,0-0.3,0.1-0.5,0.1s-0.5,0-0.8,0
		s-0.6,0-0.8,0s-0.4-0.1-0.5-0.1s-0.2-0.1-0.3-0.2c-0.1-0.1-0.1-0.1-0.1-0.2V53.1c0-0.1,0-0.2,0.1-0.2c0.1-0.1,0.1-0.1,0.3-0.2
		c0.1,0,0.3-0.1,0.5-0.1s0.5,0,0.8,0s0.6,0,0.8,0s0.4,0.1,0.5,0.1s0.2,0.1,0.3,0.2c0.1,0.1,0.1,0.1,0.1,0.2V64.4z M761.5,50.5
		c-0.3,0.2-0.7,0.4-1.5,0.4c-0.7,0-1.2-0.1-1.5-0.4s-0.4-0.7-0.4-1.3s0.1-1.1,0.4-1.3s0.7-0.4,1.5-0.4c0.7,0,1.2,0.1,1.4,0.4
		c0.3,0.2,0.4,0.7,0.4,1.3C761.9,49.8,761.8,50.3,761.5,50.5z"/>
	<path class="st0" d="M-32.9,27.5c-15.9,0-28.7,12.8-28.7,28.7s12.8,28.7,28.7,28.7S-4.2,72.1-4.2,56.2S-17,27.5-32.9,27.5z
		 M-29.5,63.6c0,0.2,0,0.4-0.1,0.5c-0.1,0.2-0.2,0.3-0.3,0.4c-0.1,0.1-0.3,0.2-0.4,0.2c-0.2,0-0.3,0.1-0.5,0.1h-1.4
		c-0.3,0-0.6,0-0.8-0.1c-0.2-0.1-0.4-0.2-0.6-0.3c-0.2-0.2-0.4-0.4-0.5-0.6c-0.2-0.3-0.4-0.6-0.6-1l-4.1-7.7c-0.2-0.5-0.5-1-0.7-1.5
		s-0.5-1-0.7-1.5l0,0c0,0.6,0.1,1.2,0.1,1.8s0,1.2,0,1.9v8.6c0,0.1,0,0.2-0.1,0.2c0,0.1-0.1,0.1-0.2,0.2s-0.3,0.1-0.5,0.1
		s-0.4,0-0.8,0c-0.3,0-0.5,0-0.7,0s-0.3-0.1-0.5-0.1c-0.1,0-0.2-0.1-0.2-0.2c0-0.1-0.1-0.1-0.1-0.2V49.6c0-0.4,0.1-0.7,0.3-0.9
		c0.2-0.2,0.5-0.3,0.9-0.3h1.8c0.3,0,0.6,0,0.8,0.1c0.2,0.1,0.4,0.1,0.6,0.3c0.2,0.1,0.3,0.3,0.5,0.5s0.3,0.5,0.5,0.8l3.2,6
		c0.2,0.4,0.4,0.7,0.6,1.1c0.2,0.4,0.4,0.7,0.5,1.1s0.3,0.7,0.5,1s0.3,0.7,0.5,1l0,0c0-0.6,0-1.2-0.1-1.9c0-0.6,0-1.3,0-1.8v-7.7
		c0-0.1,0-0.2,0.1-0.2c0.1-0.1,0.1-0.1,0.3-0.2s0.3-0.1,0.5-0.1s0.4,0,0.8,0c0.3,0,0.5,0,0.7,0s0.3,0.1,0.5,0.1s0.2,0.1,0.2,0.2
		c0,0.1,0.1,0.1,0.1,0.2v14.7H-29.5z M-22.9,64.4c0,0.1,0,0.2-0.1,0.2c-0.1,0.1-0.1,0.1-0.3,0.2c-0.1,0-0.3,0.1-0.5,0.1
		s-0.5,0-0.8,0s-0.6,0-0.8,0c-0.2,0-0.4-0.1-0.5-0.1s-0.2-0.1-0.3-0.2c-0.1-0.1-0.1-0.1-0.1-0.2V53.1c0-0.1,0-0.2,0.1-0.2
		c0.1-0.1,0.1-0.1,0.3-0.2c0.1,0,0.3-0.1,0.5-0.1s0.5,0,0.8,0s0.6,0,0.8,0c0.2,0,0.4,0.1,0.5,0.1s0.2,0.1,0.3,0.2
		c0.1,0.1,0.1,0.1,0.1,0.2V64.4z M-23.1,50.5c-0.3,0.2-0.7,0.4-1.5,0.4c-0.7,0-1.2-0.1-1.5-0.4s-0.4-0.7-0.4-1.3s0.1-1.1,0.4-1.3
		s0.7-0.4,1.5-0.4c0.7,0,1.2,0.1,1.4,0.4c0.3,0.2,0.4,0.7,0.4,1.3C-22.7,49.8-22.8,50.3-23.1,50.5z"/>
	<path class="st0" d="M97.9,27.5c-15.9,0-28.7,12.8-28.7,28.7S82,84.9,97.9,84.9s28.7-12.8,28.7-28.7S113.8,27.5,97.9,27.5z
		 M101.3,63.6c0,0.2,0,0.4-0.1,0.5c-0.1,0.2-0.2,0.3-0.3,0.4c-0.1,0.1-0.3,0.2-0.4,0.2c-0.2,0-0.3,0.1-0.5,0.1h-1.4
		c-0.3,0-0.6,0-0.8-0.1s-0.4-0.2-0.6-0.3c-0.2-0.2-0.4-0.4-0.5-0.6c-0.2-0.3-0.4-0.6-0.6-1L92,55.1c-0.2-0.5-0.5-1-0.7-1.5
		s-0.5-1-0.7-1.5l0,0c0,0.6,0.1,1.2,0.1,1.8s0,1.2,0,1.9v8.6c0,0.1,0,0.2-0.1,0.2c0,0.1-0.1,0.1-0.2,0.2s-0.3,0.1-0.5,0.1
		s-0.4,0-0.8,0c-0.3,0-0.5,0-0.7,0s-0.3-0.1-0.5-0.1c-0.1,0-0.2-0.1-0.2-0.2c0-0.1-0.1-0.1-0.1-0.2V49.6c0-0.4,0.1-0.7,0.3-0.9
		s0.5-0.3,0.9-0.3h1.8c0.3,0,0.6,0,0.8,0.1s0.4,0.1,0.6,0.3c0.2,0.1,0.3,0.3,0.5,0.5s0.3,0.5,0.5,0.8l3.2,6c0.2,0.4,0.4,0.7,0.6,1.1
		c0.2,0.4,0.4,0.7,0.5,1.1s0.3,0.7,0.5,1s0.3,0.7,0.5,1l0,0c0-0.6,0-1.2-0.1-1.9c0-0.6,0-1.3,0-1.8v-7.7c0-0.1,0-0.2,0.1-0.2
		c0.1-0.1,0.1-0.1,0.3-0.2s0.3-0.1,0.5-0.1s0.4,0,0.8,0c0.3,0,0.5,0,0.7,0s0.3,0.1,0.5,0.1s0.2,0.1,0.2,0.2c0,0.1,0.1,0.1,0.1,0.2
		v14.7H101.3z M107.9,64.4c0,0.1,0,0.2-0.1,0.2c-0.1,0.1-0.1,0.1-0.3,0.2c-0.1,0-0.3,0.1-0.5,0.1s-0.5,0-0.8,0s-0.6,0-0.8,0
		s-0.4-0.1-0.5-0.1s-0.2-0.1-0.3-0.2c-0.1-0.1-0.1-0.1-0.1-0.2V53.1c0-0.1,0-0.2,0.1-0.2c0.1-0.1,0.1-0.1,0.3-0.2
		c0.1,0,0.3-0.1,0.5-0.1s0.5,0,0.8,0s0.6,0,0.8,0s0.4,0.1,0.5,0.1s0.2,0.1,0.3,0.2c0.1,0.1,0.1,0.1,0.1,0.2V64.4z M107.7,50.5
		c-0.3,0.2-0.7,0.4-1.5,0.4c-0.7,0-1.2-0.1-1.5-0.4s-0.4-0.7-0.4-1.3s0.1-1.1,0.4-1.3s0.7-0.4,1.5-0.4c0.7,0,1.2,0.1,1.4,0.4
		c0.3,0.2,0.4,0.7,0.4,1.3C108.1,49.8,108,50.3,107.7,50.5z"/>
	<path class="st0" d="M-32.9,27.5c-15.9,0-28.7,12.8-28.7,28.7s12.8,28.7,28.7,28.7S-4.2,72.1-4.2,56.2S-17,27.5-32.9,27.5z
		 M-29.5,63.6c0,0.2,0,0.4-0.1,0.5c-0.1,0.2-0.2,0.3-0.3,0.4c-0.1,0.1-0.3,0.2-0.4,0.2c-0.2,0-0.3,0.1-0.5,0.1h-1.4
		c-0.3,0-0.6,0-0.8-0.1c-0.2-0.1-0.4-0.2-0.6-0.3c-0.2-0.2-0.4-0.4-0.5-0.6c-0.2-0.3-0.4-0.6-0.6-1l-4.1-7.7c-0.2-0.5-0.5-1-0.7-1.5
		s-0.5-1-0.7-1.5l0,0c0,0.6,0.1,1.2,0.1,1.8s0,1.2,0,1.9v8.6c0,0.1,0,0.2-0.1,0.2c0,0.1-0.1,0.1-0.2,0.2s-0.3,0.1-0.5,0.1
		s-0.4,0-0.8,0c-0.3,0-0.5,0-0.7,0s-0.3-0.1-0.5-0.1c-0.1,0-0.2-0.1-0.2-0.2c0-0.1-0.1-0.1-0.1-0.2V49.6c0-0.4,0.1-0.7,0.3-0.9
		c0.2-0.2,0.5-0.3,0.9-0.3h1.8c0.3,0,0.6,0,0.8,0.1c0.2,0.1,0.4,0.1,0.6,0.3c0.2,0.1,0.3,0.3,0.5,0.5s0.3,0.5,0.5,0.8l3.2,6
		c0.2,0.4,0.4,0.7,0.6,1.1c0.2,0.4,0.4,0.7,0.5,1.1s0.3,0.7,0.5,1s0.3,0.7,0.5,1l0,0c0-0.6,0-1.2-0.1-1.9c0-0.6,0-1.3,0-1.8v-7.7
		c0-0.1,0-0.2,0.1-0.2c0.1-0.1,0.1-0.1,0.3-0.2s0.3-0.1,0.5-0.1s0.4,0,0.8,0c0.3,0,0.5,0,0.7,0s0.3,0.1,0.5,0.1s0.2,0.1,0.2,0.2
		c0,0.1,0.1,0.1,0.1,0.2v14.7H-29.5z M-22.9,64.4c0,0.1,0,0.2-0.1,0.2c-0.1,0.1-0.1,0.1-0.3,0.2c-0.1,0-0.3,0.1-0.5,0.1
		s-0.5,0-0.8,0s-0.6,0-0.8,0c-0.2,0-0.4-0.1-0.5-0.1s-0.2-0.1-0.3-0.2c-0.1-0.1-0.1-0.1-0.1-0.2V53.1c0-0.1,0-0.2,0.1-0.2
		c0.1-0.1,0.1-0.1,0.3-0.2c0.1,0,0.3-0.1,0.5-0.1s0.5,0,0.8,0s0.6,0,0.8,0c0.2,0,0.4,0.1,0.5,0.1s0.2,0.1,0.3,0.2
		c0.1,0.1,0.1,0.1,0.1,0.2V64.4z M-23.1,50.5c-0.3,0.2-0.7,0.4-1.5,0.4c-0.7,0-1.2-0.1-1.5-0.4s-0.4-0.7-0.4-1.3s0.1-1.1,0.4-1.3
		s0.7-0.4,1.5-0.4c0.7,0,1.2,0.1,1.4,0.4c0.3,0.2,0.4,0.7,0.4,1.3C-22.7,49.8-22.8,50.3-23.1,50.5z"/>
	<path class="st0" d="M-163.7,27.5c-15.9,0-28.7,12.8-28.7,28.7s12.8,28.7,28.7,28.7S-135,72.1-135,56.2S-147.8,27.5-163.7,27.5z
		 M-160.3,63.6c0,0.2,0,0.4-0.1,0.5c-0.1,0.2-0.2,0.3-0.3,0.4c-0.1,0.1-0.3,0.2-0.4,0.2c-0.2,0-0.3,0.1-0.5,0.1h-1.4
		c-0.3,0-0.6,0-0.8-0.1s-0.4-0.2-0.6-0.3c-0.2-0.2-0.4-0.4-0.5-0.6c-0.2-0.3-0.4-0.6-0.6-1l-4.1-7.7c-0.2-0.5-0.5-1-0.7-1.5
		s-0.5-1-0.7-1.5l0,0c0,0.6,0.1,1.2,0.1,1.8s0,1.2,0,1.9v8.6c0,0.1,0,0.2-0.1,0.2c0,0.1-0.1,0.1-0.2,0.2c-0.1,0.1-0.3,0.1-0.5,0.1
		s-0.4,0-0.8,0c-0.3,0-0.5,0-0.7,0s-0.3-0.1-0.5-0.1c-0.1,0-0.2-0.1-0.2-0.2c0-0.1-0.1-0.1-0.1-0.2V49.6c0-0.4,0.1-0.7,0.3-0.9
		c0.2-0.2,0.5-0.3,0.9-0.3h1.8c0.3,0,0.6,0,0.8,0.1s0.4,0.1,0.6,0.3c0.2,0.1,0.3,0.3,0.5,0.5s0.3,0.5,0.5,0.8l3.2,6
		c0.2,0.4,0.4,0.7,0.6,1.1c0.2,0.4,0.4,0.7,0.5,1.1c0.1,0.4,0.3,0.7,0.5,1s0.3,0.7,0.5,1l0,0c0-0.6,0-1.2-0.1-1.9c0-0.6,0-1.3,0-1.8
		v-7.7c0-0.1,0-0.2,0.1-0.2c0.1-0.1,0.1-0.1,0.3-0.2c0.2-0.1,0.3-0.1,0.5-0.1s0.4,0,0.8,0c0.3,0,0.5,0,0.7,0s0.3,0.1,0.5,0.1
		s0.2,0.1,0.2,0.2c0,0.1,0.1,0.1,0.1,0.2v14.7H-160.3z M-153.7,64.4c0,0.1,0,0.2-0.1,0.2c-0.1,0.1-0.1,0.1-0.3,0.2
		c-0.1,0-0.3,0.1-0.5,0.1s-0.5,0-0.8,0s-0.6,0-0.8,0c-0.2,0-0.4-0.1-0.5-0.1c-0.1,0-0.2-0.1-0.3-0.2c-0.1-0.1-0.1-0.1-0.1-0.2V53.1
		c0-0.1,0-0.2,0.1-0.2c0.1-0.1,0.1-0.1,0.3-0.2c0.1,0,0.3-0.1,0.5-0.1s0.5,0,0.8,0s0.6,0,0.8,0s0.4,0.1,0.5,0.1
		c0.1,0,0.2,0.1,0.3,0.2c0.1,0.1,0.1,0.1,0.1,0.2V64.4z M-153.9,50.5c-0.3,0.2-0.7,0.4-1.5,0.4c-0.7,0-1.2-0.1-1.5-0.4
		s-0.4-0.7-0.4-1.3s0.1-1.1,0.4-1.3s0.7-0.4,1.5-0.4c0.7,0,1.2,0.1,1.4,0.4c0.3,0.2,0.4,0.7,0.4,1.3
		C-153.5,49.8-153.6,50.3-153.9,50.5z"/>
	<path class="st0" d="M882.5,27.5c-15.9,0-28.7,12.8-28.7,28.7s12.8,28.7,28.7,28.7s28.7-12.8,28.7-28.7S898.4,27.5,882.5,27.5z
		 M885.9,63.6c0,0.2,0,0.4-0.1,0.5c-0.1,0.2-0.2,0.3-0.3,0.4c-0.1,0.1-0.3,0.2-0.4,0.2c-0.2,0-0.3,0.1-0.5,0.1h-1.4
		c-0.3,0-0.6,0-0.8-0.1s-0.4-0.2-0.6-0.3c-0.2-0.2-0.4-0.4-0.5-0.6c-0.2-0.3-0.4-0.6-0.6-1l-4.1-7.7c-0.2-0.5-0.5-1-0.7-1.5
		s-0.5-1-0.7-1.5l0,0c0,0.6,0.1,1.2,0.1,1.8s0,1.2,0,1.9v8.6c0,0.1,0,0.2-0.1,0.2c0,0.1-0.1,0.1-0.2,0.2s-0.3,0.1-0.5,0.1
		s-0.4,0-0.8,0c-0.3,0-0.5,0-0.7,0s-0.3-0.1-0.5-0.1c-0.1,0-0.2-0.1-0.2-0.2c0-0.1-0.1-0.1-0.1-0.2V49.6c0-0.4,0.1-0.7,0.3-0.9
		s0.5-0.3,0.9-0.3h1.8c0.3,0,0.6,0,0.8,0.1s0.4,0.1,0.6,0.3c0.2,0.1,0.3,0.3,0.5,0.5s0.3,0.5,0.5,0.8l3.2,6c0.2,0.4,0.4,0.7,0.6,1.1
		c0.2,0.4,0.4,0.7,0.5,1.1s0.3,0.7,0.5,1s0.3,0.7,0.5,1l0,0c0-0.6,0-1.2-0.1-1.9c0-0.6,0-1.3,0-1.8v-7.7c0-0.1,0-0.2,0.1-0.2
		c0.1-0.1,0.1-0.1,0.3-0.2s0.3-0.1,0.5-0.1s0.4,0,0.8,0c0.3,0,0.5,0,0.7,0s0.3,0.1,0.5,0.1s0.2,0.1,0.2,0.2c0,0.1,0.1,0.1,0.1,0.2
		L885.9,63.6L885.9,63.6z M892.5,64.4c0,0.1,0,0.2-0.1,0.2c-0.1,0.1-0.1,0.1-0.3,0.2c-0.1,0-0.3,0.1-0.5,0.1s-0.5,0-0.8,0
		s-0.6,0-0.8,0s-0.4-0.1-0.5-0.1s-0.2-0.1-0.3-0.2c-0.1-0.1-0.1-0.1-0.1-0.2V53.1c0-0.1,0-0.2,0.1-0.2c0.1-0.1,0.1-0.1,0.3-0.2
		c0.1,0,0.3-0.1,0.5-0.1s0.5,0,0.8,0s0.6,0,0.8,0s0.4,0.1,0.5,0.1s0.2,0.1,0.3,0.2c0.1,0.1,0.1,0.1,0.1,0.2V64.4z M892.3,50.5
		c-0.3,0.2-0.7,0.4-1.5,0.4c-0.7,0-1.2-0.1-1.5-0.4s-0.4-0.7-0.4-1.3s0.1-1.1,0.4-1.3s0.7-0.4,1.5-0.4c0.7,0,1.2,0.1,1.4,0.4
		c0.3,0.2,0.4,0.7,0.4,1.3C892.7,49.8,892.6,50.3,892.3,50.5z"/>
	<path class="st0" d="M1013.3,27.5c-15.9,0-28.7,12.8-28.7,28.7s12.8,28.7,28.7,28.7s28.7-12.8,28.7-28.7S1029.2,27.5,1013.3,27.5z
		 M1016.7,63.6c0,0.2,0,0.4-0.1,0.5c-0.1,0.2-0.2,0.3-0.3,0.4c-0.1,0.1-0.3,0.2-0.4,0.2c-0.2,0-0.3,0.1-0.5,0.1h-1.4
		c-0.3,0-0.6,0-0.8-0.1s-0.4-0.2-0.6-0.3c-0.2-0.2-0.4-0.4-0.5-0.6c-0.2-0.3-0.4-0.6-0.6-1l-4.1-7.7c-0.2-0.5-0.5-1-0.7-1.5
		s-0.5-1-0.7-1.5l0,0c0,0.6,0.1,1.2,0.1,1.8s0,1.2,0,1.9v8.6c0,0.1,0,0.2-0.1,0.2c0,0.1-0.1,0.1-0.2,0.2s-0.3,0.1-0.5,0.1
		s-0.4,0-0.8,0c-0.3,0-0.5,0-0.7,0s-0.3-0.1-0.5-0.1c-0.1,0-0.2-0.1-0.2-0.2c0-0.1-0.1-0.1-0.1-0.2V49.6c0-0.4,0.1-0.7,0.3-0.9
		s0.5-0.3,0.9-0.3h1.8c0.3,0,0.6,0,0.8,0.1s0.4,0.1,0.6,0.3c0.2,0.1,0.3,0.3,0.5,0.5s0.3,0.5,0.5,0.8l3.2,6c0.2,0.4,0.4,0.7,0.6,1.1
		c0.2,0.4,0.4,0.7,0.5,1.1s0.3,0.7,0.5,1s0.3,0.7,0.5,1l0,0c0-0.6,0-1.2-0.1-1.9c0-0.6,0-1.3,0-1.8v-7.7c0-0.1,0-0.2,0.1-0.2
		c0.1-0.1,0.1-0.1,0.3-0.2s0.3-0.1,0.5-0.1s0.4,0,0.8,0c0.3,0,0.5,0,0.7,0s0.3,0.1,0.5,0.1s0.2,0.1,0.2,0.2c0,0.1,0.1,0.1,0.1,0.2
		L1016.7,63.6L1016.7,63.6z M1023.3,64.4c0,0.1,0,0.2-0.1,0.2c-0.1,0.1-0.1,0.1-0.3,0.2c-0.1,0-0.3,0.1-0.5,0.1s-0.5,0-0.8,0
		s-0.6,0-0.8,0s-0.4-0.1-0.5-0.1s-0.2-0.1-0.3-0.2c-0.1-0.1-0.1-0.1-0.1-0.2V53.1c0-0.1,0-0.2,0.1-0.2c0.1-0.1,0.1-0.1,0.3-0.2
		c0.1,0,0.3-0.1,0.5-0.1s0.5,0,0.8,0s0.6,0,0.8,0s0.4,0.1,0.5,0.1s0.2,0.1,0.3,0.2c0.1,0.1,0.1,0.1,0.1,0.2V64.4z M1023.1,50.5
		c-0.3,0.2-0.7,0.4-1.5,0.4c-0.7,0-1.2-0.1-1.5-0.4s-0.4-0.7-0.4-1.3s0.1-1.1,0.4-1.3s0.7-0.4,1.5-0.4c0.7,0,1.2,0.1,1.4,0.4
		c0.3,0.2,0.4,0.7,0.4,1.3C1023.5,49.8,1023.4,50.3,1023.1,50.5z"/>
</g>
<g id="layer2">
	<path class="st0" d="M97.9,158.3c-15.9,0-28.7,12.8-28.7,28.7s12.8,28.7,28.7,28.7s28.7-12.8,28.7-28.7S113.8,158.3,97.9,158.3z
		 M101.3,194.4c0,0.2,0,0.4-0.1,0.5c-0.1,0.2-0.2,0.3-0.3,0.4c-0.1,0.1-0.3,0.2-0.4,0.2c-0.2,0-0.3,0.1-0.5,0.1h-1.4
		c-0.3,0-0.6,0-0.8-0.1c-0.2-0.1-0.4-0.2-0.6-0.3c-0.2-0.2-0.4-0.4-0.5-0.6c-0.2-0.3-0.4-0.6-0.6-1l-4.1-7.7c-0.2-0.5-0.5-1-0.7-1.5
		s-0.5-1-0.7-1.5l0,0c0,0.6,0.1,1.2,0.1,1.8s0,1.2,0,1.9v8.6c0,0.1,0,0.2-0.1,0.2c0,0.1-0.1,0.1-0.2,0.2s-0.3,0.1-0.5,0.1
		s-0.4,0-0.8,0c-0.3,0-0.5,0-0.7,0s-0.3-0.1-0.5-0.1c-0.1,0-0.2-0.1-0.2-0.2c0-0.1-0.1-0.1-0.1-0.2v-14.8c0-0.4,0.1-0.7,0.3-0.9
		c0.2-0.2,0.5-0.3,0.9-0.3h1.8c0.3,0,0.6,0,0.8,0.1c0.2,0.1,0.4,0.1,0.6,0.3c0.2,0.1,0.3,0.3,0.5,0.5s0.3,0.5,0.5,0.8l3.2,6
		c0.2,0.4,0.4,0.7,0.6,1.1c0.2,0.4,0.4,0.7,0.5,1.1s0.3,0.7,0.5,1s0.3,0.7,0.5,1l0,0c0-0.6,0-1.2-0.1-1.9c0-0.6,0-1.3,0-1.8v-7.7
		c0-0.1,0-0.2,0.1-0.2c0.1-0.1,0.1-0.1,0.3-0.2s0.3-0.1,0.5-0.1s0.4,0,0.8,0c0.3,0,0.5,0,0.7,0s0.3,0.1,0.5,0.1s0.2,0.1,0.2,0.2
		c0,0.1,0.1,0.1,0.1,0.2v14.7H101.3z M107.9,195.2c0,0.1,0,0.2-0.1,0.2c-0.1,0.1-0.1,0.1-0.3,0.2c-0.1,0-0.3,0.1-0.5,0.1
		s-0.5,0-0.8,0s-0.6,0-0.8,0c-0.2,0-0.4-0.1-0.5-0.1s-0.2-0.1-0.3-0.2c-0.1-0.1-0.1-0.1-0.1-0.2v-11.3c0-0.1,0-0.2,0.1-0.2
		c0.1-0.1,0.1-0.1,0.3-0.2c0.1,0,0.3-0.1,0.5-0.1s0.5,0,0.8,0s0.6,0,0.8,0c0.2,0,0.4,0.1,0.5,0.1s0.2,0.1,0.3,0.2
		c0.1,0.1,0.1,0.1,0.1,0.2V195.2z M107.7,181.3c-0.3,0.2-0.7,0.4-1.5,0.4c-0.7,0-1.2-0.1-1.5-0.4s-0.4-0.7-0.4-1.3s0.1-1.1,0.4-1.3
		s0.7-0.4,1.5-0.4c0.7,0,1.2,0.1,1.4,0.4c0.3,0.2,0.4,0.7,0.4,1.3C108.1,180.6,108,181.1,107.7,181.3z"/>
	<path class="st0" d="M228.7,158.3c-15.9,0-28.7,12.8-28.7,28.7s12.8,28.7,28.7,28.7s28.7-12.8,28.7-28.7S244.6,158.3,228.7,158.3z
		 M232.1,194.4c0,0.2,0,0.4-0.1,0.5c-0.1,0.2-0.2,0.3-0.3,0.4c-0.1,0.1-0.3,0.2-0.4,0.2c-0.2,0-0.3,0.1-0.5,0.1h-1.4
		c-0.3,0-0.6,0-0.8-0.1s-0.4-0.2-0.6-0.3c-0.2-0.2-0.4-0.4-0.5-0.6c-0.2-0.3-0.4-0.6-0.6-1l-4.1-7.7c-0.2-0.5-0.5-1-0.7-1.5
		s-0.5-1-0.7-1.5l0,0c0,0.6,0.1,1.2,0.1,1.8s0,1.2,0,1.9v8.6c0,0.1,0,0.2-0.1,0.2c0,0.1-0.1,0.1-0.2,0.2s-0.3,0.1-0.5,0.1
		s-0.4,0-0.8,0c-0.3,0-0.5,0-0.7,0s-0.3-0.1-0.5-0.1c-0.1,0-0.2-0.1-0.2-0.2c0-0.1-0.1-0.1-0.1-0.2v-14.8c0-0.4,0.1-0.7,0.3-0.9
		s0.5-0.3,0.9-0.3h1.8c0.3,0,0.6,0,0.8,0.1s0.4,0.1,0.6,0.3c0.2,0.1,0.3,0.3,0.5,0.5s0.3,0.5,0.5,0.8l3.2,6c0.2,0.4,0.4,0.7,0.6,1.1
		c0.2,0.4,0.4,0.7,0.5,1.1s0.3,0.7,0.5,1s0.3,0.7,0.5,1l0,0c0-0.6,0-1.2-0.1-1.9c0-0.6,0-1.3,0-1.8v-7.7c0-0.1,0-0.2,0.1-0.2
		c0.1-0.1,0.1-0.1,0.3-0.2s0.3-0.1,0.5-0.1s0.4,0,0.8,0c0.3,0,0.5,0,0.7,0s0.3,0.1,0.5,0.1s0.2,0.1,0.2,0.2c0,0.1,0.1,0.1,0.1,0.2
		v14.7H232.1z M238.7,195.2c0,0.1,0,0.2-0.1,0.2c-0.1,0.1-0.1,0.1-0.3,0.2c-0.1,0-0.3,0.1-0.5,0.1s-0.5,0-0.8,0s-0.6,0-0.8,0
		s-0.4-0.1-0.5-0.1s-0.2-0.1-0.3-0.2c-0.1-0.1-0.1-0.1-0.1-0.2v-11.3c0-0.1,0-0.2,0.1-0.2c0.1-0.1,0.1-0.1,0.3-0.2
		c0.1,0,0.3-0.1,0.5-0.1s0.5,0,0.8,0s0.6,0,0.8,0s0.4,0.1,0.5,0.1s0.2,0.1,0.3,0.2c0.1,0.1,0.1,0.1,0.1,0.2V195.2z M238.5,181.3
		c-0.3,0.2-0.7,0.4-1.5,0.4c-0.7,0-1.2-0.1-1.5-0.4s-0.4-0.7-0.4-1.3s0.1-1.1,0.4-1.3s0.7-0.4,1.5-0.4c0.7,0,1.2,0.1,1.4,0.4
		c0.3,0.2,0.4,0.7,0.4,1.3C238.9,180.6,238.8,181.1,238.5,181.3z"/>
	<path class="st0" d="M359.4,158.3c-15.9,0-28.7,12.8-28.7,28.7s12.8,28.7,28.7,28.7s28.7-12.8,28.7-28.7S375.3,158.3,359.4,158.3z
		 M362.8,194.4c0,0.2,0,0.4-0.1,0.5c-0.1,0.2-0.2,0.3-0.3,0.4c-0.1,0.1-0.3,0.2-0.4,0.2c-0.2,0-0.3,0.1-0.5,0.1h-1.4
		c-0.3,0-0.6,0-0.8-0.1c-0.2-0.1-0.4-0.2-0.6-0.3c-0.2-0.2-0.4-0.4-0.5-0.6c-0.2-0.3-0.4-0.6-0.6-1l-4.1-7.7c-0.2-0.5-0.5-1-0.7-1.5
		s-0.5-1-0.7-1.5l0,0c0,0.6,0.1,1.2,0.1,1.8s0,1.2,0,1.9v8.6c0,0.1,0,0.2-0.1,0.2c0,0.1-0.1,0.1-0.2,0.2s-0.3,0.1-0.5,0.1
		s-0.4,0-0.8,0c-0.3,0-0.5,0-0.7,0s-0.3-0.1-0.5-0.1c-0.1,0-0.2-0.1-0.2-0.2c0-0.1-0.1-0.1-0.1-0.2v-14.8c0-0.4,0.1-0.7,0.3-0.9
		c0.2-0.2,0.5-0.3,0.9-0.3h1.8c0.3,0,0.6,0,0.8,0.1c0.2,0.1,0.4,0.1,0.6,0.3c0.2,0.1,0.3,0.3,0.5,0.5s0.3,0.5,0.5,0.8l3.2,6
		c0.2,0.4,0.4,0.7,0.6,1.1c0.2,0.4,0.4,0.7,0.5,1.1s0.3,0.7,0.5,1s0.3,0.7,0.5,1l0,0c0-0.6,0-1.2-0.1-1.9c0-0.6,0-1.3,0-1.8v-7.7
		c0-0.1,0-0.2,0.1-0.2c0.1-0.1,0.1-0.1,0.3-0.2s0.3-0.1,0.5-0.1s0.4,0,0.8,0c0.3,0,0.5,0,0.7,0s0.3,0.1,0.5,0.1s0.2,0.1,0.2,0.2
		c0,0.1,0.1,0.1,0.1,0.2L362.8,194.4L362.8,194.4z M369.4,195.2c0,0.1,0,0.2-0.1,0.2c-0.1,0.1-0.1,0.1-0.3,0.2
		c-0.1,0-0.3,0.1-0.5,0.1s-0.5,0-0.8,0s-0.6,0-0.8,0c-0.2,0-0.4-0.1-0.5-0.1s-0.2-0.1-0.3-0.2c-0.1-0.1-0.1-0.1-0.1-0.2v-11.3
		c0-0.1,0-0.2,0.1-0.2c0.1-0.1,0.1-0.1,0.3-0.2c0.1,0,0.3-0.1,0.5-0.1s0.5,0,0.8,0s0.6,0,0.8,0c0.2,0,0.4,0.1,0.5,0.1
		s0.2,0.1,0.3,0.2c0.1,0.1,0.1,0.1,0.1,0.2V195.2z M369.2,181.3c-0.3,0.2-0.7,0.4-1.5,0.4c-0.7,0-1.2-0.1-1.5-0.4s-0.4-0.7-0.4-1.3
		s0.1-1.1,0.4-1.3s0.7-0.4,1.5-0.4c0.7,0,1.2,0.1,1.4,0.4c0.3,0.2,0.4,0.7,0.4,1.3C369.6,180.6,369.5,181.1,369.2,181.3z"/>
	<path class="st0" d="M490.2,158.3c-15.9,0-28.7,12.8-28.7,28.7s12.8,28.7,28.7,28.7s28.7-12.8,28.7-28.7S506.1,158.3,490.2,158.3z
		 M493.6,194.4c0,0.2,0,0.4-0.1,0.5c-0.1,0.2-0.2,0.3-0.3,0.4c-0.1,0.1-0.3,0.2-0.4,0.2c-0.2,0-0.3,0.1-0.5,0.1h-1.4
		c-0.3,0-0.6,0-0.8-0.1c-0.2-0.1-0.4-0.2-0.6-0.3c-0.2-0.2-0.4-0.4-0.5-0.6c-0.2-0.3-0.4-0.6-0.6-1l-4.1-7.7c-0.2-0.5-0.5-1-0.7-1.5
		s-0.5-1-0.7-1.5l0,0c0,0.6,0.1,1.2,0.1,1.8s0,1.2,0,1.9v8.6c0,0.1,0,0.2-0.1,0.2c0,0.1-0.1,0.1-0.2,0.2s-0.3,0.1-0.5,0.1
		s-0.4,0-0.8,0c-0.3,0-0.5,0-0.7,0s-0.3-0.1-0.5-0.1c-0.1,0-0.2-0.1-0.2-0.2c0-0.1-0.1-0.1-0.1-0.2v-14.8c0-0.4,0.1-0.7,0.3-0.9
		c0.2-0.2,0.5-0.3,0.9-0.3h1.8c0.3,0,0.6,0,0.8,0.1c0.2,0.1,0.4,0.1,0.6,0.3c0.2,0.1,0.3,0.3,0.5,0.5s0.3,0.5,0.5,0.8l3.2,6
		c0.2,0.4,0.4,0.7,0.6,1.1c0.2,0.4,0.4,0.7,0.5,1.1s0.3,0.7,0.5,1s0.3,0.7,0.5,1l0,0c0-0.6,0-1.2-0.1-1.9c0-0.6,0-1.3,0-1.8v-7.7
		c0-0.1,0-0.2,0.1-0.2c0.1-0.1,0.1-0.1,0.3-0.2s0.3-0.1,0.5-0.1s0.4,0,0.8,0c0.3,0,0.5,0,0.7,0s0.3,0.1,0.5,0.1s0.2,0.1,0.2,0.2
		c0,0.1,0.1,0.1,0.1,0.2L493.6,194.4L493.6,194.4z M500.2,195.2c0,0.1,0,0.2-0.1,0.2c-0.1,0.1-0.1,0.1-0.3,0.2
		c-0.1,0-0.3,0.1-0.5,0.1s-0.5,0-0.8,0s-0.6,0-0.8,0c-0.2,0-0.4-0.1-0.5-0.1s-0.2-0.1-0.3-0.2c-0.1-0.1-0.1-0.1-0.1-0.2v-11.3
		c0-0.1,0-0.2,0.1-0.2c0.1-0.1,0.1-0.1,0.3-0.2c0.1,0,0.3-0.1,0.5-0.1s0.5,0,0.8,0s0.6,0,0.8,0c0.2,0,0.4,0.1,0.5,0.1
		s0.2,0.1,0.3,0.2c0.1,0.1,0.1,0.1,0.1,0.2V195.2z M500,181.3c-0.3,0.2-0.7,0.4-1.5,0.4c-0.7,0-1.2-0.1-1.5-0.4s-0.4-0.7-0.4-1.3
		s0.1-1.1,0.4-1.3s0.7-0.4,1.5-0.4c0.7,0,1.2,0.1,1.4,0.4c0.3,0.2,0.4,0.7,0.4,1.3C500.4,180.6,500.3,181.1,500,181.3z"/>
	<path class="st0" d="M620.9,158.3c-15.9,0-28.7,12.8-28.7,28.7s12.8,28.7,28.7,28.7s28.7-12.8,28.7-28.7S636.8,158.3,620.9,158.3z
		 M624.3,194.4c0,0.2,0,0.4-0.1,0.5c-0.1,0.2-0.2,0.3-0.3,0.4c-0.1,0.1-0.3,0.2-0.4,0.2c-0.2,0-0.3,0.1-0.5,0.1h-1.4
		c-0.3,0-0.6,0-0.8-0.1s-0.4-0.2-0.6-0.3c-0.2-0.2-0.4-0.4-0.5-0.6c-0.2-0.3-0.4-0.6-0.6-1l-4.1-7.7c-0.2-0.5-0.5-1-0.7-1.5
		s-0.5-1-0.7-1.5l0,0c0,0.6,0.1,1.2,0.1,1.8s0,1.2,0,1.9v8.6c0,0.1,0,0.2-0.1,0.2c0,0.1-0.1,0.1-0.2,0.2s-0.3,0.1-0.5,0.1
		s-0.4,0-0.8,0c-0.3,0-0.5,0-0.7,0s-0.3-0.1-0.5-0.1c-0.1,0-0.2-0.1-0.2-0.2c0-0.1-0.1-0.1-0.1-0.2v-14.8c0-0.4,0.1-0.7,0.3-0.9
		s0.5-0.3,0.9-0.3h1.8c0.3,0,0.6,0,0.8,0.1s0.4,0.1,0.6,0.3c0.2,0.1,0.3,0.3,0.5,0.5s0.3,0.5,0.5,0.8l3.2,6c0.2,0.4,0.4,0.7,0.6,1.1
		c0.2,0.4,0.4,0.7,0.5,1.1s0.3,0.7,0.5,1s0.3,0.7,0.5,1l0,0c0-0.6,0-1.2-0.1-1.9c0-0.6,0-1.3,0-1.8v-7.7c0-0.1,0-0.2,0.1-0.2
		c0.1-0.1,0.1-0.1,0.3-0.2s0.3-0.1,0.5-0.1s0.4,0,0.8,0c0.3,0,0.5,0,0.7,0s0.3,0.1,0.5,0.1s0.2,0.1,0.2,0.2c0,0.1,0.1,0.1,0.1,0.2
		L624.3,194.4L624.3,194.4z M630.9,195.2c0,0.1,0,0.2-0.1,0.2c-0.1,0.1-0.1,0.1-0.3,0.2c-0.1,0-0.3,0.1-0.5,0.1s-0.5,0-0.8,0
		s-0.6,0-0.8,0s-0.4-0.1-0.5-0.1s-0.2-0.1-0.3-0.2c-0.1-0.1-0.1-0.1-0.1-0.2v-11.3c0-0.1,0-0.2,0.1-0.2c0.1-0.1,0.1-0.1,0.3-0.2
		c0.1,0,0.3-0.1,0.5-0.1s0.5,0,0.8,0s0.6,0,0.8,0s0.4,0.1,0.5,0.1s0.2,0.1,0.3,0.2c0.1,0.1,0.1,0.1,0.1,0.2V195.2z M630.7,181.3
		c-0.3,0.2-0.7,0.4-1.5,0.4c-0.7,0-1.2-0.1-1.5-0.4s-0.4-0.7-0.4-1.3s0.1-1.1,0.4-1.3s0.7-0.4,1.5-0.4c0.7,0,1.2,0.1,1.4,0.4
		c0.3,0.2,0.4,0.7,0.4,1.3C631.1,180.6,631,181.1,630.7,181.3z"/>
	<path class="st0" d="M751.7,158.3c-15.9,0-28.7,12.8-28.7,28.7s12.8,28.7,28.7,28.7s28.7-12.8,28.7-28.7S767.6,158.3,751.7,158.3z
		 M755.1,194.4c0,0.2,0,0.4-0.1,0.5c-0.1,0.2-0.2,0.3-0.3,0.4c-0.1,0.1-0.3,0.2-0.4,0.2c-0.2,0-0.3,0.1-0.5,0.1h-1.4
		c-0.3,0-0.6,0-0.8-0.1s-0.4-0.2-0.6-0.3c-0.2-0.2-0.4-0.4-0.5-0.6c-0.2-0.3-0.4-0.6-0.6-1l-4.1-7.7c-0.2-0.5-0.5-1-0.7-1.5
		s-0.5-1-0.7-1.5l0,0c0,0.6,0.1,1.2,0.1,1.8s0,1.2,0,1.9v8.6c0,0.1,0,0.2-0.1,0.2c0,0.1-0.1,0.1-0.2,0.2s-0.3,0.1-0.5,0.1
		s-0.4,0-0.8,0c-0.3,0-0.5,0-0.7,0s-0.3-0.1-0.5-0.1c-0.1,0-0.2-0.1-0.2-0.2c0-0.1-0.1-0.1-0.1-0.2v-14.8c0-0.4,0.1-0.7,0.3-0.9
		s0.5-0.3,0.9-0.3h1.8c0.3,0,0.6,0,0.8,0.1s0.4,0.1,0.6,0.3c0.2,0.1,0.3,0.3,0.5,0.5s0.3,0.5,0.5,0.8l3.2,6c0.2,0.4,0.4,0.7,0.6,1.1
		c0.2,0.4,0.4,0.7,0.5,1.1s0.3,0.7,0.5,1s0.3,0.7,0.5,1l0,0c0-0.6,0-1.2-0.1-1.9c0-0.6,0-1.3,0-1.8v-7.7c0-0.1,0-0.2,0.1-0.2
		c0.1-0.1,0.1-0.1,0.3-0.2s0.3-0.1,0.5-0.1s0.4,0,0.8,0c0.3,0,0.5,0,0.7,0s0.3,0.1,0.5,0.1s0.2,0.1,0.2,0.2c0,0.1,0.1,0.1,0.1,0.2
		L755.1,194.4L755.1,194.4z M761.7,195.2c0,0.1,0,0.2-0.1,0.2c-0.1,0.1-0.1,0.1-0.3,0.2c-0.1,0-0.3,0.1-0.5,0.1s-0.5,0-0.8,0
		s-0.6,0-0.8,0s-0.4-0.1-0.5-0.1s-0.2-0.1-0.3-0.2c-0.1-0.1-0.1-0.1-0.1-0.2v-11.3c0-0.1,0-0.2,0.1-0.2c0.1-0.1,0.1-0.1,0.3-0.2
		c0.1,0,0.3-0.1,0.5-0.1s0.5,0,0.8,0s0.6,0,0.8,0s0.4,0.1,0.5,0.1s0.2,0.1,0.3,0.2c0.1,0.1,0.1,0.1,0.1,0.2V195.2z M761.5,181.3
		c-0.3,0.2-0.7,0.4-1.5,0.4c-0.7,0-1.2-0.1-1.5-0.4s-0.4-0.7-0.4-1.3s0.1-1.1,0.4-1.3s0.7-0.4,1.5-0.4c0.7,0,1.2,0.1,1.4,0.4
		c0.3,0.2,0.4,0.7,0.4,1.3C761.9,180.6,761.8,181.1,761.5,181.3z"/>
	<path class="st0" d="M-32.9,158.3c-15.9,0-28.7,12.8-28.7,28.7s12.8,28.7,28.7,28.7S-4.2,202.9-4.2,187S-17,158.3-32.9,158.3z
		 M-29.5,194.4c0,0.2,0,0.4-0.1,0.5c-0.1,0.2-0.2,0.3-0.3,0.4c-0.1,0.1-0.3,0.2-0.4,0.2c-0.2,0-0.3,0.1-0.5,0.1h-1.4
		c-0.3,0-0.6,0-0.8-0.1c-0.2-0.1-0.4-0.2-0.6-0.3c-0.2-0.2-0.4-0.4-0.5-0.6c-0.2-0.3-0.4-0.6-0.6-1l-4.1-7.7c-0.2-0.5-0.5-1-0.7-1.5
		s-0.5-1-0.7-1.5l0,0c0,0.6,0.1,1.2,0.1,1.8s0,1.2,0,1.9v8.6c0,0.1,0,0.2-0.1,0.2c0,0.1-0.1,0.1-0.2,0.2s-0.3,0.1-0.5,0.1
		s-0.4,0-0.8,0c-0.3,0-0.5,0-0.7,0s-0.3-0.1-0.5-0.1c-0.1,0-0.2-0.1-0.2-0.2c0-0.1-0.1-0.1-0.1-0.2v-14.8c0-0.4,0.1-0.7,0.3-0.9
		c0.2-0.2,0.5-0.3,0.9-0.3h1.8c0.3,0,0.6,0,0.8,0.1c0.2,0.1,0.4,0.1,0.6,0.3c0.2,0.1,0.3,0.3,0.5,0.5s0.3,0.5,0.5,0.8l3.2,6
		c0.2,0.4,0.4,0.7,0.6,1.1c0.2,0.4,0.4,0.7,0.5,1.1s0.3,0.7,0.5,1s0.3,0.7,0.5,1l0,0c0-0.6,0-1.2-0.1-1.9c0-0.6,0-1.3,0-1.8v-7.7
		c0-0.1,0-0.2,0.1-0.2c0.1-0.1,0.1-0.1,0.3-0.2s0.3-0.1,0.5-0.1s0.4,0,0.8,0c0.3,0,0.5,0,0.7,0s0.3,0.1,0.5,0.1s0.2,0.1,0.2,0.2
		c0,0.1,0.1,0.1,0.1,0.2v14.7H-29.5z M-22.9,195.2c0,0.1,0,0.2-0.1,0.2c-0.1,0.1-0.1,0.1-0.3,0.2c-0.1,0-0.3,0.1-0.5,0.1
		s-0.5,0-0.8,0s-0.6,0-0.8,0c-0.2,0-0.4-0.1-0.5-0.1s-0.2-0.1-0.3-0.2c-0.1-0.1-0.1-0.1-0.1-0.2v-11.3c0-0.1,0-0.2,0.1-0.2
		c0.1-0.1,0.1-0.1,0.3-0.2c0.1,0,0.3-0.1,0.5-0.1s0.5,0,0.8,0s0.6,0,0.8,0c0.2,0,0.4,0.1,0.5,0.1s0.2,0.1,0.3,0.2
		c0.1,0.1,0.1,0.1,0.1,0.2V195.2z M-23.1,181.3c-0.3,0.2-0.7,0.4-1.5,0.4c-0.7,0-1.2-0.1-1.5-0.4s-0.4-0.7-0.4-1.3s0.1-1.1,0.4-1.3
		s0.7-0.4,1.5-0.4c0.7,0,1.2,0.1,1.4,0.4c0.3,0.2,0.4,0.7,0.4,1.3C-22.7,180.6-22.8,181.1-23.1,181.3z"/>
	<path class="st0" d="M97.9,158.3c-15.9,0-28.7,12.8-28.7,28.7s12.8,28.7,28.7,28.7s28.7-12.8,28.7-28.7S113.8,158.3,97.9,158.3z
		 M101.3,194.4c0,0.2,0,0.4-0.1,0.5c-0.1,0.2-0.2,0.3-0.3,0.4c-0.1,0.1-0.3,0.2-0.4,0.2c-0.2,0-0.3,0.1-0.5,0.1h-1.4
		c-0.3,0-0.6,0-0.8-0.1s-0.4-0.2-0.6-0.3c-0.2-0.2-0.4-0.4-0.5-0.6c-0.2-0.3-0.4-0.6-0.6-1l-4.1-7.7c-0.2-0.5-0.5-1-0.7-1.5
		s-0.5-1-0.7-1.5l0,0c0,0.6,0.1,1.2,0.1,1.8s0,1.2,0,1.9v8.6c0,0.1,0,0.2-0.1,0.2c0,0.1-0.1,0.1-0.2,0.2s-0.3,0.1-0.5,0.1
		s-0.4,0-0.8,0c-0.3,0-0.5,0-0.7,0s-0.3-0.1-0.5-0.1c-0.1,0-0.2-0.1-0.2-0.2c0-0.1-0.1-0.1-0.1-0.2v-14.8c0-0.4,0.1-0.7,0.3-0.9
		s0.5-0.3,0.9-0.3h1.8c0.3,0,0.6,0,0.8,0.1s0.4,0.1,0.6,0.3c0.2,0.1,0.3,0.3,0.5,0.5s0.3,0.5,0.5,0.8l3.2,6c0.2,0.4,0.4,0.7,0.6,1.1
		c0.2,0.4,0.4,0.7,0.5,1.1s0.3,0.7,0.5,1s0.3,0.7,0.5,1l0,0c0-0.6,0-1.2-0.1-1.9c0-0.6,0-1.3,0-1.8v-7.7c0-0.1,0-0.2,0.1-0.2
		c0.1-0.1,0.1-0.1,0.3-0.2s0.3-0.1,0.5-0.1s0.4,0,0.8,0c0.3,0,0.5,0,0.7,0s0.3,0.1,0.5,0.1s0.2,0.1,0.2,0.2c0,0.1,0.1,0.1,0.1,0.2
		v14.7H101.3z M107.9,195.2c0,0.1,0,0.2-0.1,0.2c-0.1,0.1-0.1,0.1-0.3,0.2c-0.1,0-0.3,0.1-0.5,0.1s-0.5,0-0.8,0s-0.6,0-0.8,0
		s-0.4-0.1-0.5-0.1s-0.2-0.1-0.3-0.2c-0.1-0.1-0.1-0.1-0.1-0.2v-11.3c0-0.1,0-0.2,0.1-0.2c0.1-0.1,0.1-0.1,0.3-0.2
		c0.1,0,0.3-0.1,0.5-0.1s0.5,0,0.8,0s0.6,0,0.8,0s0.4,0.1,0.5,0.1s0.2,0.1,0.3,0.2c0.1,0.1,0.1,0.1,0.1,0.2V195.2z M107.7,181.3
		c-0.3,0.2-0.7,0.4-1.5,0.4c-0.7,0-1.2-0.1-1.5-0.4s-0.4-0.7-0.4-1.3s0.1-1.1,0.4-1.3s0.7-0.4,1.5-0.4c0.7,0,1.2,0.1,1.4,0.4
		c0.3,0.2,0.4,0.7,0.4,1.3C108.1,180.6,108,181.1,107.7,181.3z"/>
	<path class="st0" d="M-32.9,158.3c-15.9,0-28.7,12.8-28.7,28.7s12.8,28.7,28.7,28.7S-4.2,202.9-4.2,187S-17,158.3-32.9,158.3z
		 M-29.5,194.4c0,0.2,0,0.4-0.1,0.5c-0.1,0.2-0.2,0.3-0.3,0.4c-0.1,0.1-0.3,0.2-0.4,0.2c-0.2,0-0.3,0.1-0.5,0.1h-1.4
		c-0.3,0-0.6,0-0.8-0.1c-0.2-0.1-0.4-0.2-0.6-0.3c-0.2-0.2-0.4-0.4-0.5-0.6c-0.2-0.3-0.4-0.6-0.6-1l-4.1-7.7c-0.2-0.5-0.5-1-0.7-1.5
		s-0.5-1-0.7-1.5l0,0c0,0.6,0.1,1.2,0.1,1.8s0,1.2,0,1.9v8.6c0,0.1,0,0.2-0.1,0.2c0,0.1-0.1,0.1-0.2,0.2s-0.3,0.1-0.5,0.1
		s-0.4,0-0.8,0c-0.3,0-0.5,0-0.7,0s-0.3-0.1-0.5-0.1c-0.1,0-0.2-0.1-0.2-0.2c0-0.1-0.1-0.1-0.1-0.2v-14.8c0-0.4,0.1-0.7,0.3-0.9
		c0.2-0.2,0.5-0.3,0.9-0.3h1.8c0.3,0,0.6,0,0.8,0.1c0.2,0.1,0.4,0.1,0.6,0.3c0.2,0.1,0.3,0.3,0.5,0.5s0.3,0.5,0.5,0.8l3.2,6
		c0.2,0.4,0.4,0.7,0.6,1.1c0.2,0.4,0.4,0.7,0.5,1.1s0.3,0.7,0.5,1s0.3,0.7,0.5,1l0,0c0-0.6,0-1.2-0.1-1.9c0-0.6,0-1.3,0-1.8v-7.7
		c0-0.1,0-0.2,0.1-0.2c0.1-0.1,0.1-0.1,0.3-0.2s0.3-0.1,0.5-0.1s0.4,0,0.8,0c0.3,0,0.5,0,0.7,0s0.3,0.1,0.5,0.1s0.2,0.1,0.2,0.2
		c0,0.1,0.1,0.1,0.1,0.2v14.7H-29.5z M-22.9,195.2c0,0.1,0,0.2-0.1,0.2c-0.1,0.1-0.1,0.1-0.3,0.2c-0.1,0-0.3,0.1-0.5,0.1
		s-0.5,0-0.8,0s-0.6,0-0.8,0c-0.2,0-0.4-0.1-0.5-0.1s-0.2-0.1-0.3-0.2c-0.1-0.1-0.1-0.1-0.1-0.2v-11.3c0-0.1,0-0.2,0.1-0.2
		c0.1-0.1,0.1-0.1,0.3-0.2c0.1,0,0.3-0.1,0.5-0.1s0.5,0,0.8,0s0.6,0,0.8,0c0.2,0,0.4,0.1,0.5,0.1s0.2,0.1,0.3,0.2
		c0.1,0.1,0.1,0.1,0.1,0.2V195.2z M-23.1,181.3c-0.3,0.2-0.7,0.4-1.5,0.4c-0.7,0-1.2-0.1-1.5-0.4s-0.4-0.7-0.4-1.3s0.1-1.1,0.4-1.3
		s0.7-0.4,1.5-0.4c0.7,0,1.2,0.1,1.4,0.4c0.3,0.2,0.4,0.7,0.4,1.3C-22.7,180.6-22.8,181.1-23.1,181.3z"/>
	<path class="st0" d="M-163.7,158.3c-15.9,0-28.7,12.8-28.7,28.7s12.8,28.7,28.7,28.7S-135,202.9-135,187S-147.8,158.3-163.7,158.3z
		 M-160.3,194.4c0,0.2,0,0.4-0.1,0.5c-0.1,0.2-0.2,0.3-0.3,0.4c-0.1,0.1-0.3,0.2-0.4,0.2c-0.2,0-0.3,0.1-0.5,0.1h-1.4
		c-0.3,0-0.6,0-0.8-0.1s-0.4-0.2-0.6-0.3c-0.2-0.2-0.4-0.4-0.5-0.6c-0.2-0.3-0.4-0.6-0.6-1l-4.1-7.7c-0.2-0.5-0.5-1-0.7-1.5
		s-0.5-1-0.7-1.5l0,0c0,0.6,0.1,1.2,0.1,1.8s0,1.2,0,1.9v8.6c0,0.1,0,0.2-0.1,0.2c0,0.1-0.1,0.1-0.2,0.2c-0.1,0.1-0.3,0.1-0.5,0.1
		s-0.4,0-0.8,0c-0.3,0-0.5,0-0.7,0s-0.3-0.1-0.5-0.1c-0.1,0-0.2-0.1-0.2-0.2c0-0.1-0.1-0.1-0.1-0.2v-14.8c0-0.4,0.1-0.7,0.3-0.9
		c0.2-0.2,0.5-0.3,0.9-0.3h1.8c0.3,0,0.6,0,0.8,0.1s0.4,0.1,0.6,0.3c0.2,0.1,0.3,0.3,0.5,0.5s0.3,0.5,0.5,0.8l3.2,6
		c0.2,0.4,0.4,0.7,0.6,1.1c0.2,0.4,0.4,0.7,0.5,1.1c0.1,0.4,0.3,0.7,0.5,1s0.3,0.7,0.5,1l0,0c0-0.6,0-1.2-0.1-1.9c0-0.6,0-1.3,0-1.8
		v-7.7c0-0.1,0-0.2,0.1-0.2c0.1-0.1,0.1-0.1,0.3-0.2c0.2-0.1,0.3-0.1,0.5-0.1s0.4,0,0.8,0c0.3,0,0.5,0,0.7,0s0.3,0.1,0.5,0.1
		s0.2,0.1,0.2,0.2c0,0.1,0.1,0.1,0.1,0.2v14.7H-160.3z M-153.7,195.2c0,0.1,0,0.2-0.1,0.2c-0.1,0.1-0.1,0.1-0.3,0.2
		c-0.1,0-0.3,0.1-0.5,0.1s-0.5,0-0.8,0s-0.6,0-0.8,0c-0.2,0-0.4-0.1-0.5-0.1c-0.1,0-0.2-0.1-0.3-0.2c-0.1-0.1-0.1-0.1-0.1-0.2v-11.3
		c0-0.1,0-0.2,0.1-0.2c0.1-0.1,0.1-0.1,0.3-0.2c0.1,0,0.3-0.1,0.5-0.1s0.5,0,0.8,0s0.6,0,0.8,0s0.4,0.1,0.5,0.1
		c0.1,0,0.2,0.1,0.3,0.2c0.1,0.1,0.1,0.1,0.1,0.2V195.2z M-153.9,181.3c-0.3,0.2-0.7,0.4-1.5,0.4c-0.7,0-1.2-0.1-1.5-0.4
		s-0.4-0.7-0.4-1.3s0.1-1.1,0.4-1.3s0.7-0.4,1.5-0.4c0.7,0,1.2,0.1,1.4,0.4c0.3,0.2,0.4,0.7,0.4,1.3
		C-153.5,180.6-153.6,181.1-153.9,181.3z"/>
	<path class="st0" d="M882.5,158.3c-15.9,0-28.7,12.8-28.7,28.7s12.8,28.7,28.7,28.7s28.7-12.8,28.7-28.7S898.4,158.3,882.5,158.3z
		 M885.9,194.4c0,0.2,0,0.4-0.1,0.5c-0.1,0.2-0.2,0.3-0.3,0.4c-0.1,0.1-0.3,0.2-0.4,0.2c-0.2,0-0.3,0.1-0.5,0.1h-1.4
		c-0.3,0-0.6,0-0.8-0.1s-0.4-0.2-0.6-0.3c-0.2-0.2-0.4-0.4-0.5-0.6c-0.2-0.3-0.4-0.6-0.6-1l-4.1-7.7c-0.2-0.5-0.5-1-0.7-1.5
		s-0.5-1-0.7-1.5l0,0c0,0.6,0.1,1.2,0.1,1.8s0,1.2,0,1.9v8.6c0,0.1,0,0.2-0.1,0.2c0,0.1-0.1,0.1-0.2,0.2s-0.3,0.1-0.5,0.1
		s-0.4,0-0.8,0c-0.3,0-0.5,0-0.7,0s-0.3-0.1-0.5-0.1c-0.1,0-0.2-0.1-0.2-0.2c0-0.1-0.1-0.1-0.1-0.2v-14.8c0-0.4,0.1-0.7,0.3-0.9
		s0.5-0.3,0.9-0.3h1.8c0.3,0,0.6,0,0.8,0.1s0.4,0.1,0.6,0.3c0.2,0.1,0.3,0.3,0.5,0.5s0.3,0.5,0.5,0.8l3.2,6c0.2,0.4,0.4,0.7,0.6,1.1
		c0.2,0.4,0.4,0.7,0.5,1.1s0.3,0.7,0.5,1s0.3,0.7,0.5,1l0,0c0-0.6,0-1.2-0.1-1.9c0-0.6,0-1.3,0-1.8v-7.7c0-0.1,0-0.2,0.1-0.2
		c0.1-0.1,0.1-0.1,0.3-0.2s0.3-0.1,0.5-0.1s0.4,0,0.8,0c0.3,0,0.5,0,0.7,0s0.3,0.1,0.5,0.1s0.2,0.1,0.2,0.2c0,0.1,0.1,0.1,0.1,0.2
		L885.9,194.4L885.9,194.4z M892.5,195.2c0,0.1,0,0.2-0.1,0.2c-0.1,0.1-0.1,0.1-0.3,0.2c-0.1,0-0.3,0.1-0.5,0.1s-0.5,0-0.8,0
		s-0.6,0-0.8,0s-0.4-0.1-0.5-0.1s-0.2-0.1-0.3-0.2c-0.1-0.1-0.1-0.1-0.1-0.2v-11.3c0-0.1,0-0.2,0.1-0.2c0.1-0.1,0.1-0.1,0.3-0.2
		c0.1,0,0.3-0.1,0.5-0.1s0.5,0,0.8,0s0.6,0,0.8,0s0.4,0.1,0.5,0.1s0.2,0.1,0.3,0.2c0.1,0.1,0.1,0.1,0.1,0.2V195.2z M892.3,181.3
		c-0.3,0.2-0.7,0.4-1.5,0.4c-0.7,0-1.2-0.1-1.5-0.4s-0.4-0.7-0.4-1.3s0.1-1.1,0.4-1.3s0.7-0.4,1.5-0.4c0.7,0,1.2,0.1,1.4,0.4
		c0.3,0.2,0.4,0.7,0.4,1.3C892.7,180.6,892.6,181.1,892.3,181.3z"/>
	<path class="st0" d="M1013.3,158.3c-15.9,0-28.7,12.8-28.7,28.7s12.8,28.7,28.7,28.7s28.7-12.8,28.7-28.7
		S1029.2,158.3,1013.3,158.3z M1016.7,194.4c0,0.2,0,0.4-0.1,0.5c-0.1,0.2-0.2,0.3-0.3,0.4c-0.1,0.1-0.3,0.2-0.4,0.2
		c-0.2,0-0.3,0.1-0.5,0.1h-1.4c-0.3,0-0.6,0-0.8-0.1s-0.4-0.2-0.6-0.3c-0.2-0.2-0.4-0.4-0.5-0.6c-0.2-0.3-0.4-0.6-0.6-1l-4.1-7.7
		c-0.2-0.5-0.5-1-0.7-1.5s-0.5-1-0.7-1.5l0,0c0,0.6,0.1,1.2,0.1,1.8s0,1.2,0,1.9v8.6c0,0.1,0,0.2-0.1,0.2c0,0.1-0.1,0.1-0.2,0.2
		s-0.3,0.1-0.5,0.1s-0.4,0-0.8,0c-0.3,0-0.5,0-0.7,0s-0.3-0.1-0.5-0.1c-0.1,0-0.2-0.1-0.2-0.2c0-0.1-0.1-0.1-0.1-0.2v-14.8
		c0-0.4,0.1-0.7,0.3-0.9s0.5-0.3,0.9-0.3h1.8c0.3,0,0.6,0,0.8,0.1s0.4,0.1,0.6,0.3c0.2,0.1,0.3,0.3,0.5,0.5s0.3,0.5,0.5,0.8l3.2,6
		c0.2,0.4,0.4,0.7,0.6,1.1c0.2,0.4,0.4,0.7,0.5,1.1s0.3,0.7,0.5,1s0.3,0.7,0.5,1l0,0c0-0.6,0-1.2-0.1-1.9c0-0.6,0-1.3,0-1.8v-7.7
		c0-0.1,0-0.2,0.1-0.2c0.1-0.1,0.1-0.1,0.3-0.2s0.3-0.1,0.5-0.1s0.4,0,0.8,0c0.3,0,0.5,0,0.7,0s0.3,0.1,0.5,0.1s0.2,0.1,0.2,0.2
		c0,0.1,0.1,0.1,0.1,0.2L1016.7,194.4L1016.7,194.4z M1023.3,195.2c0,0.1,0,0.2-0.1,0.2c-0.1,0.1-0.1,0.1-0.3,0.2
		c-0.1,0-0.3,0.1-0.5,0.1s-0.5,0-0.8,0s-0.6,0-0.8,0s-0.4-0.1-0.5-0.1s-0.2-0.1-0.3-0.2c-0.1-0.1-0.1-0.1-0.1-0.2v-11.3
		c0-0.1,0-0.2,0.1-0.2c0.1-0.1,0.1-0.1,0.3-0.2c0.1,0,0.3-0.1,0.5-0.1s0.5,0,0.8,0s0.6,0,0.8,0s0.4,0.1,0.5,0.1s0.2,0.1,0.3,0.2
		c0.1,0.1,0.1,0.1,0.1,0.2V195.2z M1023.1,181.3c-0.3,0.2-0.7,0.4-1.5,0.4c-0.7,0-1.2-0.1-1.5-0.4s-0.4-0.7-0.4-1.3s0.1-1.1,0.4-1.3
		s0.7-0.4,1.5-0.4c0.7,0,1.2,0.1,1.4,0.4c0.3,0.2,0.4,0.7,0.4,1.3C1023.5,180.6,1023.4,181.1,1023.1,181.3z"/>
</g>
<g>
	<path class="st0" d="M163.3,92.9c-15.9,0-28.7,12.8-28.7,28.7s12.8,28.7,28.7,28.7s28.7-12.8,28.7-28.7
		C192,105.8,179.2,92.9,163.3,92.9z M166.7,129c0,0.2,0,0.4-0.1,0.5c-0.1,0.2-0.2,0.3-0.3,0.4s-0.3,0.2-0.4,0.2
		c-0.2,0-0.3,0.1-0.5,0.1H164c-0.3,0-0.6,0-0.8-0.1s-0.4-0.2-0.6-0.3c-0.2-0.2-0.4-0.4-0.5-0.6c-0.2-0.3-0.4-0.6-0.6-1l-4.1-7.7
		c-0.2-0.5-0.5-1-0.7-1.5s-0.5-1-0.7-1.5l0,0c0,0.6,0.1,1.2,0.1,1.8c0,0.6,0,1.2,0,1.9v8.6c0,0.1,0,0.2-0.1,0.2
		c0,0.1-0.1,0.1-0.2,0.2s-0.3,0.1-0.5,0.1s-0.4,0-0.8,0c-0.3,0-0.5,0-0.7,0s-0.3-0.1-0.5-0.1c-0.1,0-0.2-0.1-0.2-0.2
		s-0.1-0.1-0.1-0.2V115c0-0.4,0.1-0.7,0.3-0.9c0.2-0.2,0.5-0.3,0.9-0.3h1.8c0.3,0,0.6,0,0.8,0.1s0.4,0.1,0.6,0.3
		c0.2,0.1,0.3,0.3,0.5,0.5s0.3,0.5,0.5,0.8l3.2,6c0.2,0.4,0.4,0.7,0.6,1.1c0.2,0.4,0.4,0.7,0.5,1.1s0.3,0.7,0.5,1s0.3,0.7,0.5,1l0,0
		c0-0.6,0-1.2-0.1-1.9c0-0.6,0-1.3,0-1.8v-7.7c0-0.1,0-0.2,0.1-0.2c0.1-0.1,0.1-0.1,0.3-0.2s0.3-0.1,0.5-0.1s0.4,0,0.8,0
		c0.3,0,0.5,0,0.7,0s0.3,0.1,0.5,0.1s0.2,0.1,0.2,0.2s0.1,0.1,0.1,0.2V129H166.7z M173.3,129.8c0,0.1,0,0.2-0.1,0.2
		c-0.1,0.1-0.1,0.1-0.3,0.2c-0.1,0-0.3,0.1-0.5,0.1s-0.5,0-0.8,0s-0.6,0-0.8,0s-0.4-0.1-0.5-0.1s-0.2-0.1-0.3-0.2s-0.1-0.1-0.1-0.2
		v-11.3c0-0.1,0-0.2,0.1-0.2c0.1-0.1,0.1-0.1,0.3-0.2c0.1,0,0.3-0.1,0.5-0.1s0.5,0,0.8,0s0.6,0,0.8,0s0.4,0.1,0.5,0.1
		s0.2,0.1,0.3,0.2s0.1,0.1,0.1,0.2V129.8z M173.1,115.9c-0.3,0.2-0.7,0.4-1.5,0.4c-0.7,0-1.2-0.1-1.5-0.4s-0.4-0.7-0.4-1.3
		c0-0.6,0.1-1.1,0.4-1.3s0.7-0.4,1.5-0.4c0.7,0,1.2,0.1,1.4,0.4c0.3,0.2,0.4,0.7,0.4,1.3C173.5,115.2,173.4,115.7,173.1,115.9z"/>
	<path class="st0" d="M32.5,92.9c-15.9,0-28.7,12.8-28.7,28.7s12.8,28.7,28.7,28.7s28.7-12.8,28.7-28.7
		C61.2,105.8,48.4,92.9,32.5,92.9z M35.9,129c0,0.2,0,0.4-0.1,0.5c-0.1,0.2-0.2,0.3-0.3,0.4s-0.3,0.2-0.4,0.2
		c-0.2,0-0.3,0.1-0.5,0.1h-1.4c-0.3,0-0.6,0-0.8-0.1s-0.4-0.2-0.6-0.3c-0.2-0.2-0.4-0.4-0.5-0.6c-0.2-0.3-0.4-0.6-0.6-1l-4.1-7.7
		c-0.2-0.5-0.5-1-0.7-1.5s-0.5-1-0.7-1.5l0,0c0,0.6,0.1,1.2,0.1,1.8c0,0.6,0,1.2,0,1.9v8.6c0,0.1,0,0.2-0.1,0.2
		c0,0.1-0.1,0.1-0.2,0.2s-0.3,0.1-0.5,0.1s-0.4,0-0.8,0c-0.3,0-0.5,0-0.7,0s-0.3-0.1-0.5-0.1c-0.1,0-0.2-0.1-0.2-0.2
		s-0.1-0.1-0.1-0.2V115c0-0.4,0.1-0.7,0.3-0.9c0.2-0.2,0.5-0.3,0.9-0.3h1.8c0.3,0,0.6,0,0.8,0.1s0.4,0.1,0.6,0.3
		c0.2,0.1,0.3,0.3,0.5,0.5s0.3,0.5,0.5,0.8l3.2,6c0.2,0.4,0.4,0.7,0.6,1.1c0.2,0.4,0.4,0.7,0.5,1.1s0.3,0.7,0.5,1s0.3,0.7,0.5,1l0,0
		c0-0.6,0-1.2-0.1-1.9c0-0.6,0-1.3,0-1.8v-7.7c0-0.1,0-0.2,0.1-0.2c0.1-0.1,0.1-0.1,0.3-0.2s0.3-0.1,0.5-0.1s0.4,0,0.8,0
		c0.3,0,0.5,0,0.7,0s0.3,0.1,0.5,0.1s0.2,0.1,0.2,0.2s0.1,0.1,0.1,0.2V129H35.9z M42.5,129.8c0,0.1,0,0.2-0.1,0.2
		c-0.1,0.1-0.1,0.1-0.3,0.2c-0.1,0-0.3,0.1-0.5,0.1s-0.5,0-0.8,0s-0.6,0-0.8,0s-0.4-0.1-0.5-0.1s-0.2-0.1-0.3-0.2s-0.1-0.1-0.1-0.2
		v-11.3c0-0.1,0-0.2,0.1-0.2c0.1-0.1,0.1-0.1,0.3-0.2c0.1,0,0.3-0.1,0.5-0.1s0.5,0,0.8,0s0.6,0,0.8,0s0.4,0.1,0.5,0.1
		s0.2,0.1,0.3,0.2s0.1,0.1,0.1,0.2V129.8z M42.3,115.9c-0.3,0.2-0.7,0.4-1.5,0.4c-0.7,0-1.2-0.1-1.5-0.4s-0.4-0.7-0.4-1.3
		c0-0.6,0.1-1.1,0.4-1.3s0.7-0.4,1.5-0.4c0.7,0,1.2,0.1,1.4,0.4c0.3,0.2,0.4,0.7,0.4,1.3C42.7,115.2,42.6,115.7,42.3,115.9z"/>
	<path class="st0" d="M-98.3,92.9c-15.9,0-28.7,12.8-28.7,28.7s12.8,28.7,28.7,28.7s28.7-12.8,28.7-28.7
		C-69.6,105.8-82.4,92.9-98.3,92.9z M-94.9,129c0,0.2,0,0.4-0.1,0.5c-0.1,0.2-0.2,0.3-0.3,0.4s-0.3,0.2-0.4,0.2
		c-0.2,0-0.3,0.1-0.5,0.1h-1.4c-0.3,0-0.6,0-0.8-0.1s-0.4-0.2-0.6-0.3c-0.2-0.2-0.4-0.4-0.5-0.6c-0.2-0.3-0.4-0.6-0.6-1l-4.1-7.7
		c-0.2-0.5-0.5-1-0.7-1.5s-0.5-1-0.7-1.5l0,0c0,0.6,0.1,1.2,0.1,1.8c0,0.6,0,1.2,0,1.9v8.6c0,0.1,0,0.2-0.1,0.2
		c0,0.1-0.1,0.1-0.2,0.2s-0.3,0.1-0.5,0.1s-0.4,0-0.8,0c-0.3,0-0.5,0-0.7,0s-0.3-0.1-0.5-0.1c-0.1,0-0.2-0.1-0.2-0.2
		s-0.1-0.1-0.1-0.2V115c0-0.4,0.1-0.7,0.3-0.9c0.2-0.2,0.5-0.3,0.9-0.3h1.8c0.3,0,0.6,0,0.8,0.1s0.4,0.1,0.6,0.3
		c0.2,0.1,0.3,0.3,0.5,0.5s0.3,0.5,0.5,0.8l3.2,6c0.2,0.4,0.4,0.7,0.6,1.1c0.2,0.4,0.4,0.7,0.5,1.1s0.3,0.7,0.5,1s0.3,0.7,0.5,1l0,0
		c0-0.6,0-1.2-0.1-1.9c0-0.6,0-1.3,0-1.8v-7.7c0-0.1,0-0.2,0.1-0.2c0.1-0.1,0.1-0.1,0.3-0.2s0.3-0.1,0.5-0.1s0.4,0,0.8,0
		c0.3,0,0.5,0,0.7,0s0.3,0.1,0.5,0.1s0.2,0.1,0.2,0.2s0.1,0.1,0.1,0.2V129H-94.9z M-88.3,129.8c0,0.1,0,0.2-0.1,0.2
		c-0.1,0.1-0.1,0.1-0.3,0.2c-0.1,0-0.3,0.1-0.5,0.1s-0.5,0-0.8,0s-0.6,0-0.8,0s-0.4-0.1-0.5-0.1s-0.2-0.1-0.3-0.2s-0.1-0.1-0.1-0.2
		v-11.3c0-0.1,0-0.2,0.1-0.2c0.1-0.1,0.1-0.1,0.3-0.2c0.1,0,0.3-0.1,0.5-0.1s0.5,0,0.8,0s0.6,0,0.8,0s0.4,0.1,0.5,0.1
		s0.2,0.1,0.3,0.2s0.1,0.1,0.1,0.2V129.8z M-88.5,115.9c-0.3,0.2-0.7,0.4-1.5,0.4c-0.7,0-1.2-0.1-1.5-0.4s-0.4-0.7-0.4-1.3
		c0-0.6,0.1-1.1,0.4-1.3s0.7-0.4,1.5-0.4c0.7,0,1.2,0.1,1.4,0.4c0.3,0.2,0.4,0.7,0.4,1.3C-88.1,115.2-88.2,115.7-88.5,115.9z"/>
	<path class="st0" d="M-229.1,92.9c-15.9,0-28.7,12.8-28.7,28.7s12.8,28.7,28.7,28.7s28.7-12.8,28.7-28.7
		C-200.4,105.8-213.2,92.9-229.1,92.9z M-225.7,129c0,0.2,0,0.4-0.1,0.5c-0.1,0.2-0.2,0.3-0.3,0.4s-0.3,0.2-0.4,0.2
		c-0.2,0-0.3,0.1-0.5,0.1h-1.4c-0.3,0-0.6,0-0.8-0.1s-0.4-0.2-0.6-0.3c-0.2-0.2-0.4-0.4-0.5-0.6c-0.2-0.3-0.4-0.6-0.6-1l-4.1-7.7
		c-0.2-0.5-0.5-1-0.7-1.5s-0.5-1-0.7-1.5l0,0c0,0.6,0.1,1.2,0.1,1.8c0,0.6,0,1.2,0,1.9v8.6c0,0.1,0,0.2-0.1,0.2
		c0,0.1-0.1,0.1-0.2,0.2s-0.3,0.1-0.5,0.1s-0.4,0-0.8,0c-0.3,0-0.5,0-0.7,0s-0.3-0.1-0.5-0.1c-0.1,0-0.2-0.1-0.2-0.2
		s-0.1-0.1-0.1-0.2V115c0-0.4,0.1-0.7,0.3-0.9c0.2-0.2,0.5-0.3,0.9-0.3h1.8c0.3,0,0.6,0,0.8,0.1s0.4,0.1,0.6,0.3
		c0.2,0.1,0.3,0.3,0.5,0.5s0.3,0.5,0.5,0.8l3.2,6c0.2,0.4,0.4,0.7,0.6,1.1c0.2,0.4,0.4,0.7,0.5,1.1s0.3,0.7,0.5,1s0.3,0.7,0.5,1l0,0
		c0-0.6,0-1.2-0.1-1.9c0-0.6,0-1.3,0-1.8v-7.7c0-0.1,0-0.2,0.1-0.2c0.1-0.1,0.1-0.1,0.3-0.2s0.3-0.1,0.5-0.1s0.4,0,0.8,0
		c0.3,0,0.5,0,0.7,0s0.3,0.1,0.5,0.1s0.2,0.1,0.2,0.2s0.1,0.1,0.1,0.2V129H-225.7z M-219.1,129.8c0,0.1,0,0.2-0.1,0.2
		c-0.1,0.1-0.1,0.1-0.3,0.2c-0.1,0-0.3,0.1-0.5,0.1s-0.5,0-0.8,0s-0.6,0-0.8,0s-0.4-0.1-0.5-0.1s-0.2-0.1-0.3-0.2s-0.1-0.1-0.1-0.2
		v-11.3c0-0.1,0-0.2,0.1-0.2c0.1-0.1,0.1-0.1,0.3-0.2c0.1,0,0.3-0.1,0.5-0.1s0.5,0,0.8,0s0.6,0,0.8,0s0.4,0.1,0.5,0.1
		s0.2,0.1,0.3,0.2s0.1,0.1,0.1,0.2V129.8z M-219.3,115.9c-0.3,0.2-0.7,0.4-1.5,0.4c-0.7,0-1.2-0.1-1.5-0.4s-0.4-0.7-0.4-1.3
		c0-0.6,0.1-1.1,0.4-1.3s0.7-0.4,1.5-0.4c0.7,0,1.2,0.1,1.4,0.4c0.3,0.2,0.4,0.7,0.4,1.3C-218.9,115.2-219,115.7-219.3,115.9z"/>
	<path class="st0" d="M294.1,92.9c-15.9,0-28.7,12.8-28.7,28.7s12.8,28.7,28.7,28.7s28.7-12.8,28.7-28.7
		C322.8,105.8,310,92.9,294.1,92.9z M297.4,129c0,0.2,0,0.4-0.1,0.5c-0.1,0.2-0.2,0.3-0.3,0.4c-0.1,0.1-0.3,0.2-0.4,0.2
		c-0.2,0-0.3,0.1-0.5,0.1h-1.4c-0.3,0-0.6,0-0.8-0.1c-0.2-0.1-0.4-0.2-0.6-0.3c-0.2-0.2-0.4-0.4-0.5-0.6c-0.2-0.3-0.4-0.6-0.6-1
		l-4.1-7.7c-0.2-0.5-0.5-1-0.7-1.5s-0.5-1-0.7-1.5l0,0c0,0.6,0.1,1.2,0.1,1.8c0,0.6,0,1.2,0,1.9v8.6c0,0.1,0,0.2-0.1,0.2
		c0,0.1-0.1,0.1-0.2,0.2s-0.3,0.1-0.5,0.1s-0.4,0-0.8,0c-0.3,0-0.5,0-0.7,0s-0.3-0.1-0.5-0.1c-0.1,0-0.2-0.1-0.2-0.2
		s-0.1-0.1-0.1-0.2V115c0-0.4,0.1-0.7,0.3-0.9c0.2-0.2,0.5-0.3,0.9-0.3h1.8c0.3,0,0.6,0,0.8,0.1c0.2,0.1,0.4,0.1,0.6,0.3
		c0.2,0.1,0.3,0.3,0.5,0.5s0.3,0.5,0.5,0.8l3.2,6c0.2,0.4,0.4,0.7,0.6,1.1s0.4,0.7,0.5,1.1s0.3,0.7,0.5,1s0.3,0.7,0.5,1l0,0
		c0-0.6,0-1.2-0.1-1.9c0-0.6,0-1.3,0-1.8v-7.7c0-0.1,0-0.2,0.1-0.2c0.1-0.1,0.1-0.1,0.3-0.2s0.3-0.1,0.5-0.1s0.4,0,0.8,0
		c0.3,0,0.5,0,0.7,0s0.3,0.1,0.5,0.1s0.2,0.1,0.2,0.2s0.1,0.1,0.1,0.2L297.4,129L297.4,129z M304,129.8c0,0.1,0,0.2-0.1,0.2
		c-0.1,0.1-0.1,0.1-0.3,0.2c-0.1,0-0.3,0.1-0.5,0.1s-0.5,0-0.8,0s-0.6,0-0.8,0c-0.2,0-0.4-0.1-0.5-0.1s-0.2-0.1-0.3-0.2
		c-0.1-0.1-0.1-0.1-0.1-0.2v-11.3c0-0.1,0-0.2,0.1-0.2c0.1-0.1,0.1-0.1,0.3-0.2c0.1,0,0.3-0.1,0.5-0.1s0.5,0,0.8,0s0.6,0,0.8,0
		c0.2,0,0.4,0.1,0.5,0.1s0.2,0.1,0.3,0.2c0.1,0.1,0.1,0.1,0.1,0.2V129.8z M303.8,115.9c-0.3,0.2-0.7,0.4-1.5,0.4
		c-0.7,0-1.2-0.1-1.5-0.4s-0.4-0.7-0.4-1.3c0-0.6,0.1-1.1,0.4-1.3s0.7-0.4,1.5-0.4c0.7,0,1.2,0.1,1.4,0.4c0.3,0.2,0.4,0.7,0.4,1.3
		C304.2,115.2,304.1,115.7,303.8,115.9z"/>
	<path class="st0" d="M424.8,92.9c-15.9,0-28.7,12.8-28.7,28.7s12.8,28.7,28.7,28.7s28.7-12.8,28.7-28.7
		C453.5,105.8,440.7,92.9,424.8,92.9z M428.2,129c0,0.2,0,0.4-0.1,0.5c-0.1,0.2-0.2,0.3-0.3,0.4c-0.1,0.1-0.3,0.2-0.4,0.2
		c-0.2,0-0.3,0.1-0.5,0.1h-1.4c-0.3,0-0.6,0-0.8-0.1c-0.2-0.1-0.4-0.2-0.6-0.3c-0.2-0.2-0.4-0.4-0.5-0.6c-0.2-0.3-0.4-0.6-0.6-1
		l-4.1-7.7c-0.2-0.5-0.5-1-0.7-1.5s-0.5-1-0.7-1.5l0,0c0,0.6,0.1,1.2,0.1,1.8c0,0.6,0,1.2,0,1.9v8.6c0,0.1,0,0.2-0.1,0.2
		c0,0.1-0.1,0.1-0.2,0.2s-0.3,0.1-0.5,0.1s-0.4,0-0.8,0c-0.3,0-0.5,0-0.7,0s-0.3-0.1-0.5-0.1c-0.1,0-0.2-0.1-0.2-0.2
		s-0.1-0.1-0.1-0.2V115c0-0.4,0.1-0.7,0.3-0.9c0.2-0.2,0.5-0.3,0.9-0.3h1.8c0.3,0,0.6,0,0.8,0.1c0.2,0.1,0.4,0.1,0.6,0.3
		c0.2,0.1,0.3,0.3,0.5,0.5s0.3,0.5,0.5,0.8l3.2,6c0.2,0.4,0.4,0.7,0.6,1.1s0.4,0.7,0.5,1.1s0.3,0.7,0.5,1s0.3,0.7,0.5,1l0,0
		c0-0.6,0-1.2-0.1-1.9c0-0.6,0-1.3,0-1.8v-7.7c0-0.1,0-0.2,0.1-0.2c0.1-0.1,0.1-0.1,0.3-0.2s0.3-0.1,0.5-0.1s0.4,0,0.8,0
		c0.3,0,0.5,0,0.7,0s0.3,0.1,0.5,0.1s0.2,0.1,0.2,0.2s0.1,0.1,0.1,0.2L428.2,129L428.2,129z M434.8,129.8c0,0.1,0,0.2-0.1,0.2
		c-0.1,0.1-0.1,0.1-0.3,0.2c-0.1,0-0.3,0.1-0.5,0.1s-0.5,0-0.8,0s-0.6,0-0.8,0c-0.2,0-0.4-0.1-0.5-0.1s-0.2-0.1-0.3-0.2
		c-0.1-0.1-0.1-0.1-0.1-0.2v-11.3c0-0.1,0-0.2,0.1-0.2c0.1-0.1,0.1-0.1,0.3-0.2c0.1,0,0.3-0.1,0.5-0.1s0.5,0,0.8,0s0.6,0,0.8,0
		c0.2,0,0.4,0.1,0.5,0.1s0.2,0.1,0.3,0.2c0.1,0.1,0.1,0.1,0.1,0.2V129.8z M434.6,115.9c-0.3,0.2-0.7,0.4-1.5,0.4
		c-0.7,0-1.2-0.1-1.5-0.4s-0.4-0.7-0.4-1.3c0-0.6,0.1-1.1,0.4-1.3s0.7-0.4,1.5-0.4c0.7,0,1.2,0.1,1.4,0.4c0.3,0.2,0.4,0.7,0.4,1.3
		C435,115.2,434.9,115.7,434.6,115.9z"/>
	<path class="st0" d="M555.6,92.9c-15.9,0-28.7,12.8-28.7,28.7s12.8,28.7,28.7,28.7s28.7-12.8,28.7-28.7
		C584.3,105.8,571.5,92.9,555.6,92.9z M558.9,129c0,0.2,0,0.4-0.1,0.5c-0.1,0.2-0.2,0.3-0.3,0.4s-0.3,0.2-0.4,0.2
		c-0.2,0-0.3,0.1-0.5,0.1h-1.4c-0.3,0-0.6,0-0.8-0.1s-0.4-0.2-0.6-0.3c-0.2-0.2-0.4-0.4-0.5-0.6c-0.2-0.3-0.4-0.6-0.6-1l-4.1-7.7
		c-0.2-0.5-0.5-1-0.7-1.5s-0.5-1-0.7-1.5l0,0c0,0.6,0.1,1.2,0.1,1.8c0,0.6,0,1.2,0,1.9v8.6c0,0.1,0,0.2-0.1,0.2
		c0,0.1-0.1,0.1-0.2,0.2s-0.3,0.1-0.5,0.1s-0.4,0-0.8,0c-0.3,0-0.5,0-0.7,0s-0.3-0.1-0.5-0.1c-0.1,0-0.2-0.1-0.2-0.2
		s-0.1-0.1-0.1-0.2V115c0-0.4,0.1-0.7,0.3-0.9c0.2-0.2,0.5-0.3,0.9-0.3h1.8c0.3,0,0.6,0,0.8,0.1s0.4,0.1,0.6,0.3
		c0.2,0.1,0.3,0.3,0.5,0.5s0.3,0.5,0.5,0.8l3.2,6c0.2,0.4,0.4,0.7,0.6,1.1c0.2,0.4,0.4,0.7,0.5,1.1s0.3,0.7,0.5,1s0.3,0.7,0.5,1l0,0
		c0-0.6,0-1.2-0.1-1.9c0-0.6,0-1.3,0-1.8v-7.7c0-0.1,0-0.2,0.1-0.2c0.1-0.1,0.1-0.1,0.3-0.2s0.3-0.1,0.5-0.1s0.4,0,0.8,0
		c0.3,0,0.5,0,0.7,0s0.3,0.1,0.5,0.1s0.2,0.1,0.2,0.2s0.1,0.1,0.1,0.2L558.9,129L558.9,129z M565.5,129.8c0,0.1,0,0.2-0.1,0.2
		c-0.1,0.1-0.1,0.1-0.3,0.2c-0.1,0-0.3,0.1-0.5,0.1s-0.5,0-0.8,0s-0.6,0-0.8,0s-0.4-0.1-0.5-0.1s-0.2-0.1-0.3-0.2s-0.1-0.1-0.1-0.2
		v-11.3c0-0.1,0-0.2,0.1-0.2c0.1-0.1,0.1-0.1,0.3-0.2c0.1,0,0.3-0.1,0.5-0.1s0.5,0,0.8,0s0.6,0,0.8,0s0.4,0.1,0.5,0.1
		s0.2,0.1,0.3,0.2s0.1,0.1,0.1,0.2V129.8z M565.3,115.9c-0.3,0.2-0.7,0.4-1.5,0.4c-0.7,0-1.2-0.1-1.5-0.4s-0.4-0.7-0.4-1.3
		c0-0.6,0.1-1.1,0.4-1.3s0.7-0.4,1.5-0.4c0.7,0,1.2,0.1,1.4,0.4c0.3,0.2,0.4,0.7,0.4,1.3C565.7,115.2,565.6,115.7,565.3,115.9z"/>
	<path class="st0" d="M686.3,92.9c-15.9,0-28.7,12.8-28.7,28.7s12.8,28.7,28.7,28.7s28.7-12.8,28.7-28.7
		C715,105.8,702.2,92.9,686.3,92.9z M689.7,129c0,0.2,0,0.4-0.1,0.5c-0.1,0.2-0.2,0.3-0.3,0.4s-0.3,0.2-0.4,0.2
		c-0.2,0-0.3,0.1-0.5,0.1H687c-0.3,0-0.6,0-0.8-0.1s-0.4-0.2-0.6-0.3c-0.2-0.2-0.4-0.4-0.5-0.6c-0.2-0.3-0.4-0.6-0.6-1l-4.1-7.7
		c-0.2-0.5-0.5-1-0.7-1.5s-0.5-1-0.7-1.5l0,0c0,0.6,0.1,1.2,0.1,1.8c0,0.6,0,1.2,0,1.9v8.6c0,0.1,0,0.2-0.1,0.2
		c0,0.1-0.1,0.1-0.2,0.2s-0.3,0.1-0.5,0.1s-0.4,0-0.8,0c-0.3,0-0.5,0-0.7,0s-0.3-0.1-0.5-0.1c-0.1,0-0.2-0.1-0.2-0.2
		s-0.1-0.1-0.1-0.2V115c0-0.4,0.1-0.7,0.3-0.9c0.2-0.2,0.5-0.3,0.9-0.3h1.8c0.3,0,0.6,0,0.8,0.1s0.4,0.1,0.6,0.3
		c0.2,0.1,0.3,0.3,0.5,0.5s0.3,0.5,0.5,0.8l3.2,6c0.2,0.4,0.4,0.7,0.6,1.1c0.2,0.4,0.4,0.7,0.5,1.1s0.3,0.7,0.5,1s0.3,0.7,0.5,1l0,0
		c0-0.6,0-1.2-0.1-1.9c0-0.6,0-1.3,0-1.8v-7.7c0-0.1,0-0.2,0.1-0.2c0.1-0.1,0.1-0.1,0.3-0.2s0.3-0.1,0.5-0.1s0.4,0,0.8,0
		c0.3,0,0.5,0,0.7,0s0.3,0.1,0.5,0.1s0.2,0.1,0.2,0.2s0.1,0.1,0.1,0.2L689.7,129L689.7,129z M696.3,129.8c0,0.1,0,0.2-0.1,0.2
		c-0.1,0.1-0.1,0.1-0.3,0.2c-0.1,0-0.3,0.1-0.5,0.1s-0.5,0-0.8,0s-0.6,0-0.8,0s-0.4-0.1-0.5-0.1s-0.2-0.1-0.3-0.2s-0.1-0.1-0.1-0.2
		v-11.3c0-0.1,0-0.2,0.1-0.2c0.1-0.1,0.1-0.1,0.3-0.2c0.1,0,0.3-0.1,0.5-0.1s0.5,0,0.8,0s0.6,0,0.8,0s0.4,0.1,0.5,0.1
		s0.2,0.1,0.3,0.2s0.1,0.1,0.1,0.2V129.8z M696.1,115.9c-0.3,0.2-0.7,0.4-1.5,0.4c-0.7,0-1.2-0.1-1.5-0.4s-0.4-0.7-0.4-1.3
		c0-0.6,0.1-1.1,0.4-1.3s0.7-0.4,1.5-0.4c0.7,0,1.2,0.1,1.4,0.4c0.3,0.2,0.4,0.7,0.4,1.3C696.5,115.2,696.4,115.7,696.1,115.9z"/>
	<path class="st0" d="M817.1,92.9c-15.9,0-28.7,12.8-28.7,28.7s12.8,28.7,28.7,28.7s28.7-12.8,28.7-28.7
		C845.8,105.8,833,92.9,817.1,92.9z M820.5,129c0,0.2,0,0.4-0.1,0.5c-0.1,0.2-0.2,0.3-0.3,0.4s-0.3,0.2-0.4,0.2
		c-0.2,0-0.3,0.1-0.5,0.1h-1.4c-0.3,0-0.6,0-0.8-0.1s-0.4-0.2-0.6-0.3c-0.2-0.2-0.4-0.4-0.5-0.6c-0.2-0.3-0.4-0.6-0.6-1l-4.1-7.7
		c-0.2-0.5-0.5-1-0.7-1.5s-0.5-1-0.7-1.5l0,0c0,0.6,0.1,1.2,0.1,1.8c0,0.6,0,1.2,0,1.9v8.6c0,0.1,0,0.2-0.1,0.2
		c0,0.1-0.1,0.1-0.2,0.2s-0.3,0.1-0.5,0.1s-0.4,0-0.8,0c-0.3,0-0.5,0-0.7,0s-0.3-0.1-0.5-0.1c-0.1,0-0.2-0.1-0.2-0.2
		s-0.1-0.1-0.1-0.2V115c0-0.4,0.1-0.7,0.3-0.9c0.2-0.2,0.5-0.3,0.9-0.3h1.8c0.3,0,0.6,0,0.8,0.1s0.4,0.1,0.6,0.3
		c0.2,0.1,0.3,0.3,0.5,0.5s0.3,0.5,0.5,0.8l3.2,6c0.2,0.4,0.4,0.7,0.6,1.1c0.2,0.4,0.4,0.7,0.5,1.1s0.3,0.7,0.5,1s0.3,0.7,0.5,1l0,0
		c0-0.6,0-1.2-0.1-1.9c0-0.6,0-1.3,0-1.8v-7.7c0-0.1,0-0.2,0.1-0.2c0.1-0.1,0.1-0.1,0.3-0.2s0.3-0.1,0.5-0.1s0.4,0,0.8,0
		c0.3,0,0.5,0,0.7,0s0.3,0.1,0.5,0.1s0.2,0.1,0.2,0.2s0.1,0.1,0.1,0.2L820.5,129L820.5,129z M827.1,129.8c0,0.1,0,0.2-0.1,0.2
		c-0.1,0.1-0.1,0.1-0.3,0.2c-0.1,0-0.3,0.1-0.5,0.1s-0.5,0-0.8,0s-0.6,0-0.8,0s-0.4-0.1-0.5-0.1s-0.2-0.1-0.3-0.2s-0.1-0.1-0.1-0.2
		v-11.3c0-0.1,0-0.2,0.1-0.2c0.1-0.1,0.1-0.1,0.3-0.2c0.1,0,0.3-0.1,0.5-0.1s0.5,0,0.8,0s0.6,0,0.8,0s0.4,0.1,0.5,0.1
		s0.2,0.1,0.3,0.2s0.1,0.1,0.1,0.2V129.8z M826.9,115.9c-0.3,0.2-0.7,0.4-1.5,0.4c-0.7,0-1.2-0.1-1.5-0.4s-0.4-0.7-0.4-1.3
		c0-0.6,0.1-1.1,0.4-1.3s0.7-0.4,1.5-0.4c0.7,0,1.2,0.1,1.4,0.4c0.3,0.2,0.4,0.7,0.4,1.3C827.3,115.2,827.2,115.7,826.9,115.9z"/>
	<path class="st0" d="M947.9,92.9c-15.9,0-28.7,12.8-28.7,28.7s12.8,28.7,28.7,28.7s28.7-12.8,28.7-28.7
		C976.6,105.8,963.8,92.9,947.9,92.9z M951.3,129c0,0.2,0,0.4-0.1,0.5c-0.1,0.2-0.2,0.3-0.3,0.4s-0.3,0.2-0.4,0.2
		c-0.2,0-0.3,0.1-0.5,0.1h-1.4c-0.3,0-0.6,0-0.8-0.1s-0.4-0.2-0.6-0.3c-0.2-0.2-0.4-0.4-0.5-0.6c-0.2-0.3-0.4-0.6-0.6-1l-4.1-7.7
		c-0.2-0.5-0.5-1-0.7-1.5s-0.5-1-0.7-1.5l0,0c0,0.6,0.1,1.2,0.1,1.8c0,0.6,0,1.2,0,1.9v8.6c0,0.1,0,0.2-0.1,0.2
		c0,0.1-0.1,0.1-0.2,0.2s-0.3,0.1-0.5,0.1s-0.4,0-0.8,0c-0.3,0-0.5,0-0.7,0s-0.3-0.1-0.5-0.1c-0.1,0-0.2-0.1-0.2-0.2
		s-0.1-0.1-0.1-0.2V115c0-0.4,0.1-0.7,0.3-0.9c0.2-0.2,0.5-0.3,0.9-0.3h1.8c0.3,0,0.6,0,0.8,0.1s0.4,0.1,0.6,0.3
		c0.2,0.1,0.3,0.3,0.5,0.5s0.3,0.5,0.5,0.8l3.2,6c0.2,0.4,0.4,0.7,0.6,1.1c0.2,0.4,0.4,0.7,0.5,1.1s0.3,0.7,0.5,1s0.3,0.7,0.5,1l0,0
		c0-0.6,0-1.2-0.1-1.9c0-0.6,0-1.3,0-1.8v-7.7c0-0.1,0-0.2,0.1-0.2c0.1-0.1,0.1-0.1,0.3-0.2s0.3-0.1,0.5-0.1s0.4,0,0.8,0
		c0.3,0,0.5,0,0.7,0s0.3,0.1,0.5,0.1s0.2,0.1,0.2,0.2s0.1,0.1,0.1,0.2L951.3,129L951.3,129z M957.9,129.8c0,0.1,0,0.2-0.1,0.2
		c-0.1,0.1-0.1,0.1-0.3,0.2c-0.1,0-0.3,0.1-0.5,0.1s-0.5,0-0.8,0s-0.6,0-0.8,0s-0.4-0.1-0.5-0.1s-0.2-0.1-0.3-0.2s-0.1-0.1-0.1-0.2
		v-11.3c0-0.1,0-0.2,0.1-0.2c0.1-0.1,0.1-0.1,0.3-0.2c0.1,0,0.3-0.1,0.5-0.1s0.5,0,0.8,0s0.6,0,0.8,0s0.4,0.1,0.5,0.1
		s0.2,0.1,0.3,0.2s0.1,0.1,0.1,0.2V129.8z M957.7,115.9c-0.3,0.2-0.7,0.4-1.5,0.4c-0.7,0-1.2-0.1-1.5-0.4s-0.4-0.7-0.4-1.3
		c0-0.6,0.1-1.1,0.4-1.3s0.7-0.4,1.5-0.4c0.7,0,1.2,0.1,1.4,0.4c0.3,0.2,0.4,0.7,0.4,1.3C958.1,115.2,958,115.7,957.7,115.9z"/>
	<path class="st0" d="M1078.7,92.9c-15.9,0-28.7,12.8-28.7,28.7s12.8,28.7,28.7,28.7s28.7-12.8,28.7-28.7
		C1107.4,105.8,1094.6,92.9,1078.7,92.9z M1082.1,129c0,0.2,0,0.4-0.1,0.5c-0.1,0.2-0.2,0.3-0.3,0.4s-0.3,0.2-0.4,0.2
		c-0.2,0-0.3,0.1-0.5,0.1h-1.4c-0.3,0-0.6,0-0.8-0.1c-0.2-0.1-0.4-0.2-0.6-0.3c-0.2-0.2-0.4-0.4-0.5-0.6c-0.2-0.3-0.4-0.6-0.6-1
		l-4.1-7.7c-0.2-0.5-0.5-1-0.7-1.5c-0.2-0.5-0.5-1-0.7-1.5l0,0c0,0.6,0.1,1.2,0.1,1.8c0,0.6,0,1.2,0,1.9v8.6c0,0.1,0,0.2-0.1,0.2
		c0,0.1-0.1,0.1-0.2,0.2c-0.1,0.1-0.3,0.1-0.5,0.1c-0.2,0-0.4,0-0.8,0c-0.3,0-0.5,0-0.7,0c-0.2,0-0.3-0.1-0.5-0.1
		c-0.1,0-0.2-0.1-0.2-0.2s-0.1-0.1-0.1-0.2V115c0-0.4,0.1-0.7,0.3-0.9c0.2-0.2,0.5-0.3,0.9-0.3h1.8c0.3,0,0.6,0,0.8,0.1
		c0.2,0.1,0.4,0.1,0.6,0.3c0.2,0.1,0.3,0.3,0.5,0.5c0.2,0.2,0.3,0.5,0.5,0.8l3.2,6c0.2,0.4,0.4,0.7,0.6,1.1c0.2,0.4,0.4,0.7,0.5,1.1
		s0.3,0.7,0.5,1c0.2,0.3,0.3,0.7,0.5,1l0,0c0-0.6,0-1.2-0.1-1.9c0-0.6,0-1.3,0-1.8v-7.7c0-0.1,0-0.2,0.1-0.2
		c0.1-0.1,0.1-0.1,0.3-0.2c0.2-0.1,0.3-0.1,0.5-0.1c0.2,0,0.4,0,0.8,0c0.3,0,0.5,0,0.7,0c0.2,0,0.3,0.1,0.5,0.1
		c0.2,0,0.2,0.1,0.2,0.2s0.1,0.1,0.1,0.2L1082.1,129L1082.1,129z M1088.7,129.8c0,0.1,0,0.2-0.1,0.2c-0.1,0.1-0.1,0.1-0.3,0.2
		c-0.1,0-0.3,0.1-0.5,0.1c-0.2,0-0.5,0-0.8,0c-0.3,0-0.6,0-0.8,0c-0.2,0-0.4-0.1-0.5-0.1s-0.2-0.1-0.3-0.2s-0.1-0.1-0.1-0.2v-11.3
		c0-0.1,0-0.2,0.1-0.2c0.1-0.1,0.1-0.1,0.3-0.2c0.1,0,0.3-0.1,0.5-0.1c0.2,0,0.5,0,0.8,0c0.3,0,0.6,0,0.8,0c0.2,0,0.4,0.1,0.5,0.1
		s0.2,0.1,0.3,0.2s0.1,0.1,0.1,0.2V129.8z M1088.5,115.9c-0.3,0.2-0.7,0.4-1.5,0.4c-0.7,0-1.2-0.1-1.5-0.4c-0.3-0.3-0.4-0.7-0.4-1.3
		c0-0.6,0.1-1.1,0.4-1.3s0.7-0.4,1.5-0.4c0.7,0,1.2,0.1,1.4,0.4c0.3,0.2,0.4,0.7,0.4,1.3C1088.9,115.2,1088.8,115.7,1088.5,115.9z"
		/>
</g>
<g>
	<g>
		<line class="st1" x1="-163.7" y1="154.3" x2="-157.7" y2="154.3"/>
		<line class="st2" x1="-145.7" y1="154.3" x2="1001.3" y2="154.3"/>
		<line class="st1" x1="1007.3" y1="154.3" x2="1013.3" y2="154.3"/>
	</g>
</g>
<g>
	<g>
		<line class="st1" x1="-163.7" y1="88.9" x2="-157.7" y2="88.9"/>
		<line class="st2" x1="-145.7" y1="88.9" x2="1001.3" y2="88.9"/>
		<line class="st1" x1="1007.3" y1="88.9" x2="1013.3" y2="88.9"/>
	</g>
</g>
</svg>
