<svg id="图层_1" data-name="图层 1" xmlns="http://www.w3.org/2000/svg" viewBox="0 0 501.26 489.81"><defs><style>.cls-1{fill:#999899;}.cls-2{fill:#666;}.cls-3{font-size:15px;fill:#231815;font-family:Calibri-Bold, Calibri;font-weight:700;}.cls-4{letter-spacing:-0.01em;}.cls-5{letter-spacing:-0.01em;}.cls-6{letter-spacing:-0.01em;}.cls-7{letter-spacing:-0.05em;}.cls-8{letter-spacing:-0.02em;}</style></defs><path class="cls-1" d="M346.65,410.68a51.53,51.53,0,0,0-9-29.25,51.6,51.6,0,0,0-9.05,29.25c0,.78,0,1.55.05,2.31.5,11.25,17.51,11.25,18,0C346.64,412.23,346.65,411.46,346.65,410.68Z"/><rect class="cls-2" x="52.45" y="46.48" width="350" height="80"/><rect class="cls-2" x="425.73" y="46.48" width="20" height="80"/><rect class="cls-2" x="52.45" y="193.95" width="350" height="80"/><text class="cls-3" transform="translate(184.48 158.72)"><tspan class="cls-4">R</tspan><tspan x="8.23" y="0">ec</tspan><tspan class="cls-5" x="22.05" y="0">t</tspan><tspan x="27.11" y="0">angular P</tspan><tspan class="cls-6" x="85.52" y="0">r</tspan><tspan x="90.67" y="0">oducts</tspan></text><text class="cls-3" transform="translate(197.94 306.19)"><tspan class="cls-7">T</tspan><tspan x="6.66" y="0">ubular P</tspan><tspan class="cls-6" x="58.6" y="0">r</tspan><tspan x="63.75" y="0">oducts</tspan></text><path class="cls-2" d="M425.73,234a181.82,181.82,0,0,1-4.44,40h20.45a202.5,202.5,0,0,0,0-80H421.29A181.89,181.89,0,0,1,425.73,234Z"/><text class="cls-3" transform="translate(201.36 453.67)"><tspan class="cls-8">R</tspan><tspan x="8.18" y="0">ound P</tspan><tspan class="cls-6" x="51.77" y="0">r</tspan><tspan x="56.92" y="0">oducts</tspan></text><circle class="cls-2" cx="405.73" cy="381.43" r="40"/><path class="cls-1" d="M52.4,352.18a51.55,51.55,0,0,0,9.05,29.25,51.55,51.55,0,0,0,9-29.25c0-.78,0-1.55,0-2.32-.5-11.24-17.5-11.24-18,0C52.42,350.63,52.4,351.4,52.4,352.18Z"/><path class="cls-2" d="M346.65,352.18c0-.78,0-1.55,0-2.32-.25-5.62-4.62-8.43-9-8.43H61.45c4.38,0,8.75,2.81,9,8.43,0,.77,0,1.54,0,2.32a51.55,51.55,0,0,1-9,29.25,51.53,51.53,0,0,0-9.05,29.25c0,.78,0,1.55.05,2.31.25,5.63,4.62,8.44,9,8.44H337.6c-4.37,0-8.75-2.81-9-8.44,0-.76-.05-1.53-.05-2.31a51.6,51.6,0,0,1,9.05-29.25A51.55,51.55,0,0,0,346.65,352.18Z"/></svg>