<svg id="图层_1" data-name="图层 1" xmlns="http://www.w3.org/2000/svg" viewBox="0 0 410 345.16"><defs><style>.cls-1{fill:#666;}.cls-2{fill:#2f5288;}.cls-3{font-size:18px;fill:#fff;}.cls-3,.cls-4{font-family:Calibri-Bold, Calibri;font-weight:700;}.cls-4{font-size:12px;fill:#323333;}.cls-5{letter-spacing:-0.09em;}.cls-6{letter-spacing:-0.01em;}.cls-7{letter-spacing:-0.01em;}.cls-8{letter-spacing:-0.01em;}.cls-9{fill:none;stroke:#323333;stroke-linecap:round;stroke-miterlimit:10;}</style></defs><rect class="cls-1" x="53.36" y="56.48" width="268.15" height="60"/><rect class="cls-1" x="338.36" y="56.48" width="15" height="60"/><polygon class="cls-2" points="208.28 143.65 208.28 137.49 201.71 137.49 201.71 143.65 197.25 143.65 205 157.08 212.75 143.65 208.28 143.65"/><path class="cls-1" d="M270.83,178.09a99.92,99.92,0,0,0-33.9,5.92h0a100.24,100.24,0,0,1-30.18,5.83v36.5a100.24,100.24,0,0,1,30.18,5.83h0a99.92,99.92,0,0,0,33.9,5.92h82.53v-60Z"/><path class="cls-1" d="M200,189.86a99.93,99.93,0,0,1-30.25-5.64l-1.19-.42a100,100,0,0,0-33.31-5.71H53.36v60h81.86a100,100,0,0,0,33.31-5.71l1.19-.42A99.93,99.93,0,0,1,200,226.32Z"/><polygon class="cls-2" points="309.65 199.84 294.2 199.84 294.2 216.34 309.65 216.34 309.65 227.55 343.36 208.09 309.65 188.63 309.65 199.84"/><polygon class="cls-2" points="97.07 216.34 112.52 216.34 112.52 199.84 97.07 199.84 97.07 188.63 63.36 208.09 97.07 227.55 97.07 216.34"/><text class="cls-3" transform="translate(314.62 214.32)">F</text><text class="cls-3" transform="translate(341.61 90.68)">S</text><text class="cls-4" transform="translate(95.53 295.23)"><tspan class="cls-5">T</tspan><tspan x="4.9" y="0">ensile St</tspan><tspan class="cls-6" x="46.65" y="0">r</tspan><tspan x="50.78" y="0">en</tspan><tspan class="cls-7" x="63.26" y="0">g</tspan><tspan x="68.87" y="0">th = </tspan></text><text class="cls-4" transform="translate(207.52 284.86)">F (B<tspan class="cls-6" x="18.69" y="0">r</tspan><tspan x="22.82" y="0">eaking </tspan><tspan class="cls-8" x="58.33" y="0">F</tspan><tspan x="63.69" y="0">o</tspan><tspan class="cls-8" x="70.14" y="0">r</tspan><tspan x="74.26" y="0">se)</tspan></text><text class="cls-4" transform="translate(193.56 304.84)">S (C<tspan class="cls-8" x="18.47" y="0">r</tspan><tspan x="22.59" y="0">oss-sectional A</tspan><tspan class="cls-6" x="96.91" y="0">r</tspan><tspan x="101.04" y="0">ea)</tspan></text><line class="cls-9" x1="189.4" y1="292.05" x2="314.47" y2="292.05"/></svg>