<svg id="图层_1" data-name="图层 1" xmlns="http://www.w3.org/2000/svg" viewBox="0 0 410 345.16"><defs><style>.cls-1{fill:#666;}.cls-2{fill:#2f5288;}.cls-3{font-size:18px;fill:#fff;}.cls-3,.cls-4{font-family:Calibri-Bold, Calibri;font-weight:700;}.cls-4{font-size:12px;fill:#323333;}.cls-5{letter-spacing:-0.02em;}.cls-6{letter-spacing:-0.01em;}.cls-7{letter-spacing:-0.01em;}.cls-8{letter-spacing:-0.01em;}.cls-9{fill:none;stroke:#323333;stroke-linecap:round;stroke-miterlimit:10;}</style></defs><path class="cls-1" d="M246.15,178.09h-4.34l-35.9,1.36q-17,.63-34.1-.29l-19.45-1.07h-99v60h99L171.81,237q17-.93,34.1-.29l35.9,1.36h82.54v-60Z"/><rect class="cls-1" x="53.36" y="56.48" width="268.15" height="60"/><rect class="cls-1" x="338.36" y="56.48" width="15" height="60"/><polygon class="cls-2" points="208.28 143.65 208.28 137.49 201.71 137.49 201.71 143.65 197.25 143.65 205 157.08 212.75 143.65 208.28 143.65"/><polygon class="cls-2" points="280.63 199.84 265.19 199.84 265.19 216.34 280.63 216.34 280.63 227.55 314.35 208.09 280.63 188.63 280.63 199.84"/><polygon class="cls-2" points="97.07 216.34 112.52 216.34 112.52 199.84 97.07 199.84 97.07 188.63 63.36 208.09 97.07 227.55 97.07 216.34"/><text class="cls-3" transform="translate(285.61 214.32)">F</text><text class="cls-3" transform="translate(341.61 90.68)">S</text><text class="cls-4" transform="translate(103.37 295.23)"><tspan class="cls-5">Y</tspan><tspan x="6.05" y="0">ield St</tspan><tspan class="cls-6" x="36.97" y="0">r</tspan><tspan x="41.1" y="0">en</tspan><tspan class="cls-7" x="53.58" y="0">g</tspan><tspan x="59.19" y="0">th = </tspan></text><text class="cls-4" transform="translate(203 284.86)">F (D<tspan class="cls-7" x="19.52" y="0">e</tspan><tspan class="cls-5" x="25.48" y="0">f</tspan><tspan x="29.09" y="0">orming </tspan><tspan class="cls-8" x="67.36" y="0">F</tspan><tspan x="72.72" y="0">o</tspan><tspan class="cls-8" x="79.17" y="0">r</tspan><tspan x="83.29" y="0">se)</tspan></text><text class="cls-4" transform="translate(193.56 304.84)">S (C<tspan class="cls-8" x="18.47" y="0">r</tspan><tspan x="22.59" y="0">oss-sectional A</tspan><tspan class="cls-6" x="96.91" y="0">r</tspan><tspan x="101.04" y="0">ea)</tspan></text><line class="cls-9" x1="189.4" y1="292.05" x2="314.47" y2="292.05"/></svg>