<?xml version="1.0" encoding="utf-8"?>
<!-- Generator: Adobe Illustrator 26.0.0, SVG Export Plug-In . SVG Version: 6.00 Build 0)  -->
<svg version="1.1" id="图层_1" xmlns="http://www.w3.org/2000/svg" xmlns:xlink="http://www.w3.org/1999/xlink" x="0px" y="0px"
	 viewBox="0 0 140 19.8" style="enable-background:new 0 0 140 19.8;" xml:space="preserve">
<style type="text/css">
	.st0{fill-rule:evenodd;clip-rule:evenodd;fill:#D40511;}
</style>
<desc>Created with Sketch.</desc>
<g id="DHL" transform="translate(0.000000, 0.000000)">
	<path id="Fill-2" class="st0" d="M24.6,0l-4.5,6.1c0,0,23.2,0,24.3,0c1.2,0,1.2,0.5,0.6,1.3c-0.6,0.8-1.6,2.3-2.3,3.1
		c-0.3,0.4-0.9,1.2,1,1.2c2,0,10,0,10,0s1.6-2.2,3-4C58.6,5.2,56.9,0,50.3,0C44.5,0,24.6,0,24.6,0"/>
	<path id="Fill-3" class="st0" d="M27.3,7.6c0,0,9.9,0,11.1,0c1.2,0,1.2,0.5,0.6,1.3c-0.6,0.8-1.6,2.2-2.3,3.1
		c-0.2,0.3,0.1,0.7,1,1.2c9.9,0,14.9,0,14.9,0c-1.2,1.7-5.3,6.6-12.5,6.6c-5.9,0-21.9,0-21.9,0L27.3,7.6z"/>
	<path id="Fill-4" class="st0" d="M69.7,13.2l-4.9,6.6H52c0,0,4.9-6.6,4.9-6.6L69.7,13.2"/>
	<polyline id="Fill-5" class="st0" points="89.4,11.7 58,11.7 66.5,0 79.4,0 74.4,6.7 80.2,6.7 85.1,0 97.9,0 89.4,11.7 	"/>
	<path id="Fill-6" class="st0" d="M88.2,13.2l-4.9,6.6H70.6c0,0,4.9-6.6,4.9-6.6H88.2"/>
	<polyline id="Fill-7" class="st0" points="0,15.8 18.9,15.8 17.9,17.2 0,17.2 0,15.8 	"/>
	<polyline id="Fill-8" class="st0" points="0,13.2 20.8,13.2 19.8,14.6 0,14.6 0,13.2 	"/>
	<polyline id="Fill-9" class="st0" points="0,18.4 17,18.4 16,19.8 0,19.8 0,18.4 	"/>
	<polyline id="Fill-10" class="st0" points="139.8,17.2 121,17.2 122,15.8 139.8,15.8 139.8,17.2 	"/>
	<polyline id="Fill-11" class="st0" points="139.8,19.8 119,19.8 120.1,18.4 139.8,18.4 139.8,19.8 	"/>
	<polyline id="Fill-12" class="st0" points="123.9,13.2 139.8,13.2 139.8,14.6 122.9,14.6 123.9,13.2 	"/>
	<polyline id="Fill-13" class="st0" points="115.7,0 107.1,11.7 93.5,11.7 102.1,0 115.7,0 	"/>
	<path id="Fill-14" class="st0" d="M92.4,13.2c0,0-0.9,1.3-1.4,1.9c-1.6,2.2-0.2,4.7,5.1,4.7c6.1,0,20.6,0,20.6,0l4.9-6.6H92.4"/>
</g>
</svg>
