<?xml version="1.0" encoding="utf-8"?>
<!-- Generator: Adobe Illustrator 23.0.0, SVG Export Plug-In . SVG Version: 6.00 Build 0)  -->
<svg version="1.1" id="图层_1" xmlns="http://www.w3.org/2000/svg" xmlns:xlink="http://www.w3.org/1999/xlink" x="0px" y="0px"
	 viewBox="0 0 99.1 99.1" style="enable-background:new 0 0 99.1 99.1;" xml:space="preserve">
<style type="text/css">
	.st0{fill:#333333;}
</style>
<title>aerospace</title>
<path class="st0" d="M70.8,0H28.3c0,0,0,0-0.1,0C12.6,0,0,12.7,0,28.3v42.5c0,0,0,0,0,0.1c0,15.6,12.7,28.3,28.3,28.2h42.5
	c0.1,0,0.1,0,0.2,0c15.6,0,28.2-12.7,28.1-28.3V28.3c0,0,0,0,0-0.1C99.1,12.6,86.4,0,70.8,0z M62.6,59l0.1,6.5
	c0.2,0,0.5,0.1,0.7,0.1c0.4,0.1,0.7,0.2,1.1,0.3c0.1,0,0.3,0.1,0.4,0.2l-0.4,0.2c-0.4,0.1-0.7,0.2-1.1,0.3c-0.5,0.1-1,0.2-1.6,0.3
	c-0.3,0-0.6,0.1-0.9,0.1h-0.2v0.6L60,68.3l-0.7-0.7V67h-0.2c-0.3,0-0.6,0-0.9-0.1c-0.6-0.1-1.1-0.2-1.6-0.3
	c-0.4-0.1-0.7-0.2-1.1-0.3c-0.1,0-0.3-0.1-0.4-0.2l0.4-0.2c0.4-0.1,0.7-0.2,1.1-0.3c0.2-0.1,0.5-0.1,0.7-0.1V59h-0.7
	c-1.8,0-3.2,1.5-3.2,3.3c0,0,0,0,0,0l0.2,10.6c0,2-0.8,3.9-2.3,5.3l-0.9,0.9c-0.6,0.5-1.4,0.5-2,0l-0.9-0.9
	c-1.5-1.4-2.3-3.3-2.3-5.3l0.2-10.6c0-1.8-1.4-3.2-3.2-3.3h-0.7v6.5c0.2,0,0.5,0.1,0.7,0.1c0.4,0.1,0.7,0.2,1.1,0.3
	c0.1,0,0.3,0.1,0.4,0.2l-0.4,0.2c-0.4,0.1-0.7,0.2-1.1,0.3c-0.5,0.1-1,0.2-1.6,0.3c-0.3,0-0.6,0.1-0.9,0.1h-0.2v0.6l-0.7,0.7
	l-0.7-0.7V67h-0.2c-0.3,0-0.6,0-0.9-0.1c-0.6-0.1-1.1-0.2-1.6-0.3c-0.4-0.1-0.7-0.2-1.1-0.3c-0.1,0-0.3-0.1-0.4-0.2l0.4-0.2
	c0.4-0.1,0.7-0.2,1.1-0.3c0.2-0.1,0.5-0.1,0.7-0.1l0.2-6.5L4.8,58.7l1-2.3c0.8-1.9,2.5-3.2,4.5-3.5l26.3-4.6V47
	c0-0.8,0.7-1.5,1.5-1.5h0.3l0.7,1l0.7-1H40c0.8,0,1.5,0.7,1.5,1.5v0.4l1.5-0.3c1.2-0.2,2.1-1.2,2.1-2.4l0.6-13.9l-10-4.4
	c-0.5-0.2-0.8-0.8-0.6-1.3c0-0.1,0.1-0.2,0.1-0.2l1.2-2c0.4-0.6,1.1-1,1.8-1h8.5l2.7-2.7l2.7,2.7h8.5c0.7,0,1.4,0.4,1.8,1l1.2,2
	c0.3,0.5,0.1,1.2-0.4,1.5c0,0,0,0-0.1,0l-10,4.4l0.6,13.9c0.1,1.2,0.9,2.2,2.1,2.4l1.5,0.3V47c0-0.8,0.7-1.5,1.5-1.5H59l0.7,1l0.7-1
	h0.3c0.8,0,1.5,0.7,1.5,1.5v1.3l26.3,4.6c2,0.4,3.7,1.7,4.5,3.5l1,2.3L62.6,59z"/>
</svg>
