<?xml version="1.0" encoding="utf-8"?>
<!-- Generator: Adobe Illustrator 23.0.0, SVG Export Plug-In . SVG Version: 6.00 Build 0)  -->
<svg version="1.1" id="图层_1" xmlns="http://www.w3.org/2000/svg" xmlns:xlink="http://www.w3.org/1999/xlink" x="0px" y="0px"
	 viewBox="0 0 99.1 99.1" style="enable-background:new 0 0 99.1 99.1;" xml:space="preserve">
<style type="text/css">
	.st0{fill:#333333;}
</style>
<title>chemical-processing</title>
<path class="st0" d="M70.8,0H28.3c0,0,0,0-0.1,0C12.6,0,0,12.7,0,28.3v42.5c0,0,0,0,0,0.1c0,15.6,12.7,28.3,28.3,28.2h42.5
	c15.6,0,28.3-12.7,28.3-28.3V28.3c0,0,0,0,0-0.1C99.1,12.6,86.4,0,70.8,0z M31.8,27.9h-0.6v40.9c0,2.3-1.9,4.2-4.2,4.2
	s-4.2-1.9-4.2-4.2V27.9h-0.6c-0.6,0-1-0.4-1-1s0.4-1,1-1h9.5c0.5,0.1,1,0.5,1.1,1C32.8,27.5,32.4,27.9,31.8,27.9z M79.5,26.8
	c-2.1,2.3-3.3,5.3-3.3,8.4v30.2c0,4.3-3.5,7.8-7.8,7.8H44.6c-3.4,0-6.3-2.2-7.4-5.4h18c0.8,0,1.5-0.7,1.5-1.5s-0.7-1.5-1.5-1.5H36.8
	v-6.2h18.4c0.8,0,1.5-0.7,1.5-1.5s-0.7-1.5-1.5-1.5H36.8v-6.2h18.4c0.8,0,1.5-0.7,1.5-1.5s-0.7-1.5-1.5-1.5H36.8v-6.2h18.4
	c0.8,0,1.5-0.7,1.5-1.5s-0.7-1.5-1.5-1.5H36.8V29c0-1.7,1.4-3.1,3.1-3.1h39.4C79.7,25.9,79.9,26.4,79.5,26.8z"/>
</svg>
