<?xml version="1.0" encoding="utf-8"?>
<!-- Generator: Adobe Illustrator 23.0.0, SVG Export Plug-In . SVG Version: 6.00 Build 0)  -->
<svg version="1.1" id="图层_1" xmlns="http://www.w3.org/2000/svg" xmlns:xlink="http://www.w3.org/1999/xlink" x="0px" y="0px"
	 viewBox="0 0 99.1 99.1" style="enable-background:new 0 0 99.1 99.1;" xml:space="preserve">
<style type="text/css">
	.st0{fill:#333333;}
</style>
<title>electrical-resistance</title>
<path class="st0" d="M70.8,0H28.3c0,0,0,0-0.1,0C12.6,0,0,12.7,0,28.3v42.5c0,15.6,12.7,28.3,28.3,28.3h42.6c0,0,0.1,0,0.1,0
	C86.6,99,99.2,86.4,99.1,70.8V28.3c0,0,0,0,0-0.1C99.1,12.6,86.4,0,70.8,0z M70.1,55.4L43,81.2c-0.6,0.7-1.5,1-2.4,1
	c-0.5,0-1-0.1-1.4-0.3c-1.8-0.8-2.7-2.8-1.9-4.6l7.8-18.9l-15.5-9.1c-0.3-0.2-0.5-0.4-0.7-0.6c-1.4-1.4-1.3-3.7,0.1-5.1l26.9-25.8
	c0.7-0.7,1.6-1,2.5-1c0.5,0,1,0.1,1.4,0.3c1.8,0.8,2.7,2.8,1.9,4.6l-7.7,19l15.6,9.1c0.9,0.5,1.5,1.5,1.6,2.6
	C71.3,53.5,70.9,54.6,70.1,55.4z"/>
</svg>
