<?xml version="1.0" encoding="utf-8"?>
<!-- Generator: Adobe Illustrator 23.0.0, SVG Export Plug-In . SVG Version: 6.00 Build 0)  -->
<svg version="1.1" id="图层_1" xmlns="http://www.w3.org/2000/svg" xmlns:xlink="http://www.w3.org/1999/xlink" x="0px" y="0px"
	 viewBox="0 0 99.1 99.1" style="enable-background:new 0 0 99.1 99.1;" xml:space="preserve">
<style type="text/css">
	.st0{fill:#333333;}
</style>
<title>electric-telecom</title>
<path class="st0" d="M70.8,0H28.3c0,0,0,0-0.1,0C12.6,0,0,12.7,0,28.3v42.5c0,0,0,0,0,0.1c0,15.6,12.7,28.3,28.3,28.2h42.5
	c0.1,0,0.1,0,0.2,0c15.6,0,28.2-12.7,28.1-28.3V28.3c0,0,0,0,0-0.1C99.1,12.6,86.4,0,70.8,0z M25.9,60.1v0.6c0,1-0.8,1.8-1.8,1.8
	c0,0,0,0,0,0h-6c-1,0-1.8-0.8-1.8-1.8c0,0,0,0,0,0v-0.6c0-1,0.8-1.8,1.8-1.8c0,0,0,0,0,0h6C25.1,58.3,25.9,59.1,25.9,60.1
	C25.9,60.1,25.9,60.1,25.9,60.1z M25.9,52.8v0.6c0,1-0.8,1.8-1.8,1.8c0,0,0,0,0,0h-6c-1,0-1.8-0.8-1.8-1.8c0,0,0,0,0,0v-0.6
	c0-1,0.8-1.8,1.8-1.8c0,0,0,0,0,0h6C25.1,51,25.9,51.8,25.9,52.8C25.9,52.8,25.9,52.8,25.9,52.8z M25.9,45.6v0.6
	c0,1-0.8,1.8-1.8,1.8c0,0,0,0,0,0h-6c-1,0-1.8-0.8-1.8-1.8c0,0,0,0,0,0v-0.6c0-1,0.8-1.8,1.8-1.8c0,0,0,0,0,0h6
	C25.1,43.8,25.9,44.6,25.9,45.6C25.9,45.6,25.9,45.6,25.9,45.6z M25.9,38.9c0,1-0.8,1.8-1.8,1.8c0,0,0,0,0,0h-6
	c-1,0-1.8-0.8-1.8-1.8c0,0,0,0,0,0v-0.6c0-1,0.8-1.8,1.8-1.8c0,0,0,0,0,0h6c1,0,1.8,0.8,1.8,1.8V38.9z M58.4,24v-6
	c0-1,0.8-1.8,1.8-1.8c0,0,0,0,0,0h0.6c1,0,1.8,0.8,1.8,1.8c0,0,0,0,0,0v6c0,1-0.8,1.8-1.8,1.8c0,0,0,0,0,0h-0.6
	C59.2,25.8,58.4,25,58.4,24C58.4,24,58.4,24,58.4,24z M51.1,24v-6c0-1,0.8-1.8,1.8-1.8c0,0,0,0,0,0h0.6c1,0,1.8,0.8,1.8,1.8
	c0,0,0,0,0,0v6c0,1-0.8,1.8-1.8,1.8c0,0,0,0,0,0h-0.6C51.9,25.8,51.1,25,51.1,24C51.1,24,51.1,24,51.1,24z M43.9,24v-6
	c0-1,0.8-1.8,1.8-1.8c0,0,0,0,0,0h0.6c1,0,1.8,0.8,1.8,1.8c0,0,0,0,0,0v6c0,1-0.8,1.8-1.8,1.8c0,0,0,0,0,0h-0.6
	C44.7,25.8,43.9,25,43.9,24C43.9,24,43.9,24,43.9,24z M36.6,24v-6c0-1,0.8-1.8,1.8-1.8c0,0,0,0,0,0H39c1,0,1.8,0.8,1.8,1.8
	c0,0,0,0,0,0v6c0,1-0.8,1.8-1.8,1.8c0,0,0,0,0,0h-0.6C37.4,25.8,36.6,25,36.6,24C36.6,24,36.6,24,36.6,24z M40.8,75v6
	c0,1-0.8,1.8-1.8,1.8c0,0,0,0,0,0h-0.6c-1,0-1.8-0.8-1.8-1.8c0,0,0,0,0,0v-6c0-1,0.8-1.8,1.8-1.8c0,0,0,0,0,0H39
	C40,73.2,40.8,74,40.8,75C40.8,75,40.8,75,40.8,75z M48.1,75v6c0,1-0.8,1.8-1.8,1.8c0,0,0,0,0,0h-0.6c-1,0-1.8-0.8-1.8-1.8
	c0,0,0,0,0,0v-6c0-1,0.8-1.8,1.8-1.8c0,0,0,0,0,0h0.6C47.3,73.2,48.1,74,48.1,75C48.1,75,48.1,75,48.1,75z M55.3,75v6
	c0,1-0.8,1.8-1.8,1.8c0,0,0,0,0,0h-0.6c-1,0-1.8-0.8-1.8-1.8c0,0,0,0,0,0v-6c0-1,0.8-1.8,1.8-1.8c0,0,0,0,0,0h0.6
	C54.5,73.2,55.3,74,55.3,75C55.3,75,55.3,75,55.3,75z M62.5,75v6c0,1-0.8,1.8-1.8,1.8c0,0,0,0,0,0h-0.6c-1,0-1.8-0.8-1.8-1.8
	c0,0,0,0,0,0v-6c0-1,0.8-1.8,1.8-1.8c0,0,0,0,0,0h0.6C61.7,73.2,62.5,74,62.5,75C62.5,75,62.5,75,62.5,75z M82.8,39.5
	c0,0.7-0.6,1.3-1.3,1.3v0.3H70.3v3h11.2c0.7,0,1.3,0.6,1.3,1.3v1.5c0,0.7-0.6,1.3-1.3,1.3H70.3v3h11.2c0.7,0,1.3,0.6,1.3,1.3V54
	c0,0.7-0.6,1.3-1.3,1.3H70.3v3h11.2c0.7,0,1.3,0.6,1.3,1.3v1.7c0,0.7-0.6,1.3-1.3,1.3H70.3c-0.2,4.4-3.8,7.8-8.2,7.8H37
	c-4.5,0-8.2-3.7-8.2-8.2V37.1c0-4.5,3.7-8.2,8.2-8.2h25.1c4.4,0,8,3.4,8.2,7.8h11.2c0.7,0,1.3,0.6,1.3,1.3V39.5z"/>
</svg>
