<?xml version="1.0" encoding="utf-8"?>
<!-- Generator: Adobe Illustrator 23.0.0, SVG Export Plug-In . SVG Version: 6.00 Build 0)  -->
<svg version="1.1" id="图层_1" xmlns="http://www.w3.org/2000/svg" xmlns:xlink="http://www.w3.org/1999/xlink" x="0px" y="0px"
	 viewBox="0 0 99.1 99.2" style="enable-background:new 0 0 99.1 99.2;" xml:space="preserve">
<style type="text/css">
	.st0{fill:#333333;}
</style>
<title>marine</title>
<path class="st0" d="M70.8,0H28.3c0,0,0,0-0.1,0C12.6,0,0,12.7,0,28.3v42.5c0,15.7,12.6,28.4,28.3,28.4h42.6c0.1,0,0.1,0,0.2,0
	c15.6-0.1,28.1-12.8,28-28.4V28.3c0,0,0,0,0-0.1C99.1,12.6,86.4,0,70.8,0z M47.7,76.1h-16c-0.7,0-1.3-0.4-1.5-1
	C29,72,20.3,59.3,19.6,56.8c-0.9-3,0.1-3.5,2.8-4.9l25.3-12.5V76.1z M27.8,45.2V31.9c0.1-2,1.6-3.6,3.5-3.8h3.3v-4
	c0-0.6,0.5-1.1,1.1-1.1h7.8c0.6,0,1.1,0.5,1.1,1.1v4h10v-4c0-0.6,0.5-1.1,1.1-1.1h7.8c0.6,0,1.1,0.5,1.1,1.1v4h3.3
	c2,0.2,3.5,1.8,3.5,3.8v13.3c-8.2-4.1-21.8-10.8-21.8-10.8S36,41.1,27.8,45.2z M79.7,56.9c-0.7,2.4-9.3,15.2-10.6,18.3
	c-0.3,0.6-0.9,1-1.5,1h-16V39.5c0,0,18.3,9,25.3,12.5C79.5,53.3,80.5,53.8,79.7,56.9z"/>
</svg>
