<?xml version="1.0" encoding="utf-8"?>
<!-- Generator: Adobe Illustrator 23.0.0, SVG Export Plug-In . SVG Version: 6.00 Build 0)  -->
<svg version="1.1" id="图层_1" xmlns="http://www.w3.org/2000/svg" xmlns:xlink="http://www.w3.org/1999/xlink" x="0px" y="0px"
	 viewBox="0 0 99.1 99.1" style="enable-background:new 0 0 99.1 99.1;" xml:space="preserve">
<style type="text/css">
	.st0{fill:#333333;}
</style>
<title>oil-gas</title>
<g>
	<path class="st0" d="M28.6,33.9c-0.4,1.5-1.6,2.7-3.2,2.9v32.4h11.2l2.8-18.9c0.2-1.4,1.4-2.4,2.8-2.4h3.4V37l-16.7-4.1L28.6,33.9z
		"/>
	<path class="st0" d="M71.3,43.3l-16.5-4v8.6h3.4c1.4,0,2.6,1,2.8,2.4l2.8,18.9h12.1l-0.1-22.3C73.9,46.4,72.2,45.1,71.3,43.3z"/>
	<path class="st0" d="M70.8,0H28.3c0,0,0,0-0.1,0C12.6,0,0,12.7,0,28.3v42.5c0,0,0,0,0,0.1c0,15.6,12.7,28.3,28.3,28.2h42.5
		c0.1,0,0.1,0,0.2,0c15.6,0,28.2-12.7,28.1-28.3V28.3c0,0,0,0,0-0.1C99.1,12.6,86.4,0,70.8,0z M80.3,77H21.1c-2.2,0-3.9-1.7-3.9-3.9
		c0-2.2,1.7-3.9,3.9-3.9h1.1V36.3l-2.1-0.5c-2-0.5-3.3-2.6-2.8-4.6l2.5-10.3c0.5-2,2.6-3.3,4.6-2.8l4,1c2,0.5,3.3,2.6,2.8,4.6
		l-0.3,1l42.5,10.4c1.8-1.4,4.2-1.8,6.4-1c2.8,1.1,4.6,4,4.3,7c-0.3,2.7-2.2,5-4.8,5.8v22.3h1c2.2,0,3.9,1.7,3.9,3.9
		S82.5,77,80.3,77z"/>
</g>
</svg>
