<?xml version="1.0" encoding="utf-8"?>
<!-- Generator: Adobe Illustrator 23.0.0, SVG Export Plug-In . SVG Version: 6.00 Build 0)  -->
<svg version="1.1" id="图层_1" xmlns="http://www.w3.org/2000/svg" xmlns:xlink="http://www.w3.org/1999/xlink" x="0px" y="0px"
	 viewBox="0 0 99.1 99.1" style="enable-background:new 0 0 99.1 99.1;" xml:space="preserve">
<style type="text/css">
	.st0{fill:#333333;}
</style>
<title>petro-processing</title>
<g>
	<path class="st0" d="M57.6,25.1h-19c0,0-0.1,0-0.1,0c-1.2,0-2.2,1.1-2.2,2.3V40c0,0,0,0.1,0,0.1c0,1.2,1.1,2.2,2.3,2.2h19
		c0,0,0.1,0,0.1,0c1.2,0,2.2-1.1,2.2-2.3V27.4c0,0,0-0.1,0-0.1C59.9,26.1,58.8,25.1,57.6,25.1z"/>
	<path class="st0" d="M70.8,0H28.3c0,0,0,0-0.1,0C12.6,0,0,12.7,0,28.3v42.5c0,0,0,0,0,0.1c0,15.6,12.7,28.3,28.3,28.2h42.5
		c15.6,0,28.3-12.7,28.3-28.3V28.3c0,0,0,0,0-0.1C99.1,12.6,86.4,0,70.8,0z M81.2,68.7c0,0.1,0,0.1,0,0.2c-0.1,2.7-2.4,4.8-5.1,4.6
		c-2.6-0.2-4.7-2.4-4.6-5.1V48.5c0,0,0-0.1,0-0.1c0-3.2-2.7-5.8-5.9-5.8v32h2.7c1.4,0,2.5,1.1,2.5,2.5c0,1.4-1.1,2.5-2.5,2.5H28.4
		c-1.4,0-2.5-1.1-2.5-2.5c0-1.4,1.1-2.5,2.5-2.5h2.2V24c0,0,0,0,0,0c0-2.5,2-4.5,4.5-4.5H61c0,0,0,0,0,0c2.5,0,4.5,2,4.5,4.5v16
		c4.7,0,8.6,3.9,8.6,8.6v20.2c0,1.2,0.9,2.1,2.1,2.1c1.2,0,2.1-0.9,2.1-2.1V42c0,0,0,0,0-0.1c0-0.8,0.6-1.4,1.4-1.3
		c0.8,0,1.4,0.6,1.5,1.3V68.7z"/>
</g>
</svg>
