<?xml version="1.0" encoding="utf-8"?>
<!-- Generator: Adobe Illustrator 23.0.0, SVG Export Plug-In . SVG Version: 6.00 Build 0)  -->
<svg version="1.1" id="图层_1" xmlns="http://www.w3.org/2000/svg" xmlns:xlink="http://www.w3.org/1999/xlink" x="0px" y="0px"
	 viewBox="0 0 99.1 99.2" style="enable-background:new 0 0 99.1 99.2;" xml:space="preserve">
<style type="text/css">
	.st0{fill:#333333;}
</style>
<title>pollution-waste</title>
<path class="st0" d="M70.8,0H28.3c0,0,0,0-0.1,0C12.6,0,0,12.7,0,28.3v42.6c0,0,0,0,0,0.1c0,15.6,12.7,28.3,28.3,28.2h42.5
	c0.1,0,0.2,0,0.2,0c15.6-0.1,28.2-12.8,28.1-28.4V28.3c0,0,0,0,0-0.1C99.1,12.6,86.4,0,70.8,0z M77.6,76.7c0,0.8-0.7,1.5-1.5,1.5
	H21.4c0,0,0,0-0.1,0c-0.8,0-1.5-0.7-1.4-1.5l1.2-37.2c0-0.9,0.7-1.5,1.9-1.5h3.1c0.8,0,1.5,0.7,1.5,1.5l0.6,24.7h0.9l1.5-14.3
	c0,0,0,0,0,0c0-0.8,0.7-1.4,1.5-1.4H38c0.8,0,1.4,0.6,1.5,1.4l1.2,14.3h0.9l1.2-14.3c0,0,0,0,0,0c0-0.8,0.7-1.4,1.5-1.4h6.2
	c0.8,0,1.4,0.6,1.5,1.4l1.6,14.3h2.3c0.3,0,0.6-0.1,0.8-0.3l6.5-5.3c0.2-0.2,0.6,0,0.6,0.3V63c0,0.3,0.4,0.5,0.6,0.3l5.9-4.7
	c0.1-0.1,0.2-0.1,0.2-0.1c0.2,0,0.4,0.2,0.4,0.4v4c0,0.3,0.4,0.5,0.6,0.3l5.5-4.6c0.2-0.2,0.6,0,0.6,0.3V76.7z M76.1,41.4
	c-0.2,2.1-3.6,4.1-4.6,4.1c-1.3,0-2.6,0.6-3.5,1.6c-1.5,1.4-2,1.8-5.2,1.8c-3-0.1-5.9-1.6-7.7-4c-1.1-1.8-4.8-1.6-5.3-1.6
	s-1.4-0.3-1.4,1.2v1.7c0,0,0,0,0,0c0,0.4-0.3,0.7-0.7,0.7h-1.1c0,0,0,0,0,0c-0.4,0-0.7-0.3-0.7-0.7c-0.1-4.8-1.1-5.7-2.7-5.7h-3.5
	c-2,0-3.7,2.5-3.7,4.5v1.2c0,0,0,0,0,0c0,0.4-0.3,0.7-0.7,0.7h-0.8c0,0,0,0,0,0c-0.4,0-0.7-0.3-0.7-0.7c0-4.5,0.5-6.7,1.7-7.9
	s0.2-1.4-1.5-1.4S29.9,34,28.3,34c-1.2,0-2.1,1.3-2.5,2c-0.2,0.3-0.5,0.5-0.8,0.5h-0.9c-0.3,0-0.4-0.2-0.2-0.7
	c1-3.7,3.7-6.8,7.2-8.3c0.5-0.2,0.8-0.7,0.9-1.2c0.5-3.1,3.2-3.1,4.6-2.9c0.6,0.1,1.1-0.2,1.5-0.6c1.8-2.3,4.9-3.1,7.6-2
	c0.7,0.2,1.6-0.1,1.9-0.8c1.6-3,5.4-2.6,7-2.2c0.5,0.1,1,0,1.4-0.3c4.2-3.4,7.4-1.1,8.5,0.1c0.3,0.3,0.7,0.5,1.2,0.5
	c7-0.4,7.9,3.5,7.9,5.6c0.1,0.7,0.5,1.2,1.1,1.5c2.4,1,2.3,3,2,4.3c-0.2,0.7,0.1,1.4,0.7,1.8c1.3,0.7,2,2.1,2,3.5
	C79.4,38.1,76.3,39.3,76.1,41.4z"/>
</svg>
