<?xml version="1.0" encoding="utf-8"?>
<!-- Generator: Adobe Illustrator 23.0.0, SVG Export Plug-In . SVG Version: 6.00 Build 0)  -->
<svg version="1.1" id="图层_1" xmlns="http://www.w3.org/2000/svg" xmlns:xlink="http://www.w3.org/1999/xlink" x="0px" y="0px"
	 viewBox="0 0 99.2 99.2" style="enable-background:new 0 0 99.2 99.2;" xml:space="preserve">
<style type="text/css">
	.st0{fill:#333333;}
</style>
<title>power-generation</title>
<path class="st0" d="M70.8,0H28.3C12.7,0,0,12.7,0,28.3v42.6c0,15.6,12.7,28.3,28.3,28.3h42.6c0.1,0,0.1,0,0.2,0
	c15.6-0.1,28.1-12.8,28-28.4V28.3c0,0,0,0,0-0.1C99.1,12.6,86.4,0,70.8,0z M23.2,14.6c0.1-0.2,0.4-0.2,0.6-0.1C36,25,47.2,9.7,57,27
	c0.1,0.1,0.1,0.3,0,0.5c-0.1,0.2-0.4,0.2-0.6,0.1c-13.2-9.2-24.5,3-33.2-12.5C23.1,14.9,23.1,14.7,23.2,14.6z M53.9,34.9
	c-0.1,0.2-0.3,0.2-0.5,0.1c-8-5.3-14.9,1.7-20.3-7.1c-0.1-0.1-0.1-0.3,0-0.4c0.1-0.2,0.3-0.2,0.5-0.1c7.4,5.8,14.3-3,20.3,7.1
	C54,34.6,54,34.7,53.9,34.9z M35.2,77.2h-11c-0.1,0-0.2,0-0.3,0c-0.5-0.2-0.8-0.7-0.7-1.2c4.6-14.3,3.6-20,2.9-21.8
	c-0.2-0.5,0.1-1,0.6-1.2c1-0.4,2.1-0.6,3.2-0.8c3-0.5,6.1-0.5,9.1,0c1,0.1,2,0.4,3,0.7c-0.5,5.4-2,12.9-5.4,23.4
	C36.4,76.8,35.8,77.2,35.2,77.2z M75,77.2H41.8c-0.1,0-0.2,0-0.3,0c-0.5-0.2-0.8-0.7-0.7-1.2c7.7-23.6,5.6-32.3,4.5-34.7
	c-0.2-0.5,0-1,0.4-1.3c1.9-0.8,3.9-1.3,5.9-1.5c4.4-0.7,8.9-0.7,13.3,0c2.1,0.2,4.1,0.7,6,1.5c0.5,0.2,0.6,0.8,0.4,1.3
	c-1.1,2.4-3.2,11.1,4.5,34.7c0,0.1,0,0.2,0,0.3C76,76.7,75.6,77.2,75,77.2z"/>
</svg>
