<?xml version="1.0" encoding="utf-8"?>
<!-- Generator: Adobe Illustrator 23.0.0, SVG Export Plug-In . SVG Version: 6.00 Build 0)  -->
<svg version="1.1" id="图层_1" xmlns="http://www.w3.org/2000/svg" xmlns:xlink="http://www.w3.org/1999/xlink" x="0px" y="0px"
	 viewBox="0 0 99.1 99.2" style="enable-background:new 0 0 99.1 99.2;" xml:space="preserve">
<style type="text/css">
	.st0{fill:#333333;}
</style>
<title>thermal-processing</title>
<path class="st0" d="M70.8,0H28.3C12.7,0,0,12.7,0,28.3v42.6c0,0,0,0,0,0.1c0,15.6,12.7,28.3,28.3,28.2h42.5c0.1,0,0.2,0,0.2,0
	c15.6-0.1,28.2-12.8,28.1-28.4V28.3c0,0,0,0,0-0.1C99.1,12.6,86.4,0,70.8,0z M64.6,68.9c-5.5,3.5-10.4,7.9-14.5,12.9
	c-0.3,0.5-1.1,0.3-1.5-0.3c-4-8.5-18.7-12.4-21.3-20.1c-1.1-3.9-1.1-8-0.1-11.9c0.2-0.5,0.7-0.8,1.2-0.6c0.3,0.1,0.6,0.4,0.6,0.7
	c1.1,4.4,4,8.4,6.7,5.6c3.1-3.3-6.5-4.6-5.2-12.2c0.3-3,2.5-4.9,3.8-10.4c0.2-0.5,0.8-0.7,1.3-0.5c0.3,0.1,0.5,0.4,0.6,0.7
	c0.1,1.7-0.2,3.7,0.5,5.3c0.3,0.4,1,0.5,1.4,0.2c0.2-0.2,0.4-0.5,0.4-0.8c-2.5-7.8,7.8-12.2,8.6-20.4c0.1-0.5,0.6-0.9,1.1-0.8
	c0.2,0,0.4,0.1,0.5,0.3c9.9,11.5-1.1,18.7,5.4,21.8c2.2,0.8,5-3.7,4.5-8.5c0-0.6,0.5-1,1.1-0.9c0.2,0,0.5,0.1,0.6,0.3
	c4.9,5.8,3.8,11.8,0.4,16.6c-1,1.4-0.6,3.8,0.4,5.6c0.3,0.5,0.9,0.6,1.4,0.3c0.2-0.1,0.3-0.3,0.4-0.5c0.6-2.3,2.3-3.9,3.2-6.2
	c0.2-0.5,0.7-0.7,1.2-0.5c0.2,0.1,0.3,0.2,0.4,0.3C73.9,52.5,75.6,61.5,64.6,68.9z"/>
</svg>
