<?xml version="1.0" encoding="utf-8"?>
<!-- Generator: Adobe Illustrator 23.0.0, SVG Export Plug-In . SVG Version: 6.00 Build 0)  -->
<svg version="1.1" id="图层_1" xmlns="http://www.w3.org/2000/svg" xmlns:xlink="http://www.w3.org/1999/xlink" x="0px" y="0px"
	 viewBox="0 0 99.1 99.2" style="enable-background:new 0 0 99.1 99.2;" xml:space="preserve">
<style type="text/css">
	.st0{fill:#333333;}
</style>
<title>welding-products</title>
<path class="st0" d="M70.8,0H28.3c0,0,0,0-0.1,0C12.6,0,0,12.7,0,28.3v42.6c0,0,0,0,0,0.1c0,15.6,12.7,28.3,28.3,28.2h42.5
	c15.7,0,28.3-12.7,28.3-28.4V28.3c0,0,0,0,0-0.1C99.1,12.6,86.4,0,70.8,0z M20.8,73l-0.3-0.5c-1.1-1.7-0.6-4,1.1-5.1c0,0,0,0,0,0
	l10.2-6.5c0.8-0.5,1.8-0.3,2.2,0.5l1.4,2.3c0.5,0.8,0.3,1.8-0.5,2.2l-12,7.5C22.3,74,21.3,73.8,20.8,73z M40,73.6l-8,5.1
	c-2.1,1.4-4.6,1.7-7,1c-1.8-0.6-1.9-3.2-0.6-4.6c0.2-0.2,0.5-0.3,0.8-0.3l2.2,0.1c0.4,0,0.7-0.3,0.8-0.7l0.2-1.2
	c0.1-0.4,0.4-0.6,0.8-0.7h2.3c0.3,0,0.6-0.2,0.7-0.6l0.4-1.5c0.1-0.3,0.4-0.6,0.8-0.6h2c0.3,0,0.5-0.2,0.7-0.4l0.9-1.5
	c0.2-0.4,0.7-0.4,1.1-0.2c0.1,0,0.1,0.1,0.2,0.2l2.3,3.6C40.9,72.2,40.7,73.1,40,73.6z M79.7,44.2L76,46.5c0.3,0.8,0.6,1.7,0.8,2.6
	c0.1,0.7-0.2,1.3-0.7,1.7L47,69.1c-0.8,0.5-1.8,0.3-2.2-0.5l-3.5-5.5l-2.8-4.4l-3-4.9c-2.2-3.5-2.3-4.7-2.4-5.4
	c-1.8-7.7,3.8-14.1,9-18.1c4.3-3.3,11.8-8.6,15-10.7c0,0,0,0,0.1,0c0.8-0.5,1.7-0.2,2.2,0.5l1,1.6c0.4,0.7,0.3,1.6-0.3,2.1
	c-1.6,1.3-5,4-10.2,8.2c-1.9,1.4-3.4,3.3-4.1,5.5c-0.3,1.6-0.1,3.2,0.5,4.6c0.4,1.2,1,2.3,1.6,3.4l2.5,3.9L68,38.1
	c0.6-0.4,1.3-0.3,1.9,0.1c0.7,0.5,1.3,1.1,1.9,1.8l3.7-2.3c0.3-0.2,0.7-0.2,1,0.1c1.8,1.4,3,3.4,3.6,5.6C80.1,43.7,80,44,79.7,44.2z
	"/>
</svg>
