<?xml version="1.0" encoding="utf-8"?>
<!-- Generator: Adobe Illustrator 26.0.0, SVG Export Plug-In . SVG Version: 6.00 Build 0)  -->
<svg version="1.1" id="图层_1" xmlns="http://www.w3.org/2000/svg" xmlns:xlink="http://www.w3.org/1999/xlink" x="0px" y="0px"
	 viewBox="0 0 600 500" style="enable-background:new 0 0 600 500;" xml:space="preserve">
<style type="text/css">
	
		.st0{fill-rule:evenodd;clip-rule:evenodd;fill:none;stroke:#E83719;stroke-width:11;stroke-linecap:round;stroke-linejoin:round;stroke-miterlimit:10;}
	.st1{fill-rule:evenodd;clip-rule:evenodd;fill:#E83719;}
	.st2{fill-rule:evenodd;clip-rule:evenodd;fill:#666666;}
</style>
<path class="st0" d="M516,27v346c0,55.2-44.8,100-100,100H184c-55.2,0-100-44.8-100-100V27H516z"/>
<path class="st1" d="M416,473H184c-55.2,0-100-44.8-100-100v0h432v0C516,428.2,471.2,473,416,473z"/>
<circle class="st2" cx="22.6" cy="98" r="22.6"/>
<circle class="st2" cx="22.6" cy="239" r="22.6"/>
<circle class="st2" cx="22.6" cy="168.5" r="22.6"/>
<circle class="st2" cx="22.6" cy="309.5" r="22.6"/>
<circle class="st2" cx="22.6" cy="379.9" r="22.6"/>
<circle class="st2" cx="577.4" cy="98" r="22.6"/>
<circle class="st2" cx="22.6" cy="27.5" r="22.6"/>
<circle class="st2" cx="577.4" cy="27.5" r="22.6"/>
<circle class="st2" cx="577.4" cy="239" r="22.6"/>
<circle class="st2" cx="577.4" cy="168.5" r="22.6"/>
<circle class="st2" cx="577.4" cy="309.5" r="22.6"/>
<circle class="st2" cx="577.4" cy="379.9" r="22.6"/>
<circle class="st2" cx="22.6" cy="450.4" r="22.6"/>
<circle class="st2" cx="577.4" cy="450.4" r="22.6"/>
</svg>
