<?xml version="1.0" encoding="utf-8"?>
<!-- Generator: Adobe Illustrator 26.0.0, SVG Export Plug-In . SVG Version: 6.00 Build 0)  -->
<svg version="1.1" id="图层_1" xmlns="http://www.w3.org/2000/svg" xmlns:xlink="http://www.w3.org/1999/xlink" x="0px" y="0px"
	 viewBox="0 0 500 600" style="enable-background:new 0 0 500 600;" xml:space="preserve">
<style type="text/css">
	.st0{fill-rule:evenodd;clip-rule:evenodd;fill:#E83719;}
	
		.st1{fill-rule:evenodd;clip-rule:evenodd;fill:none;stroke:#E83719;stroke-width:11;stroke-linecap:round;stroke-linejoin:round;stroke-miterlimit:10;}
</style>
<g>
	<path class="st0" d="M93.1,600.9c-4.4-14-28.2-19.8-32.5-31.9c-2-7.6-1.8-16.4,2-22.2c0,7.6,5.4,18.2,10.4,13
		c4.6-4.8-9.6-6.8-7.6-18c0.4-5.2,4.8-8,6.6-19.8c5,5-2.8,13.2,9,18c-14.2-17.2,11-23.4,9-40.1c18.8,18.6,0.4,30.1,10.6,34.9
		c3.8,1.6,9.2-8.6,5.6-17c11.2,9.6,10,20,4.2,28.2c-2.2,3,0.2,9.4,3,11.4c-1-6,4.2-9,5.6-14.8c10.4,11.6,14.2,25.8-3,37.5
		C105.2,587.4,99.2,593.2,93.1,600.9z"/>
	<path class="st0" d="M249.4,600.9c-4.4-14-28.2-19.8-32.5-31.9c-2-7.6-1.8-16.4,2-22.2c0,7.6,5.4,18.2,10.4,13
		c4.6-4.8-9.6-6.8-7.6-18c0.4-5.2,4.8-8,6.6-19.8c5,5-2.8,13.2,9,18c-14.2-17.2,11-23.4,9-40.1c18.8,18.6,0.4,30.1,10.6,34.9
		c3.8,1.6,9.2-8.6,5.6-17c11.2,9.6,10,20,4.2,28.2c-2.2,3,0.2,9.4,3,11.4c-1-6,4.2-9,5.6-14.8c10.4,11.6,14.2,25.8-3,37.5
		C261.4,587.4,255.4,593.2,249.4,600.9z"/>
	<path class="st0" d="M405.6,600.9c-4.4-14-28.2-19.8-32.5-31.9c-2-7.6-1.8-16.4,2-22.2c0,7.6,5.4,18.2,10.4,13
		c4.6-4.8-9.6-6.8-7.6-18c0.4-5.2,4.8-8,6.6-19.8c5,5-2.8,13.2,9,18c-14.2-17.2,11-23.4,9-40.1c18.8,18.6,0.4,30.1,10.6,34.9
		c3.8,1.6,9.2-8.6,5.6-17c11.2,9.6,10,20,4.2,28.2c-2.2,3,0.2,9.4,3,11.4c-1-6,4.2-9,5.6-14.8c10.4,11.6,14.2,25.8-3,37.5
		C417.7,587.4,411.7,593.2,405.6,600.9z"/>
</g>
<path class="st1" d="M34,16.4v346c0,55.2,44.8,100,100,100h232c55.2,0,100-44.8,100-100v-346"/>
<path class="st0" d="M366,462.4H134c-55.2,0-100-44.8-100-100v0h432v0C466,417.6,421.2,462.4,366,462.4z"/>
</svg>
