<?xml version="1.0" encoding="utf-8"?>
<!-- Generator: Adobe Illustrator 23.0.0, SVG Export Plug-In . SVG Version: 6.00 Build 0)  -->
<svg version="1.1" id="图层_1" xmlns="http://www.w3.org/2000/svg" xmlns:xlink="http://www.w3.org/1999/xlink" x="0px" y="0px"
	 viewBox="0 0 56.7 56.7" style="enable-background:new 0 0 56.7 56.7;" xml:space="preserve">
<style type="text/css">
	.st0{fill:url(#SVGID_1_);}
</style>
<title>calc</title>
<linearGradient id="SVGID_1_" gradientUnits="userSpaceOnUse" x1="35.6524" y1="52.8467" x2="21.7476" y2="0.9533">
	<stop  offset="0" style="stop-color:#6654A1"/>
	<stop  offset="0.2" style="stop-color:#5853A2"/>
	<stop  offset="0.4" style="stop-color:#4858A6"/>
	<stop  offset="0.6" style="stop-color:#537CBE"/>
	<stop  offset="0.8" style="stop-color:#4FA2D1"/>
	<stop  offset="1" style="stop-color:#50A1CF"/>
</linearGradient>
<path class="st0" d="M44.4,3.4H13c-1.6,0-2.9,1.3-2.9,2.9v41.2c0,1.6,1.3,2.9,2.9,2.9h31.4c1.6,0,2.9-1.3,2.9-2.9V6.3
	C47.3,4.7,46,3.4,44.4,3.4z M17.5,46.5c-2.2,0-3.9-1.7-3.9-3.9c0-2.2,1.7-3.9,3.9-3.9s3.9,1.7,3.9,3.9
	C21.4,44.8,19.7,46.5,17.5,46.5z M17.5,37.6c-2.2,0-3.9-1.7-3.9-3.9c0-2.2,1.7-3.9,3.9-3.9s3.9,1.7,3.9,3.9
	C21.4,35.9,19.7,37.6,17.5,37.6z M17.5,28.6c-2.2,0-3.9-1.7-3.9-3.9c0-2.2,1.7-3.9,3.9-3.9s3.9,1.7,3.9,3.9
	C21.4,26.9,19.7,28.6,17.5,28.6z M28.7,46.5c-2.2,0-3.9-1.7-3.9-3.9c0-2.2,1.7-3.9,3.9-3.9s3.9,1.7,3.9,3.9
	C32.6,44.8,30.9,46.5,28.7,46.5z M28.7,37.6c-2.2,0-3.9-1.7-3.9-3.9c0-2.2,1.7-3.9,3.9-3.9s3.9,1.7,3.9,3.9
	C32.6,35.9,30.9,37.6,28.7,37.6z M28.7,28.6c-2.2,0-3.9-1.7-3.9-3.9c0-2.2,1.7-3.9,3.9-3.9s3.9,1.7,3.9,3.9
	C32.6,26.9,30.9,28.6,28.7,28.6z M39.9,46.5c-2.2,0-3.9-1.7-3.9-3.9c0-2.2,1.7-3.9,3.9-3.9c2.2,0,3.9,1.7,3.9,3.9
	C43.8,44.8,42.1,46.5,39.9,46.5z M39.9,37.6c-2.2,0-3.9-1.7-3.9-3.9c0-2.2,1.7-3.9,3.9-3.9c2.2,0,3.9,1.7,3.9,3.9
	C43.8,35.9,42.1,37.6,39.9,37.6z M39.9,28.6c-2.2,0-3.9-1.7-3.9-3.9c0-2.2,1.7-3.9,3.9-3.9c2.2,0,3.9,1.7,3.9,3.9
	C43.8,26.9,42.1,28.6,39.9,28.6z M43.8,15.3c0,0.9-0.8,1.7-1.7,1.7H15.3c-0.9,0-1.7-0.8-1.7-1.7V8.8c0-1,0.8-1.8,1.7-1.8h26.8
	c0.9,0,1.7,0.8,1.7,1.7V15.3z"/>
</svg>
