<?xml version="1.0" encoding="utf-8"?>
<!-- Generator: Adobe Illustrator 26.0.0, SVG Export Plug-In . SVG Version: 6.00 Build 0)  -->
<svg version="1.1" id="图层_1" xmlns="http://www.w3.org/2000/svg" xmlns:xlink="http://www.w3.org/1999/xlink" x="0px" y="0px"
	 viewBox="0 0 56.7 56.7" style="enable-background:new 0 0 56.7 56.7;" xml:space="preserve">
<style type="text/css">
	.st0{fill:url(#SVGID_1_);}
</style>
<linearGradient id="SVGID_1_" gradientUnits="userSpaceOnUse" x1="6.6098" y1="26.85" x2="50.0902" y2="26.85">
	<stop  offset="0" style="stop-color:#6654A1"/>
	<stop  offset="0.2" style="stop-color:#5853A2"/>
	<stop  offset="0.4" style="stop-color:#4858A6"/>
	<stop  offset="0.6" style="stop-color:#537CBE"/>
	<stop  offset="0.8" style="stop-color:#4FA2D1"/>
	<stop  offset="1" style="stop-color:#50A1CF"/>
</linearGradient>
<path class="st0" d="M19.1,12.8v14.9c0,1.7-1.4,3.1-3.1,3.1h-1.8v5.6c0,0.7-0.6,1.3-1.3,1.3c-0.7,0-1.3-0.6-1.3-1.3v-5.6H9.7
	c-1.7,0-3.1-1.4-3.1-3.1V12.8c0-1.7,1.4-3.1,3.1-3.1h1.8V4.1c0-0.7,0.6-1.3,1.3-1.3c0.7,0,1.3,0.6,1.3,1.3v5.6H16
	C17.8,9.7,19.1,11.1,19.1,12.8z M31.5,22.9h-1.8v-5.6c0-0.7-0.6-1.3-1.3-1.3S27,16.6,27,17.3v5.6h-1.8c-1.7,0-3.1,1.4-3.1,3.1v14.9
	c0,1.7,1.4,3.1,3.1,3.1H27v5.6c0,0.7,0.6,1.3,1.3,1.3s1.3-0.6,1.3-1.3V44h1.8c1.7,0,3.1-1.4,3.1-3.1V26
	C34.6,24.3,33.2,22.9,31.5,22.9z M47,13.5h-1.8V8c0-0.7-0.6-1.3-1.3-1.3c-0.7,0-1.3,0.6-1.3,1.3v5.6h-1.8c-1.7,0-3.1,1.4-3.1,3.1
	v14.9c0,1.7,1.4,3.1,3.1,3.1h1.8v5.6c0,0.7,0.6,1.3,1.3,1.3c0.7,0,1.3-0.6,1.3-1.3v-5.6H47c1.7,0,3.1-1.4,3.1-3.1V16.6
	C50.1,14.9,48.7,13.5,47,13.5z"/>
</svg>
