<?xml version="1.0" encoding="utf-8"?>
<!-- Generator: Adobe Illustrator 23.0.0, SVG Export Plug-In . SVG Version: 6.00 Build 0)  -->
<svg version="1.1" id="图层_1" xmlns="http://www.w3.org/2000/svg" xmlns:xlink="http://www.w3.org/1999/xlink" x="0px" y="0px"
	 viewBox="0 0 56.7 56.7" style="enable-background:new 0 0 56.7 56.7;" xml:space="preserve">
<style type="text/css">
	.st0{fill:url(#SVGID_1_);}
</style>
<title>calc</title>
<linearGradient id="SVGID_1_" gradientUnits="userSpaceOnUse" x1="35.3083" y1="3.1329" x2="21.3956" y2="55.0558" gradientTransform="matrix(1 0 0 -1 0 55.89)">
	<stop  offset="0" style="stop-color:#6654A1"/>
	<stop  offset="0.2" style="stop-color:#5853A2"/>
	<stop  offset="0.4" style="stop-color:#4858A6"/>
	<stop  offset="0.6" style="stop-color:#537CBE"/>
	<stop  offset="0.8" style="stop-color:#4FA2D1"/>
	<stop  offset="1" style="stop-color:#50A1CF"/>
</linearGradient>
<path class="st0" d="M44.1,3.4H12.6c-1.6,0-2.8,1.3-2.8,2.8v41.3c0,1.6,1.3,2.8,2.8,2.8h31.5c1.6,0,2.8-1.3,2.8-2.8V6.2
	C47,4.7,45.7,3.4,44.1,3.4z M27.2,42c0,0.8-0.6,1.4-1.4,1.4h-6.6c-0.8,0-1.4-0.6-1.4-1.4v-6.6c0-0.8,0.6-1.4,1.4-1.4h6.6
	c0.8,0,1.4,0.6,1.4,1.4V42z M27.2,30.2c0,0.8-0.6,1.4-1.4,1.4h-6.6c-0.8,0-1.4-0.6-1.4-1.4v-6.6c0-0.8,0.6-1.4,1.4-1.4h6.6
	c0.8,0,1.4,0.6,1.4,1.4V30.2z M27.2,18.4c0,0.8-0.6,1.4-1.4,1.4h-6.6c-0.8,0-1.4-0.6-1.4-1.4v-6.6c0-0.8,0.6-1.4,1.4-1.4h6.6
	c0.8,0,1.4,0.6,1.4,1.4V18.4z M39,41.8c0,0.8-0.6,1.4-1.4,1.4H31c-0.8,0-1.4-0.6-1.4-1.4v-6.6c0-0.8,0.6-1.4,1.4-1.4h6.6
	c0.8,0,1.4,0.6,1.4,1.4V41.8z M39,29.9c0,0.8-0.6,1.4-1.4,1.4H31c-0.8,0-1.4-0.6-1.4-1.4v-6.6c0-0.8,0.6-1.4,1.4-1.4h6.6
	c0.8,0,1.4,0.6,1.4,1.4V29.9z M39,18.4c0,0.8-0.6,1.4-1.4,1.4H31c-0.8,0-1.4-0.6-1.4-1.4v-6.6c0-0.8,0.6-1.4,1.4-1.4h6.6
	c0.8,0,1.4,0.6,1.4,1.4V18.4z"/>
</svg>
