<svg id="图层_1" data-name="图层 1" xmlns="http://www.w3.org/2000/svg" viewBox="0 0 566.9 135.29"><defs><style>.cls-1,.cls-12,.cls-7{isolation:isolate;font-family:Calibri-Bold, Calibri;font-weight:700;}.cls-1{font-size:30px;fill:#666;}.cls-2{letter-spacing:-0.02em;}.cls-3{letter-spacing:-0.02em;}.cls-4{letter-spacing:-0.01em;}.cls-5{letter-spacing:-0.01em;}.cls-6{fill:#32558e;}.cls-7{font-size:12px;fill:#fff;}.cls-8{letter-spacing:-0.03em;}.cls-9{fill:#aaa;}.cls-10{letter-spacing:-0.01em;}.cls-11{fill:#7fb285;}.cls-12{font-size:18px;fill:#936b51;}.cls-13{letter-spacing:0em;}</style></defs><title>cobalt</title><text class="cls-1" transform="translate(126.97 47.15)">Cobal<tspan class="cls-2" x="70.28" y="0">t</tspan><tspan x="79.95" y="0">-based Supe</tspan><tspan class="cls-3" x="231.47" y="0">r</tspan><tspan x="241.48" y="0">all</tspan><tspan class="cls-4" x="271.03" y="0">o</tspan><tspan class="cls-5" x="286.98" y="0">y</tspan><tspan x="301" y="0">s</tspan></text><path class="cls-6" d="M180,91.6H114.8a9.92,9.92,0,0,1-9.9-9.9h0a9.92,9.92,0,0,1,9.9-9.9H180a9.92,9.92,0,0,1,9.9,9.9h0A9.8,9.8,0,0,1,180,91.6Z"/><text class="cls-7" transform="translate(132.14 85.09)">Nic<tspan class="cls-8" x="15.87" y="0">k</tspan><tspan x="21.3" y="0">el</tspan></text><path class="cls-9" d="M270.67,91.6h-65.2a9.92,9.92,0,0,1-9.9-9.9h0a9.92,9.92,0,0,1,9.9-9.9h65.2a9.92,9.92,0,0,1,9.9,9.9h0A9.8,9.8,0,0,1,270.67,91.6Z"/><text class="cls-7" transform="translate(227.93 85.09)">I<tspan class="cls-10" x="3.2" y="0">r</tspan><tspan x="7.32" y="0">on</tspan></text><rect class="cls-11" x="14.2" y="71.78" width="85.04" height="19.84" rx="9.92"/><text class="cls-7" transform="translate(40.58 85.07)">Cobalt</text><text class="cls-12" transform="translate(17.03 114.83)">In<tspan class="cls-13" x="14.46" y="0">c</tspan><tspan x="21.9" y="0">onel 783</tspan></text></svg>