<svg id="图层_1" data-name="图层 1" xmlns="http://www.w3.org/2000/svg" viewBox="0 0 566.9 230.66"><defs><style>.cls-1,.cls-10,.cls-11,.cls-12,.cls-9{isolation:isolate;}.cls-1{font-size:25px;}.cls-1,.cls-8{fill:#666;}.cls-1,.cls-10,.cls-11,.cls-12{font-family:Calibri-Bold, Calibri;font-weight:700;}.cls-2{letter-spacing:-0.01em;}.cls-3{letter-spacing:-0.01em;}.cls-4{letter-spacing:-0.01em;}.cls-5{letter-spacing:-0.02em;}.cls-6{letter-spacing:-0.01em;}.cls-7{letter-spacing:-0.01em;}.cls-10,.cls-11,.cls-12{font-size:18px;}.cls-10{fill:#936b51;}.cls-11,.cls-12{fill:#736c6d;}.cls-12{letter-spacing:-0.01em;}</style></defs><title>dispersion</title><text class="cls-1" transform="translate(228.74 104.9)">Dispe<tspan class="cls-2" x="57.87" y="0">r</tspan><tspan x="66.46" y="0">sion</tspan><tspan x="-78.11" y="25">St</tspan><tspan class="cls-3" x="-57.62" y="25">r</tspan><tspan x="-49.02" y="25">en</tspan><tspan class="cls-4" x="-23.02" y="25">g</tspan><tspan x="-11.35" y="25">thened Supe</tspan><tspan class="cls-5" x="119.62" y="25">r</tspan><tspan x="127.96" y="25">all</tspan><tspan class="cls-6" x="152.58" y="25">o</tspan><tspan class="cls-7" x="165.88" y="25">y</tspan><tspan x="177.56" y="25">s</tspan></text><circle class="cls-8" cx="283.66" cy="49.84" r="13.09"/><path class="cls-8" d="M305.92,38.22A5,5,0,0,0,302.7,34a3.94,3.94,0,0,0-2-.28.81.81,0,0,1-.84-.84,4.93,4.93,0,0,0-.28-2,5,5,0,0,0-4.27-3.22,4.85,4.85,0,0,0-5.18,5.18,5,5,0,0,0,3.22,4.27,3.94,3.94,0,0,0,2,.28.81.81,0,0,1,.84.84,4.93,4.93,0,0,0,.28,2,5,5,0,0,0,4.27,3.22A4.85,4.85,0,0,0,305.92,38.22Z"/><path class="cls-8" d="M272,27.16a5,5,0,0,0-4.27,3.22,3.94,3.94,0,0,0-.28,2,.81.81,0,0,1-.84.84,4.93,4.93,0,0,0-2,.28,5,5,0,0,0-3.22,4.27,4.85,4.85,0,0,0,5.18,5.18,5,5,0,0,0,4.27-3.22,3.94,3.94,0,0,0,.28-2,.81.81,0,0,1,.84-.84,4.93,4.93,0,0,0,2-.28,5,5,0,0,0,3.22-4.27A4.82,4.82,0,0,0,272,27.16Z"/><path class="cls-8" d="M261,61a5,5,0,0,0,3.22,4.27,3.94,3.94,0,0,0,2,.28.81.81,0,0,1,.84.84,4.93,4.93,0,0,0,.28,2,5,5,0,0,0,4.27,3.22,4.85,4.85,0,0,0,5.18-5.18,5,5,0,0,0-3.22-4.27,3.94,3.94,0,0,0-2-.28.81.81,0,0,1-.84-.84,4.93,4.93,0,0,0-.28-2,5,5,0,0,0-4.27-3.22A4.89,4.89,0,0,0,261,61Z"/><path class="cls-8" d="M295.35,71.61a5,5,0,0,0,4.27-3.22,3.94,3.94,0,0,0,.28-2,.81.81,0,0,1,.84-.84,4.93,4.93,0,0,0,2-.28A5,5,0,0,0,305.92,61a4.85,4.85,0,0,0-5.18-5.18,5,5,0,0,0-4.27,3.22,3.94,3.94,0,0,0-.28,2,.81.81,0,0,1-.84.84,4.93,4.93,0,0,0-2,.28,5,5,0,0,0-3.22,4.27A4.85,4.85,0,0,0,295.35,71.61Z"/><g class="cls-9"><text class="cls-10" transform="translate(156.48 175.06)">In</text><text class="cls-10" transform="translate(170.94 175.06)">c</text><text class="cls-10" transform="translate(178.38 175.06)">onel MA754</text></g><g class="cls-9"><text class="cls-10" transform="translate(297.62 175.06)">In</text><text class="cls-10" transform="translate(312.08 175.06)">c</text><text class="cls-10" transform="translate(319.52 175.06)">onel MA758</text></g><g class="cls-9"><text class="cls-11" transform="translate(156.48 210.2)">In</text><text class="cls-11" transform="translate(170.94 210.2)">c</text><text class="cls-11" transform="translate(178.38 210.2)">ol</text><text class="cls-12" transform="translate(192.48 210.2)">o</text><text class="cls-11" transform="translate(202.05 210.2)">y MA956</text></g></svg>