<svg id="图层_1" data-name="图层 1" xmlns="http://www.w3.org/2000/svg" viewBox="0 0 566.9 202.7"><defs><style>.cls-1,.cls-7{isolation:isolate;fill:#7c7f74;font-family:Calibri-Bold, Calibri;font-weight:700;}.cls-1{font-size:30px;}.cls-2{letter-spacing:-0.01em;}.cls-3{letter-spacing:-0.02em;}.cls-4{letter-spacing:-0.03em;}.cls-5{letter-spacing:-0.01em;}.cls-6{letter-spacing:-0.01em;}.cls-7{font-size:18px;}.cls-8{letter-spacing:-0.01em;}.cls-9{letter-spacing:-0.01em;}</style></defs><title>hastelloy</title><text class="cls-1" transform="translate(172.51 47.15)">HA<tspan class="cls-2" x="37.1" y="0">S</tspan><tspan x="50.99" y="0">TEL</tspan><tspan class="cls-3" x="93.16" y="0">L</tspan><tspan class="cls-4" x="105.32" y="0">O</tspan><tspan x="124.66" y="0">Y All</tspan><tspan class="cls-5" x="179.94" y="0">o</tspan><tspan class="cls-6" x="195.89" y="0">y</tspan><tspan x="209.91" y="0">s</tspan></text><text class="cls-7" transform="translate(21.13 89.32)">Ha<tspan class="cls-8" x="20.24" y="0">s</tspan><tspan class="cls-9" x="27.22" y="0">t</tspan><tspan x="33.24" y="0">ell</tspan><tspan class="cls-5" x="51.14" y="0">o</tspan><tspan x="60.71" y="0">y B</tspan></text><text class="cls-7" transform="translate(21.13 118.79)">Ha<tspan class="cls-8" x="20.24" y="0">s</tspan><tspan class="cls-9" x="27.22" y="0">t</tspan><tspan x="33.24" y="0">ell</tspan><tspan class="cls-5" x="51.14" y="0">o</tspan><tspan x="60.71" y="0">y C-4</tspan></text><text class="cls-7" transform="translate(21.13 148.27)">Ha<tspan class="cls-8" x="20.24" y="0">s</tspan><tspan class="cls-9" x="27.22" y="0">t</tspan><tspan x="33.24" y="0">ell</tspan><tspan class="cls-5" x="51.14" y="0">o</tspan><tspan x="60.71" y="0">y C-2000</tspan></text><text class="cls-7" transform="translate(21.13 177.74)">Ha<tspan class="cls-8" x="20.24" y="0">s</tspan><tspan class="cls-9" x="27.22" y="0">t</tspan><tspan x="33.24" y="0">ell</tspan><tspan class="cls-5" x="51.14" y="0">o</tspan><tspan x="60.71" y="0">y N</tspan></text><text class="cls-7" transform="translate(162.98 89.32)">Ha<tspan class="cls-8" x="20.24" y="0">s</tspan><tspan class="cls-9" x="27.22" y="0">t</tspan><tspan x="33.24" y="0">ell</tspan><tspan class="cls-5" x="51.14" y="0">o</tspan><tspan x="60.71" y="0">y B-2</tspan></text><text class="cls-7" transform="translate(162.98 118.79)">Ha<tspan class="cls-8" x="20.24" y="0">s</tspan><tspan class="cls-9" x="27.22" y="0">t</tspan><tspan x="33.24" y="0">ell</tspan><tspan class="cls-5" x="51.14" y="0">o</tspan><tspan x="60.71" y="0">y C-22</tspan></text><text class="cls-7" transform="translate(162.98 148.27)">Ha<tspan class="cls-8" x="20.24" y="0">s</tspan><tspan class="cls-9" x="27.22" y="0">t</tspan><tspan x="33.24" y="0">ell</tspan><tspan class="cls-5" x="51.14" y="0">o</tspan><tspan x="60.71" y="0">y G-3</tspan></text><text class="cls-7" transform="translate(162.98 177.74)">Ha<tspan class="cls-8" x="20.24" y="0">s</tspan><tspan class="cls-9" x="27.22" y="0">t</tspan><tspan x="33.24" y="0">ell</tspan><tspan class="cls-5" x="51.14" y="0">o</tspan><tspan x="60.71" y="0">y S</tspan></text><text class="cls-7" transform="translate(430.05 89.32)">Ha<tspan class="cls-8" x="20.24" y="0">s</tspan><tspan class="cls-9" x="27.22" y="0">t</tspan><tspan x="33.24" y="0">ell</tspan><tspan class="cls-5" x="51.14" y="0">o</tspan><tspan x="60.71" y="0">y C</tspan></text><text class="cls-7" transform="translate(430.05 118.79)">Ha<tspan class="cls-8" x="20.24" y="0">s</tspan><tspan class="cls-9" x="27.22" y="0">t</tspan><tspan x="33.24" y="0">ell</tspan><tspan class="cls-5" x="51.14" y="0">o</tspan><tspan x="60.71" y="0">y C-276</tspan></text><text class="cls-7" transform="translate(430.05 148.27)">Ha<tspan class="cls-8" x="20.24" y="0">s</tspan><tspan class="cls-9" x="27.22" y="0">t</tspan><tspan x="33.24" y="0">ell</tspan><tspan class="cls-5" x="51.14" y="0">o</tspan><tspan x="60.71" y="0">y G-35</tspan></text><text class="cls-7" transform="translate(430.05 177.74)">Ha<tspan class="cls-8" x="20.24" y="0">s</tspan><tspan class="cls-9" x="27.22" y="0">t</tspan><tspan x="33.24" y="0">ell</tspan><tspan class="cls-5" x="51.14" y="0">o</tspan><tspan x="60.71" y="0">y X</tspan></text><text class="cls-7" transform="translate(286.58 89.32)">Ha<tspan class="cls-8" x="20.24" y="0">s</tspan><tspan class="cls-9" x="27.22" y="0">t</tspan><tspan x="33.24" y="0">ell</tspan><tspan class="cls-5" x="51.14" y="0">o</tspan><tspan x="60.71" y="0">y B-3</tspan></text><text class="cls-7" transform="translate(286.58 118.79)">Ha<tspan class="cls-8" x="20.24" y="0">s</tspan><tspan class="cls-9" x="27.22" y="0">t</tspan><tspan x="33.24" y="0">ell</tspan><tspan class="cls-5" x="51.14" y="0">o</tspan><tspan x="60.71" y="0">y C-22HS</tspan></text><text class="cls-7" transform="translate(286.58 148.27)">Ha<tspan class="cls-8" x="20.24" y="0">s</tspan><tspan class="cls-9" x="27.22" y="0">t</tspan><tspan x="33.24" y="0">ell</tspan><tspan class="cls-5" x="51.14" y="0">o</tspan><tspan x="60.71" y="0">y G-30</tspan></text><text class="cls-7" transform="translate(286.58 177.74)">Ha<tspan class="cls-8" x="20.24" y="0">s</tspan><tspan class="cls-9" x="27.22" y="0">t</tspan><tspan x="33.24" y="0">ell</tspan><tspan class="cls-5" x="51.14" y="0">o</tspan><tspan x="60.71" y="0">y W</tspan></text></svg>