<svg id="图层_1" data-name="图层 1" xmlns="http://www.w3.org/2000/svg" viewBox="0 0 566.93 261.68"><defs><style>.cls-1,.cls-2,.cls-8{isolation:isolate;}.cls-2{font-size:30px;}.cls-2,.cls-8{fill:#736c6d;font-family:Calibri-Bold, Calibri;font-weight:700;}.cls-3{letter-spacing:-0.01em;}.cls-4{letter-spacing:-0.02em;}.cls-5{letter-spacing:-0.03em;}.cls-6{letter-spacing:-0.01em;}.cls-7{letter-spacing:-0.01em;}.cls-8{font-size:18px;}.cls-9{letter-spacing:0em;}.cls-10{letter-spacing:-0.01em;}</style></defs><title>incoloy</title><g class="cls-1"><text class="cls-2" transform="translate(187.25 47.15)">IN<tspan class="cls-3" x="27.76" y="0">C</tspan><tspan x="43.42" y="0">O</tspan><tspan class="cls-4" x="63.71" y="0">L</tspan><tspan class="cls-5" x="75.86" y="0">O</tspan><tspan x="95.2" y="0">Y All</tspan><tspan class="cls-6" x="150.48" y="0">o</tspan><tspan class="cls-7" x="166.44" y="0">y</tspan><tspan x="180.45" y="0">s</tspan></text></g><text class="cls-8" transform="translate(31.56 89.32)">In<tspan class="cls-9" x="14.46" y="0">c</tspan><tspan x="21.9" y="0">ol</tspan><tspan class="cls-6" x="36" y="0">o</tspan><tspan x="45.57" y="0">y 800</tspan></text><text class="cls-8" transform="translate(31.56 118.79)">In<tspan class="cls-9" x="14.46" y="0">c</tspan><tspan x="21.9" y="0">ol</tspan><tspan class="cls-6" x="36" y="0">o</tspan><tspan x="45.57" y="0">y 825</tspan></text><text class="cls-8" transform="translate(31.56 148.27)">In<tspan class="cls-9" x="14.46" y="0">c</tspan><tspan x="21.9" y="0">ol</tspan><tspan class="cls-6" x="36" y="0">o</tspan><tspan x="45.57" y="0">y 903</tspan></text><text class="cls-8" transform="translate(31.56 177.74)">In<tspan class="cls-9" x="14.46" y="0">c</tspan><tspan x="21.9" y="0">ol</tspan><tspan class="cls-6" x="36" y="0">o</tspan><tspan x="45.57" y="0">y 925</tspan></text><text class="cls-8" transform="translate(31.56 207.22)">In<tspan class="cls-9" x="14.46" y="0">c</tspan><tspan x="21.9" y="0">ol</tspan><tspan class="cls-6" x="36" y="0">o</tspan><tspan x="45.57" y="0">y MA956</tspan></text><text class="cls-8" transform="translate(31.56 236.69)">In<tspan class="cls-9" x="14.46" y="0">c</tspan><tspan x="21.9" y="0">ol</tspan><tspan class="cls-6" x="36" y="0">o</tspan><tspan x="45.57" y="0">y DS</tspan></text><text class="cls-8" transform="translate(166.41 89.32)">In<tspan class="cls-9" x="14.46" y="0">c</tspan><tspan x="21.9" y="0">ol</tspan><tspan class="cls-6" x="36" y="0">o</tspan><tspan x="45.57" y="0">y 800H</tspan></text><text class="cls-8" transform="translate(166.41 118.79)">In<tspan class="cls-9" x="14.46" y="0">c</tspan><tspan x="21.9" y="0">ol</tspan><tspan class="cls-6" x="36" y="0">o</tspan><tspan x="45.57" y="0">y 832</tspan></text><text class="cls-8" transform="translate(166.41 148.27)">In<tspan class="cls-9" x="14.46" y="0">c</tspan><tspan x="21.9" y="0">ol</tspan><tspan class="cls-6" x="36" y="0">o</tspan><tspan x="45.57" y="0">y 907</tspan></text><text class="cls-8" transform="translate(166.41 177.74)">In<tspan class="cls-9" x="14.46" y="0">c</tspan><tspan x="21.9" y="0">ol</tspan><tspan class="cls-6" x="36" y="0">o</tspan><tspan x="45.57" y="0">y 926</tspan></text><text class="cls-8" transform="translate(166.41 207.22)">In<tspan class="cls-9" x="14.46" y="0">c</tspan><tspan x="21.9" y="0">ol</tspan><tspan class="cls-6" x="36" y="0">o</tspan><tspan x="45.57" y="0">y </tspan><tspan class="cls-10" x="58.17" y="0">A</tspan><tspan x="68.85" y="0">-286</tspan></text><text class="cls-8" transform="translate(166.41 236.69)">In<tspan class="cls-9" x="14.46" y="0">c</tspan><tspan x="21.9" y="0">ol</tspan><tspan class="cls-6" x="36" y="0">o</tspan><tspan x="45.57" y="0">y 330</tspan></text><text class="cls-8" transform="translate(427.76 89.32)">In<tspan class="cls-9" x="14.46" y="0">c</tspan><tspan x="21.9" y="0">ol</tspan><tspan class="cls-6" x="36" y="0">o</tspan><tspan x="45.57" y="0">y 803</tspan></text><text class="cls-8" transform="translate(427.76 118.79)">In<tspan class="cls-9" x="14.46" y="0">c</tspan><tspan x="21.9" y="0">ol</tspan><tspan class="cls-6" x="36" y="0">o</tspan><tspan x="45.57" y="0">y 890</tspan></text><text class="cls-8" transform="translate(427.76 148.27)">In<tspan class="cls-9" x="14.46" y="0">c</tspan><tspan x="21.9" y="0">ol</tspan><tspan class="cls-6" x="36" y="0">o</tspan><tspan x="45.57" y="0">y 909</tspan></text><text class="cls-8" transform="translate(427.76 177.74)">In<tspan class="cls-9" x="14.46" y="0">c</tspan><tspan x="21.9" y="0">ol</tspan><tspan class="cls-6" x="36" y="0">o</tspan><tspan x="45.57" y="0">y 945X</tspan></text><text class="cls-8" transform="translate(427.76 207.22)">In<tspan class="cls-9" x="14.46" y="0">c</tspan><tspan x="21.9" y="0">ol</tspan><tspan class="cls-6" x="36" y="0">o</tspan><tspan x="45.57" y="0">y 028</tspan></text><text class="cls-8" transform="translate(427.76 236.69)">In<tspan class="cls-9" x="14.46" y="0">c</tspan><tspan x="21.9" y="0">ol</tspan><tspan class="cls-6" x="36" y="0">o</tspan><tspan x="45.57" y="0">y 27-7MO</tspan></text><text class="cls-8" transform="translate(290.82 89.32)">In<tspan class="cls-9" x="14.46" y="0">c</tspan><tspan x="21.9" y="0">ol</tspan><tspan class="cls-6" x="36" y="0">o</tspan><tspan x="45.57" y="0">y 800HT</tspan></text><text class="cls-8" transform="translate(290.82 118.79)">In<tspan class="cls-9" x="14.46" y="0">c</tspan><tspan x="21.9" y="0">ol</tspan><tspan class="cls-6" x="36" y="0">o</tspan><tspan x="45.57" y="0">y 864</tspan></text><text class="cls-8" transform="translate(290.82 148.27)">In<tspan class="cls-9" x="14.46" y="0">c</tspan><tspan x="21.9" y="0">ol</tspan><tspan class="cls-6" x="36" y="0">o</tspan><tspan x="45.57" y="0">y 908</tspan></text><text class="cls-8" transform="translate(290.82 177.74)">In<tspan class="cls-9" x="14.46" y="0">c</tspan><tspan x="21.9" y="0">ol</tspan><tspan class="cls-6" x="36" y="0">o</tspan><tspan x="45.57" y="0">y 945</tspan></text><text class="cls-8" transform="translate(290.82 207.22)">In<tspan class="cls-9" x="14.46" y="0">c</tspan><tspan x="21.9" y="0">ol</tspan><tspan class="cls-6" x="36" y="0">o</tspan><tspan x="45.57" y="0">y 020</tspan></text><text class="cls-8" transform="translate(290.82 236.69)">In<tspan class="cls-9" x="14.46" y="0">c</tspan><tspan x="21.9" y="0">ol</tspan><tspan class="cls-6" x="36" y="0">o</tspan><tspan x="45.57" y="0">y 25-6HN</tspan></text></svg>