<svg id="图层_1" data-name="图层 1" xmlns="http://www.w3.org/2000/svg" viewBox="0 0 566.9 232.2"><defs><style>.cls-1,.cls-5{isolation:isolate;fill:#936b51;font-family:Calibri-Bold, Calibri;font-weight:700;}.cls-1{font-size:30px;}.cls-2{letter-spacing:-0.01em;}.cls-3{letter-spacing:-0.01em;}.cls-4{letter-spacing:-0.01em;}.cls-5{font-size:18px;}.cls-6{letter-spacing:0em;}.cls-7{letter-spacing:-0.03em;}.cls-8{letter-spacing:-0.01em;}</style></defs><title>inconel</title><text class="cls-1" transform="translate(187.24 47.15)">IN<tspan class="cls-2" x="27.76" y="0">C</tspan><tspan x="43.42" y="0">ONEL All</tspan><tspan class="cls-3" x="150.48" y="0">o</tspan><tspan class="cls-4" x="166.44" y="0">y</tspan><tspan x="180.45" y="0">s</tspan></text><text class="cls-5" transform="translate(28.54 89.32)">In<tspan class="cls-6" x="14.46" y="0">c</tspan><tspan x="21.9" y="0">onel 600</tspan></text><text class="cls-5" transform="translate(28.54 118.79)">In<tspan class="cls-6" x="14.46" y="0">c</tspan><tspan x="21.9" y="0">onel 617</tspan></text><text class="cls-5" transform="translate(28.54 148.27)">In<tspan class="cls-6" x="14.46" y="0">c</tspan><tspan x="21.9" y="0">onel 690</tspan></text><text class="cls-5" transform="translate(28.54 177.74)">In<tspan class="cls-6" x="14.46" y="0">c</tspan><tspan x="21.9" y="0">onel 718SPF</tspan></text><text class="cls-5" transform="translate(28.54 207.22)">In<tspan class="cls-6" x="14.46" y="0">c</tspan><tspan x="21.9" y="0">onel 751</tspan></text><text class="cls-5" transform="translate(163.72 89.32)">In<tspan class="cls-6" x="14.46" y="0">c</tspan><tspan x="21.9" y="0">onel 601</tspan></text><text class="cls-5" transform="translate(163.72 118.79)">In<tspan class="cls-6" x="14.46" y="0">c</tspan><tspan x="21.9" y="0">onel 625</tspan></text><text class="cls-5" transform="translate(163.72 148.27)">In<tspan class="cls-6" x="14.46" y="0">c</tspan><tspan x="21.9" y="0">onel 693</tspan></text><text class="cls-5" transform="translate(163.72 177.74)">In<tspan class="cls-6" x="14.46" y="0">c</tspan><tspan x="21.9" y="0">onel 725</tspan></text><text class="cls-5" transform="translate(163.72 207.22)">In<tspan class="cls-6" x="14.46" y="0">c</tspan><tspan x="21.9" y="0">onel MA754</tspan></text><text class="cls-5" transform="translate(434.68 89.32)">In<tspan class="cls-6" x="14.46" y="0">c</tspan><tspan x="21.9" y="0">onel 603XL</tspan></text><text class="cls-5" transform="translate(434.68 118.79)">In<tspan class="cls-6" x="14.46" y="0">c</tspan><tspan x="21.9" y="0">onel 686</tspan></text><text class="cls-5" transform="translate(434.68 148.27)">In<tspan class="cls-6" x="14.46" y="0">c</tspan><tspan x="21.9" y="0">onel 718</tspan></text><text class="cls-5" transform="translate(434.68 177.74)">In<tspan class="cls-6" x="14.46" y="0">c</tspan><tspan x="21.9" y="0">onel </tspan><tspan class="cls-7" x="58.79" y="0">X</tspan><tspan x="68.13" y="0">-750</tspan></text><text class="cls-5" transform="translate(434.68 207.22)">In<tspan class="cls-6" x="14.46" y="0">c</tspan><tspan x="21.9" y="0">onel 783</tspan></text><text class="cls-5" transform="translate(299.2 89.32)">In<tspan class="cls-6" x="14.46" y="0">c</tspan><tspan x="21.9" y="0">onel 601GC</tspan></text><text class="cls-5" transform="translate(299.2 118.79)">In<tspan class="cls-6" x="14.46" y="0">c</tspan><tspan x="21.9" y="0">onel 625</tspan><tspan class="cls-8" x="86.16" y="0">L</tspan><tspan x="93.55" y="0">CF</tspan></text><text class="cls-5" transform="translate(299.2 148.27)">In<tspan class="cls-6" x="14.46" y="0">c</tspan><tspan x="21.9" y="0">onel 706</tspan></text><text class="cls-5" transform="translate(299.2 177.74)">In<tspan class="cls-6" x="14.46" y="0">c</tspan><tspan x="21.9" y="0">onel 740H</tspan></text><text class="cls-5" transform="translate(299.2 207.22)">In<tspan class="cls-6" x="14.46" y="0">c</tspan><tspan x="21.9" y="0">onel MA758</tspan></text></svg>