<svg id="图层_1" data-name="图层 1" xmlns="http://www.w3.org/2000/svg" viewBox="0 0 566.9 452.7"><defs><style>.cls-1,.cls-11,.cls-7{isolation:isolate;font-family:Calibri-Bold, Calibri;font-weight:700;}.cls-1{font-size:30px;fill:#666;}.cls-2{letter-spacing:-0.01em;}.cls-3{letter-spacing:-0.02em;}.cls-4{letter-spacing:-0.01em;}.cls-5{letter-spacing:-0.01em;}.cls-6{fill:#fba971;}.cls-7{font-size:12px;fill:#fff;}.cls-8{fill:#32558e;}.cls-9{letter-spacing:-0.03em;}.cls-10{fill:#aaa;}.cls-11{font-size:18px;fill:#736c6d;}.cls-12{letter-spacing:0em;}.cls-13{fill:#c4af9a;}.cls-14{fill:#d5ad71;}.cls-15{fill:#b9314f;}.cls-16{fill:#b7c8b5;}.cls-17{fill:#3b8ea5;}.cls-18{letter-spacing:-0.01em;}</style></defs><title>iron</title><text class="cls-1" transform="translate(141.68 47.15)">I<tspan class="cls-2" x="8" y="0">r</tspan><tspan x="18.3" y="0">on-based Supe</tspan><tspan class="cls-3" x="202.05" y="0">r</tspan><tspan x="212.05" y="0">all</tspan><tspan class="cls-4" x="241.6" y="0">o</tspan><tspan class="cls-5" x="257.55" y="0">y</tspan><tspan x="271.57" y="0">s</tspan></text><path class="cls-6" d="M270.8,91.6H205.6a9.92,9.92,0,0,1-9.9-9.9h0a9.92,9.92,0,0,1,9.9-9.9h65.2a9.92,9.92,0,0,1,9.9,9.9h0A9.92,9.92,0,0,1,270.8,91.6Z"/><text class="cls-7" transform="translate(211.95 85.09)">Ch<tspan class="cls-2" x="12.79" y="0">r</tspan><tspan x="16.91" y="0">omium</tspan></text><path class="cls-8" d="M180,91.6H114.8a9.92,9.92,0,0,1-9.9-9.9h0a9.92,9.92,0,0,1,9.9-9.9H180a9.92,9.92,0,0,1,9.9,9.9h0A9.8,9.8,0,0,1,180,91.6Z"/><text class="cls-7" transform="translate(132.14 85.09)">Nic<tspan class="cls-9" x="15.87" y="0">k</tspan><tspan x="21.3" y="0">el</tspan></text><path class="cls-10" d="M89.3,91.6H24.1a9.92,9.92,0,0,1-9.9-9.9h0a9.92,9.92,0,0,1,9.9-9.9H89.3a9.92,9.92,0,0,1,9.9,9.9h0A9.8,9.8,0,0,1,89.3,91.6Z"/><text class="cls-7" transform="translate(46.56 85.09)">I<tspan class="cls-2" x="3.2" y="0">r</tspan><tspan x="7.32" y="0">on</tspan></text><text class="cls-11" transform="translate(17.03 114.83)">In<tspan class="cls-12" x="14.46" y="0">c</tspan><tspan x="21.9" y="0">ol</tspan><tspan class="cls-4" x="36" y="0">o</tspan><tspan x="45.57" y="0">y 803</tspan></text><text class="cls-11" transform="translate(122.41 114.83)">In<tspan class="cls-12" x="14.46" y="0">c</tspan><tspan x="21.9" y="0">ol</tspan><tspan class="cls-4" x="36" y="0">o</tspan><tspan x="45.57" y="0">y 864</tspan></text><text class="cls-11" transform="translate(230.63 114.83)">In<tspan class="cls-12" x="14.46" y="0">c</tspan><tspan x="21.9" y="0">ol</tspan><tspan class="cls-4" x="36" y="0">o</tspan><tspan x="45.57" y="0">y </tspan><tspan class="cls-2" x="58.17" y="0">A</tspan><tspan x="68.85" y="0">-286</tspan></text><text class="cls-11" transform="translate(355.04 114.83)">In<tspan class="cls-12" x="14.46" y="0">c</tspan><tspan x="21.9" y="0">ol</tspan><tspan class="cls-4" x="36" y="0">o</tspan><tspan x="45.57" y="0">y DS</tspan></text><path class="cls-6" d="M180,345.4H114.8a9.92,9.92,0,0,1-9.9-9.9h0a9.92,9.92,0,0,1,9.9-9.9H180a9.92,9.92,0,0,1,9.9,9.9h0A9.8,9.8,0,0,1,180,345.4Z"/><text class="cls-7" transform="translate(121.24 338.9)">Ch<tspan class="cls-2" x="12.79" y="0">r</tspan><tspan x="16.91" y="0">omium</tspan></text><path class="cls-8" d="M270.8,345.4H205.6a9.92,9.92,0,0,1-9.9-9.9h0a9.92,9.92,0,0,1,9.9-9.9h65.2a9.92,9.92,0,0,1,9.9,9.9h0A9.92,9.92,0,0,1,270.8,345.4Z"/><text class="cls-7" transform="translate(222.85 338.9)">Nic<tspan class="cls-9" x="15.87" y="0">k</tspan><tspan x="21.3" y="0">el</tspan></text><path class="cls-10" d="M89.3,345.4H24.1a9.92,9.92,0,0,1-9.9-9.9h0a9.92,9.92,0,0,1,9.9-9.9H89.3a9.92,9.92,0,0,1,9.9,9.9h0A9.8,9.8,0,0,1,89.3,345.4Z"/><text class="cls-7" transform="translate(46.56 338.9)">I<tspan class="cls-2" x="3.2" y="0">r</tspan><tspan x="7.32" y="0">on</tspan></text><text class="cls-11" transform="translate(17.03 368.65)">In<tspan class="cls-12" x="14.46" y="0">c</tspan><tspan x="21.9" y="0">ol</tspan><tspan class="cls-4" x="36" y="0">o</tspan><tspan x="45.57" y="0">y 832</tspan></text><path class="cls-6" d="M180,408.9H114.8a9.92,9.92,0,0,1-9.9-9.9h0a9.92,9.92,0,0,1,9.9-9.9H180a9.92,9.92,0,0,1,9.9,9.9h0A9.8,9.8,0,0,1,180,408.9Z"/><text class="cls-7" transform="translate(121.24 402.37)">Ch<tspan class="cls-2" x="12.79" y="0">r</tspan><tspan x="16.91" y="0">omium</tspan></text><path class="cls-13" d="M270.8,408.9H205.6a9.92,9.92,0,0,1-9.9-9.9h0a9.92,9.92,0,0,1,9.9-9.9h65.2a9.92,9.92,0,0,1,9.9,9.9h0A9.92,9.92,0,0,1,270.8,408.9Z"/><text class="cls-7" transform="translate(212.15 402.37)">Aluminum</text><path class="cls-10" d="M89.3,408.9H24.1a9.92,9.92,0,0,1-9.9-9.9h0a9.92,9.92,0,0,1,9.9-9.9H89.3a9.92,9.92,0,0,1,9.9,9.9h0A9.8,9.8,0,0,1,89.3,408.9Z"/><text class="cls-7" transform="translate(46.56 402.37)">I<tspan class="cls-2" x="3.2" y="0">r</tspan><tspan x="7.32" y="0">on</tspan></text><text class="cls-11" transform="translate(17.03 432.11)">In<tspan class="cls-12" x="14.46" y="0">c</tspan><tspan x="21.9" y="0">ol</tspan><tspan class="cls-4" x="36" y="0">o</tspan><tspan x="45.57" y="0">y MA956</tspan></text><path class="cls-6" d="M270.7,282H205.5a9.92,9.92,0,0,1-9.9-9.9h0a9.92,9.92,0,0,1,9.9-9.9h65.2a9.92,9.92,0,0,1,9.9,9.9h0A9.92,9.92,0,0,1,270.7,282Z"/><text class="cls-7" transform="translate(211.89 275.43)">Ch<tspan class="cls-2" x="12.79" y="0">r</tspan><tspan x="16.91" y="0">omium</tspan></text><path class="cls-8" d="M180,282H114.8a9.92,9.92,0,0,1-9.9-9.9h0a9.92,9.92,0,0,1,9.9-9.9H180a9.92,9.92,0,0,1,9.9,9.9h0A10,10,0,0,1,180,282Z"/><text class="cls-7" transform="translate(132.08 275.43)">Nic<tspan class="cls-9" x="15.87" y="0">k</tspan><tspan x="21.3" y="0">el</tspan></text><path class="cls-10" d="M89.3,282H24.1a9.92,9.92,0,0,1-9.9-9.9h0a9.92,9.92,0,0,1,9.9-9.9H89.3a9.92,9.92,0,0,1,9.9,9.9h0A10,10,0,0,1,89.3,282Z"/><text class="cls-7" transform="translate(46.5 275.43)">I<tspan class="cls-2" x="3.2" y="0">r</tspan><tspan x="7.32" y="0">on</tspan></text><path class="cls-14" d="M452.1,282H386.9a9.92,9.92,0,0,1-9.9-9.9h0a9.92,9.92,0,0,1,9.9-9.9h65.2a9.92,9.92,0,0,1,9.9,9.9h0A9.92,9.92,0,0,1,452.1,282Z"/><text class="cls-7" transform="translate(401.52 275.43)">Copper</text><path class="cls-15" d="M542.8,282H477.6a9.92,9.92,0,0,1-9.9-9.9h0a9.92,9.92,0,0,1,9.9-9.9h65.2a9.92,9.92,0,0,1,9.9,9.9h0A9.92,9.92,0,0,1,542.8,282Z"/><text class="cls-7" transform="translate(488.78 275.43)">Niobium</text><path class="cls-16" d="M361.4,282H296.2a9.92,9.92,0,0,1-9.9-9.9h0a9.92,9.92,0,0,1,9.9-9.9h65.2a9.92,9.92,0,0,1,9.9,9.9h0A9.92,9.92,0,0,1,361.4,282Z"/><text class="cls-7" transform="translate(295.24 275.43)">Molybdenum</text><text class="cls-11" transform="translate(17.03 305.17)">In<tspan class="cls-12" x="14.46" y="0">c</tspan><tspan x="21.9" y="0">ol</tspan><tspan class="cls-4" x="36" y="0">o</tspan><tspan x="45.57" y="0">y 020</tspan></text><path class="cls-6" d="M270.7,155.1H205.5a9.92,9.92,0,0,1-9.9-9.9h0a9.92,9.92,0,0,1,9.9-9.9h65.2a9.92,9.92,0,0,1,9.9,9.9h0A9.92,9.92,0,0,1,270.7,155.1Z"/><text class="cls-7" transform="translate(211.9 148.53)">Ch<tspan class="cls-2" x="12.79" y="0">r</tspan><tspan x="16.91" y="0">omium</tspan></text><path class="cls-8" d="M180,155.1H114.8a9.92,9.92,0,0,1-9.9-9.9h0a9.92,9.92,0,0,1,9.9-9.9H180a9.92,9.92,0,0,1,9.9,9.9h0A9.92,9.92,0,0,1,180,155.1Z"/><text class="cls-7" transform="translate(132.09 148.53)">Nic<tspan class="cls-9" x="15.87" y="0">k</tspan><tspan x="21.3" y="0">el</tspan></text><path class="cls-10" d="M89.3,155.1H24.1a9.92,9.92,0,0,1-9.9-9.9h0a9.92,9.92,0,0,1,9.9-9.9H89.3a9.92,9.92,0,0,1,9.9,9.9h0A10,10,0,0,1,89.3,155.1Z"/><text class="cls-7" transform="translate(46.51 148.53)">I<tspan class="cls-2" x="3.2" y="0">r</tspan><tspan x="7.32" y="0">on</tspan></text><path class="cls-16" d="M361.4,155.1H296.2a9.92,9.92,0,0,1-9.9-9.9h0a9.92,9.92,0,0,1,9.9-9.9h65.2a9.92,9.92,0,0,1,9.9,9.9h0A9.92,9.92,0,0,1,361.4,155.1Z"/><text class="cls-7" transform="translate(295.25 148.53)">Molybdenum</text><text class="cls-11" transform="translate(17.03 178.28)">In<tspan class="cls-12" x="14.46" y="0">c</tspan><tspan x="21.9" y="0">ol</tspan><tspan class="cls-4" x="36" y="0">o</tspan><tspan x="45.57" y="0">y 028</tspan></text><text class="cls-11" transform="translate(122.41 178.28)">In<tspan class="cls-12" x="14.46" y="0">c</tspan><tspan x="21.9" y="0">ol</tspan><tspan class="cls-4" x="36" y="0">o</tspan><tspan x="45.57" y="0">y 27-7MO</tspan></text><path class="cls-6" d="M270.7,218.5H205.5a9.92,9.92,0,0,1-9.9-9.9h0a9.92,9.92,0,0,1,9.9-9.9h65.2a9.92,9.92,0,0,1,9.9,9.9h0A9.86,9.86,0,0,1,270.7,218.5Z"/><text class="cls-7" transform="translate(211.94 211.97)">Ch<tspan class="cls-2" x="12.79" y="0">r</tspan><tspan x="16.91" y="0">omium</tspan></text><path class="cls-8" d="M180,218.5H114.8a9.92,9.92,0,0,1-9.9-9.9h0a9.92,9.92,0,0,1,9.9-9.9H180a9.92,9.92,0,0,1,9.9,9.9h0A9.86,9.86,0,0,1,180,218.5Z"/><text class="cls-7" transform="translate(132.13 211.97)">Nic<tspan class="cls-9" x="15.87" y="0">k</tspan><tspan x="21.3" y="0">el</tspan></text><path class="cls-10" d="M89.3,218.5H24.1a9.92,9.92,0,0,1-9.9-9.9h0a9.92,9.92,0,0,1,9.9-9.9H89.3a9.92,9.92,0,0,1,9.9,9.9h0A9.86,9.86,0,0,1,89.3,218.5Z"/><text class="cls-7" transform="translate(46.56 211.97)">I<tspan class="cls-2" x="3.2" y="0">r</tspan><tspan x="7.32" y="0">on</tspan></text><path class="cls-16" d="M361.5,218.5H296.3a9.92,9.92,0,0,1-9.9-9.9h0a9.92,9.92,0,0,1,9.9-9.9h65.2a9.92,9.92,0,0,1,9.9,9.9h0A10,10,0,0,1,361.5,218.5Z"/><text class="cls-7" transform="translate(295.29 211.97)">Molybdenum</text><path class="cls-17" d="M452.2,218.5H387a9.92,9.92,0,0,1-9.9-9.9h0a9.92,9.92,0,0,1,9.9-9.9h65.2a9.92,9.92,0,0,1,9.9,9.9h0A10,10,0,0,1,452.2,218.5Z"/><text class="cls-7" transform="translate(397.62 211.97)">Nit<tspan class="cls-2" x="15.01" y="0">r</tspan><tspan x="19.13" y="0">o</tspan><tspan class="cls-18" x="25.58" y="0">g</tspan><tspan x="31.14" y="0">en</tspan></text><text class="cls-11" transform="translate(17.03 241.71)">In<tspan class="cls-12" x="14.46" y="0">c</tspan><tspan x="21.9" y="0">ol</tspan><tspan class="cls-4" x="36" y="0">o</tspan><tspan x="45.57" y="0">y 25-6HN</tspan></text></svg>