<svg id="图层_1" data-name="图层 1" xmlns="http://www.w3.org/2000/svg" viewBox="0 0 566.9 1524.11"><defs><style>.cls-1,.cls-10,.cls-11,.cls-15,.cls-24,.cls-28,.cls-7,.cls-9{isolation:isolate;}.cls-1{font-size:30px;fill:#666;}.cls-1,.cls-11,.cls-15,.cls-24,.cls-28,.cls-7,.cls-9{font-family:Calibri-Bold, Calibri;font-weight:700;}.cls-2{letter-spacing:-0.03em;}.cls-3{letter-spacing:-0.02em;}.cls-4{letter-spacing:-0.01em;}.cls-5{letter-spacing:-0.01em;}.cls-6{fill:#32558e;}.cls-7{font-size:12px;fill:#fff;}.cls-8{fill:#d5ad71;}.cls-11,.cls-15,.cls-24,.cls-28,.cls-9{font-size:18px;}.cls-11,.cls-9{fill:#8d7f62;}.cls-11{letter-spacing:-0.02em;}.cls-12{fill:#fba971;}.cls-13{letter-spacing:-0.01em;}.cls-14{fill:#aaa;}.cls-15{fill:#936b51;}.cls-16{letter-spacing:0em;}.cls-17{letter-spacing:-0.03em;}.cls-18{fill:#7fb285;}.cls-19{fill:#b7c8b5;}.cls-20{fill:#544343;}.cls-21{letter-spacing:-0.05em;}.cls-22{letter-spacing:-0.01em;}.cls-23{fill:#b9314f;}.cls-24{fill:#736c6d;}.cls-25{fill:#e83719;}.cls-26{fill:#3b8ea5;}.cls-27{letter-spacing:-0.01em;}.cls-28{fill:#7c7f74;}</style></defs><title>nickel</title><text class="cls-1" transform="translate(129.08 47.15)">Nic<tspan class="cls-2" x="39.68" y="0">k</tspan><tspan x="53.26" y="0">el-based Supe</tspan><tspan class="cls-3" x="227.26" y="0">r</tspan><tspan x="237.26" y="0">all</tspan><tspan class="cls-4" x="266.81" y="0">o</tspan><tspan class="cls-5" x="282.76" y="0">y</tspan><tspan x="296.78" y="0">s</tspan></text><rect class="cls-6" x="14.18" y="71.8" width="85.04" height="19.84" rx="9.92"/><text class="cls-7" transform="translate(41.55 85.09)">Nic<tspan class="cls-2" x="15.87" y="0">k</tspan><tspan x="21.3" y="0">el</tspan></text><rect class="cls-8" x="104.89" y="71.8" width="85.04" height="19.84" rx="9.92"/><text class="cls-7" transform="translate(129.41 85.09)">Copper</text><text class="cls-9" transform="translate(17.01 114.83)">Monel 400</text><g class="cls-10"><text class="cls-9" transform="translate(17.01 138.63)">Monel </text><text class="cls-11" transform="translate(69.63 138.63)">K</text><text class="cls-9" transform="translate(79.12 138.63)">-500</text></g><text class="cls-9" transform="translate(340.01 114.83)">Monel R-405</text><text class="cls-9" transform="translate(134.68 114.83)">Monel 401</text><text class="cls-9" transform="translate(134.68 138.63)">Monel 502</text><text class="cls-9" transform="translate(237.35 114.83)">Monel 404</text><rect class="cls-12" x="104.89" y="246.39" width="85.04" height="19.84" rx="9.92"/><text class="cls-7" transform="translate(121.27 259.68)">Ch<tspan class="cls-13" x="12.79" y="0">r</tspan><tspan x="16.91" y="0">omium</tspan></text><rect class="cls-6" x="14.18" y="246.39" width="85.04" height="19.84" rx="9.92"/><text class="cls-7" transform="translate(41.55 259.68)">Nic<tspan class="cls-2" x="15.87" y="0">k</tspan><tspan x="21.3" y="0">el</tspan></text><rect class="cls-14" x="195.6" y="246.39" width="85.04" height="19.84" rx="9.92"/><text class="cls-7" transform="translate(228.01 259.68)">I<tspan class="cls-13" x="3.2" y="0">r</tspan><tspan x="7.32" y="0">on</tspan></text><text class="cls-15" transform="translate(17.01 289.42)">In<tspan class="cls-16" x="14.46" y="0">c</tspan><tspan x="21.9" y="0">onel 600</tspan></text><text class="cls-15" transform="translate(17.01 313.23)">In<tspan class="cls-16" x="14.46" y="0">c</tspan><tspan x="21.9" y="0">onel 693</tspan></text><text class="cls-15" transform="translate(125.85 289.42)">In<tspan class="cls-16" x="14.46" y="0">c</tspan><tspan x="21.9" y="0">onel 601</tspan></text><text class="cls-15" transform="translate(234.69 289.42)">In<tspan class="cls-16" x="14.46" y="0">c</tspan><tspan x="21.9" y="0">onel 601GC</tspan></text><text class="cls-15" transform="translate(364.52 289.42)">In<tspan class="cls-16" x="14.46" y="0">c</tspan><tspan x="21.9" y="0">onel 690</tspan></text><rect class="cls-6" x="14.18" y="159.09" width="85.04" height="19.84" rx="9.92"/><text class="cls-7" transform="translate(41.55 172.38)">Nic<tspan class="cls-2" x="15.87" y="0">k</tspan><tspan x="21.3" y="0">el</tspan></text><rect class="cls-12" x="104.89" y="159.09" width="85.04" height="19.84" rx="9.92"/><text class="cls-7" transform="translate(121.27 172.38)">Ch<tspan class="cls-13" x="12.79" y="0">r</tspan><tspan x="16.91" y="0">omium</tspan></text><text class="cls-15" transform="translate(17.01 202.12)">In<tspan class="cls-16" x="14.46" y="0">c</tspan><tspan x="21.9" y="0">onel 603XL</tspan></text><text class="cls-15" transform="translate(17.01 225.93)">In<tspan class="cls-16" x="14.46" y="0">c</tspan><tspan x="21.9" y="0">onel MA758</tspan></text><text class="cls-15" transform="translate(152.49 202.12)">In<tspan class="cls-16" x="14.46" y="0">c</tspan><tspan x="21.9" y="0">onel </tspan><tspan class="cls-17" x="58.79" y="0">X</tspan><tspan x="68.13" y="0">-750</tspan></text><text class="cls-15" transform="translate(276.18 202.12)">In<tspan class="cls-16" x="14.46" y="0">c</tspan><tspan x="21.9" y="0">onel 751</tspan></text><text class="cls-15" transform="translate(385.01 202.12)">In<tspan class="cls-16" x="14.46" y="0">c</tspan><tspan x="21.9" y="0">onel MA754</tspan></text><rect class="cls-6" x="14.18" y="865.41" width="85.04" height="19.84" rx="9.92"/><text class="cls-7" transform="translate(41.55 878.7)">Nic<tspan class="cls-2" x="15.87" y="0">k</tspan><tspan x="21.3" y="0">el</tspan></text><rect class="cls-12" x="104.89" y="865.41" width="85.04" height="19.84" rx="9.92"/><text class="cls-7" transform="translate(121.27 878.7)">Ch<tspan class="cls-13" x="12.79" y="0">r</tspan><tspan x="16.91" y="0">omium</tspan></text><rect class="cls-18" x="195.6" y="865.41" width="85.04" height="19.84" rx="9.92"/><text class="cls-7" transform="translate(221.98 878.7)">Cobalt</text><rect class="cls-19" x="286.3" y="865.41" width="85.04" height="19.84" rx="9.92"/><text class="cls-7" transform="translate(295.26 878.7)">Molybdenum</text><text class="cls-15" transform="translate(17.01 908.44)">In<tspan class="cls-16" x="14.46" y="0">c</tspan><tspan x="21.9" y="0">onel 617</tspan></text><rect class="cls-12" x="104.89" y="738.43" width="85.04" height="19.84" rx="9.92"/><text class="cls-7" transform="translate(121.27 751.72)">Ch<tspan class="cls-13" x="12.79" y="0">r</tspan><tspan x="16.91" y="0">omium</tspan></text><rect class="cls-6" x="14.18" y="738.43" width="85.04" height="19.84" rx="9.92"/><text class="cls-7" transform="translate(41.55 751.72)">Nic<tspan class="cls-2" x="15.87" y="0">k</tspan><tspan x="21.3" y="0">el</tspan></text><rect class="cls-19" x="195.6" y="738.43" width="85.04" height="19.84" rx="9.92"/><text class="cls-7" transform="translate(204.55 751.72)">Molybdenum</text><rect class="cls-20" x="286.3" y="738.43" width="85.04" height="19.84" rx="9.92"/><text class="cls-7" transform="translate(306.3 751.72)"><tspan class="cls-21">T</tspan><tspan x="5.33" y="0">ung</tspan><tspan class="cls-22" x="23.89" y="0">s</tspan><tspan class="cls-13" x="28.55" y="0">t</tspan><tspan x="32.56" y="0">en</tspan></text><text class="cls-15" transform="translate(17.01 781.46)">In<tspan class="cls-16" x="14.46" y="0">c</tspan><tspan x="21.9" y="0">onel 686</tspan></text><text class="cls-15" transform="translate(17.01 717.97)">In<tspan class="cls-16" x="14.46" y="0">c</tspan><tspan x="21.9" y="0">onel 625</tspan></text><text class="cls-15" transform="translate(125.85 717.97)">In<tspan class="cls-16" x="14.46" y="0">c</tspan><tspan x="21.9" y="0">onel 625</tspan><tspan class="cls-13" x="86.16" y="0">L</tspan><tspan x="93.55" y="0">CF</tspan></text><text class="cls-15" transform="translate(259.87 717.97)">In<tspan class="cls-16" x="14.46" y="0">c</tspan><tspan x="21.9" y="0">onel 725</tspan></text><rect class="cls-12" x="104.89" y="674.94" width="85.04" height="19.84" rx="9.92"/><text class="cls-7" transform="translate(121.27 688.23)">Ch<tspan class="cls-13" x="12.79" y="0">r</tspan><tspan x="16.91" y="0">omium</tspan></text><rect class="cls-6" x="14.18" y="674.94" width="85.04" height="19.84" rx="9.92"/><text class="cls-7" transform="translate(41.55 688.23)">Nic<tspan class="cls-2" x="15.87" y="0">k</tspan><tspan x="21.3" y="0">el</tspan></text><rect class="cls-19" x="195.6" y="674.94" width="85.04" height="19.84" rx="9.92"/><text class="cls-7" transform="translate(204.55 688.23)">Molybdenum</text><path class="cls-23" d="M361.4,694.76H296.2a9.92,9.92,0,0,1-9.9-9.9h0a9.92,9.92,0,0,1,9.9-9.9h65.2a9.92,9.92,0,0,1,9.9,9.9h0A9.92,9.92,0,0,1,361.4,694.76Z"/><text class="cls-7" transform="translate(307.38 688.22)">Niobium</text><text class="cls-15" transform="translate(17.01 503.7)">In<tspan class="cls-16" x="14.46" y="0">c</tspan><tspan x="21.9" y="0">onel 718</tspan></text><text class="cls-15" transform="translate(125.85 503.7)">In<tspan class="cls-16" x="14.46" y="0">c</tspan><tspan x="21.9" y="0">onel 718SPF</tspan></text><rect class="cls-12" x="104.89" y="460.66" width="85.04" height="19.84" rx="9.92"/><text class="cls-7" transform="translate(121.27 473.95)">Ch<tspan class="cls-13" x="12.79" y="0">r</tspan><tspan x="16.91" y="0">omium</tspan></text><rect class="cls-6" x="14.18" y="460.66" width="85.04" height="19.84" rx="9.92"/><text class="cls-7" transform="translate(41.55 473.95)">Nic<tspan class="cls-2" x="15.87" y="0">k</tspan><tspan x="21.3" y="0">el</tspan></text><path class="cls-23" d="M361.4,480.48H296.2a9.92,9.92,0,0,1-9.9-9.9h0a9.92,9.92,0,0,1,9.9-9.9h65.2a9.92,9.92,0,0,1,9.9,9.9h0A9.92,9.92,0,0,1,361.4,480.48Z"/><text class="cls-7" transform="translate(307.38 473.94)">Niobium</text><rect class="cls-14" x="195.6" y="460.66" width="85.04" height="19.84" rx="9.92"/><text class="cls-7" transform="translate(228.01 473.95)">I<tspan class="cls-13" x="3.2" y="0">r</tspan><tspan x="7.32" y="0">on</tspan></text><rect class="cls-6" x="14.18" y="801.92" width="85.04" height="19.84" rx="9.92"/><text class="cls-7" transform="translate(41.55 815.21)">Nic<tspan class="cls-2" x="15.87" y="0">k</tspan><tspan x="21.3" y="0">el</tspan></text><rect class="cls-12" x="104.89" y="801.92" width="85.04" height="19.84" rx="9.92"/><text class="cls-7" transform="translate(121.27 815.21)">Ch<tspan class="cls-13" x="12.79" y="0">r</tspan><tspan x="16.91" y="0">omium</tspan></text><rect class="cls-18" x="195.6" y="801.92" width="85.04" height="19.84" rx="9.92"/><text class="cls-7" transform="translate(221.98 815.21)">Cobalt</text><text class="cls-15" transform="translate(17.01 844.95)">In<tspan class="cls-16" x="14.46" y="0">c</tspan><tspan x="21.9" y="0">onel 740H</tspan></text><rect class="cls-12" x="195.6" y="992.39" width="85.04" height="19.84" rx="9.92"/><text class="cls-7" transform="translate(211.98 1005.68)">Ch<tspan class="cls-13" x="12.79" y="0">r</tspan><tspan x="16.91" y="0">omium</tspan></text><rect class="cls-6" x="14.18" y="992.39" width="85.04" height="19.84" rx="9.92"/><text class="cls-7" transform="translate(41.55 1005.68)">Nic<tspan class="cls-2" x="15.87" y="0">k</tspan><tspan x="21.3" y="0">el</tspan></text><rect class="cls-14" x="104.89" y="992.39" width="85.04" height="19.84" rx="9.92"/><text class="cls-7" transform="translate(137.3 1005.68)">I<tspan class="cls-13" x="3.2" y="0">r</tspan><tspan x="7.32" y="0">on</tspan></text><text class="cls-15" transform="translate(17.01 1035.42)">In<tspan class="cls-16" x="14.46" y="0">c</tspan><tspan x="21.9" y="0">onel 706</tspan></text><text class="cls-24" transform="translate(17.01 1059.23)">In<tspan class="cls-16" x="14.46" y="0">c</tspan><tspan x="21.9" y="0">ol</tspan><tspan class="cls-4" x="36" y="0">o</tspan><tspan x="45.57" y="0">y 890</tspan></text><text class="cls-24" transform="translate(125.85 1035.42)">In<tspan class="cls-16" x="14.46" y="0">c</tspan><tspan x="21.9" y="0">ol</tspan><tspan class="cls-4" x="36" y="0">o</tspan><tspan x="45.57" y="0">y 800</tspan></text><text class="cls-24" transform="translate(125.85 1059.23)">In<tspan class="cls-16" x="14.46" y="0">c</tspan><tspan x="21.9" y="0">ol</tspan><tspan class="cls-4" x="36" y="0">o</tspan><tspan x="45.57" y="0">y 925</tspan></text><text class="cls-24" transform="translate(234.06 1059.23)">In<tspan class="cls-16" x="14.46" y="0">c</tspan><tspan x="21.9" y="0">ol</tspan><tspan class="cls-4" x="36" y="0">o</tspan><tspan x="45.57" y="0">y 945</tspan></text><text class="cls-24" transform="translate(234.06 1035.42)">In<tspan class="cls-16" x="14.46" y="0">c</tspan><tspan x="21.9" y="0">ol</tspan><tspan class="cls-4" x="36" y="0">o</tspan><tspan x="45.57" y="0">y 800H</tspan></text><text class="cls-24" transform="translate(353.63 1059.23)">In<tspan class="cls-16" x="14.46" y="0">c</tspan><tspan x="21.9" y="0">ol</tspan><tspan class="cls-4" x="36" y="0">o</tspan><tspan x="45.57" y="0">y 945X</tspan></text><text class="cls-24" transform="translate(353.63 1035.42)">In<tspan class="cls-16" x="14.46" y="0">c</tspan><tspan x="21.9" y="0">ol</tspan><tspan class="cls-4" x="36" y="0">o</tspan><tspan x="45.57" y="0">y 800HT</tspan></text><rect class="cls-18" x="195.6" y="1270.15" width="85.04" height="19.84" rx="9.92"/><text class="cls-7" transform="translate(221.98 1283.44)">Cobalt</text><rect class="cls-6" x="14.18" y="1270.15" width="85.04" height="19.84" rx="9.92"/><text class="cls-7" transform="translate(41.55 1283.44)">Nic<tspan class="cls-2" x="15.87" y="0">k</tspan><tspan x="21.3" y="0">el</tspan></text><rect class="cls-14" x="104.89" y="1270.15" width="85.04" height="19.84" rx="9.92"/><text class="cls-7" transform="translate(137.3 1283.44)">I<tspan class="cls-13" x="3.2" y="0">r</tspan><tspan x="7.32" y="0">on</tspan></text><text class="cls-24" transform="translate(17.01 1313.19)">In<tspan class="cls-16" x="14.46" y="0">c</tspan><tspan x="21.9" y="0">ol</tspan><tspan class="cls-4" x="36" y="0">o</tspan><tspan x="45.57" y="0">y 903</tspan></text><text class="cls-24" transform="translate(125.23 1313.19)">In<tspan class="cls-16" x="14.46" y="0">c</tspan><tspan x="21.9" y="0">ol</tspan><tspan class="cls-4" x="36" y="0">o</tspan><tspan x="45.57" y="0">y 907</tspan></text><text class="cls-24" transform="translate(233.44 1313.19)">In<tspan class="cls-16" x="14.46" y="0">c</tspan><tspan x="21.9" y="0">ol</tspan><tspan class="cls-4" x="36" y="0">o</tspan><tspan x="45.57" y="0">y 909</tspan></text><rect class="cls-6" x="14.18" y="928.9" width="85.04" height="19.84" rx="9.92"/><text class="cls-7" transform="translate(41.55 942.19)">Nic<tspan class="cls-2" x="15.87" y="0">k</tspan><tspan x="21.3" y="0">el</tspan></text><rect class="cls-14" x="104.89" y="928.9" width="85.04" height="19.84" rx="9.92"/><text class="cls-7" transform="translate(137.3 942.19)">I<tspan class="cls-13" x="3.2" y="0">r</tspan><tspan x="7.32" y="0">on</tspan></text><text class="cls-24" transform="translate(17.01 971.93)">In<tspan class="cls-16" x="14.46" y="0">c</tspan><tspan x="21.9" y="0">ol</tspan><tspan class="cls-4" x="36" y="0">o</tspan><tspan x="45.57" y="0">y 908</tspan></text><text class="cls-24" transform="translate(17.01 1122.72)">In<tspan class="cls-16" x="14.46" y="0">c</tspan><tspan x="21.9" y="0">ol</tspan><tspan class="cls-4" x="36" y="0">o</tspan><tspan x="45.57" y="0">y 825</tspan></text><rect class="cls-12" x="195.6" y="1079.68" width="85.04" height="19.84" rx="9.92"/><text class="cls-7" transform="translate(211.98 1092.97)">Ch<tspan class="cls-13" x="12.79" y="0">r</tspan><tspan x="16.91" y="0">omium</tspan></text><rect class="cls-6" x="14.18" y="1079.68" width="85.04" height="19.84" rx="9.92"/><text class="cls-7" transform="translate(41.55 1092.97)">Nic<tspan class="cls-2" x="15.87" y="0">k</tspan><tspan x="21.3" y="0">el</tspan></text><rect class="cls-14" x="104.89" y="1079.68" width="85.04" height="19.84" rx="9.92"/><text class="cls-7" transform="translate(137.3 1092.97)">I<tspan class="cls-13" x="3.2" y="0">r</tspan><tspan x="7.32" y="0">on</tspan></text><rect class="cls-19" x="286.3" y="1079.68" width="85.04" height="19.84" rx="9.92"/><text class="cls-7" transform="translate(295.26 1092.97)">Molybdenum</text><rect class="cls-8" x="377.01" y="1079.68" width="85.04" height="19.84" rx="9.92"/><text class="cls-7" transform="translate(401.54 1092.97)">Copper</text><text class="cls-24" transform="translate(17.01 1249.7)">In<tspan class="cls-16" x="14.46" y="0">c</tspan><tspan x="21.9" y="0">ol</tspan><tspan class="cls-4" x="36" y="0">o</tspan><tspan x="45.57" y="0">y 330</tspan></text><rect class="cls-12" x="195.6" y="1206.66" width="85.04" height="19.84" rx="9.92"/><text class="cls-7" transform="translate(211.98 1219.95)">Ch<tspan class="cls-13" x="12.79" y="0">r</tspan><tspan x="16.91" y="0">omium</tspan></text><rect class="cls-6" x="14.18" y="1206.66" width="85.04" height="19.84" rx="9.92"/><text class="cls-7" transform="translate(41.55 1219.95)">Nic<tspan class="cls-2" x="15.87" y="0">k</tspan><tspan x="21.3" y="0">el</tspan></text><rect class="cls-14" x="104.89" y="1206.66" width="85.04" height="19.84" rx="9.92"/><text class="cls-7" transform="translate(137.3 1219.95)">I<tspan class="cls-13" x="3.2" y="0">r</tspan><tspan x="7.32" y="0">on</tspan></text><rect class="cls-25" x="286.3" y="1206.66" width="85.04" height="19.84" rx="9.92"/><text class="cls-7" transform="translate(312.64 1219.95)">Sili<tspan class="cls-16" x="14.51" y="0">c</tspan><tspan x="19.48" y="0">on</tspan></text><text class="cls-24" transform="translate(17.01 1186.21)">In<tspan class="cls-16" x="14.46" y="0">c</tspan><tspan x="21.9" y="0">ol</tspan><tspan class="cls-4" x="36" y="0">o</tspan><tspan x="45.57" y="0">y 926</tspan></text><rect class="cls-12" x="195.6" y="1143.17" width="85.04" height="19.84" rx="9.92"/><text class="cls-7" transform="translate(211.98 1156.46)">Ch<tspan class="cls-13" x="12.79" y="0">r</tspan><tspan x="16.91" y="0">omium</tspan></text><rect class="cls-6" x="14.18" y="1143.17" width="85.04" height="19.84" rx="9.92"/><text class="cls-7" transform="translate(41.55 1156.46)">Nic<tspan class="cls-2" x="15.87" y="0">k</tspan><tspan x="21.3" y="0">el</tspan></text><rect class="cls-14" x="104.89" y="1143.17" width="85.04" height="19.84" rx="9.92"/><text class="cls-7" transform="translate(137.3 1156.46)">I<tspan class="cls-13" x="3.2" y="0">r</tspan><tspan x="7.32" y="0">on</tspan></text><rect class="cls-19" x="286.3" y="1143.17" width="85.04" height="19.84" rx="9.92"/><text class="cls-7" transform="translate(295.26 1156.46)">Molybdenum</text><rect class="cls-8" x="377.01" y="1143.17" width="85.04" height="19.84" rx="9.92"/><text class="cls-7" transform="translate(401.54 1156.46)">Copper</text><path class="cls-26" d="M542.82,1163h-65.2a9.92,9.92,0,0,1-9.9-9.9h0a9.92,9.92,0,0,1,9.9-9.9h65.2a9.92,9.92,0,0,1,9.9,9.9h0A10,10,0,0,1,542.82,1163Z"/><text class="cls-7" transform="translate(488.24 1156.43)">Nit<tspan class="cls-13" x="15.01" y="0">r</tspan><tspan x="19.13" y="0">o</tspan><tspan class="cls-27" x="25.58" y="0">g</tspan><tspan x="31.14" y="0">en</tspan></text><rect class="cls-6" x="14.18" y="1333.64" width="85.04" height="19.84" rx="9.92"/><text class="cls-7" transform="translate(41.55 1346.93)">Nic<tspan class="cls-2" x="15.87" y="0">k</tspan><tspan x="21.3" y="0">el</tspan></text><rect class="cls-19" x="104.89" y="1333.64" width="85.04" height="19.84" rx="9.92"/><text class="cls-7" transform="translate(113.84 1346.93)">Molybdenum</text><text class="cls-28" transform="translate(17.01 1376.68)">Ha<tspan class="cls-22" x="20.24" y="0">s</tspan><tspan class="cls-13" x="27.22" y="0">t</tspan><tspan x="33.24" y="0">ell</tspan><tspan class="cls-4" x="51.14" y="0">o</tspan><tspan x="60.71" y="0">y B</tspan></text><text class="cls-28" transform="translate(123.09 1376.68)">Ha<tspan class="cls-22" x="20.24" y="0">s</tspan><tspan class="cls-13" x="27.22" y="0">t</tspan><tspan x="33.24" y="0">ell</tspan><tspan class="cls-4" x="51.14" y="0">o</tspan><tspan x="60.71" y="0">y B-2</tspan></text><text class="cls-28" transform="translate(243.8 1376.68)">Ha<tspan class="cls-22" x="20.24" y="0">s</tspan><tspan class="cls-13" x="27.22" y="0">t</tspan><tspan x="33.24" y="0">ell</tspan><tspan class="cls-4" x="51.14" y="0">o</tspan><tspan x="60.71" y="0">y B-3</tspan></text><rect class="cls-14" x="286.3" y="1397.13" width="85.04" height="19.84" rx="9.92"/><text class="cls-7" transform="translate(318.72 1410.42)">I<tspan class="cls-13" x="3.2" y="0">r</tspan><tspan x="7.32" y="0">on</tspan></text><rect class="cls-12" x="195.6" y="1397.13" width="85.04" height="19.84" rx="9.92"/><text class="cls-7" transform="translate(211.98 1410.42)">Ch<tspan class="cls-13" x="12.79" y="0">r</tspan><tspan x="16.91" y="0">omium</tspan></text><rect class="cls-6" x="14.18" y="1397.13" width="85.04" height="19.84" rx="9.92"/><text class="cls-7" transform="translate(41.55 1410.42)">Nic<tspan class="cls-2" x="15.87" y="0">k</tspan><tspan x="21.3" y="0">el</tspan></text><rect class="cls-19" x="104.89" y="1397.13" width="85.04" height="19.84" rx="9.92"/><text class="cls-7" transform="translate(113.84 1410.42)">Molybdenum</text><text class="cls-28" transform="translate(17.01 1440.17)">Ha<tspan class="cls-22" x="20.24" y="0">s</tspan><tspan class="cls-13" x="27.22" y="0">t</tspan><tspan x="33.24" y="0">ell</tspan><tspan class="cls-4" x="51.14" y="0">o</tspan><tspan x="60.71" y="0">y N</tspan></text><rect class="cls-14" x="195.6" y="1460.62" width="85.04" height="19.84" rx="9.92"/><text class="cls-7" transform="translate(228.01 1473.91)">I<tspan class="cls-13" x="3.2" y="0">r</tspan><tspan x="7.32" y="0">on</tspan></text><rect class="cls-12" x="286.3" y="1460.62" width="85.04" height="19.84" rx="9.92"/><text class="cls-7" transform="translate(302.69 1473.91)">Ch<tspan class="cls-13" x="12.79" y="0">r</tspan><tspan x="16.91" y="0">omium</tspan></text><rect class="cls-6" x="14.18" y="1460.62" width="85.04" height="19.84" rx="9.92"/><text class="cls-7" transform="translate(41.55 1473.91)">Nic<tspan class="cls-2" x="15.87" y="0">k</tspan><tspan x="21.3" y="0">el</tspan></text><rect class="cls-19" x="104.89" y="1460.62" width="85.04" height="19.84" rx="9.92"/><text class="cls-7" transform="translate(113.84 1473.91)">Molybdenum</text><text class="cls-28" transform="translate(17.01 1503.66)">Ha<tspan class="cls-22" x="20.24" y="0">s</tspan><tspan class="cls-13" x="27.22" y="0">t</tspan><tspan x="33.24" y="0">ell</tspan><tspan class="cls-4" x="51.14" y="0">o</tspan><tspan x="60.71" y="0">y W</tspan></text><rect class="cls-14" x="195.6" y="333.68" width="85.04" height="19.84" rx="9.92"/><text class="cls-7" transform="translate(228.01 346.97)">I<tspan class="cls-13" x="3.2" y="0">r</tspan><tspan x="7.32" y="0">on</tspan></text><rect class="cls-12" x="104.89" y="333.68" width="85.04" height="19.84" rx="9.92"/><text class="cls-7" transform="translate(121.27 346.97)">Ch<tspan class="cls-13" x="12.79" y="0">r</tspan><tspan x="16.91" y="0">omium</tspan></text><rect class="cls-6" x="14.18" y="333.68" width="85.04" height="19.84" rx="9.92"/><text class="cls-7" transform="translate(41.55 346.97)">Nic<tspan class="cls-2" x="15.87" y="0">k</tspan><tspan x="21.3" y="0">el</tspan></text><rect class="cls-19" x="286.3" y="333.68" width="85.04" height="19.84" rx="9.92"/><text class="cls-7" transform="translate(295.26 346.97)">Molybdenum</text><text class="cls-28" transform="translate(17.01 376.72)">Ha<tspan class="cls-22" x="20.24" y="0">s</tspan><tspan class="cls-13" x="27.22" y="0">t</tspan><tspan x="33.24" y="0">ell</tspan><tspan class="cls-4" x="51.14" y="0">o</tspan><tspan x="60.71" y="0">y W</tspan></text><rect class="cls-12" x="104.89" y="524.15" width="85.04" height="19.84" rx="9.92"/><text class="cls-7" transform="translate(121.27 537.44)">Ch<tspan class="cls-13" x="12.79" y="0">r</tspan><tspan x="16.91" y="0">omium</tspan></text><rect class="cls-19" x="195.6" y="524.15" width="85.04" height="19.84" rx="9.92"/><text class="cls-7" transform="translate(204.55 537.44)">Molybdenum</text><rect class="cls-6" x="14.18" y="524.15" width="85.04" height="19.84" rx="9.92"/><text class="cls-7" transform="translate(41.55 537.44)">Nic<tspan class="cls-2" x="15.87" y="0">k</tspan><tspan x="21.3" y="0">el</tspan></text><text class="cls-28" transform="translate(17.01 567.19)">Ha<tspan class="cls-22" x="20.24" y="0">s</tspan><tspan class="cls-13" x="27.22" y="0">t</tspan><tspan x="33.24" y="0">ell</tspan><tspan class="cls-4" x="51.14" y="0">o</tspan><tspan x="60.71" y="0">y C-4</tspan></text><text class="cls-28" transform="translate(17.01 590.99)">Ha<tspan class="cls-22" x="20.24" y="0">s</tspan><tspan class="cls-13" x="27.22" y="0">t</tspan><tspan x="33.24" y="0">ell</tspan><tspan class="cls-4" x="51.14" y="0">o</tspan><tspan x="60.71" y="0">y G-35</tspan></text><text class="cls-28" transform="translate(148.23 590.99)">Ha<tspan class="cls-22" x="20.24" y="0">s</tspan><tspan class="cls-13" x="27.22" y="0">t</tspan><tspan x="33.24" y="0">ell</tspan><tspan class="cls-4" x="51.14" y="0">o</tspan><tspan x="60.71" y="0">y S</tspan></text><text class="cls-28" transform="translate(148.23 567.19)">Ha<tspan class="cls-22" x="20.24" y="0">s</tspan><tspan class="cls-13" x="27.22" y="0">t</tspan><tspan x="33.24" y="0">ell</tspan><tspan class="cls-4" x="51.14" y="0">o</tspan><tspan x="60.71" y="0">y C-22</tspan></text><text class="cls-28" transform="translate(277.5 567.19)">Ha<tspan class="cls-22" x="20.24" y="0">s</tspan><tspan class="cls-13" x="27.22" y="0">t</tspan><tspan x="33.24" y="0">ell</tspan><tspan class="cls-4" x="51.14" y="0">o</tspan><tspan x="60.71" y="0">y C-22HS</tspan></text><text class="cls-28" transform="translate(426.63 567.19)">Ha<tspan class="cls-22" x="20.24" y="0">s</tspan><tspan class="cls-13" x="27.22" y="0">t</tspan><tspan x="33.24" y="0">ell</tspan><tspan class="cls-4" x="51.14" y="0">o</tspan><tspan x="60.71" y="0">y C-276</tspan></text><text class="cls-28" transform="translate(17.01 654.48)">Ha<tspan class="cls-22" x="20.24" y="0">s</tspan><tspan class="cls-13" x="27.22" y="0">t</tspan><tspan x="33.24" y="0">ell</tspan><tspan class="cls-4" x="51.14" y="0">o</tspan><tspan x="60.71" y="0">y C-2000</tspan></text><rect class="cls-12" x="104.89" y="611.45" width="85.04" height="19.84" rx="9.92"/><text class="cls-7" transform="translate(121.27 624.74)">Ch<tspan class="cls-13" x="12.79" y="0">r</tspan><tspan x="16.91" y="0">omium</tspan></text><rect class="cls-19" x="195.6" y="611.45" width="85.04" height="19.84" rx="9.92"/><text class="cls-7" transform="translate(204.55 624.74)">Molybdenum</text><rect class="cls-6" x="14.18" y="611.45" width="85.04" height="19.84" rx="9.92"/><text class="cls-7" transform="translate(41.55 624.74)">Nic<tspan class="cls-2" x="15.87" y="0">k</tspan><tspan x="21.3" y="0">el</tspan></text><rect class="cls-8" x="286.3" y="611.45" width="85.04" height="19.84" rx="9.92"/><text class="cls-7" transform="translate(310.83 624.74)">Copper</text><rect class="cls-12" x="104.89" y="397.17" width="85.04" height="19.84" rx="9.92"/><text class="cls-7" transform="translate(121.27 410.46)">Ch<tspan class="cls-13" x="12.79" y="0">r</tspan><tspan x="16.91" y="0">omium</tspan></text><rect class="cls-6" x="14.18" y="397.17" width="85.04" height="19.84" rx="9.92"/><text class="cls-7" transform="translate(41.55 410.46)">Nic<tspan class="cls-2" x="15.87" y="0">k</tspan><tspan x="21.3" y="0">el</tspan></text><rect class="cls-14" x="195.6" y="397.17" width="85.04" height="19.84" rx="9.92"/><text class="cls-7" transform="translate(228.01 410.46)">I<tspan class="cls-13" x="3.2" y="0">r</tspan><tspan x="7.32" y="0">on</tspan></text><rect class="cls-19" x="286.3" y="397.17" width="85.04" height="19.84" rx="9.92"/><text class="cls-7" transform="translate(295.26 410.46)">Molybdenum</text><rect class="cls-8" x="377.01" y="397.17" width="85.04" height="19.84" rx="9.92"/><text class="cls-7" transform="translate(401.54 410.46)">Copper</text><text class="cls-28" transform="translate(17.01 440.21)">Ha<tspan class="cls-22" x="20.24" y="0">s</tspan><tspan class="cls-13" x="27.22" y="0">t</tspan><tspan x="33.24" y="0">ell</tspan><tspan class="cls-4" x="51.14" y="0">o</tspan><tspan x="60.71" y="0">y G-3</tspan></text><text class="cls-28" transform="translate(139.1 440.21)">Ha<tspan class="cls-22" x="20.24" y="0">s</tspan><tspan class="cls-13" x="27.22" y="0">t</tspan><tspan x="33.24" y="0">ell</tspan><tspan class="cls-4" x="51.14" y="0">o</tspan><tspan x="60.71" y="0">y G-30</tspan></text></svg>