<svg id="图层_1" data-name="图层 1" xmlns="http://www.w3.org/2000/svg" viewBox="0 0 566.9 359.9"><defs><style>.cls-1,.cls-6{fill:#666;}.cls-2,.cls-3,.cls-4,.cls-5,.cls-6{isolation:isolate;font-family:Calibri-Bold, Calibri;font-weight:700;}.cls-2,.cls-3,.cls-4,.cls-5{font-size:18px;}.cls-2{fill:#8d7f62;}.cls-3{fill:#936b51;}.cls-4{fill:#736c6d;}.cls-5{fill:#7c7f74;}.cls-6{font-size:25px;}.cls-7{letter-spacing:-0.01em;}.cls-8{letter-spacing:-0.01em;}.cls-9{letter-spacing:-0.01em;}.cls-10{letter-spacing:-0.01em;}.cls-11{letter-spacing:-0.02em;}.cls-12{letter-spacing:-0.01em;}.cls-13{letter-spacing:-0.01em;}</style></defs><title>precipitation</title><circle class="cls-1" cx="272.4" cy="38.3" r="10.7"/><circle class="cls-1" cx="294.5" cy="60.4" r="10.7"/><path class="cls-1" d="M300.5,47.4H288.9a3.33,3.33,0,0,1-3.3-3.3V32.6a3.33,3.33,0,0,1,3.3-3.3h11.6a3.33,3.33,0,0,1,3.3,3.3V44.2A3.24,3.24,0,0,1,300.5,47.4Z"/><path class="cls-1" d="M278,69.7H266.5a3.33,3.33,0,0,1-3.3-3.3V54.8a3.33,3.33,0,0,1,3.3-3.3h11.6a3.33,3.33,0,0,1,3.3,3.3V66.4A3.35,3.35,0,0,1,278,69.7Z"/><text class="cls-2" transform="translate(165.67 175.06)">Monel 502</text><text class="cls-2" transform="translate(42.34 175.06)">Monel</text><text class="cls-2" transform="translate(94.96 175.06)">K</text><text class="cls-2" transform="translate(104.45 175.06)">-500</text><text class="cls-3" transform="translate(438.41 210.2)">In</text><text class="cls-3" transform="translate(452.87 210.2)">c</text><text class="cls-3" transform="translate(460.31 210.2)">onel 725</text><text class="cls-3" transform="translate(438.41 239.67)">In</text><text class="cls-3" transform="translate(452.87 239.67)">c</text><text class="cls-3" transform="translate(460.31 239.67)">onel 783</text><text class="cls-3" transform="translate(297.55 210.2)">In</text><text class="cls-3" transform="translate(312.01 210.2)">c</text><text class="cls-3" transform="translate(319.45 210.2)">onel 718SPF</text><text class="cls-3" transform="translate(297.55 239.67)">In</text><text class="cls-3" transform="translate(312.01 239.67)">c</text><text class="cls-3" transform="translate(319.45 239.67)">onel 751</text><text class="cls-3" transform="translate(168.2 210.2)">In</text><text class="cls-3" transform="translate(182.66 210.2)">c</text><text class="cls-3" transform="translate(190.1 210.2)">onel 718</text><text class="cls-3" transform="translate(168.2 239.67)">In</text><text class="cls-3" transform="translate(182.66 239.67)">c</text><text class="cls-3" transform="translate(190.1 239.67)">onel </text><text class="cls-3" transform="translate(226.99 239.67)">X</text><text class="cls-3" transform="translate(236.33 239.67)">-750</text><text class="cls-3" transform="translate(42.34 210.2)">In</text><text class="cls-3" transform="translate(56.8 210.2)">c</text><text class="cls-3" transform="translate(64.24 210.2)">onel 706</text><text class="cls-3" transform="translate(42.34 239.67)">In</text><text class="cls-3" transform="translate(56.8 239.67)">c</text><text class="cls-3" transform="translate(64.24 239.67)">onel 740H</text><text class="cls-4" transform="translate(393.89 304.28)">In</text><text class="cls-4" transform="translate(408.35 304.28)">c</text><text class="cls-4" transform="translate(415.79 304.28)">ol</text><text class="cls-4" transform="translate(429.89 304.28)">o</text><text class="cls-4" transform="translate(439.46 304.28)">y </text><text class="cls-4" transform="translate(452.07 304.28)">A</text><text class="cls-4" transform="translate(462.74 304.28)">-286</text><text class="cls-4" transform="translate(393.89 274.81)">In</text><text class="cls-4" transform="translate(408.35 274.81)">c</text><text class="cls-4" transform="translate(415.79 274.81)">ol</text><text class="cls-4" transform="translate(429.89 274.81)">o</text><text class="cls-4" transform="translate(439.46 274.81)">y 909</text><text class="cls-4" transform="translate(270.1 304.28)">In</text><text class="cls-4" transform="translate(284.56 304.28)">c</text><text class="cls-4" transform="translate(292 304.28)">ol</text><text class="cls-4" transform="translate(306.1 304.28)">o</text><text class="cls-4" transform="translate(315.67 304.28)">y 945X</text><text class="cls-4" transform="translate(270.1 274.81)">In</text><text class="cls-4" transform="translate(284.56 274.81)">c</text><text class="cls-4" transform="translate(292 274.81)">ol</text><text class="cls-4" transform="translate(306.1 274.81)">o</text><text class="cls-4" transform="translate(315.67 274.81)">y 908</text><text class="cls-4" transform="translate(156.22 274.81)">In</text><text class="cls-4" transform="translate(170.68 274.81)">c</text><text class="cls-4" transform="translate(178.12 274.81)">ol</text><text class="cls-4" transform="translate(192.22 274.81)">o</text><text class="cls-4" transform="translate(201.79 274.81)">y 907</text><text class="cls-4" transform="translate(156.22 304.28)">In</text><text class="cls-4" transform="translate(170.68 304.28)">c</text><text class="cls-4" transform="translate(178.12 304.28)">ol</text><text class="cls-4" transform="translate(192.22 304.28)">o</text><text class="cls-4" transform="translate(201.79 304.28)">y 945</text><text class="cls-4" transform="translate(42.34 274.81)">In</text><text class="cls-4" transform="translate(56.8 274.81)">c</text><text class="cls-4" transform="translate(64.24 274.81)">ol</text><text class="cls-4" transform="translate(78.34 274.81)">o</text><text class="cls-4" transform="translate(87.91 274.81)">y 903</text><text class="cls-4" transform="translate(42.34 304.28)">In</text><text class="cls-4" transform="translate(56.8 304.28)">c</text><text class="cls-4" transform="translate(64.24 304.28)">ol</text><text class="cls-4" transform="translate(78.34 304.28)">o</text><text class="cls-4" transform="translate(87.91 304.28)">y 925</text><text class="cls-5" transform="translate(42.34 339.43)">Ha</text><text class="cls-5" transform="translate(62.58 339.43)">s</text><text class="cls-5" transform="translate(69.56 339.43)">t</text><text class="cls-5" transform="translate(75.58 339.43)">ell</text><text class="cls-5" transform="translate(93.48 339.43)">o</text><text class="cls-5" transform="translate(103.05 339.43)">y C-22HS</text><text class="cls-6" transform="translate(217.11 104.9)">P<tspan class="cls-7" x="13.31" y="0">r</tspan><tspan x="21.91" y="0">ecipi</tspan><tspan class="cls-8" x="70.65" y="0">t</tspan><tspan class="cls-9" x="79.08" y="0">a</tspan><tspan x="91.19" y="0">tion</tspan><tspan x="-66.48" y="25">St</tspan><tspan class="cls-7" x="-46" y="25">r</tspan><tspan x="-37.39" y="25">en</tspan><tspan class="cls-10" x="-11.39" y="25">g</tspan><tspan x="0.28" y="25">thened Supe</tspan><tspan class="cls-11" x="131.25" y="25">r</tspan><tspan x="139.59" y="25">all</tspan><tspan class="cls-12" x="164.21" y="25">o</tspan><tspan class="cls-13" x="177.5" y="25">y</tspan><tspan x="189.18" y="25">s</tspan></text></svg>