<svg id="图层_1" data-name="图层 1" xmlns="http://www.w3.org/2000/svg" viewBox="0 0 566.9 536.7"><defs><style>.cls-1,.cls-6{fill:#666;}.cls-2,.cls-3,.cls-4,.cls-5,.cls-6{isolation:isolate;font-family:Calibri-Bold, Calibri;font-weight:700;}.cls-2,.cls-3,.cls-4,.cls-5{font-size:18px;}.cls-2{fill:#8d7f62;}.cls-3{fill:#936b51;}.cls-4{fill:#7c7f74;}.cls-5{fill:#736c6d;}.cls-6{font-size:25px;}.cls-7{letter-spacing:-0.01em;}.cls-8{letter-spacing:-0.01em;}.cls-9{letter-spacing:-0.02em;}.cls-10{letter-spacing:-0.01em;}.cls-11{letter-spacing:-0.01em;}</style></defs><title>solution</title><circle class="cls-1" cx="296.4" cy="36.5" r="8.1"/><circle class="cls-1" cx="270.5" cy="62.3" r="8.1"/><circle class="cls-1" cx="283.4" cy="49.3" r="8.1"/><circle class="cls-1" cx="270.5" cy="36.5" r="8.1"/><circle class="cls-1" cx="296.4" cy="62.3" r="8.1"/><text class="cls-2" transform="translate(348.55 175.06)">Monel R-405</text><text class="cls-2" transform="translate(23.54 175.06)">Monel 400</text><text class="cls-2" transform="translate(240.21 175.06)">Monel 404</text><text class="cls-2" transform="translate(131.88 175.06)">Monel 401</text><text class="cls-3" transform="translate(392.24 210.2)">In</text><text class="cls-3" transform="translate(406.7 210.2)">c</text><text class="cls-3" transform="translate(414.14 210.2)">onel 603XL</text><text class="cls-3" transform="translate(392.24 239.67)">In</text><text class="cls-3" transform="translate(406.7 239.67)">c</text><text class="cls-3" transform="translate(414.14 239.67)">onel 686</text><text class="cls-3" transform="translate(23.54 210.2)">In</text><text class="cls-3" transform="translate(38 210.2)">c</text><text class="cls-3" transform="translate(45.44 210.2)">onel 600</text><text class="cls-3" transform="translate(23.54 239.67)">In</text><text class="cls-3" transform="translate(38 239.67)">c</text><text class="cls-3" transform="translate(45.44 239.67)">onel 617</text><text class="cls-3" transform="translate(23.54 269.15)">In</text><text class="cls-3" transform="translate(38 269.15)">c</text><text class="cls-3" transform="translate(45.44 269.15)">onel 690</text><text class="cls-3" transform="translate(252.55 210.2)">In</text><text class="cls-3" transform="translate(267.01 210.2)">c</text><text class="cls-3" transform="translate(274.45 210.2)">onel 601GC</text><text class="cls-3" transform="translate(252.55 239.67)">In</text><text class="cls-3" transform="translate(267.01 239.67)">c</text><text class="cls-3" transform="translate(274.45 239.67)">onel 625</text><text class="cls-3" transform="translate(338.71 239.67)">L</text><text class="cls-3" transform="translate(346.1 239.67)">CF</text><text class="cls-3" transform="translate(138.05 210.2)">In</text><text class="cls-3" transform="translate(152.51 210.2)">c</text><text class="cls-3" transform="translate(159.95 210.2)">onel 601</text><text class="cls-3" transform="translate(138.05 239.67)">In</text><text class="cls-3" transform="translate(152.51 239.67)">c</text><text class="cls-3" transform="translate(159.95 239.67)">onel 625</text><text class="cls-3" transform="translate(138.05 269.15)">In</text><text class="cls-3" transform="translate(152.51 269.15)">c</text><text class="cls-3" transform="translate(159.95 269.15)">onel 693</text><text class="cls-4" transform="translate(432.24 457.33)">Ha</text><text class="cls-4" transform="translate(452.48 457.33)">s</text><text class="cls-4" transform="translate(459.46 457.33)">t</text><text class="cls-4" transform="translate(465.48 457.33)">ell</text><text class="cls-4" transform="translate(483.38 457.33)">o</text><text class="cls-4" transform="translate(492.95 457.33)">y C-2000</text><text class="cls-4" transform="translate(432.24 486.81)">Ha</text><text class="cls-4" transform="translate(452.48 486.81)">s</text><text class="cls-4" transform="translate(459.46 486.81)">t</text><text class="cls-4" transform="translate(465.48 486.81)">ell</text><text class="cls-4" transform="translate(483.38 486.81)">o</text><text class="cls-4" transform="translate(492.95 486.81)">y N</text><text class="cls-4" transform="translate(432.24 427.86)">Ha</text><text class="cls-4" transform="translate(452.48 427.86)">s</text><text class="cls-4" transform="translate(459.46 427.86)">t</text><text class="cls-4" transform="translate(465.48 427.86)">ell</text><text class="cls-4" transform="translate(483.38 427.86)">o</text><text class="cls-4" transform="translate(492.95 427.86)">y C</text><text class="cls-4" transform="translate(23.54 427.86)">Ha</text><text class="cls-4" transform="translate(43.78 427.86)">s</text><text class="cls-4" transform="translate(50.76 427.86)">t</text><text class="cls-4" transform="translate(56.78 427.86)">ell</text><text class="cls-4" transform="translate(74.68 427.86)">o</text><text class="cls-4" transform="translate(84.25 427.86)">y B</text><text class="cls-4" transform="translate(23.54 457.33)">Ha</text><text class="cls-4" transform="translate(43.78 457.33)">s</text><text class="cls-4" transform="translate(50.76 457.33)">t</text><text class="cls-4" transform="translate(56.78 457.33)">ell</text><text class="cls-4" transform="translate(74.68 457.33)">o</text><text class="cls-4" transform="translate(84.25 457.33)">y C-4</text><text class="cls-4" transform="translate(23.54 486.81)">Ha</text><text class="cls-4" transform="translate(43.78 486.81)">s</text><text class="cls-4" transform="translate(50.76 486.81)">t</text><text class="cls-4" transform="translate(56.78 486.81)">ell</text><text class="cls-4" transform="translate(74.68 486.81)">o</text><text class="cls-4" transform="translate(84.25 486.81)">y G-3</text><text class="cls-4" transform="translate(23.54 516.28)">Ha</text><text class="cls-4" transform="translate(43.78 516.28)">s</text><text class="cls-4" transform="translate(50.76 516.28)">t</text><text class="cls-4" transform="translate(56.78 516.28)">ell</text><text class="cls-4" transform="translate(74.68 516.28)">o</text><text class="cls-4" transform="translate(84.25 516.28)">y S</text><text class="cls-4" transform="translate(288.18 457.33)">Ha</text><text class="cls-4" transform="translate(308.42 457.33)">s</text><text class="cls-4" transform="translate(315.4 457.33)">t</text><text class="cls-4" transform="translate(321.42 457.33)">ell</text><text class="cls-4" transform="translate(339.32 457.33)">o</text><text class="cls-4" transform="translate(348.89 457.33)">y C-276</text><text class="cls-4" transform="translate(288.18 486.81)">Ha</text><text class="cls-4" transform="translate(308.42 486.81)">s</text><text class="cls-4" transform="translate(315.4 486.81)">t</text><text class="cls-4" transform="translate(321.42 486.81)">ell</text><text class="cls-4" transform="translate(339.32 486.81)">o</text><text class="cls-4" transform="translate(348.89 486.81)">y G-35</text><text class="cls-4" transform="translate(288.18 516.28)">Ha</text><text class="cls-4" transform="translate(308.42 516.28)">s</text><text class="cls-4" transform="translate(315.4 516.28)">t</text><text class="cls-4" transform="translate(321.42 516.28)">ell</text><text class="cls-4" transform="translate(339.32 516.28)">o</text><text class="cls-4" transform="translate(348.89 516.28)">y X</text><text class="cls-4" transform="translate(288.18 427.86)">Ha</text><text class="cls-4" transform="translate(308.42 427.86)">s</text><text class="cls-4" transform="translate(315.4 427.86)">t</text><text class="cls-4" transform="translate(321.42 427.86)">ell</text><text class="cls-4" transform="translate(339.32 427.86)">o</text><text class="cls-4" transform="translate(348.89 427.86)">y B-3</text><text class="cls-4" transform="translate(151.3 427.86)">Ha</text><text class="cls-4" transform="translate(171.54 427.86)">s</text><text class="cls-4" transform="translate(178.52 427.86)">t</text><text class="cls-4" transform="translate(184.54 427.86)">ell</text><text class="cls-4" transform="translate(202.44 427.86)">o</text><text class="cls-4" transform="translate(212.01 427.86)">y B-2</text><text class="cls-4" transform="translate(151.3 457.33)">Ha</text><text class="cls-4" transform="translate(171.54 457.33)">s</text><text class="cls-4" transform="translate(178.52 457.33)">t</text><text class="cls-4" transform="translate(184.54 457.33)">ell</text><text class="cls-4" transform="translate(202.44 457.33)">o</text><text class="cls-4" transform="translate(212.01 457.33)">y C-22</text><text class="cls-4" transform="translate(151.3 486.81)">Ha</text><text class="cls-4" transform="translate(171.54 486.81)">s</text><text class="cls-4" transform="translate(178.52 486.81)">t</text><text class="cls-4" transform="translate(184.54 486.81)">ell</text><text class="cls-4" transform="translate(202.44 486.81)">o</text><text class="cls-4" transform="translate(212.01 486.81)">y G-30</text><text class="cls-4" transform="translate(151.3 516.28)">Ha</text><text class="cls-4" transform="translate(171.54 516.28)">s</text><text class="cls-4" transform="translate(178.52 516.28)">t</text><text class="cls-4" transform="translate(184.54 516.28)">ell</text><text class="cls-4" transform="translate(202.44 516.28)">o</text><text class="cls-4" transform="translate(212.01 516.28)">y W</text><text class="cls-5" transform="translate(427.33 304.29)">In</text><text class="cls-5" transform="translate(441.79 304.29)">c</text><text class="cls-5" transform="translate(449.23 304.29)">ol</text><text class="cls-5" transform="translate(463.33 304.29)">o</text><text class="cls-5" transform="translate(472.9 304.29)">y 803</text><text class="cls-5" transform="translate(427.33 333.76)">In</text><text class="cls-5" transform="translate(441.79 333.76)">c</text><text class="cls-5" transform="translate(449.23 333.76)">ol</text><text class="cls-5" transform="translate(463.33 333.76)">o</text><text class="cls-5" transform="translate(472.9 333.76)">y 890</text><text class="cls-5" transform="translate(427.32 363.24)">In</text><text class="cls-5" transform="translate(441.78 363.24)">c</text><text class="cls-5" transform="translate(449.22 363.24)">ol</text><text class="cls-5" transform="translate(463.32 363.24)">o</text><text class="cls-5" transform="translate(472.89 363.24)">y DS</text><text class="cls-5" transform="translate(23.54 304.29)">In</text><text class="cls-5" transform="translate(38 304.29)">c</text><text class="cls-5" transform="translate(45.44 304.29)">ol</text><text class="cls-5" transform="translate(59.54 304.29)">o</text><text class="cls-5" transform="translate(69.11 304.29)">y 800</text><text class="cls-5" transform="translate(23.54 333.76)">In</text><text class="cls-5" transform="translate(38 333.76)">c</text><text class="cls-5" transform="translate(45.44 333.76)">ol</text><text class="cls-5" transform="translate(59.54 333.76)">o</text><text class="cls-5" transform="translate(69.11 333.76)">y 825</text><text class="cls-5" transform="translate(23.54 363.24)">In</text><text class="cls-5" transform="translate(38 363.24)">c</text><text class="cls-5" transform="translate(45.44 363.24)">ol</text><text class="cls-5" transform="translate(59.54 363.24)">o</text><text class="cls-5" transform="translate(69.11 363.24)">y 926</text><text class="cls-5" transform="translate(23.54 392.71)">In</text><text class="cls-5" transform="translate(38 392.71)">c</text><text class="cls-5" transform="translate(45.44 392.71)">ol</text><text class="cls-5" transform="translate(59.54 392.71)">o</text><text class="cls-5" transform="translate(69.11 392.71)">y 330</text><text class="cls-5" transform="translate(280.03 304.29)">In</text><text class="cls-5" transform="translate(294.49 304.29)">c</text><text class="cls-5" transform="translate(301.93 304.29)">ol</text><text class="cls-5" transform="translate(316.03 304.29)">o</text><text class="cls-5" transform="translate(325.6 304.29)">y 800HT</text><text class="cls-5" transform="translate(280.03 333.76)">In</text><text class="cls-5" transform="translate(294.49 333.76)">c</text><text class="cls-5" transform="translate(301.93 333.76)">ol</text><text class="cls-5" transform="translate(316.03 333.76)">o</text><text class="cls-5" transform="translate(325.6 333.76)">y 864</text><text class="cls-5" transform="translate(280.03 363.24)">In</text><text class="cls-5" transform="translate(294.49 363.24)">c</text><text class="cls-5" transform="translate(301.93 363.24)">ol</text><text class="cls-5" transform="translate(316.03 363.24)">o</text><text class="cls-5" transform="translate(325.6 363.24)">y 028</text><text class="cls-5" transform="translate(280.03 392.71)">In</text><text class="cls-5" transform="translate(294.49 392.71)">c</text><text class="cls-5" transform="translate(301.93 392.71)">ol</text><text class="cls-5" transform="translate(316.03 392.71)">o</text><text class="cls-5" transform="translate(325.6 392.71)">y 27-7MO</text><text class="cls-5" transform="translate(137.42 304.29)">In</text><text class="cls-5" transform="translate(151.88 304.29)">c</text><text class="cls-5" transform="translate(159.32 304.29)">ol</text><text class="cls-5" transform="translate(173.42 304.29)">o</text><text class="cls-5" transform="translate(182.99 304.29)">y 800H</text><text class="cls-5" transform="translate(137.42 333.76)">In</text><text class="cls-5" transform="translate(151.88 333.76)">c</text><text class="cls-5" transform="translate(159.32 333.76)">ol</text><text class="cls-5" transform="translate(173.42 333.76)">o</text><text class="cls-5" transform="translate(182.99 333.76)">y 832</text><text class="cls-5" transform="translate(137.42 363.24)">In</text><text class="cls-5" transform="translate(151.88 363.24)">c</text><text class="cls-5" transform="translate(159.32 363.24)">ol</text><text class="cls-5" transform="translate(173.42 363.24)">o</text><text class="cls-5" transform="translate(182.99 363.24)">y 020</text><text class="cls-5" transform="translate(137.42 392.71)">In</text><text class="cls-5" transform="translate(151.88 392.71)">c</text><text class="cls-5" transform="translate(159.32 392.71)">ol</text><text class="cls-5" transform="translate(173.42 392.71)">o</text><text class="cls-5" transform="translate(182.99 392.71)">y 25-6HN</text><text class="cls-6" transform="translate(212 104.9)">Solid Solution<tspan x="-61.36" y="25">St</tspan><tspan class="cls-7" x="-40.88" y="25">r</tspan><tspan x="-32.27" y="25">en</tspan><tspan class="cls-8" x="-6.27" y="25">g</tspan><tspan x="5.4" y="25">thened Supe</tspan><tspan class="cls-9" x="136.37" y="25">r</tspan><tspan x="144.7" y="25">all</tspan><tspan class="cls-10" x="169.32" y="25">o</tspan><tspan class="cls-11" x="182.62" y="25">y</tspan><tspan x="194.3" y="25">s</tspan></text></svg>