<?xml version="1.0" encoding="utf-8"?>
<!-- Generator: Adobe Illustrator 26.0.0, SVG Export Plug-In . SVG Version: 6.00 Build 0)  -->
<svg version="1.1" id="图层_1" xmlns="http://www.w3.org/2000/svg" xmlns:xlink="http://www.w3.org/1999/xlink" x="0px" y="0px"
	 viewBox="0 0 50 55" style="enable-background:new 0 0 50 55;" xml:space="preserve">
<style type="text/css">
	.st0{fill:#999999;}
	.st1{fill:#333333;}
</style>
<path class="st0" d="M36.7,18.5c-1.9,0-3.9-0.3-5.6-1l-13.7-6.2c-3.2-1.4-6.6-1.8-10.1-1.8H0v8.9v18.2v8.9h7.2
	c3.4,0,6.9-0.3,10.1-1.6L31,37.5c1.8-0.6,3.7-1.1,5.6-1H50v-4.3v-9.3v-4.4H36.7z"/>
<path class="st1" d="M31,17.5c1.7,0.7,3.7,1,5.6,1h1.5V1.1h-21L17,9.3C20.1,12.2,27.6,16,31,17.5z"/>
<path class="st1" d="M31,37.5c1.7-0.7,3.7-1,5.6-1h1.5V54h-21L17,45.8C20.1,42.9,27.6,39,31,37.5z"/>
</svg>
