<?xml version="1.0" encoding="utf-8"?>
<!-- Generator: Adobe Illustrator 26.0.0, SVG Export Plug-In . SVG Version: 6.00 Build 0)  -->
<svg version="1.1" id="图层_1" xmlns="http://www.w3.org/2000/svg" xmlns:xlink="http://www.w3.org/1999/xlink" x="0px" y="0px"
	 viewBox="0 0 50 55" style="enable-background:new 0 0 50 55;" xml:space="preserve">
<style type="text/css">
	.st0{fill:#999999;}
	.st1{fill:#333333;}
</style>
<path class="st0" d="M28.8,26.5c-3,0-6.7-0.4-10.5-0.8C12.9,25.1,8.7,25,3.1,25H0v1.5v1.9V30h2.9c5.4,0,9.8,0,15.2-0.7
	c3.7-0.4,8-0.8,10.5-0.8H50v-0.8v-0.5v-0.7H28.8z"/>
<path class="st1" d="M15.1,22.7c1.8,0.9,3.4,1.6,4.6,2.2c2.7,1.1,5.9,1.6,8.9,1.6H31V11.1H15.1V22.7z"/>
<path class="st1" d="M28.6,28.5c-3,0-6.2,0.5-8.9,1.6c-1.2,0.5-2.8,1.3-4.6,2.2v11.5H31V28.5H28.6z"/>
</svg>
