<?xml version="1.0" encoding="utf-8"?>
<!-- Generator: Adobe Illustrator 26.0.0, SVG Export Plug-In . SVG Version: 6.00 Build 0)  -->
<svg version="1.1" id="图层_1" xmlns="http://www.w3.org/2000/svg" xmlns:xlink="http://www.w3.org/1999/xlink" x="0px" y="0px"
	 viewBox="0 0 50 55" style="enable-background:new 0 0 50 55;" xml:space="preserve">
<style type="text/css">
	.st0{fill:#999999;}
	.st1{fill:#333333;}
	.st2{fill:none;}
</style>
<path class="st0" d="M49.8,35.5H36.6c-1.9,0-3.9,0.3-5.6,1l-13.7,6.1c-3.2,1.3-6.7,1.9-10.1,1.9H0v-9h6.7c3.7,0,7.6-0.2,11.2-0.8
	l6.3-1.6c4.7-1.3,9.5-2.1,14.3-2.1c0,0,0,0,0.2,0H50v4.5H49.8z"/>
<path class="st1" d="M36.6,35.5c-1.9,0-3.9,0.3-5.6,1c-2.8,1.1-11,6.1-11,6.1V53h20.4V35.5H36.6z"/>
<path class="st0" d="M50,19.5V24H38.7c-0.2,0-0.2,0-0.2,0c-4.8,0-9.6-0.8-14.3-2.1L18,20.3c-3.7-0.6-7.6-0.8-11.2-0.8H0v-9h7.2
	c3.4,0,6.9,0.6,10.1,1.9L31,18.5c1.8,0.6,3.7,1,5.6,1h13.2H50z"/>
<path class="st1" d="M36.6,19.5c-1.9,0-3.9-0.3-5.6-1c-2.8-1.1-11-6.1-11-6.1V2h20.4v17.5H36.6z"/>
<line class="st2" x1="18.9" y1="27.5" x2="9.1" y2="27.5"/>
</svg>
