<?xml version="1.0" encoding="utf-8"?>
<!-- Generator: Adobe Illustrator 26.0.0, SVG Export Plug-In . SVG Version: 6.00 Build 0)  -->
<svg version="1.1" id="图层_1" xmlns="http://www.w3.org/2000/svg" xmlns:xlink="http://www.w3.org/1999/xlink" x="0px" y="0px"
	 viewBox="0 0 900 150" style="enable-background:new 0 0 900 150;" xml:space="preserve">
<g>
	<circle cx="204.8" cy="28.8" r="6.3"/>
	<g>
		<path d="M259.6,47.6c-18.6,0-33.7,15.1-33.7,33.7v24.1c0,4-3.3,7.3-7.3,7.3s-7.3-3.3-7.3-7.3V53.7c0-3.5-2.8-6.3-6.3-6.3
			c-3.5,0-6.5,2.8-6.5,6.3v51.6c0,11,9,20,20,20c11,0,20-9,20-20V81.3c0-11.6,9.4-21,21-21s21,9.4,21,21v37.7c0,3.5,2.8,6.3,6.3,6.3
			c3.5,0,6.3-2.8,6.3-6.3V81.3C293.2,62.7,278.1,47.6,259.6,47.6z"/>
		<path d="M345,112.6c-14.3,0-26-11.7-26-26V62.3h18.3c3.5,0,6.3-2.8,6.3-6.3c0-3.5-2.8-6.3-6.3-6.3H319V28.9c0-3.5-2.8-6.3-6.3-6.3
			c-3.5,0-6.3,2.8-6.3,6.3v57.8c0,21.4,17.4,38.7,38.7,38.7c3.5,0,6.3-2.8,6.3-6.3C351.3,115.5,348.5,112.6,345,112.6z"/>
		<path d="M393.7,48.9h-0.6c-21.1,0-38.2,17.1-38.2,38.2s17.1,38.2,38.2,38.2h4.9c3.5,0,6.3-2.8,6.3-6.3c0-3.5-2.8-6.3-6.3-6.3h-4.9
			c-14.1,0-25.6-11.4-25.6-25.6c0-14.1,11.4-25.6,25.6-25.6h0.6c12,0,22.2,8.3,25,19.4h-24.4c-3.5,0-6.3,2.8-6.3,6.3
			c0,3.5,2.8,6.3,6.3,6.3H426c3.5,0,6.3-2.8,6.3-6.3C432.2,66.1,414.9,48.9,393.7,48.9z"/>
		<path d="M584,48.9h-0.6c-21.1,0-38.2,17.1-38.2,38.2s17.1,38.2,38.2,38.2h4.9c3.5,0,6.3-2.8,6.3-6.3c0-3.5-2.8-6.3-6.3-6.3h-4.9
			c-14.1,0-25.6-11.4-25.6-25.6c0-14.1,11.4-25.6,25.6-25.6h0.6c12,0,22.2,8.3,25,19.4h-24.4c-3.5,0-6.3,2.8-6.3,6.3
			c0,3.5,2.8,6.3,6.3,6.3h31.6c3.5,0,6.3-2.8,6.3-6.3C622.5,66.1,605.2,48.9,584,48.9z"/>
		<path d="M481.2,48.9c-21.5,0-39,17.5-39,39V119c0,3.5,2.8,6.3,6.3,6.3c3.5,0,6.3-2.8,6.3-6.3V87.9c0-14.6,11.8-26.4,26.4-26.4
			c3.5,0,6.3-2.8,6.3-6.3C487.6,51.7,484.8,48.9,481.2,48.9z"/>
		<path d="M536.9,112.6c-14.6,0-26.4-11.8-26.4-26.4V62.5h19c3.5,0,6.3-2.8,6.3-6.3s-2.8-6.3-6.3-6.3h-19V29.1
			c0-3.5-2.8-6.3-6.3-6.3s-6.3,2.8-6.3,6.3v57.2c0,21.5,17.5,39,39,39c3.5,0,6.3-2.8,6.3-6.3C543.2,115.5,540.4,112.6,536.9,112.6z"
			/>
		<path d="M699.6,116.1l-34.4-34.6l26.2-22.1c2.6-2.2,3-6.2,0.7-9c-2.2-2.6-6.2-3-9-0.7l-34.7,29.4v-51c0-3.5-2.8-6.3-6.3-6.3
			s-6.3,2.8-6.3,6.3v93.3c0,3.5,2.8,6.3,6.3,6.3s6.3-2.8,6.3-6.3V95.6l7-5.9l35.1,35.4c1.2,1.3,2.9,1.8,4.5,1.8
			c1.6,0,3.2-0.6,4.5-1.8C702.1,122.6,702.1,118.6,699.6,116.1z"/>
	</g>
</g>
</svg>
