<?xml version="1.0" encoding="utf-8"?>
<!-- Generator: Adobe Illustrator 26.0.0, SVG Export Plug-In . SVG Version: 6.00 Build 0)  -->
<svg version="1.1" id="图层_1" xmlns="http://www.w3.org/2000/svg" xmlns:xlink="http://www.w3.org/1999/xlink" x="0px" y="0px"
	 viewBox="0 0 800 150" style="enable-background:new 0 0 800 150;" xml:space="preserve">
<style type="text/css">
	.st0{fill:#7D7D7D;}
	.st1{fill:#FF9217;}
</style>
<g>
	<g id="XMLID_5_">
		<path class="st0" d="M302.1,116.8c-14.6-4.5-17.7-17-16.8-31h21c0,9.6,0.3,17.7,12,17.7c7.2,0,10.5-4.5,10.5-11.4
			c0-18.2-42.5-19.1-42.5-49c0-15.8,7.4-28.4,33.2-28.4c20.6,0,30.8,9.3,29.3,30.2h-20c0-7.4-1.2-15.3-9.8-15.3
			c-6.9,0-10.8,3.9-10.8,10.8c0,19.1,42.5,17.4,42.5,49c0,17.4-8.6,24.5-19.1,27.5L302.1,116.8L302.1,116.8z"/>
	</g>
	<g id="XMLID_4_">
		<path class="st0" d="M401.6,47.2c0-9.3-1.5-17.7-12.6-17.7c-13.1,0-13.1,17.7-13.1,37c0,31.4,3,37,15,37c3.6,0,7.2-0.9,10.5-2.1
			V79.1H390V63.6h32.6v50.6c-1.8,0.9-4.8,2.4-9,3h-35.9c-19.4-4.8-23-21.2-23-51.8c0-25.4,1.2-51.1,35.9-51.1
			c20.6,0,33.5,11.7,32.3,32.6h-21.2L401.6,47.2L401.6,47.2z"/>
	</g>
	<g id="XMLID_3_">
		<path class="st0" d="M462.4,14.6c18.6,0,28.4,7.2,29.9,23.4v6.9h-20.6c0-7.4-1.8-15.3-10.5-15.3c-6.9,0-10.8,3.9-10.8,10.8
			c0,17.7,36.2,17.7,41.8,42.5v14.6c-2.1,11.7-9.6,17-18.2,19.4h-29.3c-14.6-4.5-17.7-17-16.7-31.1h21c0,9.6,0.3,17.7,12,17.7
			c7.2,0,10.5-4.5,10.5-11.4c0-18.2-42.5-19.1-42.5-49C429.2,27.2,436.7,14.6,462.4,14.6L462.4,14.6z"/>
	</g>
	<g id="XMLID_2_">
		<polygon class="st1" points="230,116.8 544,116.8 544,121.6 230,121.6 		"/>
	</g>
	<g id="XMLID_1_">
		<polygon class="st1" points="492.3,-2.1 497.1,-2.1 497.1,152.1 492.3,152.1 		"/>
	</g>
</g>
</svg>
