<?xml version="1.0" encoding="utf-8"?>
<!-- Generator: Adobe Illustrator 26.0.0, SVG Export Plug-In . SVG Version: 6.00 Build 0)  -->
<svg version="1.1" id="Trademark" xmlns="http://www.w3.org/2000/svg" xmlns:xlink="http://www.w3.org/1999/xlink" x="0px" y="0px"
	 viewBox="0 0 806 150" style="enable-background:new 0 0 806 150;" xml:space="preserve">
<style type="text/css">
	.st0{fill:#0071B9;}
</style>
<g>
	<path d="M413.8,60.7h-21.3V49.1h57.8v11.7h-21.3v59.6h-15.4L413.8,60.7L413.8,60.7z"/>
	<path d="M476.8,49.1v43.4c0,2,0.1,4,0.3,6.1s0.8,4,1.8,5.7c1,1.7,2.6,3.1,4.6,4.2c2.1,1.1,5,1.6,8.7,1.6c0.6,0,1.4,0,2.6-0.1
		c1.1-0.1,2.4-0.3,3.8-0.7c1.4-0.4,2.7-1,4-1.8c1.3-0.9,2.5-2,3.4-3.5c0.4-0.6,0.7-1.1,1-1.8c0.2-0.6,0.5-1.4,0.7-2.4
		c0.2-1,0.3-2.1,0.5-3.4c0.1-1.3,0.2-2.8,0.2-4.6V49.1h15v44.5c0,5.4-1,9.8-2.9,13.4c-1.9,3.6-4.4,6.5-7.4,8.6
		c-3,2.2-6.4,3.8-10.1,4.6c-3.7,1-7.4,1.4-11,1.4c-1.8,0-3.8-0.2-6.2-0.4c-2.4-0.2-4.9-0.9-7.3-1.8c-2.5-0.9-4.9-2.2-7.3-3.8
		s-4.4-3.8-6-6.5c-1.7-2.8-2.7-5.5-3.1-8.3c-0.4-2.8-0.6-5.8-0.6-9.2V49.1H476.8z M479,28.8h10.1v11.7H479V28.8z M496,28.8h10.1
		v11.7H496V28.8z"/>
	<path d="M551.1,49.1l18.7,56.2l18.8-56.2h15.1l-26.3,71.2h-16.7l-26.3-71.2H551.1z"/>
	<g>
		<path class="st0" d="M363,126.6c-10.2-1.8-20.7-2.7-31.4-2.7c-14.9,0-29.3,1.8-43.1,5.4c-13.7,3.6-28.2,5.5-43,5.5
			c-5.3,0-10.4-0.2-15.5-0.7l58.6-101.4l35.4,61.2c-12.2,0.6-23.9,2.3-35.4,5.2c-8.3,2.2-16.8,3.7-25.6,4.5L252.3,122
			c12.4-0.5,24.6-2.3,36.2-5.3c13.8-3.6,28.2-5.4,43.1-5.4c7.9,0,15.8,0.6,23.4,1.5l-11.2-19.4l-29-50.2L288.6-2.5l-86.3,149.4
			c13.8,3.8,28.2,5.6,43.1,5.6c14.9,0,29.4-1.8,43-5.6c13.8-3.4,28.2-5.4,43.1-5.4c14.9,0,29.3,2,43.1,5.4L363,126.6z"/>
	</g>
</g>
</svg>
