<svg id="图层_1" data-name="图层 1" xmlns="http://www.w3.org/2000/svg" viewBox="0 0 99.2 99.2"><defs><style>.cls-1{fill:#333;}</style></defs><title>package</title><path class="cls-1" d="M78.62,13H19.81a8.29,8.29,0,0,0-8.29,8.28V78a8.29,8.29,0,0,0,8.29,8.28H78.62A8.29,8.29,0,0,0,86.91,78V21.25A8.29,8.29,0,0,0,78.62,13ZM26.38,81.09A8.66,8.66,0,1,1,35,72.44,8.66,8.66,0,0,1,26.38,81.09Zm0-45.67A8.66,8.66,0,1,1,35,26.76,8.66,8.66,0,0,1,26.38,35.42ZM72.05,81.09a8.66,8.66,0,1,1,8.66-8.65A8.66,8.66,0,0,1,72.05,81.09Zm0-45.67a8.66,8.66,0,1,1,8.66-8.66A8.66,8.66,0,0,1,72.05,35.42Z"/></svg>