<?xml version="1.0" encoding="utf-8"?>
<!-- Generator: Adobe Illustrator 26.0.0, SVG Export Plug-In . SVG Version: 6.00 Build 0)  -->
<svg version="1.1" id="图层_1" xmlns="http://www.w3.org/2000/svg" xmlns:xlink="http://www.w3.org/1999/xlink" x="0px" y="0px"
	 viewBox="0 0 114.7 239.8" style="enable-background:new 0 0 114.7 239.8;" xml:space="preserve">
<style type="text/css">
	.st0{fill:#FFFFFF;}
</style>
<path class="st0" d="M91.6,132.2l10.9-16c0,0-17.5-9.7-17.5-9.7c-6.6-3.6-13.3-7.2-20-10.6c4.7-6.7,9.4-13.5,13.9-20.4
	c5.2-7.8,12.5-19.6,17.5-27.7C80.8,41.5,64.6,35.2,48.5,30c3.2-6.9,6.3-13.9,8.8-20.8C48.9,15.5,40.8,22.8,33,30
	c0,0-5.1,4.6-5.1,4.6c8,6.4,16.6,13.1,24.8,19c1.2,0.9,2.4,1.7,3.6,2.6c-2,2.1-4,4.3-6,6.4c-12.9,13.8-26.5,30.1-38.8,44.6
	c12.7,7.1,26.4,14.8,39.8,22c-8.5,14-16.6,28.2-24.2,42.7l-7.8,14.9c0,0,13,5.2,13,5.2c11.2,4.5,22.5,8.7,34,12.6
	c-3.3,8.5-6.4,17.1-8.9,25.9c11.1-9.8,21.2-20.9,31.1-31.9c-8.1-6.3-17-13.1-25.4-19c-1.4-1-2.7-1.9-4.1-2.9
	c0.7-0.9,1.5-1.9,2.2-2.8C71.7,160.3,81.9,146.4,91.6,132.2z"/>
</svg>
