<?xml version="1.0" encoding="utf-8"?>
<!-- Generator: Adobe Illustrator 26.0.0, SVG Export Plug-In . SVG Version: 6.00 Build 0)  -->
<svg version="1.1" id="图层_1" xmlns="http://www.w3.org/2000/svg" xmlns:xlink="http://www.w3.org/1999/xlink" x="0px" y="0px"
	 viewBox="0 0 1111 672.3" style="enable-background:new 0 0 1111 672.3;" xml:space="preserve">
<style type="text/css">
	.st0{fill:none;stroke:#333333;stroke-width:10;stroke-linecap:round;stroke-miterlimit:10;}
	.st1{fill:#333333;}
	.st2{fill:none;stroke:#666666;stroke-width:17;stroke-linecap:round;stroke-miterlimit:10;}
</style>
<g>
	<g>
		<line class="st0" x1="35.7" y1="336.1" x2="1053.7" y2="336.1"/>
		<g>
			<polygon class="st1" points="1049.4,351.1 1075.3,336.1 1049.4,321.2 			"/>
		</g>
	</g>
</g>
<path class="st2" d="M993.8,194.7c-24.8,0-47.5,282.9-73,282.9s-48.3-282.9-73-282.9s-47.5,282.9-73,282.9
	c-25.5,0-48.3-282.9-73-282.9c-24.8,0-47.5,282.9-73,282.9s-48.3-282.9-73-282.9v0c-24.8,0-47.5,282.9-73,282.9
	c-25.5,0-48.3-282.9-73-282.9c-24.8,0-47.5,282.9-73,282.9c-25.5,0-48.3-282.9-73-282.9s-47.5,282.9-73,282.9s-48.3-282.9-73-282.9"
	/>
</svg>
