<svg id="图层_1" data-name="图层 1" xmlns="http://www.w3.org/2000/svg" viewBox="0 0 841.89 200"><defs><style>.cls-1{fill:#c2ad99;}.cls-2,.cls-3,.cls-4,.cls-5,.cls-6,.cls-8{isolation:isolate;}.cls-2{font-size:32.27px;}.cls-2,.cls-4,.cls-5,.cls-6,.cls-8{fill:#fff;}.cls-2,.cls-8{font-family:Calibri-Bold, Calibri;font-weight:700;}.cls-4,.cls-5,.cls-6{font-size:36px;font-family:Calibri;}.cls-5{letter-spacing:-0.01em;}.cls-6{letter-spacing:-0.02em;}.cls-7{fill:none;stroke:#fff;stroke-miterlimit:10;stroke-width:2px;}.cls-8{font-size:50px;}.cls-9{letter-spacing:-0.01em;}</style></defs><path class="cls-1" d="M63.17,74.52H224.52A25.48,25.48,0,0,1,250,100h0a25.48,25.48,0,0,1-25.48,25.48H63.17A25.48,25.48,0,0,1,37.69,100h0A25.48,25.48,0,0,1,63.17,74.52Z"/><text class="cls-2" transform="translate(73.91 109.06)">Aluminum</text><rect class="cls-1" x="279.65" y="1" width="562.24" height="198" rx="29.85"/><g class="cls-3"><text class="cls-4" transform="translate(602.21 65.86)">P</text><text class="cls-5" transform="translate(620.81 65.86)">r</text><text class="cls-4" transform="translate(632.88 65.86)">ecipi</text><text class="cls-5" transform="translate(701.46 65.86)">t</text><text class="cls-5" transform="translate(713.08 65.86)">a</text><text class="cls-4" transform="translate(729.99 65.86)">tion</text><text class="cls-4" transform="translate(602.21 109.06)">St</text><text class="cls-5" transform="translate(630.81 109.06)">r</text><text class="cls-4" transform="translate(642.89 109.06)">en</text><text class="cls-6" transform="translate(679.71 109.06)">g</text><text class="cls-4" transform="translate(696.11 109.06)">thening</text><text class="cls-4" transform="translate(602.21 152.26)">γ&apos; phase</text></g><line class="cls-7" x1="567.21" y1="32.59" x2="567.21" y2="167.41"/><text class="cls-8" transform="translate(313.5 89.67)">Al + Ti<tspan x="0" y="50">Up </tspan><tspan class="cls-9" x="70.78" y="50">t</tspan><tspan x="87.62" y="50">o 10%</tspan></text></svg>