<svg id="图层_1" data-name="图层 1" xmlns="http://www.w3.org/2000/svg" viewBox="0 0 841.89 200"><defs><style>.cls-1{fill:#f3a470;}.cls-2,.cls-3,.cls-4,.cls-5,.cls-6,.cls-7,.cls-8{isolation:isolate;}.cls-3,.cls-4{font-size:32.27px;}.cls-3,.cls-4,.cls-5,.cls-6,.cls-7,.cls-8{fill:#fff;}.cls-3,.cls-4,.cls-5{font-family:Calibri-Bold, Calibri;font-weight:700;}.cls-4{letter-spacing:-0.01em;}.cls-5{font-size:70px;}.cls-6,.cls-7,.cls-8{font-size:36px;font-family:Calibri;}.cls-6{letter-spacing:-0.01em;}.cls-8{letter-spacing:-0.02em;}.cls-9{fill:none;stroke:#fff;stroke-miterlimit:10;stroke-width:2px;}</style></defs><path class="cls-1" d="M63.17,74.52H224.52A25.48,25.48,0,0,1,250,100h0a25.48,25.48,0,0,1-25.48,25.48H63.17A25.48,25.48,0,0,1,37.69,100h0A25.48,25.48,0,0,1,63.17,74.52Z"/><g class="cls-2"><text class="cls-3" transform="translate(73.56 109.06)">Ch</text><text class="cls-4" transform="translate(107.96 109.06)">r</text><text class="cls-3" transform="translate(119.04 109.06)">omium</text></g><rect class="cls-1" x="279.65" y="1" width="562.24" height="198" rx="29.85"/><g class="cls-2"><text class="cls-5" transform="translate(346.64 86.34)">10% ~</text><text class="cls-5" transform="translate(346.64 156.34)">25%</text></g><g class="cls-2"><text class="cls-6" transform="translate(589.31 87.46)">O</text><text class="cls-7" transform="translate(612.94 87.46)">xid</text><text class="cls-6" transform="translate(655.7 87.46)">a</text><text class="cls-7" transform="translate(672.61 87.46)">tion</text><text class="cls-8" transform="translate(589.31 130.66)">R</text><text class="cls-7" transform="translate(608.22 130.66)">esi</text><text class="cls-6" transform="translate(648.48 130.66)">s</text><text class="cls-6" transform="translate(662.15 130.66)">t</text><text class="cls-7" transform="translate(673.77 130.66)">ance</text></g><line class="cls-9" x1="554.31" y1="32.59" x2="554.31" y2="167.41"/></svg>