<svg id="图层_1" data-name="图层 1" xmlns="http://www.w3.org/2000/svg" viewBox="0 0 841.89 200"><defs><style>.cls-1{fill:#b5c5b3;}.cls-2,.cls-3,.cls-4,.cls-5,.cls-6,.cls-7,.cls-8{isolation:isolate;}.cls-2{font-size:32.27px;}.cls-2,.cls-4,.cls-5,.cls-6,.cls-7,.cls-8{fill:#fff;}.cls-2,.cls-4,.cls-5{font-family:Calibri-Bold, Calibri;font-weight:700;}.cls-4,.cls-5{font-size:70px;}.cls-5{letter-spacing:-0.01em;}.cls-6,.cls-7,.cls-8{font-size:36px;font-family:Calibri;}.cls-7{letter-spacing:-0.01em;}.cls-8{letter-spacing:-0.02em;}.cls-9{fill:none;stroke:#fff;stroke-miterlimit:10;stroke-width:2px;}</style></defs><path class="cls-1" d="M63.17,74.52H224.52A25.48,25.48,0,0,1,250,100h0a25.48,25.48,0,0,1-25.48,25.48H63.17A25.48,25.48,0,0,1,37.69,100h0A25.48,25.48,0,0,1,63.17,74.52Z"/><text class="cls-2" transform="translate(53.58 109.06)">Molybdenum</text><rect class="cls-1" x="279.65" y="1" width="562.24" height="198" rx="29.85"/><g class="cls-3"><text class="cls-4" transform="translate(346.64 86.34)">Up </text><text class="cls-5" transform="translate(445.73 86.34)">t</text><text class="cls-4" transform="translate(469.31 86.34)">o</text></g><text class="cls-4" transform="translate(346.64 156.34)">15%</text><text class="cls-6" transform="translate(575.35 87.46)">Solid Solution</text><text class="cls-6" transform="translate(575.35 130.66)">St</text><text class="cls-7" transform="translate(603.95 130.66)">r</text><text class="cls-6" transform="translate(616.03 130.66)">en</text><text class="cls-8" transform="translate(652.85 130.66)">g</text><text class="cls-6" transform="translate(669.25 130.66)">thening</text><line class="cls-9" x1="540.35" y1="32.59" x2="540.35" y2="167.41"/></svg>