<svg id="图层_1" data-name="图层 1" xmlns="http://www.w3.org/2000/svg" viewBox="0 0 841.89 200"><defs><style>.cls-1{fill:#2f5288;}.cls-2,.cls-3,.cls-4,.cls-5,.cls-7{isolation:isolate;}.cls-3,.cls-4{font-size:32.27px;}.cls-3,.cls-4,.cls-5,.cls-7{fill:#fff;}.cls-3,.cls-4,.cls-5{font-family:Calibri-Bold, Calibri;font-weight:700;}.cls-4{letter-spacing:-0.03em;}.cls-5{font-size:117.26px;letter-spacing:-0.01em;}.cls-6{letter-spacing:0em;}.cls-7{font-size:36px;font-family:Calibri;}.cls-8{letter-spacing:-0.01em;}.cls-9{fill:none;stroke:#fff;stroke-miterlimit:10;stroke-width:2px;}</style></defs><path class="cls-1" d="M63.17,74.52H224.52A25.48,25.48,0,0,1,250,100h0a25.48,25.48,0,0,1-25.48,25.48H63.17A25.48,25.48,0,0,1,37.69,100h0A25.48,25.48,0,0,1,63.17,74.52Z"/><g class="cls-2"><text class="cls-3" transform="translate(103.11 109.06)">Nic</text><text class="cls-4" transform="translate(145.8 109.06)">k</text><text class="cls-3" transform="translate(160.4 109.06)">el</text></g><rect class="cls-1" x="279.65" y="1" width="562.24" height="198" rx="29.85"/><g class="cls-2"><text class="cls-5" transform="translate(346.64 134.37)">B<tspan class="cls-6" x="64.58" y="0">AL.</tspan></text></g><g class="cls-2"><text class="cls-7" transform="translate(649.68 87.46)">As a <tspan x="0" y="43.2">M</tspan><tspan class="cls-8" x="30.78" y="43.2">a</tspan><tspan x="47.69" y="43.2">trix</tspan></text></g><line class="cls-9" x1="614.68" y1="32.59" x2="614.68" y2="167.41"/></svg>