<svg id="图层_1" data-name="图层 1" xmlns="http://www.w3.org/2000/svg" viewBox="0 0 841.89 200"><defs><style>.cls-1{fill:#af314c;}.cls-2,.cls-3,.cls-4,.cls-5,.cls-7{isolation:isolate;}.cls-2{font-size:32.27px;}.cls-2,.cls-4,.cls-5,.cls-7{fill:#fff;}.cls-2,.cls-7{font-family:Calibri-Bold, Calibri;font-weight:700;}.cls-4,.cls-5{font-size:36px;font-family:Calibri;}.cls-5{letter-spacing:-0.01em;}.cls-6{fill:none;stroke:#fff;stroke-miterlimit:10;stroke-width:2px;}.cls-7{font-size:70px;}.cls-8{letter-spacing:-0.01em;}</style></defs><path class="cls-1" d="M63.17,74.52H224.52A25.48,25.48,0,0,1,250,100h0a25.48,25.48,0,0,1-25.48,25.48H63.17A25.48,25.48,0,0,1,37.69,100h0A25.48,25.48,0,0,1,63.17,74.52Z"/><text class="cls-2" transform="translate(86.17 109.06)">Niobium</text><rect class="cls-1" x="279.65" y="1" width="562.24" height="198" rx="29.85"/><g class="cls-3"><text class="cls-4" transform="translate(574.43 65.86)">P</text><text class="cls-5" transform="translate(593.03 65.86)">r</text><text class="cls-4" transform="translate(605.1 65.86)">ecipi</text><text class="cls-5" transform="translate(673.68 65.86)">t</text><text class="cls-5" transform="translate(685.3 65.86)">a</text><text class="cls-4" transform="translate(702.21 65.86)">tion</text><text class="cls-4" transform="translate(574.43 109.06)">Solid Solution</text><text class="cls-4" transform="translate(574.43 152.26)">γ / γ&apos; / γ&quot; phase</text></g><line class="cls-6" x1="539.44" y1="32.59" x2="539.44" y2="167.41"/><g class="cls-3"><text class="cls-7" transform="translate(327.17 86.34)">Up <tspan class="cls-8" x="99.09" y="0">t</tspan><tspan x="122.67" y="0">o</tspan></text><text class="cls-7" transform="translate(327.17 156.34)">5%</text></g></svg>