<svg id="图层_1" data-name="图层 1" xmlns="http://www.w3.org/2000/svg" xmlns:xlink="http://www.w3.org/1999/xlink" viewBox="0 0 841.9 200"><defs><style>.cls-1{fill:url(#未命名的渐变);}.cls-2{fill:url(#未命名的渐变_2);}.cls-3,.cls-4,.cls-5,.cls-6{isolation:isolate;fill:#fff;font-family:Calibri-Bold, Calibri;font-weight:700;}.cls-3{font-size:21px;}.cls-4,.cls-5{font-size:34px;}.cls-5{letter-spacing:-0.03em;}.cls-6{font-size:60px;}</style><linearGradient id="未命名的渐变" x1="28.45" y1="862.12" x2="371.55" y2="621.88" gradientTransform="translate(0 -642)" gradientUnits="userSpaceOnUse"><stop offset="0" stop-color="#fba971"/><stop offset="0.5" stop-color="#32558e"/><stop offset="0.75" stop-color="#b7c8b5"/><stop offset="1" stop-color="#7fb285"/></linearGradient><linearGradient id="未命名的渐变_2" x1="470.35" y1="862.12" x2="813.45" y2="621.88" gradientTransform="translate(0 -642)" gradientUnits="userSpaceOnUse"><stop offset="0" stop-color="#2f5288"/><stop offset="0.1" stop-color="#546c92"/><stop offset="0.22" stop-color="#7a879c"/><stop offset="0.33" stop-color="#959aa4"/><stop offset="0.43" stop-color="#a5a6a8"/><stop offset="0.5" stop-color="#abaaaa"/><stop offset="0.6" stop-color="#b1aaa5"/><stop offset="0.74" stop-color="#c1a898"/><stop offset="0.89" stop-color="#dca682"/><stop offset="1" stop-color="#f3a470"/></linearGradient></defs><path class="cls-1" d="M30,0H370a30,30,0,0,1,30,30V170a30,30,0,0,1-30,30H30A30,30,0,0,1,0,170V30A30,30,0,0,1,30,0Z"/><path class="cls-2" d="M471.9,0h340a30,30,0,0,1,30,30V170a30,30,0,0,1-30,30h-340a30,30,0,0,1-30-30V30A30,30,0,0,1,471.9,0Z"/><text class="cls-3" transform="translate(41.63 53.82)">P</text><text class="cls-3" transform="translate(52.81 53.82)">r</text><text class="cls-3" transform="translate(60.04 53.82)">ecipi</text><text class="cls-3" transform="translate(100.98 53.82)">t</text><text class="cls-3" transform="translate(108.05 53.82)">a</text><text class="cls-3" transform="translate(118.23 53.82)">tion St</text><text class="cls-3" transform="translate(175.03 53.82)">r</text><text class="cls-3" transform="translate(182.26 53.82)">en</text><text class="cls-3" transform="translate(204.1 53.82)">g</text><text class="cls-3" transform="translate(213.91 53.82)">thening Phase in</text><text class="cls-4" transform="translate(31.72 92.82)">Nic</text><text class="cls-5" transform="translate(76.69 92.82)">k</text><text class="cls-4" transform="translate(92.08 92.82)">el-based Supe</text><text class="cls-4" transform="translate(289.28 92.82)">r</text><text class="cls-4" transform="translate(300.62 92.82)">all</text><text class="cls-4" transform="translate(334.1 92.82)">o</text><text class="cls-4" transform="translate(352.18 92.82)">y</text><text class="cls-6" transform="translate(72.24 158.77)">Up </text><text class="cls-6" transform="translate(157.17 158.77)">t</text><text class="cls-6" transform="translate(177.39 158.77)">o 65%</text><text class="cls-3" transform="translate(483.52 53.82)">P</text><text class="cls-3" transform="translate(494.7 53.82)">r</text><text class="cls-3" transform="translate(501.93 53.82)">ecipi</text><text class="cls-3" transform="translate(542.87 53.82)">t</text><text class="cls-3" transform="translate(549.94 53.82)">a</text><text class="cls-3" transform="translate(560.12 53.82)">tion St</text><text class="cls-3" transform="translate(616.92 53.82)">r</text><text class="cls-3" transform="translate(624.15 53.82)">en</text><text class="cls-3" transform="translate(645.99 53.82)">g</text><text class="cls-3" transform="translate(655.8 53.82)">thening Phase in</text><text class="cls-4" transform="translate(487.89 92.82)">I</text><text class="cls-4" transform="translate(496.95 92.82)">r</text><text class="cls-4" transform="translate(508.63 92.82)">on-based Supe</text><text class="cls-4" transform="translate(716.88 92.82)">r</text><text class="cls-4" transform="translate(728.21 92.82)">all</text><text class="cls-4" transform="translate(761.7 92.82)">o</text><text class="cls-4" transform="translate(779.78 92.82)">y</text><text class="cls-6" transform="translate(466.91 158.77)">Less than 20%</text></svg>