<svg id="图层_1" data-name="图层 1" xmlns="http://www.w3.org/2000/svg" viewBox="0 0 841.89 200"><defs><style>.cls-1{fill:#566e3d;}.cls-10,.cls-2,.cls-5,.cls-6,.cls-9{isolation:isolate;}.cls-2{font-size:32.27px;}.cls-10,.cls-2,.cls-6,.cls-9{fill:#fff;}.cls-2,.cls-6{font-family:Calibri-Bold, Calibri;font-weight:700;}.cls-3{letter-spacing:-0.08em;}.cls-4{fill:none;stroke:#fff;stroke-miterlimit:10;stroke-width:2px;}.cls-6{font-size:58.17px;}.cls-7{letter-spacing:-0.01em;}.cls-8{letter-spacing:0em;}.cls-10,.cls-9{font-size:36px;font-family:Calibri;}.cls-10{letter-spacing:-0.01em;}</style></defs><path class="cls-1" d="M63.17,74.52H224.52A25.48,25.48,0,0,1,250,100h0a25.48,25.48,0,0,1-25.48,25.48H63.17A25.48,25.48,0,0,1,37.69,100h0A25.48,25.48,0,0,1,63.17,74.52Z"/><text class="cls-2" transform="translate(82.78 109.06)"><tspan class="cls-3">T</tspan><tspan x="13.54" y="0">anlalum</tspan></text><rect class="cls-1" x="279.65" y="1" width="562.24" height="198" rx="29.85"/><line class="cls-4" x1="551.54" y1="32.59" x2="551.54" y2="167.41"/><g class="cls-5"><text class="cls-6" transform="translate(330.03 87.49)">Small</text><text class="cls-6" transform="translate(330.03 145.66)">Amou<tspan class="cls-7" x="145.05" y="0">n</tspan><tspan class="cls-8" x="175.73" y="0">t</tspan></text></g><g class="cls-5"><text class="cls-9" transform="translate(577.12 65.86)">P</text><text class="cls-10" transform="translate(595.72 65.86)">r</text><text class="cls-9" transform="translate(607.79 65.86)">ecipi</text><text class="cls-10" transform="translate(676.37 65.86)">t</text><text class="cls-10" transform="translate(687.99 65.86)">a</text><text class="cls-9" transform="translate(704.9 65.86)">tion</text><text class="cls-9" transform="translate(577.12 109.06)">Solid Solution</text><text class="cls-9" transform="translate(577.12 152.26)">γ / γ&apos; / γ&quot; phase</text></g></svg>