<svg id="图层_1" data-name="图层 1" xmlns="http://www.w3.org/2000/svg" viewBox="0 0 841.89 200"><defs><style>.cls-1{fill:#f2d5ac;}.cls-2,.cls-3,.cls-4,.cls-5,.cls-6,.cls-7,.cls-8,.cls-9{isolation:isolate;}.cls-2,.cls-3{font-size:32.27px;}.cls-2,.cls-3,.cls-5,.cls-6,.cls-7,.cls-8,.cls-9{fill:#fff;}.cls-2,.cls-3,.cls-5,.cls-6{font-family:Calibri-Bold, Calibri;font-weight:700;}.cls-3{letter-spacing:-0.01em;}.cls-5,.cls-6{font-size:50px;}.cls-6{letter-spacing:-0.01em;}.cls-7,.cls-8,.cls-9{font-size:36px;font-family:Calibri;}.cls-8{letter-spacing:-0.01em;}.cls-9{letter-spacing:-0.02em;}.cls-10{fill:none;stroke:#fff;stroke-miterlimit:10;stroke-width:2px;}</style></defs><path class="cls-1" d="M63.17,74.52H224.52A25.48,25.48,0,0,1,250,100h0a25.48,25.48,0,0,1-25.48,25.48H63.17A25.48,25.48,0,0,1,37.69,100h0A25.48,25.48,0,0,1,63.17,74.52Z"/><text class="cls-2" transform="translate(84.08 109.06)">Ti</text><text class="cls-3" transform="translate(107.98 109.06)">t</text><text class="cls-2" transform="translate(118.86 109.06)">anium</text><rect class="cls-1" x="279.65" y="1" width="562.24" height="198" rx="29.85"/><g class="cls-4"><text class="cls-5" transform="translate(313.5 89.67)">Al + Ti</text><text class="cls-5" transform="translate(313.5 139.67)">Up </text><text class="cls-6" transform="translate(384.28 139.67)">t</text><text class="cls-5" transform="translate(401.12 139.67)">o 10%</text></g><text class="cls-7" transform="translate(602.21 65.86)">P</text><text class="cls-8" transform="translate(620.81 65.86)">r</text><text class="cls-7" transform="translate(632.88 65.86)">ecipi</text><text class="cls-8" transform="translate(701.46 65.86)">t</text><text class="cls-8" transform="translate(713.08 65.86)">a</text><text class="cls-7" transform="translate(729.99 65.86)">tion</text><text class="cls-7" transform="translate(602.21 109.06)">St</text><text class="cls-8" transform="translate(630.81 109.06)">r</text><text class="cls-7" transform="translate(642.89 109.06)">en</text><text class="cls-9" transform="translate(679.71 109.06)">g</text><text class="cls-7" transform="translate(696.11 109.06)">thening</text><text class="cls-7" transform="translate(602.21 152.26)">γ&apos; phase</text><line class="cls-10" x1="567.21" y1="32.59" x2="567.21" y2="167.41"/></svg>