<svg id="图层_1" data-name="图层 1" xmlns="http://www.w3.org/2000/svg" viewBox="0 0 841.89 200"><defs><style>.cls-1{fill:#534242;}.cls-10,.cls-2,.cls-3,.cls-4,.cls-5,.cls-6,.cls-8,.cls-9{isolation:isolate;}.cls-3,.cls-4,.cls-5{font-size:32.27px;}.cls-10,.cls-3,.cls-4,.cls-5,.cls-6,.cls-8,.cls-9{fill:#fff;}.cls-3,.cls-4,.cls-5,.cls-6{font-family:Calibri-Bold, Calibri;font-weight:700;}.cls-3{letter-spacing:-0.05em;}.cls-5{letter-spacing:-0.01em;}.cls-6{font-size:62.24px;}.cls-7{letter-spacing:-0.01em;}.cls-10,.cls-8,.cls-9{font-size:36px;font-family:Calibri;}.cls-9{letter-spacing:-0.01em;}.cls-10{letter-spacing:-0.02em;}.cls-11{fill:none;stroke:#fff;stroke-miterlimit:10;stroke-width:2px;}</style></defs><path class="cls-1" d="M63.17,74.52H224.52A25.48,25.48,0,0,1,250,100h0a25.48,25.48,0,0,1-25.48,25.48H63.17A25.48,25.48,0,0,1,37.69,100h0A25.48,25.48,0,0,1,63.17,74.52Z"/><g class="cls-2"><text class="cls-3" transform="translate(83.28 109.06)">T</text><text class="cls-4" transform="translate(97.6 109.06)">ung</text><text class="cls-5" transform="translate(147.54 109.06)">s</text><text class="cls-5" transform="translate(160.05 109.06)">t</text><text class="cls-4" transform="translate(170.85 109.06)">en</text></g><rect class="cls-1" x="279.65" y="1" width="562.24" height="198" rx="29.85"/><g class="cls-2"><text class="cls-6" transform="translate(330.25 84.41)">Up <tspan class="cls-7" x="88.11" y="0">t</tspan><tspan x="109.08" y="0">o</tspan></text><text class="cls-6" transform="translate(330.25 146.65)">10%</text></g><g class="cls-2"><text class="cls-8" transform="translate(567.38 87.46)">Solid Solution</text><text class="cls-8" transform="translate(567.38 130.66)">St</text><text class="cls-9" transform="translate(595.98 130.66)">r</text><text class="cls-8" transform="translate(608.06 130.66)">en</text><text class="cls-10" transform="translate(644.88 130.66)">g</text><text class="cls-8" transform="translate(661.28 130.66)">thening</text></g><line class="cls-11" x1="523.9" y1="32.59" x2="523.9" y2="167.41"/></svg>