<?xml version="1.0" encoding="utf-8"?>
<!-- Generator: Adobe Illustrator 23.0.0, SVG Export Plug-In . SVG Version: 6.00 Build 0)  -->
<svg version="1.1" id="图层_1" xmlns="http://www.w3.org/2000/svg" xmlns:xlink="http://www.w3.org/1999/xlink" x="0px" y="0px"
	 viewBox="0 0 128.3 112.4" style="enable-background:new 0 0 128.3 112.4;" xml:space="preserve">
<style type="text/css">
	.st0{fill:#32558E;}
</style>
<title>画板 6</title>
<g>
	<polygon class="st0" points="79.6,70.5 68.7,80.3 66.9,75.2 66.9,75.2 60.6,57.8 1.1,84.2 67,35.4 69.2,41.6 73,52.2 76.1,60.4 
		107.6,45.5 79.7,70.5 79.7,70.5 	"/>
	<path class="st0" d="M43,43.8c3.9-22.2,25.2-37,47.3-32.9c8.5,1.5,16.2,5.7,22.2,11.8C93.9-1.6,59.3-6.2,35,12.4
		C18.8,24.7,10.7,45.1,14.1,65.2L43,43.8z"/>
	<path class="st0" d="M96.8,89.4c-8.7,3.1-18.4,3.2-27.2,0.1l-4.1,3.8L63,86.5c-6.3-3.5-11.5-8.6-15-14.8L20.7,83.7
		c15.2,26.4,48.9,35.6,75.4,20.3c17.8-10.2,28.4-29.4,27.6-49.9C122.5,70.3,112,84,96.8,89.4z"/>
	<circle class="st0" cx="119.9" cy="37.4" r="7.3"/>
</g>
</svg>
