<svg id="图层_1" data-name="图层 1" xmlns="http://www.w3.org/2000/svg" viewBox="0 0 1111 672.27"><defs><style>.cls-1,.cls-10,.cls-8,.cls-9{fill:none;stroke-miterlimit:10;}.cls-1{stroke:#999899;stroke-width:3px;}.cls-2{isolation:isolate;}.cls-2,.cls-7{font-size:36px;fill:#231815;font-family:Calibri-Bold, Calibri;font-weight:700;}.cls-3{letter-spacing:-0.01em;}.cls-4{letter-spacing:-0.02em;}.cls-5{letter-spacing:-0.01em;}.cls-6{letter-spacing:-0.01em;}.cls-8{stroke:#b7c8b5;}.cls-10,.cls-8,.cls-9{stroke-linecap:round;stroke-width:6px;}.cls-9{stroke:#fba971;}.cls-10{stroke:#2f5288;}</style></defs><line class="cls-1" x1="155" y1="79.61" x2="1096.43" y2="79.61"/><line class="cls-1" x1="155" y1="198.99" x2="1096.43" y2="198.99"/><line class="cls-1" x1="155" y1="322.85" x2="1096.43" y2="322.85"/><line class="cls-1" x1="155" y1="440.93" x2="1096.43" y2="440.93"/><line class="cls-1" x1="324.34" y1="556.66" x2="324.34" y2="15.51"/><line class="cls-1" x1="1001.67" y1="556.66" x2="1001.67" y2="15.51"/><text class="cls-2" transform="translate(91.36 86.06)">0.4</text><text class="cls-2" transform="translate(91.36 205.44)">0.5</text><text class="cls-2" transform="translate(91.36 329.3)">0.2</text><text class="cls-2" transform="translate(44.14 433.27) rotate(-90)">C<tspan class="cls-3" x="19.05" y="0">r</tspan><tspan x="31.45" y="0">eep </tspan><tspan class="cls-4" x="95.15" y="0">r</tspan><tspan class="cls-5" x="107.16" y="0">a</tspan><tspan class="cls-6" x="124.59" y="0">t</tspan><tspan x="136.63" y="0">e / ×10</tspan></text><text class="cls-7" transform="translate(32.15 192.35) rotate(-90) scale(0.58)">-2</text><text class="cls-7" transform="translate(44.14 175.29) rotate(-90)">h</text><text class="cls-7" transform="translate(32.15 155.97) rotate(-90) scale(0.58)">-1</text><text class="cls-2" transform="translate(91.36 447.38)">0.1</text><text class="cls-2" transform="translate(119.22 563.11)">0</text><text class="cls-2" transform="translate(296.97 595.43)">100</text><line class="cls-1" x1="493.67" y1="556.66" x2="493.67" y2="15.51"/><text class="cls-2" transform="translate(466.3 595.43)">200</text><text class="cls-2" transform="translate(561.12 657.72)">Time / h</text><text class="cls-2" transform="translate(974.3 595.43)">500</text><line class="cls-1" x1="832.34" y1="556.66" x2="832.34" y2="15.51"/><text class="cls-2" transform="translate(804.97 595.43)">400</text><line class="cls-1" x1="663" y1="556.66" x2="663" y2="15.51"/><text class="cls-2" transform="translate(635.63 595.43)">300</text><path class="cls-8" d="M887.94,521c25.09-8.63,43.72-19.62,54.27-33.48,38.64-50.76,38.69-214.41,38.69-359.64"/><path class="cls-9" d="M201.43,549.11H609.07c116,0,217-6.89,278.87-28.14"/><path class="cls-10" d="M178.51,255.37c0,53,2.86,293.74,22.92,293.74"/><rect class="cls-1" x="155" y="15.51" width="941.43" height="541.15" rx="20"/></svg>