<svg id="图层_1" data-name="图层 1" xmlns="http://www.w3.org/2000/svg" viewBox="0 0 1111 672.27"><defs><style>.cls-1,.cls-6{fill:none;stroke-miterlimit:10;}.cls-1{stroke:#999899;stroke-width:3px;}.cls-2{isolation:isolate;}.cls-2,.cls-4,.cls-5{font-size:36px;fill:#231815;font-weight:700;}.cls-2,.cls-5{font-family:Calibri-Bold, Calibri;}.cls-3{letter-spacing:-0.01em;}.cls-4{font-family:Calibri-BoldItalic, Calibri;font-style:italic;}.cls-6{stroke:#2f5288;stroke-linecap:round;stroke-width:6px;}</style></defs><line class="cls-1" x1="155" y1="159.72" x2="1096.43" y2="159.72"/><line class="cls-1" x1="155" y1="339.99" x2="1096.43" y2="339.99"/><line class="cls-1" x1="155" y1="526.26" x2="1096.43" y2="526.26"/><line class="cls-1" x1="344.81" y1="556.66" x2="344.81" y2="15.51"/><text class="cls-2" transform="translate(119.22 166.17)">6</text><text class="cls-2" transform="translate(119.22 346.44)">5</text><text class="cls-2" transform="translate(119.22 532.71)">4</text><text class="cls-2" transform="translate(44.14 333.97) rotate(-90)">l<tspan class="cls-3" x="8.84" y="0">g</tspan><tspan x="25.65" y="0">t</tspan></text><text class="cls-4" transform="translate(56.13 295.85) rotate(-90) scale(0.58 0.58)">f</text><text class="cls-5" transform="translate(44.14 289.27) rotate(-90)"><tspan xml:space="preserve"> / h</tspan></text><text class="cls-2" transform="translate(321.05 595.43)">-11</text><text class="cls-2" transform="translate(131.25 595.43)">-12</text><line class="cls-1" x1="534.66" y1="556.66" x2="534.66" y2="15.51"/><text class="cls-2" transform="translate(510.9 595.43)">-10</text><text class="cls-2" transform="translate(572.94 657.72)">lgε / s</text><text class="cls-5" transform="translate(661.43 645.73) scale(0.58)">-1</text><text class="cls-2" transform="translate(1070.63 595.43)">-7</text><line class="cls-1" x1="724.51" y1="556.66" x2="724.51" y2="15.51"/><text class="cls-2" transform="translate(709.87 595.43)">-9</text><line class="cls-1" x1="911.49" y1="556.66" x2="911.49" y2="15.51"/><text class="cls-2" transform="translate(896.86 595.43)">-8</text><rect class="cls-1" x="155" y="15.51" width="941.43" height="541.15" rx="20"/><line class="cls-6" x1="337.64" y1="114.32" x2="938" y2="436.71"/></svg>