<svg id="图层_1" data-name="图层 1" xmlns="http://www.w3.org/2000/svg" viewBox="0 0 1111 672.27"><defs><style>.cls-1,.cls-7{fill:none;stroke-miterlimit:10;}.cls-1{stroke:#999899;stroke-width:3px;}.cls-2{isolation:isolate;}.cls-2,.cls-5,.cls-6{font-size:36px;fill:#231815;font-family:Calibri-Bold, Calibri;font-weight:700;}.cls-3{letter-spacing:-0.02em;}.cls-4{letter-spacing:-0.01em;}.cls-6{letter-spacing:0em;}.cls-7{stroke:#2f5288;stroke-linecap:round;stroke-width:6px;}</style></defs><line class="cls-1" x1="155" y1="112.89" x2="1096.43" y2="112.89"/><line class="cls-1" x1="155" y1="334.91" x2="1096.43" y2="334.91"/><line class="cls-1" x1="341.18" y1="556.66" x2="341.18" y2="15.51"/><text class="cls-2" transform="translate(64.48 119.34)">1000</text><text class="cls-2" transform="translate(82.73 341.36)">100</text><text class="cls-2" transform="translate(100.97 564.14)">10</text><text class="cls-2" transform="translate(44.14 414.57) rotate(-90)">F<tspan class="cls-3" x="16.52" y="0">r</tspan><tspan x="28.53" y="0">actu</tspan><tspan class="cls-4" x="93.16" y="0">r</tspan><tspan x="105.56" y="0">e Time / h</tspan></text><text class="cls-2" transform="translate(318.13 595.43)">8.6</text><text class="cls-2" transform="translate(131.95 595.43)">8.4</text><line class="cls-1" x1="519.61" y1="556.66" x2="519.61" y2="15.51"/><text class="cls-2" transform="translate(496.56 595.43)">8.8</text><text class="cls-2" transform="translate(535.91 657.72)">×10</text><text class="cls-5" transform="translate(590.33 645.73) scale(0.58)">-4 </text><text class="cls-5" transform="translate(612.14 657.72)">T</text><text class="cls-6" transform="translate(629.96 645.73) scale(0.58)">-1</text><text class="cls-5" transform="translate(647.03 657.72)"><tspan xml:space="preserve"> / K</tspan></text><text class="cls-6" transform="translate(698.46 645.73) scale(0.58)">-1</text><text class="cls-2" transform="translate(1062.21 595.43)">9.4</text><line class="cls-1" x1="703.73" y1="556.66" x2="703.73" y2="15.51"/><text class="cls-2" transform="translate(680.68 595.43)">9.0</text><line class="cls-1" x1="897.9" y1="556.66" x2="897.9" y2="15.51"/><text class="cls-2" transform="translate(874.85 595.43)">9.2</text><rect class="cls-1" x="155" y="15.51" width="941.43" height="541.15" rx="20"/><line class="cls-7" x1="200.09" y1="438.86" x2="884.32" y2="72.77"/></svg>