<svg id="图层_1" data-name="图层 1" xmlns="http://www.w3.org/2000/svg" viewBox="0 0 1111 672.27"><defs><style>.cls-1,.cls-9{fill:none;stroke-miterlimit:10;}.cls-1{stroke:#999899;stroke-width:3px;}.cls-2{isolation:isolate;}.cls-2,.cls-3{font-size:36px;fill:#231815;font-family:Calibri-Bold, Calibri;font-weight:700;}.cls-4{letter-spacing:-0.02em;}.cls-5{letter-spacing:-0.01em;}.cls-6{letter-spacing:-0.01em;}.cls-7{letter-spacing:-0.01em;}.cls-8{letter-spacing:-0.01em;}.cls-9{stroke:#2f5288;stroke-linecap:round;stroke-width:6px;}</style></defs><line class="cls-1" x1="155" y1="68.69" x2="1096.43" y2="68.69"/><line class="cls-1" x1="155" y1="231.1" x2="1096.43" y2="231.1"/><line class="cls-1" x1="155" y1="395.88" x2="1096.43" y2="395.88"/><line class="cls-1" x1="228.03" y1="556.66" x2="228.03" y2="15.51"/><text class="cls-2" transform="translate(90.33 75.14)">10</text><text class="cls-3" transform="translate(126.83 63.15) scale(0.58)">4</text><text class="cls-2" transform="translate(90.33 237.55)">10</text><text class="cls-3" transform="translate(126.83 225.56) scale(0.58)">3</text><text class="cls-2" transform="translate(90.33 402.33)">10</text><text class="cls-3" transform="translate(126.83 390.34) scale(0.58)">2</text><text class="cls-2" transform="translate(44.14 414.57) rotate(-90)">F<tspan class="cls-4" x="16.52" y="0">r</tspan><tspan x="28.53" y="0">actu</tspan><tspan class="cls-5" x="93.16" y="0">r</tspan><tspan x="105.56" y="0">e Time / h</tspan></text><text class="cls-2" transform="translate(204.46 595.43)">10</text><text class="cls-3" transform="translate(240.96 583.44) scale(0.58)">1</text><line class="cls-1" x1="516.75" y1="556.66" x2="516.75" y2="15.51"/><text class="cls-2" transform="translate(493.18 595.43)">10</text><text class="cls-3" transform="translate(529.67 583.44) scale(0.58)">2</text><text class="cls-2" transform="translate(361.57 657.72)">The Time the Thi<tspan class="cls-6" x="249.66" y="0">r</tspan><tspan x="262.02" y="0">d S</tspan><tspan class="cls-7" x="306.49" y="0">t</tspan><tspan x="318.62" y="0">a</tspan><tspan class="cls-8" x="336.39" y="0">g</tspan><tspan x="353.07" y="0">e Begins / h</tspan></text><text class="cls-2" transform="translate(1061.69 595.43)">10</text><text class="cls-3" transform="translate(1098.19 583.44) scale(0.58)">4</text><line class="cls-1" x1="801.88" y1="556.66" x2="801.88" y2="15.51"/><text class="cls-2" transform="translate(778.32 595.43)">10</text><text class="cls-3" transform="translate(814.81 583.44) scale(0.58)">3</text><rect class="cls-1" x="155" y="15.51" width="941.43" height="541.15" rx="20"/><line class="cls-9" x1="277.46" y1="464.65" x2="1021.82" y2="57.01"/></svg>