<?xml version="1.0" encoding="utf-8"?>
<!-- Generator: Adobe Illustrator 23.0.0, SVG Export Plug-In . SVG Version: 6.00 Build 0)  -->
<svg version="1.1" id="图层_1" xmlns="http://www.w3.org/2000/svg" xmlns:xlink="http://www.w3.org/1999/xlink" x="0px" y="0px"
	 viewBox="0 0 141.7 141.7" style="enable-background:new 0 0 141.7 141.7;" xml:space="preserve">
<style type="text/css">
	.st0{fill:#666666;}
</style>
<g>
	<path class="st0" d="M90.2,49.2V14.5c0-3.9-3.1-7-7-7H58.5c-3.9,0-7,3.1-7,7v34.7c0,3.9-3.1,7-7,7H34.4c-4.2,0-6.5,4.9-3.8,8.1
		l34.9,42c2.8,3.4,8,3.4,10.8,0l34.9-42c2.7-3.2,0.4-8.1-3.8-8.1H97.2C93.4,56.2,90.2,53.1,90.2,49.2z"/>
	<path class="st0" d="M114.4,134.2H27.3c-1.9,0-3.4-1.5-3.4-3.4v-14.5c0-1.9,1.5-3.4,3.4-3.4h87.2c1.9,0,3.4,1.5,3.4,3.4v14.5
		C117.9,132.7,116.3,134.2,114.4,134.2z"/>
</g>
</svg>
