<?xml version="1.0" encoding="utf-8"?>
<!-- Generator: Adobe Illustrator 22.1.0, SVG Export Plug-In . SVG Version: 6.00 Build 0)  -->
<svg version="1.1" id="图层_1" xmlns="http://www.w3.org/2000/svg" xmlns:xlink="http://www.w3.org/1999/xlink" x="0px" y="0px"
	 viewBox="0 0 75.8 75.8" style="enable-background:new 0 0 75.8 75.8;" xml:space="preserve">
<style type="text/css">
	.st0{fill:#F1F3EC;}
</style>
<title>画板 27</title>
<g>
	<path class="st0" d="M42.7,37.3l17.6-17.6c-1.2-0.8-2.7-1.3-4.3-1.3H19.8c-1.6,0-3.1,0.5-4.3,1.3l17.6,17.6
		C35.7,40,40.1,40,42.7,37.3z"/>
	<path class="st0" d="M28.6,37.1L13.4,21.9c-0.8,1.2-1.3,2.7-1.3,4.3v23.4c0,1.5,0.5,3,1.2,4.2L28.6,37.1z"/>
	<g>
		<path class="st0" d="M45,39.3l-0.2,0.2c-1.9,1.9-4.4,2.9-7,2.9c-2.5,0-5-1-6.9-2.9l-0.2-0.2L15.4,55.9c1.3,0.9,2.8,1.4,4.4,1.4H56
			c1.6,0,3.2-0.5,4.4-1.4L45,39.3z"/>
		<path class="st0" d="M62.4,21.9L47.1,37.1l15.3,16.6c0.8-1.2,1.2-2.6,1.2-4.2V26.2C63.7,24.6,63.2,23.1,62.4,21.9z"/>
	</g>
</g>
</svg>
