<?xml version="1.0" encoding="utf-8"?>
<!-- Generator: Adobe Illustrator 23.0.0, SVG Export Plug-In . SVG Version: 6.00 Build 0)  -->
<svg version="1.1" id="图层_1" xmlns="http://www.w3.org/2000/svg" xmlns:xlink="http://www.w3.org/1999/xlink" x="0px" y="0px"
	 viewBox="0 0 75.8 75.8" style="enable-background:new 0 0 75.8 75.8;" xml:space="preserve">
<style type="text/css">
	.st0{fill:#323333;}
	.st1{fill:#FFFFFF;}
	.st2{fill:none;stroke:#323333;stroke-width:2.5937;stroke-miterlimit:10;}
</style>
<title>画板 27</title>
<circle id="_路径_" class="st0" cx="37.9" cy="37.9" r="36.9"/>
<path id="_矩形_" class="st1" d="M22.2,21h31.3c3.7,0,6.7,3,6.7,6.7v20.2c0,3.7-3,6.7-6.7,6.7H22.2c-3.7,0-6.7-3-6.7-6.7V27.7
	C15.5,24,18.5,21,22.2,21z"/>
<path id="_路径_2" class="st2" d="M14.2,19.3c0.3,0.6,0.7,1.2,1.2,1.7l17.3,17.3c2.8,2.8,7.4,2.8,10.2,0L60.3,21
	c0.5-0.5,0.9-1,1.2-1.7L14.2,19.3z"/>
<line id="_路径_3" class="st2" x1="16.9" y1="53" x2="31.7" y2="37.1"/>
<line id="_路径_4" class="st2" x1="58.9" y1="53" x2="44.1" y2="37.1"/>
</svg>
