<?xml version="1.0" encoding="utf-8"?>
<!-- Generator: $$$/GeneralStr/196=Adobe Illustrator 27.6.0, SVG Export Plug-In . SVG Version: 6.00 Build 0)  -->
<svg version="1.1" id="图层_1" xmlns="http://www.w3.org/2000/svg" xmlns:xlink="http://www.w3.org/1999/xlink" x="0px" y="0px"
	 viewBox="0 0 222.8 222.8" style="enable-background:new 0 0 222.8 222.8;" xml:space="preserve">
<style type="text/css">
	.st0{fill:#333333;}
</style>
<path class="st0" d="M111.5,2.1C50.9,2.1,1.2,51.7,1.2,112.4c0,54.4,39.8,99.8,91.9,109l0.6-0.4c-0.2,0-0.4-0.1-0.6-0.1V143H65.5
	v-30.6h27.6V87.9C93.1,60.3,110.8,45,136,45c8,0,16.5,1.2,24.5,2.4v28.2h-14.1c-13.4,0-16.5,6.8-16.5,15.3v21.5h29.4l-4.9,30.6
	h-24.5v77.8c-0.2,0-0.4,0.1-0.6,0.1l0.6,0.4c52.1-9.1,91.9-54.4,91.9-109C221.8,51.7,172.1,2.1,111.5,2.1z"/>
</svg>
