<?xml version="1.0" encoding="utf-8"?>
<!-- Generator: Adobe Illustrator 23.0.0, SVG Export Plug-In . SVG Version: 6.00 Build 0)  -->
<svg version="1.1" id="图层_1" xmlns="http://www.w3.org/2000/svg" xmlns:xlink="http://www.w3.org/1999/xlink" x="0px" y="0px"
	 viewBox="0 0 75.8 75.8" style="enable-background:new 0 0 75.8 75.8;" xml:space="preserve">
<style type="text/css">
	.st0{fill:#323333;}
	.st1{fill:#FFFFFF;}
</style>
<title>画板 32</title>
<circle id="_路径_" class="st0" cx="37.9" cy="37.9" r="36.9"/>
<path id="_复合路径_" class="st1" d="M50.8,15.5H25.7c-2.9,0-5.3,2.4-5.3,5.3v34.3c0,2.9,2.4,5.3,5.3,5.3l0,0h25.1
	c2.9,0,5.3-2.4,5.3-5.3l0,0V20.8C56,17.9,53.8,15.6,50.8,15.5L50.8,15.5z M26.2,45.5h22c0.9,0,1.6,0.7,1.6,1.6s-0.7,1.6-1.6,1.6h-22
	c-0.9,0-1.6-0.7-1.6-1.6C24.6,46.2,25.3,45.5,26.2,45.5z M24.6,41c0-0.9,0.7-1.6,1.6-1.6h18.7c0.9,0.1,1.5,0.8,1.4,1.7
	c-0.1,0.8-0.7,1.4-1.4,1.4H26.2C25.3,42.5,24.6,41.8,24.6,41z M50.4,54.7H26.2c-0.9,0-1.6-0.7-1.6-1.6s0.7-1.6,1.6-1.6h24.2
	c0.9,0,1.6,0.7,1.6,1.6C51.8,54,51.2,54.7,50.4,54.7z M50.4,36.5H26.2c-0.9,0-1.6-0.7-1.6-1.6s0.7-1.6,1.6-1.6h24.2
	c0.9,0,1.6,0.7,1.6,1.6C51.8,35.8,51.2,36.5,50.4,36.5z M24.6,28.8c0-0.9,0.7-1.6,1.6-1.6l0,0h15.5c0.9,0,1.6,0.7,1.6,1.6
	c0,0.9-0.7,1.6-1.6,1.6H26.2C25.3,30.4,24.6,29.7,24.6,28.8z M50.4,24.3H26.2c-0.9,0-1.6-0.7-1.6-1.6c0-0.9,0.7-1.6,1.6-1.6h24.2
	c0.9,0,1.6,0.7,1.6,1.6C51.9,23.6,51.2,24.3,50.4,24.3z"/>
</svg>
