<?xml version="1.0" encoding="utf-8"?>
<!-- Generator: Adobe Illustrator 23.0.0, SVG Export Plug-In . SVG Version: 6.00 Build 0)  -->
<svg version="1.1" id="图层_1" xmlns="http://www.w3.org/2000/svg" xmlns:xlink="http://www.w3.org/1999/xlink" x="0px" y="0px"
	 viewBox="0 0 222.3 222.3" style="enable-background:new 0 0 222.3 222.3;" xml:space="preserve">
<style type="text/css">
	.st0{fill:#333333;}
</style>
<title>LEADS</title>
<path id="_复合路径_" class="st0" d="M209.9,0H12.5C5.6,0,0,5.6,0,12.5v197.4c0,6.9,5.6,12.4,12.5,12.5h197.4
	c6.9,0,12.4-5.6,12.5-12.5V12.5C222.3,5.6,216.7,0,209.9,0z M63,188.2H33.6V86.9H63V188.2z M48.3,69.1c-9.5,0-17.2-7.7-17.2-17.1
	c0-9.5,7.7-17.2,17.1-17.2c9.5,0,17.2,7.7,17.2,17.1c0,0,0,0,0,0.1C65.4,61.4,57.8,69.1,48.3,69.1z M186.9,115.2v73h-29.3v-60.6
	c0-3.1,0.3-6.4-1.3-9.2c-5-9-16-12.7-25.5-8.7c-3.3,1.3-6.4,3.4-8.8,6c-2.1,2.3-3.3,5.4-3.3,8.5v64H87.1V85.4h31.7v14.7
	c3.8-5.8,8.9-10.7,14.9-14.2c3.5-2,10.4-4.4,19.3-4.5c6.2-0.1,12.3,1.5,17.7,4.6c4.6,2.3,8.5,5.8,11.3,10.2
	C187.2,104.3,186.9,115.2,186.9,115.2z"/>
</svg>
