<svg id="图层_1" data-name="图层 1" xmlns="http://www.w3.org/2000/svg" viewBox="0 0 208.84 208.84"><defs><style>.cls-1{fill:#fff;}</style></defs><title>画板 2</title><path class="cls-1" d="M207.17,123.13a105.64,105.64,0,0,0,0-37.42H187a84.24,84.24,0,0,0-11-26.46L190.3,45a105,105,0,0,0-26.45-26.46L149.59,32.79a84.22,84.22,0,0,0-26.46-11V1.67a105.64,105.64,0,0,0-37.42,0V21.83a84.22,84.22,0,0,0-26.46,11L45,18.54A104.85,104.85,0,0,0,18.54,45L32.79,59.25a84.22,84.22,0,0,0-11,26.46H1.67a105.64,105.64,0,0,0,0,37.42H21.83a84.22,84.22,0,0,0,11,26.46L18.54,163.85A105,105,0,0,0,45,190.3l14.25-14.25a84.24,84.24,0,0,0,26.46,11v20.15a105.64,105.64,0,0,0,37.42,0V187a84.24,84.24,0,0,0,26.46-11l14.26,14.25a105.2,105.2,0,0,0,26.45-26.45l-14.25-14.26a84.24,84.24,0,0,0,11-26.46ZM104.42,153.06a48.64,48.64,0,1,1,48.64-48.64A48.64,48.64,0,0,1,104.42,153.06Z"/></svg>