<?xml version="1.0" encoding="utf-8"?>
<!-- Generator: Adobe Illustrator 22.1.0, SVG Export Plug-In . SVG Version: 6.00 Build 0)  -->
<svg version="1.1" id="图层_1" xmlns="http://www.w3.org/2000/svg" xmlns:xlink="http://www.w3.org/1999/xlink" x="0px" y="0px"
	 viewBox="0 0 137.3 308.6" style="enable-background:new 0 0 137.3 308.6;" xml:space="preserve">
<style type="text/css">
	.st0{enable-background:new    ;}
	.st1{fill:#FFFFFF;}
</style>
<title>画板 11</title>
<g class="st0">
	<path class="st1" d="M79.6,129c5.4,1.7,10.9,3.6,16.4,5.6c5.5,2,10.4,4.5,14.9,7.5c4.4,3,8,6.6,10.8,10.9c2.8,4.2,4.1,9.4,4.1,15.5
		c0,6.9-1.5,13-4.6,18.1c-3,5.2-7.3,9.5-12.6,13c-5.4,3.5-11.7,6.3-19,8.2c-7.3,1.9-15.3,3.1-23.9,3.5l-4.5,26.7H39.7l4.4-27
		c-11.4-0.6-22.4-2.2-33.2-4.8v-25c5.8,1.6,11.8,3.2,18.2,4.5c6.4,1.4,12.6,2.4,18.7,2.9l6.5-38.7c-5.3-1.6-10.5-3.4-15.7-5.4
		c-5.2-2-9.8-4.5-13.8-7.5c-4.1-3-7.4-6.6-9.9-10.8c-2.5-4.2-3.8-9.4-3.8-15.3c0-5,1.1-9.7,3.3-14.2c2.2-4.5,5.6-8.5,10.2-12
		c4.6-3.5,10.4-6.4,17.6-8.7c7.1-2.3,15.6-3.6,25.4-4.1l3.8-21.8h21.5l-3.8,22.8c4.3,0.4,8.6,0.8,12.7,1.4c4.2,0.6,8.2,1.2,12,2v23
		c-4.4-1.2-9-2.3-14-3.2c-4.9-0.9-9.8-1.6-14.6-2L79.6,129z M63.9,93.9c-7.7,0.7-13.1,2.4-16.3,5c-3.1,2.6-4.7,5.9-4.7,9.9
		c0,3.2,1.4,5.9,4.1,8.1c2.8,2.2,6.8,4.2,12.1,6L63.9,93.9z M69.4,189c4.4-0.4,8.1-1.1,11.2-2.1c3.1-1,5.6-2.2,7.5-3.7
		c1.9-1.5,3.3-3.1,4.2-4.9c0.9-1.8,1.3-3.7,1.3-5.8c0-4.1-1.5-7.3-4.5-9.8c-3-2.5-7.7-4.7-14.3-6.5L69.4,189z"/>
</g>
</svg>
