<svg id="图层_1" data-name="图层 1" xmlns="http://www.w3.org/2000/svg" viewBox="0 0 416.2 416"><defs><style>.cls-1{fill:#333;}</style></defs><title>画板 1</title><circle class="cls-1" cx="255" cy="229" r="21"/><circle class="cls-1" cx="160" cy="229" r="21"/><path class="cls-1" d="M254,277.68A84,84,0,0,1,208.5,291h-1A84,84,0,0,1,162,277.68a5.87,5.87,0,0,0-6.36,9.87,96.55,96.55,0,0,0,104.78,0,5.87,5.87,0,0,0-6.36-9.87Z"/><path class="cls-1" d="M208,0C93.12,0,0,93.12,0,208S93.12,416,208,416s208-93.12,208-208S322.88,0,208,0ZM327.12,234.79A59.71,59.71,0,0,1,328,245c0,46.39-53.73,84-120,84S88,291.39,88,245a59.71,59.71,0,0,1,.88-10.21,29,29,0,1,1,31.64-47.28c21.42-16,51.65-26.06,85.26-26.49l13.94-73.66a2.65,2.65,0,0,1,3.09-2.1l53.09,10A21,21,0,1,1,274,104c0-.3,0-.6.05-.9l-46.6-8.82a.88.88,0,0,0-1,.7L213.91,161.1c32.13,1.1,60.94,11,81.57,26.41a29,29,0,1,1,31.64,47.28Z"/></svg>