<?xml version="1.0" encoding="utf-8"?>
<!-- Generator: Adobe Illustrator 23.0.0, SVG Export Plug-In . SVG Version: 6.00 Build 0)  -->
<svg version="1.1" id="图层_1" xmlns="http://www.w3.org/2000/svg" xmlns:xlink="http://www.w3.org/1999/xlink" x="0px" y="0px"
	 viewBox="0 0 75.8 75.8" style="enable-background:new 0 0 75.8 75.8;" xml:space="preserve">
<style type="text/css">
	.st0{fill:#323333;}
	.st1{fill:#FFFFFF;stroke:#FFFFFF;stroke-width:1.732;stroke-miterlimit:10;}
	.st2{fill:#FFFFFF;stroke:#FFFFFF;stroke-width:2.598;stroke-miterlimit:10;}
</style>
<title>画板 26</title>
<circle id="_路径_" class="st0" cx="37.9" cy="37.9" r="36.9"/>
<path id="_路径_2" class="st1" d="M39.8,49.1c-3-2.1-5.6-4.9-7.6-8c-2-3.1-3.4-6.6-4-10.2l-6.2-9.7c-1,6.5,0.9,14.9,5.9,22.6
	s11.8,13.1,18.1,15L39.8,49.1z"/>
<path id="_路径_3" class="st2" d="M22.8,18.4c0.5-1,1.1-2,1.9-2.8c1.1-1.2,3-1.2,4.1-0.1c0.2,0.2,0.3,0.3,0.5,0.5l4.5,7.1
	c0.5,0.8,0.3,1.9-0.5,2.4c-0.1,0.1-0.3,0.1-0.4,0.2c-2.3,0.9-5.5,2.5-4.8,5l-5-7.9C22.2,21.6,22.1,19.9,22.8,18.4z"/>
<path id="_路径_4" class="st2" d="M47.6,59.1c1.5,0.2,3.1,0,4.5-0.5c1.5-0.5,2.4-2.2,1.9-3.7c-0.1-0.2-0.2-0.4-0.3-0.6l-4.6-7.1
	c-0.5-0.8-1.6-1.1-2.4-0.5c-0.1,0.1-0.2,0.2-0.3,0.2c-1.7,1.7-4.6,3.8-6.7,2.2l5.5,8.5C45.8,58.5,46.6,59,47.6,59.1z"/>
</svg>
