<?xml version="1.0" encoding="utf-8"?>
<!-- Generator: Adobe Illustrator 23.0.0, SVG Export Plug-In . SVG Version: 6.00 Build 0)  -->
<svg version="1.1" id="图层_1" xmlns="http://www.w3.org/2000/svg" xmlns:xlink="http://www.w3.org/1999/xlink" x="0px" y="0px"
	 viewBox="0 0 267.3 219.4" style="enable-background:new 0 0 267.3 219.4;" xml:space="preserve">
<style type="text/css">
	.st0{fill:#333333;}
</style>
<title>画板 10</title>
<path id="_路径_" class="st0" d="M235.7,15.3c-3.5,1-6.9,1.8-10,2.3c-20.7-22.4-55.7-23.7-78-3c-14.6,13.5-20.8,33.7-16.3,53
	c-21.9-0.8-43.4-6.4-63-16.3C48.8,41.4,31.6,27.3,18,10c-1.9,3.3-11.6,21.1-5.3,43C16.4,65.5,24.2,76.3,35,83.7
	c-8.7,0.1-17.2-2.2-24.7-6.7c-0.8,26,17.2,48.7,42.7,54c-7.4,3.5-15.9,4.1-23.7,1.7c7.3,22.2,27.6,37.6,51,38.7
	c-22.5,18.3-51.7,26.3-80.3,22c20.4,13.6,43.7,22.1,68,25c25.8,3,51.9-0.5,76-10.3c60-24.7,82.3-79.4,85.7-88
	c8.1-20.9,11.6-43.3,10.3-65.7c5.7-3.6,11-7.8,15.7-12.7c4.5-4.6,8.4-9.8,11.7-15.3c-5,2.6-10.2,4.6-15.7,6c-4.7,1.2-9.5,2-14.3,2.3
	c5.1-3.5,9.6-7.8,13.3-12.7c4.3-5.5,7.5-11.7,9.7-18.3c-1.8,1.6-3.6,3.1-5.7,4.3c-3.3,2.1-6.9,3.6-10.7,4.7
	C241.4,13.6,238.6,14.5,235.7,15.3z"/>
</svg>
