<svg id="图层_1" data-name="图层 1" xmlns="http://www.w3.org/2000/svg" viewBox="0 0 788.41 275.12"><defs><style>.cls-1{fill:#eee;}.cls-2{font-size:16px;font-family:Calibri-Bold, Calibri;font-weight:700;}.cls-2,.cls-8{fill:#323333;}.cls-3{letter-spacing:-0.02em;}.cls-4{letter-spacing:0em;}.cls-5{letter-spacing:-0.01em;}.cls-6{letter-spacing:-0.01em;}.cls-7{fill:#fff;stroke:#323333;stroke-linecap:round;stroke-miterlimit:10;stroke-width:3px;}.cls-8{font-size:12px;font-family:Calibri;}.cls-9{letter-spacing:-0.03em;}.cls-10{letter-spacing:-0.01em;}.cls-11{letter-spacing:-0.01em;}.cls-12{letter-spacing:-0.03em;}</style></defs><title>grades</title><polygon class="cls-1" points="616.3 63.78 502.91 63.78 518.1 7.09 631.49 7.09 616.3 63.78"/><text class="cls-2" transform="translate(545.62 30.38)">Monel<tspan x="9.41" y="19.2">400</tspan></text><polygon class="cls-1" points="773.22 63.78 659.84 63.78 675.03 7.09 788.41 7.09 773.22 63.78"/><text class="cls-2" transform="translate(702.55 30.38)">Monel<tspan class="cls-3" x="2.75" y="19.2">K</tspan><tspan x="11.18" y="19.2">-500</tspan></text><polygon class="cls-1" points="113.39 63.78 0 63.78 15.19 7.09 128.58 7.09 113.39 63.78"/><text class="cls-2" transform="translate(40.25 30.38)">In<tspan class="cls-4" x="12.85" y="0">c</tspan><tspan x="19.47" y="0">ol</tspan><tspan class="cls-5" x="32" y="0">o</tspan><tspan x="40.51" y="0">y</tspan><tspan x="11.88" y="19.2">825</tspan></text><polygon class="cls-1" points="270.31 63.78 156.92 63.78 172.11 7.09 285.5 7.09 270.31 63.78"/><text class="cls-2" transform="translate(197.17 30.38)">In<tspan class="cls-4" x="12.85" y="0">c</tspan><tspan x="19.47" y="0">ol</tspan><tspan class="cls-5" x="32" y="0">o</tspan><tspan x="40.51" y="0">y</tspan><tspan x="1.85" y="19.2">800(H)</tspan></text><polygon class="cls-1" points="270.31 173 156.92 173 172.11 116.3 285.5 116.3 270.31 173"/><text class="cls-2" transform="translate(197.17 139.59)">In<tspan class="cls-4" x="12.85" y="0">c</tspan><tspan x="19.47" y="0">ol</tspan><tspan class="cls-5" x="32" y="0">o</tspan><tspan x="40.51" y="0">y</tspan><tspan class="cls-6" x="4.68" y="19.2">A</tspan><tspan x="14.18" y="19.2">-286</tspan></text><line class="cls-7" x1="465.07" y1="35.43" x2="510.51" y2="35.43"/><text class="cls-8" transform="translate(481.44 28.85)">Cu</text><line class="cls-7" x1="622.95" y1="35.43" x2="668.38" y2="35.43"/><text class="cls-8" transform="translate(640.81 28.85)">Al</text><text class="cls-8" transform="translate(641.36 49.68)">Ti</text><polygon class="cls-1" points="616.3 173.81 502.91 173.81 518.1 117.11 631.49 117.11 616.3 173.81"/><text class="cls-2" transform="translate(542.88 140.4)">In<tspan class="cls-4" x="12.85" y="0">c</tspan><tspan x="19.47" y="0">onel</tspan><tspan class="cls-9" x="5.55" y="19.2">X</tspan><tspan x="13.86" y="19.2">-750</tspan></text><polygon class="cls-1" points="773.22 173.81 659.84 173.81 675.03 117.11 788.41 117.11 773.22 173.81"/><text class="cls-2" transform="translate(699.8 140.4)">In<tspan class="cls-4" x="12.85" y="0">c</tspan><tspan x="19.47" y="0">onel</tspan><tspan x="12.16" y="19.2">718</tspan></text><line class="cls-7" x1="622.95" y1="145.46" x2="668.38" y2="145.46"/><text class="cls-8" transform="translate(637.37 138.87)">Mo</text><text class="cls-8" transform="translate(638.64 159.7)">Nb</text><line class="cls-7" x1="450.9" y1="145.46" x2="510.51" y2="145.46"/><text class="cls-8" transform="translate(465.98 138.87)">Al, Nb</text><text class="cls-8" transform="translate(476.4 159.7)">Ti</text><polygon class="cls-1" points="265.92 275.12 152.53 275.12 167.72 218.43 281.11 218.43 265.92 275.12"/><text class="cls-2" transform="translate(186.04 241.72)">Ha<tspan class="cls-10" x="17.99" y="0">s</tspan><tspan class="cls-6" x="24.2" y="0">t</tspan><tspan x="29.55" y="0">ell</tspan><tspan class="cls-5" x="45.46" y="0">o</tspan><tspan x="53.97" y="0">y</tspan><tspan x="11.93" y="19.2">C-276</tspan></text><line class="cls-7" x1="275.71" y1="246.78" x2="335.32" y2="246.78"/><text class="cls-8" transform="translate(297.22 240.19)">Mo</text><text class="cls-8" transform="translate(300.17 261.02)">W</text><line class="cls-7" x1="277.83" y1="35.43" x2="323.26" y2="35.43"/><text class="cls-8" transform="translate(294.89 28.85)"><tspan class="cls-11">F</tspan><tspan x="5.34" y="0">e</tspan></text><text class="cls-8" transform="translate(295.25 49.68)">Cr</text><line class="cls-7" x1="120.03" y1="35.43" x2="165.47" y2="35.43"/><text class="cls-8" transform="translate(134.46 28.85)">Mo</text><text class="cls-8" transform="translate(136.4 49.68)">Cu</text><line class="cls-7" x1="216.82" y1="63.78" x2="216.82" y2="116.3"/><text class="cls-8" transform="translate(225.32 96.6)">Mo</text><text class="cls-8" transform="translate(199.71 96.6)">Ti</text><polygon class="cls-1" points="443.3 173 329.92 173 345.11 116.3 458.5 116.3 443.3 173"/><text class="cls-2" transform="translate(369.89 139.59)">In<tspan class="cls-4" x="12.85" y="0">c</tspan><tspan x="19.47" y="0">onel</tspan><tspan x="12.16" y="19.2">600</tspan></text><line class="cls-7" x1="389.81" y1="70.87" x2="389.81" y2="116.3"/><text class="cls-8" transform="translate(398.32 96.6)">Cr</text><text/><polygon class="cls-1" points="443.3 275.12 329.92 275.12 345.11 218.43 458.5 218.43 443.3 275.12"/><text class="cls-2" transform="translate(369.89 241.72)">In<tspan class="cls-4" x="12.85" y="0">c</tspan><tspan x="19.47" y="0">onel</tspan><tspan x="12.16" y="19.2">625</tspan></text><line class="cls-7" x1="389.81" y1="173" x2="389.81" y2="218.43"/><text class="cls-8" transform="translate(398.32 198.73)">Nb</text><text class="cls-8" transform="translate(364.72 198.73)">Mo</text><polygon class="cls-1" points="455.58 70.87 313.85 70.87 332.83 0 474.57 0 455.58 70.87"/><text class="cls-2" transform="translate(374.01 29.57)">Nic<tspan class="cls-12" x="21.16" y="0">k</tspan><tspan x="28.41" y="0">el</tspan><tspan x="-24.04" y="19.2">200, 201, 205</tspan></text></svg>