<svg id="图层_1" data-name="图层 1" xmlns="http://www.w3.org/2000/svg" viewBox="0 0 691.78 672.27"><defs><style>.cls-1{fill:#fff;}.cls-1,.cls-2{stroke:#999899;stroke-width:3px;}.cls-1,.cls-2,.cls-6{stroke-miterlimit:10;}.cls-2,.cls-6{fill:none;}.cls-3{isolation:isolate;font-size:24px;fill:#231815;font-family:Calibri-Bold, Calibri;font-weight:700;}.cls-4{letter-spacing:-0.02em;}.cls-5{fill:#333;}.cls-6{stroke:#333;stroke-width:6px;}</style></defs><rect class="cls-1" x="123.57" y="27.06" width="541.15" height="541.15" rx="13.13"/><line class="cls-2" x1="123.57" y1="92.83" x2="664.72" y2="92.83"/><line class="cls-2" x1="123.57" y1="155.65" x2="664.72" y2="155.65"/><line class="cls-2" x1="123.57" y1="230.56" x2="664.72" y2="230.56"/><line class="cls-2" x1="123.57" y1="299.43" x2="664.72" y2="299.43"/><line class="cls-2" x1="123.57" y1="372.29" x2="664.72" y2="372.29"/><line class="cls-2" x1="123.57" y1="442.16" x2="664.72" y2="442.16"/><line class="cls-2" x1="123.57" y1="506.02" x2="664.72" y2="506.02"/><line class="cls-2" x1="482.36" y1="568.21" x2="482.36" y2="27.06"/><line class="cls-2" x1="310.79" y1="568.21" x2="310.79" y2="27.06"/><text class="cls-3" transform="translate(72.54 31.15)">850</text><text class="cls-3" transform="translate(72.54 161.25)">650</text><text class="cls-3" transform="translate(72.54 305.03)">450</text><text class="cls-3" transform="translate(45.66 393.23) rotate(-90)">Du<tspan class="cls-4" x="28.01" y="0">r</tspan><tspan x="36.01" y="0">able Time / h</tspan></text><text class="cls-3" transform="translate(72.54 447.76)">250</text><text class="cls-3" transform="translate(72.54 572.62)">50</text><text class="cls-3" transform="translate(115.78 594.23)">0</text><text class="cls-3" transform="translate(289.34 594.23)">0.10</text><text class="cls-3" transform="translate(365.96 638.83)">C / %</text><text class="cls-3" transform="translate(460.91 594.23)">0.20</text><text class="cls-3" transform="translate(630.16 594.23)">0.30</text><circle class="cls-5" cx="574.36" cy="476.58" r="8.63"/><circle class="cls-5" cx="178.55" cy="140.92" r="8.63"/><circle class="cls-5" cx="308.25" cy="338.44" r="8.63"/><circle class="cls-5" cx="410.97" cy="416.7" r="8.63"/><circle class="cls-5" cx="216.27" cy="140.92" r="8.63"/><circle class="cls-5" cx="140.09" cy="482.92" r="8.63"/><circle class="cls-5" cx="271.65" cy="236.66" r="8.63"/><path class="cls-6" d="M140.09,482.92s14.51-319.16,39.22-341.73,42.45-8.6,97.26,117.13,175.7,202,293.91,216"/></svg>