<?xml version="1.0" encoding="utf-8"?>
<!-- Generator: Adobe Illustrator 23.0.0, SVG Export Plug-In . SVG Version: 6.00 Build 0)  -->
<svg version="1.1" id="图层_1" xmlns="http://www.w3.org/2000/svg" xmlns:xlink="http://www.w3.org/1999/xlink" x="0px" y="0px"
	 viewBox="0 0 425.2 425.2" style="enable-background:new 0 0 425.2 425.2;" xml:space="preserve">
<style type="text/css">
	.st0{fill:#666666;}
	.st1{fill:#FFFFFF;}
</style>
<title>画板 2 副本 2</title>
<circle class="st0" cx="212.6" cy="212.6" r="205.5"/>
<path class="st1" d="M330,131.4v56.9c0,5.1-4.1,9.2-9.2,9.2h0c-5.1,0-9.2-4.1-9.2-9.2v-56.9H299v56.9c0,5.1-4.1,9.2-9.2,9.2
	c-5.1,0-9.2-4.1-9.2-9.2v-56.9h-12.4v96.3c0,5.1-4.1,9.2-9.2,9.2s-9.2-4.1-9.2-9.2v-96.3h-12.4v56.9c0,5.1-4.1,9.2-9.2,9.2
	c-5.1,0-9.2-4.1-9.2-9.2v-56.9h-12.4v56.9c0,5.1-4.1,9.2-9.2,9.2h0c-5.1,0-9.2-4.1-9.2-9.2v-56.9h-12.4v56.9c0,5.1-4.1,9.2-9.2,9.2
	c-5.1,0-9.2-4.1-9.2-9.2v-56.9h-12.4v56.9c0,5.1-4.1,9.2-9.2,9.2c-5.1,0-9.2-4.1-9.2-9.2v-56.9h-12.4v96.3c0,5.1-4.1,9.2-9.2,9.2h0
	c-5.1,0-9.2-4.1-9.2-9.2v-96.2c-7,0.7-12.5,6.6-12.5,13.8V280c0,7.7,6.2,13.9,13.9,13.9h232.3c7.7,0,13.9-6.2,13.9-13.9V145.2
	C342.5,138,337,132.1,330,131.4z"/>
</svg>
