<?xml version="1.0" encoding="utf-8"?>
<!-- Generator: Adobe Illustrator 23.0.0, SVG Export Plug-In . SVG Version: 6.00 Build 0)  -->
<svg version="1.1" id="图层_1" xmlns="http://www.w3.org/2000/svg" xmlns:xlink="http://www.w3.org/1999/xlink" x="0px" y="0px"
	 viewBox="0 0 898.7 230.6" style="enable-background:new 0 0 898.7 230.6;" xml:space="preserve">
<style type="text/css">
	.st0{fill:#FFFFFF;}
	.st1{fill:none;stroke:#FFFFFF;stroke-miterlimit:10;}
	.st2{fill:none;stroke:#FFFFFF;stroke-width:2;stroke-miterlimit:10;}
	.st3{fill:none;stroke:#FFFFFF;stroke-width:2;stroke-miterlimit:10;stroke-dasharray:5.1203,5.1203;}
	.st4{fill:none;stroke:#FFFFFF;stroke-width:2;stroke-miterlimit:10;stroke-dasharray:5.1038,5.1038;}
	.st5{font-family:'Calibri-Bold';}
	.st6{font-size:18px;}
</style>
<title>hexagonbardrawing</title>
<g>
	<path class="st0" d="M211.6,43.6L211,43l-0.1-0.1l0,0l-14.8-14.8l-0.7,0.7c-27.5,27.5-42.6,64-42.6,102.8v1h22h2v-2h-2
		c0.3-32.2,12.8-62.5,35.5-85.5l1.4,1.4l1.4-1.4L211.6,43.6L211.6,43.6z"/>
	<path class="st0" d="M244.2,76.2L244.2,76.2L244.2,76.2l-0.7-0.7l0,0L242,74l-1.4,1.4l1.4,1.4c-14.1,14.5-22,33.5-22.3,53.7h-2v2h2
		l0,0h22v-1c0-15,5.9-29.2,16.5-39.9L259,91L244.2,76.2z"/>
	<rect x="182.6" y="130.6" class="st0" width="5.9" height="2"/>
	<rect x="194.3" y="130.6" class="st0" width="5.9" height="2"/>
	<rect x="206" y="130.6" class="st0" width="5.9" height="2"/>
	<rect x="225.8" y="57.3" transform="matrix(0.7071 -0.7071 0.7071 0.7071 23.8017 178.0466)" class="st0" width="2" height="5.9"/>
	<rect x="234.1" y="65.6" transform="matrix(0.7071 -0.7071 0.7071 0.7071 20.3779 186.3467)" class="st0" width="2" height="5.9"/>
	<rect x="217.6" y="49" transform="matrix(0.7071 -0.7071 0.7071 0.7071 27.2962 169.7757)" class="st0" width="2" height="5.9"/>
</g>
<g>
	<path class="st0" d="M449.6,31.6c-26.4,0.4-51.1,11-69.7,29.8c-18.6,18.8-28.8,43.8-28.8,70.2v1h21l0,0h3v-2h-2
		c0.5-41.4,34.1-75.6,75.5-76.9v2h2v-2v-1v-21L449.6,31.6z"/>
	<rect x="448.6" y="61.9" class="st0" width="2" height="6.3"/>
	<rect x="448.6" y="74.6" class="st0" width="2" height="6.3"/>
	<path class="st0" d="M448.6,89.3c-22.1,1.3-39.4,19.1-39.9,41.3h-2v2h3l0,0h21v-1c0-10.7,8.3-19.6,19-20.3l0.9-0.1v-21v-1v-2h-2
		V89.3z"/>
	<rect x="381.4" y="130.6" class="st0" width="6.3" height="2"/>
	<rect x="394" y="130.6" class="st0" width="6.3" height="2"/>
</g>
<g>
	<path class="st0" d="M683.1,34.6c-52,0-94.4,42.3-94.4,94.4v1h21h1h2v-2h-2c0.5-39.4,32.8-71.4,72.3-71.4s71.8,31.9,72.3,71.4h-2v2
		h2h1h21v-1C777.5,76.9,735.1,34.6,683.1,34.6z"/>
	<path class="st0" d="M683.1,84.2c-24.3,0-44.2,19.5-44.7,43.7h-2v2h2h1h21v-1c0-12.5,10.2-22.7,22.7-22.7s22.7,10.2,22.7,22.7v1h21
		h1h2v-2h-2C727.2,103.7,707.4,84.2,683.1,84.2z"/>
	<rect x="626.9" y="127.9" class="st0" width="4.7" height="2"/>
	<rect x="617.4" y="127.9" class="st0" width="4.7" height="2"/>
	<rect x="744" y="127.9" class="st0" width="4.7" height="2"/>
	<rect x="734.5" y="127.9" class="st0" width="4.7" height="2"/>
</g>
<line class="st1" x1="197.3" y1="89.8" x2="135.2" y2="89.8"/>
<line class="st1" x1="152.7" y1="132.6" x2="135.2" y2="132.6"/>
<g>
	<g>
		<line class="st1" x1="140.5" y1="97" x2="140.5" y2="125.4"/>
		<g>
			<polygon class="st0" points="135.5,98.5 140.5,89.8 145.5,98.5 			"/>
		</g>
		<g>
			<polygon class="st0" points="135.5,123.9 140.5,132.6 145.5,123.9 			"/>
		</g>
	</g>
</g>
<line class="st1" x1="152.7" y1="132.6" x2="152.7" y2="169.5"/>
<line class="st1" x1="588.7" y1="129.9" x2="588.7" y2="166.8"/>
<line class="st1" x1="610.8" y1="129.9" x2="610.8" y2="148.4"/>
<line class="st1" x1="624.6" y1="129.9" x2="624.6" y2="148.4"/>
<line class="st1" x1="741.7" y1="129.9" x2="741.7" y2="148.4"/>
<line class="st1" x1="241.8" y1="132.6" x2="241.8" y2="169.5"/>
<g>
	<g>
		<line class="st1" x1="159.9" y1="161.7" x2="234.6" y2="161.7"/>
		<g>
			<polygon class="st0" points="161.4,166.7 152.7,161.7 161.4,156.7 			"/>
		</g>
		<g>
			<polygon class="st0" points="233.1,166.7 241.8,161.7 233.1,156.7 			"/>
		</g>
	</g>
</g>
<g>
	<g>
		<line class="st1" x1="398" y1="161.7" x2="443.4" y2="161.7"/>
		<g>
			<polygon class="st0" points="399.5,166.7 390.9,161.7 399.5,156.7 			"/>
		</g>
		<g>
			<polygon class="st0" points="442,166.7 450.6,161.7 442,156.7 			"/>
		</g>
	</g>
</g>
<g>
	<g>
		<line class="st2" x1="226.8" y1="60.2" x2="224.7" y2="62.4"/>
		<line class="st3" x1="221.1" y1="66" x2="201.2" y2="85.9"/>
		<line class="st2" x1="199.4" y1="87.7" x2="197.3" y2="89.8"/>
	</g>
</g>
<g>
	<g>
		<line class="st2" x1="197.3" y1="131.6" x2="197.3" y2="128.6"/>
		<line class="st4" x1="197.3" y1="123.5" x2="197.3" y2="95.4"/>
		<line class="st2" x1="197.3" y1="92.8" x2="197.3" y2="89.8"/>
	</g>
</g>
<text transform="matrix(1 0 0 1 117.3392 118.1914)" class="st0 st5 st6">B</text>
<text transform="matrix(1 0 0 1 556.8987 145.6848)" class="st0 st5 st6">T</text>
<text transform="matrix(1 0 0 1 114.4952 69.752)" class="st0 st5 st6">45°</text>
<text transform="matrix(1 0 0 1 161.4 217.3156)" class="st0 st5 st6">45° Elbow</text>
<text transform="matrix(1 0 0 1 381.3999 217.3156)" class="st0 st5 st6">90° Elbow</text>
<text transform="matrix(1 0 0 1 640.4496 217.3156)" class="st0 st5 st6">180° Elbow</text>
<text transform="matrix(1 0 0 1 252.0292 139.7649)" class="st0 st5 st6">T</text>
<text transform="matrix(1 0 0 1 185.4973 182.3441)" class="st0 st5 st6">OD</text>
<g>
	<g>
		<line class="st1" x1="595.9" y1="158.5" x2="653.2" y2="158.5"/>
		<g>
			<polygon class="st0" points="597.3,163.5 588.7,158.5 597.3,153.5 			"/>
		</g>
		<g>
			<polygon class="st0" points="651.7,163.5 660.3,158.5 651.7,153.5 			"/>
		</g>
	</g>
</g>
<text transform="matrix(1 0 0 1 615.1274 178.1405)" class="st0 st5 st6">OD</text>
<text transform="matrix(1 0 0 1 677.0679 160.1629)" class="st0 st5 st6">O</text>
<text transform="matrix(1 0 0 1 415.2787 182.3441)" class="st0 st5 st6">A</text>
<text transform="matrix(1 0 0 1 471.3748 171.8276)" class="st0 st5 st6">90°</text>
<line class="st1" x1="219.8" y1="130.6" x2="219.8" y2="153.9"/>
<g>
	<g>
		<line class="st1" x1="248.9" y1="146.6" x2="264.7" y2="146.6"/>
		<g>
			<polygon class="st0" points="250.4,151.6 241.8,146.6 250.4,141.6 			"/>
		</g>
	</g>
</g>
<g>
	<g>
		<line class="st1" x1="196.9" y1="146.6" x2="212.6" y2="146.6"/>
		<g>
			<polygon class="st0" points="211.2,151.6 219.8,146.6 211.2,141.6 			"/>
		</g>
	</g>
</g>
<line class="st1" x1="197.3" y1="89.8" x2="151.8" y2="44.4"/>
<g>
	<g>
		<path class="st1" d="M140.9,82.7c1.3-10.4,5.4-19.8,11.4-27.6"/>
		<g>
			<polygon class="st0" points="146.1,81.6 140.5,89.8 136.2,80.8 			"/>
		</g>
		<g>
			<polygon class="st0" points="155.3,59.5 157.1,49.7 147.7,53 			"/>
		</g>
	</g>
</g>
<line class="st1" x1="390.9" y1="132.6" x2="390.9" y2="169.5"/>
<line class="st1" x1="450.6" y1="111.2" x2="450.6" y2="169.5"/>
<line class="st1" x1="450.6" y1="111.2" x2="487.5" y2="111.2"/>
<line class="st1" x1="450.6" y1="31.6" x2="487.5" y2="31.6"/>
<g>
	<g>
		<line class="st1" x1="479.8" y1="104" x2="479.8" y2="38.7"/>
		<g>
			<polygon class="st0" points="484.8,102.6 479.8,111.2 474.8,102.6 			"/>
		</g>
		<g>
			<polygon class="st0" points="484.8,40.2 479.8,31.6 474.8,40.2 			"/>
		</g>
	</g>
</g>
<text transform="matrix(1 0 0 1 473.6126 21.6598)" class="st0 st5 st6">T</text>
<text transform="matrix(1 0 0 1 486.2364 77.7388)" class="st0 st5 st6">OD</text>
<line class="st1" x1="448.7" y1="54" x2="472" y2="54"/>
<g>
	<g>
		<line class="st1" x1="464.7" y1="24.4" x2="464.7" y2="8.6"/>
		<g>
			<polygon class="st0" points="469.7,22.9 464.7,31.6 459.7,22.9 			"/>
		</g>
	</g>
</g>
<g>
	<g>
		<line class="st1" x1="464.7" y1="76.9" x2="464.7" y2="61.2"/>
		<g>
			<polygon class="st0" points="469.7,62.7 464.7,54 459.7,62.7 			"/>
		</g>
	</g>
</g>
<line class="st1" x1="430.7" y1="132.6" x2="487.5" y2="132.6"/>
<g>
	<g>
		<path class="st1" d="M478.9,139.7c-2.6,10.4-10.8,18.5-21.1,21.1"/>
		<g>
			<polygon class="st0" points="473.6,140.4 479.7,132.6 483.4,141.8 			"/>
		</g>
		<g>
			<polygon class="st0" points="458.4,155.5 450.6,161.7 459.9,165.4 			"/>
		</g>
	</g>
</g>
<line class="st1" x1="660.3" y1="129.9" x2="660.3" y2="166.8"/>
<g>
	<g>
		<line class="st1" x1="618" y1="139.2" x2="624.6" y2="139.2"/>
		<g>
			<polygon class="st0" points="619.4,144.1 610.8,139.2 619.4,134.2 			"/>
		</g>
	</g>
</g>
<g>
	<g>
		<line class="st1" x1="574.9" y1="139.2" x2="581.5" y2="139.2"/>
		<g>
			<polygon class="st0" points="580.1,144.1 588.7,139.2 580.1,134.2 			"/>
		</g>
	</g>
</g>
<g>
	<g>
		<line class="st1" x1="631.8" y1="139.2" x2="734.5" y2="139.2"/>
		<g>
			<polygon class="st0" points="633.3,144.1 624.6,139.2 633.3,134.2 			"/>
		</g>
		<g>
			<polygon class="st0" points="733,144.1 741.7,139.2 733,134.2 			"/>
		</g>
	</g>
</g>
</svg>
