<?xml version="1.0" encoding="utf-8"?>
<!-- Generator: Adobe Illustrator 23.0.0, SVG Export Plug-In . SVG Version: 6.00 Build 0)  -->
<svg version="1.1" id="图层_1" xmlns="http://www.w3.org/2000/svg" xmlns:xlink="http://www.w3.org/1999/xlink" x="0px" y="0px"
	 viewBox="0 0 425.2 425.2" style="enable-background:new 0 0 425.2 425.2;" xml:space="preserve">
<style type="text/css">
	.st0{fill:#666666;}
	.st1{fill:#FFFFFF;}
</style>
<title>画板 2 副本 2</title>
<circle class="st0" cx="212.6" cy="212.6" r="205.5"/>
<path class="st1" d="M336.9,233.2c2.8-15.3,2.8-30.9,0-46.2H312c-2.6-11.6-7.2-22.6-13.6-32.7l17.7-17.6
	c-8.8-12.8-19.9-23.8-32.7-32.7l-17.6,17.6c-10-6.4-21.1-11-32.7-13.6V83.2c-15.3-2.8-30.9-2.8-46.2,0v24.9
	c-11.6,2.6-22.6,7.2-32.7,13.6L136.7,104c-12.8,8.8-23.8,19.9-32.7,32.7l17.6,17.6c-6.4,10-11,21.1-13.6,32.7H83.2
	c-2.8,15.3-2.8,30.9,0,46.2h24.9c2.6,11.6,7.2,22.6,13.6,32.7L104,283.5c8.8,12.8,19.9,23.8,32.7,32.7l17.6-17.6
	c10,6.4,21.1,11,32.7,13.6V337c15.3,2.8,30.9,2.8,46.2,0V312c11.6-2.6,22.6-7.2,32.7-13.6l17.6,17.6c12.8-8.8,23.8-19.9,32.7-32.7
	l-17.6-17.6c6.4-10,11-21.1,13.6-32.7L336.9,233.2z M210.1,270.1c-33.2,0-60.1-26.9-60.1-60.1c0-33.2,26.9-60.1,60.1-60.1
	c33.2,0,60.1,26.9,60.1,60.1c0,0,0,0,0,0l0,0C270.1,243.2,243.2,270.1,210.1,270.1z"/>
</svg>
