<?xml version="1.0" encoding="utf-8"?>
<!-- Generator: Adobe Illustrator 23.0.0, SVG Export Plug-In . SVG Version: 6.00 Build 0)  -->
<svg version="1.1" xmlns="http://www.w3.org/2000/svg" xmlns:xlink="http://www.w3.org/1999/xlink" x="0px" y="0px"
	 viewBox="0 0 1263.6 620.4" style="enable-background:new 0 0 1263.6 620.4;" xml:space="preserve">
<style type="text/css">
	.st0{fill:#FFFFFF;}
	.st1{font-family:'Calibri-Bold';}
	.st2{font-size:18px;}
</style>
<g id="图层_1">
	<title>reducerdrawing</title>
	<g>
		<path class="st0" d="M106.5,140.5l3.8-2.2c0.4-0.2,0.4-0.8,0-1l-4.9-2.8c-0.2-0.1-0.3-0.3-0.3-0.5v-1.5c0-0.1,0-0.2-0.1-0.3
			c-3.3-4.3-7.9-10.3-11.2-14.6c-0.1-0.1-0.3-0.2-0.4-0.2h-8c-3,0-5.6,2.3-6,5.3l-0.5,4c-0.5,3.9-3.8,6.8-7.7,6.8h-50
			c-4.1,0-7.5,3.4-7.5,7.5V175c0,0.3,0.3,0.6,0.6,0.6h66c0.3,0,0.6,0.3,0.6,0.6v8.8c0,0.3,0.3,0.6,0.6,0.6h23.6c0.1,0,0.2,0,0.3-0.1
			l5.1-2.9c0.4-0.2,0.4-0.8,0-1l-3.8-2.2c-0.4-0.2-0.4-0.8,0-1l3.8-2.2c0.4-0.2,0.4-0.8,0-1l-3.8-2.2c-0.4-0.2-0.4-0.8,0-1l3.8-2.2
			c0.4-0.2,0.4-0.8,0-1l-3.8-2.2c-0.4-0.2-0.4-0.8,0-1l3.8-2.2c0.4-0.2,0.4-0.8,0-1l-3.8-2.2c-0.4-0.2-0.4-0.8,0-1l3.8-2.2
			c0.4-0.2,0.4-0.8,0-1l-3.8-2.2c-0.4-0.2-0.4-0.8,0-1l3.8-2.2c0.4-0.2,0.4-0.8,0-1l-3.8-2.2c-0.4-0.2-0.4-0.8,0-1l3.8-2.2
			c0.4-0.2,0.4-0.8,0-1l-3.8-2.2C106.1,141.2,106.1,140.7,106.5,140.5z"/>
		<path class="st0" d="M230.1,140.5l-3.8-2.2c-0.4-0.2-0.4-0.8,0-1l4.9-2.8c0.2-0.1,0.3-0.3,0.3-0.5v-1.5c0-0.1,0-0.2,0.1-0.3
			c3.3-4.3,7.9-10.3,11.2-14.6c0.1-0.1,0.3-0.2,0.4-0.2h8c3,0,5.6,2.3,6,5.3l0.5,4c0.5,3.9,3.8,6.8,7.7,6.8h44.3
			c4.1,0,7.5,3.4,7.5,7.5V175c0,0.3-0.3,0.6-0.6,0.6h-60.3c-0.3,0-0.6,0.3-0.6,0.6v8.8c0,0.3-0.3,0.6-0.6,0.6h-23.6
			c-0.1,0-0.2,0-0.3-0.1l-5.1-2.9c-0.4-0.2-0.4-0.8,0-1l3.8-2.2c0.4-0.2,0.4-0.8,0-1l-3.8-2.2c-0.4-0.2-0.4-0.8,0-1l3.8-2.2
			c0.4-0.2,0.4-0.8,0-1l-3.8-2.2c-0.4-0.2-0.4-0.8,0-1l3.8-2.2c0.4-0.2,0.4-0.8,0-1l-3.8-2.2c-0.4-0.2-0.4-0.8,0-1l3.8-2.2
			c0.4-0.2,0.4-0.8,0-1l-3.8-2.2c-0.4-0.2-0.4-0.8,0-1l3.8-2.2c0.4-0.2,0.4-0.8,0-1l-3.8-2.2c-0.4-0.2-0.4-0.8,0-1l3.8-2.2
			c0.4-0.2,0.4-0.8,0-1l-3.8-2.2c-0.4-0.2-0.4-0.8,0-1l3.8-2.2C230.5,141.2,230.5,140.7,230.1,140.5z"/>
		<g>
			<g>
				<path class="st0" d="M96.3,118.3h-3c-0.3,0-0.5-0.2-0.5-0.5s0.2-0.5,0.5-0.5h3c0.3,0,0.5,0.2,0.5,0.5S96.6,118.3,96.3,118.3z"/>
			</g>
			<g>
				<path class="st0" d="M234.5,118.3h-5.8c-0.3,0-0.5-0.2-0.5-0.5s0.2-0.5,0.5-0.5h5.8c0.3,0,0.5,0.2,0.5,0.5
					S234.8,118.3,234.5,118.3z M223,118.3h-5.8c-0.3,0-0.5-0.2-0.5-0.5s0.2-0.5,0.5-0.5h5.8c0.3,0,0.5,0.2,0.5,0.5
					S223.3,118.3,223,118.3z M211.5,118.3h-5.8c-0.3,0-0.5-0.2-0.5-0.5s0.2-0.5,0.5-0.5h5.8c0.3,0,0.5,0.2,0.5,0.5
					S211.8,118.3,211.5,118.3z M200,118.3h-5.8c-0.3,0-0.5-0.2-0.5-0.5s0.2-0.5,0.5-0.5h5.8c0.3,0,0.5,0.2,0.5,0.5
					S200.3,118.3,200,118.3z M188.5,118.3h-5.8c-0.3,0-0.5-0.2-0.5-0.5s0.2-0.5,0.5-0.5h5.8c0.3,0,0.5,0.2,0.5,0.5
					S188.7,118.3,188.5,118.3z M176.9,118.3h-5.8c-0.3,0-0.5-0.2-0.5-0.5s0.2-0.5,0.5-0.5h5.8c0.3,0,0.5,0.2,0.5,0.5
					S177.2,118.3,176.9,118.3z M165.4,118.3h-5.8c-0.3,0-0.5-0.2-0.5-0.5s0.2-0.5,0.5-0.5h5.8c0.3,0,0.5,0.2,0.5,0.5
					S165.7,118.3,165.4,118.3z M153.9,118.3h-5.8c-0.3,0-0.5-0.2-0.5-0.5s0.2-0.5,0.5-0.5h5.8c0.3,0,0.5,0.2,0.5,0.5
					S154.2,118.3,153.9,118.3z M142.4,118.3h-5.8c-0.3,0-0.5-0.2-0.5-0.5s0.2-0.5,0.5-0.5h5.8c0.3,0,0.5,0.2,0.5,0.5
					S142.6,118.3,142.4,118.3z M130.8,118.3h-5.8c-0.3,0-0.5-0.2-0.5-0.5s0.2-0.5,0.5-0.5h5.8c0.3,0,0.5,0.2,0.5,0.5
					S131.1,118.3,130.8,118.3z M119.3,118.3h-5.8c-0.3,0-0.5-0.2-0.5-0.5s0.2-0.5,0.5-0.5h5.8c0.3,0,0.5,0.2,0.5,0.5
					S119.6,118.3,119.3,118.3z M107.8,118.3H102c-0.3,0-0.5-0.2-0.5-0.5s0.2-0.5,0.5-0.5h5.8c0.3,0,0.5,0.2,0.5,0.5
					S108.1,118.3,107.8,118.3z"/>
			</g>
			<g>
				<path class="st0" d="M243.3,118.3h-3c-0.3,0-0.5-0.2-0.5-0.5s0.2-0.5,0.5-0.5h3c0.3,0,0.5,0.2,0.5,0.5S243.6,118.3,243.3,118.3z
					"/>
			</g>
		</g>
		<g>
			<g>
				<path class="st0" d="M107.7,185.6h-2.8c-0.3,0-0.5-0.2-0.5-0.5s0.2-0.5,0.5-0.5h2.8c0.3,0,0.5,0.2,0.5,0.5
					S107.9,185.6,107.7,185.6z"/>
			</g>
			<g>
				<path class="st0" d="M223.6,185.6h-5.3c-0.3,0-0.5-0.2-0.5-0.5s0.2-0.5,0.5-0.5h5.3c0.3,0,0.5,0.2,0.5,0.5
					S223.9,185.6,223.6,185.6z M213.1,185.6h-5.3c-0.3,0-0.5-0.2-0.5-0.5s0.2-0.5,0.5-0.5h5.3c0.3,0,0.5,0.2,0.5,0.5
					S213.4,185.6,213.1,185.6z M202.6,185.6h-5.3c-0.3,0-0.5-0.2-0.5-0.5s0.2-0.5,0.5-0.5h5.3c0.3,0,0.5,0.2,0.5,0.5
					S202.8,185.6,202.6,185.6z M192,185.6h-5.3c-0.3,0-0.5-0.2-0.5-0.5s0.2-0.5,0.5-0.5h5.3c0.3,0,0.5,0.2,0.5,0.5
					S192.3,185.6,192,185.6z M181.5,185.6h-5.3c-0.3,0-0.5-0.2-0.5-0.5s0.2-0.5,0.5-0.5h5.3c0.3,0,0.5,0.2,0.5,0.5
					S181.7,185.6,181.5,185.6z M170.9,185.6h-5.3c-0.3,0-0.5-0.2-0.5-0.5s0.2-0.5,0.5-0.5h5.3c0.3,0,0.5,0.2,0.5,0.5
					S171.2,185.6,170.9,185.6z M160.4,185.6h-5.3c-0.3,0-0.5-0.2-0.5-0.5s0.2-0.5,0.5-0.5h5.3c0.3,0,0.5,0.2,0.5,0.5
					S160.6,185.6,160.4,185.6z M149.8,185.6h-5.3c-0.3,0-0.5-0.2-0.5-0.5s0.2-0.5,0.5-0.5h5.3c0.3,0,0.5,0.2,0.5,0.5
					S150.1,185.6,149.8,185.6z M139.3,185.6H134c-0.3,0-0.5-0.2-0.5-0.5s0.2-0.5,0.5-0.5h5.3c0.3,0,0.5,0.2,0.5,0.5
					S139.6,185.6,139.3,185.6z M128.8,185.6h-5.3c-0.3,0-0.5-0.2-0.5-0.5s0.2-0.5,0.5-0.5h5.3c0.3,0,0.5,0.2,0.5,0.5
					S129,185.6,128.8,185.6z M118.2,185.6h-5.3c-0.3,0-0.5-0.2-0.5-0.5s0.2-0.5,0.5-0.5h5.3c0.3,0,0.5,0.2,0.5,0.5
					S118.5,185.6,118.2,185.6z"/>
			</g>
			<g>
				<path class="st0" d="M231.7,185.6h-2.8c-0.3,0-0.5-0.2-0.5-0.5s0.2-0.5,0.5-0.5h2.8c0.3,0,0.5,0.2,0.5,0.5
					S231.9,185.6,231.7,185.6z"/>
			</g>
		</g>
		<g>
			<g>
				<path class="st0" d="M108.1,134.4h-2.7c-0.3,0-0.5-0.2-0.5-0.5s0.2-0.5,0.5-0.5h2.7c0.3,0,0.5,0.2,0.5,0.5
					S108.3,134.4,108.1,134.4z"/>
			</g>
			<g>
				<path class="st0" d="M222.8,134.4H217c-0.3,0-0.5-0.2-0.5-0.5s0.2-0.5,0.5-0.5h5.7c0.3,0,0.5,0.2,0.5,0.5S223,134.4,222.8,134.4
					z M211.3,134.4h-5.7c-0.3,0-0.5-0.2-0.5-0.5s0.2-0.5,0.5-0.5h5.7c0.3,0,0.5,0.2,0.5,0.5S211.5,134.4,211.3,134.4z M199.8,134.4
					h-5.7c-0.3,0-0.5-0.2-0.5-0.5s0.2-0.5,0.5-0.5h5.7c0.3,0,0.5,0.2,0.5,0.5S200.1,134.4,199.8,134.4z M188.4,134.4h-5.7
					c-0.3,0-0.5-0.2-0.5-0.5s0.2-0.5,0.5-0.5h5.7c0.3,0,0.5,0.2,0.5,0.5S188.6,134.4,188.4,134.4z M176.9,134.4h-5.7
					c-0.3,0-0.5-0.2-0.5-0.5s0.2-0.5,0.5-0.5h5.7c0.3,0,0.5,0.2,0.5,0.5S177.1,134.4,176.9,134.4z M165.4,134.4h-5.7
					c-0.3,0-0.5-0.2-0.5-0.5s0.2-0.5,0.5-0.5h5.7c0.3,0,0.5,0.2,0.5,0.5S165.7,134.4,165.4,134.4z M154,134.4h-5.7
					c-0.3,0-0.5-0.2-0.5-0.5s0.2-0.5,0.5-0.5h5.7c0.3,0,0.5,0.2,0.5,0.5S154.2,134.4,154,134.4z M142.5,134.4h-5.7
					c-0.3,0-0.5-0.2-0.5-0.5s0.2-0.5,0.5-0.5h5.7c0.3,0,0.5,0.2,0.5,0.5S142.7,134.4,142.5,134.4z M131,134.4h-5.7
					c-0.3,0-0.5-0.2-0.5-0.5s0.2-0.5,0.5-0.5h5.7c0.3,0,0.5,0.2,0.5,0.5S131.3,134.4,131,134.4z M119.6,134.4h-5.7
					c-0.3,0-0.5-0.2-0.5-0.5s0.2-0.5,0.5-0.5h5.7c0.3,0,0.5,0.2,0.5,0.5S119.8,134.4,119.6,134.4z"/>
			</g>
			<g>
				<path class="st0" d="M231.2,134.4h-2.7c-0.3,0-0.5-0.2-0.5-0.5s0.2-0.5,0.5-0.5h2.7c0.3,0,0.5,0.2,0.5,0.5
					S231.5,134.4,231.2,134.4z"/>
			</g>
		</g>
		<g>
			<rect x="256.9" y="68.4" class="st0" width="1" height="43.7"/>
		</g>
		<g>
			<rect x="78.7" y="68.4" class="st0" width="1" height="43.7"/>
		</g>
		<g>
			<rect x="13.1" y="181.6" class="st0" width="1" height="36.5"/>
		</g>
		<g>
			<line class="st0" x1="317.3" y1="218.1" x2="317.3" y2="181.6"/>
			<rect x="316.8" y="181.6" class="st0" width="1" height="36.5"/>
		</g>
		<g>
			<rect x="262.6" y="117.3" class="st0" width="104.8" height="1"/>
		</g>
		<g>
			<rect x="323.1" y="174.8" class="st0" width="44.3" height="1"/>
		</g>
		<g>
			<rect x="322.4" y="132.7" class="st0" width="17.1" height="1"/>
		</g>
		<g>
			<g>
				<rect x="86.4" y="78.6" class="st0" width="163.9" height="1"/>
			</g>
			<g>
				<g>
					<polygon class="st0" points="248.8,74.1 257.4,79.1 248.8,84 					"/>
				</g>
			</g>
			<g>
				<g>
					<polygon class="st0" points="87.8,74.1 79.2,79.1 87.8,84 					"/>
				</g>
			</g>
		</g>
		<text transform="matrix(1 0 0 1 163.3516 73.9178)" class="st0 st1 st2">X</text>
		<text transform="matrix(1 0 0 1 175.1227 155.6645)" class="st0 st1 st2">T</text>
		<g>
			<g>
				<line class="st0" x1="13.6" y1="206.8" x2="317.3" y2="206.8"/>
			</g>
			<g>
				<g>
					<rect x="20.8" y="206.3" class="st0" width="289.3" height="1"/>
				</g>
				<g>
					<g>
						<polygon class="st0" points="22.3,211.8 13.6,206.8 22.3,201.8 						"/>
					</g>
				</g>
				<g>
					<g>
						<polygon class="st0" points="308.6,211.8 317.3,206.8 308.6,201.8 						"/>
					</g>
				</g>
			</g>
		</g>
		<text transform="matrix(1 0 0 1 159.3702 223.7005)" class="st0 st1 st2">O</text>
		<text transform="matrix(1 0 0 1 129.8082 257.4983)" class="st0 st1 st2">Threaded</text>
		<g>
			<g>
				<rect x="167.8" y="125.4" class="st0" width="1" height="52"/>
			</g>
			<g>
				<g>
					<polygon class="st0" points="173.3,176 168.3,184.7 163.3,176 					"/>
				</g>
			</g>
			<g>
				<g>
					<polygon class="st0" points="173.3,126.9 168.3,118.3 163.3,126.9 					"/>
				</g>
			</g>
		</g>
		<text transform="matrix(1 0 0 1 365.9694 151.0004)" class="st0 st1 st2">Y</text>
		<g>
			<g>
				<rect x="358.9" y="125.4" class="st0" width="1" height="42.7"/>
			</g>
			<g>
				<g>
					<polygon class="st0" points="364.3,166.7 359.4,175.3 354.4,166.7 					"/>
				</g>
			</g>
			<g>
				<g>
					<polygon class="st0" points="364.3,126.9 359.4,118.3 354.4,126.9 					"/>
				</g>
			</g>
		</g>
		<text transform="matrix(1 0 0 1 336.2424 158.4893)" class="st0 st1 st2">tf</text>
		<g>
			<g>
				<rect x="330.2" y="140.4" class="st0" width="1" height="27.7"/>
			</g>
			<g>
				<g>
					<polygon class="st0" points="335.6,166.7 330.7,175.3 325.7,166.7 					"/>
				</g>
			</g>
			<g>
				<g>
					<polygon class="st0" points="335.6,141.9 330.7,133.2 325.7,141.9 					"/>
				</g>
			</g>
		</g>
	</g>
	<g>
		<g>
			<rect x="466.5" y="183.8" class="st0" width="1" height="34.3"/>
		</g>
		<path class="st0" d="M526.2,130.1L526.2,130.1c-0.7,6-5.8,10.5-11.8,10.5h-40.9c-3.6,0-6.5,2.9-6.5,6.5v30.4
			c0,0.3,0.3,0.6,0.6,0.6H529c0.3,0,0.6,0.3,0.6,0.6v7.7c0,0.3,0.3,0.6,0.6,0.6h18.3v-64.1h-14.1C530.2,122.9,526.7,126,526.2,130.1
			z"/>
		<path class="st0" d="M694.9,130.1L694.9,130.1c0.7,6,5.8,10.5,11.8,10.5h40.9c3.6,0,6.5,2.9,6.5,6.5v30.4c0,0.3-0.3,0.6-0.6,0.6
			H692c-0.3,0-0.6,0.3-0.6,0.6v7.7c0,0.3-0.3,0.6-0.6,0.6h-18.3v-64.1h14.1C690.8,122.9,694.4,126,694.9,130.1z"/>
		<g>
			<g>
				<path class="st0" d="M551.2,123.8h-2.7c-0.3,0-0.5-0.2-0.5-0.5s0.2-0.5,0.5-0.5h2.7c0.3,0,0.5,0.2,0.5,0.5
					S551.5,123.8,551.2,123.8z"/>
			</g>
			<g>
				<path class="st0" d="M664.2,123.8h-5.6c-0.3,0-0.5-0.2-0.5-0.5s0.2-0.5,0.5-0.5h5.6c0.3,0,0.5,0.2,0.5,0.5
					S664.4,123.8,664.2,123.8z M652.9,123.8h-5.6c-0.3,0-0.5-0.2-0.5-0.5s0.2-0.5,0.5-0.5h5.6c0.3,0,0.5,0.2,0.5,0.5
					S653.2,123.8,652.9,123.8z M641.6,123.8H636c-0.3,0-0.5-0.2-0.5-0.5s0.2-0.5,0.5-0.5h5.6c0.3,0,0.5,0.2,0.5,0.5
					S641.9,123.8,641.6,123.8z M630.3,123.8h-5.6c-0.3,0-0.5-0.2-0.5-0.5s0.2-0.5,0.5-0.5h5.6c0.3,0,0.5,0.2,0.5,0.5
					S630.6,123.8,630.3,123.8z M619,123.8h-5.6c-0.3,0-0.5-0.2-0.5-0.5s0.2-0.5,0.5-0.5h5.6c0.3,0,0.5,0.2,0.5,0.5
					S619.3,123.8,619,123.8z M607.7,123.8h-5.6c-0.3,0-0.5-0.2-0.5-0.5s0.2-0.5,0.5-0.5h5.6c0.3,0,0.5,0.2,0.5,0.5
					S608,123.8,607.7,123.8z M596.4,123.8h-5.6c-0.3,0-0.5-0.2-0.5-0.5s0.2-0.5,0.5-0.5h5.6c0.3,0,0.5,0.2,0.5,0.5
					S596.7,123.8,596.4,123.8z M585.1,123.8h-5.6c-0.3,0-0.5-0.2-0.5-0.5s0.2-0.5,0.5-0.5h5.6c0.3,0,0.5,0.2,0.5,0.5
					S585.4,123.8,585.1,123.8z M573.8,123.8h-5.6c-0.3,0-0.5-0.2-0.5-0.5s0.2-0.5,0.5-0.5h5.6c0.3,0,0.5,0.2,0.5,0.5
					S574.1,123.8,573.8,123.8z M562.5,123.8h-5.6c-0.3,0-0.5-0.2-0.5-0.5s0.2-0.5,0.5-0.5h5.6c0.3,0,0.5,0.2,0.5,0.5
					S562.8,123.8,562.5,123.8z"/>
			</g>
			<g>
				<path class="st0" d="M672.6,123.8h-2.7c-0.3,0-0.5-0.2-0.5-0.5s0.2-0.5,0.5-0.5h2.7c0.3,0,0.5,0.2,0.5,0.5
					S672.8,123.8,672.6,123.8z"/>
			</g>
		</g>
		<g>
			<g>
				<path class="st0" d="M551.2,187h-2.7c-0.3,0-0.5-0.2-0.5-0.5s0.2-0.5,0.5-0.5h2.7c0.3,0,0.5,0.2,0.5,0.5S551.5,187,551.2,187z"
					/>
			</g>
			<g>
				<path class="st0" d="M664.2,187h-5.6c-0.3,0-0.5-0.2-0.5-0.5s0.2-0.5,0.5-0.5h5.6c0.3,0,0.5,0.2,0.5,0.5S664.4,187,664.2,187z
					 M652.9,187h-5.6c-0.3,0-0.5-0.2-0.5-0.5s0.2-0.5,0.5-0.5h5.6c0.3,0,0.5,0.2,0.5,0.5S653.2,187,652.9,187z M641.6,187H636
					c-0.3,0-0.5-0.2-0.5-0.5s0.2-0.5,0.5-0.5h5.6c0.3,0,0.5,0.2,0.5,0.5S641.9,187,641.6,187z M630.3,187h-5.6
					c-0.3,0-0.5-0.2-0.5-0.5s0.2-0.5,0.5-0.5h5.6c0.3,0,0.5,0.2,0.5,0.5S630.6,187,630.3,187z M619,187h-5.6c-0.3,0-0.5-0.2-0.5-0.5
					s0.2-0.5,0.5-0.5h5.6c0.3,0,0.5,0.2,0.5,0.5S619.3,187,619,187z M607.7,187h-5.6c-0.3,0-0.5-0.2-0.5-0.5s0.2-0.5,0.5-0.5h5.6
					c0.3,0,0.5,0.2,0.5,0.5S608,187,607.7,187z M596.4,187h-5.6c-0.3,0-0.5-0.2-0.5-0.5s0.2-0.5,0.5-0.5h5.6c0.3,0,0.5,0.2,0.5,0.5
					S596.7,187,596.4,187z M585.1,187h-5.6c-0.3,0-0.5-0.2-0.5-0.5s0.2-0.5,0.5-0.5h5.6c0.3,0,0.5,0.2,0.5,0.5S585.4,187,585.1,187z
					 M573.8,187h-5.6c-0.3,0-0.5-0.2-0.5-0.5s0.2-0.5,0.5-0.5h5.6c0.3,0,0.5,0.2,0.5,0.5S574.1,187,573.8,187z M562.5,187h-5.6
					c-0.3,0-0.5-0.2-0.5-0.5s0.2-0.5,0.5-0.5h5.6c0.3,0,0.5,0.2,0.5,0.5S562.8,187,562.5,187z"/>
			</g>
			<g>
				<path class="st0" d="M672.6,187h-2.7c-0.3,0-0.5-0.2-0.5-0.5s0.2-0.5,0.5-0.5h2.7c0.3,0,0.5,0.2,0.5,0.5S672.8,187,672.6,187z"
					/>
			</g>
		</g>
		<g>
			<rect x="695.2" y="68.4" class="st0" width="1" height="49.7"/>
		</g>
		<g>
			<rect x="672.8" y="93.3" class="st0" width="1" height="24.9"/>
		</g>
		<g>
			<rect x="547.5" y="93.3" class="st0" width="1" height="24.9"/>
		</g>
		<g>
			<rect x="524.7" y="68.4" class="st0" width="1" height="49.7"/>
		</g>
		<g>
			<rect x="753.6" y="183.8" class="st0" width="1" height="34.3"/>
		</g>
		<g>
			<rect x="699.5" y="122.4" class="st0" width="103.5" height="1"/>
		</g>
		<g>
			<rect x="760.1" y="177.6" class="st0" width="42.9" height="1"/>
		</g>
		<g>
			<rect x="760.1" y="140" class="st0" width="15.1" height="1"/>
		</g>
		<g>
			<g>
				<rect x="532.4" y="78.6" class="st0" width="156.1" height="1"/>
			</g>
			<g>
				<g>
					<polygon class="st0" points="687,74.1 695.7,79.1 687,84 					"/>
				</g>
			</g>
			<g>
				<g>
					<polygon class="st0" points="533.9,74.1 525.2,79.1 533.9,84 					"/>
				</g>
			</g>
		</g>
		<text transform="matrix(1 0 0 1 609.3781 73.9178)" class="st0 st1 st2">X</text>
		<g>
			<g>
				<rect x="555.2" y="103.9" class="st0" width="110.9" height="1"/>
			</g>
			<g>
				<g>
					<polygon class="st0" points="664.7,99.4 673.3,104.4 664.7,109.4 					"/>
				</g>
			</g>
			<g>
				<g>
					<polygon class="st0" points="556.7,99.4 548,104.4 556.7,109.4 					"/>
				</g>
			</g>
		</g>
		<text transform="matrix(1 0 0 1 609.2902 99.2612)" class="st0 st1 st2">B</text>
		<g>
			<g>
				<line class="st0" x1="467" y1="206.8" x2="754.1" y2="206.8"/>
			</g>
			<g>
				<g>
					<rect x="474.2" y="206.3" class="st0" width="272.7" height="1"/>
				</g>
				<g>
					<g>
						<polygon class="st0" points="475.6,211.8 467,206.8 475.6,201.8 						"/>
					</g>
				</g>
				<g>
					<g>
						<polygon class="st0" points="745.5,211.8 754.1,206.8 745.5,201.8 						"/>
					</g>
				</g>
			</g>
		</g>
		<text transform="matrix(1 0 0 1 604.4562 223.7005)" class="st0 st1 st2">O</text>
		<text transform="matrix(1 0 0 1 550.2976 257.4983)" class="st0 st1 st2">Slip-On Welding</text>
		<text transform="matrix(1 0 0 1 802.5778 154.6917)" class="st0 st1 st2">Y</text>
		<g>
			<g>
				<rect x="795.5" y="130.1" class="st0" width="1" height="40.8"/>
			</g>
			<g>
				<g>
					<polygon class="st0" points="801,169.4 796,178.1 791,169.4 					"/>
				</g>
			</g>
			<g>
				<g>
					<polygon class="st0" points="801,131.5 796,122.9 791,131.5 					"/>
				</g>
			</g>
		</g>
		<text transform="matrix(1 0 0 1 772.8508 163.5062)" class="st0 st1 st2">tf</text>
		<g>
			<g>
				<rect x="766.8" y="147.7" class="st0" width="1" height="23.2"/>
			</g>
			<g>
				<g>
					<polygon class="st0" points="772.2,169.4 767.3,178.1 762.3,169.4 					"/>
				</g>
			</g>
			<g>
				<g>
					<polygon class="st0" points="772.2,149.2 767.3,140.5 762.3,149.2 					"/>
				</g>
			</g>
		</g>
	</g>
	<g>
		<path class="st0" d="M975.1,378.7v14.6c0,0.1,0,0.1,0,0.2l-15.3,37.3c-2.1,5.2-7.2,8.6-12.9,8.6h-36.8c-3.6,0-6.4,2.9-6.4,6.4
			v33.1c0,0.3,0.3,0.6,0.6,0.6h50.1c0.3,0,0.6,0.3,0.6,0.6v6.9c0,0.3,0.3,0.6,0.6,0.6h33.3c0.3,0,0.6-0.3,0.6-0.6v-93.5V369
			c0-0.5-0.5-0.7-0.9-0.5l-13.2,9.7C975.1,378.3,975.1,378.5,975.1,378.7z"/>
		<path class="st0" d="M1118.8,378.7v14.6c0,0.1,0,0.1,0,0.2l15.3,37.3c2.1,5.2,7.2,8.6,12.9,8.6h36.8c3.6,0,6.4,2.9,6.4,6.4v33.1
			c0,0.3-0.3,0.6-0.6,0.6h-50.1c-0.3,0-0.6,0.3-0.6,0.6v6.9c0,0.3-0.3,0.6-0.6,0.6H1105c-0.3,0-0.6-0.3-0.6-0.6v-93.5V369
			c0-0.5,0.5-0.7,0.9-0.5l13.2,9.7C1118.7,378.3,1118.8,378.5,1118.8,378.7z"/>
		<g>
			<g>
				<path class="st0" d="M991.4,369.3h-2.6c-0.2,0-0.4-0.2-0.4-0.4s0.2-0.4,0.4-0.4h2.6c0.2,0,0.4,0.2,0.4,0.4
					S991.7,369.3,991.4,369.3z"/>
			</g>
			<g>
				<path class="st0" d="M1097.1,369.3h-5.3c-0.2,0-0.4-0.2-0.4-0.4s0.2-0.4,0.4-0.4h5.3c0.2,0,0.4,0.2,0.4,0.4
					S1097.4,369.3,1097.1,369.3z M1086.5,369.3h-5.3c-0.2,0-0.4-0.2-0.4-0.4s0.2-0.4,0.4-0.4h5.3c0.2,0,0.4,0.2,0.4,0.4
					S1086.8,369.3,1086.5,369.3z M1076,369.3h-5.3c-0.2,0-0.4-0.2-0.4-0.4s0.2-0.4,0.4-0.4h5.3c0.2,0,0.4,0.2,0.4,0.4
					S1076.2,369.3,1076,369.3z M1065.4,369.3h-5.3c-0.2,0-0.4-0.2-0.4-0.4s0.2-0.4,0.4-0.4h5.3c0.2,0,0.4,0.2,0.4,0.4
					S1065.7,369.3,1065.4,369.3z M1054.8,369.3h-5.3c-0.2,0-0.4-0.2-0.4-0.4s0.2-0.4,0.4-0.4h5.3c0.2,0,0.4,0.2,0.4,0.4
					S1055.1,369.3,1054.8,369.3z M1044.3,369.3h-5.3c-0.2,0-0.4-0.2-0.4-0.4s0.2-0.4,0.4-0.4h5.3c0.2,0,0.4,0.2,0.4,0.4
					S1044.5,369.3,1044.3,369.3z M1033.7,369.3h-5.3c-0.2,0-0.4-0.2-0.4-0.4s0.2-0.4,0.4-0.4h5.3c0.2,0,0.4,0.2,0.4,0.4
					S1033.9,369.3,1033.7,369.3z M1023.1,369.3h-5.3c-0.2,0-0.4-0.2-0.4-0.4s0.2-0.4,0.4-0.4h5.3c0.2,0,0.4,0.2,0.4,0.4
					S1023.4,369.3,1023.1,369.3z M1012.6,369.3h-5.3c-0.2,0-0.4-0.2-0.4-0.4s0.2-0.4,0.4-0.4h5.3c0.2,0,0.4,0.2,0.4,0.4
					S1012.8,369.3,1012.6,369.3z M1002,369.3h-5.3c-0.2,0-0.4-0.2-0.4-0.4s0.2-0.4,0.4-0.4h5.3c0.2,0,0.4,0.2,0.4,0.4
					S1002.2,369.3,1002,369.3z"/>
			</g>
			<g>
				<path class="st0" d="M1105,369.3h-2.6c-0.2,0-0.4-0.2-0.4-0.4s0.2-0.4,0.4-0.4h2.6c0.2,0,0.4,0.2,0.4,0.4
					S1105.3,369.3,1105,369.3z"/>
			</g>
		</g>
		<g>
			<g>
				<path class="st0" d="M991.4,487.5h-2.6c-0.2,0-0.4-0.2-0.4-0.4s0.2-0.4,0.4-0.4h2.6c0.2,0,0.4,0.2,0.4,0.4
					S991.7,487.5,991.4,487.5z"/>
			</g>
			<g>
				<path class="st0" d="M1097.1,487.5h-5.3c-0.2,0-0.4-0.2-0.4-0.4s0.2-0.4,0.4-0.4h5.3c0.2,0,0.4,0.2,0.4,0.4
					S1097.4,487.5,1097.1,487.5z M1086.6,487.5h-5.3c-0.2,0-0.4-0.2-0.4-0.4s0.2-0.4,0.4-0.4h5.3c0.2,0,0.4,0.2,0.4,0.4
					S1086.8,487.5,1086.6,487.5z M1076,487.5h-5.3c-0.2,0-0.4-0.2-0.4-0.4s0.2-0.4,0.4-0.4h5.3c0.2,0,0.4,0.2,0.4,0.4
					S1076.2,487.5,1076,487.5z M1065.4,487.5h-5.3c-0.2,0-0.4-0.2-0.4-0.4s0.2-0.4,0.4-0.4h5.3c0.2,0,0.4,0.2,0.4,0.4
					S1065.7,487.5,1065.4,487.5z M1054.8,487.5h-5.3c-0.2,0-0.4-0.2-0.4-0.4s0.2-0.4,0.4-0.4h5.3c0.2,0,0.4,0.2,0.4,0.4
					S1055.1,487.5,1054.8,487.5z M1044.3,487.5h-5.3c-0.2,0-0.4-0.2-0.4-0.4s0.2-0.4,0.4-0.4h5.3c0.2,0,0.4,0.2,0.4,0.4
					S1044.5,487.5,1044.3,487.5z M1033.7,487.5h-5.3c-0.2,0-0.4-0.2-0.4-0.4s0.2-0.4,0.4-0.4h5.3c0.2,0,0.4,0.2,0.4,0.4
					S1033.9,487.5,1033.7,487.5z M1023.1,487.5h-5.3c-0.2,0-0.4-0.2-0.4-0.4s0.2-0.4,0.4-0.4h5.3c0.2,0,0.4,0.2,0.4,0.4
					S1023.4,487.5,1023.1,487.5z M1012.6,487.5h-5.3c-0.2,0-0.4-0.2-0.4-0.4s0.2-0.4,0.4-0.4h5.3c0.2,0,0.4,0.2,0.4,0.4
					S1012.8,487.5,1012.6,487.5z M1002,487.5h-5.3c-0.2,0-0.4-0.2-0.4-0.4s0.2-0.4,0.4-0.4h5.3c0.2,0,0.4,0.2,0.4,0.4
					S1002.2,487.5,1002,487.5z"/>
			</g>
			<g>
				<path class="st0" d="M1105,487.5h-2.6c-0.2,0-0.4-0.2-0.4-0.4s0.2-0.4,0.4-0.4h2.6c0.2,0,0.4,0.2,0.4,0.4
					S1105.3,487.5,1105,487.5z"/>
			</g>
		</g>
		<g>
			<rect x="1137.2" y="319" class="st0" width="1" height="104.4"/>
		</g>
		<g>
			<rect x="1118.5" y="347.8" class="st0" width="1" height="21.6"/>
		</g>
		<g>
			<rect x="974.9" y="347.8" class="st0" width="1" height="21.6"/>
		</g>
		<g>
			<rect x="954" y="319" class="st0" width="1" height="104.4"/>
		</g>
		<g>
			<rect x="903.1" y="481.6" class="st0" width="1" height="33.4"/>
		</g>
		<g>
			<rect x="1189.7" y="481.6" class="st0" width="1" height="33.4"/>
		</g>
		<g>
			<rect x="1114.3" y="368" class="st0" width="127.4" height="1"/>
		</g>
		<g>
			<rect x="1197" y="478.6" class="st0" width="44.6" height="1"/>
		</g>
		<g>
			<rect x="1197" y="439.6" class="st0" width="14.8" height="1"/>
		</g>
		<g>
			<g>
				<rect x="961.7" y="329.4" class="st0" width="168.8" height="1"/>
			</g>
			<g>
				<g>
					<polygon class="st0" points="1129,324.9 1137.7,329.9 1129,334.9 					"/>
				</g>
			</g>
			<g>
				<g>
					<polygon class="st0" points="963.1,324.9 954.5,329.9 963.1,334.9 					"/>
				</g>
			</g>
		</g>
		<text transform="matrix(1 0 0 1 1041.1312 324.7852)" class="st0 st1 st2">X</text>
		<g>
			<g>
				<rect x="982.6" y="357.7" class="st0" width="129.3" height="1"/>
			</g>
			<g>
				<g>
					<polygon class="st0" points="1110.4,353.2 1119,358.2 1110.4,363.1 					"/>
				</g>
			</g>
			<g>
				<g>
					<polygon class="st0" points="984,353.2 975.4,358.2 984,363.1 					"/>
				</g>
			</g>
		</g>
		<text transform="matrix(1 0 0 1 1036.9199 353.0154)" class="st0 st1 st2">Ah</text>
		<g>
			<g>
				<rect x="996.5" y="425.1" class="st0" width="100.8" height="1"/>
			</g>
			<g>
				<g>
					<polygon class="st0" points="1095.8,420.6 1104.5,425.6 1095.8,430.6 					"/>
				</g>
			</g>
			<g>
				<g>
					<polygon class="st0" points="998,420.6 989.4,425.6 998,430.6 					"/>
				</g>
			</g>
		</g>
		<text transform="matrix(1 0 0 1 1041.8724 420.4851)" class="st0 st1 st2">B</text>
		<g>
			<g>
				<line class="st0" x1="903.6" y1="504.2" x2="1190.2" y2="504.2"/>
			</g>
			<g>
				<g>
					<rect x="910.8" y="503.7" class="st0" width="272.3" height="1"/>
				</g>
				<g>
					<g>
						<polygon class="st0" points="912.2,509.2 903.6,504.2 912.2,499.2 						"/>
					</g>
				</g>
				<g>
					<g>
						<polygon class="st0" points="1181.6,509.2 1190.2,504.2 1181.6,499.2 						"/>
					</g>
				</g>
			</g>
		</g>
		<text transform="matrix(1 0 0 1 1040.8309 521.071)" class="st0 st1 st2">O</text>
		<text transform="matrix(1 0 0 1 995.8704 554.8688)" class="st0 st1 st2">Welding Neck</text>
		<text transform="matrix(1 0 0 1 1239.5172 427.9948)" class="st0 st1 st2">Y</text>
		<g>
			<g>
				<rect x="1232.4" y="375.6" class="st0" width="1" height="96.3"/>
			</g>
			<g>
				<g>
					<polygon class="st0" points="1237.9,470.5 1232.9,479.1 1227.9,470.5 					"/>
				</g>
			</g>
			<g>
				<g>
					<polygon class="st0" points="1237.9,377.1 1232.9,368.5 1227.9,377.1 					"/>
				</g>
			</g>
		</g>
		<text transform="matrix(1 0 0 1 1209.7927 463.7926)" class="st0 st1 st2">tf</text>
		<g>
			<g>
				<rect x="1203.7" y="447.2" class="st0" width="1" height="24.7"/>
			</g>
			<g>
				<g>
					<polygon class="st0" points="1209.2,470.5 1204.2,479.1 1199.2,470.5 					"/>
				</g>
			</g>
			<g>
				<g>
					<polygon class="st0" points="1209.2,448.7 1204.2,440.1 1199.2,448.7 					"/>
				</g>
			</g>
		</g>
	</g>
	<g>
		<text transform="matrix(1 0 0 1 603.8884 521.0706)" class="st0 st1 st2">O</text>
		<text transform="matrix(1 0 0 1 582.7078 554.8685)" class="st0 st1 st2">Lapped</text>
		<path class="st0" d="M529.6,480.1h5.9c6.5,0,11.8-5.3,11.8-11.8v-66.1c0-0.3-0.3-0.6-0.6-0.6h-9.2c-5,0-9.1,3.8-9.6,8.7l-1.7,16.2
			c-0.7,7-6.7,12.4-13.7,12.4h-37.7c-4.3,0-7.8,3.5-7.8,7.8v32.8c0,0.3,0.3,0.6,0.6,0.6h53.2H529.6z"/>
		<path class="st0" d="M690.3,480.1h-5.9c-6.5,0-11.8-5.3-11.8-11.8v-66.1c0-0.3,0.3-0.6,0.6-0.6h9.2c5,0,9.1,3.8,9.6,8.7l1.7,16.2
			c0.7,7,6.7,12.4,13.7,12.4h37.7c4.3,0,7.8,3.5,7.8,7.8v32.8c0,0.3-0.3,0.6-0.6,0.6h-53.2H690.3z"/>
		<g>
			<g>
				<path class="st0" d="M549.5,402.5h-2.7c-0.3,0-0.5-0.2-0.5-0.5s0.2-0.5,0.5-0.5h2.7c0.3,0,0.5,0.2,0.5,0.5
					S549.8,402.5,549.5,402.5z"/>
			</g>
			<g>
				<path class="st0" d="M665.2,402.5h-5.3c-0.3,0-0.5-0.2-0.5-0.5s0.2-0.5,0.5-0.5h5.3c0.3,0,0.5,0.2,0.5,0.5
					S665.4,402.5,665.2,402.5z M654.6,402.5h-5.3c-0.3,0-0.5-0.2-0.5-0.5s0.2-0.5,0.5-0.5h5.3c0.3,0,0.5,0.2,0.5,0.5
					S654.9,402.5,654.6,402.5z M644.1,402.5h-5.3c-0.3,0-0.5-0.2-0.5-0.5s0.2-0.5,0.5-0.5h5.3c0.3,0,0.5,0.2,0.5,0.5
					S644.4,402.5,644.1,402.5z M633.6,402.5h-5.3c-0.3,0-0.5-0.2-0.5-0.5s0.2-0.5,0.5-0.5h5.3c0.3,0,0.5,0.2,0.5,0.5
					S633.9,402.5,633.6,402.5z M623.1,402.5h-5.3c-0.3,0-0.5-0.2-0.5-0.5s0.2-0.5,0.5-0.5h5.3c0.3,0,0.5,0.2,0.5,0.5
					S623.4,402.5,623.1,402.5z M612.6,402.5h-5.3c-0.3,0-0.5-0.2-0.5-0.5s0.2-0.5,0.5-0.5h5.3c0.3,0,0.5,0.2,0.5,0.5
					S612.9,402.5,612.6,402.5z M602.1,402.5h-5.3c-0.3,0-0.5-0.2-0.5-0.5s0.2-0.5,0.5-0.5h5.3c0.3,0,0.5,0.2,0.5,0.5
					S602.3,402.5,602.1,402.5z M591.6,402.5h-5.3c-0.3,0-0.5-0.2-0.5-0.5s0.2-0.5,0.5-0.5h5.3c0.3,0,0.5,0.2,0.5,0.5
					S591.8,402.5,591.6,402.5z M581.1,402.5h-5.3c-0.3,0-0.5-0.2-0.5-0.5s0.2-0.5,0.5-0.5h5.3c0.3,0,0.5,0.2,0.5,0.5
					S581.3,402.5,581.1,402.5z M570.6,402.5h-5.3c-0.3,0-0.5-0.2-0.5-0.5s0.2-0.5,0.5-0.5h5.3c0.3,0,0.5,0.2,0.5,0.5
					S570.8,402.5,570.6,402.5z M560.1,402.5h-5.3c-0.3,0-0.5-0.2-0.5-0.5s0.2-0.5,0.5-0.5h5.3c0.3,0,0.5,0.2,0.5,0.5
					S560.3,402.5,560.1,402.5z"/>
			</g>
			<g>
				<path class="st0" d="M673.2,402.5h-2.7c-0.3,0-0.5-0.2-0.5-0.5s0.2-0.5,0.5-0.5h2.7c0.3,0,0.5,0.2,0.5,0.5
					S673.4,402.5,673.2,402.5z"/>
			</g>
		</g>
		<g>
			<g>
				<path class="st0" d="M538.5,480.1h-3c-0.3,0-0.5-0.2-0.5-0.5s0.2-0.5,0.5-0.5h3c0.3,0,0.5,0.2,0.5,0.5S538.8,480.1,538.5,480.1z
					"/>
			</g>
			<g>
				<path class="st0" d="M675.2,480.1H669c-0.3,0-0.5-0.2-0.5-0.5s0.2-0.5,0.5-0.5h6.2c0.3,0,0.5,0.2,0.5,0.5
					S675.5,480.1,675.2,480.1z M662.8,480.1h-6.2c-0.3,0-0.5-0.2-0.5-0.5s0.2-0.5,0.5-0.5h6.2c0.3,0,0.5,0.2,0.5,0.5
					S663.1,480.1,662.8,480.1z M650.4,480.1h-6.2c-0.3,0-0.5-0.2-0.5-0.5s0.2-0.5,0.5-0.5h6.2c0.3,0,0.5,0.2,0.5,0.5
					S650.6,480.1,650.4,480.1z M637.9,480.1h-6.2c-0.3,0-0.5-0.2-0.5-0.5s0.2-0.5,0.5-0.5h6.2c0.3,0,0.5,0.2,0.5,0.5
					S638.2,480.1,637.9,480.1z M625.5,480.1h-6.2c-0.3,0-0.5-0.2-0.5-0.5s0.2-0.5,0.5-0.5h6.2c0.3,0,0.5,0.2,0.5,0.5
					S625.8,480.1,625.5,480.1z M613.1,480.1h-6.2c-0.3,0-0.5-0.2-0.5-0.5s0.2-0.5,0.5-0.5h6.2c0.3,0,0.5,0.2,0.5,0.5
					S613.4,480.1,613.1,480.1z M600.7,480.1h-6.2c-0.3,0-0.5-0.2-0.5-0.5s0.2-0.5,0.5-0.5h6.2c0.3,0,0.5,0.2,0.5,0.5
					S600.9,480.1,600.7,480.1z M588.2,480.1H582c-0.3,0-0.5-0.2-0.5-0.5s0.2-0.5,0.5-0.5h6.2c0.3,0,0.5,0.2,0.5,0.5
					S588.5,480.1,588.2,480.1z M575.8,480.1h-6.2c-0.3,0-0.5-0.2-0.5-0.5s0.2-0.5,0.5-0.5h6.2c0.3,0,0.5,0.2,0.5,0.5
					S576.1,480.1,575.8,480.1z M563.4,480.1h-6.2c-0.3,0-0.5-0.2-0.5-0.5s0.2-0.5,0.5-0.5h6.2c0.3,0,0.5,0.2,0.5,0.5
					S563.7,480.1,563.4,480.1z M551,480.1h-6.2c-0.3,0-0.5-0.2-0.5-0.5s0.2-0.5,0.5-0.5h6.2c0.3,0,0.5,0.2,0.5,0.5
					S551.2,480.1,551,480.1z"/>
			</g>
			<g>
				<path class="st0" d="M684.4,480.1h-3c-0.3,0-0.5-0.2-0.5-0.5s0.2-0.5,0.5-0.5h3c0.3,0,0.5,0.2,0.5,0.5S684.7,480.1,684.4,480.1z
					"/>
			</g>
		</g>
		<text transform="matrix(1 0 0 1 614.2638 445.0128)" class="st0 st1 st2">Y</text>
		<text transform="matrix(1 0 0 1 568.6478 455.5642)" class="st0 st1 st2">r</text>
		<g>
			<g>
				<rect x="607.2" y="409.7" class="st0" width="1" height="62.2"/>
			</g>
			<g>
				<g>
					<polygon class="st0" points="612.6,470.5 607.7,479.1 602.7,470.5 					"/>
				</g>
			</g>
			<g>
				<g>
					<polygon class="st0" points="612.6,411.2 607.7,402.5 602.7,411.2 					"/>
				</g>
			</g>
		</g>
		<g>
			<rect x="696.6" y="344.6" class="st0" width="1" height="75"/>
		</g>
		<g>
			<rect x="672.1" y="377" class="st0" width="1" height="18.8"/>
		</g>
		<g>
			<rect x="546.8" y="377" class="st0" width="1" height="18.8"/>
		</g>
		<g>
			<rect x="520.9" y="344.6" class="st0" width="1" height="75"/>
		</g>
		<g>
			<rect x="466.5" y="483.3" class="st0" width="1" height="31"/>
		</g>
		<g>
			<rect x="752.5" y="484.1" class="st0" width="1" height="31"/>
		</g>
		<g>
			<rect x="760.1" y="437.7" class="st0" width="14.4" height="1"/>
		</g>
		<g>
			<rect x="760.1" y="479.6" class="st0" width="14.4" height="1"/>
		</g>
		<g>
			<g>
				<rect x="528.6" y="355.5" class="st0" width="161.3" height="1"/>
			</g>
			<g>
				<g>
					<polygon class="st0" points="688.4,351 697.1,356 688.4,361 					"/>
				</g>
			</g>
			<g>
				<g>
					<polygon class="st0" points="530.1,351 521.4,356 530.1,361 					"/>
				</g>
			</g>
		</g>
		<text transform="matrix(1 0 0 1 604.3029 350.8856)" class="st0 st1 st2">X</text>
		<g>
			<g>
				<rect x="554.5" y="387.6" class="st0" width="110.9" height="1"/>
			</g>
			<g>
				<g>
					<polygon class="st0" points="664,383.1 672.6,388.1 664,393.1 					"/>
				</g>
			</g>
			<g>
				<g>
					<polygon class="st0" points="556,383.1 547.3,388.1 556,393.1 					"/>
				</g>
			</g>
		</g>
		<text transform="matrix(1 0 0 1 604.9122 382.9611)" class="st0 st1 st2">B</text>
		<g>
			<g>
				<rect x="474.2" y="503.8" class="st0" width="271.6" height="1"/>
			</g>
			<g>
				<g>
					<polygon class="st0" points="475.6,509.3 467,504.3 475.6,499.3 					"/>
				</g>
			</g>
			<g>
				<g>
					<polygon class="st0" points="744.3,509.3 753,504.3 744.3,499.3 					"/>
				</g>
			</g>
		</g>
		<text transform="matrix(1 0 0 1 772.8508 463.3195)" class="st0 st1 st2">tf</text>
		<g>
			<g>
				<rect x="766.8" y="445.3" class="st0" width="1" height="27.6"/>
			</g>
			<g>
				<g>
					<polygon class="st0" points="772.2,471.4 767.3,480.1 762.3,471.4 					"/>
				</g>
			</g>
			<g>
				<g>
					<polygon class="st0" points="772.2,446.8 767.3,438.2 762.3,446.8 					"/>
				</g>
			</g>
		</g>
		<g>
			<rect x="547.3" y="450.4" class="st0" width="17.5" height="1"/>
		</g>
	</g>
	<g>
		<path class="st0" d="M1185.5,152h-276c-3.2,0-5.9,2.6-5.9,5.9v33.2c0,0.3,0.3,0.6,0.6,0.6H964c0.3,0,0.6,0.3,0.6,0.6v7.2
			c0,0.3,0.3,0.6,0.6,0.6h164.7c0.3,0,0.6-0.3,0.6-0.6v-7.2c0-0.3,0.3-0.6,0.6-0.6h59.8c0.3,0,0.6-0.3,0.6-0.6v-33.2
			C1191.3,154.7,1188.7,152,1185.5,152z"/>
		<g>
			<rect x="1197.3" y="191" class="st0" width="15.2" height="1"/>
		</g>
		<g>
			<rect x="1197.1" y="151.5" class="st0" width="15.4" height="1"/>
		</g>
		<text transform="matrix(1 0 0 1 1210.1455 175.9946)" class="st0 st1 st2">tf</text>
		<g>
			<g>
				<rect x="1204.1" y="159.2" class="st0" width="1" height="25.2"/>
			</g>
			<g>
				<g>
					<polygon class="st0" points="1209.5,182.9 1204.6,191.5 1199.6,182.9 					"/>
				</g>
			</g>
			<g>
				<g>
					<polygon class="st0" points="1209.5,160.7 1204.6,152 1199.6,160.7 					"/>
				</g>
			</g>
		</g>
		<text transform="matrix(1 0 0 1 1028.3479 236.2825)" class="st0 st1 st2">Blind</text>
		<g>
			<rect x="1190.8" y="118.9" class="st0" width="1" height="27.4"/>
		</g>
		<g>
			<rect x="903.1" y="118.9" class="st0" width="1" height="27.4"/>
		</g>
		<g>
			<g>
				<rect x="910.8" y="128.9" class="st0" width="273.4" height="1"/>
			</g>
			<g>
				<g>
					<polygon class="st0" points="1182.7,124.4 1191.3,129.4 1182.7,134.4 					"/>
				</g>
			</g>
			<g>
				<g>
					<polygon class="st0" points="912.2,124.4 903.6,129.4 912.2,134.4 					"/>
				</g>
			</g>
		</g>
		<text transform="matrix(1 0 0 1 1041.3867 124.2639)" class="st0 st1 st2">O</text>
	</g>
	<g>
		<path class="st0" d="M95.1,434.1v-33.4c0-0.3-0.3-0.6-0.6-0.6H82.7c-4.4,0-8.2,3.1-9,7.4l-0.5,2.7c-0.9,4.7-5.1,8.2-9.9,8.2H19.6
			c-3.3,0-5.9,2.6-5.9,5.9v31.9c0,0.3,0.3,0.6,0.6,0.6H74c0.3,0,0.6,0.3,0.6,0.6v6.6c0,0.3,0.3,0.6,0.6,0.6h20h8.1
			c0.3,0,0.6-0.3,0.6-0.6v-28.7c0-0.3-0.3-0.6-0.6-0.6h-7.5C95.4,434.7,95.1,434.4,95.1,434.1z"/>
		<path class="st0" d="M218.8,434.1v-33.4c0-0.3,0.3-0.6,0.6-0.6h11.9c4.4,0,8.2,3.1,9,7.4l0.5,2.7c0.9,4.7,5.1,8.2,9.9,8.2h43.7
			c3.3,0,5.9,2.6,5.9,5.9v31.9c0,0.3-0.3,0.6-0.6,0.6h-59.8c-0.3,0-0.6,0.3-0.6,0.6v6.6c0,0.3-0.3,0.6-0.6,0.6h-20h-8.1
			c-0.3,0-0.6-0.3-0.6-0.6v-28.7c0-0.3,0.3-0.6,0.6-0.6h7.5C218.5,434.7,218.8,434.4,218.8,434.1z"/>
		<g>
			<g>
				<path class="st0" d="M97.6,401.1h-3c-0.3,0-0.5-0.2-0.5-0.5s0.2-0.5,0.5-0.5h3c0.3,0,0.5,0.2,0.5,0.5S97.8,401.1,97.6,401.1z"/>
			</g>
			<g>
				<path class="st0" d="M210.1,401.1h-6.3c-0.3,0-0.5-0.2-0.5-0.5s0.2-0.5,0.5-0.5h6.3c0.3,0,0.5,0.2,0.5,0.5
					S210.4,401.1,210.1,401.1z M197.6,401.1h-6.3c-0.3,0-0.5-0.2-0.5-0.5s0.2-0.5,0.5-0.5h6.3c0.3,0,0.5,0.2,0.5,0.5
					S197.9,401.1,197.6,401.1z M185.1,401.1h-6.3c-0.3,0-0.5-0.2-0.5-0.5s0.2-0.5,0.5-0.5h6.3c0.3,0,0.5,0.2,0.5,0.5
					S185.4,401.1,185.1,401.1z M172.6,401.1h-6.3c-0.3,0-0.5-0.2-0.5-0.5s0.2-0.5,0.5-0.5h6.3c0.3,0,0.5,0.2,0.5,0.5
					S172.9,401.1,172.6,401.1z M160.1,401.1h-6.3c-0.3,0-0.5-0.2-0.5-0.5s0.2-0.5,0.5-0.5h6.3c0.3,0,0.5,0.2,0.5,0.5
					S160.4,401.1,160.1,401.1z M147.6,401.1h-6.3c-0.3,0-0.5-0.2-0.5-0.5s0.2-0.5,0.5-0.5h6.3c0.3,0,0.5,0.2,0.5,0.5
					S147.9,401.1,147.6,401.1z M135.1,401.1h-6.3c-0.3,0-0.5-0.2-0.5-0.5s0.2-0.5,0.5-0.5h6.3c0.3,0,0.5,0.2,0.5,0.5
					S135.3,401.1,135.1,401.1z M122.6,401.1h-6.3c-0.3,0-0.5-0.2-0.5-0.5s0.2-0.5,0.5-0.5h6.3c0.3,0,0.5,0.2,0.5,0.5
					S122.8,401.1,122.6,401.1z M110.1,401.1h-6.3c-0.3,0-0.5-0.2-0.5-0.5s0.2-0.5,0.5-0.5h6.3c0.3,0,0.5,0.2,0.5,0.5
					S110.3,401.1,110.1,401.1z"/>
			</g>
			<g>
				<path class="st0" d="M219.3,401.1h-3c-0.3,0-0.5-0.2-0.5-0.5s0.2-0.5,0.5-0.5h3c0.3,0,0.5,0.2,0.5,0.5S219.6,401.1,219.3,401.1z
					"/>
			</g>
		</g>
		<g>
			<g>
				<path class="st0" d="M97.6,464.5h-3c-0.3,0-0.5-0.2-0.5-0.5s0.2-0.5,0.5-0.5h3c0.3,0,0.5,0.2,0.5,0.5S97.8,464.5,97.6,464.5z"/>
			</g>
			<g>
				<path class="st0" d="M210.1,464.5h-6.3c-0.3,0-0.5-0.2-0.5-0.5s0.2-0.5,0.5-0.5h6.3c0.3,0,0.5,0.2,0.5,0.5
					S210.4,464.5,210.1,464.5z M197.6,464.5h-6.3c-0.3,0-0.5-0.2-0.5-0.5s0.2-0.5,0.5-0.5h6.3c0.3,0,0.5,0.2,0.5,0.5
					S197.9,464.5,197.6,464.5z M185.1,464.5h-6.3c-0.3,0-0.5-0.2-0.5-0.5s0.2-0.5,0.5-0.5h6.3c0.3,0,0.5,0.2,0.5,0.5
					S185.4,464.5,185.1,464.5z M172.6,464.5h-6.3c-0.3,0-0.5-0.2-0.5-0.5s0.2-0.5,0.5-0.5h6.3c0.3,0,0.5,0.2,0.5,0.5
					S172.9,464.5,172.6,464.5z M160.1,464.5h-6.3c-0.3,0-0.5-0.2-0.5-0.5s0.2-0.5,0.5-0.5h6.3c0.3,0,0.5,0.2,0.5,0.5
					S160.4,464.5,160.1,464.5z M147.6,464.5h-6.3c-0.3,0-0.5-0.2-0.5-0.5s0.2-0.5,0.5-0.5h6.3c0.3,0,0.5,0.2,0.5,0.5
					S147.9,464.5,147.6,464.5z M135.1,464.5h-6.3c-0.3,0-0.5-0.2-0.5-0.5s0.2-0.5,0.5-0.5h6.3c0.3,0,0.5,0.2,0.5,0.5
					S135.3,464.5,135.1,464.5z M122.6,464.5h-6.3c-0.3,0-0.5-0.2-0.5-0.5s0.2-0.5,0.5-0.5h6.3c0.3,0,0.5,0.2,0.5,0.5
					S122.8,464.5,122.6,464.5z M110.1,464.5h-6.3c-0.3,0-0.5-0.2-0.5-0.5s0.2-0.5,0.5-0.5h6.3c0.3,0,0.5,0.2,0.5,0.5
					S110.3,464.5,110.1,464.5z"/>
			</g>
			<g>
				<path class="st0" d="M219.3,464.5h-3c-0.3,0-0.5-0.2-0.5-0.5s0.2-0.5,0.5-0.5h3c0.3,0,0.5,0.2,0.5,0.5S219.6,464.5,219.3,464.5z
					"/>
			</g>
		</g>
		<g>
			<g>
				<path class="st0" d="M106.2,435.7h-3c-0.3,0-0.5-0.2-0.5-0.5s0.2-0.5,0.5-0.5h3c0.3,0,0.5,0.2,0.5,0.5S106.5,435.7,106.2,435.7z
					"/>
			</g>
			<g>
				<path class="st0" d="M201.7,435.7h-6c-0.3,0-0.5-0.2-0.5-0.5s0.2-0.5,0.5-0.5h6c0.3,0,0.5,0.2,0.5,0.5S202,435.7,201.7,435.7z
					 M189.8,435.7h-6c-0.3,0-0.5-0.2-0.5-0.5s0.2-0.5,0.5-0.5h6c0.3,0,0.5,0.2,0.5,0.5S190.1,435.7,189.8,435.7z M177.8,435.7h-6
					c-0.3,0-0.5-0.2-0.5-0.5s0.2-0.5,0.5-0.5h6c0.3,0,0.5,0.2,0.5,0.5S178.1,435.7,177.8,435.7z M165.9,435.7h-6
					c-0.3,0-0.5-0.2-0.5-0.5s0.2-0.5,0.5-0.5h6c0.3,0,0.5,0.2,0.5,0.5S166.2,435.7,165.9,435.7z M154,435.7h-6
					c-0.3,0-0.5-0.2-0.5-0.5s0.2-0.5,0.5-0.5h6c0.3,0,0.5,0.2,0.5,0.5S154.3,435.7,154,435.7z M142,435.7h-6c-0.3,0-0.5-0.2-0.5-0.5
					s0.2-0.5,0.5-0.5h6c0.3,0,0.5,0.2,0.5,0.5S142.3,435.7,142,435.7z M130.1,435.7h-6c-0.3,0-0.5-0.2-0.5-0.5s0.2-0.5,0.5-0.5h6
					c0.3,0,0.5,0.2,0.5,0.5S130.4,435.7,130.1,435.7z M118.2,435.7h-6c-0.3,0-0.5-0.2-0.5-0.5s0.2-0.5,0.5-0.5h6
					c0.3,0,0.5,0.2,0.5,0.5S118.4,435.7,118.2,435.7z"/>
			</g>
			<g>
				<path class="st0" d="M210.7,435.7h-3c-0.3,0-0.5-0.2-0.5-0.5s0.2-0.5,0.5-0.5h3c0.3,0,0.5,0.2,0.5,0.5S211,435.7,210.7,435.7z"
					/>
			</g>
		</g>
		<text transform="matrix(1 0 0 1 20.8668 554.8687)" class="st0 st1 st2">Socket Welding(NPS 1/2 to 3 Only)</text>
		<g>
			<rect x="241.4" y="341.2" class="st0" width="1" height="54.8"/>
		</g>
		<g>
			<rect x="218.2" y="374.1" class="st0" width="1" height="20.1"/>
		</g>
		<g>
			<rect x="94.7" y="374.1" class="st0" width="1" height="20.1"/>
		</g>
		<g>
			<rect x="71.2" y="341.2" class="st0" width="1" height="54.8"/>
		</g>
		<g>
			<rect x="13.1" y="463.5" class="st0" width="1" height="51.6"/>
		</g>
		<g>
			<rect x="299.8" y="463.5" class="st0" width="1" height="51.6"/>
		</g>
		<g>
			<rect x="248.3" y="400.1" class="st0" width="101.1" height="1"/>
		</g>
		<g>
			<rect x="305.2" y="456.6" class="st0" width="44.3" height="1"/>
		</g>
		<g>
			<rect x="305.2" y="418" class="st0" width="14.9" height="1"/>
		</g>
		<g>
			<g>
				<rect x="78.9" y="352.3" class="st0" width="155.8" height="1"/>
			</g>
			<g>
				<g>
					<polygon class="st0" points="233.2,347.9 241.9,352.8 233.2,357.8 					"/>
				</g>
			</g>
			<g>
				<g>
					<polygon class="st0" points="80.3,347.9 71.7,352.8 80.3,357.8 					"/>
				</g>
			</g>
		</g>
		<text transform="matrix(1 0 0 1 151.8361 347.7002)" class="st0 st1 st2">X</text>
		<g>
			<g>
				<rect x="102.4" y="384.9" class="st0" width="109.2" height="1"/>
			</g>
			<g>
				<g>
					<polygon class="st0" points="210.1,380.4 218.7,385.4 210.1,390.4 					"/>
				</g>
			</g>
			<g>
				<g>
					<polygon class="st0" points="103.8,380.4 95.2,385.4 103.8,390.4 					"/>
				</g>
			</g>
		</g>
		<text transform="matrix(1 0 0 1 151.9131 380.2603)" class="st0 st1 st2">B</text>
		<text transform="matrix(1 0 0 1 174.1507 422.5897)" class="st0 st1 st2">D</text>
		<g>
			<rect x="218.2" y="469.9" class="st0" width="1" height="19.4"/>
		</g>
		<g>
			<rect x="94.7" y="469.9" class="st0" width="1" height="19.4"/>
		</g>
		<g>
			<g>
				<rect x="102.4" y="477.7" class="st0" width="109.2" height="1"/>
			</g>
			<g>
				<g>
					<polygon class="st0" points="210.1,473.2 218.7,478.2 210.1,483.2 					"/>
				</g>
			</g>
			<g>
				<g>
					<polygon class="st0" points="103.8,473.2 95.2,478.2 103.8,483.2 					"/>
				</g>
			</g>
		</g>
		<text transform="matrix(1 0 0 1 151.9131 495.4667)" class="st0 st1 st2">B</text>
		<g>
			<g>
				<line class="st0" x1="13.6" y1="504.3" x2="300.3" y2="504.3"/>
			</g>
			<g>
				<g>
					<rect x="20.8" y="503.8" class="st0" width="272.3" height="1"/>
				</g>
				<g>
					<g>
						<polygon class="st0" points="22.3,509.3 13.6,504.3 22.3,499.3 						"/>
					</g>
				</g>
				<g>
					<g>
						<polygon class="st0" points="291.6,509.3 300.3,504.3 291.6,499.3 						"/>
					</g>
				</g>
			</g>
		</g>
		<text transform="matrix(1 0 0 1 149.5349 521.2216)" class="st0 st1 st2">O</text>
		<text transform="matrix(1 0 0 1 347.6553 433.061)" class="st0 st1 st2">Y</text>
		<g>
			<g>
				<rect x="340.5" y="407.8" class="st0" width="1" height="42.2"/>
			</g>
			<g>
				<g>
					<polygon class="st0" points="346,448.5 341,457.1 336.1,448.5 					"/>
				</g>
			</g>
			<g>
				<g>
					<polygon class="st0" points="346,409.2 341,400.6 336.1,409.2 					"/>
				</g>
			</g>
		</g>
		<text transform="matrix(1 0 0 1 317.9283 441.9996)" class="st0 st1 st2">tf</text>
		<g>
			<g>
				<rect x="311.8" y="425.6" class="st0" width="1" height="24.3"/>
			</g>
			<g>
				<g>
					<polygon class="st0" points="317.3,448.5 312.3,457.1 307.3,448.5 					"/>
				</g>
			</g>
			<g>
				<g>
					<polygon class="st0" points="317.3,427.1 312.3,418.5 307.3,427.1 					"/>
				</g>
			</g>
		</g>
		<g>
			<g>
				<line class="st0" x1="179.8" y1="372.6" x2="179.8" y2="400.1"/>
			</g>
			<g>
				<g>
					<rect x="179.3" y="372.6" class="st0" width="1" height="20.3"/>
				</g>
				<g>
					<g>
						<polygon class="st0" points="174.8,391.5 179.8,400.1 184.8,391.5 						"/>
					</g>
				</g>
			</g>
		</g>
		<g>
			<g>
				<line class="st0" x1="179.8" y1="435.7" x2="179.8" y2="458.6"/>
			</g>
			<g>
				<g>
					<rect x="179.3" y="442.9" class="st0" width="1" height="15.8"/>
				</g>
				<g>
					<g>
						<polygon class="st0" points="174.8,444.3 179.8,435.7 184.8,444.3 						"/>
					</g>
				</g>
			</g>
		</g>
	</g>
</g>
<g id="图层_2">
</g>
</svg>
