<svg id="图层_1" data-name="图层 1" xmlns="http://www.w3.org/2000/svg" viewBox="0 0 620.4 240.9"><defs><style>.cls-1{fill:none;stroke:#fff;stroke-miterlimit:10;}.cls-2{fill:#fff;}.cls-3{isolation:isolate;}</style></defs><title>flatbardrawing</title><line class="cls-1" x1="620.4" y1="113" x2="620.4" y2="10.4"/><rect class="cls-2" x="170.5" y="59.2" width="449.9" height="107.5"/><line class="cls-1" x1="68.6" y1="113.3" x2="68.6" y2="10.4"/><line class="cls-1" x1="24.1" y1="59.2" x2="106.8" y2="59.2"/><line class="cls-1" x1="24.1" y1="166.8" x2="106.8" y2="166.8"/><line class="cls-1" x1="116.4" y1="113.3" x2="116.4" y2="10.4"/><line class="cls-1" x1="170.5" y1="113" x2="170.5" y2="10.4"/><line class="cls-1" x1="75.8" y1="23.4" x2="109.2" y2="23.4"/><polygon class="cls-2" points="77.2 28.4 68.6 23.4 77.2 18.5 77.2 28.4"/><polygon class="cls-2" points="107.7 28.4 116.4 23.4 107.7 18.5 107.7 28.4"/><line class="cls-1" x1="37.4" y1="159.6" x2="37.4" y2="66.4"/><polygon class="cls-2" points="42.4 158.1 37.4 166.8 32.4 158.1 42.4 158.1"/><polygon class="cls-2" points="42.4 67.9 37.4 59.2 32.4 67.9 42.4 67.9"/><line class="cls-1" x1="177.7" y1="23.4" x2="613.2" y2="23.4"/><polygon class="cls-2" points="179.2 28.4 170.5 23.4 179.2 18.5 179.2 28.4"/><polygon class="cls-2" points="611.8 28.4 620.4 23.4 611.8 18.5 611.8 28.4"/><g class="cls-3"><path class="cls-2" d="M78.6,15.4V4.7H74.8V2.6H85V4.8H81.2V15.5H78.6Z"/><path class="cls-2" d="M86.7,15.4V2.6h2.6V7.7h5.1V2.6H97V15.5H94.4V9.8H89.3v5.6Z"/><path class="cls-2" d="M99.7,15.4V2.6h2.6V8.3l5.3-5.7h3.5l-4.9,5,5.1,7.9H108l-3.5-6-2.1,2.2v3.9H99.7Z"/></g><g class="cls-3"><path class="cls-2" d="M27.9,118.4H25l-1.1-2.9H18.7l-1.1,2.9H14.8l5-12.9h2.8Zm-4.8-5.1-1.8-4.8-1.7,4.8Z"/></g><g class="cls-3"><path class="cls-2" d="M391.5,15.4V2.7h2.6V13.3h6.5v2.2h-9.1Z"/></g><path class="cls-2" d="M108.3,59.2H76.6a8,8,0,0,0-8,8h0v91.4a7.94,7.94,0,0,0,7.9,8h31.8a8,8,0,0,0,8-8V67.3a8.11,8.11,0,0,0-8-8.1Z"/></svg>