<svg id="图层_1" data-name="图层 1" xmlns="http://www.w3.org/2000/svg" viewBox="0 0 620.38 167.26"><defs><style>.cls-1,.cls-4{isolation:isolate;font-size:18px;font-family:Arial-BoldMT, Arial;font-weight:700;}.cls-1,.cls-2,.cls-3,.cls-4{fill:#333;}.cls-3{stroke:#333;stroke-miterlimit:10;}.cls-4{letter-spacing:-0.06em;}</style></defs><text class="cls-1" transform="translate(14.94 121.48)">D</text><rect class="cls-2" x="208.05" y="63.53" width="412.33" height="98.96"/><line class="cls-3" x1="208.05" y1="113.01" x2="208.05" y2="10.44"/><line class="cls-3" x1="215.22" y1="23.44" x2="613.21" y2="23.44"/><polygon class="cls-2" points="216.68 28.43 208.05 23.44 216.68 18.46 216.68 28.43"/><polygon class="cls-2" points="611.75 28.43 620.38 23.44 611.75 18.46 611.75 28.43"/><text class="cls-4" transform="translate(408.88 15.44)">L</text><line class="cls-3" x1="620.38" y1="113.01" x2="620.38" y2="10.44"/><path id="_路径_" data-name=" 路径 " class="cls-2" d="M77.89,157.78,54.75,117.71a9.41,9.41,0,0,1,0-9.41L77.89,68.23A9.39,9.39,0,0,1,86,63.53h46.27a9.41,9.41,0,0,1,8.15,4.7l23.13,40.07a9.41,9.41,0,0,1,0,9.41l-23.13,40.07a9.4,9.4,0,0,1-8.15,4.71H86A9.4,9.4,0,0,1,77.89,157.78Z"/><line class="cls-3" x1="22.71" y1="63.53" x2="105.43" y2="63.53"/><line class="cls-3" x1="22.71" y1="162.49" x2="105.43" y2="162.49"/><line class="cls-3" x1="36.08" y1="155.31" x2="36.08" y2="70.7"/><polygon class="cls-2" points="41.07 153.85 36.08 162.49 31.09 153.85 41.07 153.85"/><polygon class="cls-2" points="41.07 72.16 36.08 63.53 31.09 72.16 41.07 72.16"/></svg>