<?xml version="1.0" encoding="utf-8"?>
<!-- Generator: Adobe Illustrator 23.0.0, SVG Export Plug-In . SVG Version: 6.00 Build 0)  -->
<svg version="1.1" id="图层_1" xmlns="http://www.w3.org/2000/svg" xmlns:xlink="http://www.w3.org/1999/xlink" x="0px" y="0px"
	 viewBox="0 0 425.2 425.2" style="enable-background:new 0 0 425.2 425.2;" xml:space="preserve">
<style type="text/css">
	.st0{fill:#666666;}
	.st1{fill:#FFFFFF;}
</style>
<title>画板 2 副本 2</title>
<ellipse class="st0" cx="212.6" cy="212.6" rx="205.5" ry="205.5"/>
<g>
	<path class="st1" d="M153.8,110.8v107.2c0,16.8,6,33.1,16.9,45.9l32.9,38.6c4.7,5.5,13.1,5.5,17.8,0l32.9-38.6
		c10.9-12.8,16.9-29.1,16.9-45.9V110.8c0-6.5-5.2-11.7-11.7-11.7h-94.1C159.1,99.1,153.8,104.4,153.8,110.8z"/>
	<path class="st1" d="M113.7,306.7h73.7c5.3,0,9.7,4.3,9.7,9.7v0c0,5.3-4.3,9.7-9.7,9.7h-73.7c-5.3,0-9.7-4.3-9.7-9.7v0
		C104,311,108.3,306.7,113.7,306.7z"/>
	<path class="st1" d="M237.8,306.7h73.7c5.3,0,9.7,4.3,9.7,9.7v0c0,5.3-4.3,9.7-9.7,9.7h-73.7c-5.3,0-9.7-4.3-9.7-9.7v0
		C228.1,311,232.4,306.7,237.8,306.7z"/>
</g>
</svg>
