<?xml version="1.0" encoding="utf-8"?>
<!-- Generator: Adobe Illustrator 23.0.0, SVG Export Plug-In . SVG Version: 6.00 Build 0)  -->
<svg version="1.1" id="图层_1" xmlns="http://www.w3.org/2000/svg" xmlns:xlink="http://www.w3.org/1999/xlink" x="0px" y="0px"
	 viewBox="0 0 85 56.7" style="enable-background:new 0 0 85 56.7;" xml:space="preserve">
<style type="text/css">
	.st0{fill:#FFFFFF;}
</style>
<title>画板 11</title>
<path class="st0" d="M53.1,36.2l0.1,5.3c0.2,0,0.4,0.1,0.5,0.1c0.3,0.1,0.6,0.2,0.9,0.3c0.1,0,0.2,0.1,0.3,0.2l-0.3,0.1
	c-0.3,0.1-0.6,0.2-0.9,0.3c-0.4,0.1-0.8,0.2-1.3,0.2c-0.2,0-0.5,0-0.7,0.1h-0.2v0.5l-0.6,0.6l-0.6-0.6v-0.5h-0.2
	c-0.2,0-0.5,0-0.7-0.1c-0.4,0-0.8-0.1-1.3-0.2c-0.3-0.1-0.6-0.2-0.9-0.3L47.1,42c0.1-0.1,0.2-0.1,0.3-0.2c0.2-0.1,0.5-0.2,0.9-0.3
	l0.5-0.1v-5.3h-0.6c-1.4,0-2.6,1.2-2.6,2.6c0,0,0,0,0,0l0.1,8.7c0,1.6-0.6,3.2-1.8,4.3l-0.7,0.7c-0.4,0.4-1.1,0.4-1.6,0L41,51.8
	c-1.2-1.1-1.9-2.7-1.8-4.3l0.1-8.7c0-1.4-1.1-2.6-2.6-2.6c0,0,0,0,0,0h-0.6v5.3l0.5,0.1c0.4,0.1,0.7,0.2,0.9,0.3s0.3,0.2,0.3,0.2
	l-0.3,0.1c-0.3,0.1-0.6,0.2-0.9,0.3c-0.4,0.1-0.8,0.2-1.3,0.2l-0.7,0.1h-0.2v0.5l-0.6,0.6l-0.6-0.6v-0.5h-0.2c-0.2,0-0.5,0-0.7-0.1
	c-0.4,0-0.8-0.1-1.3-0.2c-0.3-0.1-0.6-0.2-0.9-0.3L30,42c0.1-0.1,0.2-0.1,0.3-0.2c0.3-0.1,0.6-0.2,0.9-0.3l0.5-0.1l0.1-5.3L6.2,35.9
	L7,34.1c0.7-1.5,2-2.6,3.7-2.9l21.4-3.8v-1c0-0.7,0.6-1.2,1.2-1.2c0,0,0,0,0,0h0.3l0.5,0.8l0.6-0.8h0.2c0.7,0,1.2,0.6,1.2,1.2v0.4
	l1.2-0.2c0.9-0.2,1.7-0.9,1.7-1.9l0.5-11.4l-8.1-3.7C31,9.5,30.8,9,31,8.5c0,0,0,0,0-0.1l1-1.6C32.3,6.3,32.9,6,33.5,6h6.9l2.2-2.2
	L44.7,6h6.9c0.6,0,1.2,0.3,1.5,0.8l1,1.6c0.2,0.4,0.1,0.9-0.3,1.1c0,0-0.1,0-0.1,0.1l-8.2,3.6L46,24.6c0.1,1,0.8,1.7,1.7,1.9
	l1.2,0.2v-0.3c0-0.7,0.6-1.2,1.2-1.2l0,0h0.2l0.6,0.8l0.6-0.8h0.3c0.7,0,1.2,0.5,1.3,1.2v1l21.4,3.8c1.6,0.3,3,1.4,3.7,2.9l0.8,1.9
	L53.1,36.2z"/>
</svg>
