<?xml version="1.0" encoding="utf-8"?>
<!-- Generator: Adobe Illustrator 23.0.0, SVG Export Plug-In . SVG Version: 6.00 Build 0)  -->
<svg version="1.1" id="图层_1" xmlns="http://www.w3.org/2000/svg" xmlns:xlink="http://www.w3.org/1999/xlink" x="0px" y="0px"
	 viewBox="0 0 85 56.7" style="enable-background:new 0 0 85 56.7;" xml:space="preserve">
<style type="text/css">
	.st0{fill:#FFFFFF;}
</style>
<g>
	<path class="st0" d="M65.6,30.4c-5.9-3-21.4-10.6-21.4-10.6v31h13.5c0.5,0,1-0.3,1.3-0.8c1.1-2.6,8.4-13.4,9-15.5
		C68.6,31.9,67.8,31.5,65.6,30.4z"/>
	<path class="st0" d="M60.9,13.4c0-1.7-1.3-3-3-3.2h-2.8V6.8c0-0.5-0.4-0.9-0.9-0.9h-6.6c-0.5,0-0.9,0.4-0.9,0.9v3.4h-8.5V6.8
		c0-0.5-0.4-0.9-0.9-0.9h-6.6c-0.5,0-0.9,0.4-0.9,0.9v3.4H27c-1.6,0.2-2.9,1.5-3,3.2v11.2c6.9-3.5,18.4-9.1,18.4-9.1
		s11.5,5.7,18.4,9.1V13.4z"/>
	<path class="st0" d="M17.1,34.4c0.6,2.1,7.9,12.8,9,15.5c0.2,0.5,0.7,0.8,1.3,0.8h13.5v-31L19.5,30.3
		C17.2,31.5,16.4,31.9,17.1,34.4z"/>
</g>
</svg>
