<?xml version="1.0" encoding="utf-8"?>
<!-- Generator: Adobe Illustrator 22.1.0, SVG Export Plug-In . SVG Version: 6.00 Build 0)  -->
<svg version="1.1" id="图层_1" xmlns="http://www.w3.org/2000/svg" xmlns:xlink="http://www.w3.org/1999/xlink" x="0px" y="0px"
	 viewBox="0 0 35 30.8" style="enable-background:new 0 0 35 30.8;" xml:space="preserve">
<style type="text/css">
	.st0{fill:#FFFFFF;}
</style>
<title>画板 7</title>
<path class="st0" d="M24.9,0H0v30.8h35V0H24.9z M19.3,4.5c0,1-0.8,1.8-1.8,1.8s-1.8-0.8-1.8-1.8c0-1,0.8-1.8,1.8-1.8c0,0,0,0,0,0
	C18.5,2.7,19.3,3.5,19.3,4.5z M6.8,4.5c0,1-0.8,1.8-1.8,1.8c-1,0-1.8-0.8-1.8-1.8S4,2.7,5,2.7c0,0,0,0,0,0C6,2.7,6.8,3.5,6.8,4.5z
	 M10.1,2.7h2.4v10.5h-2.4L10.1,2.7z M3.3,25.9c0-1,0.8-1.8,1.8-1.8s1.8,0.8,1.8,1.8c0,1-0.8,1.8-1.8,1.8c0,0,0,0,0,0
	C4.1,27.7,3.3,26.9,3.3,25.9z M10.1,27.7V17.6h2.4v10.2H10.1z M15.7,25.9c0-1,0.8-1.8,1.8-1.8c1,0,1.8,0.8,1.8,1.8
	c0,1-0.8,1.8-1.8,1.8c0,0,0,0,0,0C16.5,27.7,15.7,26.9,15.7,25.9C15.7,25.9,15.7,25.9,15.7,25.9z M28.1,25.9c0-1,0.8-1.8,1.8-1.8
	s1.8,0.8,1.8,1.8s-0.8,1.8-1.8,1.8l0,0C29,27.7,28.1,26.9,28.1,25.9z M24.9,27.7h-2.4V17.6h2.4V27.7z M22.5,13.3V2.7h2.4v10.5H22.5z
	 M31.7,4.5c0,1-0.8,1.8-1.8,1.8s-1.8-0.8-1.8-1.8c0-1,0.8-1.8,1.8-1.8c0,0,0,0,0,0C30.9,2.7,31.7,3.5,31.7,4.5z"/>
</svg>
