<svg id="图层_1" data-name="图层 1" xmlns="http://www.w3.org/2000/svg" viewBox="0 0 34.99 30.83"><defs><style>.cls-1{fill:#fff;}</style></defs><title>画板 7 副本</title><polygon class="cls-1" points="0 22.63 0 25.95 0 30.83 8.02 30.83 8.02 25.95 13.48 25.95 13.48 30.83 21.5 30.83 21.5 25.95 26.97 25.95 26.97 30.83 34.99 30.83 34.99 25.95 34.99 22.63 0 22.63"/><rect class="cls-1" y="15.92" width="34.99" height="5.71"/><polygon class="cls-1" points="0 6.71 0 10.03 0 14.92 8.02 14.92 8.02 10.03 13.48 10.03 13.48 14.92 21.5 14.92 21.5 10.03 26.97 10.03 26.97 14.92 34.99 14.92 34.99 10.03 34.99 6.71 0 6.71"/><rect class="cls-1" width="34.99" height="5.71"/></svg>