<svg id="图层_1" data-name="图层 1" xmlns="http://www.w3.org/2000/svg" viewBox="0 0 620.38 240.89"><defs><style>.cls-1{fill:none;stroke:#fff;stroke-miterlimit:10;}.cls-2,.cls-3,.cls-4,.cls-5{fill:#fff;}.cls-3,.cls-4,.cls-5{isolation:isolate;font-size:18px;font-family:Arial-BoldMT, Arial;font-weight:700;}.cls-3{letter-spacing:-0.08em;}.cls-4{letter-spacing:-0.04em;}</style></defs><title>画板 1</title><line class="cls-1" x1="620.38" y1="142.08" x2="620.38" y2="93.8"/><rect class="cls-2" x="284.05" y="130.82" width="336.33" height="25.1"/><line class="cls-1" x1="83.26" y1="143.37" x2="83.26" y2="93.11"/><line class="cls-1" x1="49.4" y1="130.79" x2="168.83" y2="130.79"/><line class="cls-1" x1="49.4" y1="155.92" x2="168.83" y2="155.92"/><line class="cls-1" x1="254.39" y1="142.77" x2="254.39" y2="92.51"/><line class="cls-1" x1="284.05" y1="143.37" x2="284.05" y2="92.51"/><line class="cls-1" x1="62.77" y1="148.74" x2="62.77" y2="137.98"/><polygon class="cls-2" points="67.76 147.28 62.77 155.92 57.78 147.28 67.76 147.28"/><polygon class="cls-2" points="67.76 139.44 62.77 130.81 57.78 139.44 67.76 139.44"/><line class="cls-1" x1="291.22" y1="109.69" x2="613.21" y2="109.69"/><polygon class="cls-2" points="292.68 114.68 284.05 109.69 292.68 104.7 292.68 114.68"/><polygon class="cls-2" points="611.75 114.68 620.38 109.69 611.75 104.7 611.75 114.68"/><line class="cls-1" x1="90.44" y1="109.69" x2="247.22" y2="109.69"/><polygon class="cls-2" points="91.9 114.68 83.26 109.69 91.9 104.7 91.9 114.68"/><polygon class="cls-2" points="245.76 114.68 254.39 109.69 245.76 104.7 245.76 114.68"/><text class="cls-3" transform="translate(162.66 101.69)">A</text><text class="cls-4" transform="translate(446.88 101.69)">L</text><text class="cls-5" transform="translate(9.77 150.37)">THK</text><rect class="cls-2" x="83.26" y="130.82" width="171.13" height="25.1"/></svg>