<svg id="图层_1" data-name="图层 1" xmlns="http://www.w3.org/2000/svg" viewBox="0 0 620.4 94.88"><defs><style>.cls-1,.cls-3{fill:none;stroke-miterlimit:10;}.cls-1{stroke:#333;}.cls-2,.cls-4,.cls-5,.cls-6{fill:#333;}.cls-3{stroke:#fff;}.cls-4,.cls-5,.cls-6{isolation:isolate;font-size:18px;font-family:Arial-BoldMT, Arial;font-weight:700;}.cls-4{letter-spacing:-0.09em;}.cls-5{letter-spacing:-0.02em;}</style></defs><line class="cls-1" x1="620.4" y1="69.09" x2="620.4" y2="20.79"/><rect class="cls-2" x="284" y="57.79" width="336.3" height="25.1"/><line class="cls-1" x1="83.3" y1="70.39" x2="83.3" y2="20.09"/><line class="cls-1" x1="49.4" y1="57.79" x2="168.8" y2="57.79"/><line class="cls-1" x1="49.4" y1="82.89" x2="168.8" y2="82.89"/><line class="cls-1" x1="254.4" y1="69.79" x2="254.4" y2="19.49"/><line class="cls-1" x1="284" y1="70.39" x2="284" y2="19.49"/><line class="cls-3" x1="62.8" y1="75.69" x2="62.8" y2="64.99"/><polygon class="cls-2" points="67.8 74.29 62.8 82.89 57.8 74.29 67.8 74.29"/><polygon class="cls-2" points="67.8 66.39 62.8 57.79 57.8 66.39 67.8 66.39"/><line class="cls-1" x1="291.2" y1="36.69" x2="613.2" y2="36.69"/><polygon class="cls-2" points="292.7 41.69 284 36.69 292.7 31.69 292.7 41.69"/><polygon class="cls-2" points="611.8 41.69 620.4 36.69 611.8 31.69 611.8 41.69"/><line class="cls-1" x1="90.4" y1="36.69" x2="247.2" y2="36.69"/><polygon class="cls-2" points="91.9 41.69 83.3 36.69 91.9 31.69 91.9 41.69"/><polygon class="cls-2" points="245.8 41.69 254.4 36.69 245.8 31.69 245.8 41.69"/><text class="cls-4" transform="translate(162.66 28.68)">A</text><text class="cls-5" transform="translate(446.88 28.68)">L</text><text class="cls-6" transform="translate(9.77 77.36)">THK</text><rect class="cls-2" x="83.3" y="57.79" width="171.1" height="25.1"/></svg>