<?xml version="1.0" encoding="utf-8"?>
<!-- Generator: Adobe Illustrator 23.0.0, SVG Export Plug-In . SVG Version: 6.00 Build 0)  -->
<svg version="1.1" id="图层_1" xmlns="http://www.w3.org/2000/svg" xmlns:xlink="http://www.w3.org/1999/xlink" x="0px" y="0px"
	 viewBox="0 0 425.2 425.2" style="enable-background:new 0 0 425.2 425.2;" xml:space="preserve">
<style type="text/css">
	.st0{fill:#666666;}
</style>
<title>画板 2 副本 2</title>
<g>
	<path class="st0" d="M212.6,7.1C99.1,7.1,7.1,99.1,7.1,212.6s92,205.5,205.5,205.5s205.5-92,205.5-205.5S326.1,7.1,212.6,7.1z
		 M291.9,300c-15.2,13-36.3,21-63.4,23.9v29.5h-30.2v-28.7c-24-2.2-43.5-9-58.5-20.4c-15-11.4-24.6-27.4-28.7-48.1l54.3-4.4
		c2.1,8.3,6.4,15.8,12.5,21.8c5.7,5.9,12.7,10.4,20.4,13.2v-66.1c-27.2-5.9-47.1-14.8-59.9-26.7c-12.7-11.9-19.1-26.4-19.1-43.5
		c0-17.2,7.2-31.7,21.5-43.5c14.4-11.7,33.5-18.5,57.4-20.3V71.3h30.2v15.6c22.1,2,39.6,7.7,52.7,17.1c12.8,9,21.7,22.5,24.9,37.8
		l-52.7,5.2c-3.2-12.4-11.5-20.8-24.9-25.2v61.7c33.3,6.8,56,15.7,68.1,26.6c12.1,10.9,18.1,24.8,18.1,41.9
		C314.7,270.9,307.1,286.9,291.9,300L291.9,300z"/>
	<path class="st0" d="M255.5,239.3c-5.5-5.1-14.5-9-26.9-11.8v61.5c10.4-1.5,18.9-5.1,25.4-11c6.5-5.8,9.8-12.7,9.8-20.6
		C263.7,250.5,261,244.4,255.5,239.3z"/>
	<path class="st0" d="M171.5,148.7c0,5.6,2.2,10.8,6.7,15.5c4.4,4.8,11.2,8.6,20.2,11.6v-54.6c-8.2,2.1-14.7,5.7-19.6,10.7
		C173.9,137,171.5,142.6,171.5,148.7z"/>
</g>
</svg>
