<svg id="图层_1" data-name="图层 1" xmlns="http://www.w3.org/2000/svg" viewBox="0 0 898.7 230.6"><defs><style>.cls-1{isolation:isolate;font-size:18px;font-family:Calibri-Bold, Calibri;font-weight:700;}.cls-1,.cls-8{fill:#fff;}.cls-2{letter-spacing:-0.01em;}.cls-3{letter-spacing:-0.01em;}.cls-4{letter-spacing:0em;}.cls-5{letter-spacing:-0.01em;}.cls-6{letter-spacing:-0.01em;}.cls-7{letter-spacing:-0.01em;}.cls-9{fill:none;stroke:#fff;stroke-miterlimit:10;}</style></defs><title>reducerdrawing</title><text class="cls-1" transform="translate(213.48 224.49)">Conce<tspan class="cls-2" x="45.46" y="0">n</tspan><tspan x="54.95" y="0">tric </tspan><tspan class="cls-3" x="83.61" y="0">R</tspan><tspan class="cls-4" x="93.48" y="0">educe</tspan><tspan class="cls-5" x="138.45" y="0">r</tspan><tspan class="cls-4" x="144.63" y="0">s</tspan></text><text class="cls-1" transform="translate(522.47 224.49)"><tspan class="cls-6">E</tspan><tspan x="8.56" y="0">cce</tspan><tspan class="cls-2" x="32.69" y="0">n</tspan><tspan x="42.18" y="0">tric </tspan><tspan class="cls-7" x="70.84" y="0">R</tspan><tspan x="80.71" y="0">educe</tspan><tspan class="cls-6" x="125.68" y="0">r</tspan><tspan x="131.86" y="0">s</tspan></text><path class="cls-8" d="M245,137.45H225v-14c0-14.51,4.81-29,13.91-42,6.82-9.71,10.28-20,10.28-30.49V32.69h20V50.94c0,14.51-4.81,29-13.91,42-6.82,9.71-10.28,20-10.28,30.49Z"/><path class="cls-8" d="M333.76,137.45h20v-14c0-14.51-4.81-29-13.91-42-6.82-9.71-10.28-20-10.28-30.49V32.69h-20V50.94c0,14.51,4.81,29,13.91,42,6.82,9.71,10.28,20,10.28,30.49Z"/><path class="cls-8" d="M541,137.45H521v-14c0-15.28,7.48-30.34,21.64-43.55,10.14-9.46,15.28-19.2,15.28-28.93V32.69h20V50.94c0,15.28-7.48,30.34-21.63,43.55C546.13,104,541,113.69,541,123.42Z"/><rect class="cls-8" x="627.05" y="32.69" width="20" height="104.76"/><path class="cls-8" d="M309.57,34.69H305.2v-2h4.37Zm-10.37,0h-6v-2h6Zm-12,0h-6v-2h6Zm-12,0h-6v-2h6Z"/><path class="cls-8" d="M627.05,34.69h-1.14v-2h1.14Zm-7.14,0h-6v-2h6Zm-12,0h-6v-2h6Zm-12,0h-6v-2h6Zm-12,0h-6v-2h6Z"/><path class="cls-8" d="M333.76,137.45H329v-2h4.75Zm-10.75,0h-6v-2h6Zm-12,0h-6v-2h6Zm-12,0h-6v-2h6Zm-12,0h-6v-2h6Zm-12,0h-6v-2h6Zm-12,0h-6v-2h6Zm-12,0h-6v-2h6Z"/><path class="cls-8" d="M627.05,137.45H625v-2h2.06Zm-8.06,0h-6v-2h6Zm-12,0h-6v-2h6Zm-12,0h-6v-2h6Zm-12,0h-6v-2h6Zm-12,0h-6v-2h6Zm-12,0h-6v-2h6Zm-12,0h-6v-2h6Z"/><line class="cls-9" x1="329.57" y1="32.69" x2="376.66" y2="32.69"/><line class="cls-9" x1="351.07" y1="137.45" x2="376.66" y2="137.45"/><line class="cls-9" x1="368.15" y1="40.86" x2="368.15" y2="130.28"/><polygon class="cls-8" points="363.16 42.32 368.15 33.69 373.14 42.32 363.16 42.32"/><polygon class="cls-8" points="363.16 128.82 368.15 137.45 373.14 128.82 363.16 128.82"/><text class="cls-1" transform="translate(379.32 90.23)">H</text><line class="cls-9" x1="225.01" y1="137.45" x2="225.01" y2="176.63"/><line class="cls-9" x1="353.76" y1="137.45" x2="353.76" y2="176.63"/><text class="cls-1" transform="translate(363.99 173.83)">T</text><text class="cls-1" transform="translate(279.15 189.48)">D1</text><text class="cls-1" transform="translate(279.15 13.66)">D2</text><line class="cls-9" x1="333.76" y1="137.45" x2="333.76" y2="160.07"/><line class="cls-9" x1="360.86" y1="153.73" x2="376.66" y2="153.73"/><polygon class="cls-8" points="362.36 158.73 353.76 153.73 362.36 148.73 362.36 158.73"/><line class="cls-9" x1="310.86" y1="153.73" x2="326.56" y2="153.73"/><polygon class="cls-8" points="325.16 158.73 333.76 153.73 325.16 148.73 325.16 158.73"/><line class="cls-9" x1="232.18" y1="168.83" x2="346.58" y2="168.83"/><polygon class="cls-8" points="233.64 173.82 225.01 168.83 233.64 163.85 233.64 173.82"/><polygon class="cls-8" points="345.12 173.82 353.76 168.83 345.12 163.85 345.12 173.82"/><line class="cls-9" x1="520.99" y1="137.45" x2="520.99" y2="176.63"/><line class="cls-9" x1="647.05" y1="137.45" x2="647.05" y2="176.63"/><text class="cls-1" transform="translate(657.28 173.83)">T</text><text class="cls-1" transform="translate(573.31 189.48)">D1</text><line class="cls-9" x1="627.05" y1="137.45" x2="627.05" y2="160.07"/><line class="cls-9" x1="654.15" y1="153.73" x2="669.95" y2="153.73"/><polygon class="cls-8" points="655.65 158.73 647.05 153.73 655.65 148.73 655.65 158.73"/><line class="cls-9" x1="604.15" y1="153.73" x2="619.85" y2="153.73"/><polygon class="cls-8" points="618.45 158.73 627.05 153.73 618.45 148.73 618.45 158.73"/><line class="cls-9" x1="528.17" y1="168.83" x2="639.88" y2="168.83"/><polygon class="cls-8" points="529.63 173.82 520.99 168.83 529.63 163.85 529.63 173.82"/><polygon class="cls-8" points="638.42 173.82 647.05 168.83 638.42 163.85 638.42 173.82"/><line class="cls-9" x1="249.2" y1="32.69" x2="249.2" y2="12.53"/><line class="cls-9" x1="329.57" y1="32.69" x2="329.57" y2="12.53"/><line class="cls-9" x1="256.37" y1="21.8" x2="322.39" y2="21.8"/><polygon class="cls-8" points="257.83 26.79 249.2 21.8 257.83 16.82 257.83 26.79"/><polygon class="cls-8" points="320.93 26.79 329.57 21.8 320.93 16.82 320.93 26.79"/><text class="cls-1" transform="translate(591.11 13.66)">D2</text><line class="cls-9" x1="557.94" y1="32.69" x2="557.94" y2="12.53"/><line class="cls-9" x1="647.01" y1="32.69" x2="647.01" y2="12.53"/><line class="cls-9" x1="565.11" y1="21.8" x2="639.83" y2="21.8"/><polygon class="cls-8" points="566.57 26.79 557.94 21.8 566.57 16.82 566.57 26.79"/><polygon class="cls-8" points="638.38 26.79 647.01 21.8 638.38 16.82 638.38 26.79"/><line class="cls-9" x1="647.05" y1="32.69" x2="673" y2="32.69"/><line class="cls-9" x1="647.05" y1="137.45" x2="673" y2="137.45"/><line class="cls-9" x1="662.52" y1="39.86" x2="662.52" y2="130.28"/><polygon class="cls-8" points="657.53 41.32 662.52 32.69 667.5 41.32 657.53 41.32"/><polygon class="cls-8" points="657.53 128.82 662.52 137.45 667.5 128.82 657.53 128.82"/><text class="cls-1" transform="translate(673.69 90.23)">H</text></svg>