<?xml version="1.0" encoding="utf-8"?>
<!-- Generator: Adobe Illustrator 23.0.0, SVG Export Plug-In . SVG Version: 6.00 Build 0)  -->
<svg version="1.1" id="图层_1" xmlns="http://www.w3.org/2000/svg" xmlns:xlink="http://www.w3.org/1999/xlink" x="0px" y="0px"
	 viewBox="0 0 425.2 425.2" style="enable-background:new 0 0 425.2 425.2;" xml:space="preserve">
<style type="text/css">
	.st0{fill:#666666;}
	.st1{fill:#FFFFFF;}
</style>
<title>画板 2 副本 2</title>
<circle class="st0" cx="212.6" cy="212.6" r="205.5"/>
<path class="st1" d="M323.2,229.6H215.4c-9.4,0-17-7.6-17-17v0c0-9.4,7.6-17,17-17h107.7c9.4,0,17,7.6,17,17v0
	C340.2,222,332.5,229.6,323.2,229.6z"/>
<path class="st1" d="M212.6,46.8L212.6,46.8c-6.3,0-11.3,5.1-11.3,11.3v147.4c0,6.3,5.1,11.3,11.3,11.3h0c6.3,0,11.3-5.1,11.3-11.3
	V58.1C223.9,51.9,218.9,46.8,212.6,46.8z"/>
<path class="st1" d="M89.2,336L89.2,336c2.8,2.8,7.3,2.8,10,0l110.2-110.2c2.8-2.8,2.8-7.3,0-10l0,0c-2.8-2.8-7.3-2.8-10,0L89.2,326
	C86.4,328.7,86.4,333.2,89.2,336z"/>
<circle class="st1" cx="212.6" cy="212.6" r="35.4"/>
</svg>
