<svg id="图层_1" data-name="图层 1" xmlns="http://www.w3.org/2000/svg" viewBox="0 0 620.4 166.8"><defs><style>.cls-1,.cls-2,.cls-3,.cls-4{fill:#333;}.cls-2{stroke:#333;stroke-miterlimit:10;}.cls-3,.cls-4{isolation:isolate;font-size:18px;font-family:Arial-BoldMT, Arial;font-weight:700;}.cls-4{letter-spacing:-0.02em;}</style></defs><rect class="cls-1" x="170.5" y="59.2" width="449.9" height="107.5"/><line class="cls-2" x1="8" y1="113" x2="8" y2="10.4"/><line class="cls-2" x1="115.5" y1="113" x2="115.5" y2="10.4"/><line class="cls-2" x1="170.5" y1="113" x2="170.5" y2="10.4"/><line class="cls-2" x1="620.4" y1="113" x2="620.4" y2="10.4"/><line class="cls-2" x1="15.2" y1="23.4" x2="108.3" y2="23.4"/><polygon class="cls-1" points="16.6 28.4 8 23.4 16.6 18.5 16.6 28.4"/><polygon class="cls-1" points="106.9 28.4 115.5 23.4 106.9 18.5 106.9 28.4"/><line class="cls-2" x1="177.7" y1="23.4" x2="613.2" y2="23.4"/><polygon class="cls-1" points="179.2 28.4 170.5 23.4 179.2 18.5 179.2 28.4"/><polygon class="cls-1" points="611.8 28.4 620.4 23.4 611.8 18.5 611.8 28.4"/><text class="cls-3" transform="translate(54.99 15.44)">D</text><text class="cls-4" transform="translate(390.12 15.44)">L</text><circle class="cls-1" cx="61.8" cy="113" r="53.8"/></svg>