<?xml version="1.0" encoding="utf-8"?>
<!-- Generator: Adobe Illustrator 23.0.0, SVG Export Plug-In . SVG Version: 6.00 Build 0)  -->
<svg version="1.1" id="图层_1" xmlns="http://www.w3.org/2000/svg" xmlns:xlink="http://www.w3.org/1999/xlink" x="0px" y="0px"
	 viewBox="0 0 620.4 240.9" style="enable-background:new 0 0 620.4 240.9;" xml:space="preserve">
<style type="text/css">
	.st0{fill:#FFFFFF;}
	.st1{fill:#FFFFFF;stroke:#FFFFFF;stroke-miterlimit:10;}
	.st2{font-family:'Arial-BoldMT';}
	.st3{font-size:18px;}
</style>
<title>画板 1</title>
<rect x="170.5" y="59.2" class="st0" width="449.9" height="107.5"/>
<line class="st1" x1="8" y1="113" x2="8" y2="10.4"/>
<line class="st1" x1="115.5" y1="113" x2="115.5" y2="10.4"/>
<line class="st1" x1="170.5" y1="113" x2="170.5" y2="10.4"/>
<line class="st1" x1="620.4" y1="113" x2="620.4" y2="10.4"/>
<line class="st1" x1="15.2" y1="23.4" x2="108.3" y2="23.4"/>
<polygon class="st0" points="16.6,28.4 8,23.4 16.6,18.5 "/>
<polygon class="st0" points="106.9,28.4 115.5,23.4 106.9,18.5 "/>
<line class="st1" x1="177.7" y1="23.4" x2="613.2" y2="23.4"/>
<polygon class="st0" points="179.2,28.4 170.5,23.4 179.2,18.5 "/>
<polygon class="st0" points="611.8,28.4 620.4,23.4 611.8,18.5 "/>
<text transform="matrix(1 0 0 1 54.9916 15.44)" class="st0 st2 st3">D</text>
<text transform="matrix(1 0 0 1 390.12 15.44)" class="st0 st2 st3">L</text>
<circle class="st0" cx="61.8" cy="113" r="53.8"/>
</svg>
