<svg id="图层_1" data-name="图层 1" xmlns="http://www.w3.org/2000/svg" viewBox="0 0 620.38 240.89"><defs><style>.cls-1,.cls-3,.cls-4{fill:#fff;}.cls-2{fill:none;stroke:#fff;stroke-miterlimit:10;}.cls-3,.cls-4{isolation:isolate;font-size:18px;font-family:Arial-BoldMT, Arial;font-weight:700;}.cls-4{letter-spacing:-0.04em;}</style></defs><title>画板 1</title><path class="cls-1" d="M61.75,59.24A53.77,53.77,0,1,0,115.52,113h0A53.78,53.78,0,0,0,61.75,59.24Zm0,86.51A32.74,32.74,0,1,1,94.49,113a32.74,32.74,0,0,1-32.74,32.75Z"/><rect class="cls-1" x="170.52" y="59.24" width="449.86" height="107.54"/><line class="cls-2" x1="7.98" y1="216.11" x2="7.98" y2="10.44"/><line class="cls-2" x1="29.01" y1="216.11" x2="29.01" y2="113.01"/><line class="cls-2" x1="115.52" y1="113.01" x2="115.52" y2="10.44"/><line class="cls-2" x1="170.52" y1="113.01" x2="170.52" y2="10.44"/><line class="cls-2" x1="620.38" y1="113.01" x2="620.38" y2="10.44"/><line class="cls-2" x1="15.16" y1="23.44" x2="108.34" y2="23.44"/><polygon class="cls-1" points="16.62 28.43 7.98 23.44 16.62 18.46 16.62 28.43"/><polygon class="cls-1" points="106.88 28.43 115.52 23.44 106.88 18.46 106.88 28.43"/><line class="cls-2" x1="15.16" y1="203.44" x2="21.83" y2="203.44"/><polygon class="cls-1" points="16.62 208.43 7.98 203.44 16.62 198.46 16.62 208.43"/><polygon class="cls-1" points="20.37 208.43 29.01 203.44 20.37 198.46 20.37 208.43"/><line class="cls-2" x1="177.7" y1="23.44" x2="613.21" y2="23.44"/><polygon class="cls-1" points="179.16 28.43 170.52 23.44 179.16 18.46 179.16 28.43"/><polygon class="cls-1" points="611.75 28.43 620.38 23.44 611.75 18.46 611.75 28.43"/><text class="cls-3" transform="translate(48.25 15.44)">OD</text><text class="cls-4" transform="translate(390.12 15.44)">L</text><text class="cls-3" transform="translate(0 234.11)">THK</text></svg>