<svg id="图层_1" data-name="图层 1" xmlns="http://www.w3.org/2000/svg" viewBox="0 0 620.38 240.89"><defs><style>.cls-1{fill:none;stroke:#fff;stroke-miterlimit:10;}.cls-2,.cls-3,.cls-4,.cls-5{fill:#fff;}.cls-3,.cls-4,.cls-5{isolation:isolate;font-size:18px;font-family:Arial-BoldMT, Arial;font-weight:700;}.cls-3{letter-spacing:-0.08em;}.cls-4{letter-spacing:-0.04em;}</style></defs><title>画板 1</title><line class="cls-1" x1="620.38" y1="132.19" x2="620.38" y2="94.82"/><rect class="cls-2" x="284.05" y="129.21" width="336.33" height="7.94"/><line class="cls-1" x1="83.26" y1="133.19" x2="83.26" y2="94.29"/><line class="cls-1" x1="49.4" y1="129.21" x2="168.83" y2="129.21"/><line class="cls-1" x1="49.4" y1="137.16" x2="168.83" y2="137.16"/><line class="cls-1" x1="254.39" y1="132.72" x2="254.39" y2="93.82"/><line class="cls-1" x1="284.05" y1="133.19" x2="284.05" y2="93.82"/><line class="cls-1" x1="291.22" y1="110.26" x2="613.21" y2="110.26"/><polygon class="cls-2" points="292.68 115.25 284.05 110.26 292.68 105.27 292.68 115.25"/><polygon class="cls-2" points="611.75 115.25 620.38 110.26 611.75 105.27 611.75 115.25"/><line class="cls-1" x1="90.44" y1="110.26" x2="247.22" y2="110.26"/><polygon class="cls-2" points="91.9 115.25 83.26 110.26 91.9 105.27 91.9 115.25"/><polygon class="cls-2" points="245.76 115.25 254.39 110.26 245.76 105.27 245.76 115.25"/><text class="cls-3" transform="translate(162.66 102.26)">A</text><text class="cls-4" transform="translate(446.88 102.26)">L</text><text class="cls-5" transform="translate(9.77 139.51)">THK</text><rect class="cls-2" x="83.26" y="129.21" width="171.13" height="7.94"/><line class="cls-1" x1="61.75" y1="114.56" x2="61.75" y2="122.04"/><polygon class="cls-2" points="56.77 120.58 61.75 129.21 66.74 120.58 56.77 120.58"/><line class="cls-1" x1="61.75" y1="144.33" x2="61.75" y2="151.81"/><polygon class="cls-2" points="56.77 145.79 61.75 137.16 66.74 145.79 56.77 145.79"/></svg>