<svg id="图层_1" data-name="图层 1" xmlns="http://www.w3.org/2000/svg" viewBox="0 0 620.4 78.88"><defs><style>.cls-1,.cls-6{fill:none;stroke-miterlimit:10;}.cls-1{stroke:#333;}.cls-2,.cls-3,.cls-4,.cls-5{fill:#333;}.cls-3,.cls-4,.cls-5{isolation:isolate;font-size:18px;font-family:Arial-BoldMT, Arial;font-weight:700;}.cls-3{letter-spacing:-0.09em;}.cls-4{letter-spacing:-0.02em;}.cls-6{stroke:#fff;}</style></defs><line class="cls-1" x1="620.4" y1="51.19" x2="620.4" y2="13.79"/><rect class="cls-2" x="284" y="48.19" width="336.3" height="7.9"/><line class="cls-1" x1="83.3" y1="52.19" x2="83.3" y2="13.29"/><line class="cls-1" x1="49.4" y1="48.19" x2="168.8" y2="48.19"/><line class="cls-1" x1="49.4" y1="56.19" x2="168.8" y2="56.19"/><line class="cls-1" x1="254.4" y1="51.69" x2="254.4" y2="12.79"/><line class="cls-1" x1="284" y1="52.19" x2="284" y2="12.79"/><line class="cls-1" x1="291.2" y1="29.29" x2="613.2" y2="29.29"/><polygon class="cls-2" points="292.7 34.19 284 29.29 292.7 24.29 292.7 34.19"/><polygon class="cls-2" points="611.8 34.19 620.4 29.29 611.8 24.29 611.8 34.19"/><line class="cls-1" x1="90.4" y1="29.29" x2="247.2" y2="29.29"/><polygon class="cls-2" points="91.9 34.19 83.3 29.29 91.9 24.29 91.9 34.19"/><polygon class="cls-2" points="245.8 34.19 254.4 29.29 245.8 24.29 245.8 34.19"/><text class="cls-3" transform="translate(162.66 21.25)">A</text><text class="cls-4" transform="translate(446.88 21.25)">L</text><text class="cls-5" transform="translate(9.77 58.5)">THK</text><rect class="cls-2" x="83.3" y="48.19" width="171.1" height="7.9"/><line class="cls-6" x1="61.8" y1="33.59" x2="61.8" y2="40.99"/><polygon class="cls-2" points="56.8 39.59 61.8 48.19 66.7 39.59 56.8 39.59"/><line class="cls-6" x1="61.8" y1="63.29" x2="61.8" y2="70.79"/><polygon class="cls-2" points="56.8 64.79 61.8 56.19 66.7 64.79 56.8 64.79"/></svg>