<svg id="图层_1" data-name="图层 1" xmlns="http://www.w3.org/2000/svg" viewBox="0 0 620.38 240.89"><defs><style>.cls-1,.cls-3,.cls-4{fill:#fff;}.cls-2{fill:none;stroke:#fff;stroke-miterlimit:10;}.cls-3,.cls-4{isolation:isolate;font-size:18px;font-family:Arial-BoldMT, Arial;font-weight:700;}.cls-3{letter-spacing:-0.08em;}.cls-4{letter-spacing:-0.04em;}</style></defs><title>squarebardrawing</title><rect class="cls-1" x="170.52" y="59.24" width="449.86" height="107.54"/><line class="cls-2" x1="7.98" y1="113.01" x2="7.98" y2="10.44"/><line class="cls-2" x1="115.52" y1="113.01" x2="115.52" y2="10.44"/><line class="cls-2" x1="170.52" y1="113.01" x2="170.52" y2="10.44"/><line class="cls-2" x1="620.38" y1="113.01" x2="620.38" y2="10.44"/><line class="cls-2" x1="15.16" y1="23.44" x2="108.34" y2="23.44"/><polygon class="cls-1" points="16.62 28.43 7.98 23.44 16.62 18.46 16.62 28.43"/><polygon class="cls-1" points="106.88 28.43 115.52 23.44 106.88 18.46 106.88 28.43"/><line class="cls-2" x1="177.7" y1="23.44" x2="613.21" y2="23.44"/><polygon class="cls-1" points="179.16 28.43 170.52 23.44 179.16 18.46 179.16 28.43"/><polygon class="cls-1" points="611.75 28.43 620.38 23.44 611.75 18.46 611.75 28.43"/><text class="cls-3" transform="translate(55.59 15.44)">A</text><text class="cls-4" transform="translate(390.12 15.44)">L</text><rect class="cls-1" x="7.98" y="59.24" width="107.54" height="107.54" rx="17"/></svg>