<?xml version="1.0" encoding="utf-8"?>
<!-- Generator: Adobe Illustrator 23.0.0, SVG Export Plug-In . SVG Version: 6.00 Build 0)  -->
<svg version="1.1" id="图层_1" xmlns="http://www.w3.org/2000/svg" xmlns:xlink="http://www.w3.org/1999/xlink" x="0px" y="0px"
	 viewBox="0 0 898.7 276.7" style="enable-background:new 0 0 898.7 276.7;" xml:space="preserve">
<style type="text/css">
	.st0{fill:#FFFFFF;}
	.st1{font-family:'Calibri-Bold';}
	.st2{font-size:18px;}
	.st3{fill:none;stroke:#FFFFFF;stroke-miterlimit:10;}
</style>
<title>teedrawing</title>
<text transform="matrix(1 0 0 1 232.9567 254.283)" class="st0 st1 st2">Straight Tee</text>
<text transform="matrix(1 0 0 1 569.7061 254.283)" class="st0 st1 st2">Reducing Tee</text>
<text transform="matrix(1 0 0 1 332.7351 54.3043)" class="st0 st1 st2">T</text>
<g>
	<path class="st0" d="M220.9,134.1c22.1-1.2,39.5-19.2,39.9-41.3v-2V71.3h3v-2h-3v0h-22v21.4v1c0,10.7-8.3,19.6-19,20.3l-0.9,0.1
		h-21.4v21.9h21.4H220.9z"/>
	<path class="st0" d="M335.4,134.1h2h21.4v-21.9h-21.4l-0.9-0.1c-10.7-0.7-19-9.6-19-20.3v-1V69.3h-22v21.4v2
		C295.9,114.8,313.3,132.9,335.4,134.1z"/>
	<rect x="281" y="69.3" class="st0" width="5.8" height="2"/>
	<rect x="269.5" y="69.3" class="st0" width="5.7" height="2"/>
	<rect x="292.5" y="69.3" class="st0" width="3" height="2"/>
	<rect x="356.8" y="134.1" class="st0" width="2" height="3"/>
	<rect x="356.8" y="142.2" class="st0" width="2" height="5.1"/>
	<rect x="356.8" y="152.4" class="st0" width="2" height="5.1"/>
	<polygon class="st0" points="356.8,165.6 279,165.6 279,165.3 277,165.3 277,165.6 199.4,165.6 199.4,162.6 197.4,162.6 
		197.4,165.6 197.4,165.6 197.4,187.5 358.8,187.5 358.8,165.6 358.8,165.6 358.8,162.6 356.8,162.6 	"/>
	<rect x="197.4" y="134.1" class="st0" width="2" height="3"/>
	<rect x="197.4" y="142.2" class="st0" width="2" height="5.1"/>
	<rect x="197.4" y="152.4" class="st0" width="2" height="5.1"/>
	<rect x="197.4" y="148.8" class="st0" width="3" height="2"/>
	<rect x="331" y="148.8" class="st0" width="6.2" height="2"/>
	<rect x="343.4" y="148.8" class="st0" width="6.2" height="2"/>
	<rect x="281.2" y="148.8" class="st0" width="6.2" height="2"/>
	<rect x="293.7" y="148.8" class="st0" width="6.2" height="2"/>
	<rect x="318.5" y="148.8" class="st0" width="6.2" height="2"/>
	<rect x="306.1" y="148.8" class="st0" width="6.2" height="2"/>
	<rect x="243.9" y="148.8" class="st0" width="6.2" height="2"/>
	<rect x="256.4" y="148.8" class="st0" width="6.2" height="2"/>
	<rect x="268.8" y="148.8" class="st0" width="6.2" height="2"/>
	<rect x="206.6" y="148.8" class="st0" width="6.2" height="2"/>
	<rect x="231.5" y="148.8" class="st0" width="6.2" height="2"/>
	<rect x="219.1" y="148.8" class="st0" width="6.2" height="2"/>
	<rect x="355.8" y="148.8" class="st0" width="3" height="2"/>
	<rect x="277" y="129.3" class="st0" width="2" height="6"/>
	<rect x="277" y="105.3" class="st0" width="2" height="6"/>
	<rect x="277" y="141.3" class="st0" width="2" height="6"/>
	<rect x="277" y="117.3" class="st0" width="2" height="6"/>
	<rect x="277" y="93.3" class="st0" width="2" height="6"/>
	<rect x="277" y="69.3" class="st0" width="2" height="6"/>
	<rect x="277" y="153.3" class="st0" width="2" height="6"/>
	<rect x="277" y="81.3" class="st0" width="2" height="6"/>
</g>
<g>
	<path class="st0" d="M688.4,112.2H667l-0.9-0.1c-10.7-0.7-19-9.6-19-20.3v-1V69.3h-22v0h-3v2h3v19.4v2
		c0.4,22.1,17.8,40.1,39.9,41.3h2h21.4h15.7v-21.9H688.4z"/>
	<path class="st0" d="M572.3,134.1h2c22.1-1.2,39.5-19.2,39.9-41.3v-2V71.3h3v-2h-3v0h-22v21.4v1c0,10.7-8.3,19.6-19,20.3l-0.9,0.1
		h-21.4h-15.7v21.9h15.7H572.3z"/>
	<rect x="535.2" y="134.1" class="st0" width="2" height="3"/>
	<rect x="535.2" y="142" class="st0" width="2" height="4.9"/>
	<rect x="535.2" y="151.8" class="st0" width="2" height="4.9"/>
	<rect x="702.1" y="134.1" class="st0" width="2" height="3"/>
	<rect x="702.1" y="142" class="st0" width="2" height="4.9"/>
	<rect x="702.1" y="151.8" class="st0" width="2" height="4.9"/>
	<polygon class="st0" points="704.1,161.6 702.1,161.6 702.1,164.6 537.2,164.6 537.2,161.6 535.2,161.6 535.2,164.6 535.2,164.6 
		535.2,188.5 704.2,188.5 704.2,164.6 704.1,164.6 	"/>
	<rect x="535.2" y="148.3" class="st0" width="3" height="2"/>
	<rect x="604.6" y="148.3" class="st0" width="6" height="2"/>
	<rect x="616.6" y="148.3" class="st0" width="6" height="2"/>
	<rect x="592.5" y="148.3" class="st0" width="6" height="2"/>
	<rect x="568.3" y="148.3" class="st0" width="6" height="2"/>
	<rect x="580.4" y="148.3" class="st0" width="6" height="2"/>
	<rect x="556.3" y="148.3" class="st0" width="6" height="2"/>
	<rect x="689.1" y="148.3" class="st0" width="6" height="2"/>
	<rect x="652.9" y="148.3" class="st0" width="6" height="2"/>
	<rect x="544.2" y="148.3" class="st0" width="6" height="2"/>
	<rect x="677" y="148.3" class="st0" width="6" height="2"/>
	<rect x="664.9" y="148.3" class="st0" width="6" height="2"/>
	<rect x="628.7" y="148.3" class="st0" width="6" height="2"/>
	<rect x="640.8" y="148.3" class="st0" width="6" height="2"/>
	<rect x="701.1" y="148.3" class="st0" width="3" height="2"/>
	<rect x="618.6" y="81.3" class="st0" width="2" height="6"/>
	<rect x="618.6" y="153.3" class="st0" width="2" height="6"/>
	<rect x="618.6" y="69.3" class="st0" width="2" height="6"/>
	<rect x="618.6" y="129.3" class="st0" width="2" height="6"/>
	<rect x="618.6" y="117.3" class="st0" width="2" height="6"/>
	<rect x="618.6" y="141.3" class="st0" width="2" height="6"/>
	<rect x="618.6" y="105.3" class="st0" width="2" height="6"/>
	<rect x="618.6" y="93.3" class="st0" width="2" height="6"/>
</g>
<line class="st3" x1="238.8" y1="32.4" x2="238.8" y2="69.3"/>
<text transform="matrix(1 0 0 1 267.8974 31.0238)" class="st0 st1 st2">D2</text>
<text transform="matrix(1 0 0 1 159.2209 115.5182)" class="st0 st1 st2">M</text>
<text transform="matrix(1 0 0 1 382.9756 154.4537)" class="st0 st1 st2">D1</text>
<text transform="matrix(1 0 0 1 232.9604 219.3384)" class="st0 st1 st2">C</text>
<line class="st3" x1="317.5" y1="69.3" x2="317.5" y2="32.4"/>
<g>
	<g>
		<line class="st3" x1="245.9" y1="39.8" x2="310.3" y2="39.8"/>
		<g>
			<polygon class="st0" points="247.4,44.8 238.8,39.8 247.4,34.8 			"/>
		</g>
		<g>
			<polygon class="st0" points="308.9,44.8 317.5,39.8 308.9,34.8 			"/>
		</g>
	</g>
</g>
<line class="st3" x1="295.5" y1="69.3" x2="295.5" y2="51.7"/>
<g>
	<g>
		<line class="st3" x1="288.3" y1="60.5" x2="278" y2="60.5"/>
		<g>
			<polygon class="st0" points="286.9,55.5 295.5,60.5 286.9,65.5 			"/>
		</g>
	</g>
</g>
<g>
	<g>
		<line class="st3" x1="335.1" y1="60.5" x2="324.7" y2="60.5"/>
		<g>
			<polygon class="st0" points="326.1,55.5 317.5,60.5 326.1,65.5 			"/>
		</g>
	</g>
</g>
<text transform="matrix(1 0 0 1 661.9965 54.3043)" class="st0 st1 st2">T</text>
<text transform="matrix(1 0 0 1 609.855 31.0238)" class="st0 st1 st2">D2</text>
<g>
	<g>
		<line class="st3" x1="599.4" y1="39.8" x2="639.9" y2="39.8"/>
		<g>
			<polygon class="st0" points="600.9,44.8 592.2,39.8 600.9,34.8 			"/>
		</g>
		<g>
			<polygon class="st0" points="638.4,44.8 647.1,39.8 638.4,34.8 			"/>
		</g>
	</g>
</g>
<g>
	<g>
		<line class="st3" x1="617.8" y1="60.5" x2="607.2" y2="60.5"/>
		<g>
			<polygon class="st0" points="616.4,55.5 625,60.5 616.4,65.5 			"/>
		</g>
	</g>
</g>
<g>
	<g>
		<line class="st3" x1="664.3" y1="60.5" x2="653.9" y2="60.5"/>
		<g>
			<polygon class="st0" points="655.4,55.5 646.8,60.5 655.4,65.5 			"/>
		</g>
	</g>
</g>
<line class="st3" x1="238.8" y1="69.3" x2="174.4" y2="69.3"/>
<line class="st3" x1="206.7" y1="149.8" x2="174.9" y2="149.8"/>
<g>
	<g>
		<line class="st3" x1="184.5" y1="76.5" x2="184.5" y2="142.6"/>
		<g>
			<polygon class="st0" points="179.5,78 184.5,69.3 189.5,78 			"/>
		</g>
		<g>
			<polygon class="st0" points="179.5,141.1 184.5,149.8 189.5,141.1 			"/>
		</g>
	</g>
</g>
<text transform="matrix(1 0 0 1 488.8079 115.5182)" class="st0 st1 st2">M</text>
<line class="st3" x1="592.2" y1="69.3" x2="504" y2="69.3"/>
<line class="st3" x1="535.2" y1="149.3" x2="503.4" y2="149.3"/>
<g>
	<g>
		<line class="st3" x1="514.1" y1="76.5" x2="514.1" y2="142.2"/>
		<g>
			<polygon class="st0" points="509.1,78 514.1,69.3 519.1,78 			"/>
		</g>
		<g>
			<polygon class="st0" points="509.1,140.7 514.1,149.3 519.1,140.7 			"/>
		</g>
	</g>
</g>
<line class="st3" x1="198.4" y1="187.5" x2="198.4" y2="210.6"/>
<line class="st3" x1="278.1" y1="187.5" x2="278.1" y2="210.6"/>
<g>
	<g>
		<line class="st3" x1="205.6" y1="199.1" x2="271" y2="199.1"/>
		<g>
			<polygon class="st0" points="207.1,204 198.4,199.1 207.1,194.1 			"/>
		</g>
		<g>
			<polygon class="st0" points="269.5,204 278.1,199.1 269.5,194.1 			"/>
		</g>
	</g>
</g>
<text transform="matrix(1 0 0 1 573.2017 219.3384)" class="st0 st1 st2">C</text>
<line class="st3" x1="536.3" y1="187.5" x2="536.3" y2="210.6"/>
<line class="st3" x1="619.6" y1="187.5" x2="619.6" y2="210.6"/>
<g>
	<g>
		<line class="st3" x1="543.5" y1="199.1" x2="612.4" y2="199.1"/>
		<g>
			<polygon class="st0" points="545,204 536.3,199.1 545,194.1 			"/>
		</g>
		<g>
			<polygon class="st0" points="611,204 619.6,199.1 611,194.1 			"/>
		</g>
	</g>
</g>
<line class="st3" x1="358.8" y1="112.2" x2="384.1" y2="112.2"/>
<line class="st3" x1="358.8" y1="187.5" x2="384.1" y2="187.5"/>
<g>
	<g>
		<line class="st3" x1="374.9" y1="119.3" x2="374.9" y2="180.3"/>
		<g>
			<polygon class="st0" points="369.9,120.8 374.9,112.2 379.9,120.8 			"/>
		</g>
		<g>
			<polygon class="st0" points="369.9,178.9 374.9,187.5 379.9,178.9 			"/>
		</g>
	</g>
</g>
<text transform="matrix(1 0 0 1 728.2844 154.7372)" class="st0 st1 st2">D1</text>
<line class="st3" x1="704.1" y1="112.2" x2="729.4" y2="112.2"/>
<line class="st3" x1="704.1" y1="188.5" x2="729.4" y2="188.5"/>
<g>
	<g>
		<line class="st3" x1="720.2" y1="119.3" x2="720.2" y2="181.3"/>
		<g>
			<polygon class="st0" points="715.2,120.8 720.2,112.2 725.2,120.8 			"/>
		</g>
		<g>
			<polygon class="st0" points="715.2,179.9 720.2,188.5 725.2,179.9 			"/>
		</g>
	</g>
</g>
<line class="st3" x1="647.1" y1="69.3" x2="647.1" y2="32.4"/>
<line class="st3" x1="625.1" y1="69.3" x2="625.1" y2="51.7"/>
<line class="st3" x1="592.2" y1="69.3" x2="592.2" y2="32.4"/>
</svg>
