<?xml version="1.0" encoding="utf-8"?>
<!-- Generator: Adobe Illustrator 23.0.0, SVG Export Plug-In . SVG Version: 6.00 Build 0)  -->
<svg version="1.1" id="图层_1" xmlns="http://www.w3.org/2000/svg" xmlns:xlink="http://www.w3.org/1999/xlink" x="0px" y="0px"
	 viewBox="0 0 425.2 425.2" style="enable-background:new 0 0 425.2 425.2;" xml:space="preserve">
<style type="text/css">
	.st0{fill:#666666;}
	.st1{fill-rule:evenodd;clip-rule:evenodd;fill:#FFFFFF;}
</style>
<title>画板 2 副本 2</title>
<circle class="st0" cx="212.6" cy="212.6" r="205.5"/>
<path class="st1" d="M209.2,346.6c-12.3-39-78.6-55.2-90.3-88.6c-5.6-21.2-5-45.7,5.6-61.9c0,21.2,15,50.7,29,36.2
	c12.8-13.4-26.7-19-21.2-50.2c1.1-14.5,13.4-22.3,18.4-55.2c14,13.9-7.8,36.8,25.1,50.2c-39.6-47.9,30.6-65.2,25.1-111.5
	c52.4,51.8,1.1,83.6,29.6,97c10.6,4.4,25.6-24,15.6-47.6c31.2,26.7,27.9,55.7,11.7,78.6c-6.1,8.4,0.6,26.2,8.4,31.8
	c-2.8-16.7,11.7-25.1,15.6-41.3c29,32.3,39.6,71.9-8.4,104.2C242.6,309.3,225.9,325.4,209.2,346.6z"/>
</svg>
