<?xml version="1.0" encoding="utf-8"?>
<!-- Generator: Adobe Illustrator 23.0.0, SVG Export Plug-In . SVG Version: 6.00 Build 0)  -->
<svg version="1.1" id="图层_1" xmlns="http://www.w3.org/2000/svg" xmlns:xlink="http://www.w3.org/1999/xlink" x="0px" y="0px"
	 viewBox="0 0 425.2 425.2" style="enable-background:new 0 0 425.2 425.2;" xml:space="preserve">
<style type="text/css">
	.st0{fill:#FFFFFF;}
	.st1{fill:#666666;}
</style>
<title>画板 2 副本 2</title>
<g>
	<g>
		<rect x="176.3" y="130.2" class="st0" width="72.7" height="164.8"/>
	</g>
	<g>
		<g>
			<polygon class="st0" points="285.1,283.4 212.6,351.9 140.1,283.4 			"/>
		</g>
	</g>
	<g>
		<g>
			<polygon class="st0" points="285.1,141.8 212.6,73.3 140.1,141.8 			"/>
		</g>
	</g>
</g>
<path class="st1" d="M212.6,7.1C99.3,7.1,7.1,99.3,7.1,212.6c0,113.3,92.2,205.5,205.5,205.5c113.3,0,205.5-92.2,205.5-205.5
	C418.1,99.3,325.9,7.1,212.6,7.1z M287.4,266.4c4.5-14.4,7.2-28.3,8.1-42.2h46.9c-1.3,14.7-5,28.8-11.1,42.2H287.4z M295.4,200.9
	c-0.9-13.9-3.6-27.7-8.1-42.1h43.8c6.1,13.3,9.8,27.5,11.1,42.1H295.4z M224.3,200.9v-42.1h38.6c5,14.1,8.1,28.2,9.1,42.1H224.3z
	 M279,135.5c-8.1-17.8-19.1-34-32.6-48.5c28.6,7.6,53.7,24.6,71.2,48.5H279z M224.3,135.5V97.2c11.9,11.5,21.7,24.3,29.2,38.2H224.3
	z M224.3,266.4v-42.2h47.8c-1.1,13.9-4.1,28.1-9.1,42.2H224.3z M317.6,289.7c-17.6,23.9-42.6,40.9-71.2,48.5
	c13.5-14.5,24.4-30.7,32.6-48.5H317.6z M224.3,328v-38.2h29.2C245.9,303.6,236.2,316.4,224.3,328z M137.8,266.4H94
	c-6.1-13.3-9.8-27.5-11.1-42.2h46.8C130.7,238.1,133.3,252,137.8,266.4z M146.2,289.7c8.1,17.8,19.1,34,32.6,48.5
	c-28.6-7.6-53.6-24.6-71.2-48.5H146.2z M201,289.7v38.6c-11.9-11.6-21.8-24.5-29.4-38.6H201z M201,224.2v42.2h-38.8
	c-5-14-8-28.2-9.1-42.2H201z M201,158.8v42.1h-47.8c1.1-14,4.1-28.1,9.1-42.1H201z M171.5,135.5c7.7-14.1,17.5-27,29.4-38.6v38.6
	H171.5z M107.6,135.5c17.6-23.9,42.6-40.9,71.2-48.5c-13.5,14.5-24.5,30.7-32.6,48.5H107.6z M82.9,200.9c1.3-14.7,5-28.8,11.1-42.1
	h43.8c-4.5,14.4-7.1,28.3-8.1,42.1H82.9z"/>
</svg>
