<svg id="图层_1" data-name="图层 1" xmlns="http://www.w3.org/2000/svg" viewBox="0 0 1133.9 672.3"><defs><style>.cls-1,.cls-6{fill:none;stroke-miterlimit:10;}.cls-1{stroke:#999899;stroke-width:3px;}.cls-2,.cls-3,.cls-8,.cls-9{isolation:isolate;font-family:Calibri-Bold, Calibri;font-weight:700;}.cls-2,.cls-8{font-size:24px;}.cls-2,.cls-3{fill:#231815;}.cls-3,.cls-9{font-size:13.99px;}.cls-4{letter-spacing:-0.02em;}.cls-5,.cls-8,.cls-9{fill:#c4af9a;}.cls-6{stroke:#c4af9a;stroke-linecap:round;stroke-width:6px;}.cls-7{fill:#fff;}</style></defs><title>aluminum</title><path class="cls-1" d="M182.9,35.6H938.8a12,12,0,0,1,12,12V564.8a12,12,0,0,1-12,12H182.9a12,12,0,0,1-12-12V47.6A12,12,0,0,1,182.9,35.6Z"/><line class="cls-1" x1="326.9" y1="576.7" x2="326.9" y2="35.6"/><line class="cls-1" x1="482.9" y1="576.7" x2="482.9" y2="35.6"/><line class="cls-1" x1="638.9" y1="576.7" x2="638.9" y2="35.6"/><line class="cls-1" x1="794.9" y1="575.2" x2="794.9" y2="34.1"/><text class="cls-2" transform="translate(75.06 323.65) rotate(-90)">γ’%</text><text class="cls-2" transform="translate(1062.06 349.41) rotate(-90)">σ</text><text class="cls-3" transform="translate(1070.05 336.35) rotate(-90)">0.2</text><text class="cls-2" transform="translate(1062.06 318.43) rotate(-90)">/M<tspan class="cls-4" x="31.29" y="0">P</tspan><tspan x="43.59" y="0">a</tspan></text><text class="cls-2" transform="translate(132.1 41.2)">18</text><text class="cls-2" transform="translate(144.27 582.3)">8</text><line class="cls-1" x1="170.9" y1="252" x2="950.8" y2="252"/><text class="cls-2" transform="translate(132.1 257.62)">14</text><text class="cls-2" transform="translate(968.13 257.62)">900</text><line class="cls-1" x1="170.9" y1="143.8" x2="950.8" y2="143.8"/><text class="cls-2" transform="translate(132.1 149.36)">16</text><text class="cls-2" transform="translate(968.13 149.36)">1000</text><line class="cls-1" x1="170.9" y1="468.5" x2="950.8" y2="468.5"/><text class="cls-2" transform="translate(132.1 474.14)">10</text><text class="cls-2" transform="translate(968.13 474.14)">700</text><line class="cls-1" x1="170.9" y1="360.3" x2="950.8" y2="360.3"/><text class="cls-2" transform="translate(132.1 365.88)">12</text><text class="cls-2" transform="translate(968.13 365.88)">800</text><text class="cls-2" transform="translate(968.13 41.2)">1100</text><text class="cls-2" transform="translate(968.13 582.3)">600</text><text class="cls-2" transform="translate(169.52 602.73)">0</text><text class="cls-2" transform="translate(472.17 602.73)">1</text><text class="cls-2" transform="translate(306.9 602.73)">0.5</text><text class="cls-2" transform="translate(784.13 602.73)">2</text><text class="cls-2" transform="translate(930.82 602.73)">2.5</text><text class="cls-2" transform="translate(618.86 602.73)">1.5</text><text class="cls-2" transform="translate(543.26 647.33)">Al%</text><circle class="cls-5" cx="342.5" cy="549.8" r="8.6"/><circle class="cls-5" cx="467.3" cy="382.6" r="8.6"/><path class="cls-5" d="M467.3,406.4a4.59,4.59,0,0,1,4.6,4.6,4.65,4.65,0,0,1-4.6,4.6,4.59,4.59,0,0,1-4.6-4.6,4.65,4.65,0,0,1,4.6-4.6h0m0-4a8.6,8.6,0,1,0,8.6,8.6,8.6,8.6,0,0,0-8.6-8.6Z"/><circle class="cls-5" cx="592.1" cy="222.8" r="8.6"/><path class="cls-5" d="M592.1,373a4.59,4.59,0,0,1,4.6,4.6,4.6,4.6,0,0,1-9.2,0,4.59,4.59,0,0,1,4.6-4.6h0m0-4a8.6,8.6,0,1,0,8.6,8.6,8.6,8.6,0,0,0-8.6-8.6Z"/><circle class="cls-5" cx="748.1" cy="101.9" r="8.6"/><path class="cls-6" d="M342.5,549.8c120.2-197,258.2-357,405.5-447.9"/><path class="cls-6" d="M342.5,537.8C467.3,374,609.1,425.3,748.1,174.3"/><circle class="cls-7" cx="342.5" cy="537.8" r="6.6"/><path class="cls-5" d="M342.5,533.2a4.59,4.59,0,0,1,4.6,4.6,4.65,4.65,0,0,1-4.6,4.6,4.59,4.59,0,0,1-4.6-4.6,4.65,4.65,0,0,1,4.6-4.6h0m0-4a8.6,8.6,0,1,0,8.6,8.6,8.6,8.6,0,0,0-8.6-8.6Z"/><circle class="cls-7" cx="748.1" cy="174.3" r="6.6"/><path class="cls-5" d="M748.1,169.6a4.59,4.59,0,0,1,4.6,4.6,4.6,4.6,0,0,1-9.2,0,4.59,4.59,0,0,1,4.6-4.6h0m0-4a8.6,8.6,0,1,0,8.6,8.6,8.6,8.6,0,0,0-8.6-8.6Z"/><text class="cls-8" transform="translate(566.95 182.91)">γ’%</text><text class="cls-8" transform="translate(700.16 294.55)">σ</text><text class="cls-9" transform="translate(713.23 302.54)">0.2</text></svg>