<svg id="图层_1" data-name="图层 1" xmlns="http://www.w3.org/2000/svg" viewBox="0 0 1133.9 672.3"><defs><style>.cls-1,.cls-5{fill:none;stroke-miterlimit:10;}.cls-1{stroke:#999899;stroke-width:3px;}.cls-2{isolation:isolate;font-size:24px;fill:#231815;font-family:Calibri-Bold, Calibri;font-weight:700;}.cls-3{letter-spacing:-0.01em;}.cls-4{fill:#c4af9a;}.cls-5{stroke:#c4af9a;stroke-linecap:round;stroke-width:6px;}</style></defs><title>aluminum2</title><path class="cls-1" d="M247.66,35.6h755.9a12,12,0,0,1,12,12V564.8a12,12,0,0,1-12,12H247.66a12,12,0,0,1-12-12V47.6A12,12,0,0,1,247.66,35.6Z"/><line class="cls-1" x1="966.82" y1="575.2" x2="966.82" y2="34.1"/><line class="cls-1" x1="918.08" y1="575.2" x2="918.08" y2="34.1"/><line class="cls-1" x1="869.33" y1="575.2" x2="869.33" y2="34.1"/><line class="cls-1" x1="820.59" y1="575.2" x2="820.59" y2="34.1"/><line class="cls-1" x1="771.85" y1="575.2" x2="771.85" y2="34.1"/><line class="cls-1" x1="723.1" y1="575.2" x2="723.1" y2="34.1"/><line class="cls-1" x1="674.36" y1="575.2" x2="674.36" y2="34.1"/><line class="cls-1" x1="625.61" y1="575.2" x2="625.61" y2="34.1"/><line class="cls-1" x1="576.87" y1="575.2" x2="576.87" y2="34.1"/><line class="cls-1" x1="528.13" y1="575.2" x2="528.13" y2="34.1"/><line class="cls-1" x1="479.38" y1="575.2" x2="479.38" y2="34.1"/><line class="cls-1" x1="430.64" y1="575.2" x2="430.64" y2="34.1"/><line class="cls-1" x1="381.9" y1="575.2" x2="381.9" y2="34.1"/><line class="cls-1" x1="333.15" y1="575.2" x2="333.15" y2="34.1"/><line class="cls-1" x1="284.41" y1="575.2" x2="284.41" y2="34.1"/><text class="cls-2" transform="translate(139.77 379.21) rotate(-90)">B<tspan class="cls-3" x="13.45" y="0">r</tspan><tspan x="21.71" y="0">eak Time / h</tspan></text><text class="cls-2" transform="translate(184.66 41.2)">200</text><text class="cls-2" transform="translate(208.99 582.3)">0</text><line class="cls-1" x1="235.66" y1="143.84" x2="1015.56" y2="143.84"/><text class="cls-2" transform="translate(184.66 149.44)">160</text><line class="cls-1" x1="235.66" y1="89.72" x2="1015.56" y2="89.72"/><text class="cls-2" transform="translate(184.66 95.32)">180</text><line class="cls-1" x1="235.66" y1="252.08" x2="1015.56" y2="252.08"/><text class="cls-2" transform="translate(184.66 257.68)">120</text><line class="cls-1" x1="235.66" y1="197.96" x2="1015.56" y2="197.96"/><text class="cls-2" transform="translate(184.66 203.56)">140</text><line class="cls-1" x1="235.66" y1="360.32" x2="1015.56" y2="360.32"/><text class="cls-2" transform="translate(196.82 365.92)">80</text><line class="cls-1" x1="235.66" y1="306.2" x2="1015.56" y2="306.2"/><text class="cls-2" transform="translate(184.66 311.8)">100</text><line class="cls-1" x1="235.66" y1="468.56" x2="1015.56" y2="468.56"/><text class="cls-2" transform="translate(196.82 474.16)">40</text><line class="cls-1" x1="235.66" y1="522.68" x2="1015.56" y2="522.68"/><text class="cls-2" transform="translate(196.82 528.28)">20</text><line class="cls-1" x1="235.66" y1="414.44" x2="1015.56" y2="414.44"/><text class="cls-2" transform="translate(196.82 420.04)">60</text><text class="cls-2" transform="translate(234.24 602.73)">2</text><text class="cls-2" transform="translate(717.02 602.73)">4</text><text class="cls-2" transform="translate(960.74 602.73)">5</text><text class="cls-2" transform="translate(473.3 602.73)">3</text><text class="cls-2" transform="translate(607.97 647.33)">Al%</text><circle class="cls-4" cx="341.75" cy="203.56" r="8.6"/><circle class="cls-4" cx="394.5" cy="148.34" r="8.6"/><circle class="cls-4" cx="384.76" cy="212.16" r="8.6"/><circle class="cls-4" cx="480.52" cy="276.6" r="8.6"/><circle class="cls-4" cx="533.54" cy="417.76" r="8.6"/><circle class="cls-4" cx="726.26" cy="509.45" r="8.6"/><circle class="cls-4" cx="966.96" cy="525.01" r="8.6"/><circle class="cls-4" cx="430.64" cy="114.75" r="8.6"/><polyline class="cls-5" points="341.75 203.56 430.64 114.75 479.38 276.6 533.54 417.76 726.26 509.45 966.82 525.01"/></svg>