<svg id="图层_1" data-name="图层 1" xmlns="http://www.w3.org/2000/svg" viewBox="0 0 1133.9 672.3"><defs><style>.cls-1,.cls-6{fill:none;stroke-miterlimit:10;}.cls-1{stroke:#999899;stroke-width:3px;}.cls-2{isolation:isolate;font-size:24px;fill:#231815;font-family:Calibri-Bold, Calibri;font-weight:700;}.cls-3{letter-spacing:-0.01em;}.cls-4{letter-spacing:0em;}.cls-5{fill:#7fb285;}.cls-6{stroke:#7fb285;stroke-linecap:round;stroke-width:6px;}</style></defs><title>cobalt2</title><path class="cls-1" d="M230.82,35.6h755.9a12,12,0,0,1,12,12V564.8a12,12,0,0,1-12,12H230.82a12,12,0,0,1-12-12V47.6A12,12,0,0,1,230.82,35.6Z"/><text class="cls-2" transform="translate(122.98 405.68) rotate(-90)">C<tspan class="cls-3" x="12.7" y="0">r</tspan><tspan x="20.96" y="0">eep Ru</tspan><tspan class="cls-4" x="89.82" y="0">p</tspan><tspan x="102.61" y="0">tu</tspan><tspan class="cls-3" x="123.81" y="0">r</tspan><tspan x="132.07" y="0">e Time</tspan></text><text class="cls-2" transform="translate(155.69 41.2)">1200</text><text class="cls-2" transform="translate(192.18 582.3)">0</text><line class="cls-1" x1="218.82" y1="220.22" x2="998.72" y2="220.22"/><text class="cls-2" transform="translate(167.86 225.82)">800</text><line class="cls-1" x1="218.82" y1="394.15" x2="998.72" y2="394.15"/><text class="cls-2" transform="translate(167.86 399.75)">400</text><text class="cls-2" transform="translate(217.44 602.73)">0</text><line class="cls-1" x1="413.79" y1="576.7" x2="413.79" y2="35.6"/><text class="cls-2" transform="translate(407.71 602.73)">5</text><line class="cls-1" x1="608.77" y1="576.7" x2="608.77" y2="35.6"/><text class="cls-2" transform="translate(596.61 602.73)">10</text><line class="cls-1" x1="803.74" y1="576.7" x2="803.74" y2="35.6"/><text class="cls-2" transform="translate(791.58 602.73)">15</text><text class="cls-2" transform="translate(978.74 602.73)">20</text><text class="cls-2" transform="translate(591.18 647.33)">Co%</text><circle class="cls-5" cx="218.82" cy="471" r="8.6"/><circle class="cls-5" cx="484.76" cy="408.35" r="8.6"/><circle class="cls-5" cx="750.76" cy="303.88" r="8.6"/><circle class="cls-5" cx="998.72" cy="65.7" r="8.6"/><path class="cls-6" d="M218.82,471c112.39-19.66,654.34-118.11,779.9-405.3"/></svg>