<svg id="图层_1" data-name="图层 1" xmlns="http://www.w3.org/2000/svg" viewBox="0 0 1133.9 672.3"><defs><style>.cls-1,.cls-7{fill:none;stroke-miterlimit:10;}.cls-1{stroke:#999899;stroke-width:3px;}.cls-2{isolation:isolate;font-size:24px;fill:#231815;font-family:Calibri-Bold, Calibri;font-weight:700;}.cls-3{letter-spacing:-0.01em;}.cls-4{letter-spacing:-0.03em;}.cls-5{letter-spacing:-0.01em;}.cls-6{fill:#7fb285;}.cls-7{stroke:#7fb285;stroke-linecap:round;stroke-width:6px;}</style></defs><title>cobalt</title><path class="cls-1" d="M230.8,35.6H986.7a12,12,0,0,1,12,12V564.8a12,12,0,0,1-12,12H230.8a12,12,0,0,1-12-12V47.6A12,12,0,0,1,230.8,35.6Z"/><text class="cls-2" transform="translate(122.98 411.6) rotate(-90)">S<tspan class="cls-3" x="11.34" y="0">t</tspan><tspan x="19.43" y="0">acking </tspan><tspan class="cls-4" x="88.42" y="0">F</tspan><tspan x="98.78" y="0">ault Ene</tspan><tspan class="cls-5" x="179.81" y="0">r</tspan><tspan x="188.06" y="0">gy</tspan></text><text class="cls-2" transform="translate(192.18 41.2)">7</text><text class="cls-2" transform="translate(192.18 582.3)">3</text><line class="cls-1" x1="218.8" y1="170.9" x2="998.7" y2="170.9"/><text class="cls-2" transform="translate(192.18 176.48)">6</text><line class="cls-1" x1="218.8" y1="306.1" x2="998.7" y2="306.1"/><text class="cls-2" transform="translate(192.18 311.75)">5</text><line class="cls-1" x1="218.8" y1="441.4" x2="998.7" y2="441.4"/><text class="cls-2" transform="translate(192.18 447.03)">4</text><text class="cls-2" transform="translate(217.44 602.73)">0</text><line class="cls-1" x1="373.7" y1="576.7" x2="373.7" y2="35.6"/><text class="cls-2" transform="translate(367.61 602.73)">5</text><line class="cls-1" x1="530" y1="576.7" x2="530" y2="35.6"/><text class="cls-2" transform="translate(517.79 602.73)">10</text><line class="cls-1" x1="686.2" y1="576.7" x2="686.2" y2="35.6"/><text class="cls-2" transform="translate(674.04 602.73)">15</text><line class="cls-1" x1="842.5" y1="576.7" x2="842.5" y2="35.6"/><text class="cls-2" transform="translate(830.3 602.73)">20</text><text class="cls-2" transform="translate(978.74 602.73)">25</text><text class="cls-2" transform="translate(591.18 647.33)">Co%</text><circle class="cls-6" cx="218.8" cy="111.9" r="8.6"/><circle class="cls-6" cx="543.6" cy="206.2" r="8.6"/><circle class="cls-6" cx="693.1" cy="303.9" r="8.6"/><circle class="cls-6" cx="823" cy="355.7" r="8.6"/><circle class="cls-6" cx="975.3" cy="418.4" r="8.6"/><line class="cls-7" x1="218.8" y1="111.9" x2="975.3" y2="418.4"/></svg>