<svg id="图层_1" data-name="图层 1" xmlns="http://www.w3.org/2000/svg" viewBox="0 0 1133.9 672.3"><defs><style>.cls-1,.cls-7{fill:none;stroke-miterlimit:10;}.cls-1{stroke:#999899;stroke-width:3px;}.cls-2,.cls-3,.cls-4,.cls-5{isolation:isolate;}.cls-2,.cls-5{font-size:24px;}.cls-2,.cls-3,.cls-5{fill:#231815;font-family:Calibri-Bold, Calibri;font-weight:700;}.cls-3{font-size:13.92px;}.cls-5{letter-spacing:-0.02em;}.cls-6{fill:#f6d8ae;}.cls-7{stroke:#f6d8ae;stroke-linecap:round;stroke-width:6px;}</style></defs><title>titanium</title><path class="cls-1" d="M223.5,35.6H979.4a12,12,0,0,1,12,12V564.8a12,12,0,0,1-12,12H223.5a12,12,0,0,1-12-12V47.6A12,12,0,0,1,223.5,35.6Z"/><line class="cls-1" x1="211.5" y1="215.93" x2="991.4" y2="215.93"/><line class="cls-1" x1="211.5" y1="396.37" x2="991.4" y2="396.37"/><line class="cls-1" x1="367.48" y1="576.7" x2="367.48" y2="35.6"/><line class="cls-1" x1="523.46" y1="576.7" x2="523.46" y2="35.6"/><line class="cls-1" x1="679.44" y1="576.7" x2="679.44" y2="35.6"/><line class="cls-1" x1="835.42" y1="575.2" x2="835.42" y2="34.1"/><text class="cls-2" transform="translate(115.61 349.41) rotate(-90)">σ</text><text class="cls-3" transform="translate(123.6 336.35) rotate(-90)">0.2</text><g class="cls-4"><text class="cls-2" transform="translate(115.61 318.43) rotate(-90)">/M</text><text class="cls-5" transform="translate(115.61 287.14) rotate(-90)">P</text><text class="cls-2" transform="translate(115.61 274.84) rotate(-90)">a</text></g><text class="cls-2" transform="translate(148.33 221.53)">1000</text><text class="cls-2" transform="translate(148.33 41.2)">1200</text><text class="cls-2" transform="translate(160.49 401.97)">800</text><text class="cls-2" transform="translate(160.49 582.3)">600</text><text class="cls-2" transform="translate(205.44 602.73)">1.5</text><text class="cls-2" transform="translate(508.09 602.73)">2.5</text><text class="cls-2" transform="translate(352.11 602.73)">2.0</text><text class="cls-2" transform="translate(820.05 602.73)">3.5</text><text class="cls-2" transform="translate(976.03 602.73)">4.0</text><text class="cls-2" transform="translate(664.07 602.73)">3.0</text><text class="cls-2" transform="translate(583.81 647.33)">Ti%</text><circle class="cls-6" cx="333" cy="494.4" r="8.6"/><circle class="cls-6" cx="483.53" cy="378.6" r="8.6"/><circle class="cls-6" cx="607.66" cy="321.31" r="8.6"/><circle class="cls-6" cx="699.97" cy="307.61" r="8.6"/><circle class="cls-6" cx="781.4" cy="263.3" r="8.6"/><circle class="cls-6" cx="802.95" cy="234.1" r="8.6"/><circle class="cls-6" cx="920.83" cy="113.39" r="8.6"/><circle class="cls-6" cx="521.76" cy="399.7" r="8.6"/><line class="cls-7" x1="333" y1="494.4" x2="920.83" y2="113.39"/></svg>