<svg id="图层_1" data-name="图层 1" xmlns="http://www.w3.org/2000/svg" viewBox="0 0 691.78 672.27"><defs><style>.cls-1{fill:#fff;}.cls-1,.cls-2{stroke:#999899;stroke-width:3px;}.cls-1,.cls-2,.cls-5{stroke-miterlimit:10;}.cls-2,.cls-5{fill:none;}.cls-3{font-size:24px;fill:#231815;font-family:Calibri-Bold, Calibri;font-weight:700;}.cls-4{fill:#2f5288;}.cls-5{stroke:#2f5288;stroke-width:6px;}</style></defs><title>nickel</title><rect class="cls-1" x="123.57" y="27.06" width="541.15" height="541.15" rx="13.13"/><line class="cls-2" x1="123.57" y1="105.16" x2="664.72" y2="105.16"/><line class="cls-2" x1="123.57" y1="201.54" x2="664.72" y2="201.54"/><line class="cls-2" x1="123.57" y1="297.92" x2="664.72" y2="297.92"/><line class="cls-2" x1="123.57" y1="394.3" x2="664.72" y2="394.3"/><line class="cls-2" x1="123.57" y1="490.68" x2="664.72" y2="490.68"/><line class="cls-2" x1="394.14" y1="568.21" x2="394.14" y2="27.06"/><line class="cls-2" x1="225.44" y1="568.21" x2="225.44" y2="27.06"/><line class="cls-2" x1="562.85" y1="568.21" x2="562.85" y2="27.06"/><text class="cls-3" transform="translate(72.54 105.16)">500</text><text class="cls-3" transform="translate(72.54 201.54)">400</text><text class="cls-3" transform="translate(72.54 297.92)">300</text><text class="cls-3" transform="translate(45.66 312.89) rotate(-90)">τ / h</text><text class="cls-3" transform="translate(72.54 394.3)">200</text><text class="cls-3" transform="translate(72.54 490.68)">100</text><text class="cls-3" transform="translate(213.27 594.23)">40</text><text class="cls-3" transform="translate(381.98 594.23)">45</text><text class="cls-3" transform="translate(363.96 638.83)">Ni / %</text><text class="cls-3" transform="translate(550.68 594.23)">50</text><circle class="cls-4" cx="225.44" cy="433.86" r="8.63"/><circle class="cls-4" cx="394.14" cy="214.38" r="8.63"/><circle class="cls-4" cx="562.85" cy="175.88" r="8.63"/><path class="cls-5" d="M225.44,433.86c23.05-59.3,110.89-184.7,168.7-219.48s132.77-38.5,168.71-38.5"/></svg>