<svg id="图层_1" data-name="图层 1" xmlns="http://www.w3.org/2000/svg" viewBox="0 0 850.4 566.9"><defs><style>.cls-1{fill:#fff;}.cls-2,.cls-9{fill:none;}.cls-2{stroke:#eee;stroke-miterlimit:10;}.cls-10,.cls-11,.cls-12,.cls-13,.cls-14,.cls-3,.cls-4,.cls-6,.cls-7,.cls-8{fill:#999;}.cls-11,.cls-12,.cls-13,.cls-14,.cls-16,.cls-17,.cls-18,.cls-19,.cls-20,.cls-21,.cls-23,.cls-4,.cls-5,.cls-6,.cls-7,.cls-8{isolation:isolate;}.cls-11,.cls-4,.cls-6,.cls-7,.cls-8{font-size:9.59px;}.cls-11,.cls-12,.cls-13,.cls-14,.cls-16,.cls-17,.cls-18,.cls-19,.cls-20,.cls-21,.cls-23,.cls-4,.cls-6,.cls-7,.cls-8{font-family:Calibri-Bold, Calibri;font-weight:700;}.cls-6{letter-spacing:-0.01em;}.cls-7{letter-spacing:-0.02em;}.cls-8{letter-spacing:-0.01em;}.cls-9{stroke:#999;stroke-linecap:round;stroke-linejoin:round;stroke-width:1.6px;}.cls-10,.cls-22{fill-rule:evenodd;}.cls-11{letter-spacing:-0.05em;}.cls-12,.cls-13,.cls-14{font-size:8px;}.cls-12{letter-spacing:-0.04em;}.cls-14{letter-spacing:-0.05em;}.cls-15,.cls-16,.cls-17,.cls-18,.cls-19,.cls-20,.cls-21,.cls-22,.cls-23{fill:#989898;}.cls-16,.cls-17,.cls-18,.cls-19,.cls-20,.cls-21,.cls-23{font-size:9.6px;}.cls-17{letter-spacing:-0.04em;}.cls-18{letter-spacing:-0.01em;}.cls-19{letter-spacing:-0.01em;}.cls-20{letter-spacing:-0.09em;}.cls-21{letter-spacing:-0.02em;}.cls-23{letter-spacing:-0.05em;}</style></defs><rect class="cls-1" width="850.4" height="566.9"/><line class="cls-2" x1="850.4" y1="46.7" y2="46.7"/><line class="cls-2" x1="850.4" y1="165.1" y2="165.1"/><line class="cls-2" x1="850.4" y1="283.5" y2="283.5"/><line class="cls-2" x1="850.4" y1="401.9" y2="401.9"/><line class="cls-2" x1="850.4" y1="105.9" y2="105.9"/><line class="cls-2" x1="850.4" y1="224.3" y2="224.3"/><line class="cls-2" x1="850.4" y1="342.7" y2="342.7"/><line class="cls-2" x1="850.4" y1="461" y2="461"/><line class="cls-2" x1="850.4" y1="520.2" y2="520.2"/><line class="cls-2" x1="850.4" y1="135.5" y2="135.5"/><line class="cls-2" x1="850.4" y1="253.9" y2="253.9"/><line class="cls-2" x1="850.4" y1="372.3" y2="372.3"/><line class="cls-2" x1="850.4" y1="76.3" y2="76.3"/><line class="cls-2" x1="850.4" y1="17.1" y2="17.1"/><line class="cls-2" x1="850.4" y1="194.7" y2="194.7"/><line class="cls-2" x1="850.4" y1="313.1" y2="313.1"/><line class="cls-2" x1="850.4" y1="431.4" y2="431.4"/><line class="cls-2" x1="850.4" y1="490.6" y2="490.6"/><line class="cls-2" x1="850.4" y1="549.8" y2="549.8"/><line class="cls-2" x1="10.8" x2="10.8" y2="566.9"/><line class="cls-2" x1="129.2" x2="129.2" y2="566.9"/><line class="cls-2" x1="247.6" x2="247.6" y2="566.9"/><line class="cls-2" x1="366" x2="366" y2="566.9"/><line class="cls-2" x1="484.4" x2="484.4" y2="566.9"/><line class="cls-2" x1="602.8" x2="602.8" y2="566.9"/><line class="cls-2" x1="839.5" x2="839.5" y2="566.9"/><line class="cls-2" x1="721.2" x2="721.2" y2="566.9"/><line class="cls-2" x1="70" x2="70" y2="566.9"/><line class="cls-2" x1="188.4" x2="188.4" y2="566.9"/><line class="cls-2" x1="306.8" x2="306.8" y2="566.9"/><line class="cls-2" x1="425.2" x2="425.2" y2="566.9"/><line class="cls-2" x1="543.6" x2="543.6" y2="566.9"/><line class="cls-2" x1="662" x2="662" y2="566.9"/><line class="cls-2" x1="780.4" x2="780.4" y2="566.9"/><line class="cls-2" x1="810" x2="810" y2="566.9"/><line class="cls-2" x1="99.6" x2="99.6" y2="566.9"/><line class="cls-2" x1="218" x2="218" y2="566.9"/><line class="cls-2" x1="336.4" x2="336.4" y2="566.9"/><line class="cls-2" x1="454.8" x2="454.8" y2="566.9"/><line class="cls-2" x1="573.2" x2="573.2" y2="566.9"/><line class="cls-2" x1="691.6" x2="691.6" y2="566.9"/><line class="cls-2" x1="40.4" x2="40.4" y2="566.9"/><line class="cls-2" x1="158.8" x2="158.8" y2="566.9"/><line class="cls-2" x1="277.2" x2="277.2" y2="566.9"/><line class="cls-2" x1="395.6" x2="395.6" y2="566.9"/><line class="cls-2" x1="514" x2="514" y2="566.9"/><line class="cls-2" x1="632.4" x2="632.4" y2="566.9"/><line class="cls-2" x1="750.8" x2="750.8" y2="566.9"/><path class="cls-3" d="M434.27,372.17,429,363.7a8.47,8.47,0,1,0-1.76,1.11l5.2,8.48a1,1,0,0,0,.88.48,1.52,1.52,0,0,0,.55-.16,1,1,0,0,0,.46-1.34h0Zm-12.07-8.79a6.39,6.39,0,1,1,7.6-4.89h0a6.46,6.46,0,0,1-7.6,4.89Z"/><text class="cls-4" transform="translate(404.92 386.33)">Inspection</text><path class="cls-3" d="M435.71,181.88H415.64a3.22,3.22,0,0,1-3.2-3.2V162.29H414v16.46a1.6,1.6,0,0,0,1.6,1.6h20a1.6,1.6,0,0,0,1.6-1.6h0V162.29h1.51v16.46a2.93,2.93,0,0,1-2.72,3.12Z"/><path class="cls-3" d="M428.91,180.52a4.4,4.4,0,1,1,4.4-4.4h0A4.44,4.44,0,0,1,428.91,180.52Zm0-7.27a2.88,2.88,0,1,0,2.88,2.88h0a2.86,2.86,0,0,0-2.87-2.87Z"/><rect class="cls-3" x="412.44" y="165.89" width="26.38" height="1.68"/><g class="cls-5"><text class="cls-4" transform="translate(403.55 197.08)">Deg</text><text class="cls-6" transform="translate(418.97 197.08)">r</text><text class="cls-4" transform="translate(422.27 197.08)">easing</text></g><path class="cls-3" d="M506.47,372.41,503,349.14a2.56,2.56,0,0,0-2.48-2.15H492.8a2.43,2.43,0,0,0-2.48,2.15l-3.44,23.27a2.51,2.51,0,0,0,2.08,2.88h15.11a2.62,2.62,0,0,0,2.56-2.48.44.44,0,0,1-.16-.4Zm-14.23-23a.45.45,0,0,1,.48-.4h7.75a.45.45,0,0,1,.48.4l1.76,11.68H490.48Z"/><text class="cls-4" transform="translate(480.52 386.33)">Anal</text><text class="cls-4" transform="translate(498.57 386.33)">y</text><text class="cls-4" transform="translate(503.17 386.33)">tic</text><path class="cls-3" d="M637.83,352.1h-9.91v12.31h14V352.1Zm-2.24,1.76a.72.72,0,1,1-.72-.72h0a.85.85,0,0,1,.72.72Zm-5,0a.72.72,0,1,1-.72-.72h0a.85.85,0,0,1,.77.72Zm1.28-.64h1v4.24h-1Zm-2.72,9.28a.72.72,0,1,1,.72.72h0a.72.72,0,0,1-.67-.72Zm2.72.72v-4.08h1v4.08Zm2.23-.72a.72.72,0,1,1,.72.72h0a.72.72,0,0,1-.72-.72Zm5,0a.72.72,0,1,1,.72.72h0a.72.72,0,0,1-.72-.72Zm-1.28.72h-1v-4.08h1Zm-1-5.84v-4.24h1v4.24Zm3.68-3.52a.72.72,0,1,1-.72-.72h0a.72.72,0,0,1,.72.72Z"/><circle class="cls-3" cx="628.32" cy="368.73" r="1.84"/><path class="cls-3" d="M628.32,367.29a1.43,1.43,0,0,0-1.44,1.42h2.8a1.32,1.32,0,0,0-1.19-1.44h0Z"/><path class="cls-3" d="M622.56,364.89v3.84H626a2.32,2.32,0,1,1,4.64-.16h0v.16h12.47v-3.84Z"/><circle class="cls-3" cx="649.9" cy="368.73" r="1.84"/><path class="cls-3" d="M649.9,367.29a1.43,1.43,0,0,0-1.43,1.43h2.79A1.42,1.42,0,0,0,649.9,367.29Z"/><path class="cls-3" d="M651.34,356.66h-7.43v12.07h3.68a2.32,2.32,0,0,1,4.61-.51s0,.06,0,.09a1.13,1.13,0,0,1,0,.26v.16h3.68V363.3Z"/><text class="cls-7" transform="translate(618.91 386.33)">P</text><text class="cls-4" transform="translate(623.83 386.33)">acking &amp;</text><text class="cls-4" transform="translate(621.47 397.84)">Shipping</text><path class="cls-3" d="M625.91,174.05a6.32,6.32,0,0,1-2.56-.64,4,4,0,0,0-2.24-.56,1.44,1.44,0,0,1,0-2.88,7.49,7.49,0,0,1,3.44.8,2.73,2.73,0,0,0,1.36.4,3.31,3.31,0,0,0,1.44-.4,7.92,7.92,0,0,1,3.27-.8,6.31,6.31,0,0,1,2.4.32,11.46,11.46,0,0,0,2.48.32h14.63a1.44,1.44,0,1,1,0,2.88H635.5a14.43,14.43,0,0,1-3-.4,6.81,6.81,0,0,0-1.68-.24,6,6,0,0,0-2.23.56A6.22,6.22,0,0,1,625.91,174.05Z"/><path class="cls-3" d="M645.18,169.81h-8a1.43,1.43,0,0,1-1.44-1.42h0v-8a1.43,1.43,0,0,1,1.42-1.44h8a1.43,1.43,0,0,1,1.43,1.43h0v8a1.43,1.43,0,0,1-1.42,1.44h0Z"/><path class="cls-3" d="M645.18,174.37h-8a1.43,1.43,0,0,0-1.44,1.42h0v8a1.43,1.43,0,0,0,1.42,1.44h8a1.43,1.43,0,0,0,1.43-1.43h0v-8a1.43,1.43,0,0,0-1.42-1.44h0Z"/><text class="cls-4" transform="translate(611.83 197.08)">St</text><text class="cls-7" transform="translate(619.69 197.08)">r</text><text class="cls-4" transform="translate(622.89 197.08)">aig</text><text class="cls-8" transform="translate(634.53 197.08)">h</text><text class="cls-6" transform="translate(639.59 197.08)">t</text><text class="cls-4" transform="translate(642.8 197.08)">ening</text><path class="cls-3" d="M413.22,268.72a6.32,6.32,0,0,1-2.56-.64,4,4,0,0,0-2.24-.56,1.44,1.44,0,0,1,0-2.88h0a7.49,7.49,0,0,1,3.44.8,2.73,2.73,0,0,0,1.36.4,3.31,3.31,0,0,0,1.44-.4,7.92,7.92,0,0,1,3.27-.8,6.31,6.31,0,0,1,2.4.32,11.46,11.46,0,0,0,2.48.32h14.63a1.44,1.44,0,0,1,0,2.88H422.81a14.43,14.43,0,0,1-3-.4,6.81,6.81,0,0,0-1.68-.24,6,6,0,0,0-2.23.56A6.22,6.22,0,0,1,413.22,268.72Z"/><path class="cls-3" d="M432.49,264.48h-8a1.43,1.43,0,0,1-1.44-1.4v-8a1.43,1.43,0,0,1,1.42-1.44h8a1.43,1.43,0,0,1,1.43,1.43h0v8a1.44,1.44,0,0,1-1.42,1.44Z"/><path class="cls-3" d="M432.49,269h-8a1.43,1.43,0,0,0-1.44,1.4v8a1.43,1.43,0,0,0,1.42,1.44h8a1.43,1.43,0,0,0,1.43-1.43h0v-8a1.44,1.44,0,0,0-1.4-1.43Z"/><text class="cls-4" transform="translate(399.14 291.75)">St</text><text class="cls-7" transform="translate(407 291.75)">r</text><text class="cls-4" transform="translate(410.2 291.75)">aig</text><text class="cls-8" transform="translate(421.84 291.75)">h</text><text class="cls-6" transform="translate(426.9 291.75)">t</text><text class="cls-4" transform="translate(430.11 291.75)">ening</text><polygon class="cls-3" points="569.79 364.42 567.31 366.57 566.91 365.45 566.91 365.45 565.48 361.54 552.2 367.45 566.91 356.58 567.47 357.94 568.27 360.34 568.99 362.18 576.03 358.82 569.79 364.42 569.79 364.42"/><path class="cls-3" d="M561.56,358.42a9.11,9.11,0,0,1,15.51-4.72,12.33,12.33,0,0,0-22,9.44Z"/><path class="cls-3" d="M573.63,368.65a8.83,8.83,0,0,1-6.08,0l-1,.88L566,368a9.48,9.48,0,0,1-3.35-3.28l-6.08,2.72a12.35,12.35,0,0,0,23-6.63A9.28,9.28,0,0,1,573.63,368.65Z"/><circle class="cls-3" cx="578.75" cy="356.98" r="1.6"/><text class="cls-4" transform="translate(551.04 386.33)">Marking</text><path class="cls-3" d="M180,176.85h-9a.8.8,0,1,1,0-1.6h9a.8.8,0,1,1,0,1.6Z"/><polygon class="cls-3" points="179.23 178.45 183.39 176.05 179.23 173.65 179.23 178.45"/><path class="cls-3" d="M251,176.85h-9a.8.8,0,1,1,0-1.6h9a.8.8,0,1,1,0,1.6Z"/><polygon class="cls-3" points="250.31 178.45 254.46 176.05 250.31 173.65 250.31 178.45"/><path class="cls-3" d="M322.18,176.85h-8.95a.8.8,0,1,1,0-1.6h8.95a.8.8,0,1,1,0,1.6Z"/><polygon class="cls-3" points="321.46 178.45 325.62 176.05 321.46 173.65 321.46 178.45"/><path class="cls-3" d="M393.26,176.85h-9a.8.8,0,0,1,0-1.6h9a.8.8,0,1,1,0,1.6Z"/><polygon class="cls-3" points="392.54 178.45 396.7 176.05 392.54 173.65 392.54 178.45"/><path class="cls-3" d="M464.42,176.85h-9a.8.8,0,0,1,0-1.6h9a.8.8,0,0,1,0,1.6Z"/><polygon class="cls-3" points="463.7 178.45 467.85 176.05 463.7 173.65 463.7 178.45"/><path class="cls-3" d="M382.42,232.17a.8.8,0,0,1-.8-.8v-9a.8.8,0,0,1,1.6,0h0v9a.8.8,0,0,1-.8.8Z"/><polygon class="cls-3" points="380.02 230.65 382.42 234.81 384.82 230.65 380.02 230.65"/><path class="cls-3" d="M467.65,234.81a.8.8,0,0,1-.8-.8v-8.95a.8.8,0,1,1,1.6,0h0V234a.8.8,0,0,1-.79.81h0Z"/><polygon class="cls-3" points="470.05 225.77 467.65 221.62 465.25 225.77 470.05 225.77"/><path class="cls-3" d="M535.49,176.85h-9a.8.8,0,1,1,0-1.6h9a.8.8,0,1,1,0,1.6Z"/><polygon class="cls-3" points="534.77 178.45 538.93 176.05 534.77 173.65 534.77 178.45"/><path class="cls-3" d="M180,271.51h-9a.8.8,0,0,1,0-1.6h9a.8.8,0,1,1,0,1.6Z"/><polygon class="cls-3" points="179.23 273.11 183.39 270.71 179.23 268.31 179.23 273.11"/><path class="cls-3" d="M251,271.51h-9a.8.8,0,0,1,0-1.6h9a.8.8,0,0,1,0,1.6Z"/><polygon class="cls-3" points="250.31 273.11 254.46 270.71 250.31 268.31 250.31 273.11"/><path class="cls-3" d="M322.18,271.51h-8.95a.8.8,0,0,1,0-1.6h8.95a.8.8,0,0,1,0,1.6Z"/><polygon class="cls-3" points="321.46 273.11 325.62 270.71 321.46 268.31 321.46 273.11"/><path class="cls-3" d="M393.26,271.51h-9a.8.8,0,0,1,0-1.6h9a.8.8,0,0,1,0,1.6Z"/><polygon class="cls-3" points="392.54 273.11 396.7 270.71 392.54 268.31 392.54 273.11"/><path class="cls-3" d="M464.42,271.51h-9a.8.8,0,0,1,0-1.6h9a.8.8,0,0,1,0,1.6Z"/><polygon class="cls-3" points="463.7 273.11 467.85 270.71 463.7 268.31 463.7 273.11"/><path class="cls-3" d="M180,366.17h-9a.8.8,0,0,1,0-1.6h9a.8.8,0,0,1,0,1.6Z"/><polygon class="cls-3" points="179.23 367.77 183.39 365.37 179.23 362.98 179.23 367.77"/><path class="cls-3" d="M251,366.17h-9a.8.8,0,0,1,0-1.6h9a.8.8,0,0,1,0,1.6Z"/><polygon class="cls-3" points="250.31 367.77 254.46 365.37 250.31 362.98 250.31 367.77"/><path class="cls-3" d="M322.18,366.17h-8.95a.8.8,0,0,1,0-1.6h8.95a.8.8,0,1,1,0,1.6Z"/><polygon class="cls-3" points="321.46 367.77 325.62 365.37 321.46 362.98 321.46 367.77"/><path class="cls-3" d="M393.26,366.17h-9a.8.8,0,0,1,0-1.6h9a.8.8,0,0,1,0,1.6Z"/><polygon class="cls-3" points="392.54 367.77 396.7 365.37 392.54 362.98 392.54 367.77"/><path class="cls-3" d="M464.42,366.17h-9a.8.8,0,1,1,0-1.6h9a.8.8,0,1,1,0,1.6Z"/><polygon class="cls-3" points="463.7 367.77 467.85 365.37 463.7 362.98 463.7 367.77"/><path class="cls-3" d="M535.49,366.17h-9a.8.8,0,0,1,0-1.6h9a.8.8,0,1,1,0,1.6Z"/><polygon class="cls-3" points="534.77 367.77 538.93 365.37 534.77 362.98 534.77 367.77"/><path class="cls-3" d="M605.85,366.17h-9a.8.8,0,1,1,0-1.6h9a.8.8,0,1,1,0,1.6Z"/><polygon class="cls-3" points="605.21 367.77 609.37 365.37 605.21 362.98 605.21 367.77"/><path class="cls-9" d="M738.41,176.61h13.51a4.56,4.56,0,0,1,4.56,4.56v94.1"/><path class="cls-9" d="M738.41,270.71h13.51a4.56,4.56,0,0,1,4.56,4.56v43.89a4.56,4.56,0,0,1-4.56,4.56h-653a4.56,4.56,0,0,0-4.56,4.56v32a4.55,4.55,0,0,0,4.55,4.55H109"/><polygon class="cls-3" points="108.23 367.21 112.39 364.81 108.23 362.42 108.23 367.21"/><path class="cls-3" d="M535.49,271.51h-9a.8.8,0,0,1,0-1.6h9a.8.8,0,0,1,0,1.6Z"/><polygon class="cls-3" points="534.77 273.11 538.93 270.71 534.77 268.31 534.77 273.11"/><path class="cls-3" d="M606.41,176.85h-8.95a.8.8,0,0,1,0-1.6h8.95a.8.8,0,0,1,0,1.6Z"/><polygon class="cls-3" points="605.69 178.45 609.85 176.05 605.69 173.65 605.69 178.45"/><path class="cls-3" d="M677.49,176.85h-9a.8.8,0,1,1,0-1.6h9a.8.8,0,1,1,0,1.6Z"/><polygon class="cls-3" points="676.77 178.45 680.93 176.05 676.77 173.65 676.77 178.45"/><path class="cls-3" d="M606.41,271.51h-8.95a.8.8,0,1,1,0-1.6h8.95a.8.8,0,1,1,0,1.6Z"/><polygon class="cls-3" points="605.69 273.11 609.85 270.71 605.69 268.31 605.69 273.11"/><path class="cls-3" d="M677.49,271.51h-9a.8.8,0,0,1,0-1.6h9a.8.8,0,0,1,0,1.6Z"/><polygon class="cls-3" points="676.77 273.11 680.93 270.71 676.77 268.31 676.77 273.11"/><path class="cls-3" d="M213.28,161.21v5.2a7.31,7.31,0,1,1-2.84,0v-5.2a12.43,12.43,0,1,0,2.84,0Z"/><text class="cls-4" transform="translate(185.78 197.08)">Au</text><text class="cls-6" transform="translate(196.74 197.08)">t</text><text class="cls-4" transform="translate(199.97 197.08)">o-</text><text class="cls-8" transform="translate(208.07 197.08)">w</text><text class="cls-4" transform="translate(215.14 197.08)">elding</text><rect class="cls-3" x="335.42" y="170.78" width="37.38" height="7.8"/><path class="cls-3" d="M361.82,159.58a5.6,5.6,0,1,0,5.6,5.6,5.6,5.6,0,0,0-5.6-5.6Zm0,7.91a2.31,2.31,0,1,1,2.31-2.31h0A2.33,2.33,0,0,1,361.82,167.49Z"/><circle class="cls-3" cx="341.58" cy="181.48" r="2.8"/><circle class="cls-3" cx="349.86" cy="181.48" r="2.8"/><circle class="cls-3" cx="358.14" cy="181.48" r="2.8"/><circle class="cls-3" cx="366.42" cy="181.48" r="2.8"/><text class="cls-4" transform="translate(325.79 197.08)">Seam-grinding</text><path class="cls-3" d="M147.54,173.8a6.19,6.19,0,0,1-11.95,0h-1a7.18,7.18,0,0,0,14,0Z"/><path class="cls-3" d="M149.57,173.8a8.17,8.17,0,0,1-16,0h-1a9.16,9.16,0,0,0,10.11,7.43,9.05,9.05,0,0,0,7.89-7.47h-1Z"/><path class="cls-3" d="M151.56,173.8a10.14,10.14,0,0,1-20,0h-1a11.11,11.11,0,0,0,22,0Z"/><path class="cls-3" d="M153.54,173.8a12.07,12.07,0,0,1-23.95,0h-1a13.07,13.07,0,0,0,25.93,0h-1Z"/><path class="cls-3" d="M137.67,170a4.26,4.26,0,0,1,7.8,0h1.06a5.23,5.23,0,0,0-9.92,0Z"/><path class="cls-3" d="M135.59,170a6.16,6.16,0,0,1,7.06-4.43,6.23,6.23,0,0,1,4.89,4.43h1a7.18,7.18,0,0,0-8.08-5.44,7.26,7.26,0,0,0-5.9,5.44Z"/><path class="cls-3" d="M133.56,170a8.16,8.16,0,0,1,16,0h1a9.12,9.12,0,0,0-17.95,0Z"/><path class="cls-3" d="M131.58,170a10.14,10.14,0,0,1,20,0h1a11.11,11.11,0,0,0-22,0Z"/><path class="cls-3" d="M129.55,170a12.09,12.09,0,0,1,23.95,0h1a13.06,13.06,0,0,0-25.89,0Z"/><path class="cls-3" d="M145.47,173.8a4.23,4.23,0,0,1-7.8,0h-1a5.2,5.2,0,0,0,9.87,0Z"/><path class="cls-3" d="M154.42,172.93h-8.35A1,1,0,0,1,145,172v-.06h0a1,1,0,0,1,.94-1.06h8.47a1,1,0,0,1,1.06.94h0v.12h0a1.05,1.05,0,0,1-1,1.07Z"/><path class="cls-3" d="M137.07,172.93h-8.36a1,1,0,0,1-1.06-.94v-.06h0a1,1,0,0,1,.94-1.06h8.48a1,1,0,0,1,1.06.94h0v.12h0a1.05,1.05,0,0,1-1,1.07Z"/><text class="cls-4" transform="translate(132.65 197.08)">Strip</text><path class="cls-10" d="M496.24,187.56c-1.37-4.34-8.75-6.15-10.06-9.87-.62-2.36-.56-5.09.62-6.89,0,2.36,1.68,5.65,3.23,4s-3-2.11-2.36-5.59c.13-1.62,1.49-2.49,2-6.15,1.55,1.55-.87,4.1,2.79,5.59-4.4-5.34,3.41-7.26,2.8-12.42,5.83,5.78.12,9.32,3.29,10.81,1.18.49,2.85-2.67,1.74-5.28,3.47,3,3.1,6.21,1.3,8.75-.68.93.06,2.92.93,3.54-.31-1.86,1.3-2.79,1.74-4.6,3.23,3.61,4.41,8-.93,11.61A28.31,28.31,0,0,0,496.24,187.56Z"/><text class="cls-4" transform="translate(479.86 197.08)">Solution</text><text class="cls-11" transform="translate(475.73 208.59)">T</text><text class="cls-6" transform="translate(479.99 208.59)">r</text><text class="cls-4" transform="translate(483.29 208.59)">e</text><text class="cls-8" transform="translate(488.12 208.59)">a</text><text class="cls-4" transform="translate(492.77 208.59)">tme</text><text class="cls-8" transform="translate(508.73 208.59)">n</text><text class="cls-4" transform="translate(513.79 208.59)">t</text><path class="cls-10" d="M709.43,282.23c-1.37-4.34-8.75-6.15-10.06-9.87-.62-2.36-.56-5.09.62-6.89,0,2.36,1.68,5.65,3.23,4s-3-2.11-2.36-5.59c.13-1.62,1.49-2.49,2-6.15,1.55,1.55-.87,4.1,2.79,5.59-4.4-5.34,3.41-7.26,2.8-12.42,5.83,5.78.12,9.32,3.29,10.81,1.18.49,2.85-2.67,1.74-5.28,3.47,3,3.1,6.21,1.3,8.75-.68.93.06,2.92.93,3.54-.31-1.86,1.3-2.79,1.74-4.6,3.23,3.61,4.41,8-.93,11.61A28.68,28.68,0,0,0,709.43,282.23Z"/><text class="cls-4" transform="translate(693.05 291.75)">Solution</text><text class="cls-11" transform="translate(688.92 303.26)">T</text><text class="cls-6" transform="translate(693.18 303.26)">r</text><text class="cls-4" transform="translate(696.48 303.26)">e</text><text class="cls-8" transform="translate(701.31 303.26)">a</text><text class="cls-4" transform="translate(705.96 303.26)">tme</text><text class="cls-8" transform="translate(721.92 303.26)">n</text><text class="cls-4" transform="translate(726.98 303.26)">t</text><text class="cls-12" transform="translate(474.58 230.08)">W</text><text class="cls-13" transform="translate(481.54 230.08)">elded</text><text class="cls-14" transform="translate(501.94 230.08)">T</text><text class="cls-13" transform="translate(505.49 230.08)">ube</text><g class="cls-5"><text class="cls-13" transform="translate(326.89 230.08)">Seamless </text><text class="cls-14" transform="translate(359.34 230.08)">T</text><text class="cls-13" transform="translate(362.89 230.08)">ube</text></g><path class="cls-15" d="M142,256.38a6,6,0,1,0,6,6h0A6,6,0,0,0,142,256.38Zm0,9.66a3.66,3.66,0,1,1,3.66-3.66h0A3.65,3.65,0,0,1,142,266Z"/><path class="cls-15" d="M142,268.59a6.21,6.21,0,1,1,6.21-6.21h0A6.21,6.21,0,0,1,142,268.59Zm0-12a5.81,5.81,0,1,0,5.81,5.81h0A5.82,5.82,0,0,0,142,256.59Zm0,9.66a3.86,3.86,0,1,1,3.86-3.86h0a3.86,3.86,0,0,1-3.86,3.85Zm0-7.31a3.46,3.46,0,1,0,3.46,3.46h0a3.46,3.46,0,0,0-3.46-3.46Z"/><path class="cls-15" d="M136,266.88a6,6,0,1,0,6,6A6,6,0,0,0,136,266.88Zm0,9.66a3.66,3.66,0,1,1,3.66-3.66h0a3.64,3.64,0,0,1-3.65,3.65h0Z"/><path class="cls-15" d="M136,279.09a6.21,6.21,0,1,1,6.2-6.22h0A6.21,6.21,0,0,1,136,279.09Zm0-12a5.81,5.81,0,1,0,5.8,5.82h0a5.8,5.8,0,0,0-5.78-5.82h0Zm0,9.67a3.86,3.86,0,1,1,3.86-3.87h0a3.86,3.86,0,0,1-3.86,3.84Zm0-7.32a3.46,3.46,0,1,0,3.46,3.46h0a3.46,3.46,0,0,0-3.45-3.47h0Z"/><path class="cls-15" d="M148,266.88a6,6,0,1,0,6,6A6,6,0,0,0,148,266.88Zm0,9.66a3.66,3.66,0,1,1,3.66-3.66h0a3.66,3.66,0,0,1-3.66,3.66Z"/><path class="cls-15" d="M148,279.09a6.21,6.21,0,1,1,6.21-6.21h0A6.21,6.21,0,0,1,148,279.09Zm0-12a5.81,5.81,0,1,0,5.81,5.81h0a5.82,5.82,0,0,0-5.81-5.82h0Zm0,9.67a3.86,3.86,0,1,1,3.86-3.87h0a3.86,3.86,0,0,1-3.86,3.84Zm0-7.32a3.46,3.46,0,1,0,3.46,3.46h0a3.48,3.48,0,0,0-3.46-3.47h0Z"/><text class="cls-16" transform="translate(117.08 291.75)">Mother Pipe</text><path class="cls-15" d="M291.91,172.26h0a9.24,9.24,0,0,0-.8-1.26c-.2-.26-.4-.52-.58-.8l-7.06-10.43-7.05,10.43c-.18.27-.4.53-.59.8a9.56,9.56,0,1,0,16.08,1.26Z"/><g class="cls-5"><text class="cls-17" transform="translate(267.09 197.07)">W</text><text class="cls-16" transform="translate(275.45 197.07)">elding</text><text class="cls-16" transform="translate(266.36 208.59)">Cleaning</text></g><path class="cls-15" d="M647,266.93h0a9.24,9.24,0,0,0-.8-1.26c-.2-.26-.4-.52-.58-.8l-7.06-10.43-7,10.43c-.18.27-.4.53-.59.8a9.56,9.56,0,1,0,16,1.26Z"/><text class="cls-16" transform="translate(621.42 291.74)">Cleaning</text><path class="cls-15" d="M694.85,179.85c-2.4,0-4.18-3.42-4.18-7.95s1.8-8,4.18-8,4.19,3.42,4.19,8S697.24,179.85,694.85,179.85Zm0-14.08c-1,0-2.36,2.4-2.36,6.13s1.4,6.12,2.36,6.12,2.36-2.4,2.36-6.12S695.81,165.77,694.85,165.77Z"/><ellipse class="cls-15" cx="724.37" cy="171.9" rx="3.27" ry="7.04"/><path class="cls-15" d="M724.37,179.85c-2.4,0-4.18-3.42-4.18-7.95s1.8-8,4.18-8,4.19,3.42,4.19,8S726.76,179.85,724.37,179.85Zm0-14.08c-1,0-2.35,2.4-2.35,6.13s1.39,6.12,2.35,6.12,2.36-2.4,2.36-6.12S725.34,165.77,724.37,165.77Z"/><path class="cls-15" d="M709.21,163.94l-.23.2-.18-.2H694.85c2.4,0,4.19,3.42,4.19,8s-1.8,7.95-4.19,7.95h13.94a5.15,5.15,0,0,0,.43-.5l.68.5h14.47V163.94Zm3.12,5.6-1.36.16a17.67,17.67,0,0,0-.4-2.15l1.32-.34a18.43,18.43,0,0,1,.45,2.33Zm-1.71-5.47a10.55,10.55,0,0,1,1,2.22l-1.29.43a9.84,9.84,0,0,0-.87-1.93Zm.24,15.24-1.2-.66a9.83,9.83,0,0,0,.8-2l1.31.4a11.61,11.61,0,0,1-.91,2.26Zm1.15-3.17-1.34-.31a15.8,15.8,0,0,0,.34-2.17l1.37.13a18.55,18.55,0,0,1-.38,2.35Zm.43-3.29-1.37-.07v-2.2l1.36-.09c0,.46.05.93.05,1.41,0,.32,0,.64,0,.95Z"/><text class="cls-16" transform="translate(702.83 197.07)">Cut</text><path class="cls-15" d="M567.5,182.52a9.8,9.8,0,1,1,9.8-9.8h0A9.82,9.82,0,0,1,567.5,182.52Zm0-16.8a7,7,0,1,0,7,7A7,7,0,0,0,567.5,165.72Z"/><path class="cls-15" d="M567.5,185.37a13.29,13.29,0,0,1-2.52-.25l.24-1.18a11.6,11.6,0,0,0,3.67.14l.14,1.2A13.08,13.08,0,0,1,567.5,185.37Zm3.53-.5-.34-1.16a11.49,11.49,0,0,0,3.32-1.57l.68,1a12.83,12.83,0,0,1-3.66,1.74Zm-8-.32a12.67,12.67,0,0,1-3.52-2l.76-.93a11.31,11.31,0,0,0,3.2,1.83Zm13.24-2.71-.84-.87a11.3,11.3,0,0,0,2.21-2.93l1.06.56a12.66,12.66,0,0,1-2.44,3.24Zm-18.22-.72a12.67,12.67,0,0,1-2.18-3.42l1.1-.47a11.62,11.62,0,0,0,2,3.09Zm21.45-4.4-1.14-.37a11.44,11.44,0,0,0,.59-3.62h1.2a12.65,12.65,0,0,1-.65,4Zm-24.28-1a13.17,13.17,0,0,1-.37-3,8.34,8.34,0,0,1,0-1l1.2.09v.9a11.64,11.64,0,0,0,.33,2.76Zm23.57-4.93a11,11,0,0,0-1.17-3.48l1.06-.56a12.43,12.43,0,0,1,1.3,3.85Zm-22.4-.83-1.16-.29a12.72,12.72,0,0,1,1.6-3.73l1,.64a11.59,11.59,0,0,0-1.48,3.38Zm20.26-4.19a11.46,11.46,0,0,0-2.66-2.54l.68-1a12.77,12.77,0,0,1,2.93,2.8Zm-17.74-.66-.9-.8a12.68,12.68,0,0,1,3.13-2.57l.61,1a11.72,11.72,0,0,0-2.84,2.41Zm13.45-2.8a11.15,11.15,0,0,0-3.53-1l.14-1.2a12.63,12.63,0,0,1,3.9,1.11Zm-9-.34-.42-1.12a13.29,13.29,0,0,1,4-.8v1.2a11.59,11.59,0,0,0-3.58.73Z"/><g class="cls-5"><text class="cls-18" transform="translate(541.63 197.07)">E</text><text class="cls-16" transform="translate(546.17 197.07)">ddy Cur</text><text class="cls-19" transform="translate(576.84 197.07)">r</text><text class="cls-16" transform="translate(580.14 197.07)">e</text><text class="cls-18" transform="translate(584.97 197.07)">n</text><text class="cls-16" transform="translate(590.04 197.07)">t</text><text class="cls-20" transform="translate(553.6 208.59)">T</text><text class="cls-16" transform="translate(557.52 208.59)">e</text><text class="cls-18" transform="translate(562.35 208.59)">s</text><text class="cls-16" transform="translate(566.08 208.59)">ting</text></g><rect class="cls-15" x="478.2" y="261.78" width="25.5" height="7.8"/><path class="cls-15" d="M509.51,260.08a5.6,5.6,0,1,0,5.6,5.6h0A5.6,5.6,0,0,0,509.51,260.08Zm0,7.91a2.31,2.31,0,1,1,2.31-2.31h0a2.3,2.3,0,0,1-2.29,2.31Z"/><circle class="cls-15" cx="482.73" cy="272.49" r="2.8"/><circle class="cls-15" cx="491.02" cy="272.49" r="2.8"/><circle class="cls-15" cx="499.3" cy="272.49" r="2.8"/><g class="cls-5"><text class="cls-21" transform="translate(479.26 291.75)">P</text><text class="cls-16" transform="translate(484.22 291.75)">oi</text><text class="cls-18" transform="translate(491.73 291.75)">n</text><text class="cls-16" transform="translate(496.8 291.75)">ting</text></g><path class="cls-15" d="M271.2,280.17c-2,0-3.55-2.91-3.55-6.76s1.52-6.76,3.55-6.76,3.56,2.91,3.56,6.76S273.23,280.17,271.2,280.17Zm0-12c-.8,0-2,2-2,5.2s1.2,5.2,2,5.2,2-2,2-5.2-1.2-5.17-2-5.17Z"/><path class="cls-15" d="M287.69,257h0a6.49,6.49,0,0,0-.46-.7l-.32-.45-4-5.88-4,5.88c-.1.15-.22.3-.33.44a5.3,5.3,0,0,0-.45.71,5.39,5.39,0,1,0,9.51,0Z"/><ellipse class="cls-15" cx="296.29" cy="273.41" rx="2.78" ry="5.98"/><path class="cls-15" d="M296.29,280.17c-2,0-3.56-2.91-3.56-6.76s1.53-6.76,3.56-6.76,3.56,2.91,3.56,6.76S298.32,280.17,296.29,280.17Zm0-12c-.8,0-2,2-2,5.2s1.2,5.2,2,5.2,2-2,2-5.2-1.18-5.17-2-5.17Z"/><path class="cls-15" d="M283.4,266.65l-.19.17-.16-.17H271.21c2,0,3.55,2.91,3.55,6.76s-1.53,6.75-3.56,6.76h11.86a3.73,3.73,0,0,0,.36-.43l.58.43h12.3V266.65Zm2.65,4.76-1.15.14a14,14,0,0,0-.34-1.83l1.13-.29A13.26,13.26,0,0,1,286.05,271.41Zm-1.45-4.65a8.64,8.64,0,0,1,.86,1.88l-1.11.37a7.79,7.79,0,0,0-.74-1.64Zm.21,12.95-1-.56a8.45,8.45,0,0,0,.68-1.68l1.12.33a10.29,10.29,0,0,1-.8,1.91Zm1-2.7-1.12-.26a16.37,16.37,0,0,0,.29-1.84l1.16.11a16.42,16.42,0,0,1-.36,2Zm.37-2.8H285v-.76a10.46,10.46,0,0,0,0-1.12l1.16-.08v1.2c0,.27,0,.55,0,.82Z"/><g class="cls-5"><text class="cls-16" transform="translate(269.35 291.74)">Cutting</text><text class="cls-16" transform="translate(266.5 303.26)">Cleaning</text></g><path class="cls-22" d="M349.68,270.23a6.38,6.38,0,0,0-1.34-2.58A3.41,3.41,0,0,0,349.68,270.23Z"/><path class="cls-15" d="M368,264.42c-15.84,0-16.72-.92-16.76-16.76h0c0,15.84-.92,16.72-16.76,16.76h0c15.84,0,16.72.92,16.76,16.76h0C351.28,265.34,352.16,264.46,368,264.42Z"/><path class="cls-22" d="M353.39,260.15a5.56,5.56,0,0,0,3.81,2.77c.35-1.67,1-4-2.11-7.15C355.3,257.55,354.37,258.89,353.39,260.15Z"/><path class="cls-22" d="M361.45,271.39c-.76-.55-1.41-2.29-.8-3.11a5.94,5.94,0,0,0,1.15-2.93c-8.76.45-9.65,2.67-9.75,13.7,1.71,1.16,3.31,2.43,3.85,4.14a25,25,0,0,1,6.26-5.66c4.68-3.16,3.64-7,.8-10.17C362.6,268.94,361.18,269.75,361.45,271.39Z"/><path class="cls-22" d="M359.68,263.35c.58.06,1.2.12,1.9.15a6.68,6.68,0,0,0-2.09-2.89A4.36,4.36,0,0,1,359.68,263.35Z"/><path class="cls-22" d="M350.1,272.32c-1.25.62-2.46-1.94-2.46-3.82a7.88,7.88,0,0,0-.55,6c.47,1.33,1.81,2.37,3.33,3.41A52.22,52.22,0,0,0,350.1,272.32Z"/><path class="cls-22" d="M356.66,264.42a7.65,7.65,0,0,1-3.53-1.89,6,6,0,0,1-.8-1c-1,1.45-1.46,3,.31,5.09-3.2-1.3-1.09-3.53-2.45-4.89a12.33,12.33,0,0,1-1.39,4.08c.19.16.38.33.55.5a7.54,7.54,0,0,1,1.89,3.54A6.89,6.89,0,0,1,356.66,264.42Z"/><g class="cls-5"><text class="cls-16" transform="translate(342.7 291.74)">Brig</text><text class="cls-18" transform="translate(358.4 291.74)">h</text><text class="cls-16" transform="translate(363.47 291.74)">t</text><text class="cls-16" transform="translate(334.69 303.26)">Annealing</text></g><path class="cls-15" d="M207.41,260.79v-3.67a1.07,1.07,0,0,1,1.07-1.07H219a1.05,1.05,0,0,1,1.08,1h0v3.69h2v-3.67a3.06,3.06,0,0,0-3.05-3.07H208.48a3.06,3.06,0,0,0-3.07,3.07h0v3.67Z"/><path class="cls-15" d="M220.08,272.25v3.67A1.07,1.07,0,0,1,219,277H208.48a1.07,1.07,0,0,1-1.07-1.07h0v-3.67h-2v3.67a3.06,3.06,0,0,0,3.07,3.07H219a3.06,3.06,0,0,0,3.07-3.07h0v-3.67Z"/><path class="cls-15" d="M215.14,264.66h0a11.79,11.79,0,0,0-8.08-3.2h-9.38v10.12h9.38a11.74,11.74,0,0,0,8.08-3.2h0a3.68,3.68,0,0,1,2.52-1h12.6v-1.72h-12.6A3.68,3.68,0,0,1,215.14,264.66Z"/><circle class="cls-15" cx="217.54" cy="262.66" r="2.47"/><circle class="cls-15" cx="217.54" cy="270.43" r="2.47"/><g class="cls-5"><text class="cls-16" transform="translate(201.18 291.75)">Pil</text><text class="cls-19" transform="translate(211.01 291.75)">g</text><text class="cls-16" transform="translate(215.45 291.75)">er</text></g><polygon class="cls-15" points="569.97 264.07 567.55 262 552.86 262 552.86 271.69 567.55 271.69 569.97 269.62 582.35 269.62 582.35 264.07 569.97 264.07"/><circle class="cls-15" cx="571.9" cy="259.65" r="3.8"/><circle class="cls-15" cx="571.9" cy="274.05" r="3.8"/><g class="cls-5"><text class="cls-16" transform="translate(558.75 291.74)">Cold</text><text class="cls-16" transform="translate(551.06 303.26)">D</text><text class="cls-21" transform="translate(557.11 303.26)">r</text><text class="cls-19" transform="translate(560.31 303.26)">a</text><text class="cls-16" transform="translate(564.98 303.26)">wing</text></g><path class="cls-15" d="M223.82,372.4l-3.47-23.26a2.55,2.55,0,0,0-2.5-2.15h-7.76a2.55,2.55,0,0,0-2.5,2.15l-3.46,23.27a2.51,2.51,0,0,0,2.08,2.86h15.1a2.52,2.52,0,0,0,2.52-2.52,2.29,2.29,0,0,0,0-.37Zm-14.22-23a.5.5,0,0,1,.49-.42h7.76a.5.5,0,0,1,.49.42l1.75,11.71H207.86Z"/><g class="cls-5"><text class="cls-16" transform="translate(195.82 386.32)">Chemi</text><text class="cls-18" transform="translate(221.05 386.32)">c</text><text class="cls-16" transform="translate(225.01 386.32)">al</text><text class="cls-16" transform="translate(196.85 397.84)">Cleaning</text></g><path class="cls-15" d="M371.4,361.15c-15.84,0-16.72-.92-16.76-16.76h0c0,15.84-.92,16.72-16.76,16.76h0c15.84,0,16.72.92,16.76,16.76h0C354.68,362.07,355.56,361.19,371.4,361.15Z"/><g class="cls-5"><text class="cls-21" transform="translate(336.7 386.32)">P</text><text class="cls-16" transform="translate(341.66 386.32)">olishing</text></g><path class="cls-15" d="M283.75,374.44a13.12,13.12,0,1,1,13.12-13.12h0A13.14,13.14,0,0,1,283.75,374.44Zm0-24.23a11.12,11.12,0,1,0,11.11,11.13v0h0A11.13,11.13,0,0,0,283.75,350.21Z"/><path class="cls-15" d="M288.63,360.13h0a6.76,6.76,0,0,0-.46-.72c-.12-.15-.23-.3-.34-.46l-4.08-6-4.08,6a5,5,0,0,1-.34.46,5.58,5.58,0,0,0-.46.73,5.51,5.51,0,1,0,9.76,0Z"/><g class="cls-5"><text class="cls-16" transform="translate(261.52 386.32)">DI </text><text class="cls-17" transform="translate(272.3 386.32)">W</text><text class="cls-19" transform="translate(280.65 386.32)">a</text><text class="cls-19" transform="translate(285.3 386.32)">t</text><text class="cls-16" transform="translate(288.52 386.32)">er &amp;</text><text class="cls-16" transform="translate(261.84 397.84)">N2 Pu</text><text class="cls-19" transform="translate(285.46 397.84)">r</text><text class="cls-16" transform="translate(288.76 397.84)">ging</text></g><path class="cls-15" d="M129,366.9a2,2,0,1,0,2,2A2,2,0,0,0,129,366.9Zm0,3.19a1.21,1.21,0,1,1,1.21-1.21h0A1.22,1.22,0,0,1,129,370.09Z"/><path class="cls-15" d="M133,366.9a2,2,0,1,0,2,2A2,2,0,0,0,133,366.9Zm0,3.19a1.21,1.21,0,1,1,1.21-1.21h0A1.21,1.21,0,0,1,133,370.09Z"/><path class="cls-15" d="M136.94,366.9a2,2,0,1,0,2,2A2,2,0,0,0,136.94,366.9Zm0,3.19a1.21,1.21,0,1,1,1.21-1.21h0A1.21,1.21,0,0,1,136.94,370.09Z"/><path class="cls-15" d="M141.36,366.9a2,2,0,1,0,2,2A2,2,0,0,0,141.36,366.9Zm0,3.19a1.21,1.21,0,1,1,1.22-1.21,1.21,1.21,0,0,1-1.22,1.21Z"/><path class="cls-15" d="M145.63,366.9a2,2,0,1,0,2,2A2,2,0,0,0,145.63,366.9Zm0,3.19a1.21,1.21,0,1,1,1.21-1.21h0A1.21,1.21,0,0,1,145.63,370.09Z"/><path class="cls-15" d="M149.89,366.9a2,2,0,1,0,2,2A2,2,0,0,0,149.89,366.9Zm0,3.19a1.21,1.21,0,1,1,1.21-1.21h0A1.21,1.21,0,0,1,149.89,370.09Z"/><path class="cls-15" d="M155.05,366.9a2,2,0,1,0,2,2A2,2,0,0,0,155.05,366.9Zm0,3.19a1.21,1.21,0,1,1,1.21-1.21h0A1.21,1.21,0,0,1,155.05,370.09Z"/><path class="cls-15" d="M147.75,363.47a2,2,0,1,0,2,2h0A2,2,0,0,0,147.75,363.47Zm0,3.19a1.21,1.21,0,1,1,1.21-1.21h0a1.21,1.21,0,0,1-1.21,1.21Z"/><path class="cls-15" d="M143.52,363.47a2,2,0,1,0,2,2h0A2,2,0,0,0,143.52,363.47Zm0,3.19a1.21,1.21,0,1,1,1.21-1.21h0a1.21,1.21,0,0,1-1.21,1.21Z"/><path class="cls-15" d="M145.63,360.07a2,2,0,1,0,2,2A2,2,0,0,0,145.63,360.07Zm0,3.19a1.21,1.21,0,1,1,1.21-1.21h0a1.21,1.21,0,0,1-1.21,1.21Z"/><path class="cls-15" d="M139.27,356.55a2,2,0,1,0,2,2A2,2,0,0,0,139.27,356.55Zm0,3.19a1.21,1.21,0,1,1,1.21-1.21h0a1.21,1.21,0,0,1-1.21,1.21Z"/><path class="cls-15" d="M148.09,356.89a2,2,0,1,0,2,2h0A2,2,0,0,0,148.09,356.89Zm0,3.19a1.21,1.21,0,1,1,1.21-1.21h0a1.23,1.23,0,0,1-1.21,1.2Z"/><path class="cls-15" d="M141.49,353.1a2,2,0,1,0,2,2h0A2,2,0,0,0,141.49,353.1Zm0,3.19a1.21,1.21,0,1,1,1.21-1.21h0A1.21,1.21,0,0,1,141.49,356.29Z"/><path class="cls-15" d="M143.47,356.68a2,2,0,1,0,2,2h0A2,2,0,0,0,143.47,356.68Zm0,3.2a1.22,1.22,0,1,1,1.22-1.22h0A1.22,1.22,0,0,1,143.47,359.88Z"/><path class="cls-15" d="M133,359.88a2,2,0,1,0,2,2A2,2,0,0,0,133,359.88Zm0,3.19a1.21,1.21,0,1,1,1.21-1.21h0A1.21,1.21,0,0,1,133,363.07Z"/><path class="cls-15" d="M150.34,360.37a2,2,0,1,0,2,2A2,2,0,0,0,150.34,360.37Zm0,3.19a1.21,1.21,0,1,1,1.21-1.21h0A1.21,1.21,0,0,1,150.34,363.56Z"/><path class="cls-15" d="M137.17,360.07a2,2,0,1,0,2,2A2,2,0,0,0,137.17,360.07Zm0,3.19a1.21,1.21,0,1,1,1.21-1.21h0a1.21,1.21,0,0,1-1.21,1.21Z"/><path class="cls-15" d="M141.25,360.07a2,2,0,1,0,2,2A2,2,0,0,0,141.25,360.07Zm0,3.19a1.21,1.21,0,1,1,1.21-1.21h0a1.21,1.21,0,0,1-1.21,1.21Z"/><path class="cls-15" d="M139.15,363.56a2,2,0,1,0,2,2h0A2,2,0,0,0,139.15,363.56Zm0,3.19a1.21,1.21,0,1,1,1.21-1.21h0A1.21,1.21,0,0,1,139.15,366.75Z"/><path class="cls-15" d="M135,363.42a2,2,0,1,0,2,2A2,2,0,0,0,135,363.42Zm0,3.19a1.21,1.21,0,1,1,1.21-1.21h0A1.21,1.21,0,0,1,135,366.61Z"/><path class="cls-15" d="M131,363.42a2,2,0,1,0,2,2A2,2,0,0,0,131,363.42Zm0,3.19a1.21,1.21,0,1,1,1.21-1.21h0A1.21,1.21,0,0,1,131,366.61Z"/><path class="cls-15" d="M152.49,363.84a2,2,0,1,0,2,2A2,2,0,0,0,152.49,363.84Zm0,3.19a1.21,1.21,0,1,1,1.21-1.21h0A1.22,1.22,0,0,1,152.49,367Z"/><g class="cls-5"><text class="cls-16" transform="translate(124.64 386.32)">Capilla</text><text class="cls-16" transform="translate(151.42 386.32)">r</text><text class="cls-16" transform="translate(154.88 386.32)">y</text><text class="cls-23" transform="translate(132.33 397.84)">T</text><text class="cls-16" transform="translate(136.6 397.84)">ube</text></g></svg>