<svg id="图层_1" data-name="图层 1" xmlns="http://www.w3.org/2000/svg" viewBox="0 0 850.4 566.9"><defs><style>.cls-1{fill:#fff;}.cls-2,.cls-6,.cls-8{fill:none;}.cls-2{stroke:#eee;}.cls-2,.cls-6,.cls-7{stroke-miterlimit:10;}.cls-3,.cls-4,.cls-5,.cls-7{fill:#999;}.cls-10,.cls-11,.cls-12,.cls-13,.cls-15,.cls-16,.cls-17,.cls-18,.cls-19,.cls-4,.cls-5{isolation:isolate;}.cls-11,.cls-12,.cls-13,.cls-15,.cls-16,.cls-17,.cls-18,.cls-19,.cls-4,.cls-5{font-size:9.6px;font-family:Calibri-Bold, Calibri;font-weight:700;}.cls-17,.cls-5{letter-spacing:-0.02em;}.cls-6,.cls-7,.cls-8{stroke:#999;}.cls-6,.cls-8{stroke-linecap:round;stroke-width:1.6px;}.cls-7{stroke-width:0.89px;}.cls-8{stroke-linejoin:round;}.cls-11,.cls-12,.cls-13,.cls-14,.cls-15,.cls-16,.cls-17,.cls-18,.cls-19,.cls-9{fill:#989898;}.cls-12,.cls-20{letter-spacing:-0.01em;}.cls-13{letter-spacing:-0.04em;}.cls-14{fill-rule:evenodd;}.cls-15{letter-spacing:-0.05em;}.cls-16{letter-spacing:-0.01em;}.cls-18{letter-spacing:-0.09em;}.cls-19{letter-spacing:-0.02em;}</style></defs><rect class="cls-1" width="850.4" height="566.9"/><line class="cls-2" x1="850.4" y1="46.7" y2="46.7"/><line class="cls-2" x1="850.4" y1="165.1" y2="165.1"/><line class="cls-2" x1="850.4" y1="283.5" y2="283.5"/><line class="cls-2" x1="850.4" y1="401.9" y2="401.9"/><line class="cls-2" x1="850.4" y1="105.9" y2="105.9"/><line class="cls-2" x1="850.4" y1="224.3" y2="224.3"/><line class="cls-2" x1="850.4" y1="342.7" y2="342.7"/><line class="cls-2" x1="850.4" y1="461" y2="461"/><line class="cls-2" x1="850.4" y1="520.2" y2="520.2"/><line class="cls-2" x1="850.4" y1="135.5" y2="135.5"/><line class="cls-2" x1="850.4" y1="253.9" y2="253.9"/><line class="cls-2" x1="850.4" y1="372.3" y2="372.3"/><line class="cls-2" x1="850.4" y1="76.3" y2="76.3"/><line class="cls-2" x1="850.4" y1="17.1" y2="17.1"/><line class="cls-2" x1="850.4" y1="194.7" y2="194.7"/><line class="cls-2" x1="850.4" y1="313.1" y2="313.1"/><line class="cls-2" x1="850.4" y1="431.4" y2="431.4"/><line class="cls-2" x1="850.4" y1="490.6" y2="490.6"/><line class="cls-2" x1="850.4" y1="549.8" y2="549.8"/><line class="cls-2" x1="10.8" x2="10.8" y2="566.9"/><line class="cls-2" x1="129.2" x2="129.2" y2="566.9"/><line class="cls-2" x1="247.6" x2="247.6" y2="566.9"/><line class="cls-2" x1="366" x2="366" y2="566.9"/><line class="cls-2" x1="484.4" x2="484.4" y2="566.9"/><line class="cls-2" x1="602.8" x2="602.8" y2="566.9"/><line class="cls-2" x1="839.5" x2="839.5" y2="566.9"/><line class="cls-2" x1="721.2" x2="721.2" y2="566.9"/><line class="cls-2" x1="70" x2="70" y2="566.9"/><line class="cls-2" x1="188.4" x2="188.4" y2="566.9"/><line class="cls-2" x1="306.8" x2="306.8" y2="566.9"/><line class="cls-2" x1="425.2" x2="425.2" y2="566.9"/><line class="cls-2" x1="543.6" x2="543.6" y2="566.9"/><line class="cls-2" x1="662" x2="662" y2="566.9"/><line class="cls-2" x1="780.4" x2="780.4" y2="566.9"/><line class="cls-2" x1="810" x2="810" y2="566.9"/><line class="cls-2" x1="99.6" x2="99.6" y2="566.9"/><line class="cls-2" x1="218" x2="218" y2="566.9"/><line class="cls-2" x1="336.4" x2="336.4" y2="566.9"/><line class="cls-2" x1="454.8" x2="454.8" y2="566.9"/><line class="cls-2" x1="573.2" x2="573.2" y2="566.9"/><line class="cls-2" x1="691.6" x2="691.6" y2="566.9"/><line class="cls-2" x1="40.4" x2="40.4" y2="566.9"/><line class="cls-2" x1="158.8" x2="158.8" y2="566.9"/><line class="cls-2" x1="277.2" x2="277.2" y2="566.9"/><line class="cls-2" x1="395.6" x2="395.6" y2="566.9"/><line class="cls-2" x1="514" x2="514" y2="566.9"/><line class="cls-2" x1="632.4" x2="632.4" y2="566.9"/><line class="cls-2" x1="750.8" x2="750.8" y2="566.9"/><path class="cls-3" d="M434,372.2l-5.28-8.48a8.44,8.44,0,1,0-1.76,1.12l5.2,8.47a1,1,0,0,0,.88.48,1.63,1.63,0,0,0,.56-.16,1,1,0,0,0,.45-1.34Zm-12.08-8.8a6.39,6.39,0,1,1,7.6-4.89h0a6.45,6.45,0,0,1-7.6,4.89Z"/><text class="cls-4" transform="translate(404.61 386.36)">Inspection</text><path class="cls-3" d="M506.22,372.44l-3.44-23.28A2.59,2.59,0,0,0,500.3,347h-7.78a2.43,2.43,0,0,0-2.48,2.16l-3.44,23.28a2.51,2.51,0,0,0,2.08,2.87h15.1a2.61,2.61,0,0,0,2.56-2.48.44.44,0,0,1-.16-.39Zm-14.23-23a.44.44,0,0,1,.48-.4h7.75a.45.45,0,0,1,.48.4l1.76,11.68H490.22Z"/><text class="cls-4" transform="translate(480.23 386.36)">Anal</text><text class="cls-4" transform="translate(498.29 386.36)">y</text><text class="cls-4" transform="translate(502.88 386.36)">tic</text><path class="cls-3" d="M637.57,352.12h-9.91v12.32h14V352.12Zm-2.23,1.76a.73.73,0,0,1-.73.72.72.72,0,0,1,0-1.44h0A.86.86,0,0,1,635.34,353.88Zm-5,0a.73.73,0,0,1-.73.72.72.72,0,0,1,0-1.44h0a.84.84,0,0,1,.76.72Zm1.28-.64h1v4.24h-1Zm-2.72,9.28a.72.72,0,1,1,.72.72h0a.71.71,0,0,1-.68-.72Zm2.72.72v-4.08h1v4.08Zm2.24-.72a.72.72,0,0,1,1.44,0,.73.73,0,0,1-.73.72h0A.71.71,0,0,1,633.86,362.52Zm5,0a.72.72,0,0,1,1.44,0,.73.73,0,0,1-.73.72h0A.71.71,0,0,1,638.86,362.52Zm-1.29.72h-1v-4.08h1Zm-1-5.84v-4.24h1v4.24Zm3.68-3.52a.72.72,0,0,1-1.44,0,.73.73,0,0,1,.73-.72h0A.71.71,0,0,1,640.25,353.88Z"/><circle class="cls-3" cx="628.06" cy="368.76" r="1.84"/><path class="cls-3" d="M628.1,367.32a1.43,1.43,0,0,0-1.43,1.43h2.79a1.33,1.33,0,0,0-1.19-1.44h-.17Z"/><path class="cls-3" d="M622.31,364.92v3.84h3.44a2.32,2.32,0,1,1,4.61-.51.28.28,0,0,0,0,.09v.42h12.48v-3.84Z"/><circle class="cls-3" cx="649.66" cy="368.76" r="1.84"/><path class="cls-3" d="M649.66,367.32a1.42,1.42,0,0,0-1.44,1.42H651A1.4,1.4,0,0,0,649.66,367.32Z"/><path class="cls-3" d="M651.1,356.68h-7.44v12.08h3.68a2.31,2.31,0,0,1,2.23-2.4A2.33,2.33,0,0,1,652,368.6h0v.16h3.67v-5.44Z"/><text class="cls-5" transform="translate(618.65 386.36)">P</text><text class="cls-4" transform="translate(623.57 386.36)">acking &amp;</text><text class="cls-4" transform="translate(621.21 397.87)">Shipping</text><polygon class="cls-3" points="569.52 364.44 567.04 366.6 566.64 365.48 566.64 365.48 565.21 361.56 551.92 367.48 566.64 356.6 567.21 357.96 568 360.36 568.73 362.2 575.75 358.84 569.52 364.44 569.52 364.44"/><path class="cls-3" d="M561.29,358.44a9.13,9.13,0,0,1,15.51-4.72,12.33,12.33,0,0,0-22,9.44Z"/><path class="cls-3" d="M573.37,368.68a8.83,8.83,0,0,1-6.08,0l-1,.88-.56-1.52a9.35,9.35,0,0,1-3.36-3.28l-6.08,2.72a12.35,12.35,0,0,0,23-6.64A9.3,9.3,0,0,1,573.37,368.68Z"/><circle class="cls-3" cx="578.48" cy="357" r="1.6"/><text class="cls-4" transform="translate(550.77 386.36)">Marking</text><line class="cls-6" x1="241.52" y1="176.03" x2="250.47" y2="176.03"/><polygon class="cls-7" points="249.75 178.43 253.91 176.03 249.75 173.63 249.75 178.43"/><line class="cls-6" x1="312.61" y1="176.03" x2="321.57" y2="176.03"/><polygon class="cls-7" points="320.85 178.43 325 176.03 320.85 173.63 320.85 178.43"/><line class="cls-6" x1="383.78" y1="176.03" x2="392.74" y2="176.03"/><polygon class="cls-7" points="392.01 178.43 396.18 176.03 392.01 173.63 392.01 178.43"/><line class="cls-6" x1="454.88" y1="176.03" x2="463.83" y2="176.03"/><polygon class="cls-7" points="463.11 178.43 467.26 176.03 463.11 173.63 463.11 178.43"/><line class="cls-6" x1="526.05" y1="176.03" x2="535" y2="176.03"/><polygon class="cls-7" points="534.28 178.43 538.45 176.03 534.28 173.63 534.28 178.43"/><line class="cls-6" x1="597.13" y1="176.03" x2="606.1" y2="176.03"/><polygon class="cls-7" points="605.38 178.43 609.53 176.03 605.38 173.63 605.38 178.43"/><line class="cls-6" x1="241.52" y1="270.71" x2="250.47" y2="270.71"/><polygon class="cls-7" points="249.75 273.11 253.91 270.71 249.75 268.31 249.75 273.11"/><line class="cls-6" x1="312.61" y1="270.71" x2="321.57" y2="270.71"/><polygon class="cls-7" points="320.85 273.11 325 270.71 320.85 268.31 320.85 273.11"/><line class="cls-6" x1="383.78" y1="270.71" x2="392.74" y2="270.71"/><polygon class="cls-7" points="392.01 273.11 396.18 270.71 392.01 268.31 392.01 273.11"/><line class="cls-6" x1="454.88" y1="270.71" x2="463.83" y2="270.71"/><polygon class="cls-7" points="463.11 273.11 467.26 270.71 463.11 268.31 463.11 273.11"/><line class="cls-6" x1="526.05" y1="270.71" x2="535" y2="270.71"/><polygon class="cls-7" points="534.28 273.11 538.45 270.71 534.28 268.31 534.28 273.11"/><line class="cls-6" x1="241.52" y1="365.4" x2="250.47" y2="365.4"/><polygon class="cls-7" points="249.75 367.8 253.91 365.4 249.75 363 249.75 367.8"/><line class="cls-6" x1="312.61" y1="365.4" x2="321.57" y2="365.4"/><polygon class="cls-7" points="320.85 367.8 325 365.4 320.85 363 320.85 367.8"/><line class="cls-6" x1="383.78" y1="365.4" x2="392.74" y2="365.4"/><polygon class="cls-7" points="392.01 367.8 396.18 365.4 392.01 363 392.01 367.8"/><line class="cls-6" x1="454.88" y1="365.4" x2="463.83" y2="365.4"/><polygon class="cls-7" points="463.11 367.8 467.26 365.4 463.11 363 463.11 367.8"/><line class="cls-6" x1="526.05" y1="365.4" x2="535" y2="365.4"/><polygon class="cls-7" points="534.28 367.8 538.45 365.4 534.28 363 534.28 367.8"/><line class="cls-6" x1="597.13" y1="365.4" x2="606.1" y2="365.4"/><polygon class="cls-7" points="605.38 367.8 609.53 365.4 605.38 363 605.38 367.8"/><path class="cls-8" d="M667.51,176.59H681a4.56,4.56,0,0,1,4.56,4.56v43.9a4.56,4.56,0,0,1-4.56,4.56H169.38a4.56,4.56,0,0,0-4.56,4.56v32a4.56,4.56,0,0,0,4.56,4.56h10.08"/><polygon class="cls-7" points="178.74 273.11 182.9 270.71 178.74 268.31 178.74 273.11"/><path class="cls-8" d="M667.51,270.71H681a4.56,4.56,0,0,1,4.56,4.56v43.9a4.56,4.56,0,0,1-4.56,4.56H169.38a4.56,4.56,0,0,0-4.56,4.56v32a4.56,4.56,0,0,0,4.56,4.56h10.08"/><polygon class="cls-7" points="178.74 367.23 182.9 364.83 178.74 362.43 178.74 367.23"/><line class="cls-6" x1="597.13" y1="270.71" x2="606.1" y2="270.71"/><polygon class="cls-7" points="605.38 273.11 609.53 270.71 605.38 268.31 605.38 273.11"/><path class="cls-9" d="M364,183.15,360.5,159.9a2.52,2.52,0,0,0-2.49-2.15h-7.77a2.52,2.52,0,0,0-2.49,2.15l-3.47,23.26A2.52,2.52,0,0,0,346.4,186h15.07a2.52,2.52,0,0,0,2.52-2.52v-.33Zm-14.22-23a.48.48,0,0,1,.48-.42H358a.5.5,0,0,1,.49.42l1.75,11.7H348Z"/><g class="cls-10"><text class="cls-11" transform="translate(337.98 197.07)">Anal</text><text class="cls-11" transform="translate(356.05 197.07)">y</text><text class="cls-11" transform="translate(360.64 197.07)">tic</text></g><path class="cls-9" d="M291.81,182.92l-5.32-8.47a8.54,8.54,0,1,0-1.81,1.13l5.32,8.48a1.07,1.07,0,0,0,.91.5,1,1,0,0,0,.56-.17A1.08,1.08,0,0,0,291.81,182.92Zm-12.08-8.84a6.4,6.4,0,1,1,7.64-4.86,6.4,6.4,0,0,1-7.64,4.86Z"/><text class="cls-11" transform="translate(262.45 197.07)">Inspection</text><path class="cls-9" d="M648.38,181.89h-20a3.2,3.2,0,0,1-3.2-3.2h0V162.26h1.55v16.45a1.65,1.65,0,0,0,1.64,1.63h20a1.63,1.63,0,0,0,1.62-1.63V162.26h1.56v16.45A3.19,3.19,0,0,1,648.38,181.89Z"/><path class="cls-9" d="M641.61,180.51a4.4,4.4,0,1,1,4.4-4.4,4.39,4.39,0,0,1-4.4,4.4Zm0-7.27a2.86,2.86,0,1,0,2.86,2.86h0a2.86,2.86,0,0,0-2.86-2.85Z"/><rect class="cls-9" x="625.15" y="165.89" width="26.41" height="1.66"/><g class="cls-10"><text class="cls-11" transform="translate(616.15 197.07)">Deg</text><text class="cls-12" transform="translate(631.59 197.07)">r</text><text class="cls-11" transform="translate(634.89 197.07)">easing</text></g><path class="cls-9" d="M425.76,161.18v5.2a7.33,7.33,0,1,1-2.85,0v-5.2a12.44,12.44,0,1,0,2.85,0Z"/><g class="cls-10"><text class="cls-11" transform="translate(398.23 197.07)">Au</text><text class="cls-12" transform="translate(409.2 197.07)">t</text><text class="cls-11" transform="translate(412.43 197.07)">o-</text><text class="cls-12" transform="translate(420.53 197.07)">w</text><text class="cls-11" transform="translate(427.61 197.07)">elding</text></g><rect class="cls-9" x="547.9" y="170.75" width="37.4" height="7.8"/><path class="cls-9" d="M574.31,159.55a5.6,5.6,0,1,0,5.6,5.6h0A5.6,5.6,0,0,0,574.31,159.55Zm0,7.9a2.31,2.31,0,1,1,2.31-2.31h0a2.29,2.29,0,0,1-2.3,2.3Z"/><circle class="cls-9" cx="554.06" cy="181.45" r="2.8"/><circle class="cls-9" cx="562.35" cy="181.45" r="2.8"/><circle class="cls-9" cx="570.63" cy="181.45" r="2.8"/><circle class="cls-9" cx="578.92" cy="181.45" r="2.8"/><text class="cls-11" transform="translate(538.26 197.07)">Seam-grinding</text><path class="cls-9" d="M218.16,173.78a6.2,6.2,0,0,1-12,0h-1a7.19,7.19,0,0,0,14,0Z"/><path class="cls-9" d="M220.19,173.78a8.18,8.18,0,0,1-16,0h-1a9.15,9.15,0,0,0,18-.05h-1Z"/><path class="cls-9" d="M222.17,173.78a10.15,10.15,0,0,1-20,0h-1a11.13,11.13,0,0,0,22,0Z"/><path class="cls-9" d="M224.16,173.78a12.08,12.08,0,0,1-24-.05h-1a13.08,13.08,0,0,0,26,0h-1Z"/><path class="cls-9" d="M208.27,169.94a4.23,4.23,0,0,1,7.77,0h1.06a5.24,5.24,0,0,0-9.93,0Z"/><path class="cls-9" d="M206.2,169.94a6.14,6.14,0,0,1,7.06-4.43,6.26,6.26,0,0,1,4.9,4.43h1a7.19,7.19,0,0,0-14,0Z"/><path class="cls-9" d="M204.16,169.94a8.16,8.16,0,0,1,16,0h1a9.13,9.13,0,0,0-18,0Z"/><path class="cls-9" d="M202.18,169.94a10.15,10.15,0,0,1,20,0h1a11.13,11.13,0,0,0-22,0Z"/><path class="cls-9" d="M200.15,169.94a12.09,12.09,0,0,1,24,0h1a13.07,13.07,0,0,0-25.91,0Z"/><path class="cls-9" d="M216.1,173.78a4.24,4.24,0,0,1-5.56,2.25,4.17,4.17,0,0,1-2.25-2.25h-1a5.24,5.24,0,0,0,9.93,0Z"/><path class="cls-9" d="M225,172.9h-8.36a1,1,0,0,1-1.06-.94.24.24,0,0,1,0-.12h0a1,1,0,0,1,1-1.07H225a1.06,1.06,0,0,1,1.06,1v0h0a1,1,0,0,1-.94,1.06Z"/><path class="cls-9" d="M207.67,172.9h-8.36a1,1,0,0,1-1.06-.94.24.24,0,0,1,0-.12h0a1,1,0,0,1,1-1.07h8.4a1.06,1.06,0,0,1,1.06,1v0h0a1,1,0,0,1-.94,1.06Z"/><text class="cls-11" transform="translate(203.25 197.07)">Strip</text><path class="cls-9" d="M504.67,172.26h0a12.61,12.61,0,0,0-.8-1.25c-.2-.26-.4-.52-.59-.8l-7-10.44-7.06,10.43c-.18.28-.4.54-.58.8a9.56,9.56,0,1,0,16.08,1.26Z"/><g class="cls-10"><text class="cls-13" transform="translate(479.84 197.07)">W</text><text class="cls-11" transform="translate(488.2 197.07)">elding</text><text class="cls-11" transform="translate(479.1 208.59)">Cleaning</text></g><path class="cls-9" d="M552.48,274.53c-2.41,0-4.19-3.42-4.19-7.95s1.8-7.95,4.19-7.95,4.19,3.42,4.19,7.95S554.87,274.53,552.48,274.53Zm0-14.07c-1,0-2.36,2.4-2.36,6.12s1.4,6.12,2.36,6.12,2.36-2.4,2.36-6.12S553.44,260.46,552.48,260.46Z"/><ellipse class="cls-9" cx="582" cy="266.58" rx="3.27" ry="7.04"/><path class="cls-9" d="M582,274.53c-2.4,0-4.18-3.42-4.18-7.95s1.8-7.95,4.18-7.95,4.19,3.42,4.19,7.95S584.38,274.53,582,274.53Zm0-14.07c-1,0-2.35,2.4-2.35,6.12S581,272.7,582,272.7s2.36-2.4,2.36-6.12S583,260.46,582,260.46Z"/><path class="cls-9" d="M566.82,258.63l-.21.19-.18-.19h-14c2.4,0,4.19,3.42,4.19,7.95s-1.8,7.95-4.19,7.95h13.94a5.15,5.15,0,0,0,.43-.5l.68.5H582v-15.9Zm3.14,5.6-1.37.16a14.3,14.3,0,0,0-.41-2.15l1.33-.35a18.61,18.61,0,0,1,.46,2.34Zm-1.72-5.48a10.07,10.07,0,0,1,1,2.22l-1.28.43a9,9,0,0,0-.89-1.92Zm.24,15.24-1.2-.65a10.44,10.44,0,0,0,.8-2l1.31.4a12.24,12.24,0,0,1-.9,2.26Zm1.14-3.17-1.33-.31a15.66,15.66,0,0,0,.34-2.16l1.37.13a18.38,18.38,0,0,1-.37,2.34Zm.44-3.29-1.37-.06v-2.21l1.36-.09c0,.46.05.94.05,1.41v.95Z"/><g class="cls-10"><text class="cls-11" transform="translate(549.18 291.75)">P</text><text class="cls-12" transform="translate(554.29 291.75)">r</text><text class="cls-11" transform="translate(557.59 291.75)">ecision</text><text class="cls-11" transform="translate(552.98 303.27)">Cutting</text></g><path class="cls-14" d="M212,282.22c-1.37-4.35-8.76-6.15-10.06-9.87-.62-2.36-.56-5.1.62-6.9,0,2.36,1.67,5.66,3.23,4s-3-2.11-2.36-5.59c.12-1.62,1.49-2.49,2.05-6.15,1.55,1.55-.87,4.1,2.79,5.59-4.41-5.34,3.41-7.27,2.8-12.42,5.84,5.77.12,9.31,3.29,10.81,1.17.49,2.86-2.68,1.74-5.28,3.48,3,3.11,6.21,1.3,8.75-.68.94.07,2.92.93,3.54-.31-1.86,1.3-2.79,1.75-4.6,3.22,3.61,4.41,8-.95,11.62A28.3,28.3,0,0,0,212,282.22Z"/><g class="cls-10"><text class="cls-11" transform="translate(188.8 291.75)">Curing He</text><text class="cls-12" transform="translate(227.57 291.75)">a</text><text class="cls-11" transform="translate(232.22 291.75)">t</text><text class="cls-15" transform="translate(191.47 303.27)">T</text><text class="cls-12" transform="translate(195.73 303.27)">r</text><text class="cls-11" transform="translate(199.03 303.27)">e</text><text class="cls-12" transform="translate(203.87 303.27)">a</text><text class="cls-11" transform="translate(208.52 303.27)">tme</text><text class="cls-16" transform="translate(224.49 303.27)">n</text><text class="cls-11" transform="translate(229.55 303.27)">t</text></g><path class="cls-9" d="M341.53,268.72a5.53,5.53,0,0,1-2.56-.65,4.31,4.31,0,0,0-2.22-.53,1.4,1.4,0,1,1,0-2.8h0a7.07,7.07,0,0,1,3.43.8,2.74,2.74,0,0,0,1.35.38,3.14,3.14,0,0,0,1.43-.37,7.93,7.93,0,0,1,3.28-.81,8.72,8.72,0,0,1,2.38.29,11.3,11.3,0,0,0,2.47.33h14.67a1.4,1.4,0,1,1,0,2.8H351.1a13.57,13.57,0,0,1-3.05-.4,7.81,7.81,0,0,0-1.66-.23,5.6,5.6,0,0,0-2.28.57A5.67,5.67,0,0,1,341.53,268.72Z"/><rect class="cls-9" x="351.42" y="253.6" width="10.86" height="10.86" rx="1.78"/><rect class="cls-9" x="351.42" y="269.06" width="10.86" height="10.86" rx="1.78"/><g class="cls-10"><text class="cls-11" transform="translate(327.68 291.75)">St</text><text class="cls-17" transform="translate(335.54 291.75)">r</text><text class="cls-11" transform="translate(338.75 291.75)">aig</text><text class="cls-16" transform="translate(350.4 291.75)">h</text><text class="cls-12" transform="translate(355.46 291.75)">t</text><text class="cls-11" transform="translate(358.66 291.75)">ening</text></g><rect class="cls-9" x="619.8" y="261.79" width="25.5" height="7.8"/><path class="cls-9" d="M651.1,260.09a5.6,5.6,0,1,0,5.59,5.6h0A5.6,5.6,0,0,0,651.1,260.09Zm0,7.91a2.31,2.31,0,1,1,2.31-2.31h0A2.33,2.33,0,0,1,651.1,268Z"/><circle class="cls-9" cx="624.32" cy="272.5" r="2.8"/><circle class="cls-9" cx="632.62" cy="272.5" r="2.8"/><circle class="cls-9" cx="640.9" cy="272.5" r="2.8"/><g class="cls-10"><text class="cls-11" transform="translate(621 291.75)">Fl</text><text class="cls-12" transform="translate(627.76 291.75)">a</text><text class="cls-17" transform="translate(632.41 291.75)">t</text><text class="cls-11" transform="translate(635.51 291.75)">-end</text></g><path class="cls-9" d="M283.19,277.2a9.8,9.8,0,1,1,9.8-9.8h0A9.83,9.83,0,0,1,283.19,277.2Zm0-16.8a7,7,0,1,0,7,7,7,7,0,0,0-7-7Z"/><path class="cls-9" d="M283.19,280.05a12.45,12.45,0,0,1-2.52-.25l.24-1.17a11.88,11.88,0,0,0,3.67.14l.14,1.2A13.07,13.07,0,0,1,283.19,280.05Zm3.53-.5-.34-1.15a11.52,11.52,0,0,0,3.32-1.58l.68,1a13,13,0,0,1-3.66,1.74Zm-8-.31a12.33,12.33,0,0,1-3.51-2l.75-.93a11.18,11.18,0,0,0,3.2,1.83ZM292,276.52l-.83-.86a12,12,0,0,0,2.2-2.94l1.06.56a12.49,12.49,0,0,1-2.44,3.24Zm-18.22-.72a12.28,12.28,0,0,1-2.18-3.42l1.1-.47a11.51,11.51,0,0,0,2,3.1Zm21.45-4.4-1.09-.4a11.44,11.44,0,0,0,.59-3.62v-.05h1.2a13.24,13.24,0,0,1-.65,4Zm-24.28-.95a12.06,12.06,0,0,1-.36-3.05v-1l1.2.09v.9a11.15,11.15,0,0,0,.33,2.76Zm23.58-4.93a11.55,11.55,0,0,0-1.18-3.48l1.06-.56a12.44,12.44,0,0,1,1.29,3.84Zm-22.4-.84-1.18-.28a12.77,12.77,0,0,1,1.6-3.74l1,.64a11.65,11.65,0,0,0-1.48,3.39Zm20.25-4.19a11.87,11.87,0,0,0-2.66-2.54l.67-1a12.19,12.19,0,0,1,2.93,2.8Zm-17.74-.66-.9-.8a12.32,12.32,0,0,1,3.13-2.57l.61,1A11.35,11.35,0,0,0,274.6,259.83ZM288.1,257a11.22,11.22,0,0,0-3.53-1l.14-1.2a12.44,12.44,0,0,1,3.9,1.11Zm-9-.33-.43-1.12a12.71,12.71,0,0,1,4-.8l.05,1.2a10.93,10.93,0,0,0-3.58.73Z"/><g class="cls-10"><text class="cls-16" transform="translate(257.32 291.75)">E</text><text class="cls-11" transform="translate(261.86 291.75)">ddy Cur</text><text class="cls-12" transform="translate(292.53 291.75)">r</text><text class="cls-11" transform="translate(295.83 291.75)">e</text><text class="cls-16" transform="translate(300.66 291.75)">n</text><text class="cls-11" transform="translate(305.73 291.75)">t</text><text class="cls-18" transform="translate(269.29 303.27)">T</text><text class="cls-11" transform="translate(273.21 303.27)">e</text><text class="cls-16" transform="translate(278.04 303.27)">s</text><text class="cls-11" transform="translate(281.77 303.27)">ting</text></g><path class="cls-9" d="M509.59,264.43c-15.84,0-16.72-.92-16.77-16.76h0c0,15.84-.92,16.72-16.76,16.76h0c15.84,0,16.72.92,16.76,16.76h0C492.87,265.35,493.75,264.47,509.59,264.43Z"/><path class="cls-14" d="M495,260.16a5.54,5.54,0,0,0,3.81,2.77c.35-1.67,1-4-2.11-7.15C496.89,257.56,496,258.9,495,260.16Z"/><path class="cls-14" d="M503,271.4c-.76-.54-1.41-2.29-.8-3.1a6,6,0,0,0,1.15-2.94c-8.76.46-9.65,2.67-9.75,13.7,1.71,1.17,3.31,2.43,3.85,4.14a25.21,25.21,0,0,1,6.26-5.66c4.68-3.15,3.64-7,.8-10.17C504.19,269,502.77,269.77,503,271.4Z"/><path class="cls-14" d="M501.27,263.36c.58.07,1.2.12,1.9.16a6.65,6.65,0,0,0-2.09-2.89A4.4,4.4,0,0,1,501.27,263.36Z"/><path class="cls-14" d="M491.69,272.33c-1.25.62-2.46-1.93-2.46-3.81a8,8,0,0,0-.55,6c.47,1.33,1.81,2.38,3.33,3.41C492,276.06,491.89,274.19,491.69,272.33Z"/><path class="cls-14" d="M498.25,264.43a7.46,7.46,0,0,1-3.53-1.89,5.49,5.49,0,0,1-.8-1c-1,1.44-1.46,2.95.31,5.09-3.2-1.31-1.09-3.54-2.45-4.9a12.18,12.18,0,0,1-1.4,4.09,5.27,5.27,0,0,1,.55.5,7.38,7.38,0,0,1,1.89,3.53A6.93,6.93,0,0,1,498.25,264.43Z"/><g class="cls-10"><text class="cls-11" transform="translate(484.29 291.75)">Brig</text><text class="cls-16" transform="translate(499.99 291.75)">h</text><text class="cls-11" transform="translate(505.05 291.75)">t</text><text class="cls-11" transform="translate(476.28 303.27)">Annealing</text></g><path class="cls-9" d="M424.73,280.61a13.22,13.22,0,0,1,0-26.44,2.09,2.09,0,0,1,0,4.18h0a9,9,0,1,0,0,18.07,2.1,2.1,0,0,1,0,4.19Z"/><path class="cls-9" d="M424.73,279.44a1,1,0,0,1,0-1.9A10.19,10.19,0,1,0,426,257.19h0a9,9,0,0,0-1.27,0,1,1,0,0,1,0-1.9,12.08,12.08,0,1,1,1,24.14h-1Z"/><rect class="cls-9" x="421.63" y="266.99" width="3.87" height="0.76"/><polygon class="cls-9" points="424.94 269.3 428.3 267.37 424.94 265.43 424.94 269.3"/><g class="cls-10"><text class="cls-13" transform="translate(416.3 291.75)">W</text><text class="cls-11" transform="translate(424.66 291.75)">all</text><text class="cls-12" transform="translate(405.04 303.27)">R</text><text class="cls-11" transform="translate(410.29 303.27)">eduction</text></g><path class="cls-9" d="M212.27,372a10.47,10.47,0,1,1,10.46-10.48A10.46,10.46,0,0,1,212.27,372Zm0-19.33a8.87,8.87,0,1,0,8.86,8.88h0a8.88,8.88,0,0,0-8.86-8.88h0Z"/><polygon class="cls-9" points="218.43 360.73 213.06 360.73 213.06 355.37 211.47 355.37 211.47 360.73 206.12 360.73 206.12 362.33 211.47 362.33 211.47 367.68 213.06 367.68 213.06 362.33 218.43 362.33 218.43 360.73"/><g class="cls-10"><text class="cls-11" transform="translate(187.46 386.35)">H</text><text class="cls-12" transform="translate(193.52 386.35)">y</text><text class="cls-11" transform="translate(197.96 386.35)">d</text><text class="cls-12" transform="translate(203.11 386.35)">r</text><text class="cls-11" transform="translate(206.4 386.35)">o-</text><text class="cls-16" transform="translate(214.5 386.35)">s</text><text class="cls-19" transform="translate(218.22 386.35)">t<tspan class="cls-20" x="3.14" y="0">a</tspan></text><text class="cls-11" transform="translate(226.11 386.35)">tio</text><text class="cls-18" transform="translate(204.27 397.87)">T</text><text class="cls-11" transform="translate(208.2 397.87)">e</text><text class="cls-16" transform="translate(213.03 397.87)">s</text><text class="cls-11" transform="translate(216.75 397.87)">t</text></g><path class="cls-9" d="M286,350.28a10.91,10.91,0,0,0-10.94,10.9h0a1.25,1.25,0,0,0,2.5,0,8.42,8.42,0,1,1,8.44,8.39H271a1.25,1.25,0,0,0,0,2.5H286a10.91,10.91,0,0,0,0-21.8Z"/><text class="cls-11" transform="translate(269.68 386.35)">Coiling</text><path class="cls-9" d="M354.2,350.74A11.22,11.22,0,0,0,343,361.94a2.65,2.65,0,0,0,5.29,0,5.93,5.93,0,1,1,5.93,5.95,2.65,2.65,0,0,0,0,5.29,11.22,11.22,0,1,0,0-22.44Zm0,21.36a1.56,1.56,0,0,1,0-3.12,1.57,1.57,0,0,1,1.55,1.56h0a1.56,1.56,0,0,1-1.56,1.56Z"/><g class="cls-10"><text class="cls-11" transform="translate(335.94 386.35)">Coil </text><text class="cls-15" transform="translate(353.07 386.35)">T</text><text class="cls-11" transform="translate(357.32 386.35)">ube</text></g></svg>