<svg id="图层_1" data-name="图层 1" xmlns="http://www.w3.org/2000/svg" viewBox="0 0 850.4 566.9"><defs><style>.cls-1{fill:#fff;}.cls-1,.cls-10,.cls-11,.cls-12,.cls-13,.cls-14,.cls-15,.cls-2,.cls-5,.cls-6,.cls-7,.cls-8,.cls-9{isolation:isolate;}.cls-1,.cls-10,.cls-2,.cls-3,.cls-6,.cls-7,.cls-8,.cls-9{opacity:0.6;}.cls-2,.cls-6,.cls-8{fill:none;}.cls-2,.cls-6,.cls-7,.cls-8{stroke:#eee;}.cls-2,.cls-6,.cls-7{stroke-miterlimit:10;}.cls-10,.cls-12,.cls-13,.cls-14,.cls-15,.cls-16,.cls-18,.cls-4,.cls-5,.cls-7,.cls-9{fill:#eee;}.cls-10,.cls-12,.cls-13,.cls-14,.cls-15,.cls-5{font-size:9.6px;}.cls-10,.cls-12,.cls-13,.cls-14,.cls-15,.cls-18,.cls-5{font-family:Calibri-Bold, Calibri;font-weight:700;}.cls-6,.cls-8{stroke-linecap:round;stroke-width:1.6px;}.cls-7{stroke-width:0.89px;}.cls-8{stroke-linejoin:round;}.cls-12{letter-spacing:-0.01em;}.cls-13{letter-spacing:-0.02em;}.cls-14{letter-spacing:-0.01em;}.cls-15{letter-spacing:-0.03em;}.cls-16{fill-rule:evenodd;}.cls-17{opacity:0.6;}.cls-18{font-size:9.6px;}</style></defs><rect class="cls-1" width="850.4" height="566.9"/><line class="cls-2" x1="850.4" y1="46.7" y2="46.7"/><line class="cls-2" x1="850.4" y1="165.1" y2="165.1"/><line class="cls-2" x1="850.4" y1="283.5" y2="283.5"/><line class="cls-2" x1="850.4" y1="401.9" y2="401.9"/><line class="cls-2" x1="850.4" y1="105.9" y2="105.9"/><line class="cls-2" x1="850.4" y1="224.3" y2="224.3"/><line class="cls-2" x1="850.4" y1="342.7" y2="342.7"/><line class="cls-2" x1="850.4" y1="461" y2="461"/><line class="cls-2" x1="850.4" y1="520.2" y2="520.2"/><line class="cls-2" x1="850.4" y1="135.5" y2="135.5"/><line class="cls-2" x1="850.4" y1="253.9" y2="253.9"/><line class="cls-2" x1="850.4" y1="372.3" y2="372.3"/><line class="cls-2" x1="850.4" y1="76.3" y2="76.3"/><line class="cls-2" x1="850.4" y1="17.1" y2="17.1"/><line class="cls-2" x1="850.4" y1="194.7" y2="194.7"/><line class="cls-2" x1="850.4" y1="313.1" y2="313.1"/><line class="cls-2" x1="850.4" y1="431.4" y2="431.4"/><line class="cls-2" x1="850.4" y1="490.6" y2="490.6"/><line class="cls-2" x1="850.4" y1="549.8" y2="549.8"/><line class="cls-2" x1="10.8" x2="10.8" y2="566.9"/><line class="cls-2" x1="129.2" x2="129.2" y2="566.9"/><line class="cls-2" x1="247.6" x2="247.6" y2="566.9"/><line class="cls-2" x1="366" x2="366" y2="566.9"/><line class="cls-2" x1="484.4" x2="484.4" y2="566.9"/><line class="cls-2" x1="602.8" x2="602.8" y2="566.9"/><line class="cls-2" x1="839.5" x2="839.5" y2="566.9"/><line class="cls-2" x1="721.2" x2="721.2" y2="566.9"/><line class="cls-2" x1="70" x2="70" y2="566.9"/><line class="cls-2" x1="188.4" x2="188.4" y2="566.9"/><line class="cls-2" x1="306.8" x2="306.8" y2="566.9"/><line class="cls-2" x1="425.2" x2="425.2" y2="566.9"/><line class="cls-2" x1="543.6" x2="543.6" y2="566.9"/><line class="cls-2" x1="662" x2="662" y2="566.9"/><line class="cls-2" x1="780.4" x2="780.4" y2="566.9"/><line class="cls-2" x1="810" x2="810" y2="566.9"/><line class="cls-2" x1="99.6" x2="99.6" y2="566.9"/><line class="cls-2" x1="218" x2="218" y2="566.9"/><line class="cls-2" x1="336.4" x2="336.4" y2="566.9"/><line class="cls-2" x1="454.8" x2="454.8" y2="566.9"/><line class="cls-2" x1="573.2" x2="573.2" y2="566.9"/><line class="cls-2" x1="691.6" x2="691.6" y2="566.9"/><line class="cls-2" x1="40.4" x2="40.4" y2="566.9"/><line class="cls-2" x1="158.8" x2="158.8" y2="566.9"/><line class="cls-2" x1="277.2" x2="277.2" y2="566.9"/><line class="cls-2" x1="395.6" x2="395.6" y2="566.9"/><line class="cls-2" x1="514" x2="514" y2="566.9"/><line class="cls-2" x1="632.4" x2="632.4" y2="566.9"/><line class="cls-2" x1="750.8" x2="750.8" y2="566.9"/><g class="cls-3"><path class="cls-4" d="M328.4,376.8,325,353.5a2.66,2.66,0,0,0-2.5-2.2h-7.8a2.58,2.58,0,0,0-2.5,2.2l-3.4,23.3a2.57,2.57,0,0,0,2.1,2.9H326a2.55,2.55,0,0,0,2.6-2.5C328.3,377.1,328.3,377.1,328.4,376.8Zm-14.3-22.9a.46.46,0,0,1,.5-.4h7.8c.2,0,.5.2.5.4l1.8,11.7H312.5Z"/><text class="cls-5" transform="translate(302.41 390.82)">Anal</text><text class="cls-5" transform="translate(320.47 390.82)">y</text><text class="cls-5" transform="translate(325.06 390.82)">tic</text></g><g class="cls-3"><path class="cls-4" d="M459.9,356.6H450v12.3h14V356.6Zm-2.3,1.7a.7.7,0,1,1-.7-.7c.4.1.7.3.7.7Zm-4.9,0a.7.7,0,1,1-.7-.7h0A1,1,0,0,1,452.7,358.3Zm1.2-.7h1v4.2h-1Zm-2.7,9.4a.7.7,0,1,1,.7.7h0A.85.85,0,0,1,451.2,367Zm2.7.6v-4.1h1v4.1Zm2.2-.6a.7.7,0,1,1,.7.7A.85.85,0,0,1,456.1,367Zm5,0a.7.7,0,1,1,.7.7h0a.85.85,0,0,1-.7-.7Zm-1.2.6h-1v-4.1h1Zm-1-5.7v-4.2h1v4.2Zm3.6-3.6a.7.7,0,1,1-.7-.7h0a.67.67,0,0,1,.7.66Z"/><circle class="cls-4" cx="450.3" cy="373.2" r="1.8"/><path class="cls-4" d="M450.3,371.7a1.43,1.43,0,0,0-1.4,1.4v.1h2.8A1.52,1.52,0,0,0,450.3,371.7Z"/><path class="cls-4" d="M444.6,369.4v3.8H448a2.3,2.3,0,1,1,4.6-.2v.2H465v-3.8Z"/><circle class="cls-4" cx="471.9" cy="373.2" r="1.8"/><path class="cls-4" d="M471.9,371.7a1.43,1.43,0,0,0-1.4,1.4v.1h2.8A1.52,1.52,0,0,0,471.9,371.7Z"/><path class="cls-4" d="M473.4,361.1H466v12.1h3.7a2.3,2.3,0,1,1,4.6-.2v.2H478v-5.4Z"/><text class="cls-5" transform="translate(440.95 390.82)">P</text><text class="cls-5" transform="translate(445.87 390.82)">acking &amp;</text><text class="cls-5" transform="translate(443.51 402.34)">Shipping</text></g><g class="cls-3"><polygon class="cls-4" points="391.6 368.8 389.2 371.1 388.8 369.9 388.8 369.9 387.4 366 374 371.9 388.8 361.1 389.4 362.4 390.2 364.8 390.8 366.7 397.9 363.2 391.6 368.8"/><path class="cls-4" d="M383.5,362.8a9.51,9.51,0,0,1,5.9-7A9.21,9.21,0,0,1,399,358a12.32,12.32,0,0,0-22,9.4Z"/><path class="cls-4" d="M395.5,373.1a9.12,9.12,0,0,1-6.1,0l-1,.9-.6-1.5a9.05,9.05,0,0,1-3.4-3.3l-6.1,2.7a12.26,12.26,0,0,0,14.9,5.4,12.46,12.46,0,0,0,8.2-12.1A9,9,0,0,1,395.5,373.1Z"/><circle class="cls-4" cx="400.7" cy="361.5" r="1.6"/><text class="cls-5" transform="translate(372.92 390.82)">Marking</text></g><line class="cls-6" x1="277" y1="180.4" x2="286.1" y2="180.4"/><polygon class="cls-7" points="285.3 182.8 289.4 180.4 285.3 178 285.3 182.8"/><line class="cls-6" x1="348.2" y1="180.4" x2="357.1" y2="180.4"/><polygon class="cls-7" points="356.5 182.8 360.6 180.4 356.5 178 356.5 182.8"/><line class="cls-6" x1="419.4" y1="180.4" x2="428.2" y2="180.4"/><polygon class="cls-7" points="427.5 182.8 431.8 180.4 427.5 178 427.5 182.8"/><line class="cls-6" x1="490.5" y1="180.4" x2="499.4" y2="180.4"/><polygon class="cls-7" points="498.7 182.8 502.9 180.4 498.7 178 498.7 182.8"/><line class="cls-6" x1="561.5" y1="180.4" x2="570.6" y2="180.4"/><polygon class="cls-7" points="569.8 182.8 573.9 180.4 569.8 178 569.8 182.8"/><line class="cls-6" x1="277" y1="275.1" x2="286.1" y2="275.1"/><polygon class="cls-7" points="285.3 277.5 289.4 275.1 285.3 272.7 285.3 277.5"/><line class="cls-6" x1="348.2" y1="275.1" x2="357.1" y2="275.1"/><polygon class="cls-7" points="356.5 277.5 360.6 275.1 356.5 272.7 356.5 277.5"/><line class="cls-6" x1="419.4" y1="275.1" x2="428.2" y2="275.1"/><polygon class="cls-7" points="427.5 277.5 431.8 275.1 427.5 272.7 427.5 277.5"/><line class="cls-6" x1="490.5" y1="275.1" x2="499.4" y2="275.1"/><polygon class="cls-7" points="498.7 277.5 502.9 275.1 498.7 272.7 498.7 277.5"/><line class="cls-6" x1="277" y1="369.9" x2="286.1" y2="369.9"/><polygon class="cls-7" points="285.3 372.3 289.4 369.9 285.3 367.5 285.3 372.3"/><line class="cls-6" x1="348.2" y1="369.9" x2="357.1" y2="369.9"/><polygon class="cls-7" points="356.5 372.3 360.6 369.9 356.5 367.5 356.5 372.3"/><line class="cls-6" x1="419.4" y1="369.9" x2="428.2" y2="369.9"/><polygon class="cls-7" points="427.5 372.3 431.8 369.9 427.5 367.5 427.5 372.3"/><line class="cls-6" x1="490.5" y1="369.9" x2="499.4" y2="369.9"/><polygon class="cls-7" points="498.7 372.3 502.9 369.9 498.7 367.5 498.7 372.3"/><path class="cls-8" d="M632,181.1h13.5a4.6,4.6,0,0,1,4.6,4.58v0h0v43.9a4.6,4.6,0,0,1-4.58,4.6H205a4.59,4.59,0,0,0-4.6,4.58v0h0v32a4.59,4.59,0,0,0,4.58,4.6h10"/><polygon class="cls-7" points="214.2 277.8 218.4 275.4 214.2 273 214.2 277.8"/><line class="cls-6" x1="561.5" y1="275.1" x2="570.6" y2="275.1"/><polygon class="cls-7" points="569.8 277.5 573.9 275.1 569.8 272.7 569.8 277.5"/><path class="cls-9" d="M258.7,168.9a3,3,0,0,0-3,3v12.9a1.43,1.43,0,0,1-1.4,1.4H240.9a1.43,1.43,0,0,1-1.4-1.4V172a3,3,0,0,0-3-3h-5.3v1.7h5.3a1.43,1.43,0,0,1,1.4,1.4V185a3,3,0,0,0,3,3h13.4a3,3,0,0,0,3-3V172a1.43,1.43,0,0,1,1.4-1.4h5.4v-1.7Z"/><path class="cls-9" d="M240.5,184.8a.54.54,0,0,0,.5.5h13.4a.54.54,0,0,0,.5-.5h0V174.4c-1.4-.1-3.7-.3-4.6-.3-1.5,0-4.8.8-6,.2-.7-.4-2.4-.3-3.7-.2l-.1,10.7Z"/><path class="cls-9" d="M243.5,172.3h-.2a.58.58,0,0,1-.4-.7h0a5.71,5.71,0,0,0,0-2.6,6.53,6.53,0,0,1,0-3.4c.2-.3.5-.5.8-.3a.81.81,0,0,1,.4.6h0a6.61,6.61,0,0,0,0,2.8,6.16,6.16,0,0,1,0,3.3A.61.61,0,0,1,243.5,172.3Z"/><path class="cls-9" d="M247.6,172.3h-.2a.58.58,0,0,1-.4-.7h0a5.71,5.71,0,0,0,0-2.6,6.53,6.53,0,0,1,0-3.4c.2-.3.5-.5.8-.3a.81.81,0,0,1,.4.6,6.61,6.61,0,0,0,0,2.8,6.16,6.16,0,0,1,0,3.3A.71.71,0,0,1,247.6,172.3Z"/><path class="cls-9" d="M251.8,172.3h-.2a.58.58,0,0,1-.4-.7h0a5.71,5.71,0,0,0,0-2.6,10.28,10.28,0,0,1,0-3.5.57.57,0,0,1,1.1.3h0a7.08,7.08,0,0,0,0,2.9,6.16,6.16,0,0,1,0,3.3A.45.45,0,0,1,251.8,172.3Z"/><text class="cls-10" transform="translate(237.75 201.53)">S</text><text class="cls-10" transform="translate(242.29 201.53)">t</text><text class="cls-10" transform="translate(245.5 201.53)">eel</text><text class="cls-10" transform="translate(232.74 213.05)">Making</text><path class="cls-8" d="M632,275.1h13.5a4.6,4.6,0,0,1,4.6,4.58v0h0v43.9a4.6,4.6,0,0,1-4.58,4.6H205a4.59,4.59,0,0,0-4.6,4.58v0h0v32a4.59,4.59,0,0,0,4.58,4.6h10"/><polygon class="cls-7" points="214.2 371.9 218.4 369.5 214.2 367.1 214.2 371.9"/><line class="cls-6" x1="561.5" y1="275.1" x2="570.6" y2="275.1"/><g class="cls-3"><path class="cls-4" d="M603.3,258.9a12.2,12.2,0,1,0,12.2,12.2h0A12.25,12.25,0,0,0,603.3,258.9Zm0,23A10.9,10.9,0,1,1,614.2,271,10.9,10.9,0,0,1,603.3,281.9Z"/><path class="cls-4" d="M603.3,260.8A10.2,10.2,0,1,0,613.5,271h0a10.18,10.18,0,0,0-10.16-10.2Zm0,19.1a8.9,8.9,0,1,1,8.9-8.9A8.89,8.89,0,0,1,603.3,279.9Z"/><path class="cls-4" d="M603.3,262.9a8.2,8.2,0,1,0,8.2,8.2h0a8.17,8.17,0,0,0-8.14-8.2Zm0,15.1a7,7,0,1,1,7-7A7,7,0,0,1,603.3,278Z"/><path id="_矩形_" data-name=" 矩形 " class="cls-4" d="M589.5,281.9h13.1a.58.58,0,0,1,.6.56v0h0a.58.58,0,0,1-.56.6H589.5a.58.58,0,0,1-.6-.56v0h0A.65.65,0,0,1,589.5,281.9Z"/><g class="cls-11"><text class="cls-5" transform="translate(580.2 296.21)">Cold-</text><text class="cls-12" transform="translate(600.89 296.21)">r</text><text class="cls-5" transform="translate(604.19 296.21)">olled</text></g><text class="cls-5" transform="translate(594.7 307.71)">Coil</text></g><g class="cls-3"><path class="cls-4" d="M319.7,258.9a12.2,12.2,0,1,0,12.2,12.2h0A12.25,12.25,0,0,0,319.7,258.9Zm0,23A10.9,10.9,0,1,1,330.6,271h0A10.94,10.94,0,0,1,319.7,281.9Z"/><path class="cls-4" d="M319.7,260.8A10.2,10.2,0,1,0,329.9,271h0a10.18,10.18,0,0,0-10.16-10.2Zm0,19.1a8.9,8.9,0,1,1,8.9-8.9h0A8.92,8.92,0,0,1,319.7,279.9Z"/><path class="cls-4" d="M319.7,262.9a8.2,8.2,0,1,0,8.2,8.2h0a8.17,8.17,0,0,0-8.14-8.2Zm0,15.1a7,7,0,1,1,7-7A7,7,0,0,1,319.7,278Z"/><path id="_矩形_2" data-name=" 矩形 2" class="cls-4" d="M305.9,281.9H319a.58.58,0,0,1,.6.56v0h0a.58.58,0,0,1-.56.6H305.9a.58.58,0,0,1-.6-.56v0h0A.65.65,0,0,1,305.9,281.9Z"/><g class="cls-11"><text class="cls-5" transform="translate(298.18 296.21)">Ho</text><text class="cls-13" transform="translate(309.4 296.21)">t</text><text class="cls-5" transform="translate(312.49 296.21)">-</text><text class="cls-12" transform="translate(315.43 296.21)">r</text><text class="cls-5" transform="translate(318.73 296.21)">olled</text></g><text class="cls-5" transform="translate(311.08 307.71)">Coil</text></g><g class="cls-3"><path class="cls-4" d="M542.6,263a5.1,5.1,0,1,0,5.1,5.18v-.08A5.12,5.12,0,0,0,542.6,263Zm0,9.7a4.6,4.6,0,1,1,4.6-4.6h0a4.6,4.6,0,0,1-4.58,4.6Z"/><path class="cls-4" d="M542.6,273.5a5.4,5.4,0,1,1,5.4-5.4h0a5.38,5.38,0,0,1-5.36,5.4Zm0-10.2a5,5,0,0,0-4.9,4.9,4.9,4.9,0,1,0,9.8.1,5,5,0,0,0-4.9-5Zm0,9.7a4.9,4.9,0,1,1,0-9.8h0a4.92,4.92,0,0,1,4.9,4.9h0A5,5,0,0,1,542.6,273Zm0-9.2a4.3,4.3,0,1,0,4.3,4.3h0a4.27,4.27,0,0,0-4.24-4.3Z"/><path class="cls-4" d="M542.6,264.7a3.4,3.4,0,1,0,3.4,3.4,3.31,3.31,0,0,0-3.22-3.4Zm0,6.4a3,3,0,1,1,3-3h0A3.08,3.08,0,0,1,542.6,271.1Z"/><path class="cls-4" d="M542.6,271.9a3.7,3.7,0,0,1,0-7.4,3.76,3.76,0,0,1,3.7,3.7h0A3.76,3.76,0,0,1,542.6,271.9Zm0-6.4a2.6,2.6,0,1,0,2.6,2.6h0a2.52,2.52,0,0,0-2.44-2.6Z"/><path class="cls-4" d="M520.3,263a5.1,5.1,0,1,0,5.1,5.1h0A5.19,5.19,0,0,0,520.3,263Zm0,9.7a4.6,4.6,0,1,1,4.6-4.6h0a4.6,4.6,0,0,1-4.58,4.6Z"/><path class="cls-4" d="M520.3,273.5a5.4,5.4,0,1,1,5.4-5.4h0a5.38,5.38,0,0,1-5.36,5.4Zm0-10.2a4.9,4.9,0,1,0,4.9,5A5,5,0,0,0,520.3,263.3Zm0,9.7a4.9,4.9,0,1,1,4.9-4.9h0A5,5,0,0,1,520.3,273Zm0-9.2a4.3,4.3,0,1,0,4.3,4.3h0A4.33,4.33,0,0,0,520.3,263.8Z"/><path class="cls-4" d="M520.3,264.7a3.37,3.37,0,1,0,.06,0Zm0,6.4a3,3,0,1,1,3-3h0A3.08,3.08,0,0,1,520.3,271.1Z"/><path class="cls-4" d="M520.3,271.9a3.69,3.69,0,0,1-3.7-3.68v0a3.76,3.76,0,0,1,3.7-3.7,3.69,3.69,0,0,1,3.7,3.68v0h0A3.76,3.76,0,0,1,520.3,271.9Zm0-6.4a2.6,2.6,0,1,0,2.6,2.6h0a2.52,2.52,0,0,0-2.44-2.6Z"/><g id="_编组_4" data-name=" 编组 4"><path class="cls-4" d="M521,272.7h21.1a.22.22,0,0,1,.2.2v.2a.22.22,0,0,1-.2.2H521a.22.22,0,0,1-.2-.2v-.2A.22.22,0,0,1,521,272.7Z"/><path class="cls-4" d="M541.8,273.5H521.3c-.6,0-1-.2-1-.6s.5-.6,1-.6h20.5c.6,0,1,.2,1,.6S542.4,273.5,541.8,273.5Z"/></g><circle class="cls-4" cx="531.6" cy="268.4" r="4"/><circle class="cls-4" cx="531.6" cy="277.5" r="4"/><g class="cls-11"><text class="cls-5" transform="translate(511.54 296.21)">Skin-</text><text class="cls-13" transform="translate(531.13 296.21)">P</text><text class="cls-5" transform="translate(536.06 296.21)">ass-</text></g><text class="cls-5" transform="translate(523.86 307.73)">Mill</text></g><g class="cls-3"><path class="cls-4" d="M317.4,166.3l-2.8,4.3a1.62,1.62,0,0,1-2.2.5h0l-3.8-2.4a1.62,1.62,0,0,1-.5-2.2l4.5-7c.2-.2.1-.4-.1-.6h0l-.4-.2c-.2-.2-.4-.1-.6.1h0l-4.5,7a2.82,2.82,0,0,0,.76,3.91l.14.09,3.9,2.5a2.82,2.82,0,0,0,3.91-.76l.09-.14h0l2.6-4.2a4,4,0,0,1,4.2-1.8l.1-.1-.9-.6a3.38,3.38,0,0,0-2.4-.2A7.17,7.17,0,0,0,317.4,166.3Z"/><path class="cls-4" d="M322.9,168.4h.2a.67.67,0,0,1,.7.66V190.6a.67.67,0,0,1-.66.7h-.24a.67.67,0,0,1-.7-.66V169.1a.67.67,0,0,1,.66-.7Z"/><path class="cls-4" d="M328.8,191.3h-.2a.67.67,0,0,1-.7-.66V169.1a.67.67,0,0,1,.66-.7h.24a.67.67,0,0,1,.7.66V190.6a.67.67,0,0,1-.66.7Z"/><path class="cls-4" d="M317.2,166.3l-2.8,4.3a1.62,1.62,0,0,1-2.2.5l-3.8-2.4a1.62,1.62,0,0,1-.5-2.2l4.5-7c.2-.2.1-.4-.1-.6h0l-.4-.2c-.2-.2-.4-.1-.6.1h0l-4.5,7a2.82,2.82,0,0,0,.76,3.91l.14.09h0l3.9,2.5a2.82,2.82,0,0,0,3.91-.76l.09-.14,2.6-4.2a4.13,4.13,0,0,1,4.2-1.8l.1-.1-.9-.6a3.38,3.38,0,0,0-2.4-.2A5,5,0,0,0,317.2,166.3Z"/><path class="cls-4" d="M322.6,164.2a3.36,3.36,0,0,0-.6-.3,6.92,6.92,0,0,0-2.5-.5h-1.4a22.55,22.55,0,0,0-2.6,0h-3a5.44,5.44,0,0,0-1.8,0l-2.2,3.4a1.36,1.36,0,0,0,.3,1.7h0l3.8,2.4a1.25,1.25,0,0,0,1.7-.3h0l2.8-4.3a4.91,4.91,0,0,1,2.2-1.8,3.2,3.2,0,0,1,2.7.2h.1a3.76,3.76,0,0,1,1.4,1.4h0a9,9,0,0,1,1.3,4.5v20.8h2.3V172.6a9.85,9.85,0,0,0-4-8A2.15,2.15,0,0,0,322.6,164.2Z"/><g class="cls-11"><text class="cls-5" transform="translate(308.2 201.53)">In</text><text class="cls-12" transform="translate(315.91 201.53)">g</text><text class="cls-5" transform="translate(320.37 201.53)">ot</text></g><g class="cls-11"><text class="cls-5" transform="translate(304.12 213.05)">Ca</text><text class="cls-14" transform="translate(313.94 213.05)">s</text><text class="cls-5" transform="translate(317.66 213.05)">ting</text></g></g><g class="cls-3"><path class="cls-4" d="M386.6,166.3l-2.8,4.3a1.62,1.62,0,0,1-2.2.5l-3.8-2.4a1.62,1.62,0,0,1-.5-2.2l4.5-7c.2-.2.1-.4-.1-.6h0l-.4-.2c-.2-.2-.4-.1-.6.1h0l-4.5,7a2.82,2.82,0,0,0,.76,3.91l.14.09,3.9,2.5a2.82,2.82,0,0,0,3.91-.76l.09-.14,2.6-4.2a4.13,4.13,0,0,1,4.2-1.8l.1-.1-.9-.6a3.27,3.27,0,0,0-2.4-.2A5.86,5.86,0,0,0,386.6,166.3Z"/><path class="cls-4" d="M397.7,173.7l-1-.6c-.1-.1-.2-.2-.1-.3l3.7-5.4c.1-.1.2-.2.3-.1l1,.6c.1.1.2.2.1.3l-3.7,5.4C397.9,173.7,397.8,173.8,397.7,173.7Z"/><path class="cls-4" d="M388.4,167.9l1-.6c.1-.1.2-.1.3.1l3.7,5.4c.1.1.1.2-.1.3l-1,.6c-.1.1-.2.1-.3-.1l-3.7-5.4C388.2,168,388.2,167.9,388.4,167.9Z"/><path class="cls-4" d="M391.8,164.2a3.36,3.36,0,0,0-.6-.3,6.92,6.92,0,0,0-2.5-.5h-1.4a22.55,22.55,0,0,0-2.6,0h-3a5.44,5.44,0,0,0-1.8,0l-2.2,3.4a1.25,1.25,0,0,0,.3,1.7h0l3.8,2.4a1.25,1.25,0,0,0,1.7-.3h0l2.8-4.3a4.91,4.91,0,0,1,2.2-1.8,3.2,3.2,0,0,1,2.7.2h.1a3.76,3.76,0,0,1,1.4,1.4h0a9,9,0,0,1,1.3,4.5v20.8h2.3V172.6a10,10,0,0,0-4.1-8Z"/><path class="cls-4" d="M390.4,177.3h2.3a.47.47,0,0,1,.5.44v3.06a.47.47,0,0,1-.44.5H390.4a.47.47,0,0,1-.5-.44V177.8A.54.54,0,0,1,390.4,177.3Z"/><path class="cls-4" d="M399.7,187.4h-2.3a.56.56,0,0,1-.6-.5v-3c0-.3.2-.5.6-.5h2.3a.47.47,0,0,1,.5.44v3.06A.54.54,0,0,1,399.7,187.4Z"/><g class="cls-11"><text class="cls-5" transform="translate(366.84 201.53)">Co</text><text class="cls-14" transform="translate(377.08 201.53)">n</text><text class="cls-5" transform="translate(382.14 201.53)">tinuous</text></g><g class="cls-11"><text class="cls-5" transform="translate(375.08 213.05)">Ca</text><text class="cls-14" transform="translate(384.9 213.05)">s</text><text class="cls-5" transform="translate(388.62 213.05)">ting</text></g></g><g class="cls-3"><circle class="cls-4" cx="460.6" cy="169.9" r="2.8"/><circle class="cls-4" cx="460.6" cy="174.5" r="1.4"/><circle class="cls-4" cx="460.6" cy="183.7" r="2.8"/><circle class="cls-4" cx="460.6" cy="179.1" r="1.4"/><path class="cls-4" d="M446.3,176H475a.79.79,0,0,1,.8.78v0h0a.79.79,0,0,1-.78.8H446.4a.79.79,0,0,1-.8-.78v0h0a.71.71,0,0,1,.61-.79Z"/><g class="cls-11"><text class="cls-13" transform="translate(441.93 201.53)">R</text><text class="cls-5" transform="translate(447.17 201.53)">oughing</text></g><g class="cls-11"><text class="cls-13" transform="translate(446.97 213.05)">R</text><text class="cls-5" transform="translate(452.21 213.05)">olling</text></g></g><g class="cls-3"><path class="cls-4" d="M519.2,182.2a8.16,8.16,0,1,0-1.8-11.4,8.08,8.08,0,0,0,1.67,11.3Zm9.1-12.6a7.31,7.31,0,1,1-10.2,1.7A7.32,7.32,0,0,1,528.3,169.6Z"/><path class="cls-4" d="M524,183.9a8.61,8.61,0,0,1-4.9-1.6h0a8.34,8.34,0,1,1,4.9,1.6Zm-4.7-1.8a8,8,0,1,0-1.8-11.2h0a8,8,0,0,0,1.77,11.18l0,0Zm4.7,1a7.45,7.45,0,1,1,7.5-7.4,7.62,7.62,0,0,1-1.4,4.4,8,8,0,0,1-6.1,3Zm0-14.7a7.2,7.2,0,1,0,7.2,7.2A7.3,7.3,0,0,0,524,168.4Z"/><path class="cls-4" d="M520.6,180.3a5.88,5.88,0,1,0-1.4-8.2h0a5.73,5.73,0,0,0,1.15,8Zm6.4-8.8a5,5,0,1,1-7,1.1h0a5,5,0,0,1,7-1.11Z"/><path class="cls-4" d="M524,181.6a6.08,6.08,0,0,1-3.5-1.1h0a6.09,6.09,0,1,1,7.1-9.9,6.57,6.57,0,0,1,2.5,4,6.09,6.09,0,0,1-5,7Zm-3.4-1.3a5.87,5.87,0,0,0,8.1-1.3,5.79,5.79,0,0,0-1.27-8.08l0,0a5.87,5.87,0,0,0-8.1,1.3h0a5.79,5.79,0,0,0,1.27,8.08Zm3.4.4a5.2,5.2,0,0,1,0-10.4,4.53,4.53,0,0,1,3,1h0a5.16,5.16,0,0,1,1.17,7.2.86.86,0,0,1-.07.1,4.68,4.68,0,0,1-4.1,2.1Zm0-10a4.8,4.8,0,1,0,2.9.9A5.28,5.28,0,0,0,524,170.7Z"/><g id="_编组_2" data-name=" 编组 2"><path class="cls-4" d="M546.6,182.8l-18.1-13c-.2-.1-.2-.2-.1-.4l.2-.2c.1-.2.2-.2.4-.1l18.1,13c.2.1.2.2.1.4l-.2.2C546.8,182.9,546.6,182.9,546.6,182.8Z"/><path class="cls-4" d="M546.7,183.1c-.1,0-.2,0-.2-.1l-18.1-13-.2-.2a.37.37,0,0,1,.1-.3l.2-.2a.46.46,0,0,1,.6-.1l18.1,13,.2.2a.47.47,0,0,1-.1.3l-.2.2A.52.52,0,0,1,546.7,183.1Zm-17.8-13.9h0l-.2.3v.1a.09.09,0,0,0,.1.1l18.1,13h.1a.09.09,0,0,0,.1-.1l.2-.2v-.1a.09.09,0,0,0-.1-.1l-18.3-13Z"/></g><path class="cls-4" d="M540.8,183.9l-7-5a.89.89,0,0,1-.2-1.1l1.3-1.8a.89.89,0,0,1,1.1-.2l7,5a.89.89,0,0,1,.2,1.1l-1.3,1.8A.94.94,0,0,1,540.8,183.9Z"/><path class="cls-4" d="M544,179.4l-7-5a.89.89,0,0,1-.2-1.1l1.3-1.8a.89.89,0,0,1,1.1-.2l7,5a.89.89,0,0,1,.2,1.1l-1.3,1.8A.94.94,0,0,1,544,179.4Z"/><circle class="cls-4" cx="524" cy="175.6" r="3.4"/><g class="cls-11"><text class="cls-5" transform="translate(516.89 201.53)">S</text><text class="cls-12" transform="translate(521.43 201.53)">t</text><text class="cls-5" transform="translate(524.64 201.53)">ec</text><text class="cls-15" transform="translate(533.49 201.53)">k</text><text class="cls-5" transform="translate(537.83 201.53)">el</text></g><text class="cls-5" transform="translate(523.45 213.05)">Mill</text></g><g class="cls-3"><path class="cls-4" d="M400.7,264.7a5.1,5.1,0,1,0,5.1,5.1h0a5.07,5.07,0,0,0-5-5.1Zm0,9.6a4.6,4.6,0,1,1,4.6-4.6h0A4.65,4.65,0,0,1,400.7,274.3Z"/><path class="cls-4" d="M400.7,275.1a5.4,5.4,0,1,1,5.4-5.4h0A5.51,5.51,0,0,1,400.7,275.1Zm0-10.2a5,5,0,0,0-4.9,4.9,4.9,4.9,0,0,0,9.8,0A5,5,0,0,0,400.7,264.9Zm0,9.7a4.9,4.9,0,1,1,4.9-4.9h0A5,5,0,0,1,400.7,274.6Zm0-9.2a4.3,4.3,0,1,0,4.3,4.3h0A4.4,4.4,0,0,0,400.7,265.4Z"/><path class="cls-4" d="M400.7,266.3a3.4,3.4,0,1,0,3.4,3.4h0A3.49,3.49,0,0,0,400.7,266.3Zm0,6.4a3,3,0,1,1,3-3h0A3.08,3.08,0,0,1,400.7,272.7Z"/><path class="cls-4" d="M400.7,273.5a3.7,3.7,0,1,1,3.7-3.7h0A3.76,3.76,0,0,1,400.7,273.5Zm0-6.4a2.6,2.6,0,1,0,2.6,2.6h0A2.66,2.66,0,0,0,400.7,267.1Z"/><path class="cls-4" d="M378.4,264.7a5.06,5.06,0,1,0,.08,0Zm0,9.6a4.6,4.6,0,1,1,4.6-4.6h0A4.72,4.72,0,0,1,378.4,274.3Z"/><path class="cls-4" d="M378.4,275.1a5.4,5.4,0,1,1,5.4-5.4h0A5.51,5.51,0,0,1,378.4,275.1Zm0-10.2a5,5,0,0,0-4.9,4.9,4.9,4.9,0,0,0,9.8,0v0A5,5,0,0,0,378.4,264.9Zm0,9.7a4.9,4.9,0,1,1,4.9-4.9h0A5,5,0,0,1,378.4,274.6Zm0-9.2a4.3,4.3,0,1,0,4.3,4.3h0A4.33,4.33,0,0,0,378.4,265.4Z"/><path class="cls-4" d="M378.4,266.3a3.4,3.4,0,1,0,3.4,3.4h0A3.44,3.44,0,0,0,378.4,266.3Zm0,6.4a3,3,0,1,1,3-3h0A3.16,3.16,0,0,1,378.4,272.7Z"/><path class="cls-4" d="M378.4,273.5a3.7,3.7,0,1,1,3.7-3.7h0A3.84,3.84,0,0,1,378.4,273.5Zm0-6.4a2.6,2.6,0,1,0,2.6,2.6h0A2.66,2.66,0,0,0,378.4,267.1Z"/><g id="_编组_3" data-name=" 编组 3"><path class="cls-4" d="M379.1,274.3h21.1a.22.22,0,0,1,.2.2v.2a.22.22,0,0,1-.2.2H379.1a.22.22,0,0,1-.2-.2v-.2C378.8,274.4,379,274.3,379.1,274.3Z"/><path class="cls-4" d="M399.9,275.1H379.4c-.6,0-1-.2-1-.6s.5-.6,1-.6h20.5c.6,0,1,.2,1,.6S400.4,275.1,399.9,275.1Z"/></g><circle class="cls-4" cx="389.6" cy="271.7" r="2.3"/><circle class="cls-4" cx="389.6" cy="277.5" r="2.3"/><polygon class="cls-4" points="386 272.7 386 268.2 393.2 268.2 393.2 272.7 394.4 272.7 394.4 267 384.8 267 384.8 272.7 386 272.7"/><polygon class="cls-4" points="393.2 276.4 393.2 281.1 386 281.1 386 276.4 384.8 276.4 384.8 282.3 394.4 282.3 394.4 276.4 393.2 276.4"/><text class="cls-5" transform="translate(380.85 296.21)">Cold</text><g class="cls-11"><text class="cls-13" transform="translate(376.05 307.73)">R</text><text class="cls-5" transform="translate(381.29 307.73)">olling</text></g></g><g class="cls-3"><path class="cls-4" d="M257.7,280.7H237.6a3.15,3.15,0,0,1-3.2-3.12V261.1h1.5v16.5a1.58,1.58,0,0,0,1.56,1.6h20a1.58,1.58,0,0,0,1.6-1.56V261.1h1.5v16.5a2.83,2.83,0,0,1-2.55,3.09Z"/><rect class="cls-4" x="234.4" y="264.7" width="26.4" height="1.7"/><path class="cls-4" d="M251.6,270.2a3.9,3.9,0,1,0,3.9,3.9h0a3.84,3.84,0,0,0-3.78-3.9Zm0,7.4a3.5,3.5,0,1,1,3.5-3.5h0A3.54,3.54,0,0,1,251.6,277.6Z"/><path class="cls-4" d="M251.6,278.3a4.14,4.14,0,0,1-4.1-4.18v0a4.15,4.15,0,1,1,8.3,0A4.24,4.24,0,0,1,251.6,278.3Zm0-7.9a3.75,3.75,0,1,0,3.8,3.8,3.71,3.71,0,0,0-3.62-3.8Zm0,7.5a3.75,3.75,0,1,1,3.7-3.8h0a3.66,3.66,0,0,1-3.5,3.8Zm0-7.1a3.49,3.49,0,0,0-3.4,3.3,3.44,3.44,0,0,0,3.4,3.4,3.33,3.33,0,0,0,3.3-3.3h0a3.29,3.29,0,0,0-3.18-3.4Z"/><path class="cls-4" d="M251.6,271.5a2.6,2.6,0,1,0,2.6,2.6A2.66,2.66,0,0,0,251.6,271.5Zm0,4.8a2.16,2.16,0,0,1-2.2-2.12v-.08a2.2,2.2,0,0,1,4.4,0h0a2.1,2.1,0,0,1-2,2.2Z"/><path class="cls-4" d="M251.6,277a2.8,2.8,0,0,1-2.8-2.8,2.88,2.88,0,0,1,2.9-2.8,2.8,2.8,0,0,1,2.8,2.8A2.88,2.88,0,0,1,251.6,277Zm0-5a2.1,2.1,0,1,0,2.1,2.1A2.18,2.18,0,0,0,251.6,272Z"/><g id="_编组_" data-name=" 编组 "><path class="cls-4" d="M243.7,277.6h7.8a.22.22,0,0,1,.2.2h0a.22.22,0,0,1-.2.2h-7.8a.22.22,0,0,1-.2-.2h0C243.4,277.7,243.5,277.6,243.7,277.6Z"/><path class="cls-4" d="M251.4,278.3h-7.8a.4.4,0,0,1,0-.8h7.8a.43.43,0,0,1,.4.4C251.8,278,251.6,278.3,251.4,278.3Z"/></g><text class="cls-5" transform="translate(232.38 296.21)">Pickling</text></g><g class="cls-3"><path class="cls-16" d="M602,192c-1.4-4.3-8.7-6.2-10.1-9.8-.6-2.4-.6-5.1.6-6.9,0,2.4,1.7,5.7,3.2,4,1.4-1.5-3-2.1-2.3-5.6.2-1.6,1.5-2.5,2.1-6.2,1.5,1.5-.9,4.1,2.8,5.6-4.4-5.4,3.4-7.3,2.8-12.4,5.8,5.8.2,9.3,3.3,10.8,1.2.5,2.9-2.6,1.8-5.3,3.4,3,3.1,6.2,1.3,8.7-.7,1,.1,3,1,3.5-.3-1.8,1.3-2.8,1.8-4.6,3.2,3.6,4.4,8-1,11.6C605.8,187.9,603.8,189.6,602,192Z"/><text class="cls-5" transform="translate(582.13 201.53)">Annealing</text></g><g class="cls-3"><path class="cls-4" d="M474,268.9c-15.8,0-16.7-.9-16.7-16.7h0c-.1,15.8-.9,16.7-16.8,16.7h0c15.8,0,16.7.9,16.8,16.8h0C457.3,269.8,458.1,268.9,474,268.9Z"/><path class="cls-16" d="M459.3,264.6a5.69,5.69,0,0,0,3.8,2.8c.3-1.7,1-4-2.1-7.1C461.3,262,460.3,263.4,459.3,264.6Z"/><path class="cls-16" d="M467.4,275.9c-.7-.6-1.4-2.3-.8-3.1a6,6,0,0,0,1.1-3c-8.7.5-9.7,2.6-9.8,13.7,1.7,1.2,3.3,2.4,3.8,4.2a24.74,24.74,0,0,1,6.2-5.7c4.6-3.1,3.7-7,.8-10.2C468.5,273.4,467.1,274.3,467.4,275.9Z"/><path class="cls-16" d="M465.7,267.8c.6.1,1.2.1,1.9.2a6,6,0,0,0-2.1-2.9A4.87,4.87,0,0,1,465.7,267.8Z"/><path class="cls-16" d="M456.1,276.8c-1.3.6-2.5-1.9-2.5-3.8a8.17,8.17,0,0,0-.6,6c.5,1.4,1.8,2.4,3.4,3.4C456.4,280.5,456.2,278.7,456.1,276.8Z"/><path class="cls-16" d="M462.6,268.9a7,7,0,0,1-3.5-1.9,4,4,0,0,1-.8-1c-1,1.4-1.4,3,.3,5.1-3.2-1.3-1.1-3.5-2.5-4.9a12.38,12.38,0,0,1-1.4,4.1c.2.2.4.3.6.5a7.17,7.17,0,0,1,1.9,3.5A6.83,6.83,0,0,1,462.6,268.9Z"/><g class="cls-11"><text class="cls-5" transform="translate(448.61 296.21)">Brig</text><text class="cls-14" transform="translate(464.31 296.21)">h</text><text class="cls-5" transform="translate(469.38 296.21)">t</text></g><text class="cls-5" transform="translate(440.61 307.73)">Annealing</text></g><path class="cls-8" d="M319.6,315.8v7.8a4.59,4.59,0,0,1-4.58,4.6h0"/><g class="cls-17"><path class="cls-4" d="M256.26,376.67l-5.32-8.47a8.58,8.58,0,1,0-1.81,1.12l5.32,8.49a1.07,1.07,0,0,0,.91.49.94.94,0,0,0,.56-.16,1.07,1.07,0,0,0,.34-1.47Zm-12.08-8.85a6.4,6.4,0,1,1,7.64-4.85,6.38,6.38,0,0,1-7.64,4.85Z"/><text class="cls-18" transform="translate(226.9 390.82)">Inspection</text></g></svg>