<svg id="图层_1" data-name="图层 1" xmlns="http://www.w3.org/2000/svg" viewBox="0 0 850.4 566.9"><defs><style>.cls-1{fill:#fff;}.cls-1,.cls-10,.cls-2,.cls-3,.cls-4,.cls-5,.cls-6,.cls-7,.cls-8,.cls-9{opacity:0.6;}.cls-2,.cls-3,.cls-5{fill:none;}.cls-2,.cls-3,.cls-4,.cls-5{stroke:#eee;}.cls-2,.cls-3,.cls-4{stroke-miterlimit:10;}.cls-3,.cls-5{stroke-linecap:round;stroke-width:1.6px;}.cls-11,.cls-12,.cls-13,.cls-14,.cls-4,.cls-6,.cls-7,.cls-8,.cls-9{fill:#eee;}.cls-4{stroke-width:0.89px;}.cls-5{stroke-linejoin:round;}.cls-10,.cls-11,.cls-12,.cls-13,.cls-14,.cls-7,.cls-8{isolation:isolate;}.cls-11,.cls-12,.cls-13,.cls-14,.cls-7,.cls-8{font-size:9.6px;font-family:Calibri-Bold, Calibri;font-weight:700;}.cls-8{letter-spacing:-0.02em;}.cls-9{fill-rule:evenodd;}.cls-12{letter-spacing:-0.01em;}.cls-13{letter-spacing:-0.05em;}.cls-14{letter-spacing:-0.01em;}</style></defs><rect class="cls-1" width="850.4" height="566.9"/><line class="cls-2" x1="850.4" y1="46.7" y2="46.7"/><line class="cls-2" x1="850.4" y1="165.1" y2="165.1"/><line class="cls-2" x1="850.4" y1="283.5" y2="283.5"/><line class="cls-2" x1="850.4" y1="401.9" y2="401.9"/><line class="cls-2" x1="850.4" y1="105.9" y2="105.9"/><line class="cls-2" x1="850.4" y1="224.3" y2="224.3"/><line class="cls-2" x1="850.4" y1="342.7" y2="342.7"/><line class="cls-2" x1="850.4" y1="461" y2="461"/><line class="cls-2" x1="850.4" y1="520.2" y2="520.2"/><line class="cls-2" x1="850.4" y1="135.5" y2="135.5"/><line class="cls-2" x1="850.4" y1="253.9" y2="253.9"/><line class="cls-2" x1="850.4" y1="372.3" y2="372.3"/><line class="cls-2" x1="850.4" y1="76.3" y2="76.3"/><line class="cls-2" x1="850.4" y1="17.1" y2="17.1"/><line class="cls-2" x1="850.4" y1="194.7" y2="194.7"/><line class="cls-2" x1="850.4" y1="313.1" y2="313.1"/><line class="cls-2" x1="850.4" y1="431.4" y2="431.4"/><line class="cls-2" x1="850.4" y1="490.6" y2="490.6"/><line class="cls-2" x1="850.4" y1="549.8" y2="549.8"/><line class="cls-2" x1="10.8" x2="10.8" y2="566.9"/><line class="cls-2" x1="129.2" x2="129.2" y2="566.9"/><line class="cls-2" x1="247.6" x2="247.6" y2="566.9"/><line class="cls-2" x1="366" x2="366" y2="566.9"/><line class="cls-2" x1="484.4" x2="484.4" y2="566.9"/><line class="cls-2" x1="602.8" x2="602.8" y2="566.9"/><line class="cls-2" x1="839.5" x2="839.5" y2="566.9"/><line class="cls-2" x1="721.2" x2="721.2" y2="566.9"/><line class="cls-2" x1="70" x2="70" y2="566.9"/><line class="cls-2" x1="188.4" x2="188.4" y2="566.9"/><line class="cls-2" x1="306.8" x2="306.8" y2="566.9"/><line class="cls-2" x1="425.2" x2="425.2" y2="566.9"/><line class="cls-2" x1="543.6" x2="543.6" y2="566.9"/><line class="cls-2" x1="662" x2="662" y2="566.9"/><line class="cls-2" x1="780.4" x2="780.4" y2="566.9"/><line class="cls-2" x1="810" x2="810" y2="566.9"/><line class="cls-2" x1="99.6" x2="99.6" y2="566.9"/><line class="cls-2" x1="218" x2="218" y2="566.9"/><line class="cls-2" x1="336.4" x2="336.4" y2="566.9"/><line class="cls-2" x1="454.8" x2="454.8" y2="566.9"/><line class="cls-2" x1="573.2" x2="573.2" y2="566.9"/><line class="cls-2" x1="691.6" x2="691.6" y2="566.9"/><line class="cls-2" x1="40.4" x2="40.4" y2="566.9"/><line class="cls-2" x1="158.8" x2="158.8" y2="566.9"/><line class="cls-2" x1="277.2" x2="277.2" y2="566.9"/><line class="cls-2" x1="395.6" x2="395.6" y2="566.9"/><line class="cls-2" x1="514" x2="514" y2="566.9"/><line class="cls-2" x1="632.4" x2="632.4" y2="566.9"/><line class="cls-2" x1="750.8" x2="750.8" y2="566.9"/><line class="cls-3" x1="241.52" y1="276.58" x2="250.47" y2="276.58"/><polygon class="cls-4" points="249.75 278.98 253.91 276.58 249.75 274.18 249.75 278.98"/><line class="cls-3" x1="312.61" y1="276.58" x2="321.57" y2="276.58"/><polygon class="cls-4" points="320.85 278.98 325 276.58 320.85 274.18 320.85 278.98"/><line class="cls-3" x1="383.78" y1="276.58" x2="392.74" y2="276.58"/><polygon class="cls-4" points="392.01 278.98 396.18 276.58 392.01 274.18 392.01 278.98"/><line class="cls-3" x1="454.88" y1="276.58" x2="463.83" y2="276.58"/><polygon class="cls-4" points="463.11 278.98 467.26 276.58 463.11 274.18 463.11 278.98"/><line class="cls-3" x1="526.05" y1="276.58" x2="535" y2="276.58"/><polygon class="cls-4" points="534.28 278.98 538.45 276.58 534.28 274.18 534.28 278.98"/><line class="cls-3" x1="241.52" y1="371.26" x2="250.47" y2="371.26"/><polygon class="cls-4" points="249.75 373.66 253.91 371.26 249.75 368.86 249.75 373.66"/><line class="cls-3" x1="312.61" y1="371.26" x2="321.57" y2="371.26"/><polygon class="cls-4" points="320.85 373.66 325 371.26 320.85 368.86 320.85 373.66"/><line class="cls-3" x1="383.78" y1="371.26" x2="392.74" y2="371.26"/><polygon class="cls-4" points="392.01 373.66 396.18 371.26 392.01 368.86 392.01 373.66"/><path class="cls-5" d="M597.13,277.14H681a4.56,4.56,0,0,1,4.56,4.56v43.9a4.56,4.56,0,0,1-4.56,4.56H169.38a4.56,4.56,0,0,0-4.56,4.56v32a4.56,4.56,0,0,0,4.56,4.56h10.08"/><polygon class="cls-4" points="178.74 373.66 182.9 371.26 178.74 368.86 178.74 373.66"/><line class="cls-3" x1="454.79" y1="371.35" x2="463.75" y2="371.35"/><polygon class="cls-4" points="463.02 373.75 467.19 371.35 463.02 368.95 463.02 373.75"/><line class="cls-3" x1="525.89" y1="371.35" x2="534.84" y2="371.35"/><polygon class="cls-4" points="534.12 373.75 538.27 371.35 534.12 368.95 534.12 373.75"/><line class="cls-3" x1="597.06" y1="371.35" x2="606.01" y2="371.35"/><polygon class="cls-4" points="605.29 373.75 609.46 371.35 605.29 368.95 605.29 373.75"/><path class="cls-6" d="M506.11,378.38l-3.47-23.25a2.54,2.54,0,0,0-2.53-2.18h-7.77a2.5,2.5,0,0,0-2.49,2.15l-3.47,23.26a2.51,2.51,0,0,0,2.08,2.86h15.1a2.52,2.52,0,0,0,2.52-2.52v-.38Zm-14.21-23a.49.49,0,0,1,.48-.42h7.73a.5.5,0,0,1,.49.42l1.73,11.7H490.11Z"/><text class="cls-7" transform="translate(480.09 392.3)">Anal</text><text class="cls-7" transform="translate(498.16 392.3)">y</text><text class="cls-7" transform="translate(502.75 392.3)">tic</text><path class="cls-6" d="M433.84,378.15l-5.32-8.47a8.51,8.51,0,1,0-1.8,1.13l5.32,8.48a1.13,1.13,0,0,0,.9.5,1.05,1.05,0,0,0,1.06-1.06h0A1.08,1.08,0,0,0,433.84,378.15Zm-12.07-8.84a6.4,6.4,0,1,1,7.64-4.86,6.4,6.4,0,0,1-7.64,4.86Z"/><text class="cls-7" transform="translate(404.49 392.3)">Inspection</text><path class="cls-6" d="M433.84,186.42,428.52,178a8.51,8.51,0,1,0-1.8,1.13l5.32,8.48a1.13,1.13,0,0,0,.9.5,1.05,1.05,0,0,0,1.06-1.06V187h0A1.08,1.08,0,0,0,433.84,186.42Zm-12.07-8.84a6.4,6.4,0,1,1,7.64-4.86,6.4,6.4,0,0,1-7.64,4.86Z"/><text class="cls-7" transform="translate(404.49 200.57)">Inspection</text><path class="cls-6" d="M504.85,281.1l-5.32-8.47a8.5,8.5,0,1,0-1.8,1.13l5.32,8.48a1.1,1.1,0,0,0,.9.5,1.05,1.05,0,0,0,1.06-1.06h0A1.08,1.08,0,0,0,504.85,281.1Zm-12.07-8.84a6.4,6.4,0,1,1,7.64-4.86,6.4,6.4,0,0,1-7.64,4.86Z"/><text class="cls-7" transform="translate(475.5 295.25)">Inspection</text><polygon class="cls-6" points="569.39 370.35 566.95 372.54 566.53 371.39 566.53 371.39 565.13 367.51 551.86 373.42 566.56 362.5 567.07 363.9 567.93 366.26 568.59 368.11 575.64 364.76 569.41 370.34 569.41 370.34 569.39 370.35"/><path class="cls-6" d="M561.2,364.39a9.11,9.11,0,0,1,15.53-4.71,12.34,12.34,0,0,0-22,9.5Z"/><path class="cls-6" d="M573.24,374.58a9,9,0,0,1-6.07,0l-.94.85-.56-1.53a9.12,9.12,0,0,1-3.36-3.31l-6.08,2.71a12.34,12.34,0,0,0,23-6.61A9.14,9.14,0,0,1,573.24,374.58Z"/><circle class="cls-6" cx="578.4" cy="362.97" r="1.62"/><text class="cls-7" transform="translate(550.66 392.3)">Marking</text><path class="cls-6" d="M637.49,358.05h-10v12.33h14V358.05Zm-2.25,1.8a.73.73,0,0,1-.73.72.71.71,0,0,1-.71-.71h0a.72.72,0,0,1,.72-.72h0a.71.71,0,0,1,.72.7h0Zm-5,0a.73.73,0,0,1-.73.72.71.71,0,0,1-.71-.71h0a.72.72,0,0,1,.72-.72h0a.71.71,0,0,1,.73.69h0Zm1.31-.72h1v4.22h-1Zm-2.74,9.29a.72.72,0,0,1,1.44,0h0a.72.72,0,0,1-.71.73h0a.72.72,0,0,1-.7-.71Zm2.74.71v-4.06h1v4.07Zm2.24-.71a.72.72,0,0,1,1.44,0h0a.73.73,0,0,1-.73.72h0a.71.71,0,0,1-.71-.71h0Zm5,0a.72.72,0,0,1,1.44,0h0a.72.72,0,0,1-.71.73h0a.72.72,0,0,1-.71-.69h0Zm-1.3.71h-1v-4.06h.94Zm-1-5.78v-4.22h.94v4.22Zm3.67-3.5a.73.73,0,0,1-.73.72.71.71,0,0,1-.71-.71h0a.72.72,0,0,1,.72-.72h0a.71.71,0,0,1,.73.69h0Z"/><circle class="cls-6" cx="627.99" cy="374.69" r="1.87"/><path class="cls-6" d="M628,373.28a1.41,1.41,0,0,0-1.42,1.4h2.83a1.41,1.41,0,0,0-1.41-1.41Z"/><path class="cls-6" d="M622.2,370.88v3.81h3.45a2.33,2.33,0,0,1,4.66-.19.61.61,0,0,1,0,.19h12.5v-3.81Z"/><circle class="cls-6" cx="649.52" cy="374.69" r="1.87"/><path class="cls-6" d="M649.52,373.28a1.42,1.42,0,0,0-1.4,1.41H651a1.43,1.43,0,0,0-1.45-1.41Z"/><path class="cls-6" d="M651,362.63h-7.44v12.06h3.7a2.33,2.33,0,0,1,4.66-.19v.19h3.7v-5.4Z"/><text class="cls-8" transform="translate(618.64 392.3)">P</text><text class="cls-7" transform="translate(623.56 392.3)">acking &amp;</text><text class="cls-7" transform="translate(621.08 403.82)">Shipping</text><line class="cls-3" x1="241.52" y1="181.9" x2="250.47" y2="181.9"/><polygon class="cls-4" points="249.75 184.3 253.91 181.9 249.75 179.5 249.75 184.3"/><line class="cls-3" x1="312.61" y1="181.9" x2="321.57" y2="181.9"/><polygon class="cls-4" points="320.85 184.3 325 181.9 320.85 179.5 320.85 184.3"/><line class="cls-3" x1="383.78" y1="181.9" x2="392.74" y2="181.9"/><polygon class="cls-4" points="392.01 184.3 396.18 181.9 392.01 179.5 392.01 184.3"/><line class="cls-3" x1="454.88" y1="181.9" x2="463.83" y2="181.9"/><polygon class="cls-4" points="463.11 184.3 467.26 181.9 463.11 179.5 463.11 184.3"/><path class="cls-5" d="M525.89,182.46H681a4.56,4.56,0,0,1,4.56,4.56V281.7"/><path class="cls-9" d="M425,285.72c-1.37-4.35-8.75-6.15-10.06-9.88-.62-2.36-.56-5.09.62-6.89,0,2.36,1.68,5.65,3.23,4s-3-2.12-2.36-5.6c.13-1.61,1.49-2.48,2-6.15,1.55,1.56-.87,4.1,2.8,5.59-4.41-5.34,3.4-7.26,2.79-12.42,5.84,5.78.12,9.32,3.29,10.81,1.18.5,2.86-2.67,1.74-5.28,3.48,3,3.11,6.21,1.31,8.76-.69.93.06,2.92.93,3.54-.31-1.86,1.3-2.8,1.74-4.6,3.23,3.6,4.41,8-.93,11.62A28.55,28.55,0,0,0,425,285.72Z"/><g class="cls-10"><text class="cls-11" transform="translate(415.79 295.25)">He</text><text class="cls-12" transform="translate(426.68 295.25)">a</text><text class="cls-11" transform="translate(431.33 295.25)">t</text><text class="cls-13" transform="translate(404.52 306.77)">T</text><text class="cls-12" transform="translate(408.78 306.77)">r</text><text class="cls-11" transform="translate(412.08 306.77)">e</text><text class="cls-12" transform="translate(416.92 306.77)">a</text><text class="cls-11" transform="translate(421.57 306.77)">tme</text><text class="cls-14" transform="translate(437.54 306.77)">n</text><text class="cls-11" transform="translate(442.6 306.77)">t</text></g><polygon class="cls-6" points="502.51 183.52 499.02 187.37 508.36 187.37 508.36 183.52 502.51 183.52"/><polygon class="cls-6" points="501.99 182.38 501.99 165.34 484.11 165.34 484.11 187.37 497.47 187.37 501.99 182.38"/><g class="cls-10"><text class="cls-11" transform="translate(485.25 200.57)">L</text><text class="cls-12" transform="translate(489.31 200.57)">a</text><text class="cls-11" transform="translate(493.96 200.57)">the</text></g><polygon class="cls-6" points="573.53 278.2 570.05 282.05 579.39 282.05 579.39 278.2 573.53 278.2"/><polygon class="cls-6" points="573.01 277.06 573.01 260.02 555.14 260.02 555.14 282.05 568.5 282.05 573.01 277.06"/><g class="cls-10"><text class="cls-11" transform="translate(556.28 295.25)">L</text><text class="cls-12" transform="translate(560.34 295.25)">a</text><text class="cls-11" transform="translate(564.99 295.25)">the</text></g><path id="_矩形_" data-name=" 矩形 " class="cls-6" d="M200.57,181.44h23.22a.49.49,0,0,1,.49.49h0a.49.49,0,0,1-.49.49H200.57a.49.49,0,0,1-.49-.49h0a.49.49,0,0,1,.49-.49Z"/><path id="_矩形_2" data-name=" 矩形 2" class="cls-6" d="M200.63,183.2h23.1a.5.5,0,0,1,.5.5h0a.49.49,0,0,1-.49.49H200.63a.49.49,0,0,1-.49-.49h0a.49.49,0,0,1,.48-.5Z"/><path id="_矩形_3" data-name=" 矩形 3" class="cls-6" d="M200.69,185h23a.49.49,0,0,1,.49.49h0a.49.49,0,0,1-.49.49h-23a.49.49,0,0,1-.5-.48h0a.49.49,0,0,1,.49-.49Z"/><path id="_矩形_4" data-name=" 矩形 4" class="cls-6" d="M200.74,186.74h22.88a.49.49,0,0,1,.49.49h0a.49.49,0,0,1-.49.49H200.74a.49.49,0,0,1-.49-.49h0a.49.49,0,0,1,.49-.49Z"/><g class="cls-10"><text class="cls-11" transform="translate(202.1 200.57)">Pl</text><text class="cls-12" transform="translate(209.57 200.57)">a</text><text class="cls-12" transform="translate(214.22 200.57)">t</text><text class="cls-11" transform="translate(217.43 200.57)">e</text></g><path class="cls-6" d="M224.45,179.64V164.35a.93.93,0,0,0-.93-.93H200.84a.93.93,0,0,0-.93.93v15.29a.93.93,0,0,0,.92.94h22.69a.93.93,0,0,0,.93-.93Z"/><path class="cls-6" d="M345,357.53a13.81,13.81,0,1,0,19.53,0h0a13.79,13.79,0,0,0-19.5,0Zm1.89,1.89a2.37,2.37,0,1,1,0,3.35h0a2.37,2.37,0,0,1,0-3.35Zm3.34,15.76a2.37,2.37,0,1,1,0-3.35h0a2.5,2.5,0,0,1,0,3.35Zm1-4.32a5,5,0,1,1,7.08,0,5,5,0,0,1-7,0Zm11.44,4.32h-.05a1.68,1.68,0,1,1,.05,0Zm0-12.41h-.05a2.37,2.37,0,1,1-3.55-3.14l.21-.21a2.44,2.44,0,0,1,3.34,0,2.37,2.37,0,0,1,.11,3.35h-.06Z"/><g class="cls-10"><text class="cls-11" transform="translate(341.84 392.3)">Flan</text><text class="cls-12" transform="translate(358.49 392.3)">g</text><text class="cls-11" transform="translate(362.94 392.3)">e</text></g><text class="cls-7" transform="translate(197.88 392.3)">Drilling</text><rect class="cls-6" x="194.69" y="366.67" width="12.15" height="4.59"/><rect class="cls-6" x="217.51" y="366.67" width="12.15" height="4.59"/><polygon class="cls-6" points="214.5 374.78 214.5 358.55 209.91 358.55 209.91 374.78 207.59 374.78 212.18 379.37 216.77 374.78 214.5 374.78"/><g class="cls-10"><text class="cls-11" transform="translate(265.15 295.25)">Bands</text><text class="cls-12" transform="translate(289.4 295.25)">a</text><text class="cls-11" transform="translate(294.07 295.25)">w</text><text class="cls-11" transform="translate(268.92 306.77)">Cutting</text></g><polygon class="cls-6" points="266.44 267.29 266.44 272.25 267.36 273.17 268.32 272.25 268.4 272.25 269.36 273.17 270.28 272.25 270.4 272.25 271.32 273.17 272.24 272.25 272.36 272.25 273.32 273.17 274.24 272.25 274.36 272.25 275.28 273.17 276.2 272.25 276.32 272.25 277.24 273.17 278.2 272.25 278.32 272.25 279.24 273.17 280.16 272.25 280.28 272.25 281.2 273.17 282.16 272.25 282.24 272.25 283.2 273.17 284.13 272.25 284.25 272.25 285.17 273.17 286.08 272.25 286.2 272.25 287.17 273.17 288.09 272.25 288.21 272.25 289.13 273.17 290.05 272.25 290.17 272.25 291.09 273.17 292.05 272.25 292.13 272.25 293.09 273.17 294.01 272.25 294.13 272.25 295.05 273.17 295.97 272.25 296.09 272.25 297.05 273.17 297.97 272.25 298.09 272.25 299.01 273.17 299.93 272.25 299.93 267.29 266.44 267.29"/><path class="cls-6" d="M293.85,266.77v-4a3.12,3.12,0,0,0-3.12-3.12H275.68a3.12,3.12,0,0,0-3.12,3.12h0v4Z"/><path class="cls-6" d="M293.09,273.93l-1-1-1,1-1-1-1,1-1-1-1,1-1-1-1,1-1-1-1,1-1-1-1,1-1-1-.84,1-1-1-1,1-1-1-1,1-1-1-1,1-.76-.76v4.6a3.12,3.12,0,0,0,3.12,3.12h15.05a3.12,3.12,0,0,0,3.12-3.12v-4.64Z"/><g class="cls-10"><text class="cls-12" transform="translate(340.12 295.25)">F</text><text class="cls-11" transform="translate(344.41 295.25)">o</text><text class="cls-12" transform="translate(349.57 295.25)">r</text><text class="cls-11" transform="translate(352.87 295.25)">ging</text></g><rect class="cls-6" x="341.56" y="275.61" width="26.5" height="3.47"/><path class="cls-6" d="M337.2,279.65h35.21a.87.87,0,0,1,.88.86v0h0a.87.87,0,0,1-.86.88H337.2a.87.87,0,0,1-.87-.87h0a.87.87,0,0,1,.86-.88Z"/><path class="cls-6" d="M365.56,261.36H361v-1.14a.64.64,0,0,0-.64-.63H349.52a.61.61,0,0,0-.63.6h0v1a.17.17,0,0,0,0,.14H344a1.55,1.55,0,0,0-1.54,1.54h0v3.72a1.56,1.56,0,0,0,1.54,1.55h21.48a1.57,1.57,0,0,0,1.55-1.55v-3.68A1.59,1.59,0,0,0,365.56,261.36Z"/><polygon class="cls-6" points="353.07 270.38 354.82 273.4 356.54 270.38 353.07 270.38"/><g class="cls-10"><text class="cls-11" transform="translate(344.35 200.57)">P</text><text class="cls-12" transform="translate(349.46 200.57)">r</text><text class="cls-11" transform="translate(352.76 200.57)">ess</text></g><rect class="cls-6" x="340.81" y="175.31" width="27.99" height="3.67"/><path class="cls-6" d="M344.7,166.6h20.21a1.58,1.58,0,0,1,1.56,1.56v4.11a1.58,1.58,0,0,1-1.56,1.56H344.7a1.56,1.56,0,0,1-1.55-1.56v-4.15A1.57,1.57,0,0,1,344.7,166.6Z"/><path class="cls-6" d="M344.7,180.51h20.21a1.57,1.57,0,0,1,1.56,1.55v4.12a1.58,1.58,0,0,1-1.56,1.56H344.7a1.57,1.57,0,0,1-1.55-1.56v-4.12A1.57,1.57,0,0,1,344.7,180.51Z"/><text class="cls-7" transform="translate(271.85 200.57)">Shear</text><path class="cls-6" d="M269.91,166.28v20.58h26.55V166.28Zm20.37,7.65a7.81,7.81,0,0,1,.34,1.26l-.42.08a5.48,5.48,0,0,0-.34-1.18Zm-9.7-4.46.13.38a7,7,0,0,0-1.14.55l-.21-.38a11.11,11.11,0,0,1,1.22-.55Zm-3.95,3.32.38.21c-.21.38-.38.76-.55,1.14l-.37-.13a4.59,4.59,0,0,1,.54-1.22Zm-1,3.78a7.07,7.07,0,0,1,.13-1.3l.42.08a6.24,6.24,0,0,0-.13,1.22Zm.47,2.61a6.18,6.18,0,0,1-.34-1.26l.42-.09a6.3,6.3,0,0,0,.34,1.22Zm1.3,2.26a5.91,5.91,0,0,1-.76-1.09l.38-.21a5.84,5.84,0,0,0,.71,1Zm.29-9.45-.33-.25a8,8,0,0,1,.92-.92l.25.33a5.69,5.69,0,0,0-.85.85Zm1.72,11.13a7.52,7.52,0,0,1-1.09-.75l.3-.34c.33.25.67.51,1,.72Zm2.48.89c-.42-.09-.84-.21-1.26-.34l.13-.38a10.52,10.52,0,0,0,1.22.34Zm0-14.45-.08-.42a6.3,6.3,0,0,1,1.3-.13v.42A5.56,5.56,0,0,0,281.89,169.56Zm1.26,14.57v-.42a6.23,6.23,0,0,0,1.22-.12l.09.42A7.17,7.17,0,0,1,283.15,184.13Zm1.18-14.61.08-.42a6.87,6.87,0,0,1,1.26.33l-.12.38c-.38-.08-.8-.21-1.22-.29Zm1.39,14.15-.13-.38a6.16,6.16,0,0,0,1.13-.54l.21.37a11.56,11.56,0,0,1-1.18.55Zm1-13.31.21-.38a6.21,6.21,0,0,1,1.09.75l-.25.34a5.86,5.86,0,0,0-1-.71Zm1.3,12-.25-.34a4.08,4.08,0,0,0,.88-.88l.34.25a9.44,9.44,0,0,1-1,1ZM288.6,172l.34-.29a6.21,6.21,0,0,1,.75,1.09l-.37.21a7,7,0,0,0-.72-1Zm1.09,8.4-.37-.21a10.67,10.67,0,0,0,.54-1.13l.38.12a4.62,4.62,0,0,1-.55,1.22Zm1-3.78a7.1,7.1,0,0,1-.08,1.3l-.42-.08a6.23,6.23,0,0,0,.12-1.22Z"/><path class="cls-6" d="M291.62,367.49h0a9.24,9.24,0,0,0-.8-1.26c-.2-.26-.4-.52-.58-.8L283.18,355l-7.05,10.43c-.18.27-.4.53-.59.8a9.56,9.56,0,1,0,16.08,1.26Z"/><text class="cls-7" transform="translate(266.07 392.3)">Cleaning</text><path class="cls-6" d="M226.4,274.37,206,279.48a.76.76,0,0,1-.92-.56h0a.54.54,0,0,1,0-.18V268.27a.76.76,0,0,1,.68-.75l20.44-2.28a.77.77,0,0,1,.84.68v7.71A.77.77,0,0,1,226.4,274.37Z"/><path class="cls-6" d="M198.25,265.4l5.52,2a.64.64,0,0,1,.42.6v10.4a.64.64,0,0,1-.63.65h0a.68.68,0,0,1-.39-.13l-5.52-4.2a.64.64,0,0,1-.26-.51V266a.64.64,0,0,1,.64-.64h0A.59.59,0,0,1,198.25,265.4Z"/><path class="cls-6" d="M198.7,264.65l5.48,2.12a1.15,1.15,0,0,0,.52.07l20.24-2.24a.33.33,0,0,0,.27-.37A.35.35,0,0,0,225,264l-5.57-1.45h-.36L198.78,264a.31.31,0,0,0-.08.61Z"/><g class="cls-10"><text class="cls-11" transform="translate(201.92 295.25)">Bill</text><text class="cls-12" transform="translate(214.38 295.25)">e</text><text class="cls-11" transform="translate(219.14 295.25)">t</text></g><g class="cls-10"><text class="cls-12" transform="translate(601.53 271.78)">F</text><text class="cls-11" transform="translate(605.82 271.78)">o</text><text class="cls-12" transform="translate(610.98 271.78)">r</text><text class="cls-12" transform="translate(614.28 271.78)">g</text><text class="cls-11" transform="translate(618.73 271.78)">ed Flan</text><text class="cls-12" transform="translate(647.54 271.78)">g</text><text class="cls-11" transform="translate(651.99 271.78)">e</text></g><g class="cls-10"><text class="cls-11" transform="translate(601.53 177.1)">Pl</text><text class="cls-12" transform="translate(609 177.1)">a</text><text class="cls-12" transform="translate(613.65 177.1)">t</text><text class="cls-11" transform="translate(616.86 177.1)">e Flan</text><text class="cls-12" transform="translate(640.52 177.1)">g</text><text class="cls-11" transform="translate(644.96 177.1)">e</text></g></svg>