<svg id="图层_1" data-name="图层 1" xmlns="http://www.w3.org/2000/svg" viewBox="0 0 850.4 566.9"><defs><style>.cls-1{fill:#fff;}.cls-2,.cls-6,.cls-8{fill:none;}.cls-2,.cls-6,.cls-7,.cls-8{stroke:#eee;}.cls-2,.cls-6,.cls-7{stroke-miterlimit:10;}.cls-10,.cls-11,.cls-12,.cls-13,.cls-2,.cls-3,.cls-4,.cls-5,.cls-6,.cls-7,.cls-8,.cls-9{opacity:0.6;}.cls-10,.cls-11,.cls-12,.cls-14,.cls-15,.cls-16,.cls-17,.cls-18,.cls-3,.cls-4,.cls-5,.cls-7,.cls-9{fill:#eee;}.cls-10,.cls-11,.cls-12,.cls-13,.cls-14,.cls-15,.cls-16,.cls-17,.cls-18,.cls-4,.cls-5{isolation:isolate;}.cls-10,.cls-11,.cls-12,.cls-14,.cls-15,.cls-16,.cls-17,.cls-18,.cls-4,.cls-5{font-size:9.6px;font-family:Calibri-Bold, Calibri;font-weight:700;}.cls-16,.cls-19,.cls-5{letter-spacing:-0.02em;}.cls-6,.cls-8{stroke-linecap:round;stroke-width:1.6px;}.cls-7{stroke-width:0.89px;}.cls-8{stroke-linejoin:round;}.cls-9{fill-rule:evenodd;}.cls-10,.cls-17{letter-spacing:-0.01em;}.cls-11{letter-spacing:-0.05em;}.cls-12,.cls-15{letter-spacing:-0.01em;}.cls-18{letter-spacing:-0.04em;}</style></defs><rect class="cls-1" width="850.4" height="566.9"/><line class="cls-2" x1="850.4" y1="46.7" y2="46.7"/><line class="cls-2" x1="850.4" y1="165.1" y2="165.1"/><line class="cls-2" x1="850.4" y1="283.5" y2="283.5"/><line class="cls-2" x1="850.4" y1="401.9" y2="401.9"/><line class="cls-2" x1="850.4" y1="105.9" y2="105.9"/><line class="cls-2" x1="850.4" y1="224.3" y2="224.3"/><line class="cls-2" x1="850.4" y1="342.7" y2="342.7"/><line class="cls-2" x1="850.4" y1="461" y2="461"/><line class="cls-2" x1="850.4" y1="520.2" y2="520.2"/><line class="cls-2" x1="850.4" y1="135.5" y2="135.5"/><line class="cls-2" x1="850.4" y1="253.9" y2="253.9"/><line class="cls-2" x1="850.4" y1="372.3" y2="372.3"/><line class="cls-2" x1="850.4" y1="76.3" y2="76.3"/><line class="cls-2" x1="850.4" y1="17.1" y2="17.1"/><line class="cls-2" x1="850.4" y1="194.7" y2="194.7"/><line class="cls-2" x1="850.4" y1="313.1" y2="313.1"/><line class="cls-2" x1="850.4" y1="431.4" y2="431.4"/><line class="cls-2" x1="850.4" y1="490.6" y2="490.6"/><line class="cls-2" x1="850.4" y1="549.8" y2="549.8"/><line class="cls-2" x1="10.8" x2="10.8" y2="566.9"/><line class="cls-2" x1="129.2" x2="129.2" y2="566.9"/><line class="cls-2" x1="247.6" x2="247.6" y2="566.9"/><line class="cls-2" x1="366" x2="366" y2="566.9"/><line class="cls-2" x1="484.4" x2="484.4" y2="566.9"/><line class="cls-2" x1="602.8" x2="602.8" y2="566.9"/><line class="cls-2" x1="839.5" x2="839.5" y2="566.9"/><line class="cls-2" x1="721.2" x2="721.2" y2="566.9"/><line class="cls-2" x1="70" x2="70" y2="566.9"/><line class="cls-2" x1="188.4" x2="188.4" y2="566.9"/><line class="cls-2" x1="306.8" x2="306.8" y2="566.9"/><line class="cls-2" x1="425.2" x2="425.2" y2="566.9"/><line class="cls-2" x1="543.6" x2="543.6" y2="566.9"/><line class="cls-2" x1="662" x2="662" y2="566.9"/><line class="cls-2" x1="780.4" x2="780.4" y2="566.9"/><line class="cls-2" x1="810" x2="810" y2="566.9"/><line class="cls-2" x1="99.6" x2="99.6" y2="566.9"/><line class="cls-2" x1="218" x2="218" y2="566.9"/><line class="cls-2" x1="336.4" x2="336.4" y2="566.9"/><line class="cls-2" x1="454.8" x2="454.8" y2="566.9"/><line class="cls-2" x1="573.2" x2="573.2" y2="566.9"/><line class="cls-2" x1="691.6" x2="691.6" y2="566.9"/><line class="cls-2" x1="40.4" x2="40.4" y2="566.9"/><line class="cls-2" x1="158.8" x2="158.8" y2="566.9"/><line class="cls-2" x1="277.2" x2="277.2" y2="566.9"/><line class="cls-2" x1="395.6" x2="395.6" y2="566.9"/><line class="cls-2" x1="514" x2="514" y2="566.9"/><line class="cls-2" x1="632.4" x2="632.4" y2="566.9"/><line class="cls-2" x1="750.8" x2="750.8" y2="566.9"/><path class="cls-3" d="M470.52,377.12l-3.4-23.3a2.66,2.66,0,0,0-2.5-2.2h-7.8a2.5,2.5,0,0,0-2.5,2.2l-3.4,23.3A2.57,2.57,0,0,0,453,380h15.1a2.63,2.63,0,0,0,2.6-2.5c-.2-.1-.2-.2-.2-.4Zm-14.3-22.9a.46.46,0,0,1,.5-.4h7.8c.2,0,.5.2.5.4l1.8,11.7h-12.3Z"/><text class="cls-4" transform="translate(444.54 391.08)">Anal</text><text class="cls-4" transform="translate(462.6 391.08)">y</text><text class="cls-4" transform="translate(467.19 391.08)">tic</text><path class="cls-3" d="M602,356.82h-9.9v12.3h14v-12.3Zm-2.3,1.8a.7.7,0,1,1-.7-.7A.74.74,0,0,1,599.7,358.62Zm-4.9,0a.7.7,0,1,1-.7-.7h0a.85.85,0,0,1,.74.7Zm1.2-.7h1v4.2h-1Zm-2.7,9.3a.7.7,0,1,1,.7.7h0a.67.67,0,0,1-.66-.68h0Zm2.7.7v-4.1h1v4.1Zm2.3-.7a.7.7,0,1,1,.7.7.67.67,0,0,1-.7-.64h0Zm4.9,0a.7.7,0,1,1,.7.7h0A.74.74,0,0,1,603.2,367.22Zm-1.2.7h-1v-4.1h1Zm-1-5.8v-4.2h1v4.2Zm3.7-3.5a.7.7,0,1,1-.7-.7h0a.67.67,0,0,1,.7.64h0Z"/><circle class="cls-3" cx="592.44" cy="373.52" r="1.8"/><path class="cls-3" d="M592.44,372a1.37,1.37,0,0,0-1.4,1.34h0v.06h2.8a1.36,1.36,0,0,0-1.32-1.4h-.08Z"/><path class="cls-3" d="M586.74,369.62v3.8h3.4a2.3,2.3,0,0,1,4.6-.2v.2h12.5v-3.8Z"/><circle class="cls-3" cx="614.04" cy="373.52" r="1.8"/><path class="cls-3" d="M614,372a1.37,1.37,0,0,0-1.4,1.34h0v.06h2.8A1.43,1.43,0,0,0,614,372Z"/><path class="cls-3" d="M615.54,361.42h-7.4v12.1h3.7a2.3,2.3,0,1,1,4.6-.2v.2h3.7v-5.4Z"/><text class="cls-5" transform="translate(583.07 391.08)">P</text><text class="cls-4" transform="translate(587.99 391.08)">acking &amp;</text><text class="cls-4" transform="translate(585.63 402.6)">Shipping</text><polygon class="cls-3" points="533.63 369.12 531.13 371.32 530.74 370.22 530.74 370.22 529.34 366.32 516.03 372.22 530.74 361.32 531.34 362.72 532.13 365.12 532.84 366.92 539.84 363.52 533.63 369.12"/><path class="cls-3" d="M525.44,363.12a9.29,9.29,0,0,1,5.9-7,9.11,9.11,0,0,1,9.6,2.2,12.46,12.46,0,0,0-14-4.2,12.29,12.29,0,0,0-8,13.6Z"/><path class="cls-3" d="M537.44,373.42a9.12,9.12,0,0,1-6.1,0l-1,.9-.6-1.5a9.05,9.05,0,0,1-3.4-3.3l-6.1,2.7a12.25,12.25,0,0,0,14.9,5.4,12.39,12.39,0,0,0,8.2-12.1A8.91,8.91,0,0,1,537.44,373.42Z"/><circle class="cls-3" cx="542.64" cy="361.72" r="1.6"/><text class="cls-4" transform="translate(514.88 391.08)">Marking</text><line class="cls-6" x1="277.06" y1="180.72" x2="286.06" y2="180.72"/><polygon class="cls-7" points="285.26 183.12 289.46 180.72 285.26 178.32 285.26 183.12"/><line class="cls-6" x1="348.26" y1="180.72" x2="357.16" y2="180.72"/><polygon class="cls-7" points="356.46 183.12 360.66 180.72 356.46 178.32 356.46 183.12"/><line class="cls-6" x1="419.36" y1="180.72" x2="428.26" y2="180.72"/><polygon class="cls-7" points="427.56 183.12 431.76 180.72 427.56 178.32 427.56 183.12"/><line class="cls-6" x1="490.46" y1="180.72" x2="499.46" y2="180.72"/><polygon class="cls-7" points="498.76 183.12 502.86 180.72 498.76 178.32 498.76 183.12"/><line class="cls-6" x1="561.56" y1="180.72" x2="570.56" y2="180.72"/><polygon class="cls-7" points="569.86 183.12 573.96 180.72 569.86 178.32 569.86 183.12"/><line class="cls-6" x1="277.06" y1="275.42" x2="286.06" y2="275.42"/><polygon class="cls-7" points="285.26 277.82 289.46 275.42 285.26 273.02 285.26 277.82"/><line class="cls-6" x1="348.26" y1="275.42" x2="357.16" y2="275.42"/><polygon class="cls-7" points="356.46 277.82 360.66 275.42 356.46 273.02 356.46 277.82"/><line class="cls-6" x1="419.36" y1="275.42" x2="428.26" y2="275.42"/><polygon class="cls-7" points="427.56 277.82 431.76 275.42 427.56 273.02 427.56 277.82"/><line class="cls-6" x1="490.46" y1="275.42" x2="499.46" y2="275.42"/><polygon class="cls-7" points="498.76 277.82 502.86 275.42 498.76 273.02 498.76 277.82"/><line class="cls-6" x1="277.06" y1="370.12" x2="286.06" y2="370.12"/><polygon class="cls-7" points="285.26 372.52 289.46 370.12 285.26 367.72 285.26 372.52"/><line class="cls-6" x1="348.26" y1="370.12" x2="357.16" y2="370.12"/><polygon class="cls-7" points="356.46 372.52 360.66 370.12 356.46 367.72 356.46 372.52"/><line class="cls-6" x1="419.36" y1="370.12" x2="428.26" y2="370.12"/><polygon class="cls-7" points="427.56 372.52 431.76 370.12 427.56 367.72 427.56 372.52"/><line class="cls-6" x1="490.46" y1="370.12" x2="499.46" y2="370.12"/><polygon class="cls-7" points="498.76 372.52 502.86 370.12 498.76 367.72 498.76 372.52"/><line class="cls-6" x1="561.56" y1="370.12" x2="570.56" y2="370.12"/><polygon class="cls-7" points="569.86 372.52 573.96 370.12 569.86 367.72 569.86 372.52"/><path class="cls-8" d="M632,181.32h13.5a4.6,4.6,0,0,1,4.6,4.58v43.92a4.6,4.6,0,0,1-4.58,4.6H204.94a4.59,4.59,0,0,0-4.6,4.58h0v32a4.59,4.59,0,0,0,4.58,4.6H215"/><polygon class="cls-7" points="214.24 278.02 218.44 275.62 214.24 273.22 214.24 278.02"/><line class="cls-6" x1="561.56" y1="275.42" x2="570.56" y2="275.42"/><polygon class="cls-7" points="569.86 277.82 573.96 275.42 569.86 273.02 569.86 277.82"/><path class="cls-9" d="M460.5,192.26c-1.37-4.35-8.76-6.15-10.06-9.88-.63-2.36-.56-5.09.62-6.89,0,2.36,1.67,5.65,3.23,4s-3-2.12-2.36-5.59c.12-1.62,1.49-2.49,2-6.16,1.56,1.56-.86,4.1,2.8,5.6-4.41-5.35,3.41-7.27,2.8-12.43,5.84,5.78.12,9.32,3.29,10.81,1.18.5,2.86-2.67,1.74-5.28,3.48,3,3.1,6.21,1.3,8.76-.68.93.07,2.92.93,3.54-.31-1.86,1.31-2.8,1.74-4.6,3.23,3.61,4.41,8-.93,11.62A28.55,28.55,0,0,0,460.5,192.26Z"/><text class="cls-4" transform="translate(445.25 201.79)">He</text><text class="cls-10" transform="translate(456.14 201.79)">a</text><text class="cls-4" transform="translate(460.79 201.79)">ting</text><path class="cls-9" d="M247.45,286.94c-1.37-4.34-8.75-6.15-10.06-9.87-.62-2.36-.56-5.1.62-6.9,0,2.36,1.68,5.66,3.23,4s-3-2.11-2.36-5.59c.13-1.62,1.49-2.49,2.05-6.15,1.55,1.55-.87,4.1,2.8,5.59-4.41-5.34,3.4-7.27,2.79-12.42,5.84,5.77.12,9.32,3.29,10.81,1.18.49,2.86-2.67,1.74-5.28,3.48,3,3.11,6.21,1.31,8.75-.68.94.06,2.92.93,3.55-.31-1.87,1.3-2.8,1.74-4.6,3.23,3.6,4.41,8-.93,11.61A28.22,28.22,0,0,0,247.45,286.94Z"/><text class="cls-4" transform="translate(232.21 296.47)">He</text><text class="cls-10" transform="translate(243.1 296.47)">a</text><text class="cls-4" transform="translate(247.75 296.47)">ting</text><path class="cls-9" d="M602.52,286.94c-1.37-4.34-8.76-6.15-10.06-9.87-.62-2.36-.56-5.1.62-6.9,0,2.36,1.68,5.66,3.23,4s-3-2.11-2.36-5.59c.13-1.62,1.49-2.49,2-6.15,1.55,1.55-.87,4.1,2.8,5.59-4.41-5.34,3.4-7.27,2.79-12.42,5.84,5.77.12,9.32,3.29,10.81,1.18.49,2.86-2.67,1.74-5.28,3.48,3,3.11,6.21,1.31,8.75-.69.94.06,2.92.93,3.55-.31-1.87,1.3-2.8,1.74-4.6,3.23,3.6,4.41,8-.93,11.61A28.55,28.55,0,0,0,602.52,286.94Z"/><text class="cls-4" transform="translate(591.47 296.47)">Aging</text><text class="cls-11" transform="translate(582.01 307.99)">T</text><text class="cls-10" transform="translate(586.27 307.99)">r</text><text class="cls-4" transform="translate(589.57 307.99)">e</text><text class="cls-10" transform="translate(594.4 307.99)">a</text><text class="cls-4" transform="translate(599.05 307.99)">tme</text><text class="cls-12" transform="translate(615.02 307.99)">n</text><text class="cls-4" transform="translate(620.09 307.99)">t</text><polygon class="cls-3" points="463.03 268.81 460.61 266.74 445.92 266.74 445.92 276.42 460.61 276.42 463.03 274.35 475.41 274.35 475.41 268.81 463.03 268.81"/><circle class="cls-3" cx="464.96" cy="264.38" r="3.8"/><circle class="cls-3" cx="464.96" cy="278.78" r="3.8"/><text class="cls-4" transform="translate(451.81 296.47)">Cold</text><text class="cls-4" transform="translate(444.12 307.99)">D</text><text class="cls-5" transform="translate(450.17 307.99)">r</text><text class="cls-10" transform="translate(453.37 307.99)">a</text><text class="cls-4" transform="translate(458.04 307.99)">wing</text><path class="cls-3" d="M235,368.05a5.3,5.3,0,0,1-2.56-.66,4.43,4.43,0,0,0-2.23-.53,1.4,1.4,0,0,1,0-2.8h0a7.2,7.2,0,0,1,3.44.81,2.8,2.8,0,0,0,1.35.38,3.11,3.11,0,0,0,1.43-.38,8.3,8.3,0,0,1,3.28-.81,9.13,9.13,0,0,1,2.38.29,11.47,11.47,0,0,0,2.47.33H259.2a1.4,1.4,0,0,1,0,2.8H244.53a14.33,14.33,0,0,1-3.06-.39,7.06,7.06,0,0,0-1.65-.23,5.34,5.34,0,0,0-2.28.57A5.77,5.77,0,0,1,235,368.05Z"/><rect class="cls-3" x="244.85" y="352.92" width="10.86" height="10.86" rx="1.78"/><rect class="cls-3" x="244.85" y="368.38" width="10.86" height="10.86" rx="1.78"/><text class="cls-4" transform="translate(221.12 391.08)">St</text><text class="cls-5" transform="translate(228.99 391.08)">r</text><text class="cls-4" transform="translate(232.19 391.08)">aig</text><text class="cls-12" transform="translate(243.84 391.08)">h</text><text class="cls-10" transform="translate(248.9 391.08)">t</text><text class="cls-4" transform="translate(252.11 391.08)">ening</text><path class="cls-3" d="M335.34,365.91c-15.84,0-16.72-.92-16.76-16.76h0c0,15.84-.92,16.72-16.76,16.76h0c15.84,0,16.72.92,16.76,16.76h0C318.62,366.83,319.5,366,335.34,365.91Z"/><text class="cls-5" transform="translate(300.64 391.08)">P</text><text class="cls-4" transform="translate(305.59 391.08)">olishing</text><path class="cls-3" d="M258.73,169.18a3.07,3.07,0,0,0-3.06,3v12.88a1.34,1.34,0,0,1-1.34,1.34h-13.4a1.34,1.34,0,0,1-1.34-1.34V172.23a3,3,0,0,0-3-3h-5.37v1.71h5.31a1.34,1.34,0,0,1,1.34,1.34v12.88a3.06,3.06,0,0,0,3.06,3.06h13.4a3.06,3.06,0,0,0,3.06-3.06V172.23a1.34,1.34,0,0,1,1.34-1.34h5.32v-1.71Z"/><path class="cls-3" d="M240.45,185.11a.47.47,0,0,0,.46.48h13.42a.47.47,0,0,0,.49-.45h0V174.69c-1.46-.12-3.67-.29-4.67-.3-1.56,0-4.78.82-6,.15-.71-.4-2.4-.33-3.7-.21Z"/><path class="cls-3" d="M243.5,172.57a.54.54,0,0,1-.18,0,.6.6,0,0,1-.41-.74h0a5.13,5.13,0,0,0,0-2.58,7,7,0,0,1,0-3.47.6.6,0,0,1,1.15.32h0a6.15,6.15,0,0,0,0,2.83,6.05,6.05,0,0,1,0,3.27A.6.6,0,0,1,243.5,172.57Z"/><path class="cls-3" d="M247.63,172.57a.54.54,0,0,1-.18,0,.6.6,0,0,1-.41-.74h0a5.13,5.13,0,0,0,0-2.58,7,7,0,0,1,0-3.47.6.6,0,0,1,1.15.32,6.15,6.15,0,0,0,0,2.83,6.05,6.05,0,0,1,0,3.27A.6.6,0,0,1,247.63,172.57Z"/><path class="cls-3" d="M251.8,172.57a.61.61,0,0,1-.19,0,.61.61,0,0,1-.4-.75h0a4.91,4.91,0,0,0,0-2.58,7.58,7.58,0,0,1,0-3.48.6.6,0,1,1,1.16.32h0a6.19,6.19,0,0,0,0,2.84,6,6,0,0,1,0,3.26A.61.61,0,0,1,251.8,172.57Z"/><text class="cls-4" transform="translate(237.75 201.79)">S</text><text class="cls-10" transform="translate(242.29 201.79)">t</text><text class="cls-4" transform="translate(245.5 201.79)">eel</text><text class="cls-4" transform="translate(232.74 213.31)">Making</text><path class="cls-3" d="M314.48,169.32,312,173.17a1.44,1.44,0,0,1-2,.46h0l-3.33-2.13a1.42,1.42,0,0,1-.49-2l0,0h0l4-6.19a.37.37,0,0,0-.11-.51h0l-.34-.22a.37.37,0,0,0-.51.11l-4,6.26a2.57,2.57,0,0,0,.8,3.53l3.45,2.2a2.55,2.55,0,0,0,3.52-.79h0l2.34-3.67a3.6,3.6,0,0,1,3.7-1.6l.05-.08-.77-.49a2.81,2.81,0,0,0-2.15-.12A3.35,3.35,0,0,0,314.48,169.32Z"/><path class="cls-3" d="M319.1,167.4a2.94,2.94,0,0,0-.46-.25,5.48,5.48,0,0,0-2.22-.45h-6.29a9.09,9.09,0,0,0-1.65,0l-1.92,3a1.08,1.08,0,0,0,.33,1.48l3.33,2.13a1.08,1.08,0,0,0,1.48-.33l2.45-3.85a3.79,3.79,0,0,1,1.9-1.54,3.13,3.13,0,0,1,2.44.13h0a4,4,0,0,1,1.2,1.2c2,3.15,3.6,10.15,3.6,10.15h4C324.28,170.57,319.1,167.4,319.1,167.4Z"/><path class="cls-3" d="M329.36,190.09h-8.8a3,3,0,0,1-2.95-3V171.31a.71.71,0,0,1,1.42,0h0v15.83a1.53,1.53,0,0,0,1.53,1.53h8.8a1.55,1.55,0,0,0,1.53-1.53V171.31a.71.71,0,0,1,.63-.76h0a.71.71,0,0,1,.77.64h0v15.94A3,3,0,0,1,329.36,190.09Z"/><path class="cls-3" d="M319.55,178.86h10.83v8a1.27,1.27,0,0,1-1.26,1.27h-8.31a1.25,1.25,0,0,1-1.26-1.24h0Z"/><text class="cls-4" transform="translate(308.25 201.79)">In</text><text class="cls-10" transform="translate(315.96 201.79)">g</text><text class="cls-4" transform="translate(320.42 201.79)">ot</text><text class="cls-4" transform="translate(304.15 213.31)">Ca</text><text class="cls-12" transform="translate(313.97 213.31)">s</text><text class="cls-4" transform="translate(317.69 213.31)">ting</text><path class="cls-3" d="M397.81,169.1H381.33c-2.82,0-5,4-5,9.2s2.22,9.2,5,9.2h16.48c2.83,0,5-4.05,5-9.2S400.64,169.1,397.81,169.1Zm0,17.22H383.87l.2-.22.06-.06.23-.31.05-.08.18-.26.07-.11.17-.28v-.08a3,3,0,0,0,.2-.4l.05-.1a3.09,3.09,0,0,0,.14-.32.14.14,0,0,1,.06-.12c.06,0,.1-.24.14-.36v-.08c.06-.14.11-.3.16-.45V183a1.65,1.65,0,0,1,.11-.36v-.14a2.18,2.18,0,0,1,.11-.44V182a3.1,3.1,0,0,1,.11-.51v-.14a2.79,2.79,0,0,1,.07-.4v-.15a4.46,4.46,0,0,1,.07-.51h0a5.11,5.11,0,0,1,.05-.55V177a5.29,5.29,0,0,0-.05-.56h0a2.74,2.74,0,0,0-.07-.5v-.16a2.79,2.79,0,0,0-.07-.4v-.14a2.33,2.33,0,0,0-.11-.51v-.06a1.6,1.6,0,0,0-.11-.43.33.33,0,0,0,0-.14,1.5,1.5,0,0,0-.11-.36v-.13c-.05-.15-.1-.3-.16-.45v-.07l-.14-.36-.06-.13c0-.11-.09-.21-.14-.32l-.05-.1-.2-.4v-.07c-.06-.1-.11-.2-.17-.29l-.07-.11-.18-.26-.05-.07-.23-.31-.06-.07-.2-.22h13.91c2.09,0,3.85,3.66,3.85,8s-1.78,8-3.86,8Z"/><path class="cls-3" d="M399.5,173.2l-.31-.6a1.53,1.53,0,0,0-1.38-1h-10.6a.84.84,0,0,0-.74.93h0a.74.74,0,0,0,0,.21l.31,1a1.11,1.11,0,0,0,1,.83l11-.06a.85.85,0,0,0,.86-.82h0A.87.87,0,0,0,399.5,173.2Z"/><text class="cls-4" transform="translate(379.24 201.79)">In</text><text class="cls-10" transform="translate(386.95 201.79)">g</text><text class="cls-4" transform="translate(391.41 201.79)">ot</text><path class="cls-3" d="M400.54,276.3l-1.47,1.48V263.19a1,1,0,0,0-2,0v14.59l-1.47-1.48a.54.54,0,0,0-.76,0,.5.5,0,0,0-.16.4v1a1.29,1.29,0,0,0,.4,1l2.71,2.71a.4.4,0,0,0,.56,0h0l2.7-2.71a1.4,1.4,0,0,0,.4-1v-1a.54.54,0,0,0-.54-.54h0A.55.55,0,0,0,400.54,276.3Z"/><path class="cls-3" d="M392.06,276.3l-1.47,1.48V263.19a1,1,0,0,0-2,0v14.59l-1.48-1.48a.55.55,0,0,0-.77,0,.49.49,0,0,0-.15.4v1a1.29,1.29,0,0,0,.4,1l2.7,2.71a.42.42,0,0,0,.57,0h0l2.7-2.71a1.4,1.4,0,0,0,.4-1v-1a.54.54,0,0,0-.55-.53h0A.63.63,0,0,0,392.06,276.3Z"/><path class="cls-3" d="M383.58,276.3l-1.47,1.48V263.19a1,1,0,1,0-2,0v14.59l-1.47-1.48a.55.55,0,0,0-.77,0,.49.49,0,0,0-.15.4v1a1.29,1.29,0,0,0,.4,1l2.7,2.71a.42.42,0,0,0,.57,0h0l2.7-2.71a1.4,1.4,0,0,0,.4-1v-1a.54.54,0,0,0-.54-.54h0A.55.55,0,0,0,383.58,276.3Z"/><text class="cls-4" transform="translate(374.67 296.47)">Cooling</text><path class="cls-8" d="M632,275.42h13.5a4.6,4.6,0,0,1,4.6,4.58v43.92a4.6,4.6,0,0,1-4.58,4.6H204.94a4.59,4.59,0,0,0-4.6,4.58h0v32a4.59,4.59,0,0,0,4.58,4.6H215"/><polygon class="cls-7" points="214.24 372.12 218.44 369.72 214.24 367.32 214.24 372.12"/><line class="cls-6" x1="561.56" y1="275.42" x2="570.56" y2="275.42"/><path class="cls-3" d="M398.2,376.93l-5.32-8.47a8.57,8.57,0,1,0-1.81,1.12l5.32,8.49a1.07,1.07,0,0,0,.91.49,1,1,0,0,0,.56-.16,1.07,1.07,0,0,0,.34-1.47Zm-12.08-8.85a6.4,6.4,0,1,1,7.64-4.85h0a6.4,6.4,0,0,1-7.64,4.85Z"/><text class="cls-4" transform="translate(368.84 391.08)">Inspection</text><path class="cls-3" d="M519.5,177.42h24.66a.85.85,0,0,1,.84.84h0a.85.85,0,0,1-.84.84H519.5a.85.85,0,0,1-.84-.84h0A.85.85,0,0,1,519.5,177.42Z"/><path class="cls-9" d="M538.09,171.88a2.77,2.77,0,1,0,2.77,2.77h0a2.77,2.77,0,0,0-2.77-2.77Zm0,3.94a1.17,1.17,0,1,1,1.16-1.18h0A1.18,1.18,0,0,1,538.09,175.82Z"/><path class="cls-9" d="M538.09,179.11a2.77,2.77,0,1,0,2.77,2.77h0a2.77,2.77,0,0,0-2.77-2.77Zm0,3.93a1.17,1.17,0,1,1,1.16-1.18h0a1.16,1.16,0,0,1-1.16,1.13Z"/><path class="cls-3" d="M543.29,168.8h-10.4a.64.64,0,0,0-.64.64h0V187a.64.64,0,0,0,.64.64h10.4a.64.64,0,0,0,.65-.63h0V169.4A.64.64,0,0,0,543.29,168.8Zm-1.45,16.8h-7.51V170.88h7.51Z"/><path class="cls-9" d="M525.56,171.88a2.77,2.77,0,1,0,2.77,2.78h0a2.77,2.77,0,0,0-2.76-2.78Zm0,3.94a1.17,1.17,0,1,1,1.16-1.18h0A1.18,1.18,0,0,1,525.56,175.82Z"/><path class="cls-9" d="M525.56,179.11a2.77,2.77,0,1,0,2.77,2.77h0a2.77,2.77,0,0,0-2.77-2.77Zm0,3.93a1.17,1.17,0,1,1,1.16-1.18h0a1.16,1.16,0,0,1-1.16,1.13Z"/><path class="cls-3" d="M530.76,168.8h-10.4a.64.64,0,0,0-.64.64h0V187a.64.64,0,0,0,.62.66h10.42a.65.65,0,0,0,.65-.64v-17.6a.63.63,0,0,0-.6-.66h0Zm-1.44,16.8H521.8V170.88h7.51Z"/><g class="cls-13"><text class="cls-14" transform="translate(508.8 201.79)">Co</text><text class="cls-15" transform="translate(519.04 201.79)">n</text><text class="cls-14" transform="translate(524.1 201.79)">tinuous</text><text class="cls-14" transform="translate(509.54 213.31)">Hot </text><text class="cls-16" transform="translate(526.26 213.31)">R</text><text class="cls-14" transform="translate(531.49 213.31)">olling</text></g><path class="cls-3" d="M616.94,180.91,596.5,186a.75.75,0,0,1-.92-.55.61.61,0,0,1,0-.19V174.82a.77.77,0,0,1,.67-.76l20.44-2.27a.76.76,0,0,1,.84.67v7.72A.75.75,0,0,1,616.94,180.91Z"/><path class="cls-3" d="M588.78,171.94l5.53,2a.64.64,0,0,1,.42.6V185a.65.65,0,0,1-.65.65h0a.68.68,0,0,1-.39-.13l-5.52-4.19a.64.64,0,0,1-.26-.51v-8.26a.65.65,0,0,1,.65-.64A.55.55,0,0,1,588.78,171.94Z"/><path class="cls-3" d="M589.23,171.2l5.48,2.11a1,1,0,0,0,.52.07l20.24-2.24a.33.33,0,0,0,.27-.36.31.31,0,0,0-.23-.26L610,169.07a1.15,1.15,0,0,0-.37,0l-20.26,1.54a.34.34,0,0,0-.3.34A.33.33,0,0,0,589.23,171.2Z"/><g class="cls-13"><text class="cls-14" transform="translate(588.87 201.79)">Squa</text><text class="cls-17" transform="translate(608.45 201.79)">r</text><text class="cls-14" transform="translate(611.75 201.79)">e</text><text class="cls-14" transform="translate(592.45 213.31)">Bill</text><text class="cls-17" transform="translate(604.91 213.31)">e</text><text class="cls-14" transform="translate(609.67 213.31)">t</text></g><path class="cls-3" d="M326.86,283.24H310.28a.74.74,0,0,1-.74-.74V262.05a.74.74,0,0,1,.74-.74h16.58a.75.75,0,0,1,.75.74V282.5A.75.75,0,0,1,326.86,283.24ZM312,280.82h13.2V263.73H312Z"/><path class="cls-3" d="M304.27,271.32h28.61a1,1,0,0,1,1,1h0a1,1,0,0,1-1,1H304.27a1,1,0,0,1-1-1h0A1,1,0,0,1,304.27,271.32Z"/><path class="cls-9" d="M318.57,264.89a3.2,3.2,0,1,0,3.2,3.2,3.2,3.2,0,0,0-3.2-3.2Zm0,4.56a1.35,1.35,0,1,1,1.35-1.35h0a1.34,1.34,0,0,1-1.33,1.35Z"/><path class="cls-9" d="M318.57,273.27a3.2,3.2,0,1,0,3.2,3.2,3.2,3.2,0,0,0-3.2-3.2Zm0,4.57a1.36,1.36,0,1,1,1.35-1.37h0a1.36,1.36,0,0,1-1.34,1.35Z"/><g class="cls-13"><text class="cls-14" transform="translate(310.77 296.47)">Hot</text><text class="cls-16" transform="translate(304.46 307.99)">R</text><text class="cls-14" transform="translate(309.69 307.99)">olling</text></g><path id="_路径_" data-name=" 路径 " class="cls-3" d="M537.4,280.79l-2.1-3.62a.86.86,0,0,1,0-.85l2.1-3.63a.81.81,0,0,1,.74-.42h4.18a.86.86,0,0,1,.74.42l2.09,3.63a.86.86,0,0,1,0,.85l-2.09,3.62a.84.84,0,0,1-.74.43h-4.2A.84.84,0,0,1,537.4,280.79Z"/><path id="_路径_2" data-name=" 路径 2" class="cls-3" d="M537.57,270.83l-2.09-3.62a.83.83,0,0,1,0-.86l2.09-3.62a.84.84,0,0,1,.74-.43h4.18a.84.84,0,0,1,.74.43l2.09,3.62a.83.83,0,0,1,0,.86l-2.09,3.62a.84.84,0,0,1-.74.43h-4.18A.84.84,0,0,1,537.57,270.83Z"/><path id="_路径_3" data-name=" 路径 3" class="cls-3" d="M520.49,280.62,518.4,277a.81.81,0,0,1,0-.85l2.09-3.63a.86.86,0,0,1,.74-.42h4.17a.87.87,0,0,1,.74.42l2.09,3.63a.86.86,0,0,1,0,.85l-2.09,3.63a.91.91,0,0,1-.74.43h-4.17A.85.85,0,0,1,520.49,280.62Z"/><path id="_路径_4" data-name=" 路径 4" class="cls-3" d="M520.68,270.66,518.6,267a.81.81,0,0,1,0-.85l2.09-3.63a.86.86,0,0,1,.74-.42h4.18a.86.86,0,0,1,.74.42l2.09,3.63a.81.81,0,0,1,0,.85l-2.09,3.63a.86.86,0,0,1-.74.42h-4.19A.85.85,0,0,1,520.68,270.66Z"/><path id="_路径_5" data-name=" 路径 5" class="cls-3" d="M529.06,275.63,527,272a.88.88,0,0,1,0-.86l2.09-3.62a.91.91,0,0,1,.74-.43H534a.87.87,0,0,1,.74.43l2.09,3.62a.88.88,0,0,1,0,.86l-2.09,3.62a.84.84,0,0,1-.74.43h-4.2A.86.86,0,0,1,529.06,275.63Z"/><g class="cls-13"><text class="cls-14" transform="translate(506.38 296.47)">H</text><text class="cls-18" transform="translate(512.44 296.47)">e<tspan class="cls-19" x="4.49" y="0">x</tspan></text><text class="cls-14" transform="translate(521.38 296.47)">a</text><text class="cls-17" transform="translate(526.12 296.47)">g</text><text class="cls-14" transform="translate(530.58 296.47)">on Bar</text></g></svg>