<svg id="图层_1" data-name="图层 1" xmlns="http://www.w3.org/2000/svg" viewBox="0 0 850.4 566.9"><defs><style>.cls-1{fill:#fff;}.cls-1,.cls-10,.cls-11,.cls-12,.cls-13,.cls-14,.cls-15,.cls-16,.cls-2,.cls-5,.cls-6,.cls-7,.cls-8,.cls-9{isolation:isolate;}.cls-1,.cls-10,.cls-15,.cls-2,.cls-3,.cls-6,.cls-7,.cls-8,.cls-9{opacity:0.6;}.cls-2,.cls-6,.cls-8{fill:none;}.cls-2,.cls-6,.cls-7,.cls-8{stroke:#eee;}.cls-2,.cls-6,.cls-7{stroke-miterlimit:10;}.cls-10,.cls-12,.cls-13,.cls-14,.cls-15,.cls-16,.cls-17,.cls-19,.cls-4,.cls-5,.cls-7,.cls-9{fill:#eee;}.cls-10,.cls-12,.cls-13,.cls-14,.cls-16,.cls-5{font-size:9.6px;}.cls-10,.cls-12,.cls-13,.cls-14,.cls-16,.cls-19,.cls-5{font-family:Calibri-Bold, Calibri;font-weight:700;}.cls-6,.cls-8{stroke-linecap:round;stroke-width:1.6px;}.cls-7{stroke-width:0.89px;}.cls-8{stroke-linejoin:round;}.cls-12{letter-spacing:-0.01em;}.cls-13{letter-spacing:-0.01em;}.cls-14{letter-spacing:-0.02em;}.cls-15,.cls-17{fill-rule:evenodd;}.cls-16{letter-spacing:-0.05em;}.cls-18{opacity:0.6;}.cls-19{font-size:9.6px;}</style></defs><rect class="cls-1" width="850.4" height="566.9"/><line class="cls-2" x1="850.4" y1="46.7" y2="46.7"/><line class="cls-2" x1="850.4" y1="165.1" y2="165.1"/><line class="cls-2" x1="850.4" y1="283.5" y2="283.5"/><line class="cls-2" x1="850.4" y1="401.9" y2="401.9"/><line class="cls-2" x1="850.4" y1="105.9" y2="105.9"/><line class="cls-2" x1="850.4" y1="224.3" y2="224.3"/><line class="cls-2" x1="850.4" y1="342.7" y2="342.7"/><line class="cls-2" x1="850.4" y1="461" y2="461"/><line class="cls-2" x1="850.4" y1="520.2" y2="520.2"/><line class="cls-2" x1="850.4" y1="135.5" y2="135.5"/><line class="cls-2" x1="850.4" y1="253.9" y2="253.9"/><line class="cls-2" x1="850.4" y1="372.3" y2="372.3"/><line class="cls-2" x1="850.4" y1="76.3" y2="76.3"/><line class="cls-2" x1="850.4" y1="17.1" y2="17.1"/><line class="cls-2" x1="850.4" y1="194.7" y2="194.7"/><line class="cls-2" x1="850.4" y1="313.1" y2="313.1"/><line class="cls-2" x1="850.4" y1="431.4" y2="431.4"/><line class="cls-2" x1="850.4" y1="490.6" y2="490.6"/><line class="cls-2" x1="850.4" y1="549.8" y2="549.8"/><line class="cls-2" x1="10.8" x2="10.8" y2="566.9"/><line class="cls-2" x1="129.2" x2="129.2" y2="566.9"/><line class="cls-2" x1="247.6" x2="247.6" y2="566.9"/><line class="cls-2" x1="366" x2="366" y2="566.9"/><line class="cls-2" x1="484.4" x2="484.4" y2="566.9"/><line class="cls-2" x1="602.8" x2="602.8" y2="566.9"/><line class="cls-2" x1="839.5" x2="839.5" y2="566.9"/><line class="cls-2" x1="721.2" x2="721.2" y2="566.9"/><line class="cls-2" x1="70" x2="70" y2="566.9"/><line class="cls-2" x1="188.4" x2="188.4" y2="566.9"/><line class="cls-2" x1="306.8" x2="306.8" y2="566.9"/><line class="cls-2" x1="425.2" x2="425.2" y2="566.9"/><line class="cls-2" x1="543.6" x2="543.6" y2="566.9"/><line class="cls-2" x1="662" x2="662" y2="566.9"/><line class="cls-2" x1="780.4" x2="780.4" y2="566.9"/><line class="cls-2" x1="810" x2="810" y2="566.9"/><line class="cls-2" x1="99.6" x2="99.6" y2="566.9"/><line class="cls-2" x1="218" x2="218" y2="566.9"/><line class="cls-2" x1="336.4" x2="336.4" y2="566.9"/><line class="cls-2" x1="454.8" x2="454.8" y2="566.9"/><line class="cls-2" x1="573.2" x2="573.2" y2="566.9"/><line class="cls-2" x1="691.6" x2="691.6" y2="566.9"/><line class="cls-2" x1="40.4" x2="40.4" y2="566.9"/><line class="cls-2" x1="158.8" x2="158.8" y2="566.9"/><line class="cls-2" x1="277.2" x2="277.2" y2="566.9"/><line class="cls-2" x1="395.6" x2="395.6" y2="566.9"/><line class="cls-2" x1="514" x2="514" y2="566.9"/><line class="cls-2" x1="632.4" x2="632.4" y2="566.9"/><line class="cls-2" x1="750.8" x2="750.8" y2="566.9"/><g class="cls-3"><path class="cls-4" d="M541.3,282.2l-3.4-23.3a2.66,2.66,0,0,0-2.5-2.2h-7.8a2.59,2.59,0,0,0-2.5,2.2l-3.4,23.3a2.57,2.57,0,0,0,2.1,2.9h15.1a2.55,2.55,0,0,0,2.6-2.5c-.2-.1-.2-.1-.2-.4ZM527,259.3a.46.46,0,0,1,.5-.4h7.8c.2,0,.5.2.5.4l1.8,11.7H525.4Z"/><text class="cls-5" transform="translate(515.34 296.21)">Anal</text><text class="cls-5" transform="translate(533.4 296.21)">y</text><text class="cls-5" transform="translate(537.99 296.21)">tic</text></g><g class="cls-3"><path class="cls-4" d="M247,356.6H237v12.3h14V356.6Zm-2.4,1.7a.7.7,0,1,1-.7-.7c.4.1.7.3.7.7Zm-4.8,0a.7.7,0,1,1-.7-.7h0A1.21,1.21,0,0,1,239.8,358.3Zm1.2-.7h1v4.2h-1Zm-2.8,9.4a.7.7,0,1,1,.7.7h0C238.6,367.6,238.2,367.3,238.2,367Zm2.8.6v-4.1h1v4.1Zm2.2-.6a.7.7,0,1,1,.7.7C243.5,367.7,243.3,367.4,243.2,367Zm5,0a.7.7,0,1,1,.7.7h0A.85.85,0,0,1,248.2,367Zm-1.2.6h-1v-4.1h1Zm-1.1-5.7v-4.2h1v4.2Zm3.7-3.6a.7.7,0,1,1-.7-.7h0a.67.67,0,0,1,.7.66Z"/><circle class="cls-4" cx="237.4" cy="373.2" r="1.8"/><path class="cls-4" d="M237.4,371.7a1.43,1.43,0,0,0-1.4,1.4v.1h2.8a1.6,1.6,0,0,0-1.4-1.5Z"/><path class="cls-4" d="M231.7,369.4v3.8h3.4a2.3,2.3,0,1,1,4.6-.2v.2h12.5v-3.8Z"/><circle class="cls-4" cx="259" cy="373.2" r="1.8"/><path class="cls-4" d="M259,371.7a1.43,1.43,0,0,0-1.4,1.4v.1h2.8A1.61,1.61,0,0,0,259,371.7Z"/><path class="cls-4" d="M260.5,361.1H253v12.1h3.7a2.3,2.3,0,1,1,4.6-.2v.2H265v-5.4Z"/><text class="cls-5" transform="translate(228 390.82)">P</text><text class="cls-5" transform="translate(232.92 390.82)">acking &amp;</text><text class="cls-5" transform="translate(230.56 402.34)">Shipping</text></g><g class="cls-3"><polygon class="cls-4" points="608.1 274.2 605.6 276.5 605.2 275.3 605.2 275.3 603.9 271.4 590.5 277.3 605.2 266.5 605.9 267.8 606.7 270.2 607.3 272.1 614.4 268.6 608.1 274.2"/><path class="cls-4" d="M600,268.2a9.51,9.51,0,0,1,5.9-7,9.21,9.21,0,0,1,9.6,2.2,12.32,12.32,0,0,0-22,9.4Z"/><path class="cls-4" d="M612,278.5a9.12,9.12,0,0,1-6.1,0l-1,.9-.6-1.5a9.05,9.05,0,0,1-3.4-3.3l-6.1,2.7a12.26,12.26,0,0,0,14.9,5.4,12.46,12.46,0,0,0,8.2-12.1A9.15,9.15,0,0,1,612,278.5Z"/><circle class="cls-4" cx="617.2" cy="266.9" r="1.6"/><text class="cls-5" transform="translate(589.38 296.21)">Marking</text></g><line class="cls-6" x1="277" y1="180.4" x2="286.1" y2="180.4"/><polygon class="cls-7" points="285.3 182.8 289.4 180.4 285.3 178 285.3 182.8"/><line class="cls-6" x1="348.2" y1="180.4" x2="357.1" y2="180.4"/><polygon class="cls-7" points="356.5 182.8 360.6 180.4 356.5 178 356.5 182.8"/><line class="cls-6" x1="419.4" y1="180.4" x2="428.2" y2="180.4"/><polygon class="cls-7" points="427.5 182.8 431.8 180.4 427.5 178 427.5 182.8"/><line class="cls-6" x1="490.5" y1="180.4" x2="499.4" y2="180.4"/><polygon class="cls-7" points="498.7 182.8 502.9 180.4 498.7 178 498.7 182.8"/><line class="cls-6" x1="561.5" y1="180.4" x2="570.6" y2="180.4"/><polygon class="cls-7" points="569.8 182.8 573.9 180.4 569.8 178 569.8 182.8"/><line class="cls-6" x1="277" y1="275.1" x2="286.1" y2="275.1"/><polygon class="cls-7" points="285.3 277.5 289.4 275.1 285.3 272.7 285.3 277.5"/><line class="cls-6" x1="348.2" y1="275.1" x2="357.1" y2="275.1"/><polygon class="cls-7" points="356.5 277.5 360.6 275.1 356.5 272.7 356.5 277.5"/><line class="cls-6" x1="419.4" y1="275.1" x2="428.2" y2="275.1"/><polygon class="cls-7" points="427.5 277.5 431.8 275.1 427.5 272.7 427.5 277.5"/><line class="cls-6" x1="490.5" y1="275.1" x2="499.4" y2="275.1"/><polygon class="cls-7" points="498.7 277.5 502.9 275.1 498.7 272.7 498.7 277.5"/><path class="cls-8" d="M632,181.1h13.5a4.6,4.6,0,0,1,4.6,4.58v0h0v43.9a4.6,4.6,0,0,1-4.58,4.6H205a4.59,4.59,0,0,0-4.6,4.58v0h0v32a4.59,4.59,0,0,0,4.58,4.6h10"/><polygon class="cls-7" points="214.2 277.8 218.4 275.4 214.2 273 214.2 277.8"/><line class="cls-6" x1="561.5" y1="275.1" x2="570.6" y2="275.1"/><polygon class="cls-7" points="569.8 277.5 573.9 275.1 569.8 272.7 569.8 277.5"/><path class="cls-9" d="M258.7,168.9a3,3,0,0,0-3,3v12.9a1.43,1.43,0,0,1-1.4,1.4H240.9a1.43,1.43,0,0,1-1.4-1.4V172a3,3,0,0,0-3-3h-5.3v1.7h5.3a1.43,1.43,0,0,1,1.4,1.4V185a3,3,0,0,0,3,3h13.4a3,3,0,0,0,3-3V172a1.43,1.43,0,0,1,1.4-1.4h5.4v-1.7Z"/><path class="cls-9" d="M240.5,184.8a.54.54,0,0,0,.5.5h13.4a.54.54,0,0,0,.5-.5h0V174.4c-1.4-.1-3.7-.3-4.6-.3-1.5,0-4.8.8-6,.2-.7-.4-2.4-.3-3.7-.2l-.1,10.7Z"/><path class="cls-9" d="M243.5,172.3h-.2a.58.58,0,0,1-.4-.7h0a5.71,5.71,0,0,0,0-2.6,6.53,6.53,0,0,1,0-3.4c.2-.3.5-.5.8-.3a.81.81,0,0,1,.4.6h0a6.61,6.61,0,0,0,0,2.8,6.16,6.16,0,0,1,0,3.3A.61.61,0,0,1,243.5,172.3Z"/><path class="cls-9" d="M247.6,172.3h-.2a.58.58,0,0,1-.4-.7h0a5.71,5.71,0,0,0,0-2.6,6.53,6.53,0,0,1,0-3.4c.2-.3.5-.5.8-.3a.81.81,0,0,1,.4.6,6.61,6.61,0,0,0,0,2.8,6.16,6.16,0,0,1,0,3.3A.71.71,0,0,1,247.6,172.3Z"/><path class="cls-9" d="M251.8,172.3h-.2a.58.58,0,0,1-.4-.7h0a5.71,5.71,0,0,0,0-2.6,10.28,10.28,0,0,1,0-3.5.57.57,0,0,1,1.1.3h0a7.08,7.08,0,0,0,0,2.9,6.16,6.16,0,0,1,0,3.3A.45.45,0,0,1,251.8,172.3Z"/><text class="cls-10" transform="translate(237.75 201.53)">S</text><text class="cls-10" transform="translate(242.29 201.53)">t</text><text class="cls-10" transform="translate(245.5 201.53)">eel</text><text class="cls-10" transform="translate(232.74 213.05)">Making</text><path class="cls-8" d="M632,275.1h13.5a4.6,4.6,0,0,1,4.6,4.58v0h0v43.9a4.6,4.6,0,0,1-4.58,4.6H205a4.59,4.59,0,0,0-4.6,4.58v0h0v32a4.59,4.59,0,0,0,4.58,4.6h10"/><polygon class="cls-7" points="214.2 371.9 218.4 369.5 214.2 367.1 214.2 371.9"/><line class="cls-6" x1="561.5" y1="275.1" x2="570.6" y2="275.1"/><g class="cls-3"><path class="cls-4" d="M317.4,166.3l-2.8,4.3a1.62,1.62,0,0,1-2.2.5h0l-3.8-2.4a1.62,1.62,0,0,1-.5-2.2l4.5-7c.2-.2.1-.4-.1-.6h0l-.4-.2c-.2-.2-.4-.1-.6.1h0l-4.5,7a2.82,2.82,0,0,0,.76,3.91l.14.09,3.9,2.5a2.82,2.82,0,0,0,3.91-.76l.09-.14h0l2.6-4.2a4,4,0,0,1,4.2-1.8l.1-.1-.9-.6a3.38,3.38,0,0,0-2.4-.2A7.17,7.17,0,0,0,317.4,166.3Z"/><path class="cls-4" d="M322.9,168.4h.2a.67.67,0,0,1,.7.66V190.6a.67.67,0,0,1-.66.7h-.24a.67.67,0,0,1-.7-.66V169.1a.67.67,0,0,1,.66-.7Z"/><path class="cls-4" d="M328.8,191.3h-.2a.67.67,0,0,1-.7-.66V169.1a.67.67,0,0,1,.66-.7h.24a.67.67,0,0,1,.7.66V190.6a.67.67,0,0,1-.66.7Z"/><path class="cls-4" d="M317.2,166.3l-2.8,4.3a1.62,1.62,0,0,1-2.2.5l-3.8-2.4a1.62,1.62,0,0,1-.5-2.2l4.5-7c.2-.2.1-.4-.1-.6h0l-.4-.2c-.2-.2-.4-.1-.6.1h0l-4.5,7a2.82,2.82,0,0,0,.76,3.91l.14.09h0l3.9,2.5a2.82,2.82,0,0,0,3.91-.76l.09-.14,2.6-4.2a4.13,4.13,0,0,1,4.2-1.8l.1-.1-.9-.6a3.38,3.38,0,0,0-2.4-.2A5,5,0,0,0,317.2,166.3Z"/><path class="cls-4" d="M322.6,164.2a3.36,3.36,0,0,0-.6-.3,6.92,6.92,0,0,0-2.5-.5h-1.4a22.55,22.55,0,0,0-2.6,0h-3a5.44,5.44,0,0,0-1.8,0l-2.2,3.4a1.36,1.36,0,0,0,.3,1.7h0l3.8,2.4a1.25,1.25,0,0,0,1.7-.3h0l2.8-4.3a4.91,4.91,0,0,1,2.2-1.8,3.2,3.2,0,0,1,2.7.2h.1a3.76,3.76,0,0,1,1.4,1.4h0a9,9,0,0,1,1.3,4.5v20.8h2.3V172.6a9.85,9.85,0,0,0-4-8A2.15,2.15,0,0,0,322.6,164.2Z"/><g class="cls-11"><text class="cls-5" transform="translate(308.2 201.53)">In</text><text class="cls-12" transform="translate(315.91 201.53)">g</text><text class="cls-5" transform="translate(320.37 201.53)">ot</text></g><g class="cls-11"><text class="cls-5" transform="translate(304.12 213.05)">Ca</text><text class="cls-13" transform="translate(313.94 213.05)">s</text><text class="cls-5" transform="translate(317.66 213.05)">ting</text></g></g><g class="cls-3"><path class="cls-4" d="M386.6,166.3l-2.8,4.3a1.62,1.62,0,0,1-2.2.5l-3.8-2.4a1.62,1.62,0,0,1-.5-2.2l4.5-7c.2-.2.1-.4-.1-.6h0l-.4-.2c-.2-.2-.4-.1-.6.1h0l-4.5,7a2.82,2.82,0,0,0,.76,3.91l.14.09,3.9,2.5a2.82,2.82,0,0,0,3.91-.76l.09-.14,2.6-4.2a4.13,4.13,0,0,1,4.2-1.8l.1-.1-.9-.6a3.27,3.27,0,0,0-2.4-.2A5.86,5.86,0,0,0,386.6,166.3Z"/><path class="cls-4" d="M397.7,173.7l-1-.6c-.1-.1-.2-.2-.1-.3l3.7-5.4c.1-.1.2-.2.3-.1l1,.6c.1.1.2.2.1.3l-3.7,5.4C397.9,173.7,397.8,173.8,397.7,173.7Z"/><path class="cls-4" d="M388.4,167.9l1-.6c.1-.1.2-.1.3.1l3.7,5.4c.1.1.1.2-.1.3l-1,.6c-.1.1-.2.1-.3-.1l-3.7-5.4C388.2,168,388.2,167.9,388.4,167.9Z"/><path class="cls-4" d="M391.8,164.2a3.36,3.36,0,0,0-.6-.3,6.92,6.92,0,0,0-2.5-.5h-1.4a22.55,22.55,0,0,0-2.6,0h-3a5.44,5.44,0,0,0-1.8,0l-2.2,3.4a1.25,1.25,0,0,0,.3,1.7h0l3.8,2.4a1.25,1.25,0,0,0,1.7-.3h0l2.8-4.3a4.91,4.91,0,0,1,2.2-1.8,3.2,3.2,0,0,1,2.7.2h.1a3.76,3.76,0,0,1,1.4,1.4h0a9,9,0,0,1,1.3,4.5v20.8h2.3V172.6a10,10,0,0,0-4.1-8Z"/><path class="cls-4" d="M390.4,177.3h2.3a.47.47,0,0,1,.5.44v3.06a.47.47,0,0,1-.44.5H390.4a.47.47,0,0,1-.5-.44V177.8A.54.54,0,0,1,390.4,177.3Z"/><path class="cls-4" d="M399.7,187.4h-2.3a.56.56,0,0,1-.6-.5v-3c0-.3.2-.5.6-.5h2.3a.47.47,0,0,1,.5.44v3.06A.54.54,0,0,1,399.7,187.4Z"/><g class="cls-11"><text class="cls-5" transform="translate(366.84 201.53)">Co</text><text class="cls-13" transform="translate(377.08 201.53)">n</text><text class="cls-5" transform="translate(382.14 201.53)">tinuous</text></g><g class="cls-11"><text class="cls-5" transform="translate(375.08 213.05)">Ca</text><text class="cls-13" transform="translate(384.9 213.05)">s</text><text class="cls-5" transform="translate(388.62 213.05)">ting</text></g></g><g class="cls-3"><circle class="cls-4" cx="460.6" cy="169.9" r="2.8"/><circle class="cls-4" cx="460.6" cy="174.5" r="1.4"/><circle class="cls-4" cx="460.6" cy="183.7" r="2.8"/><circle class="cls-4" cx="460.6" cy="179.1" r="1.4"/><path class="cls-4" d="M446.3,176H475a.79.79,0,0,1,.8.78v0h0a.79.79,0,0,1-.78.8H446.4a.79.79,0,0,1-.8-.78v0h0a.71.71,0,0,1,.61-.79Z"/><text class="cls-5" transform="translate(453.29 201.53)">Hot</text><g class="cls-11"><text class="cls-14" transform="translate(446.97 213.05)">R</text><text class="cls-5" transform="translate(452.21 213.05)">olling</text></g></g><path class="cls-15" d="M531.3,192c-1.4-4.3-8.8-6.2-10.1-9.9-.6-2.4-.6-5.1.6-6.9,0,2.4,1.7,5.7,3.2,4,1.4-1.5-3-2.1-2.4-5.6.1-1.6,1.5-2.5,2-6.2,1.6,1.6-.9,4.1,2.8,5.6-4.4-5.3,3.4-7.3,2.8-12.4,5.8,5.8.1,9.3,3.3,10.8,1.2.5,2.9-2.7,1.7-5.3,3.5,3,3.1,6.2,1.3,8.8-.7.9.1,2.9.9,3.5-.3-1.9,1.3-2.8,1.7-4.6,3.2,3.6,4.4,8-.9,11.6A33.73,33.73,0,0,0,531.3,192Z"/><text class="cls-10" transform="translate(519.9 201.53)">Aging</text><g class="cls-11"><text class="cls-16" transform="translate(510.41 213.03)">T</text><text class="cls-12" transform="translate(514.67 213.03)">r</text><text class="cls-5" transform="translate(517.98 213.03)">e</text><text class="cls-12" transform="translate(522.81 213.03)">a</text><text class="cls-5" transform="translate(527.46 213.03)">tme</text><text class="cls-13" transform="translate(543.43 213.03)">n</text><text class="cls-5" transform="translate(548.49 213.03)">t</text></g><g class="cls-3"><path class="cls-4" d="M328.7,280.8h-20a3.15,3.15,0,0,1-3.2-3.12V261.2h1.6v16.5a1.58,1.58,0,0,0,1.56,1.6h20a1.58,1.58,0,0,0,1.6-1.56V261.2h1.6v16.5a3.15,3.15,0,0,1-3.18,3.1Z"/><rect class="cls-4" x="305.5" y="264.8" width="26.4" height="1.7"/><path class="cls-4" d="M317.6,272.6h8.1a1.32,1.32,0,0,1,1.3,1.3v3.2a1.32,1.32,0,0,1-1.3,1.3h-8.1a1.32,1.32,0,0,1-1.3-1.3v-3.2a1.26,1.26,0,0,1,1.22-1.3Z"/><text class="cls-5" transform="translate(303.3 296.21)">Pickling</text></g><g class="cls-3"><path class="cls-4" d="M234.7,269.5h26.1a1.58,1.58,0,0,1,1.6,1.56v.84a1.58,1.58,0,0,1-1.56,1.6H234.7a1.58,1.58,0,0,1-1.6-1.56v-.84a1.58,1.58,0,0,1,1.56-1.6Z"/><rect class="cls-4" x="233.1" y="265.1" width="1.4" height="1.7"/><path class="cls-4" d="M260.1,266.8h-2.7v-1.7h2.7Zm-3.7,0h-2.7v-1.7h2.7Zm-3.7,0H250v-1.7h2.7Zm-3.6,0h-2.7v-1.7h2.7Zm-3.7,0h-2.6v-1.7h2.7Zm-3.6,0h-2.7v-1.7h2.7Zm-3.7,0h-2.7v-1.7h2.7Z"/><rect class="cls-4" x="261" y="265.1" width="1.4" height="1.7"/><rect class="cls-4" x="233.1" y="276.2" width="1.4" height="1.7"/><path class="cls-4" d="M260.1,277.9h-2.7v-1.7h2.7Zm-3.7,0h-2.7v-1.7h2.7Zm-3.7,0H250v-1.7h2.7Zm-3.6,0h-2.7v-1.7h2.7Zm-3.7,0h-2.6v-1.7h2.7Zm-3.6,0h-2.7v-1.7h2.7Zm-3.7,0h-2.7v-1.7h2.7Z"/><rect class="cls-4" x="261" y="276.2" width="1.4" height="1.7"/><g class="cls-11"><text class="cls-5" transform="translate(236.71 296.21)">C</text><text class="cls-14" transform="translate(241.79 296.21)">r</text><text class="cls-5" transform="translate(244.99 296.21)">ack</text></g><g class="cls-11"><text class="cls-5" transform="translate(228.11 307.71)">D</text><text class="cls-12" transform="translate(234.16 307.71)">e</text><text class="cls-12" transform="translate(238.93 307.71)">t</text><text class="cls-5" transform="translate(242.14 307.71)">ection</text></g></g><g class="cls-3"><path class="cls-17" d="M618.8,173.9H593.5a.65.65,0,0,0-.6.6v5a.65.65,0,0,0,.6.6h.4a1.8,1.8,0,0,0,3.6,0h.6a1.8,1.8,0,0,0,3.6,0h.6a1.8,1.8,0,0,0,3.6,0h.6a1.8,1.8,0,0,0,3.6,0h.6a1.8,1.8,0,0,0,3.6,0h.6a1.8,1.8,0,0,0,3.6,0h.4a.65.65,0,0,0,.6-.6v-5a.87.87,0,0,0-.7-.6Z"/><path class="cls-17" d="M618.8,193.2H593.5a.65.65,0,0,1-.6-.6v-5a.65.65,0,0,1,.6-.6h.4a1.8,1.8,0,0,1,3.6,0h.6a1.8,1.8,0,0,1,3.6,0h.6a1.8,1.8,0,0,1,3.6,0h.6a1.8,1.8,0,0,1,3.6,0h.6a1.8,1.8,0,1,1,3.6,0h.6a1.8,1.8,0,0,1,3.6,0h.4a.65.65,0,0,1,.6.6v5a.73.73,0,0,1-.7.6Z"/><path class="cls-4" d="M590.4,182.3h31.4a1.32,1.32,0,0,1,1.3,1.3h0a1.32,1.32,0,0,1-1.3,1.3H590.4a1.32,1.32,0,0,1-1.3-1.3h0A1.32,1.32,0,0,1,590.4,182.3Z"/><g class="cls-11"><text class="cls-5" transform="translate(586.07 208.56)">Fl</text><text class="cls-12" transform="translate(592.83 208.56)">a</text><text class="cls-13" transform="translate(597.48 208.56)">tt</text><text class="cls-5" transform="translate(603.67 208.56)">ening</text></g></g><g class="cls-3"><path id="_矩形_" data-name=" 矩形 " class="cls-4" d="M377.9,277.1h23.2a.47.47,0,0,1,.5.44v.06h0a.47.47,0,0,1-.44.5H377.9a.47.47,0,0,1-.5-.44v-.06h0a.47.47,0,0,1,.44-.5Z"/><path id="_矩形_2" data-name=" 矩形 2" class="cls-4" d="M378,278.8h23.1a.47.47,0,0,1,.5.44v.06h0a.47.47,0,0,1-.44.5H378a.47.47,0,0,1-.5-.44v-.06h0A.54.54,0,0,1,378,278.8Z"/><path id="_矩形_3" data-name=" 矩形 3" class="cls-4" d="M378,280.6h23a.47.47,0,0,1,.5.44v.06h0a.47.47,0,0,1-.44.5H378a.47.47,0,0,1-.5-.44v-.06h0A.54.54,0,0,1,378,280.6Z"/><path id="_矩形_4" data-name=" 矩形 4" class="cls-4" d="M378.1,282.4H401a.47.47,0,0,1,.5.44v.06h0a.47.47,0,0,1-.44.5h-23a.47.47,0,0,1-.5-.44v-.06h0a.47.47,0,0,1,.44-.5Z"/><g class="cls-11"><text class="cls-5" transform="translate(379.34 296.21)">Pl</text><text class="cls-12" transform="translate(386.81 296.21)">a</text><text class="cls-12" transform="translate(391.46 296.21)">t</text><text class="cls-5" transform="translate(394.67 296.21)">e</text></g><path class="cls-4" d="M401.8,275.3V260a.9.9,0,0,0-.9-.9H378.2a.9.9,0,0,0-.9.9v15.3a.9.9,0,0,0,.9.9h22.7a.9.9,0,0,0,.9-.9Z"/></g><g class="cls-18"><path class="cls-4" d="M469.18,282l-5.32-8.47a8.58,8.58,0,1,0-1.81,1.12l5.32,8.49a1.07,1.07,0,0,0,.91.49.94.94,0,0,0,.56-.16,1.07,1.07,0,0,0,.34-1.47Zm-12.08-8.85a6.4,6.4,0,1,1,7.64-4.85,6.38,6.38,0,0,1-7.64,4.85Z"/><text class="cls-19" transform="translate(439.82 296.19)">Inspection</text></g></svg>