<svg id="图层_1" data-name="图层 1" xmlns="http://www.w3.org/2000/svg" viewBox="0 0 850.4 566.9"><defs><style>.cls-1{fill:#fff;}.cls-1,.cls-2,.cls-3,.cls-33{opacity:0.6;}.cls-2,.cls-30,.cls-32{fill:none;}.cls-2,.cls-30,.cls-31,.cls-32{stroke:#eee;}.cls-2,.cls-30,.cls-31{stroke-miterlimit:10;}.cls-31,.cls-33,.cls-4,.cls-5,.cls-6{fill:#eee;}.cls-33,.cls-5,.cls-7{isolation:isolate;}.cls-5{font-size:9.6px;}.cls-33,.cls-5{font-family:Calibri-Bold, Calibri;font-weight:700;}.cls-6{fill-rule:evenodd;}.cls-8{letter-spacing:-0.05em;}.cls-9{letter-spacing:-0.01em;}.cls-10{letter-spacing:-0.01em;}.cls-11{letter-spacing:0em;}.cls-12{letter-spacing:-0.01em;}.cls-13{letter-spacing:0em;}.cls-14{letter-spacing:0em;}.cls-15{letter-spacing:-0.02em;}.cls-16{letter-spacing:-0.01em;}.cls-17{letter-spacing:-0.02em;}.cls-18{letter-spacing:-0.01em;}.cls-19{letter-spacing:0em;}.cls-20{letter-spacing:-0.02em;}.cls-21{letter-spacing:-0.02em;}.cls-22{letter-spacing:-0.01em;}.cls-23{letter-spacing:-0.02em;}.cls-24{letter-spacing:-0.01em;}.cls-25{letter-spacing:-0.01em;}.cls-26{letter-spacing:-0.02em;}.cls-27{letter-spacing:-0.02em;}.cls-28{letter-spacing:-0.01em;}.cls-29{letter-spacing:-0.01em;}.cls-30,.cls-32{stroke-linecap:round;stroke-width:1.6px;}.cls-31{stroke-width:0.89px;}.cls-32{stroke-linejoin:round;}.cls-33{font-size:8px;}.cls-34{letter-spacing:-0.01em;}.cls-35{letter-spacing:0em;}.cls-36{letter-spacing:-0.01em;}.cls-37{letter-spacing:-0.02em;}.cls-38{letter-spacing:0em;}.cls-39{letter-spacing:-0.05em;}.cls-40{letter-spacing:-0.01em;}.cls-41{letter-spacing:0em;}</style></defs><title>seamlesspipetubeprocesssolution2</title><rect class="cls-1" width="850.4" height="566.9"/><line class="cls-2" x1="850.4" y1="46.7" y2="46.7"/><line class="cls-2" x1="850.4" y1="165.1" y2="165.1"/><line class="cls-2" x1="850.4" y1="283.5" y2="283.5"/><line class="cls-2" x1="850.4" y1="401.9" y2="401.9"/><line class="cls-2" x1="850.4" y1="105.9" y2="105.9"/><line class="cls-2" x1="850.4" y1="224.3" y2="224.3"/><line class="cls-2" x1="850.4" y1="342.7" y2="342.7"/><line class="cls-2" x1="850.4" y1="461" y2="461"/><line class="cls-2" x1="850.4" y1="520.2" y2="520.2"/><line class="cls-2" x1="850.4" y1="135.5" y2="135.5"/><line class="cls-2" x1="850.4" y1="253.9" y2="253.9"/><line class="cls-2" x1="850.4" y1="372.3" y2="372.3"/><line class="cls-2" x1="850.4" y1="76.3" y2="76.3"/><line class="cls-2" x1="850.4" y1="17.1" y2="17.1"/><line class="cls-2" x1="850.4" y1="194.7" y2="194.7"/><line class="cls-2" x1="850.4" y1="313.1" y2="313.1"/><line class="cls-2" x1="850.4" y1="431.4" y2="431.4"/><line class="cls-2" x1="850.4" y1="490.6" y2="490.6"/><line class="cls-2" x1="850.4" y1="549.8" y2="549.8"/><line class="cls-2" x1="10.8" x2="10.8" y2="566.9"/><line class="cls-2" x1="129.2" x2="129.2" y2="566.9"/><line class="cls-2" x1="247.6" x2="247.6" y2="566.9"/><line class="cls-2" x1="366" x2="366" y2="566.9"/><line class="cls-2" x1="484.4" x2="484.4" y2="566.9"/><line class="cls-2" x1="602.8" x2="602.8" y2="566.9"/><line class="cls-2" x1="839.5" x2="839.5" y2="566.9"/><line class="cls-2" x1="721.2" x2="721.2" y2="566.9"/><line class="cls-2" x1="70" x2="70" y2="566.9"/><line class="cls-2" x1="188.4" x2="188.4" y2="566.9"/><line class="cls-2" x1="306.8" x2="306.8" y2="566.9"/><line class="cls-2" x1="425.2" x2="425.2" y2="566.9"/><line class="cls-2" x1="543.6" x2="543.6" y2="566.9"/><line class="cls-2" x1="662" x2="662" y2="566.9"/><line class="cls-2" x1="780.4" x2="780.4" y2="566.9"/><line class="cls-2" x1="810" x2="810" y2="566.9"/><line class="cls-2" x1="99.6" x2="99.6" y2="566.9"/><line class="cls-2" x1="218" x2="218" y2="566.9"/><line class="cls-2" x1="336.4" x2="336.4" y2="566.9"/><line class="cls-2" x1="454.8" x2="454.8" y2="566.9"/><line class="cls-2" x1="573.2" x2="573.2" y2="566.9"/><line class="cls-2" x1="691.6" x2="691.6" y2="566.9"/><line class="cls-2" x1="40.4" x2="40.4" y2="566.9"/><line class="cls-2" x1="158.8" x2="158.8" y2="566.9"/><line class="cls-2" x1="277.2" x2="277.2" y2="566.9"/><line class="cls-2" x1="395.6" x2="395.6" y2="566.9"/><line class="cls-2" x1="514" x2="514" y2="566.9"/><line class="cls-2" x1="632.4" x2="632.4" y2="566.9"/><line class="cls-2" x1="750.8" x2="750.8" y2="566.9"/><g class="cls-3"><path class="cls-4" d="M497.76,372.2l-5.28-8.48a8.53,8.53,0,1,0-12-1.28,8.62,8.62,0,0,0,10.24,2.4l5.2,8.47a1,1,0,0,0,.88.48,1.48,1.48,0,0,0,.56-.16,1,1,0,0,0,.4-1.43Zm-12.08-8.8a6.39,6.39,0,1,1,7.6-4.88,6.44,6.44,0,0,1-7.6,4.88Z"/><text class="cls-5" transform="translate(468.39 386.36)">Inspection</text></g><g class="cls-3"><path class="cls-6" d="M204.91,376.83c-1.36-4.31-8.72-6.15-10.08-9.83-.64-2.4-.56-5.12.64-6.88,0,2.4,1.68,5.68,3.2,4,1.44-1.52-3-2.08-2.32-5.6.16-1.6,1.52-2.48,2.08-6.16,1.52,1.52-.88,4.08,2.8,5.6-4.4-5.36,3.44-7.28,2.8-12.39,5.83,5.75.16,9.27,3.28,10.79,1.19.48,2.87-2.64,1.75-5.28,3.44,3,3.12,6.24,1.28,8.72-.72,1,.08,3,1,3.52-.32-1.84,1.28-2.8,1.76-4.56,3.2,3.6,4.4,8-1,11.6A26.36,26.36,0,0,0,204.91,376.83Z"/><g class="cls-7"><text class="cls-5" transform="translate(188.5 386.36)">Solution</text><text class="cls-5" transform="translate(183.94 397.87)"><tspan class="cls-8">T</tspan><tspan class="cls-9" x="4.26" y="0">r</tspan><tspan x="7.56" y="0">e</tspan><tspan class="cls-10" x="12.39" y="0">a</tspan><tspan class="cls-11" x="17.04" y="0">tme</tspan><tspan class="cls-12" x="33.01" y="0">n</tspan><tspan class="cls-11" x="38.07" y="0">t</tspan></text></g></g><g class="cls-3"><path class="cls-4" d="M428.26,371.16H408.19A3.21,3.21,0,0,1,405,368v-16.4h1.52V368a1.6,1.6,0,0,0,1.6,1.6h20a1.6,1.6,0,0,0,1.6-1.6V351.56h1.52V368A2.94,2.94,0,0,1,428.26,371.16Z"/><path class="cls-4" d="M421.47,369.8a4.4,4.4,0,1,1,4.39-4.4A4.44,4.44,0,0,1,421.47,369.8Zm0-7.28a2.88,2.88,0,1,0,2.87,2.88h0a2.87,2.87,0,0,0-2.87-2.88Z"/><rect class="cls-4" x="404.99" y="355.16" width="26.39" height="1.68"/><text class="cls-5" transform="translate(402.86 386.36)">Pickling</text></g><g class="cls-3"><path class="cls-4" d="M570,372.44l-3.44-23.28a2.57,2.57,0,0,0-2.48-2.16H556.3a2.44,2.44,0,0,0-2.48,2.16l-3.44,23.28a2.52,2.52,0,0,0,2.08,2.87h15.11a2.62,2.62,0,0,0,2.56-2.48.42.42,0,0,1-.16-.39Zm-14.23-23a.45.45,0,0,1,.48-.4H564a.45.45,0,0,1,.48.4l1.76,11.68H554Z"/><text class="cls-5" transform="translate(544.01 386.36)">Anal<tspan class="cls-13" x="18.06" y="0">y</tspan><tspan class="cls-14" x="22.65" y="0">tic</tspan></text></g><g class="cls-3"><path class="cls-4" d="M263.44,363.32a6.19,6.19,0,0,1-2.55-.64,4,4,0,0,0-2.24-.56,1.44,1.44,0,1,1,0-2.88,7.32,7.32,0,0,1,3.43.8,2.7,2.7,0,0,0,1.36.4,3.26,3.26,0,0,0,1.44-.4,8,8,0,0,1,3.28-.8,6.22,6.22,0,0,1,2.4.32,11.65,11.65,0,0,0,2.48.32h14.64a1.44,1.44,0,0,1,0,2.88H273a14.78,14.78,0,0,1-3-.4,7.05,7.05,0,0,0-1.68-.24,6,6,0,0,0-2.24.56A6.1,6.1,0,0,1,263.44,363.32Z"/><path class="cls-4" d="M282.72,359.08h-8a1.43,1.43,0,0,1-1.44-1.44v-8a1.43,1.43,0,0,1,1.44-1.44h8a1.43,1.43,0,0,1,1.44,1.44v8A1.43,1.43,0,0,1,282.72,359.08Z"/><path class="cls-4" d="M282.72,363.64h-8a1.43,1.43,0,0,0-1.44,1.44v8a1.43,1.43,0,0,0,1.44,1.44h8a1.43,1.43,0,0,0,1.44-1.44v-8A1.43,1.43,0,0,0,282.72,363.64Z"/><text class="cls-5" transform="translate(249.36 386.36)">St<tspan class="cls-15" x="7.86" y="0">r</tspan><tspan x="11.06" y="0">aig</tspan><tspan class="cls-12" x="22.71" y="0">h</tspan><tspan class="cls-16" x="27.77" y="0">t</tspan><tspan x="30.98" y="0">ening</tspan></text></g><g class="cls-3"><path class="cls-4" d="M701.36,352.12h-9.92v12.32h14V352.12Zm-2.24,1.76a.72.72,0,1,1-.72-.72.84.84,0,0,1,.72.72Zm-5,0a.72.72,0,1,1-.72-.72h0A.84.84,0,0,1,694.16,353.88Zm1.28-.64h1v4.24h-1Zm-2.72,9.28a.72.72,0,1,1,.72.72h0A.72.72,0,0,1,692.72,362.52Zm2.72.72v-4.08h1v4.08Zm2.24-.72a.72.72,0,1,1,.72.72.72.72,0,0,1-.72-.72Zm5,0a.72.72,0,1,1,.72.72h0a.72.72,0,0,1-.72-.72Zm-1.28.72h-1v-4.08h1Zm-1-5.84v-4.24h1v4.24Zm3.68-3.52a.72.72,0,1,1-.72-.72h0a.72.72,0,0,1,.72.72Z"/><circle class="cls-4" cx="691.84" cy="368.76" r="1.84"/><path class="cls-4" d="M691.84,367.32a1.43,1.43,0,0,0-1.43,1.44h2.79a1.32,1.32,0,0,0-1.36-1.44Z"/><path class="cls-4" d="M686.09,364.92v3.84h3.44a2.32,2.32,0,1,1,4.63-.16v.16h12.48v-3.84Z"/><circle class="cls-4" cx="713.44" cy="368.76" r="1.84"/><path class="cls-4" d="M713.44,367.32a1.43,1.43,0,0,0-1.44,1.44h2.8A1.42,1.42,0,0,0,713.44,367.32Z"/><path class="cls-4" d="M714.88,356.68h-7.44v12.08h3.68a2.32,2.32,0,1,1,4.64-.16v.16h3.67v-5.44Z"/><g class="cls-7"><text class="cls-5" transform="translate(682.43 386.36)"><tspan class="cls-17">P</tspan><tspan x="4.92" y="0">acking &amp;</tspan></text><text class="cls-5" transform="translate(684.99 397.87)">Shipping</text></g></g><g class="cls-3"><path class="cls-4" d="M332.3,369.16c-2.4,0-4.16-3.44-4.16-7.92s1.84-7.92,4.16-7.92,4.16,3.44,4.16,7.92S334.7,369.16,332.3,369.16Zm0-14.08c-1,0-2.32,2.4-2.32,6.16s1.36,6.16,2.32,6.16,2.32-2.4,2.32-6.16S333.26,355.08,332.3,355.08Z"/><ellipse class="cls-4" cx="361.81" cy="361.16" rx="3.28" ry="7.04"/><path class="cls-4" d="M361.81,369.16c-2.4,0-4.16-3.44-4.16-7.92s1.84-7.92,4.16-7.92,4.16,3.44,4.16,7.92S364.21,369.16,361.81,369.16Zm0-14.08c-1,0-2.32,2.4-2.32,6.16s1.36,6.16,2.32,6.16,2.4-2.4,2.4-6.16S362.85,355.08,361.81,355.08Z"/><path class="cls-4" d="M346.69,353.24l-.24.16c-.08-.08-.08-.16-.16-.16H332.38c2.4,0,4.16,3.44,4.16,7.92s-1.84,7.92-4.16,7.92h13.91a2.12,2.12,0,0,0,.4-.48l.72.48h14.48V353.16h-15.2Zm3.12,5.6-1.36.16a20.46,20.46,0,0,0-.4-2.16l1.36-.32a20,20,0,0,1,.4,2.32Zm-1.68-5.44a11.4,11.4,0,0,1,1,2.24l-1.28.4a8.35,8.35,0,0,0-.88-1.92Zm.24,15.2-1.2-.64a8.71,8.71,0,0,0,.8-2l1.28.4A18.63,18.63,0,0,1,348.37,368.6Zm1.12-3.2-1.36-.32a20.1,20.1,0,0,0,.32-2.16l1.36.16A10.82,10.82,0,0,1,349.49,365.4Zm.4-3.28-1.36-.08v-.88a6.47,6.47,0,0,0-.08-1.28l1.36-.08c0,.48.08,1,.08,1.44A3.23,3.23,0,0,1,349.89,362.12Z"/><text class="cls-5" transform="translate(340.32 386.36)">Cut</text></g><g class="cls-3"><path class="cls-6" d="M489,282.23c-1.36-4.32-8.72-6.16-10.08-9.84-.64-2.4-.56-5.12.64-6.88,0,2.4,1.68,5.68,3.2,4,1.44-1.52-3-2.08-2.32-5.59.16-1.6,1.52-2.48,2.08-6.16,1.52,1.52-.88,4.08,2.8,5.6-4.4-5.36,3.44-7.28,2.8-12.4,5.84,5.76.16,9.28,3.28,10.8,1.2.48,2.88-2.64,1.76-5.28,3.44,3,3.12,6.24,1.28,8.72-.72.95.08,2.95,1,3.51-.32-1.84,1.28-2.8,1.76-4.55,3.2,3.59,4.4,8-1,11.59A26.43,26.43,0,0,0,489,282.23Z"/><text class="cls-5" transform="translate(469.07 291.75)">Annealing</text></g><g class="cls-3"><path class="cls-4" d="M215.22,276.55h-20a3.21,3.21,0,0,1-3.2-3.2V257h1.52v16.47a1.6,1.6,0,0,0,1.6,1.6h20a1.6,1.6,0,0,0,1.6-1.6V257h1.52v16.47A3.06,3.06,0,0,1,215.22,276.55Z"/><path class="cls-4" d="M208.42,275.19a4.4,4.4,0,1,1,4.4-4.4A4.44,4.44,0,0,1,208.42,275.19Zm0-7.28a2.88,2.88,0,1,0,2.88,2.88h0a2.87,2.87,0,0,0-2.88-2.88Z"/><rect class="cls-4" x="191.95" y="260.56" width="26.39" height="1.68"/><text class="cls-5" transform="translate(189.82 291.75)">Pickling</text></g><g class="cls-3"><polygon class="cls-4" points="420.43 264.08 418.03 262 403.31 262 403.31 271.67 418.03 271.67 420.43 269.67 432.82 269.67 432.82 264.08 420.43 264.08"/><circle class="cls-4" cx="422.35" cy="259.68" r="3.76"/><circle class="cls-4" cx="422.35" cy="274.07" r="3.76"/><g class="cls-7"><text class="cls-5" transform="translate(391.45 291.75)">Cold D<tspan class="cls-15" x="25.96" y="0">r</tspan><tspan class="cls-18" x="29.16" y="0">a</tspan><tspan class="cls-19" x="33.83" y="0">wing</tspan></text><text class="cls-5" transform="translate(391.53 303.27)">(Cold <tspan class="cls-20" x="22.9" y="0">R</tspan><tspan x="28.14" y="0">olling)</tspan></text></g></g><g class="cls-3"><path class="cls-4" d="M547.5,268.71a6.25,6.25,0,0,1-2.56-.64,4,4,0,0,0-2.24-.56,1.44,1.44,0,1,1,0-2.87,7.41,7.41,0,0,1,3.44.8,2.79,2.79,0,0,0,1.36.39,3.38,3.38,0,0,0,1.44-.39,8,8,0,0,1,3.28-.8,6.22,6.22,0,0,1,2.4.32,11.64,11.64,0,0,0,2.47.32h14.64a1.44,1.44,0,1,1,0,2.87H557.09a14.77,14.77,0,0,1-3-.4,7.05,7.05,0,0,0-1.68-.24,6,6,0,0,0-2.24.56A6.1,6.1,0,0,1,547.5,268.71Z"/><path class="cls-4" d="M566.77,264.48h-8a1.43,1.43,0,0,1-1.44-1.44v-8a1.43,1.43,0,0,1,1.44-1.44h8a1.43,1.43,0,0,1,1.44,1.44v8A1.43,1.43,0,0,1,566.77,264.48Z"/><path class="cls-4" d="M566.77,269h-8a1.43,1.43,0,0,0-1.44,1.44v8a1.43,1.43,0,0,0,1.44,1.44h8a1.43,1.43,0,0,0,1.44-1.44v-8A1.43,1.43,0,0,0,566.77,269Z"/><text class="cls-5" transform="translate(533.42 291.75)">St<tspan class="cls-21" x="7.86" y="0">r</tspan><tspan x="11.06" y="0">aig</tspan><tspan class="cls-12" x="22.71" y="0">h</tspan><tspan class="cls-22" x="27.77" y="0">t</tspan><tspan x="30.98" y="0">ening</tspan></text></g><g class="cls-3"><path class="cls-4" d="M284.72,277.59l-5.28-8.48a8.53,8.53,0,1,0-12-1.28,8.62,8.62,0,0,0,10.24,2.4l5.36,8.48a1,1,0,0,0,.88.48,1.48,1.48,0,0,0,.56-.16,1.09,1.09,0,0,0,.24-1.44Zm-12.08-8.8a6.38,6.38,0,1,1,7.6-4.87,6.43,6.43,0,0,1-7.6,4.87Z"/><g class="cls-7"><text class="cls-5" transform="translate(255.35 291.75)">Inspection</text><text class="cls-5" transform="translate(256.07 303.27)">of Sur<tspan class="cls-23" x="23.46" y="0">f</tspan><tspan x="26.34" y="0">ace</tspan></text></g></g><g class="cls-3"><path class="cls-4" d="M352,262.56a24.74,24.74,0,0,1-6-1,17.08,17.08,0,0,1-2.88-1,6.91,6.91,0,0,0-2.47-.56,7.81,7.81,0,0,0-4,1.2,1,1,0,1,1-1-1.76,9.45,9.45,0,0,1,5-1.44h0a8.73,8.73,0,0,1,3.19.64,27.71,27.71,0,0,0,2.72.88,19.72,19.72,0,0,0,6,.88,13.48,13.48,0,0,0,5.28-1.28,1,1,0,0,1,.88,1.84h-.08a16.11,16.11,0,0,1-6.08,1.44Z"/><path class="cls-4" d="M352,269.11a24.74,24.74,0,0,1-6-1,14.88,14.88,0,0,1-2.88-1,6.91,6.91,0,0,0-2.47-.56,7.81,7.81,0,0,0-4,1.2,1,1,0,1,1-1-1.76h0a9.52,9.52,0,0,1,5-1.43,8.73,8.73,0,0,1,3.19.64c.64.23,1.52.55,2.72.87a19.72,19.72,0,0,0,6,.88,14.94,14.94,0,0,0,5.28-1.2,1,1,0,1,1,1,1.76c-.08,0-.08,0-.16.08a16.11,16.11,0,0,1-6.08,1.44Z"/><path class="cls-4" d="M352,275.67a24.74,24.74,0,0,1-6-1,17.08,17.08,0,0,1-2.88-1,6.55,6.55,0,0,0-2.47-.56h0a7.81,7.81,0,0,0-4,1.2,1,1,0,1,1-1-1.76,9.45,9.45,0,0,1,5-1.44h0a8.73,8.73,0,0,1,3.19.64,27.71,27.71,0,0,0,2.72.88,19.72,19.72,0,0,0,6,.88,14.94,14.94,0,0,0,5.28-1.2,1,1,0,1,1,1,1.76c-.08,0-.08,0-.16.08a16.11,16.11,0,0,1-6.08,1.44Z"/><text class="cls-5" transform="translate(325 291.75)">Lubri<tspan class="cls-24" x="20.13" y="0">c</tspan><tspan class="cls-10" x="24.08" y="0">a</tspan><tspan x="28.73" y="0">ting</tspan></text></g><g class="cls-3"><path class="cls-6" d="M489,187.54c-1.36-4.31-8.72-6.15-10.08-9.83-.64-2.4-.56-5.12.64-6.88,0,2.4,1.68,5.68,3.2,4,1.44-1.52-3-2.08-2.32-5.6.16-1.6,1.52-2.48,2.08-6.16,1.52,1.52-.88,4.08,2.8,5.6-4.4-5.36,3.44-7.28,2.8-12.39,5.84,5.75.16,9.27,3.28,10.79,1.2.48,2.88-2.64,1.76-5.28,3.44,3,3.12,6.24,1.28,8.72-.72,1,.08,3,1,3.52-.32-1.84,1.28-2.8,1.76-4.56,3.2,3.6,4.4,8-1,11.6A26.41,26.41,0,0,0,489,187.54Z"/><text class="cls-5" transform="translate(473.65 197.07)">He<tspan class="cls-12" x="10.88" y="0">a</tspan><tspan x="15.53" y="0">ting</tspan></text></g><g class="cls-3"><g id="_编组_" data-name=" 编组 "><circle id="_路径_" data-name=" 路径 " class="cls-4" cx="205.07" cy="163.87" r="4.64"/><circle id="_路径_2" data-name=" 路径 2" class="cls-4" cx="214.26" cy="179.95" r="4.64"/><circle id="_路径_3" data-name=" 路径 3" class="cls-4" cx="200.43" cy="171.87" r="4.64"/><circle id="_路径_4" data-name=" 路径 4" class="cls-4" cx="209.62" cy="171.87" r="4.64"/><circle id="_路径_5" data-name=" 路径 5" class="cls-4" cx="195.87" cy="179.95" r="4.64"/><circle id="_路径_6" data-name=" 路径 6" class="cls-4" cx="205.07" cy="179.95" r="4.64"/></g><text class="cls-5" transform="translate(184.21 197.07)"><tspan class="cls-20">R</tspan><tspan x="5.23" y="0">ound Bar</tspan></text></g><g class="cls-3"><path class="cls-4" d="M429.86,172.19V171h.8a12.57,12.57,0,0,0-11.91-11.92v.8h-1.2v-.8A12.57,12.57,0,0,0,405.63,171h.8v1.2h-.8a12.57,12.57,0,0,0,11.92,11.92v-.8h1.2v.8a12.51,12.51,0,0,0,11.91-11.92Zm-21,0h-1.68V171h1.68Zm8.64-11.52h1.2v1.68h-1.2Zm0,2.48h1.2v1.68h-1.2Zm0,2.56h1.2v1.68h-1.2Zm-6.08,6.48h-1.68V171h1.68Zm2.48,0h-1.68V171h1.68Zm4.8,10.32h-1.2v-1.68h1.2Zm0-2.56h-1.2v-1.68h1.2Zm0-2.48h-1.2v-1.68h1.2Zm2.8-5.28h-1.2a2.4,2.4,0,0,1-1.52,1.52v1.2h-1.2v-1.2a2.4,2.4,0,0,1-1.52-1.52h-1.2V171H416a2.23,2.23,0,0,1,1.52-1.52v-1.2h1.2v1.2a2.4,2.4,0,0,1,1.52,1.52h1.2Zm2.47,0h-1.67V171h1.67Zm2.56,0h-1.68V171h1.68Zm2.48,0H427.3V171H429Z"/><text class="cls-5" transform="translate(398.76 197.07)">Ce<tspan class="cls-25" x="9.91" y="0">n</tspan><tspan class="cls-22" x="14.97" y="0">t</tspan><tspan x="18.18" y="0">ering</tspan></text></g><g class="cls-3"><path class="cls-4" d="M576.61,163.79h-33a.63.63,0,0,0-.64.64v1.44H556.3c4.39,0,8,2.64,8,5.92s-3.6,5.92-8,5.92H543v1.44a.63.63,0,0,0,.64.64h33a.63.63,0,0,0,.64-.64h0V164.59C577.25,164,576.93,163.79,576.61,163.79Z"/><text class="cls-5" transform="translate(537.32 197.07)"><tspan class="cls-23">P</tspan><tspan x="4.95" y="0">er</tspan><tspan class="cls-26" x="13.2" y="0">f</tspan><tspan x="16.09" y="0">o</tspan><tspan class="cls-15" x="21.25" y="0">r</tspan><tspan class="cls-12" x="24.45" y="0">a</tspan><tspan x="29.09" y="0">tion</tspan></text></g><g class="cls-3"><path class="cls-4" d="M285.92,183.15l-3.44-23.28a2.56,2.56,0,0,0-2.48-2.15h-7.76a2.43,2.43,0,0,0-2.48,2.15l-3.44,23.28A2.51,2.51,0,0,0,268.4,186h15.12a2.61,2.61,0,0,0,2.56-2.47.44.44,0,0,1-.16-.4Zm-14.24-23a.45.45,0,0,1,.48-.4h7.76a.45.45,0,0,1,.48.4l1.76,11.68H269.92Z"/><text class="cls-5" transform="translate(259.96 197.07)">Anal<tspan class="cls-13" x="18.06" y="0">y</tspan><tspan x="22.65" y="0">tic</tspan></text></g><g class="cls-3"><polygon class="cls-4" points="633.31 364.44 630.83 366.6 630.43 365.48 630.43 365.48 628.99 361.56 615.71 367.48 630.43 356.6 630.99 357.96 631.79 360.36 632.51 362.2 639.54 358.84 633.31 364.44 633.31 364.44"/><path class="cls-4" d="M625.07,358.44a9.12,9.12,0,0,1,15.51-4.72,12.33,12.33,0,0,0-22,9.44Z"/><path class="cls-4" d="M637.15,368.68a8.82,8.82,0,0,1-6.08,0l-1,.88-.56-1.52a9.43,9.43,0,0,1-3.36-3.28l-6.08,2.72a12.35,12.35,0,0,0,23-6.64A9.29,9.29,0,0,1,637.15,368.68Z"/><circle class="cls-4" cx="642.26" cy="357" r="1.6"/><text class="cls-5" transform="translate(614.55 386.36)">Marking</text></g><g class="cls-3"><path class="cls-4" d="M641.3,276.55h-20a3.21,3.21,0,0,1-3.2-3.2V257h1.52v16.47a1.6,1.6,0,0,0,1.6,1.6h20a1.6,1.6,0,0,0,1.6-1.6V257h1.52v16.47A3.06,3.06,0,0,1,641.3,276.55Z"/><path class="cls-4" d="M634.51,275.19a4.4,4.4,0,1,1,4.39-4.4A4.44,4.44,0,0,1,634.51,275.19Zm0-7.28a2.88,2.88,0,1,0,2.87,2.88h0a2.85,2.85,0,0,0-2.87-2.88Z"/><rect class="cls-4" x="618.03" y="260.56" width="26.39" height="1.68"/><text class="cls-5" transform="translate(615.9 291.75)">Pickling</text></g><g class="cls-3"><path class="cls-4" d="M639.78,182.91l-5.27-8.48a8.44,8.44,0,1,0-1.76,1.12L638.1,184a1,1,0,0,0,.88.48,1.48,1.48,0,0,0,.56-.16,1.07,1.07,0,0,0,.24-1.44Zm-12.07-8.8a6.39,6.39,0,1,1,7.6-4.88,6.44,6.44,0,0,1-7.6,4.88Z"/><g class="cls-7"><text class="cls-5" transform="translate(610.42 197.07)">Inspection</text><text class="cls-5" transform="translate(617.13 208.59)"><tspan xml:space="preserve">of  Si</tspan><tspan class="cls-27" x="19.43" y="0">z</tspan><tspan x="23.06" y="0">e</tspan></text></g></g><g class="cls-3"><path class="cls-4" d="M332.3,179.87c-2.4,0-4.16-3.44-4.16-7.92S330,164,332.3,164s4.16,3.44,4.16,7.92S334.7,179.87,332.3,179.87Zm0-14.08c-1,0-2.32,2.4-2.32,6.16s1.36,6.16,2.32,6.16,2.32-2.4,2.32-6.16S333.26,165.79,332.3,165.79Z"/><ellipse class="cls-4" cx="361.81" cy="171.87" rx="3.28" ry="7.04"/><path class="cls-4" d="M361.81,179.87c-2.4,0-4.16-3.44-4.16-7.92s1.84-7.92,4.16-7.92S366,167.47,366,172,364.21,179.87,361.81,179.87Zm0-14.08c-1,0-2.32,2.4-2.32,6.16s1.36,6.16,2.32,6.16,2.4-2.4,2.4-6.16S362.85,165.79,361.81,165.79Z"/><path class="cls-4" d="M346.69,164l-.24.16c-.08-.08-.08-.16-.16-.16H332.38c2.4,0,4.16,3.44,4.16,7.92s-1.84,7.92-4.16,7.92h13.91a2.12,2.12,0,0,0,.4-.48l.72.48h14.48V163.87h-15.2Zm3.12,5.6-1.36.16a20.46,20.46,0,0,0-.4-2.16l1.36-.32a20,20,0,0,1,.4,2.32Zm-1.68-5.44a11.4,11.4,0,0,1,1,2.24l-1.28.4a8.35,8.35,0,0,0-.88-1.92Zm.24,15.2-1.2-.64a8.71,8.71,0,0,0,.8-2l1.28.4A18.63,18.63,0,0,1,348.37,179.31Zm1.12-3.2-1.36-.32a20.1,20.1,0,0,0,.32-2.16l1.36.16A10.82,10.82,0,0,1,349.49,176.11Zm.4-3.28-1.36-.08v-.88a6.47,6.47,0,0,0-.08-1.28l1.36-.08c0,.48.08,1,.08,1.44A3.23,3.23,0,0,1,349.89,172.83Z"/><text class="cls-5" transform="translate(320.37 197.07)">Cut <tspan class="cls-28" x="15.73" y="0">t</tspan><tspan x="18.96" y="0">o Len</tspan><tspan class="cls-29" x="40.33" y="0">g</tspan><tspan x="44.81" y="0">th</tspan></text></g><g class="cls-3"><line class="cls-30" x1="234.42" y1="176.03" x2="243.37" y2="176.03"/><polygon class="cls-31" points="242.65 178.43 246.81 176.03 242.65 173.63 242.65 178.43"/></g><g class="cls-3"><line class="cls-30" x1="305.51" y1="176.03" x2="314.47" y2="176.03"/><polygon class="cls-31" points="313.75 178.43 317.9 176.03 313.75 173.63 313.75 178.43"/></g><g class="cls-3"><line class="cls-30" x1="376.68" y1="176.03" x2="385.64" y2="176.03"/><polygon class="cls-31" points="384.92 178.43 389.08 176.03 384.92 173.63 384.92 178.43"/></g><g class="cls-3"><line class="cls-30" x1="447.78" y1="176.03" x2="456.73" y2="176.03"/><polygon class="cls-31" points="456.01 178.43 460.17 176.03 456.01 173.63 456.01 178.43"/></g><g class="cls-3"><line class="cls-30" x1="518.95" y1="176.03" x2="527.91" y2="176.03"/><polygon class="cls-31" points="527.19 178.43 531.35 176.03 527.19 173.63 527.19 178.43"/></g><g class="cls-3"><line class="cls-30" x1="590.04" y1="176.03" x2="599" y2="176.03"/><polygon class="cls-31" points="598.28 178.43 602.44 176.03 598.28 173.63 598.28 178.43"/></g><g class="cls-3"><line class="cls-30" x1="234.42" y1="270.71" x2="243.37" y2="270.71"/><polygon class="cls-31" points="242.65 273.11 246.81 270.71 242.65 268.31 242.65 273.11"/></g><g class="cls-3"><line class="cls-30" x1="305.51" y1="270.71" x2="314.47" y2="270.71"/><polygon class="cls-31" points="313.75 273.11 317.9 270.71 313.75 268.31 313.75 273.11"/></g><g class="cls-3"><line class="cls-30" x1="376.68" y1="270.71" x2="385.64" y2="270.71"/><polygon class="cls-31" points="384.92 273.11 389.08 270.71 384.92 268.31 384.92 273.11"/></g><g class="cls-3"><line class="cls-30" x1="447.78" y1="270.71" x2="456.73" y2="270.71"/><polygon class="cls-31" points="456.01 273.11 460.17 270.71 456.01 268.31 456.01 273.11"/></g><g class="cls-3"><line class="cls-30" x1="518.95" y1="270.71" x2="527.91" y2="270.71"/><polygon class="cls-31" points="527.19 273.11 531.35 270.71 527.19 268.31 527.19 273.11"/></g><g class="cls-3"><path class="cls-32" d="M406.27,312.06v7.83a4.56,4.56,0,0,1-4.56,4.56H162.28a4.56,4.56,0,0,0-4.56,4.56v31.91a4.56,4.56,0,0,0,4.56,4.56h10.64"/><polygon class="cls-31" points="172.2 367.8 176.36 365.4 172.2 363 172.2 367.8"/></g><g class="cls-3"><line class="cls-30" x1="234.42" y1="365.4" x2="243.37" y2="365.4"/><polygon class="cls-31" points="242.65 367.8 246.81 365.4 242.65 363 242.65 367.8"/></g><g class="cls-3"><line class="cls-30" x1="305.51" y1="365.4" x2="314.47" y2="365.4"/><polygon class="cls-31" points="313.75 367.8 317.9 365.4 313.75 363 313.75 367.8"/></g><g class="cls-3"><line class="cls-30" x1="376.68" y1="365.4" x2="385.64" y2="365.4"/><polygon class="cls-31" points="384.92 367.8 389.08 365.4 384.92 363 384.92 367.8"/></g><g class="cls-3"><line class="cls-30" x1="447.78" y1="365.4" x2="456.73" y2="365.4"/><polygon class="cls-31" points="456.01 367.8 460.17 365.4 456.01 363 456.01 367.8"/></g><g class="cls-3"><line class="cls-30" x1="518.95" y1="365.4" x2="527.91" y2="365.4"/><polygon class="cls-31" points="527.19 367.8 531.35 365.4 527.19 363 527.19 367.8"/></g><g class="cls-3"><line class="cls-30" x1="590.04" y1="365.4" x2="599" y2="365.4"/><polygon class="cls-31" points="598.28 367.8 602.44 365.4 598.28 363 598.28 367.8"/></g><g class="cls-3"><line class="cls-30" x1="660.42" y1="365.4" x2="669.37" y2="365.4"/><polygon class="cls-31" points="668.73 367.8 672.89 365.4 668.73 363 668.73 367.8"/></g><g class="cls-3"><path class="cls-32" d="M660.42,270.71h13.51a4.56,4.56,0,0,1,4.56,4.56V320a4.56,4.56,0,0,1-4.56,4.56H434.5a4.56,4.56,0,0,1-4.56-4.56v-4.39"/><polygon class="cls-31" points="432.34 316.22 429.94 312.06 427.54 316.22 432.34 316.22"/></g><g class="cls-3"><path class="cls-32" d="M660.42,176.59h13.51a4.56,4.56,0,0,1,4.56,4.56v43.9a4.56,4.56,0,0,1-4.56,4.56H162.28a4.56,4.56,0,0,0-4.56,4.56v32a4.56,4.56,0,0,0,4.56,4.56h10.08"/><polygon class="cls-31" points="171.64 273.11 175.8 270.71 171.64 268.31 171.64 273.11"/></g><g class="cls-3"><line class="cls-30" x1="590.04" y1="270.71" x2="599" y2="270.71"/><polygon class="cls-31" points="598.28 273.11 602.44 270.71 598.28 268.31 598.28 273.11"/></g><text class="cls-33" transform="translate(524.2 320.55)"><tspan class="cls-34">F</tspan><tspan x="3.57" y="0">or S</tspan><tspan class="cls-35" x="16.3" y="0">e</tspan><tspan class="cls-36" x="20.29" y="0">v</tspan><tspan x="24" y="0">e</tspan><tspan class="cls-37" x="28.02" y="0">r</tspan><tspan class="cls-38" x="30.69" y="0">al Times</tspan></text><text class="cls-33" transform="translate(255.6 320.55)">Final <tspan class="cls-39" x="17.65" y="0">T</tspan><tspan class="cls-40" x="21.2" y="0">r</tspan><tspan x="23.95" y="0">e</tspan><tspan class="cls-36" x="27.97" y="0">a</tspan><tspan class="cls-41" x="31.85" y="0">tme</tspan><tspan class="cls-36" x="45.15" y="0">n</tspan><tspan x="49.37" y="0">t</tspan></text></svg>