<svg id="图层_1" data-name="图层 1" xmlns="http://www.w3.org/2000/svg" viewBox="0 0 850.4 566.9"><defs><style>.cls-1{fill:#fff;}.cls-2,.cls-5,.cls-7{fill:none;}.cls-2{stroke:#eee;}.cls-2,.cls-5,.cls-6{stroke-miterlimit:10;}.cls-3,.cls-4,.cls-6{fill:#999;}.cls-10,.cls-11,.cls-12,.cls-13,.cls-14,.cls-4,.cls-9{isolation:isolate;}.cls-11,.cls-12,.cls-13,.cls-14,.cls-4,.cls-9{font-size:9.6px;}.cls-11,.cls-12,.cls-13,.cls-14,.cls-16,.cls-4,.cls-9{font-family:Calibri-Bold, Calibri;font-weight:700;}.cls-5,.cls-6,.cls-7{stroke:#999;}.cls-5,.cls-7{stroke-linecap:round;stroke-width:1.6px;}.cls-6{stroke-width:0.89px;}.cls-7{stroke-linejoin:round;}.cls-11,.cls-12,.cls-13,.cls-14,.cls-15,.cls-16,.cls-8,.cls-9{fill:#989898;}.cls-11{letter-spacing:-0.02em;}.cls-12{letter-spacing:-0.01em;}.cls-13{letter-spacing:-0.01em;}.cls-14{letter-spacing:-0.03em;}.cls-15{fill-rule:evenodd;}.cls-16{font-size:9.6px;}</style></defs><rect class="cls-1" width="850.4" height="566.9"/><line class="cls-2" x1="850.4" y1="46.7" y2="46.7"/><line class="cls-2" x1="850.4" y1="165.1" y2="165.1"/><line class="cls-2" x1="850.4" y1="283.5" y2="283.5"/><line class="cls-2" x1="850.4" y1="401.9" y2="401.9"/><line class="cls-2" x1="850.4" y1="105.9" y2="105.9"/><line class="cls-2" x1="850.4" y1="224.3" y2="224.3"/><line class="cls-2" x1="850.4" y1="342.7" y2="342.7"/><line class="cls-2" x1="850.4" y1="461" y2="461"/><line class="cls-2" x1="850.4" y1="520.2" y2="520.2"/><line class="cls-2" x1="850.4" y1="135.5" y2="135.5"/><line class="cls-2" x1="850.4" y1="253.9" y2="253.9"/><line class="cls-2" x1="850.4" y1="372.3" y2="372.3"/><line class="cls-2" x1="850.4" y1="76.3" y2="76.3"/><line class="cls-2" x1="850.4" y1="17.1" y2="17.1"/><line class="cls-2" x1="850.4" y1="194.7" y2="194.7"/><line class="cls-2" x1="850.4" y1="313.1" y2="313.1"/><line class="cls-2" x1="850.4" y1="431.4" y2="431.4"/><line class="cls-2" x1="850.4" y1="490.6" y2="490.6"/><line class="cls-2" x1="850.4" y1="549.8" y2="549.8"/><line class="cls-2" x1="10.8" x2="10.8" y2="566.9"/><line class="cls-2" x1="129.2" x2="129.2" y2="566.9"/><line class="cls-2" x1="247.6" x2="247.6" y2="566.9"/><line class="cls-2" x1="366" x2="366" y2="566.9"/><line class="cls-2" x1="484.4" x2="484.4" y2="566.9"/><line class="cls-2" x1="602.8" x2="602.8" y2="566.9"/><line class="cls-2" x1="839.5" x2="839.5" y2="566.9"/><line class="cls-2" x1="721.2" x2="721.2" y2="566.9"/><line class="cls-2" x1="70" x2="70" y2="566.9"/><line class="cls-2" x1="188.4" x2="188.4" y2="566.9"/><line class="cls-2" x1="306.8" x2="306.8" y2="566.9"/><line class="cls-2" x1="425.2" x2="425.2" y2="566.9"/><line class="cls-2" x1="543.6" x2="543.6" y2="566.9"/><line class="cls-2" x1="662" x2="662" y2="566.9"/><line class="cls-2" x1="780.4" x2="780.4" y2="566.9"/><line class="cls-2" x1="810" x2="810" y2="566.9"/><line class="cls-2" x1="99.6" x2="99.6" y2="566.9"/><line class="cls-2" x1="218" x2="218" y2="566.9"/><line class="cls-2" x1="336.4" x2="336.4" y2="566.9"/><line class="cls-2" x1="454.8" x2="454.8" y2="566.9"/><line class="cls-2" x1="573.2" x2="573.2" y2="566.9"/><line class="cls-2" x1="691.6" x2="691.6" y2="566.9"/><line class="cls-2" x1="40.4" x2="40.4" y2="566.9"/><line class="cls-2" x1="158.8" x2="158.8" y2="566.9"/><line class="cls-2" x1="277.2" x2="277.2" y2="566.9"/><line class="cls-2" x1="395.6" x2="395.6" y2="566.9"/><line class="cls-2" x1="514" x2="514" y2="566.9"/><line class="cls-2" x1="632.4" x2="632.4" y2="566.9"/><line class="cls-2" x1="750.8" x2="750.8" y2="566.9"/><path class="cls-3" d="M399.4,376.9,396,353.6a2.76,2.76,0,0,0-2.5-2.2h-7.8a2.42,2.42,0,0,0-2.5,2.2l-3.4,23.3a2.57,2.57,0,0,0,2.1,2.9H397a2.63,2.63,0,0,0,2.6-2.5C399.4,377.2,399.4,377.1,399.4,376.9ZM385.1,354c0-.2.3-.4.5-.4h7.8c.2,0,.5.2.5.4l1.8,11.7H383.4Z"/><text class="cls-4" transform="translate(373.43 390.83)">Anal</text><text class="cls-4" transform="translate(391.49 390.83)">y</text><text class="cls-4" transform="translate(396.08 390.83)">tic</text><path class="cls-3" d="M530.8,356.6h-9.9v12.3h14V356.6Zm-2.3,1.8a.7.7,0,1,1-.7-.7.67.67,0,0,1,.7.66Zm-4.9,0a.7.7,0,1,1-.7-.7h0a.67.67,0,0,1,.7.66Zm1.2-.7h1v4.2h-1Zm-2.7,9.3a.7.7,0,1,1,.7.7h0A.74.74,0,0,1,522.1,367Zm2.7.7v-4.1h1v4.1Zm2.3-.7a.7.7,0,1,1,.7.7.67.67,0,0,1-.7-.66Zm4.9,0a.7.7,0,1,1,.7.7h0a.85.85,0,0,1-.7-.7Zm-1.2.7h-1v-4.1h1Zm-1-5.8v-4.2h1v4.2Zm3.7-3.5a.7.7,0,1,1-.7-.7h0a.67.67,0,0,1,.7.66Z"/><circle class="cls-3" cx="521.2" cy="373.3" r="1.8"/><path class="cls-3" d="M521.2,371.8a1.35,1.35,0,0,0-1.4,1.3h0v.1h2.8a1.37,1.37,0,0,0-1.34-1.4Z"/><path class="cls-3" d="M515.5,369.4v3.8h3.4a2.3,2.3,0,1,1,4.6-.2v.2H536v-3.8Z"/><circle class="cls-3" cx="542.8" cy="373.3" r="1.8"/><path class="cls-3" d="M542.8,371.8a1.35,1.35,0,0,0-1.4,1.3h0v.1h2.8A1.43,1.43,0,0,0,542.8,371.8Z"/><path class="cls-3" d="M544.3,361.2h-7.4v12.1h3.7a2.3,2.3,0,1,1,4.6-.2v.2h3.7v-5.4Z"/><text class="cls-4" transform="translate(511.85 390.83)">P</text><text class="cls-4" transform="translate(516.77 390.83)">acking &amp;</text><text class="cls-4" transform="translate(514.41 402.35)">Shipping</text><polygon class="cls-3" points="462.8 368.9 460.3 371.1 459.9 370 459.9 370 458.5 366.1 445.2 372 459.9 361.1 460.5 362.5 461.3 364.9 462 366.7 469 363.3 462.8 368.9"/><path class="cls-3" d="M454.6,362.9a9.12,9.12,0,0,1,15.5-4.8,12.4,12.4,0,0,0-14-4.2,12.26,12.26,0,0,0-8,13.6Z"/><path class="cls-3" d="M466.6,373.2a9.12,9.12,0,0,1-6.1,0l-1,.9-.6-1.5a9.05,9.05,0,0,1-3.4-3.3l-6.1,2.7a12.41,12.41,0,0,0,23.1-6.7A8.84,8.84,0,0,1,466.6,373.2Z"/><circle class="cls-3" cx="471.8" cy="361.5" r="1.6"/><text class="cls-4" transform="translate(444.08 390.83)">Marking</text><line class="cls-5" x1="277.1" y1="180.5" x2="286.1" y2="180.5"/><polygon class="cls-6" points="285.3 182.9 289.5 180.5 285.3 178.1 285.3 182.9"/><line class="cls-5" x1="348.3" y1="180.5" x2="357.2" y2="180.5"/><polygon class="cls-6" points="356.5 182.9 360.7 180.5 356.5 178.1 356.5 182.9"/><line class="cls-5" x1="419.4" y1="180.5" x2="428.3" y2="180.5"/><polygon class="cls-6" points="427.6 182.9 431.8 180.5 427.6 178.1 427.6 182.9"/><line class="cls-5" x1="490.5" y1="180.5" x2="499.5" y2="180.5"/><polygon class="cls-6" points="498.8 182.9 502.9 180.5 498.8 178.1 498.8 182.9"/><line class="cls-5" x1="561.6" y1="180.5" x2="570.6" y2="180.5"/><polygon class="cls-6" points="569.9 182.9 574 180.5 569.9 178.1 569.9 182.9"/><line class="cls-5" x1="277.1" y1="275.2" x2="286.1" y2="275.2"/><polygon class="cls-6" points="285.3 277.6 289.5 275.2 285.3 272.8 285.3 277.6"/><line class="cls-5" x1="348.3" y1="275.2" x2="357.2" y2="275.2"/><polygon class="cls-6" points="356.5 277.6 360.7 275.2 356.5 272.8 356.5 277.6"/><line class="cls-5" x1="419.4" y1="275.2" x2="428.3" y2="275.2"/><polygon class="cls-6" points="427.6 277.6 431.8 275.2 427.6 272.8 427.6 277.6"/><line class="cls-5" x1="490.5" y1="275.2" x2="499.5" y2="275.2"/><polygon class="cls-6" points="498.8 277.6 502.9 275.2 498.8 272.8 498.8 277.6"/><line class="cls-5" x1="277.1" y1="369.9" x2="286.1" y2="369.9"/><polygon class="cls-6" points="285.3 372.3 289.5 369.9 285.3 367.5 285.3 372.3"/><line class="cls-5" x1="348.3" y1="369.9" x2="357.2" y2="369.9"/><polygon class="cls-6" points="356.5 372.3 360.7 369.9 356.5 367.5 356.5 372.3"/><line class="cls-5" x1="419.4" y1="369.9" x2="428.3" y2="369.9"/><polygon class="cls-6" points="427.6 372.3 431.8 369.9 427.6 367.5 427.6 372.3"/><line class="cls-5" x1="490.5" y1="369.9" x2="499.5" y2="369.9"/><polygon class="cls-6" points="498.8 372.3 502.9 369.9 498.8 367.5 498.8 372.3"/><path class="cls-7" d="M632,181.1h13.5a4.6,4.6,0,0,1,4.6,4.58v0h0v43.9a4.6,4.6,0,0,1-4.58,4.6H204.9a4.59,4.59,0,0,0-4.6,4.58v0h0v32a4.59,4.59,0,0,0,4.58,4.6H215"/><polygon class="cls-6" points="214.2 277.8 218.4 275.4 214.2 273 214.2 277.8"/><line class="cls-5" x1="561.6" y1="275.2" x2="570.6" y2="275.2"/><polygon class="cls-6" points="569.9 277.6 574 275.2 569.9 272.8 569.9 277.6"/><path class="cls-8" d="M258.7,168.9a3.1,3.1,0,0,0-3.1,3v12.9a1.32,1.32,0,0,1-1.3,1.3H240.9a1.32,1.32,0,0,1-1.3-1.3V172a3,3,0,0,0-3-3h-5.4v1.7h5.3a1.32,1.32,0,0,1,1.3,1.3v12.9a3.12,3.12,0,0,0,3.1,3.1h13.4a3.12,3.12,0,0,0,3.1-3.1V172a1.32,1.32,0,0,1,1.3-1.3H264V169h-5.3Z"/><path class="cls-8" d="M240.4,184.9a.47.47,0,0,0,.44.5H254.3a.47.47,0,0,0,.5-.44v-.06h0V174.5c-1.5-.1-3.7-.3-4.7-.3-1.6,0-4.8.8-6,.1-.7-.4-2.4-.3-3.7-.2Z"/><path class="cls-8" d="M243.5,172.3h-.2a.58.58,0,0,1-.4-.7h0a5.71,5.71,0,0,0,0-2.6,6.92,6.92,0,0,1,0-3.5.56.56,0,0,1,.7-.35l.1,0a.67.67,0,0,1,.4.7h0a6.61,6.61,0,0,0,0,2.8,6.16,6.16,0,0,1,0,3.3A.71.71,0,0,1,243.5,172.3Z"/><path class="cls-8" d="M247.6,172.3h-.2a.58.58,0,0,1-.4-.7h0a5.71,5.71,0,0,0,0-2.6,6.92,6.92,0,0,1,0-3.5.56.56,0,0,1,.7-.35l.1,0a.67.67,0,0,1,.4.7,6.61,6.61,0,0,0,0,2.8,6.16,6.16,0,0,1,0,3.3A.61.61,0,0,1,247.6,172.3Z"/><path class="cls-8" d="M251.8,172.3h-.2a.63.63,0,0,1-.4-.8h0a5.71,5.71,0,0,0,0-2.6,6.92,6.92,0,0,1,0-3.5.57.57,0,1,1,1.1.3h0a6.61,6.61,0,0,0,0,2.8,6.16,6.16,0,0,1,0,3.3C252.3,172.2,252.1,172.3,251.8,172.3Z"/><text class="cls-9" transform="translate(237.75 201.54)">S</text><text class="cls-9" transform="translate(242.29 201.54)">t</text><text class="cls-9" transform="translate(245.5 201.54)">eel</text><text class="cls-9" transform="translate(232.74 213.06)">Making</text><path class="cls-7" d="M632,275.2h13.5a4.6,4.6,0,0,1,4.6,4.58v0h0v43.9a4.6,4.6,0,0,1-4.58,4.6H204.9a4.59,4.59,0,0,0-4.6,4.58v0h0v32a4.59,4.59,0,0,0,4.58,4.6H215"/><polygon class="cls-6" points="214.2 371.9 218.4 369.5 214.2 367.1 214.2 371.9"/><line class="cls-5" x1="561.6" y1="275.2" x2="570.6" y2="275.2"/><path class="cls-8" d="M532.6,258.9a12.2,12.2,0,1,0,12.2,12.2h0a12.18,12.18,0,0,0-12.16-12.2Zm0,23.1a10.9,10.9,0,1,1,10.9-10.9A10.9,10.9,0,0,1,532.6,282Z"/><path class="cls-8" d="M532.6,260.8A10.2,10.2,0,1,0,542.8,271h0a10.18,10.18,0,0,0-10.16-10.2Zm0,19.2a8.9,8.9,0,1,1,8.9-8.9A8.89,8.89,0,0,1,532.6,280Z"/><path class="cls-8" d="M532.6,262.9a8.2,8.2,0,1,0,8.2,8.2h0A8.24,8.24,0,0,0,532.6,262.9Zm0,15.1a7,7,0,1,1,7-7A7,7,0,0,1,532.6,278Z"/><path id="_矩形_" data-name=" 矩形 " class="cls-8" d="M518.8,282H532a.65.65,0,0,1,.6.6h0a.65.65,0,0,1-.6.6H518.9a.65.65,0,0,1-.6-.6h0a.47.47,0,0,1,.32-.58A.37.37,0,0,1,518.8,282Z"/><text class="cls-9" transform="translate(524.8 296.22)">Coil</text><path class="cls-8" d="M471.7,263a5.06,5.06,0,1,0,.08,0Zm0,9.7a4.6,4.6,0,1,1,4.6-4.6h0a4.53,4.53,0,0,1-4.46,4.6Z"/><path class="cls-8" d="M471.7,273.5a5.4,5.4,0,1,1,5.4-5.4h0a5.38,5.38,0,0,1-5.36,5.4Zm0-10.2a4.86,4.86,0,1,0,.08,0Zm0,9.7a4.85,4.85,0,1,1,4.8-4.9h0a4.76,4.76,0,0,1-4.62,4.9Zm0-9.2a4.3,4.3,0,1,0,4.3,4.3h0a4.27,4.27,0,0,0-4.24-4.3Z"/><path class="cls-8" d="M471.7,264.7a3.4,3.4,0,1,0,3.4,3.4h0a3.37,3.37,0,0,0-3.34-3.4Zm0,6.4a2.9,2.9,0,1,1,2.9-2.9h0A2.9,2.9,0,0,1,471.7,271.1Z"/><path class="cls-8" d="M471.7,271.8a3.7,3.7,0,1,1,3.7-3.7h0a3.63,3.63,0,0,1-3.56,3.7Zm0-6.3a2.7,2.7,0,1,0,2.7,2.7,2.7,2.7,0,0,0-2.7-2.7Z"/><path class="cls-8" d="M449.4,263a5.1,5.1,0,1,0,5.1,5.1,5,5,0,0,0-4.9-5.1Zm0,9.7a4.6,4.6,0,1,1,4.6-4.6h0a4.59,4.59,0,0,1-4.58,4.6Z"/><path class="cls-8" d="M449.4,273.5a5.4,5.4,0,1,1,5.4-5.4h0a5.38,5.38,0,0,1-5.36,5.4Zm0-10.2a4.86,4.86,0,1,0,.08,0Zm0,9.7a4.85,4.85,0,1,1,4.8-4.9h0a4.76,4.76,0,0,1-4.62,4.9Zm0-9.2a4.3,4.3,0,1,0,4.3,4.3h0a4.27,4.27,0,0,0-4.24-4.3Z"/><path class="cls-8" d="M449.4,264.7a3.4,3.4,0,1,0,3.4,3.4h0a3.37,3.37,0,0,0-3.34-3.4Zm0,6.4a2.9,2.9,0,1,1,2.9-2.9h0A2.9,2.9,0,0,1,449.4,271.1Z"/><path class="cls-8" d="M449.4,271.8a3.7,3.7,0,1,1,3.7-3.7h0a3.63,3.63,0,0,1-3.56,3.7Zm0-6.3a2.7,2.7,0,1,0,2.7,2.7,2.7,2.7,0,0,0-2.7-2.7Z"/><g id="_编组_4" data-name=" 编组 4"><path class="cls-8" d="M450.2,272.7h21.1a.22.22,0,0,1,.2.2v.1a.22.22,0,0,1-.2.2H450.2a.22.22,0,0,1-.2-.2v-.1C450,272.8,450,272.7,450.2,272.7Z"/><path class="cls-8" d="M470.9,273.5H450.5c-.6,0-1.1-.2-1.1-.5s.5-.5,1.1-.5h20.4c.6,0,1.1.2,1.1.5S471.5,273.5,470.9,273.5Z"/></g><circle class="cls-8" cx="460.7" cy="268.5" r="4"/><circle class="cls-8" cx="460.7" cy="277.5" r="4"/><g class="cls-10"><text class="cls-9" transform="translate(440.66 296.22)">Skin-</text><text class="cls-11" transform="translate(460.25 296.22)">P</text><text class="cls-9" transform="translate(465.18 296.22)">ass-</text></g><text class="cls-9" transform="translate(452.96 307.72)">Mill</text><path class="cls-8" d="M317.4,166.4l-2.8,4.3a1.53,1.53,0,0,1-2.1.56l-.1-.06h0l-3.8-2.4a1.63,1.63,0,0,1-.54-2.24l0-.06,4.5-7a.46.46,0,0,0-.1-.6h0l-.4-.2a.46.46,0,0,0-.6.1h0l-4.5,7.1a2.84,2.84,0,0,0,.8,3.94l.1.06,3.9,2.5a2.84,2.84,0,0,0,3.94-.8l.06-.1h0l2.6-4.1a4.05,4.05,0,0,1,4.2-1.8l.1-.1-.9-.6a2.88,2.88,0,0,0-2.4-.1A3.61,3.61,0,0,0,317.4,166.4Z"/><path class="cls-8" d="M322.9,168.4h.2a.67.67,0,0,1,.7.66V190.6a.67.67,0,0,1-.66.7h-.24a.67.67,0,0,1-.7-.66V169.1A.74.74,0,0,1,322.9,168.4Z"/><path class="cls-8" d="M328.8,191.3h-.2a.67.67,0,0,1-.7-.66V169.1a.67.67,0,0,1,.66-.7h.24a.67.67,0,0,1,.7.66V190.6a.67.67,0,0,1-.66.7Z"/><path class="cls-8" d="M317.2,166.4l-2.8,4.3a1.53,1.53,0,0,1-2.1.56l-.1-.06-3.7-2.4a1.53,1.53,0,0,1-.56-2.1l.06-.1,4.5-7a.46.46,0,0,0-.1-.6h0l-.4-.2a.46.46,0,0,0-.6.1h0l-4.5,7.1a2.84,2.84,0,0,0,.8,3.94l.1.06h0l3.9,2.5a2.84,2.84,0,0,0,3.94-.8l.06-.1,2.6-4.1a4.05,4.05,0,0,1,4.2-1.8l.1-.1-.9-.6a2.88,2.88,0,0,0-2.4-.1A2.82,2.82,0,0,0,317.2,166.4Z"/><path class="cls-8" d="M322.6,164.2c-.2-.1-.3-.2-.5-.3a6.92,6.92,0,0,0-2.5-.5h-1.4a22.55,22.55,0,0,0-2.6,0h-3.1a6.05,6.05,0,0,0-1.9,0l-2.2,3.4a1.19,1.19,0,0,0,.32,1.65l.08.05h0l3.7,2.4a1.19,1.19,0,0,0,1.65-.32l.05-.08h0l2.8-4.3a4.33,4.33,0,0,1,2.1-1.7,3.6,3.6,0,0,1,2.7.1h0a4.67,4.67,0,0,1,1.4,1.4h0a8.82,8.82,0,0,1,1.3,4.5v20.8h2.4V172.5a10.14,10.14,0,0,0-4-8A.72.72,0,0,0,322.6,164.2Z"/><g class="cls-10"><text class="cls-9" transform="translate(308.21 201.54)">In</text><text class="cls-12" transform="translate(315.92 201.54)">g</text><text class="cls-9" transform="translate(320.38 201.54)">ot</text></g><g class="cls-10"><text class="cls-9" transform="translate(304.11 213.04)">Ca</text><text class="cls-13" transform="translate(313.93 213.04)">s</text><text class="cls-9" transform="translate(317.65 213.04)">ting</text></g><path class="cls-8" d="M386.6,166.4l-2.8,4.3a1.53,1.53,0,0,1-2.1.56l-.1-.06-3.8-2.4a1.63,1.63,0,0,1-.54-2.24l0-.06,4.5-7a.46.46,0,0,0-.1-.6h0l-.4-.2a.46.46,0,0,0-.6.1h0l-4.5,7.1a2.84,2.84,0,0,0,.8,3.94l.1.06,3.9,2.5a2.84,2.84,0,0,0,3.94-.8l.06-.1,2.6-4.1a4.05,4.05,0,0,1,4.2-1.8l.1-.1-.9-.5a2.88,2.88,0,0,0-2.4-.1A3.11,3.11,0,0,0,386.6,166.4Z"/><path class="cls-8" d="M397.7,173.7l-1-.6a.37.37,0,0,1-.1-.3l3.6-5.5a.37.37,0,0,1,.3-.1l1,.6a.37.37,0,0,1,.1.3l-3.6,5.5C397.9,173.7,397.8,173.8,397.7,173.7Z"/><path class="cls-8" d="M388.4,167.8l1-.6c.1-.1.2,0,.3.1l3.6,5.5c.1.1,0,.2-.1.3l-1,.6c-.1.1-.2,0-.3-.1l-3.6-5.5C388.2,168.1,388.3,167.9,388.4,167.8Z"/><path class="cls-8" d="M391.8,164.2c-.2-.1-.3-.2-.5-.3a6.92,6.92,0,0,0-2.5-.5h-1.4a22.55,22.55,0,0,0-2.6,0h-3.1a6.05,6.05,0,0,0-1.9,0l-2.2,3.4a1.19,1.19,0,0,0,.32,1.65l.08.05h0l3.7,2.4a1.19,1.19,0,0,0,1.65-.32l0-.08h0l2.8-4.3a4.33,4.33,0,0,1,2.1-1.7,3.6,3.6,0,0,1,2.7.1h0a4.67,4.67,0,0,1,1.4,1.4h0a8.82,8.82,0,0,1,1.3,4.5v20.8h2.4V172.5a10,10,0,0,0-4-8A.72.72,0,0,0,391.8,164.2Z"/><path class="cls-8" d="M390.4,177.3h2.4a.47.47,0,0,1,.5.44v3.06a.47.47,0,0,1-.44.5H390.4a.47.47,0,0,1-.5-.44V177.8A.54.54,0,0,1,390.4,177.3Z"/><path class="cls-8" d="M399.7,187.4h-2.4a.47.47,0,0,1-.5-.44V183.9a.47.47,0,0,1,.44-.5h2.46a.47.47,0,0,1,.5.44v3.06a.47.47,0,0,1-.44.5Z"/><g class="cls-10"><text class="cls-9" transform="translate(366.84 201.54)">Co</text><text class="cls-13" transform="translate(377.08 201.54)">n</text><text class="cls-9" transform="translate(382.14 201.54)">tinuous</text></g><g class="cls-10"><text class="cls-9" transform="translate(375.04 213.04)">Ca</text><text class="cls-13" transform="translate(384.86 213.04)">s</text><text class="cls-9" transform="translate(388.58 213.04)">ting</text></g><circle class="cls-8" cx="460.7" cy="169.9" r="2.8"/><circle class="cls-8" cx="460.7" cy="174.5" r="1.5"/><circle class="cls-8" cx="460.7" cy="183.7" r="2.8"/><circle class="cls-8" cx="460.7" cy="179.1" r="1.5"/><path class="cls-8" d="M446.3,176H475a.79.79,0,0,1,.8.78v0h0a.79.79,0,0,1-.78.8H446.3a.79.79,0,0,1-.8-.78v0h0C445.6,176.4,445.9,176,446.3,176Z"/><g class="cls-10"><text class="cls-11" transform="translate(441.94 201.54)">R</text><text class="cls-9" transform="translate(447.18 201.54)">oughing</text></g><g class="cls-10"><text class="cls-11" transform="translate(447.04 213.04)">R</text><text class="cls-9" transform="translate(452.28 213.04)">olling</text></g><path class="cls-8" d="M519.2,182.2a8.16,8.16,0,1,0-1.8-11.4A8.06,8.06,0,0,0,519,182.08Zm9.1-12.6a7.37,7.37,0,1,1-8.7,11.9,7.47,7.47,0,0,1-1.7-10.3,7.68,7.68,0,0,1,10.4-1.6Z"/><path class="cls-8" d="M524,183.9a8,8,0,0,1-4.9-1.6h0a8.31,8.31,0,1,1,11.6-1.9,7.83,7.83,0,0,1-6.7,3.5Zm-4.7-1.8a8,8,0,1,0-1.8-11.2h0a8,8,0,0,0,1.77,11.18l0,0Zm4.7,1a7.5,7.5,0,1,1,7.5-7.5h0a7.46,7.46,0,0,1-7.4,7.5Zm0-14.7a7.2,7.2,0,1,0,7.2,7.2A7.3,7.3,0,0,0,524,168.4Z"/><path class="cls-8" d="M520.5,180.4a5.94,5.94,0,1,0-1.3-8.3h0A6,6,0,0,0,520.5,180.4Zm6.4-8.9a5,5,0,1,1-7,1.1h0A5.06,5.06,0,0,1,526.9,171.5Z"/><path class="cls-8" d="M524,181.7a6.08,6.08,0,0,1-3.5-1.1h0a6.09,6.09,0,1,1,7.1-9.9,5.84,5.84,0,0,1,2.4,4,6.17,6.17,0,0,1-5,7A3.35,3.35,0,0,0,524,181.7Zm-3.4-1.4a5.8,5.8,0,1,0-1.3-8.1h0A5.87,5.87,0,0,0,520.6,180.3Zm3.4.5a5.2,5.2,0,0,1,0-10.4,4.53,4.53,0,0,1,3,1h0a5.35,5.35,0,0,1,1.2,7.3,5.26,5.26,0,0,1-4.2,2.1Zm0-10.1a4.9,4.9,0,1,0,4.9,4.9,5.07,5.07,0,0,0-2-4A5.28,5.28,0,0,0,524,170.7Z"/><g id="_编组_2" data-name=" 编组 2"><path class="cls-8" d="M546.5,182.8l-18-13a.63.63,0,0,1-.1-.4l.2-.2a.63.63,0,0,1,.4-.1l18,13a.63.63,0,0,1,.1.4l-.2.2C546.8,182.9,546.7,182.9,546.5,182.8Z"/><path class="cls-8" d="M546.7,183.1c-.1,0-.2,0-.2-.1l-18-13c-.1-.1-.2-.2-.2-.3a.37.37,0,0,1,.1-.3l.2-.2c.1-.2.4-.2.6-.1l18,13c.1.1.2.2.2.3a.37.37,0,0,1-.1.3l-.2.2A.52.52,0,0,1,546.7,183.1Zm-17.9-13.9a.09.09,0,0,0-.1.1l-.2.2v.1a.09.09,0,0,0,.1.1l18,13h.2l.2-.2v-.1a.09.09,0,0,0-.1-.1l-18.1-13.1Z"/></g><path class="cls-8" d="M540.8,183.9l-7-5a.92.92,0,0,1-.2-1.1l1.3-1.8a.92.92,0,0,1,1.1-.2l7,5a.92.92,0,0,1,.2,1.1l-1.3,1.8A.94.94,0,0,1,540.8,183.9Z"/><path class="cls-8" d="M544,179.4l-7-5a.92.92,0,0,1-.2-1.1l1.3-1.8a.92.92,0,0,1,1.1-.2l7,5a.92.92,0,0,1,.2,1.1l-1.3,1.8a.73.73,0,0,1-1,.27Z"/><circle class="cls-8" cx="524" cy="175.6" r="3.4"/><g class="cls-10"><text class="cls-9" transform="translate(516.89 201.54)">S</text><text class="cls-12" transform="translate(521.43 201.54)">t</text><text class="cls-9" transform="translate(524.64 201.54)">ec</text><text class="cls-14" transform="translate(533.49 201.54)">k</text><text class="cls-9" transform="translate(537.83 201.54)">el</text></g><text class="cls-9" transform="translate(523.39 213.04)">Mill</text><path class="cls-8" d="M329.7,264.6a5.1,5.1,0,1,0,5.1,5.1h0a5.07,5.07,0,0,0-5-5.1Zm0,9.7a4.6,4.6,0,1,1,4.6-4.6h0a4.53,4.53,0,0,1-4.46,4.6Z"/><path class="cls-8" d="M329.7,275.1a5.4,5.4,0,1,1,5.4-5.4h0a5.38,5.38,0,0,1-5.36,5.4Zm0-10.2a4.9,4.9,0,1,0,4.9,4.9h0A4.92,4.92,0,0,0,329.7,264.9Zm0,9.7a4.85,4.85,0,1,1,4.8-4.9h0a4.76,4.76,0,0,1-4.62,4.9Zm0-9.2a4.3,4.3,0,1,0,4.3,4.3h0a4.27,4.27,0,0,0-4.24-4.3Z"/><path class="cls-8" d="M329.7,266.3a3.4,3.4,0,1,0,3.4,3.4h0a3.37,3.37,0,0,0-3.34-3.4Zm0,6.4a2.9,2.9,0,1,1,2.9-2.9h0a2.78,2.78,0,0,1-2.65,2.9Z"/><path class="cls-8" d="M329.7,273.5a3.7,3.7,0,1,1,3.7-3.7h0a3.69,3.69,0,0,1-3.68,3.7Zm0-6.4a2.7,2.7,0,1,0,2.7,2.7h0a2.68,2.68,0,0,0-2.68-2.7Z"/><path class="cls-8" d="M307.4,264.6a5.1,5.1,0,1,0,5.1,5.1,5,5,0,0,0-4.9-5.1Zm0,9.7a4.6,4.6,0,1,1,4.6-4.6h0a4.53,4.53,0,0,1-4.46,4.6Z"/><path class="cls-8" d="M307.4,275.1a5.4,5.4,0,1,1,5.4-5.4h0a5.38,5.38,0,0,1-5.36,5.4Zm0-10.2a4.9,4.9,0,1,0,4.9,4.9h0A4.92,4.92,0,0,0,307.4,264.9Zm0,9.7a4.85,4.85,0,1,1,4.8-4.9h0a4.76,4.76,0,0,1-4.62,4.9Zm0-9.2a4.3,4.3,0,1,0,4.3,4.3h0a4.27,4.27,0,0,0-4.24-4.3Z"/><path class="cls-8" d="M307.4,266.3a3.4,3.4,0,1,0,3.4,3.4h0a3.37,3.37,0,0,0-3.34-3.4Zm0,6.4a2.9,2.9,0,1,1,2.9-2.9h0a2.78,2.78,0,0,1-2.65,2.9Z"/><path class="cls-8" d="M307.4,273.5a3.7,3.7,0,1,1,3.7-3.7h0a3.69,3.69,0,0,1-3.68,3.7Zm0-6.4a2.7,2.7,0,1,0,2.7,2.7h0a2.68,2.68,0,0,0-2.68-2.7Z"/><g id="_编组_3" data-name=" 编组 3"><path class="cls-8" d="M308.2,274.3h21.1a.22.22,0,0,1,.2.2v.1a.22.22,0,0,1-.2.2H308.2a.22.22,0,0,1-.2-.2v-.1A.22.22,0,0,1,308.2,274.3Z"/><path class="cls-8" d="M328.9,275.1H308.5c-.6,0-1.1-.2-1.1-.5s.5-.5,1.1-.5h20.4c.6,0,1.1.2,1.1.5S329.5,275.1,328.9,275.1Z"/></g><circle class="cls-8" cx="318.7" cy="271.7" r="2.3"/><circle class="cls-8" cx="318.7" cy="277.5" r="2.3"/><polygon class="cls-8" points="315.1 272.8 315.1 268.2 322.3 268.2 322.3 272.8 323.5 272.8 323.5 267 313.9 267 313.9 272.8 315.1 272.8"/><polygon class="cls-8" points="322.3 276.5 322.3 281.1 315.1 281.1 315.1 276.5 313.9 276.5 313.9 282.3 323.5 282.3 323.5 276.5 322.3 276.5"/><text class="cls-9" transform="translate(309.93 296.22)">Cold</text><g class="cls-10"><text class="cls-11" transform="translate(305.13 307.72)">R</text><text class="cls-9" transform="translate(310.37 307.72)">olling</text></g><path class="cls-8" d="M257.7,280.8h-20a3.15,3.15,0,0,1-3.2-3.12V261.2h1.6v16.4a1.58,1.58,0,0,0,1.56,1.6h20a1.58,1.58,0,0,0,1.6-1.56V261.2h1.6v16.4A3.36,3.36,0,0,1,257.7,280.8Z"/><rect class="cls-8" x="234.4" y="264.8" width="26.4" height="1.7"/><path class="cls-8" d="M251.6,270.2a3.9,3.9,0,0,0,0,7.8,4,4,0,0,0,3.9-3.9h0A3.91,3.91,0,0,0,251.6,270.2Zm0,7.4a3.5,3.5,0,1,1,3.5-3.5h0a3.42,3.42,0,0,1-3.34,3.5Z"/><path class="cls-8" d="M251.6,278.2a4.1,4.1,0,1,1,4.1-4.1,4.06,4.06,0,0,1-4,4.1Zm0-7.8a3.69,3.69,0,0,0-3.7,3.68v0a3.76,3.76,0,0,0,3.7,3.7,3.7,3.7,0,0,0,0-7.4Zm0,7.4a3.69,3.69,0,0,1-3.7-3.68v0a3.76,3.76,0,0,1,3.7-3.7,3.69,3.69,0,0,1,3.7,3.68v0h0a3.63,3.63,0,0,1-3.56,3.7Zm0-7a3.3,3.3,0,1,0,3.3,3.3h0a3.33,3.33,0,0,0-3.3-3.3Z"/><path class="cls-8" d="M251.6,271.5a2.6,2.6,0,1,0,2.6,2.6,2.52,2.52,0,0,0-2.44-2.6Zm0,4.9a2.25,2.25,0,1,1,.1-4.5,2.22,2.22,0,0,1,2.2,2.2,2.26,2.26,0,0,1-2.22,2.3Z"/><path class="cls-8" d="M251.6,277a2.8,2.8,0,1,1,2.8-2.8h0a2.73,2.73,0,0,1-2.66,2.8Zm0-4.9a2,2,0,0,0-2,2v.1a2,2,0,0,0,2,2h.1a2,2,0,0,0,2-2A2.11,2.11,0,0,0,251.6,272.1Z"/><g id="_编组_" data-name=" 编组 "><path class="cls-8" d="M243.6,277.6h7.8a.22.22,0,0,1,.2.2h0a.22.22,0,0,1-.2.2h-7.8a.22.22,0,0,1-.2-.2h0A.22.22,0,0,1,243.6,277.6Z"/><path class="cls-8" d="M251.4,278.2h-7.7a.4.4,0,0,1,0-.8h7.7a.43.43,0,0,1,.4.4.37.37,0,0,1-.34.4Z"/></g><text class="cls-9" transform="translate(232.38 296.22)">Pickling</text><path id="_复合路径_" data-name=" 复合路径 " class="cls-8" d="M255.6,354.2h-16a2.68,2.68,0,0,0-2.7,2.68V373.7a2.68,2.68,0,0,0,2.68,2.7h16a2.68,2.68,0,0,0,2.7-2.68V356.9a2.63,2.63,0,0,0-2.56-2.7Zm.9,14.2-17.8-8.5v-2.6A1.32,1.32,0,0,1,240,356h15.2a1.24,1.24,0,0,1,1.31,1.17,1.85,1.85,0,0,1,0,.23h0Z"/><g class="cls-10"><text class="cls-9" transform="translate(236.3 390.83)">She</text><text class="cls-12" transform="translate(250.82 390.83)">e</text><text class="cls-9" transform="translate(255.59 390.83)">t</text></g><path class="cls-15" d="M602,192c-1.4-4.3-8.8-6.2-10.1-9.9-.6-2.4-.6-5.1.6-6.9,0,2.4,1.7,5.7,3.2,4,1.4-1.5-3-2.1-2.4-5.6.1-1.6,1.5-2.5,2-6.2,1.6,1.6-.9,4.1,2.8,5.6-4.4-5.3,3.4-7.3,2.8-12.4,5.8,5.8.1,9.3,3.3,10.8,1.2.5,2.9-2.7,1.7-5.3,3.5,3,3.1,6.2,1.3,8.8-.7.9.1,2.9.9,3.5-.3-1.9,1.3-2.8,1.7-4.6,3.2,3.6,4.4,8-.9,11.6A36.57,36.57,0,0,0,602,192Z"/><text class="cls-9" transform="translate(582.13 201.54)">Annealing</text><path class="cls-8" d="M402.9,268.9c-15.8,0-16.7-.9-16.8-16.8h0c0,15.8-.9,16.7-16.8,16.8h0c15.8,0,16.7.9,16.8,16.8h0C386.2,269.8,387.1,268.9,402.9,268.9Z"/><path class="cls-15" d="M388.3,264.6a5.89,5.89,0,0,0,3.8,2.8c.3-1.7,1-4-2.1-7.1A5.72,5.72,0,0,1,388.3,264.6Z"/><path class="cls-15" d="M396.4,275.9c-.8-.5-1.4-2.3-.8-3.1a8.22,8.22,0,0,0,1.2-2.9c-8.8.5-9.7,2.7-9.8,13.7,1.7,1.2,3.3,2.4,3.9,4.1a25.72,25.72,0,0,1,6.3-5.7c4.7-3.2,3.6-7,.8-10.2C397.5,273.4,396.1,274.2,396.4,275.9Z"/><path class="cls-15" d="M394.6,267.8c.6.1,1.2.1,1.9.2a6.62,6.62,0,0,0-2.1-2.9A4.24,4.24,0,0,1,394.6,267.8Z"/><path class="cls-15" d="M385,276.8c-1.2.6-2.5-1.9-2.5-3.8a7.74,7.74,0,0,0-.5,6,8.19,8.19,0,0,0,3.3,3.4A35,35,0,0,0,385,276.8Z"/><path class="cls-15" d="M391.6,268.9a8,8,0,0,1-3.5-1.9,4,4,0,0,1-.8-1c-1,1.4-1.5,3,.3,5.1-3.2-1.3-1.1-3.5-2.4-4.9a12.38,12.38,0,0,1-1.4,4.1c.2.2.4.3.6.5a8,8,0,0,1,1.9,3.5A6.58,6.58,0,0,1,391.6,268.9Z"/><g class="cls-10"><text class="cls-9" transform="translate(377.59 296.22)">Brig</text><text class="cls-13" transform="translate(393.29 296.22)">h</text><text class="cls-9" transform="translate(398.36 296.22)">t</text></g><text class="cls-9" transform="translate(369.59 307.72)">Annealing</text><path class="cls-8" d="M618,278.6V266.1H587.5v12.5h3.4V278h.8v.6h22.1V278h.8v.6Zm-26.3-1.8h-.8v-1.2h.8Zm0-2.5h-.8V273h.8Zm0-2.5h-.8v-1.2h.8Zm0-2.5h-.8V268h.8Zm0-2.5h-.8v-.6h.8Zm22.1-.6h.8v.6h-.8Zm0,1.8h.8v1.2h-.8Zm0,2.5h.8v1.2h-.8Zm0,2.5h.8v1.2h-.8Zm0,3.8v-1.2h.8v1.2Z"/><text class="cls-9" transform="translate(588.45 296.22)">Cutting</text><path class="cls-8" d="M327.34,376.68,322,368.21a8.58,8.58,0,1,0-1.81,1.12l5.32,8.49a1.07,1.07,0,0,0,.91.49,1,1,0,0,0,.56-.16,1.07,1.07,0,0,0,.34-1.47Zm-12.08-8.85A6.4,6.4,0,1,1,322.9,363a6.38,6.38,0,0,1-7.64,4.85Z"/><text class="cls-16" transform="translate(297.98 390.83)">Inspection</text></svg>