<svg id="图层_1" data-name="图层 1" xmlns="http://www.w3.org/2000/svg" viewBox="0 0 850.4 566.9"><defs><style>.cls-1{fill:#fff;}.cls-2,.cls-5,.cls-7{fill:none;}.cls-2{stroke:#eee;}.cls-2,.cls-5,.cls-6{stroke-miterlimit:10;}.cls-14,.cls-3,.cls-4,.cls-6{fill:#999;}.cls-10,.cls-11,.cls-12,.cls-13,.cls-14,.cls-16,.cls-4,.cls-9{isolation:isolate;}.cls-11,.cls-12,.cls-13,.cls-16,.cls-4,.cls-9{font-size:9.6px;}.cls-11,.cls-12,.cls-13,.cls-14,.cls-16,.cls-17,.cls-4,.cls-9{font-family:Calibri-Bold, Calibri;font-weight:700;}.cls-5,.cls-6,.cls-7{stroke:#999;}.cls-5,.cls-7{stroke-linecap:round;stroke-width:1.6px;}.cls-6{stroke-width:0.89px;}.cls-7{stroke-linejoin:round;}.cls-11,.cls-12,.cls-13,.cls-15,.cls-16,.cls-17,.cls-8,.cls-9{fill:#989898;}.cls-11{letter-spacing:-0.01em;}.cls-12{letter-spacing:-0.01em;}.cls-13{letter-spacing:-0.02em;}.cls-14{font-size:6.4px;}.cls-15{fill-rule:evenodd;}.cls-16{letter-spacing:-0.05em;}.cls-17{font-size:9.6px;}</style></defs><rect class="cls-1" width="850.4" height="566.9"/><line class="cls-2" x1="850.4" y1="46.7" y2="46.7"/><line class="cls-2" x1="850.4" y1="165.1" y2="165.1"/><line class="cls-2" x1="850.4" y1="283.5" y2="283.5"/><line class="cls-2" x1="850.4" y1="401.9" y2="401.9"/><line class="cls-2" x1="850.4" y1="105.9" y2="105.9"/><line class="cls-2" x1="850.4" y1="224.3" y2="224.3"/><line class="cls-2" x1="850.4" y1="342.7" y2="342.7"/><line class="cls-2" x1="850.4" y1="461" y2="461"/><line class="cls-2" x1="850.4" y1="520.2" y2="520.2"/><line class="cls-2" x1="850.4" y1="135.5" y2="135.5"/><line class="cls-2" x1="850.4" y1="253.9" y2="253.9"/><line class="cls-2" x1="850.4" y1="372.3" y2="372.3"/><line class="cls-2" x1="850.4" y1="76.3" y2="76.3"/><line class="cls-2" x1="850.4" y1="17.1" y2="17.1"/><line class="cls-2" x1="850.4" y1="194.7" y2="194.7"/><line class="cls-2" x1="850.4" y1="313.1" y2="313.1"/><line class="cls-2" x1="850.4" y1="431.4" y2="431.4"/><line class="cls-2" x1="850.4" y1="490.6" y2="490.6"/><line class="cls-2" x1="850.4" y1="549.8" y2="549.8"/><line class="cls-2" x1="10.8" x2="10.8" y2="566.9"/><line class="cls-2" x1="129.2" x2="129.2" y2="566.9"/><line class="cls-2" x1="247.6" x2="247.6" y2="566.9"/><line class="cls-2" x1="366" x2="366" y2="566.9"/><line class="cls-2" x1="484.4" x2="484.4" y2="566.9"/><line class="cls-2" x1="602.8" x2="602.8" y2="566.9"/><line class="cls-2" x1="839.5" x2="839.5" y2="566.9"/><line class="cls-2" x1="721.2" x2="721.2" y2="566.9"/><line class="cls-2" x1="70" x2="70" y2="566.9"/><line class="cls-2" x1="188.4" x2="188.4" y2="566.9"/><line class="cls-2" x1="306.8" x2="306.8" y2="566.9"/><line class="cls-2" x1="425.2" x2="425.2" y2="566.9"/><line class="cls-2" x1="543.6" x2="543.6" y2="566.9"/><line class="cls-2" x1="662" x2="662" y2="566.9"/><line class="cls-2" x1="780.4" x2="780.4" y2="566.9"/><line class="cls-2" x1="810" x2="810" y2="566.9"/><line class="cls-2" x1="99.6" x2="99.6" y2="566.9"/><line class="cls-2" x1="218" x2="218" y2="566.9"/><line class="cls-2" x1="336.4" x2="336.4" y2="566.9"/><line class="cls-2" x1="454.8" x2="454.8" y2="566.9"/><line class="cls-2" x1="573.2" x2="573.2" y2="566.9"/><line class="cls-2" x1="691.6" x2="691.6" y2="566.9"/><line class="cls-2" x1="40.4" x2="40.4" y2="566.9"/><line class="cls-2" x1="158.8" x2="158.8" y2="566.9"/><line class="cls-2" x1="277.2" x2="277.2" y2="566.9"/><line class="cls-2" x1="395.6" x2="395.6" y2="566.9"/><line class="cls-2" x1="514" x2="514" y2="566.9"/><line class="cls-2" x1="632.4" x2="632.4" y2="566.9"/><line class="cls-2" x1="750.8" x2="750.8" y2="566.9"/><path class="cls-3" d="M257.5,376.8l-3.4-23.3a2.66,2.66,0,0,0-2.5-2.2h-7.8a2.58,2.58,0,0,0-2.5,2.2l-3.4,23.3a2.57,2.57,0,0,0,2.1,2.9h15.1a2.55,2.55,0,0,0,2.6-2.5C257.4,377.1,257.4,377.1,257.5,376.8Zm-14.4-22.9a.46.46,0,0,1,.5-.4h7.8c.2,0,.5.2.5.4l1.8,11.7H241.5Z"/><text class="cls-4" transform="translate(231.46 390.82)">Anal</text><text class="cls-4" transform="translate(249.52 390.82)">y</text><text class="cls-4" transform="translate(254.11 390.82)">tic</text><path class="cls-3" d="M388.9,356.6H379v12.3h14V356.6Zm-2.3,1.7a.7.7,0,1,1-.7-.7c.4.1.7.3.7.7Zm-4.9,0a.7.7,0,1,1-.7-.7h0A1,1,0,0,1,381.7,358.3Zm1.2-.7h1v4.2h-1Zm-2.7,9.4a.7.7,0,1,1,.7.7h0A.85.85,0,0,1,380.2,367Zm2.7.6v-4.1h1v4.1Zm2.2-.6a.7.7,0,1,1,.7.7A.85.85,0,0,1,385.1,367Zm5,0a.7.7,0,1,1,.7.7h0a.85.85,0,0,1-.7-.7Zm-1.2.6h-1v-4.1h1Zm-1-5.7v-4.2h1v4.2Zm3.6-3.6a.7.7,0,1,1-.7-.7h0a.67.67,0,0,1,.7.66Z"/><circle class="cls-3" cx="379.3" cy="373.2" r="1.8"/><path class="cls-3" d="M379.3,371.7a1.43,1.43,0,0,0-1.4,1.4v.1h2.8A1.52,1.52,0,0,0,379.3,371.7Z"/><path class="cls-3" d="M373.6,369.4v3.8H377a2.3,2.3,0,1,1,4.6-.2v.2H394v-3.8Z"/><circle class="cls-3" cx="400.9" cy="373.2" r="1.8"/><path class="cls-3" d="M400.9,371.7a1.43,1.43,0,0,0-1.4,1.4v.1h2.8A1.52,1.52,0,0,0,400.9,371.7Z"/><path class="cls-3" d="M402.4,361.1H395v12.1h3.7a2.3,2.3,0,1,1,4.6-.2v.2H407v-5.4Z"/><text class="cls-4" transform="translate(369.93 390.82)">P</text><text class="cls-4" transform="translate(374.85 390.82)">acking &amp;</text><text class="cls-4" transform="translate(372.49 402.34)">Shipping</text><polygon class="cls-3" points="320.7 368.8 318.2 371.1 317.8 369.9 317.8 369.9 316.4 366 303.1 371.9 317.8 361.1 318.4 362.4 319.2 364.8 319.9 366.7 326.9 363.2 320.7 368.8"/><path class="cls-3" d="M312.5,362.8a9.51,9.51,0,0,1,5.9-7A9.21,9.21,0,0,1,328,358a12.32,12.32,0,0,0-22,9.4Z"/><path class="cls-3" d="M324.5,373.1a9.12,9.12,0,0,1-6.1,0l-1,.9-.6-1.5a9.05,9.05,0,0,1-3.4-3.3l-6.1,2.7a12.26,12.26,0,0,0,14.9,5.4,12.46,12.46,0,0,0,8.2-12.1A8.84,8.84,0,0,1,324.5,373.1Z"/><circle class="cls-3" cx="329.7" cy="361.5" r="1.6"/><text class="cls-4" transform="translate(301.95 390.82)">Marking</text><line class="cls-5" x1="277" y1="180.4" x2="286.1" y2="180.4"/><polygon class="cls-6" points="285.3 182.8 289.4 180.4 285.3 178 285.3 182.8"/><line class="cls-5" x1="348.2" y1="180.4" x2="357.1" y2="180.4"/><polygon class="cls-6" points="356.5 182.8 360.6 180.4 356.5 178 356.5 182.8"/><line class="cls-5" x1="419.4" y1="180.4" x2="428.2" y2="180.4"/><polygon class="cls-6" points="427.5 182.8 431.8 180.4 427.5 178 427.5 182.8"/><line class="cls-5" x1="490.5" y1="180.4" x2="499.4" y2="180.4"/><polygon class="cls-6" points="498.7 182.8 502.9 180.4 498.7 178 498.7 182.8"/><line class="cls-5" x1="561.5" y1="180.4" x2="570.6" y2="180.4"/><polygon class="cls-6" points="569.8 182.8 573.9 180.4 569.8 178 569.8 182.8"/><line class="cls-5" x1="277" y1="275.1" x2="286.1" y2="275.1"/><polygon class="cls-6" points="285.3 277.5 289.4 275.1 285.3 272.7 285.3 277.5"/><line class="cls-5" x1="348.2" y1="275.1" x2="357.1" y2="275.1"/><polygon class="cls-6" points="356.5 277.5 360.6 275.1 356.5 272.7 356.5 277.5"/><line class="cls-5" x1="419.4" y1="275.1" x2="428.2" y2="275.1"/><polygon class="cls-6" points="427.5 277.5 431.8 275.1 427.5 272.7 427.5 277.5"/><line class="cls-5" x1="490.5" y1="275.1" x2="499.4" y2="275.1"/><polygon class="cls-6" points="498.7 277.5 502.9 275.1 498.7 272.7 498.7 277.5"/><line class="cls-5" x1="277" y1="369.9" x2="286.1" y2="369.9"/><polygon class="cls-6" points="285.3 372.3 289.4 369.9 285.3 367.5 285.3 372.3"/><line class="cls-5" x1="348.2" y1="369.9" x2="357.1" y2="369.9"/><polygon class="cls-6" points="356.5 372.3 360.6 369.9 356.5 367.5 356.5 372.3"/><path class="cls-7" d="M632,181.1h13.5a4.6,4.6,0,0,1,4.6,4.58v0h0v43.9a4.6,4.6,0,0,1-4.58,4.6H205a4.59,4.59,0,0,0-4.6,4.58v0h0v32a4.59,4.59,0,0,0,4.58,4.6h10"/><polygon class="cls-6" points="214.2 277.8 218.4 275.4 214.2 273 214.2 277.8"/><polygon class="cls-6" points="632.3 178.7 628.2 181.1 632.3 183.5 632.3 178.7"/><line class="cls-5" x1="561.5" y1="275.1" x2="570.6" y2="275.1"/><polygon class="cls-6" points="569.8 277.5 573.9 275.1 569.8 272.7 569.8 277.5"/><path class="cls-8" d="M258.7,168.9a3,3,0,0,0-3,3v12.9a1.43,1.43,0,0,1-1.4,1.4H240.9a1.43,1.43,0,0,1-1.4-1.4V172a3,3,0,0,0-3-3h-5.3v1.7h5.3a1.43,1.43,0,0,1,1.4,1.4V185a3,3,0,0,0,3,3h13.4a3,3,0,0,0,3-3V172a1.43,1.43,0,0,1,1.4-1.4h5.4v-1.7Z"/><path class="cls-8" d="M240.5,184.8a.54.54,0,0,0,.5.5h13.4a.54.54,0,0,0,.5-.5h0V174.4c-1.4-.1-3.7-.3-4.6-.3-1.5,0-4.8.8-6,.2-.7-.4-2.4-.3-3.7-.2v10.7Z"/><path class="cls-8" d="M243.5,172.3h-.2a.58.58,0,0,1-.4-.7h0a5.71,5.71,0,0,0,0-2.6,6.53,6.53,0,0,1,0-3.4c.2-.3.5-.5.8-.3a.81.81,0,0,1,.4.6h0a6.61,6.61,0,0,0,0,2.8,6.16,6.16,0,0,1,0,3.3A.61.61,0,0,1,243.5,172.3Z"/><path class="cls-8" d="M247.6,172.3h-.2a.58.58,0,0,1-.4-.7h0a5.71,5.71,0,0,0,0-2.6,6.53,6.53,0,0,1,0-3.4c.2-.3.5-.5.8-.3a.81.81,0,0,1,.4.6,6.61,6.61,0,0,0,0,2.8,6.16,6.16,0,0,1,0,3.3A.71.71,0,0,1,247.6,172.3Z"/><path class="cls-8" d="M251.8,172.3h-.2a.58.58,0,0,1-.4-.7h0a5.71,5.71,0,0,0,0-2.6,10.28,10.28,0,0,1,0-3.5.57.57,0,0,1,1.1.3h0a7.08,7.08,0,0,0,0,2.9,6.16,6.16,0,0,1,0,3.3A.45.45,0,0,1,251.8,172.3Z"/><text class="cls-9" transform="translate(237.75 201.53)">S</text><text class="cls-9" transform="translate(242.29 201.53)">t</text><text class="cls-9" transform="translate(245.5 201.53)">eel</text><text class="cls-9" transform="translate(232.74 213.05)">Making</text><path class="cls-7" d="M632,275.1h13.5a4.6,4.6,0,0,1,4.6,4.58v0h0v43.9a4.6,4.6,0,0,1-4.58,4.6H205a4.59,4.59,0,0,0-4.6,4.58v0h0v32a4.59,4.59,0,0,0,4.58,4.6h10"/><polygon class="cls-6" points="214.2 371.9 218.4 369.5 214.2 367.1 214.2 371.9"/><line class="cls-5" x1="561.5" y1="275.1" x2="570.6" y2="275.1"/><path class="cls-8" d="M317.4,166.3l-2.8,4.3a1.62,1.62,0,0,1-2.2.5h0l-3.8-2.4a1.62,1.62,0,0,1-.5-2.2l4.5-7c.2-.2.1-.4-.1-.6h0l-.4-.2c-.2-.2-.4-.1-.6.1h0l-4.5,7a2.82,2.82,0,0,0,.76,3.91l.14.09,3.9,2.5a2.82,2.82,0,0,0,3.91-.76l.09-.14h0l2.6-4.2a4,4,0,0,1,4.2-1.8l.1-.1-.9-.6a3.38,3.38,0,0,0-2.4-.2A7.17,7.17,0,0,0,317.4,166.3Z"/><path class="cls-8" d="M322.9,168.4h.2a.67.67,0,0,1,.7.66V190.6a.67.67,0,0,1-.66.7h-.24a.67.67,0,0,1-.7-.66V169.1a.67.67,0,0,1,.66-.7Z"/><path class="cls-8" d="M328.8,191.3h-.2a.67.67,0,0,1-.7-.66V169.1a.67.67,0,0,1,.66-.7h.24a.67.67,0,0,1,.7.66V190.6a.67.67,0,0,1-.66.7Z"/><path class="cls-8" d="M317.2,166.3l-2.8,4.3a1.62,1.62,0,0,1-2.2.5l-3.8-2.4a1.62,1.62,0,0,1-.5-2.2l4.5-7c.2-.2.1-.4-.1-.6h0l-.4-.2c-.2-.2-.4-.1-.6.1h0l-4.5,7a2.82,2.82,0,0,0,.76,3.91l.14.09h0l3.9,2.5a2.82,2.82,0,0,0,3.91-.76l.09-.14,2.6-4.2a4.13,4.13,0,0,1,4.2-1.8l.1-.1-.9-.6a3.38,3.38,0,0,0-2.4-.2A5,5,0,0,0,317.2,166.3Z"/><path class="cls-8" d="M322.6,164.2a3.36,3.36,0,0,0-.6-.3,6.92,6.92,0,0,0-2.5-.5h-1.4a22.55,22.55,0,0,0-2.6,0h-3a5.44,5.44,0,0,0-1.8,0l-2.2,3.4a1.36,1.36,0,0,0,.3,1.7h0l3.8,2.4a1.25,1.25,0,0,0,1.7-.3h0l2.8-4.3a4.91,4.91,0,0,1,2.2-1.8,3.2,3.2,0,0,1,2.7.2h.1a3.76,3.76,0,0,1,1.4,1.4h0a9,9,0,0,1,1.3,4.5v20.8h2.3V172.6a9.85,9.85,0,0,0-4-8A2.15,2.15,0,0,0,322.6,164.2Z"/><g class="cls-10"><text class="cls-9" transform="translate(308.2 201.53)">In</text><text class="cls-11" transform="translate(315.91 201.53)">g</text><text class="cls-9" transform="translate(320.37 201.53)">ot</text></g><g class="cls-10"><text class="cls-9" transform="translate(304.12 213.05)">Ca</text><text class="cls-12" transform="translate(313.94 213.05)">s</text><text class="cls-9" transform="translate(317.66 213.05)">ting</text></g><path class="cls-8" d="M386.6,166.3l-2.8,4.3a1.62,1.62,0,0,1-2.2.5l-3.8-2.4a1.62,1.62,0,0,1-.5-2.2l4.5-7c.2-.2.1-.4-.1-.6h0l-.4-.2c-.2-.2-.4-.1-.6.1h0l-4.5,7a2.82,2.82,0,0,0,.76,3.91l.14.09,3.9,2.5a2.82,2.82,0,0,0,3.91-.76l.09-.14,2.6-4.2a4.13,4.13,0,0,1,4.2-1.8l.1-.1-.9-.6a3.27,3.27,0,0,0-2.4-.2A5.86,5.86,0,0,0,386.6,166.3Z"/><path class="cls-8" d="M397.7,173.7l-1-.6c-.1-.1-.2-.2-.1-.3l3.7-5.4c.1-.1.2-.2.3-.1l1,.6c.1.1.2.2.1.3l-3.7,5.4C397.9,173.7,397.8,173.8,397.7,173.7Z"/><path class="cls-8" d="M388.4,167.9l1-.6c.1-.1.2-.1.3.1l3.7,5.4c.1.1.1.2-.1.3l-1,.6c-.1.1-.2.1-.3-.1l-3.7-5.4C388.2,168,388.2,167.9,388.4,167.9Z"/><path class="cls-8" d="M391.8,164.2a3.36,3.36,0,0,0-.6-.3,6.92,6.92,0,0,0-2.5-.5h-1.4a22.55,22.55,0,0,0-2.6,0h-3a5.44,5.44,0,0,0-1.8,0l-2.2,3.4a1.25,1.25,0,0,0,.3,1.7h0l3.8,2.4a1.25,1.25,0,0,0,1.7-.3h0l2.8-4.3a4.91,4.91,0,0,1,2.2-1.8,3.2,3.2,0,0,1,2.7.2h.1a3.76,3.76,0,0,1,1.4,1.4h0a9,9,0,0,1,1.3,4.5v20.8h2.3V172.6a10,10,0,0,0-4.1-8Z"/><path class="cls-8" d="M390.4,177.3h2.3a.47.47,0,0,1,.5.44v3.06a.47.47,0,0,1-.44.5H390.4a.47.47,0,0,1-.5-.44V177.8A.54.54,0,0,1,390.4,177.3Z"/><path class="cls-8" d="M399.7,187.4h-2.3a.56.56,0,0,1-.6-.5v-3c0-.3.2-.5.6-.5h2.3a.47.47,0,0,1,.5.44v3.06A.54.54,0,0,1,399.7,187.4Z"/><g class="cls-10"><text class="cls-9" transform="translate(366.84 201.53)">Co</text><text class="cls-12" transform="translate(377.08 201.53)">n</text><text class="cls-9" transform="translate(382.14 201.53)">tinuous</text></g><g class="cls-10"><text class="cls-9" transform="translate(375.08 213.05)">Ca</text><text class="cls-12" transform="translate(384.9 213.05)">s</text><text class="cls-9" transform="translate(388.62 213.05)">ting</text></g><path class="cls-8" d="M613.8,170a5.1,5.1,0,1,0,5.1,5.1h0A5,5,0,0,0,614,170Zm0,9.7a4.6,4.6,0,1,1,4.6-4.6h0A4.65,4.65,0,0,1,613.8,179.7Z"/><path class="cls-8" d="M613.8,180.5a5.4,5.4,0,1,1,5.4-5.4h0a5.38,5.38,0,0,1-5.36,5.4Zm0-10.3a5,5,0,0,0-4.9,4.9,4.9,4.9,0,0,0,9.8,0A5,5,0,0,0,613.8,170.2Zm0,9.7a4.9,4.9,0,1,1,4.9-4.9h0A5,5,0,0,1,613.8,179.9Zm0-9.2a4.3,4.3,0,1,0,4.3,4.3h0A4.33,4.33,0,0,0,613.8,170.7Z"/><path class="cls-8" d="M613.8,171.7a3.4,3.4,0,1,0,3.4,3.4h0a3.31,3.31,0,0,0-3.22-3.4Zm0,6.3a3,3,0,1,1,3-3h0A3.08,3.08,0,0,1,613.8,178Z"/><path class="cls-8" d="M613.8,178.8a3.7,3.7,0,1,1,3.7-3.7h0A3.76,3.76,0,0,1,613.8,178.8Zm0-6.4a2.6,2.6,0,1,0,2.6,2.6h0a2.52,2.52,0,0,0-2.44-2.6Z"/><path class="cls-8" d="M591.5,170a5.1,5.1,0,1,0,5.1,5.1h0a5.07,5.07,0,0,0-5-5.1Zm0,9.7a4.6,4.6,0,1,1,4.6-4.6h0A4.65,4.65,0,0,1,591.5,179.7Z"/><path class="cls-8" d="M591.5,180.5a5.4,5.4,0,1,1,5.4-5.4h0a5.38,5.38,0,0,1-5.36,5.4Zm0-10.3a5,5,0,0,0-4.9,4.9,4.9,4.9,0,0,0,9.8,0A5,5,0,0,0,591.5,170.2Zm0,9.7a4.9,4.9,0,1,1,4.9-4.9h0A5,5,0,0,1,591.5,179.9Zm0-9.2a4.3,4.3,0,1,0,4.3,4.3h0A4.33,4.33,0,0,0,591.5,170.7Z"/><path class="cls-8" d="M591.5,171.7a3.4,3.4,0,1,0,3.4,3.4h0a3.31,3.31,0,0,0-3.22-3.4Zm0,6.3a3,3,0,1,1,3-3h0A3.08,3.08,0,0,1,591.5,178Z"/><path class="cls-8" d="M591.5,178.8a3.7,3.7,0,1,1,3.7-3.7h0A3.76,3.76,0,0,1,591.5,178.8Zm0-6.4a2.6,2.6,0,1,0,2.6,2.6h0a2.52,2.52,0,0,0-2.44-2.6Z"/><g id="_编组_3" data-name=" 编组 3"><path class="cls-8" d="M592.2,179.7h21.1a.22.22,0,0,1,.2.2v.2a.22.22,0,0,1-.2.2H592.2a.22.22,0,0,1-.2-.2v-.2a.2.2,0,0,1,.2-.2Z"/><path class="cls-8" d="M613,180.5H592.5c-.6,0-1-.2-1-.6s.5-.6,1-.6H613c.6,0,1,.2,1,.6S613.6,180.5,613,180.5Z"/></g><circle class="cls-8" cx="602.8" cy="177" r="2.3"/><circle class="cls-8" cx="602.8" cy="182.8" r="2.3"/><polygon class="cls-8" points="599.2 178.1 599.2 173.5 606.4 173.5 606.4 178.1 607.6 178.1 607.6 172.3 598 172.3 598 178.1 599.2 178.1"/><polygon class="cls-8" points="606.4 181.7 606.4 186.4 599.2 186.4 599.2 181.7 598 181.7 598 187.6 607.6 187.6 607.6 181.7 606.4 181.7"/><text class="cls-9" transform="translate(594.01 201.53)">Cold</text><g class="cls-10"><text class="cls-13" transform="translate(589.21 213.05)">R</text><text class="cls-9" transform="translate(594.45 213.05)">olling</text></g><path class="cls-8" d="M541.5,186.1H521.4a3.15,3.15,0,0,1-3.2-3.12V166.5h1.5V183a1.58,1.58,0,0,0,1.56,1.6h20a1.58,1.58,0,0,0,1.6-1.56V166.5h1.5V183a2.88,2.88,0,0,1-2.67,3.09Z"/><rect class="cls-8" x="518.2" y="170.1" width="26.4" height="1.7"/><path class="cls-8" d="M535.4,175.5a3.91,3.91,0,0,0-3.9,3.9h0a4,4,0,0,0,3.9,3.9,3.91,3.91,0,0,0,3.9-3.9h0a3.84,3.84,0,0,0-3.78-3.9Zm0,7.4a3.5,3.5,0,1,1,3.5-3.5h0a3.42,3.42,0,0,1-3.34,3.5Z"/><path class="cls-8" d="M535.4,183.6a4.14,4.14,0,0,1-4.1-4.18v0a4.15,4.15,0,1,1,4.18,4.2Zm0-7.9a3.75,3.75,0,1,0,3.8,3.8,3.71,3.71,0,0,0-3.62-3.8Zm0,7.5a3.75,3.75,0,1,1,3.7-3.8h0a3.66,3.66,0,0,1-3.5,3.8Zm0-7.1a3.49,3.49,0,0,0-3.4,3.3,3.44,3.44,0,0,0,3.4,3.4,3.33,3.33,0,0,0,3.3-3.3h0a3.24,3.24,0,0,0-3.05-3.4Z"/><path class="cls-8" d="M535.4,176.8a2.6,2.6,0,1,0,2.6,2.6h0a2.52,2.52,0,0,0-2.44-2.6Zm0,4.9a2.16,2.16,0,0,1-2.2-2.12v-.08a2.2,2.2,0,0,1,4.4,0h0a2.1,2.1,0,0,1-2,2.2Z"/><path class="cls-8" d="M535.4,182.3a2.8,2.8,0,0,1-2.8-2.8,2.88,2.88,0,0,1,2.9-2.8,2.8,2.8,0,0,1,2.8,2.8A2.88,2.88,0,0,1,535.4,182.3Zm0-5a2.1,2.1,0,1,0,2.1,2.1,2.1,2.1,0,0,0-2.1-2.1Z"/><g id="_编组_" data-name=" 编组 "><path class="cls-8" d="M527.5,182.9h7.8a.22.22,0,0,1,.2.2h0a.22.22,0,0,1-.2.2h-7.8a.22.22,0,0,1-.2-.2h0A.22.22,0,0,1,527.5,182.9Z"/><path class="cls-8" d="M535.2,183.6h-7.8a.4.4,0,0,1,0-.8h7.8a.43.43,0,0,1,.4.4c0,.1-.2.4-.4.4Z"/></g><text class="cls-9" transform="translate(516.22 201.53)">Pickling</text><circle class="cls-8" cx="460.6" cy="169.9" r="2.8"/><circle class="cls-8" cx="460.6" cy="174.5" r="1.4"/><circle class="cls-8" cx="460.6" cy="183.7" r="2.8"/><circle class="cls-8" cx="460.6" cy="179.1" r="1.4"/><path class="cls-8" d="M446.3,176h28.6a.79.79,0,0,1,.8.78v0h0a.79.79,0,0,1-.78.8H446.3a.79.79,0,0,1-.8-.78v0h0a.79.79,0,0,1,.78-.8Z"/><text class="cls-9" transform="translate(453.23 201.53)">Hot</text><g class="cls-10"><text class="cls-13" transform="translate(446.92 213.05)">R</text><text class="cls-9" transform="translate(452.16 213.05)">olling</text></g><text class="cls-14" transform="translate(407.08 242.47)">F</text><text class="cls-14" transform="translate(409.94 242.47)">or S</text><text class="cls-14" transform="translate(420.12 242.47)">e</text><text class="cls-14" transform="translate(423.32 242.47)">v</text><text class="cls-14" transform="translate(426.28 242.47)">e</text><text class="cls-14" transform="translate(429.5 242.47)">r</text><text class="cls-14" transform="translate(431.64 242.47)">al Times</text><path class="cls-15" d="M247.4,286.7c-1.4-4.3-8.8-6.2-10.1-9.9-.6-2.4-.6-5.1.6-6.9,0,2.4,1.7,5.7,3.2,4,1.4-1.5-3-2.1-2.4-5.6.1-1.6,1.5-2.5,2-6.2,1.6,1.6-.9,4.1,2.8,5.6-4.4-5.3,3.4-7.3,2.8-12.4,5.8,5.8.1,9.3,3.3,10.8,1.2.5,2.9-2.7,1.7-5.3,3.5,3,3.1,6.2,1.3,8.8-.7.9.1,2.9.9,3.5-.3-1.9,1.3-2.8,1.7-4.6,3.2,3.6,4.4,8-.9,11.6A33.73,33.73,0,0,0,247.4,286.7Z"/><text class="cls-9" transform="translate(227.55 296.21)">Annealing</text><path class="cls-15" d="M318.4,286.7c-1.4-4.3-8.8-6.2-10.1-9.9-.6-2.4-.6-5.1.6-6.9,0,2.4,1.7,5.7,3.2,4,1.4-1.5-3-2.1-2.4-5.6.1-1.6,1.5-2.5,2-6.2,1.6,1.6-.9,4.1,2.8,5.6-4.4-5.3,3.4-7.3,2.8-12.4,5.8,5.8.1,9.3,3.3,10.8,1.2.5,2.9-2.7,1.7-5.3,3.5,3,3.1,6.2,1.3,8.8-.7.9.1,2.9.9,3.5-.3-1.9,1.3-2.8,1.7-4.6,3.2,3.6,4.4,8-.9,11.6A31.54,31.54,0,0,0,318.4,286.7Z"/><text class="cls-9" transform="translate(301.98 296.21)">Solution</text><g class="cls-10"><text class="cls-16" transform="translate(297.48 307.71)">T</text><text class="cls-11" transform="translate(301.74 307.71)">r</text><text class="cls-9" transform="translate(305.05 307.71)">e</text><text class="cls-11" transform="translate(309.88 307.71)">a</text><text class="cls-9" transform="translate(314.53 307.71)">tme</text><text class="cls-12" transform="translate(330.5 307.71)">n</text><text class="cls-9" transform="translate(335.56 307.71)">t</text></g><path class="cls-8" d="M374.6,262.8v17.5H379v-1.6h.8v1.6h4.1v-1.6h.8v1.6h4.1v-1.6h.8v1.6h4.1v-1.6h.8v1.6h4.1v-1.6h.8v1.6h4.4V262.8Zm5.2,14.7H379v-3.2h.8Zm0-4.4H379V270h.8Zm0-4.3H379v-3.2h.8Zm0-4.4H379v-1.6h.8Zm4.9,13.1h-.8v-3.2h.8Zm0-4.4h-.8V270h.8Zm0-4.3h-.8v-3.2h.8Zm0-4.4h-.8v-1.6h.8Zm4.9,13.1h-.8v-3.2h.8Zm0-4.4h-.8V270h.8Zm0-4.3h-.8v-3.2h.8Zm0-4.4h-.8v-1.6h.8Zm4.9,13.1h-.8v-3.2h.8Zm0-4.4h-.8V270h.8Zm0-4.3h-.8v-3.2h.8Zm0-4.4h-.8v-1.6h.8Zm4.9,13.1h-.8v-3.2h.8Zm0-4.4h-.8V270h.8Zm0-4.3h-.8v-3.2h.8Zm0-4.4h-.8v-1.6h.8Z"/><text class="cls-9" transform="translate(373.23 296.21)">Splitting</text><path class="cls-8" d="M477.3,271c-15.8,0-16.7-.9-16.8-16.8h0c0,15.8-.9,16.7-16.8,16.8h0c15.8,0,16.7.9,16.8,16.8h0C460.6,272,461.5,271.1,477.3,271Z"/><g class="cls-10"><text class="cls-13" transform="translate(442.57 296.21)">P</text><text class="cls-9" transform="translate(447.52 296.21)">olishing</text></g><path class="cls-8" d="M537.5,272.9a6.21,6.21,0,0,1-12,0h-1a7.09,7.09,0,0,0,8.1,5.4,7.17,7.17,0,0,0,5.9-5.4Z"/><path class="cls-8" d="M539.5,272.9a8.28,8.28,0,0,1-9.1,6.5,8.18,8.18,0,0,1-6.9-6.5h-1a9.15,9.15,0,0,0,18-.1Z"/><path class="cls-8" d="M541.5,272.9a10,10,0,0,1-11.2,8.3,10.19,10.19,0,0,1-8.8-8.3h-1a11.17,11.17,0,0,0,22.1,0Z"/><path class="cls-8" d="M543.5,272.9a12.1,12.1,0,0,1-24,0h-1a13.11,13.11,0,0,0,26,0Z"/><path class="cls-8" d="M527.6,269.1a4.26,4.26,0,0,1,7.8,0h1.1a5.2,5.2,0,0,0-9.9,0Z"/><path class="cls-8" d="M525.5,269.1a6.19,6.19,0,0,1,7.1-4.4,6.31,6.31,0,0,1,4.9,4.4h1a7.09,7.09,0,0,0-8.1-5.4,7.31,7.31,0,0,0-5.9,5.4Z"/><path class="cls-8" d="M523.5,269.1a8.18,8.18,0,0,1,16,0h1a9.16,9.16,0,0,0-18,0Z"/><path class="cls-8" d="M521.5,269.1a10,10,0,0,1,11.2-8.3,10.19,10.19,0,0,1,8.8,8.3h1a11.17,11.17,0,0,0-22.1,0Z"/><path class="cls-8" d="M519.5,269.1a12.11,12.11,0,0,1,24,0h1a13.06,13.06,0,0,0-25.9,0Z"/><path class="cls-8" d="M535.4,272.9a4.18,4.18,0,0,1-5,2.4,4,4,0,0,1-2.8-2.4h-1a5.2,5.2,0,0,0,9.9,0Z"/><path class="cls-8" d="M544.3,272H536a1.11,1.11,0,0,1-1.1-1.1h0a1.11,1.11,0,0,1,1.1-1.1h8.4a1.11,1.11,0,0,1,1.1,1.1h0A1.18,1.18,0,0,1,544.3,272Z"/><path class="cls-8" d="M527,272h-8.4a1.11,1.11,0,0,1-1.1-1.1h0a1.11,1.11,0,0,1,1.1-1.1H527a1.11,1.11,0,0,1,1.1,1.1h0C528,271.6,527.6,272,527,272Z"/><text class="cls-9" transform="translate(522.56 296.21)">Strip</text><path class="cls-8" d="M611.51,282l-5.32-8.47a8.58,8.58,0,1,0-1.81,1.12l5.32,8.49a1.07,1.07,0,0,0,.91.49,1,1,0,0,0,.56-.16,1.07,1.07,0,0,0,.34-1.47Zm-12.08-8.85a6.4,6.4,0,1,1,7.64-4.85,6.38,6.38,0,0,1-7.64,4.85Z"/><text class="cls-17" transform="translate(582.15 296.19)">Inspection</text></svg>