<svg id="图层_1" data-name="图层 1" xmlns="http://www.w3.org/2000/svg" viewBox="0 0 850.4 566.9"><defs><style>.cls-1{fill:#fff;}.cls-2,.cls-3,.cls-5{fill:none;}.cls-2{stroke:#eee;}.cls-2,.cls-3,.cls-4{stroke-miterlimit:10;}.cls-3,.cls-4,.cls-5{stroke:#999;}.cls-3,.cls-5{stroke-linecap:round;stroke-width:1.6px;}.cls-4{fill:#999;stroke-width:0.89px;}.cls-5{stroke-linejoin:round;}.cls-10,.cls-15,.cls-19,.cls-6,.cls-7,.cls-8,.cls-9{fill:#989898;}.cls-7,.cls-8{isolation:isolate;font-size:9.6px;}.cls-15,.cls-19,.cls-7,.cls-8,.cls-9{font-family:Calibri-Bold, Calibri;font-weight:700;}.cls-8{letter-spacing:-0.02em;}.cls-15,.cls-19,.cls-9{font-size:9.6px;}.cls-10{fill-rule:evenodd;}.cls-11{letter-spacing:-0.01em;}.cls-12{letter-spacing:-0.05em;}.cls-13{letter-spacing:-0.01em;}.cls-14{letter-spacing:0em;}.cls-15{letter-spacing:-0.02em;}.cls-16{letter-spacing:0em;}.cls-17{letter-spacing:-0.01em;}.cls-18{letter-spacing:-0.01em;}.cls-19{letter-spacing:-0.09em;}</style></defs><rect class="cls-1" width="850.4" height="566.9"/><line class="cls-2" x1="850.4" y1="46.7" y2="46.7"/><line class="cls-2" x1="850.4" y1="165.1" y2="165.1"/><line class="cls-2" x1="850.4" y1="283.5" y2="283.5"/><line class="cls-2" x1="850.4" y1="401.9" y2="401.9"/><line class="cls-2" x1="850.4" y1="105.9" y2="105.9"/><line class="cls-2" x1="850.4" y1="224.3" y2="224.3"/><line class="cls-2" x1="850.4" y1="342.7" y2="342.7"/><line class="cls-2" x1="850.4" y1="461" y2="461"/><line class="cls-2" x1="850.4" y1="520.2" y2="520.2"/><line class="cls-2" x1="850.4" y1="135.5" y2="135.5"/><line class="cls-2" x1="850.4" y1="253.9" y2="253.9"/><line class="cls-2" x1="850.4" y1="372.3" y2="372.3"/><line class="cls-2" x1="850.4" y1="76.3" y2="76.3"/><line class="cls-2" x1="850.4" y1="17.1" y2="17.1"/><line class="cls-2" x1="850.4" y1="194.7" y2="194.7"/><line class="cls-2" x1="850.4" y1="313.1" y2="313.1"/><line class="cls-2" x1="850.4" y1="431.4" y2="431.4"/><line class="cls-2" x1="850.4" y1="490.6" y2="490.6"/><line class="cls-2" x1="850.4" y1="549.8" y2="549.8"/><line class="cls-2" x1="10.8" x2="10.8" y2="566.9"/><line class="cls-2" x1="129.2" x2="129.2" y2="566.9"/><line class="cls-2" x1="247.6" x2="247.6" y2="566.9"/><line class="cls-2" x1="366" x2="366" y2="566.9"/><line class="cls-2" x1="484.4" x2="484.4" y2="566.9"/><line class="cls-2" x1="602.8" x2="602.8" y2="566.9"/><line class="cls-2" x1="839.5" x2="839.5" y2="566.9"/><line class="cls-2" x1="721.2" x2="721.2" y2="566.9"/><line class="cls-2" x1="70" x2="70" y2="566.9"/><line class="cls-2" x1="188.4" x2="188.4" y2="566.9"/><line class="cls-2" x1="306.8" x2="306.8" y2="566.9"/><line class="cls-2" x1="425.2" x2="425.2" y2="566.9"/><line class="cls-2" x1="543.6" x2="543.6" y2="566.9"/><line class="cls-2" x1="662" x2="662" y2="566.9"/><line class="cls-2" x1="780.4" x2="780.4" y2="566.9"/><line class="cls-2" x1="810" x2="810" y2="566.9"/><line class="cls-2" x1="99.6" x2="99.6" y2="566.9"/><line class="cls-2" x1="218" x2="218" y2="566.9"/><line class="cls-2" x1="336.4" x2="336.4" y2="566.9"/><line class="cls-2" x1="454.8" x2="454.8" y2="566.9"/><line class="cls-2" x1="573.2" x2="573.2" y2="566.9"/><line class="cls-2" x1="691.6" x2="691.6" y2="566.9"/><line class="cls-2" x1="40.4" x2="40.4" y2="566.9"/><line class="cls-2" x1="158.8" x2="158.8" y2="566.9"/><line class="cls-2" x1="277.2" x2="277.2" y2="566.9"/><line class="cls-2" x1="395.6" x2="395.6" y2="566.9"/><line class="cls-2" x1="514" x2="514" y2="566.9"/><line class="cls-2" x1="632.4" x2="632.4" y2="566.9"/><line class="cls-2" x1="750.8" x2="750.8" y2="566.9"/><line class="cls-3" x1="241.52" y1="229.25" x2="250.47" y2="229.25"/><polygon class="cls-4" points="249.75 231.65 253.91 229.25 249.75 226.85 249.75 231.65"/><line class="cls-3" x1="312.61" y1="229.25" x2="321.57" y2="229.25"/><polygon class="cls-4" points="320.85 231.65 325 229.25 320.85 226.85 320.85 231.65"/><line class="cls-3" x1="383.78" y1="229.25" x2="392.74" y2="229.25"/><polygon class="cls-4" points="392.01 231.65 396.18 229.25 392.01 226.85 392.01 231.65"/><line class="cls-3" x1="454.88" y1="229.25" x2="463.83" y2="229.25"/><polygon class="cls-4" points="463.11 231.65 467.26 229.25 463.11 226.85 463.11 231.65"/><line class="cls-3" x1="526.05" y1="229.25" x2="535" y2="229.25"/><polygon class="cls-4" points="534.28 231.65 538.45 229.25 534.28 226.85 534.28 231.65"/><line class="cls-3" x1="597.13" y1="229.25" x2="606.1" y2="229.25"/><polygon class="cls-4" points="605.38 231.65 609.53 229.25 605.38 226.85 605.38 231.65"/><line class="cls-3" x1="241.52" y1="323.93" x2="250.47" y2="323.93"/><polygon class="cls-4" points="249.75 326.33 253.91 323.93 249.75 321.53 249.75 326.33"/><line class="cls-3" x1="312.61" y1="323.93" x2="321.57" y2="323.93"/><polygon class="cls-4" points="320.85 326.33 325 323.93 320.85 321.53 320.85 326.33"/><line class="cls-3" x1="383.78" y1="323.93" x2="392.74" y2="323.93"/><polygon class="cls-4" points="392.01 326.33 396.18 323.93 392.01 321.53 392.01 326.33"/><path class="cls-5" d="M667.51,229.81H681a4.56,4.56,0,0,1,4.56,4.56v43.9a4.56,4.56,0,0,1-4.56,4.56H169.38a4.56,4.56,0,0,0-4.56,4.56v32a4.56,4.56,0,0,0,4.56,4.56h10.08"/><polygon class="cls-4" points="178.74 326.33 182.9 323.93 178.74 321.53 178.74 326.33"/><line class="cls-3" x1="454.79" y1="324.02" x2="463.75" y2="324.02"/><polygon class="cls-4" points="463.02 326.42 467.19 324.02 463.02 321.62 463.02 326.42"/><line class="cls-3" x1="525.89" y1="324.02" x2="534.84" y2="324.02"/><polygon class="cls-4" points="534.12 326.42 538.27 324.02 534.12 321.62 534.12 326.42"/><line class="cls-3" x1="597.06" y1="324.02" x2="606.01" y2="324.02"/><polygon class="cls-4" points="605.29 326.42 609.46 324.02 605.29 321.62 605.29 326.42"/><path class="cls-6" d="M506.11,331.05l-3.47-23.25a2.54,2.54,0,0,0-2.53-2.18h-7.77a2.52,2.52,0,0,0-2.49,2.15L486.38,331a2.51,2.51,0,0,0,2.09,2.87h0a2.29,2.29,0,0,0,.37,0h14.7a2.52,2.52,0,0,0,2.52-2.52V331Zm-14.21-23a.49.49,0,0,1,.48-.42h7.73a.51.51,0,0,1,.49.42l1.73,11.7H490.11Z"/><text class="cls-7" transform="translate(480.09 344.97)">Anal</text><text class="cls-7" transform="translate(498.16 344.97)">y</text><text class="cls-7" transform="translate(502.75 344.97)">tic</text><path class="cls-6" d="M433.84,330.82l-5.32-8.47a8.52,8.52,0,1,0-1.8,1.13L432,332a1.07,1.07,0,0,0,.9.5A1.05,1.05,0,0,0,434,331.4v0A1.13,1.13,0,0,0,433.84,330.82ZM421.77,322a6.4,6.4,0,1,1,7.64-4.86,6.38,6.38,0,0,1-7.64,4.86Z"/><text class="cls-7" transform="translate(404.49 344.97)">Inspection</text><polygon class="cls-6" points="569.39 323.02 566.95 325.21 566.53 324.06 566.53 324.06 565.13 320.18 551.86 326.09 566.56 315.17 567.07 316.57 567.93 318.93 568.59 320.78 575.64 317.43 569.41 323.01 569.41 323.01 569.39 323.02"/><path class="cls-6" d="M561.2,317.06a9.12,9.12,0,0,1,15.53-4.71,12.34,12.34,0,0,0-22,9.5Z"/><path class="cls-6" d="M573.24,327.25a8.92,8.92,0,0,1-6.07,0l-.94.85-.56-1.53a9,9,0,0,1-3.36-3.31L556.23,326a12.34,12.34,0,0,0,23-6.61A9.13,9.13,0,0,1,573.24,327.25Z"/><circle class="cls-6" cx="578.4" cy="315.64" r="1.62"/><text class="cls-7" transform="translate(550.66 344.97)">Marking</text><path class="cls-6" d="M637.49,310.72h-10v12.33h14V310.72Zm-2.25,1.8a.73.73,0,0,1-.73.72.71.71,0,0,1-.71-.71h0a.72.72,0,0,1,.72-.72h0a.72.72,0,0,1,.72.7h0Zm-5,0a.73.73,0,0,1-.73.72.71.71,0,0,1-.71-.71h0a.72.72,0,0,1,.72-.72h0a.71.71,0,0,1,.73.69h0Zm1.31-.72h1V316h-1Zm-2.74,9.29a.72.72,0,1,1,1.44,0,.71.71,0,0,1-.71.73h0a.72.72,0,0,1-.7-.71Zm2.74.71v-4.06h1v4.07Zm2.24-.71a.72.72,0,1,1,1.44,0h0a.73.73,0,0,1-.73.72h0a.71.71,0,0,1-.71-.71Zm5,0a.72.72,0,1,1,1.44,0,.71.71,0,0,1-.71.73h0a.7.7,0,0,1-.71-.69h0Zm-1.3.71h-1v-4.06h.94Zm-1-5.78V311.8h.94V316Zm3.67-3.5a.73.73,0,0,1-.73.72.71.71,0,0,1-.71-.71h0a.72.72,0,0,1,.72-.72h0a.71.71,0,0,1,.73.69v0h0Z"/><circle class="cls-6" cx="627.99" cy="327.36" r="1.87"/><path class="cls-6" d="M628,326a1.42,1.42,0,0,0-1.42,1.4h2.83A1.41,1.41,0,0,0,628,326Z"/><path class="cls-6" d="M622.2,323.55v3.81h3.45a2.33,2.33,0,0,1,4.66-.19.6.6,0,0,1,0,.19h12.5v-3.81Z"/><circle class="cls-6" cx="649.52" cy="327.36" r="1.87"/><path class="cls-6" d="M649.52,326a1.42,1.42,0,0,0-1.4,1.41H651A1.43,1.43,0,0,0,649.52,326Z"/><path class="cls-6" d="M651,315.3h-7.44v12.06h3.7a2.33,2.33,0,0,1,4.66-.19v.19h3.7V322Z"/><text class="cls-8" transform="translate(618.64 344.97)">P</text><text class="cls-7" transform="translate(623.56 344.97)">acking &amp;</text><text class="cls-7" transform="translate(621.08 356.49)">Shipping</text><path class="cls-6" d="M212.18,212.56a6,6,0,1,0,6,6h0A6,6,0,0,0,212.18,212.56Zm0,9.66a3.66,3.66,0,1,1,3.66-3.66h0a3.65,3.65,0,0,1-3.66,3.64Z"/><path class="cls-6" d="M212.18,224.76a6.2,6.2,0,1,1,6.21-6.2A6.21,6.21,0,0,1,212.18,224.76Zm0-12a5.81,5.81,0,1,0,5.81,5.8h0a5.81,5.81,0,0,0-5.81-5.8Zm0,9.66a3.86,3.86,0,1,1,3.86-3.85h0a3.87,3.87,0,0,1-3.86,3.85Zm0-7.31a3.46,3.46,0,1,0,3.46,3.46h0a3.48,3.48,0,0,0-3.46-3.47Z"/><path class="cls-6" d="M206.18,223.06a6,6,0,1,0,6,6,6,6,0,0,0-6-6Zm0,9.66a3.66,3.66,0,1,1,3.65-3.66h0a3.65,3.65,0,0,1-3.65,3.66Z"/><path class="cls-6" d="M206.18,235.27a6.21,6.21,0,1,1,6.2-6.21h0A6.21,6.21,0,0,1,206.18,235.27Zm0-12a5.81,5.81,0,1,0,5.8,5.81h0a5.8,5.8,0,0,0-5.8-5.82h0Zm0,9.66a3.86,3.86,0,1,1,3.85-3.86h0a3.86,3.86,0,0,1-3.85,3.84Zm0-7.31a3.46,3.46,0,1,0,3.45,3.46h0a3.46,3.46,0,0,0-3.44-3.48h0Z"/><path class="cls-6" d="M218.19,223.06a6,6,0,1,0,6,6,6,6,0,0,0-6-6Zm0,9.66a3.66,3.66,0,1,1,3.66-3.66h0A3.67,3.67,0,0,1,218.19,232.72Z"/><path class="cls-6" d="M218.19,235.27a6.21,6.21,0,1,1,6.2-6.21h0A6.21,6.21,0,0,1,218.19,235.27Zm0-12a5.81,5.81,0,1,0,5.8,5.81h0a5.8,5.8,0,0,0-5.8-5.82h0Zm0,9.66a3.86,3.86,0,1,1,3.86-3.86h0a3.87,3.87,0,0,1-3.86,3.84Zm0-7.31a3.46,3.46,0,1,0,3.46,3.46h0a3.48,3.48,0,0,0-3.46-3.48h0Z"/><text class="cls-9" transform="translate(203.47 247.92)">Pipe</text><path class="cls-6" d="M298.42,230.33V217.86H268v12.47h3.41v-.63h.84v.63h22.11v-.63h.83v.63Zm-26.21-1.88h-.84v-1.24h.84Zm0-2.49h-.84v-1.24h.84Zm0-2.49h-.84v-1.25h.84Zm0-2.49h-.84v-1.23h.84Zm0-2.49h-.84v-.63h.84Zm22.1-.63h.84v.63h-.84Zm0,1.88h.84V221h-.84Zm0,2.48h.84v1.25h-.84Zm0,2.5h.84V226h-.84Zm0,3.73v-1.24h.84v1.24Z"/><text class="cls-9" transform="translate(268.92 247.92)">Cutting</text><path class="cls-10" d="M496.05,238.4c-1.36-4.35-8.75-6.15-10.06-9.88-.62-2.36-.56-5.09.62-6.9,0,2.37,1.68,5.66,3.23,4s-3-2.11-2.36-5.59c.13-1.61,1.49-2.48,2-6.15,1.56,1.55-.87,4.1,2.8,5.59-4.41-5.34,3.4-7.27,2.79-12.42,5.84,5.78.13,9.32,3.29,10.81,1.18.5,2.86-2.67,1.74-5.28,3.48,3,3.11,6.21,1.31,8.75-.68.94.06,2.93.93,3.55-.31-1.86,1.3-2.8,1.74-4.6,3.23,3.6,4.41,8-.93,11.62A28.18,28.18,0,0,0,496.05,238.4Z"/><text class="cls-9" transform="translate(486.81 247.92)">He<tspan class="cls-11" x="10.89" y="0">a</tspan><tspan x="15.54" y="0">t</tspan><tspan class="cls-12" x="-11.27" y="11.52">T</tspan><tspan class="cls-13" x="-7.01" y="11.52">r</tspan><tspan x="-3.71" y="11.52">e</tspan><tspan class="cls-11" x="1.13" y="11.52">a</tspan><tspan x="5.78" y="11.52">tme</tspan><tspan class="cls-11" x="21.75" y="11.52">n</tspan><tspan x="26.81" y="11.52">t</tspan></text><polygon class="cls-6" points="644.53 230.88 641.04 234.73 650.38 234.73 650.38 230.88 644.53 230.88"/><polygon class="cls-6" points="644.01 229.74 644.01 212.7 626.13 212.7 626.13 234.73 639.49 234.73 644.01 229.74"/><text class="cls-9" transform="translate(621.34 247.92)">B<tspan class="cls-14" x="5.38" y="0">e</tspan><tspan class="cls-11" x="10.17" y="0">v</tspan><tspan x="14.62" y="0">eling</tspan></text><path class="cls-6" d="M228.94,319.8c-15.84,0-16.72-.92-16.76-16.76h0c0,15.84-.92,16.72-16.76,16.76h0c15.84,0,16.72.92,16.76,16.76h0C212.22,320.72,213.1,319.84,228.94,319.8Z"/><text class="cls-15" transform="translate(194.24 344.97)">P<tspan class="cls-16" x="4.96" y="0">olishing</tspan></text><circle class="cls-6" cx="283.12" cy="319.83" r="2.7"/><circle class="cls-6" cx="283.12" cy="313.39" r="1.65"/><circle class="cls-6" cx="278.57" cy="315.28" r="1.65"/><circle class="cls-6" cx="276.68" cy="319.83" r="1.65"/><circle class="cls-6" cx="278.57" cy="324.39" r="1.65"/><circle class="cls-6" cx="283.12" cy="326.27" r="1.65"/><circle class="cls-6" cx="287.68" cy="324.39" r="1.65"/><circle class="cls-6" cx="289.56" cy="319.83" r="1.65"/><circle class="cls-6" cx="287.68" cy="315.28" r="1.65"/><circle class="cls-6" cx="283.12" cy="308.74" r="0.9"/><circle class="cls-6" cx="275.28" cy="311.99" r="0.9"/><circle class="cls-6" cx="272.04" cy="319.83" r="0.9"/><circle class="cls-6" cx="275.28" cy="327.67" r="0.9"/><circle class="cls-6" cx="283.12" cy="330.92" r="0.9"/><circle class="cls-6" cx="290.96" cy="327.67" r="0.9"/><circle class="cls-6" cx="294.21" cy="319.83" r="0.9"/><circle class="cls-6" cx="290.96" cy="311.99" r="0.9"/><text class="cls-9" transform="translate(273.39 344.98)">Sand<tspan x="-5.97" y="11.52">Bla</tspan><tspan class="cls-17" x="6.51" y="11.52">s</tspan><tspan x="10.23" y="11.52">ting</tspan></text><path class="cls-6" d="M363.87,217.77H345.74v6h4.85a1.23,1.23,0,0,1,1.22,1.23v4.84h6V225a1.23,1.23,0,0,1,1.23-1.23h4.84Z"/><polygon class="cls-6" points="344.14 219.81 344.14 216.18 365.47 216.18 365.47 219.81 368.58 219.81 368.58 212.54 341.03 212.54 341.03 219.81 344.14 219.81"/><polygon class="cls-6" points="365.47 221.6 365.47 225.36 359.4 225.36 359.4 231.43 350.21 231.43 350.21 225.36 344.14 225.36 344.14 221.6 341.03 221.6 341.03 233.32 368.58 233.32 368.58 221.6 365.47 221.6"/><text class="cls-9" transform="translate(338.44 247.92)"><tspan class="cls-18">F</tspan><tspan x="4.29" y="0">orming</tspan></text><path class="cls-6" d="M411.46,213.05v20.77H439V213.05Zm24.43,7.26v5.56h-6.07v6.06h-9.19v-6.06h-6.06v-9.19h21.32v3.63Z"/><text class="cls-9" transform="translate(413.84 247.92)">Sizing</text><path class="cls-6" d="M577.24,233.36h-20a3.21,3.21,0,0,1-3.2-3.2V213.72h1.56v16.44a1.66,1.66,0,0,0,1.64,1.64h20a1.65,1.65,0,0,0,1.64-1.64h0V213.72h1.56v16.44A3.23,3.23,0,0,1,577.24,233.36Z"/><rect class="cls-6" x="554.04" y="217.37" width="26.4" height="1.64"/><path class="cls-6" d="M577.24,233.36h-20a3.21,3.21,0,0,1-3.2-3.2V213.72h1.56V230.2a1.66,1.66,0,0,0,1.64,1.64h20a1.65,1.65,0,0,0,1.64-1.64h0V213.72h1.56V230.2A3.28,3.28,0,0,1,577.24,233.36Z"/><rect class="cls-6" x="554" y="217.37" width="26.4" height="1.64"/><path class="cls-6" d="M575.6,225h-9.31v3.08h2.48a.63.63,0,0,1,.63.63v2.49h3.08v-2.49a.63.63,0,0,1,.63-.63h2.49Z"/><text class="cls-9" transform="translate(552.01 247.92)">Pickling</text><path class="cls-6" d="M368.2,309.84H341.36a1.48,1.48,0,0,0-1.49,1.49v6.91a1.48,1.48,0,0,0,1.49,1.5h7a1.48,1.48,0,0,1,1.5,1.49v7.4a1.48,1.48,0,0,0,1.49,1.49h6.91a1.48,1.48,0,0,0,1.5-1.49v-7.44a1.48,1.48,0,0,1,1.49-1.5h7a1.48,1.48,0,0,0,1.49-1.49v-6.87A1.57,1.57,0,0,0,368.2,309.84Z"/><text class="cls-19" transform="translate(348.01 344.97)">T<tspan class="cls-16" x="3.92" y="0">ee</tspan></text></svg>