<svg id="图层_1" data-name="图层 1" xmlns="http://www.w3.org/2000/svg" viewBox="0 0 850.4 566.9"><defs><style>.cls-1{fill:#fff;}.cls-2,.cls-3,.cls-5{fill:none;}.cls-2,.cls-3,.cls-4,.cls-5{stroke:#eee;}.cls-2,.cls-3,.cls-4{stroke-miterlimit:10;}.cls-11,.cls-12,.cls-15,.cls-2,.cls-3,.cls-4,.cls-5,.cls-6,.cls-8{opacity:0.6;}.cls-3,.cls-5{stroke-linecap:round;stroke-width:1.6px;}.cls-10,.cls-11,.cls-12,.cls-13,.cls-14,.cls-15,.cls-16,.cls-17,.cls-19,.cls-20,.cls-21,.cls-4,.cls-7,.cls-9{fill:#eee;}.cls-4{stroke-width:0.89px;}.cls-5{stroke-linejoin:round;}.cls-10,.cls-12,.cls-13,.cls-14,.cls-16,.cls-17,.cls-19,.cls-20,.cls-21,.cls-8,.cls-9{isolation:isolate;}.cls-10,.cls-12,.cls-13,.cls-14,.cls-16,.cls-17,.cls-19,.cls-20,.cls-21,.cls-9{font-size:9.6px;font-family:Calibri-Bold, Calibri;font-weight:700;}.cls-9{letter-spacing:-0.02em;}.cls-13{letter-spacing:-0.01em;}.cls-14,.cls-18{letter-spacing:-0.01em;}.cls-15{fill-rule:evenodd;}.cls-16{letter-spacing:-0.05em;}.cls-17{letter-spacing:-0.02em;}.cls-19{letter-spacing:-0.09em;}.cls-20{letter-spacing:-0.03em;}.cls-21{letter-spacing:-0.02em;}</style></defs><rect class="cls-1" width="850.4" height="566.9"/><line class="cls-2" x1="850.4" y1="46.7" y2="46.7"/><line class="cls-2" x1="850.4" y1="165.1" y2="165.1"/><line class="cls-2" x1="850.4" y1="283.5" y2="283.5"/><line class="cls-2" x1="850.4" y1="401.9" y2="401.9"/><line class="cls-2" x1="850.4" y1="105.9" y2="105.9"/><line class="cls-2" x1="850.4" y1="224.3" y2="224.3"/><line class="cls-2" x1="850.4" y1="342.7" y2="342.7"/><line class="cls-2" x1="850.4" y1="461" y2="461"/><line class="cls-2" x1="850.4" y1="520.2" y2="520.2"/><line class="cls-2" x1="850.4" y1="135.5" y2="135.5"/><line class="cls-2" x1="850.4" y1="253.9" y2="253.9"/><line class="cls-2" x1="850.4" y1="372.3" y2="372.3"/><line class="cls-2" x1="850.4" y1="76.3" y2="76.3"/><line class="cls-2" x1="850.4" y1="17.1" y2="17.1"/><line class="cls-2" x1="850.4" y1="194.7" y2="194.7"/><line class="cls-2" x1="850.4" y1="313.1" y2="313.1"/><line class="cls-2" x1="850.4" y1="431.4" y2="431.4"/><line class="cls-2" x1="850.4" y1="490.6" y2="490.6"/><line class="cls-2" x1="850.4" y1="549.8" y2="549.8"/><line class="cls-2" x1="10.8" x2="10.8" y2="566.9"/><line class="cls-2" x1="129.2" x2="129.2" y2="566.9"/><line class="cls-2" x1="247.6" x2="247.6" y2="566.9"/><line class="cls-2" x1="366" x2="366" y2="566.9"/><line class="cls-2" x1="484.4" x2="484.4" y2="566.9"/><line class="cls-2" x1="602.8" x2="602.8" y2="566.9"/><line class="cls-2" x1="839.5" x2="839.5" y2="566.9"/><line class="cls-2" x1="721.2" x2="721.2" y2="566.9"/><line class="cls-2" x1="70" x2="70" y2="566.9"/><line class="cls-2" x1="188.4" x2="188.4" y2="566.9"/><line class="cls-2" x1="306.8" x2="306.8" y2="566.9"/><line class="cls-2" x1="425.2" x2="425.2" y2="566.9"/><line class="cls-2" x1="543.6" x2="543.6" y2="566.9"/><line class="cls-2" x1="662" x2="662" y2="566.9"/><line class="cls-2" x1="780.4" x2="780.4" y2="566.9"/><line class="cls-2" x1="810" x2="810" y2="566.9"/><line class="cls-2" x1="99.6" x2="99.6" y2="566.9"/><line class="cls-2" x1="218" x2="218" y2="566.9"/><line class="cls-2" x1="336.4" x2="336.4" y2="566.9"/><line class="cls-2" x1="454.8" x2="454.8" y2="566.9"/><line class="cls-2" x1="573.2" x2="573.2" y2="566.9"/><line class="cls-2" x1="691.6" x2="691.6" y2="566.9"/><line class="cls-2" x1="40.4" x2="40.4" y2="566.9"/><line class="cls-2" x1="158.8" x2="158.8" y2="566.9"/><line class="cls-2" x1="277.2" x2="277.2" y2="566.9"/><line class="cls-2" x1="395.6" x2="395.6" y2="566.9"/><line class="cls-2" x1="514" x2="514" y2="566.9"/><line class="cls-2" x1="632.4" x2="632.4" y2="566.9"/><line class="cls-2" x1="750.8" x2="750.8" y2="566.9"/><line class="cls-3" x1="241.52" y1="176.03" x2="250.47" y2="176.03"/><polygon class="cls-4" points="249.75 178.43 253.91 176.03 249.75 173.63 249.75 178.43"/><line class="cls-3" x1="312.61" y1="176.03" x2="321.57" y2="176.03"/><polygon class="cls-4" points="320.85 178.43 325 176.03 320.85 173.63 320.85 178.43"/><line class="cls-3" x1="383.78" y1="176.03" x2="392.74" y2="176.03"/><polygon class="cls-4" points="392.01 178.43 396.18 176.03 392.01 173.63 392.01 178.43"/><line class="cls-3" x1="454.88" y1="176.03" x2="463.83" y2="176.03"/><polygon class="cls-4" points="463.11 178.43 467.26 176.03 463.11 173.63 463.11 178.43"/><line class="cls-3" x1="526.05" y1="176.03" x2="535" y2="176.03"/><polygon class="cls-4" points="534.28 178.43 538.45 176.03 534.28 173.63 534.28 178.43"/><line class="cls-3" x1="597.13" y1="176.03" x2="606.1" y2="176.03"/><polygon class="cls-4" points="605.38 178.43 609.53 176.03 605.38 173.63 605.38 178.43"/><line class="cls-3" x1="241.52" y1="270.71" x2="250.47" y2="270.71"/><polygon class="cls-4" points="249.75 273.11 253.91 270.71 249.75 268.31 249.75 273.11"/><line class="cls-3" x1="312.61" y1="270.71" x2="321.57" y2="270.71"/><polygon class="cls-4" points="320.85 273.11 325 270.71 320.85 268.31 320.85 273.11"/><line class="cls-3" x1="383.78" y1="270.71" x2="392.74" y2="270.71"/><polygon class="cls-4" points="392.01 273.11 396.18 270.71 392.01 268.31 392.01 273.11"/><line class="cls-3" x1="454.88" y1="270.71" x2="463.83" y2="270.71"/><polygon class="cls-4" points="463.11 273.11 467.26 270.71 463.11 268.31 463.11 273.11"/><line class="cls-3" x1="526.05" y1="270.71" x2="535" y2="270.71"/><polygon class="cls-4" points="534.28 273.11 538.45 270.71 534.28 268.31 534.28 273.11"/><line class="cls-3" x1="241.52" y1="365.4" x2="250.47" y2="365.4"/><polygon class="cls-4" points="249.75 367.8 253.91 365.4 249.75 363 249.75 367.8"/><line class="cls-3" x1="312.61" y1="365.4" x2="321.57" y2="365.4"/><polygon class="cls-4" points="320.85 367.8 325 365.4 320.85 363 320.85 367.8"/><line class="cls-3" x1="383.78" y1="365.4" x2="392.74" y2="365.4"/><polygon class="cls-4" points="392.01 367.8 396.18 365.4 392.01 363 392.01 367.8"/><line class="cls-3" x1="454.88" y1="365.4" x2="463.83" y2="365.4"/><polygon class="cls-4" points="463.11 367.8 467.26 365.4 463.11 363 463.11 367.8"/><line class="cls-3" x1="526.05" y1="365.4" x2="535" y2="365.4"/><polygon class="cls-4" points="534.28 367.8 538.45 365.4 534.28 363 534.28 367.8"/><path class="cls-5" d="M667.51,176.59H681a4.56,4.56,0,0,1,4.56,4.56v43.9a4.56,4.56,0,0,1-4.56,4.56H169.38a4.56,4.56,0,0,0-4.56,4.56v32a4.56,4.56,0,0,0,4.56,4.56h10.08"/><polygon class="cls-4" points="178.74 273.11 182.9 270.71 178.74 268.31 178.74 273.11"/><path class="cls-5" d="M667.51,270.71H681a4.56,4.56,0,0,1,4.56,4.56v43.9a4.56,4.56,0,0,1-4.56,4.56H169.38a4.56,4.56,0,0,0-4.56,4.56v32a4.56,4.56,0,0,0,4.56,4.56h10.08"/><polygon class="cls-4" points="178.74 367.23 182.9 364.83 178.74 362.43 178.74 367.23"/><line class="cls-3" x1="597.13" y1="270.71" x2="606.1" y2="270.71"/><polygon class="cls-4" points="605.38 273.11 609.53 270.71 605.38 268.31 605.38 273.11"/><g id="_编组_" data-name=" 编组 " class="cls-6"><circle id="_路径_" data-name=" 路径 " class="cls-7" cx="212.17" cy="161.48" r="4.6"/><circle id="_路径_2" data-name=" 路径 2" class="cls-7" cx="221.38" cy="177.59" r="4.6"/><circle id="_路径_3" data-name=" 路径 3" class="cls-7" cx="207.57" cy="169.53" r="4.6"/><circle id="_路径_4" data-name=" 路径 4" class="cls-7" cx="216.77" cy="169.53" r="4.6"/><circle id="_路径_5" data-name=" 路径 5" class="cls-7" cx="202.97" cy="177.59" r="4.6"/><circle id="_路径_6" data-name=" 路径 6" class="cls-7" cx="212.17" cy="177.59" r="4.6"/></g><g class="cls-8"><text class="cls-9" transform="translate(191.4 194.7)">R</text><text class="cls-10" transform="translate(196.64 194.7)">ound Bar</text></g><path class="cls-11" d="M364.1,180.78l-3.48-23.25a2.53,2.53,0,0,0-2.49-2.15h-7.77a2.52,2.52,0,0,0-2.49,2.15l-3.47,23.26a2.51,2.51,0,0,0,2.11,2.87h15.08a2.52,2.52,0,0,0,2.52-2.52v-.36Zm-14.22-23a.48.48,0,0,1,.48-.42h7.74a.5.5,0,0,1,.49.42l1.73,11.7H348.1Z"/><g class="cls-8"><text class="cls-10" transform="translate(338.06 194.7)">Anal</text><text class="cls-10" transform="translate(356.13 194.7)">y</text><text class="cls-10" transform="translate(360.72 194.7)">tic</text></g><path class="cls-11" d="M433.85,277.6l-5.32-8.47a8.58,8.58,0,1,0-1.81,1.12l5.32,8.49a1.07,1.07,0,0,0,.9.49.93.93,0,0,0,.57-.16,1.06,1.06,0,0,0,.33-1.47Zm-12.07-8.85a6.4,6.4,0,1,1,7.64-4.85h0A6.41,6.41,0,0,1,421.78,268.75Z"/><g class="cls-8"><text class="cls-10" transform="translate(404.49 291.75)">Inspection</text><text class="cls-10" transform="translate(411.28 303.27)"><tspan xml:space="preserve">of  Si</tspan></text><text class="cls-9" transform="translate(430.71 303.27)">z</text><text class="cls-10" transform="translate(434.35 303.27)">e</text></g><path class="cls-11" d="M291.81,180.55l-5.32-8.47a8.55,8.55,0,1,0-1.8,1.12l5.32,8.49a1,1,0,0,0,.9.49,1,1,0,0,0,.57-.16,1.08,1.08,0,0,0,.34-1.47Zm-12.07-8.85a6.4,6.4,0,1,1,7.64-4.85h0A6.41,6.41,0,0,1,279.74,171.7Z"/><text class="cls-12" transform="translate(262.46 194.7)">Inspection</text><path class="cls-11" d="M508,169.81v-1.2h.8a12.58,12.58,0,0,0-12-12v.8h-1.2v-.8a12.57,12.57,0,0,0-12,12h.8v1.2h-.8a12.55,12.55,0,0,0,12,11.94V181h1.2v.8a12.57,12.57,0,0,0,12-11.94Zm-21,0h-1.68v-1.2H487Zm8.64-11.52h1.2V160h-1.2Zm0,2.52h1.2v1.68h-1.2Zm0,2.52h1.2V165h-1.2Zm-6.12,6.48h-1.68v-1.2h1.68Zm2.52,0h-1.68v-1.2h1.72Zm4.8,10.32h-1.2v-1.68h1.2Zm0-2.52h-1.2v-1.68h1.2Zm0-2.52h-1.2v-1.68h1.2Zm2.76-5.28h-1.23a2.24,2.24,0,0,1-1.53,1.53v1.23h-1.2v-1.23a2.2,2.2,0,0,1-1.53-1.53H492.9v-1.2h1.2a2.2,2.2,0,0,1,1.53-1.53v-1.23h1.2v1.23a2.24,2.24,0,0,1,1.53,1.53h1.23Zm2.52,0h-1.68v-1.2h1.64Zm2.52,0H503v-1.2h1.67Zm2.52,0H505.5v-1.2h1.68Z"/><g class="cls-8"><text class="cls-10" transform="translate(477.01 194.7)">Ce</text><text class="cls-13" transform="translate(486.92 194.7)">n</text><text class="cls-14" transform="translate(491.99 194.7)">t</text><text class="cls-10" transform="translate(495.2 194.7)">ering</text></g><circle class="cls-11" cx="567.26" cy="169.7" r="9.73"/><path class="cls-11" d="M579.26,158.4h0a.7.7,0,0,0-.7-.7h-11a12.15,12.15,0,0,0-12.23,11.66,12,12,0,0,0,24,1.09h0a.71.71,0,0,0-.67-.75h0a.69.69,0,0,0-.7.65,10.59,10.59,0,1,1-10.57-11.24h11.29a.7.7,0,0,0,.71-.7h-.08Z"/><g class="cls-8"><text class="cls-9" transform="translate(558.88 194.7)">P</text><text class="cls-10" transform="translate(563.84 194.7)">eel</text></g><path class="cls-15" d="M638.1,185.17c-1.36-4.35-8.75-6.15-10.06-9.87-.62-2.36-.56-5.1.62-6.9,0,2.36,1.68,5.66,3.22,4s-3-2.11-2.35-5.59c.13-1.62,1.48-2.49,2-6.15,1.56,1.55-.86,4.1,2.8,5.59-4.4-5.34,3.41-7.27,2.79-12.42,5.84,5.77.13,9.31,3.3,10.81,1.18.49,2.85-2.68,1.74-5.28,3.48,3,3.1,6.21,1.3,8.75-.68.94.06,2.92.93,3.54-.31-1.86,1.31-2.79,1.74-4.6,3.23,3.61,4.41,8-.93,11.62A28.34,28.34,0,0,0,638.1,185.17Z"/><g class="cls-8"><text class="cls-10" transform="translate(622.86 194.7)">He</text><text class="cls-14" transform="translate(633.75 194.7)">a</text><text class="cls-10" transform="translate(638.4 194.7)">ting</text></g><path class="cls-15" d="M496.1,282.22c-1.37-4.35-8.76-6.15-10.07-9.87-.62-2.36-.56-5.1.62-6.9,0,2.36,1.67,5.66,3.23,4s-3-2.11-2.35-5.59c.12-1.62,1.48-2.49,2-6.15,1.56,1.55-.86,4.1,2.79,5.59-4.41-5.34,3.42-7.27,2.8-12.42,5.84,5.77.13,9.31,3.29,10.81,1.18.49,2.85-2.68,1.74-5.28,3.48,3,3.1,6.21,1.3,8.75-.68.94.06,2.92.93,3.54-.31-1.86,1.31-2.79,1.74-4.6,3.23,3.61,4.41,8-.93,11.62A28.14,28.14,0,0,0,496.1,282.22Z"/><g class="cls-8"><text class="cls-10" transform="translate(479.67 291.75)">Solution</text><text class="cls-16" transform="translate(475.54 303.27)">T</text><text class="cls-14" transform="translate(479.8 303.27)">r</text><text class="cls-10" transform="translate(483.1 303.27)">e</text><text class="cls-14" transform="translate(487.93 303.27)">a</text><text class="cls-10" transform="translate(492.59 303.27)">tme</text><text class="cls-13" transform="translate(508.55 303.27)">n</text><text class="cls-10" transform="translate(513.63 303.27)">t</text></g><path class="cls-11" d="M554.6,268.72a5.53,5.53,0,0,1-2.56-.65,4.31,4.31,0,0,0-2.22-.53,1.4,1.4,0,1,1,0-2.8h0a7.07,7.07,0,0,1,3.43.8,2.74,2.74,0,0,0,1.35.38,3.14,3.14,0,0,0,1.43-.37,7.93,7.93,0,0,1,3.28-.81,8.72,8.72,0,0,1,2.38.29,11.3,11.3,0,0,0,2.47.33h14.66a1.4,1.4,0,1,1,0,2.8H564.16a13.7,13.7,0,0,1-3-.39,6.72,6.72,0,0,0-1.66-.24,5.45,5.45,0,0,0-2.28.57A5.71,5.71,0,0,1,554.6,268.72Z"/><rect class="cls-11" x="564.49" y="253.6" width="10.86" height="10.86" rx="1.78"/><rect class="cls-11" x="564.49" y="269.06" width="10.86" height="10.86" rx="1.78"/><g class="cls-8"><text class="cls-10" transform="translate(540.75 291.75)">St</text><text class="cls-9" transform="translate(548.62 291.75)">r</text><text class="cls-10" transform="translate(551.82 291.75)">aig</text><text class="cls-13" transform="translate(563.47 291.75)">h</text><text class="cls-14" transform="translate(568.53 291.75)">t</text><text class="cls-10" transform="translate(571.74 291.75)">ening</text></g><path class="cls-11" d="M212.28,372a10.47,10.47,0,1,1,10.46-10.48A10.46,10.46,0,0,1,212.28,372Zm0-19.33a8.87,8.87,0,1,0,8.86,8.88h0a8.88,8.88,0,0,0-8.86-8.88Z"/><polygon class="cls-11" points="218.43 360.73 213.06 360.73 213.06 355.37 211.47 355.37 211.47 360.73 206.12 360.73 206.12 362.33 211.47 362.33 211.47 367.68 213.06 367.68 213.06 362.33 218.43 362.33 218.43 360.73"/><g class="cls-8"><text class="cls-10" transform="translate(187.46 386.35)">H</text><text class="cls-14" transform="translate(193.52 386.35)">y</text><text class="cls-10" transform="translate(197.96 386.35)">d</text><text class="cls-14" transform="translate(203.11 386.35)">r</text><text class="cls-10" transform="translate(206.4 386.35)">o-</text><text class="cls-13" transform="translate(214.5 386.35)">s</text><text class="cls-17" transform="translate(218.22 386.35)">t<tspan class="cls-18" x="3.14" y="0">a</tspan></text><text class="cls-10" transform="translate(226.11 386.35)">tio</text><text class="cls-19" transform="translate(204.27 397.87)">T</text><text class="cls-10" transform="translate(208.2 397.87)">e</text><text class="cls-13" transform="translate(213.03 397.87)">s</text><text class="cls-10" transform="translate(216.75 397.87)">t</text></g><path class="cls-11" d="M354.21,277.53a10.2,10.2,0,1,1,10.2-10.2A10.2,10.2,0,0,1,354.21,277.53Zm0-14.08a3.84,3.84,0,1,0,3.83,3.84h0A3.83,3.83,0,0,0,354.21,263.45Z"/><path class="cls-11" d="M350.53,255.29h0a.64.64,0,0,0-.8-.4,13.13,13.13,0,0,0-7.92,7.92.61.61,0,0,0,.35.79h0a.63.63,0,0,0,.76-.4,12.06,12.06,0,0,1,7.2-7.2A.58.58,0,0,0,350.53,255.29Z"/><path class="cls-11" d="M342.21,271h0a.63.63,0,0,0-.4.8,13.13,13.13,0,0,0,7.92,7.92.6.6,0,0,0,.78-.36s0,0,0,0h0a.64.64,0,0,0-.4-.76,12.06,12.06,0,0,1-7.2-7.2A.59.59,0,0,0,342.21,271Z"/><path class="cls-11" d="M357.89,279.29h0a.63.63,0,0,0,.8.4,13.18,13.18,0,0,0,7.92-7.92.63.63,0,0,0-.36-.79h0a.62.62,0,0,0-.76.4,12.12,12.12,0,0,1-7.2,7.2A.6.6,0,0,0,357.89,279.29Z"/><path class="cls-11" d="M366.21,263.61h0a.64.64,0,0,0,.39-.8,13.13,13.13,0,0,0-7.92-7.92.6.6,0,0,0-.78.36s0,0,0,0h0a.64.64,0,0,0,.4.76,12.11,12.11,0,0,1,7.21,7.2.54.54,0,0,0,.68.37Z"/><text class="cls-12" transform="translate(343.42 291.75)">Sizing</text><path class="cls-11" d="M282.6,275.41A6.4,6.4,0,1,1,289,269h0A6.43,6.43,0,0,1,282.6,275.41Zm0-8.8A2.4,2.4,0,1,0,285,269h0a2.42,2.42,0,0,0-2.4-2.4Z"/><circle class="cls-11" cx="282.6" cy="257.53" r="5"/><circle class="cls-11" cx="292.56" cy="274.77" r="5"/><circle class="cls-11" cx="272.64" cy="274.77" r="5"/><g class="cls-8"><text class="cls-10" transform="translate(258.86 291.75)">Th</text><text class="cls-14" transform="translate(268.76 291.75)">r</text><text class="cls-10" transform="translate(272.07 291.75)">ee S</text><text class="cls-20" transform="translate(288.44 291.75)">k</text><text class="cls-10" transform="translate(292.79 291.75)">e</text><text class="cls-14" transform="translate(297.57 291.75)">w</text><text class="cls-10" transform="translate(304.59 291.75)">-</text><text class="cls-9" transform="translate(258.72 303.27)">R</text><text class="cls-10" transform="translate(263.96 303.27)">oll Pie</text><text class="cls-14" transform="translate(288.31 303.27)">r</text><text class="cls-10" transform="translate(291.57 303.27)">cing</text></g><path class="cls-11" d="M228.1,258.47h-33a.62.62,0,0,0-.6.6v5.6h15.24c3.36,0,6,.76,6,1.72s-2.72,1.72-6,1.72H194.47v5.6a.62.62,0,0,0,.6.6h33a.63.63,0,0,0,.6-.6v-14.6a.59.59,0,0,0-.52-.64Z"/><g class="cls-8"><text class="cls-9" transform="translate(189.66 291.75)">P</text><text class="cls-10" transform="translate(194.62 291.75)">er</text><text class="cls-9" transform="translate(202.86 291.75)">f</text><text class="cls-10" transform="translate(205.75 291.75)">o</text><text class="cls-9" transform="translate(210.91 291.75)">r</text><text class="cls-14" transform="translate(214.12 291.75)">a</text><text class="cls-10" transform="translate(218.76 291.75)">tion</text></g><path class="cls-11" d="M637.87,279.18a13.28,13.28,0,0,1-2.52-.24l.24-1.16a12.56,12.56,0,0,0,3.67.16l.16,1.2C638.91,279.18,638.38,279.18,637.87,279.18Zm3.56-.48-.32-1.16a12.91,12.91,0,0,0,3.32-1.56l.68,1a14.87,14.87,0,0,1-3.68,1.72Zm-8-.32a12.39,12.39,0,0,1-3.52-2l.76-.92a10.85,10.85,0,0,0,3.2,1.84Zm13.24-2.72-.85-.88a11.25,11.25,0,0,0,2.21-2.92l1.08.56a14.06,14.06,0,0,1-2.44,3.24Zm-18.24-.72a11.54,11.54,0,0,1-2.16-3.44l1.12-.48a11.73,11.73,0,0,0,2,3.08Zm21.48-4.4-1.12-.36a11.24,11.24,0,0,0,.59-3.64h1.21a15.52,15.52,0,0,1-.68,4Zm-24.29-1a13.75,13.75,0,0,1-.36-3c0-.33,0-.67,0-1l1.21.08a6.46,6.46,0,0,0,0,.88,12.24,12.24,0,0,0,.32,2.76Zm23.56-4.92a11.87,11.87,0,0,0-1.15-3.48l1.08-.56a12.16,12.16,0,0,1,1.28,3.84Zm-22.44-.84-1.15-.28a11.17,11.17,0,0,1,1.59-3.72l1,.64a12.4,12.4,0,0,0-1.43,3.4Zm20.29-4.2a11.13,11.13,0,0,0-2.65-2.52l.68-1a11.78,11.78,0,0,1,2.92,2.8ZM629.31,259l-.92-.8a12.63,12.63,0,0,1,3.12-2.56l.6,1A11,11,0,0,0,629.31,259Zm13.44-2.8a11.09,11.09,0,0,0-3.52-1l.12-1.2a12.11,12.11,0,0,1,3.91,1.12Zm-9-.32-.44-1.12a12.12,12.12,0,0,1,4-.8v1.2a10.08,10.08,0,0,0-3.52.7Z"/><path class="cls-11" d="M637.87,276.34a9.8,9.8,0,1,1,9.8-9.8h0A9.83,9.83,0,0,1,637.87,276.34Zm0-13.48a3.68,3.68,0,1,0,3.68,3.68h0a3.68,3.68,0,0,0-3.66-3.68Z"/><g class="cls-8"><text class="cls-20" transform="translate(619.18 291.75)">X</text><text class="cls-10" transform="translate(624.16 291.75)">-</text><text class="cls-9" transform="translate(627.1 291.75)">r</text><text class="cls-21" transform="translate(630.3 291.75)">a</text><text class="cls-10" transform="translate(634.87 291.75)">y </text><text class="cls-19" transform="translate(641.59 291.75)">T</text><text class="cls-10" transform="translate(645.51 291.75)">e</text><text class="cls-13" transform="translate(650.34 291.75)">s</text><text class="cls-10" transform="translate(654.06 291.75)">t</text></g><path class="cls-11" d="M293.22,372.3h-20a3.22,3.22,0,0,1-3.21-3.2V352.66h1.56V369.1a1.66,1.66,0,0,0,1.65,1.64h20a1.66,1.66,0,0,0,1.64-1.64h0V352.66h1.56V369.1A3.22,3.22,0,0,1,293.22,372.3Z"/><rect class="cls-11" x="270.02" y="356.3" width="26.4" height="1.64"/><path class="cls-11" d="M286.46,370.94a4.4,4.4,0,1,1,4.39-4.4h0A4.43,4.43,0,0,1,286.46,370.94Zm0-6.08a1.64,1.64,0,0,0,0,3.28,1.68,1.68,0,0,0,1.64-1.64,1.66,1.66,0,0,0-1.64-1.64Z"/><g class="cls-8"><text class="cls-10" transform="translate(263.71 386.35)">Pickling / </text><text class="cls-9" transform="translate(261.17 397.87)">P</text><text class="cls-10" transform="translate(266.09 397.87)">assi</text><text class="cls-13" transform="translate(280.85 397.87)">v</text><text class="cls-14" transform="translate(285.25 397.87)">a</text><text class="cls-10" transform="translate(289.9 397.87)">ting</text></g><path class="cls-11" d="M410.47,177.48c-2.4,0-4.19-3.42-4.19-7.95s1.79-7.95,4.19-7.95,4.19,3.42,4.19,7.95S412.86,177.48,410.47,177.48Zm0-14.07c-1,0-2.36,2.4-2.36,6.12s1.4,6.12,2.36,6.12,2.35-2.4,2.35-6.12S411.43,163.41,410.47,163.41Z"/><ellipse class="cls-11" cx="439.99" cy="169.53" rx="3.27" ry="7.04"/><path class="cls-11" d="M440,177.48c-2.4,0-4.18-3.42-4.18-7.95s1.8-7.95,4.18-7.95,4.19,3.42,4.19,7.95S442.38,177.48,440,177.48Zm0-14.07c-1,0-2.35,2.4-2.35,6.12s1.39,6.12,2.35,6.12,2.36-2.4,2.36-6.12S441,163.41,440,163.41Z"/><path class="cls-11" d="M424.82,161.58l-.22.19-.18-.19H410.47c2.4,0,4.19,3.42,4.19,7.95s-1.8,7.95-4.19,7.95h13.94c.15-.16.29-.32.43-.5l.67.5H440v-15.9Zm3.13,5.6-1.37.16a15.65,15.65,0,0,0-.4-2.15l1.33-.35a20.55,20.55,0,0,1,.45,2.34Zm-1.71-5.48a11.09,11.09,0,0,1,1,2.22l-1.29.43a9.53,9.53,0,0,0-.88-1.92Zm.24,15.24-1.2-.65a11.09,11.09,0,0,0,.79-2l1.31.4a12.15,12.15,0,0,1-.9,2.25Zm1.14-3.17-1.33-.31a19.42,19.42,0,0,0,.34-2.16l1.37.13a20.37,20.37,0,0,1-.38,2.34Zm.44-3.29-1.37-.06v-2.21l1.36-.09v1.41a6.11,6.11,0,0,1,.05.95Z"/><g class="cls-8"><text class="cls-10" transform="translate(398.58 194.7)">Cut </text><text class="cls-14" transform="translate(414.31 194.7)">t</text><text class="cls-10" transform="translate(417.55 194.7)">o Len</text><text class="cls-14" transform="translate(438.92 194.7)">g</text><text class="cls-10" transform="translate(443.4 194.7)">th</text></g><path class="cls-11" d="M435.1,372.43l-3.47-23.25A2.53,2.53,0,0,0,429.1,347h-7.77a2.5,2.5,0,0,0-2.49,2.15l-3.47,23.26a2.51,2.51,0,0,0,2.11,2.87h0a2.28,2.28,0,0,0,.37,0h14.7a2.52,2.52,0,0,0,2.52-2.52v-.38Zm-14.21-23a.48.48,0,0,1,.48-.42h7.73a.5.5,0,0,1,.49.42l1.73,11.7H419.1Z"/><g class="cls-8"><text class="cls-10" transform="translate(409.08 386.35)">Anal</text><text class="cls-10" transform="translate(427.15 386.35)">y</text><text class="cls-10" transform="translate(431.74 386.35)">tic</text></g><path class="cls-11" d="M362.83,372.2l-5.32-8.47a8.51,8.51,0,1,0-1.8,1.13l5.32,8.48a1.08,1.08,0,0,0,.9.5,1.06,1.06,0,0,0,1.06-1.08A1.1,1.1,0,0,0,362.83,372.2Zm-12.07-8.84a6.4,6.4,0,1,1,7.64-4.86,6.4,6.4,0,0,1-7.64,4.86Z"/><text class="cls-12" transform="translate(333.48 386.35)">Inspection</text><polygon class="cls-11" points="498.38 364.4 495.94 366.59 495.52 365.44 495.52 365.44 494.12 361.56 480.85 367.47 495.55 356.55 496.06 357.95 496.92 360.31 497.58 362.16 504.63 358.81 498.4 364.39 498.4 364.39 498.38 364.4"/><path class="cls-11" d="M490.19,358.44a9.11,9.11,0,0,1,15.53-4.71,12.34,12.34,0,0,0-22,9.5Z"/><path class="cls-11" d="M502.23,368.63a9,9,0,0,1-6.07,0l-.94.85-.56-1.53a9,9,0,0,1-3.36-3.31l-6.08,2.71a12.34,12.34,0,0,0,23-6.61A9.13,9.13,0,0,1,502.23,368.63Z"/><circle class="cls-11" cx="507.39" cy="357.02" r="1.62"/><text class="cls-12" transform="translate(479.65 386.35)">Marking</text><path class="cls-11" d="M566.48,352.1h-10v12.33h14V352.1Zm-2.25,1.8a.73.73,0,0,1-.73.72.71.71,0,0,1-.71-.72.72.72,0,0,1,.72-.72h0a.71.71,0,0,1,.72.71Zm-5,0a.73.73,0,0,1-.73.72.71.71,0,0,1-.71-.72.72.72,0,0,1,.72-.72h0a.71.71,0,0,1,.73.69,0,0,0,0,1,0,0Zm1.31-.72h1v4.22h-1Zm-2.74,9.29a.72.72,0,1,1,.72.71h0a.72.72,0,0,1-.7-.71Zm2.74.71v-4.06h1v4.07Zm2.24-.71a.72.72,0,0,1,1.44,0,.73.73,0,0,1-.73.72h0A.71.71,0,0,1,562.78,362.47Zm5,0a.72.72,0,1,1,.72.71h0a.7.7,0,0,1-.71-.7Zm-1.3.71h-1v-4.06h.94Zm-1-5.78v-4.22h.94v4.22Zm3.67-3.5a.73.73,0,0,1-.73.72.71.71,0,0,1-.71-.72.72.72,0,0,1,.72-.72h0a.71.71,0,0,1,.73.71h0Z"/><circle class="cls-11" cx="556.98" cy="368.74" r="1.87"/><path class="cls-11" d="M557,367.33a1.41,1.41,0,0,0-1.42,1.41h2.83a1.41,1.41,0,0,0-1.41-1.41Z"/><path class="cls-11" d="M551.19,364.93v3.81h3.45a2.33,2.33,0,1,1,4.66-.19.61.61,0,0,1,0,.19h12.5v-3.81Z"/><circle class="cls-11" cx="578.51" cy="368.74" r="1.87"/><path class="cls-11" d="M578.51,367.33a1.41,1.41,0,0,0-1.4,1.41h2.83A1.43,1.43,0,0,0,578.51,367.33Z"/><path class="cls-11" d="M579.94,356.68H572.5v12.06h3.7a2.33,2.33,0,1,1,4.66-.19v.19h3.7v-5.4Z"/><g class="cls-8"><text class="cls-9" transform="translate(547.63 386.35)">P</text><text class="cls-10" transform="translate(552.55 386.35)">acking &amp;</text><text class="cls-10" transform="translate(550.07 397.87)">Shipping</text></g></svg>