<svg id="图层_1" data-name="图层 1" xmlns="http://www.w3.org/2000/svg" viewBox="0 0 850.4 566.9"><defs><style>.cls-1,.cls-11{fill:none;}.cls-1{stroke:#eee;stroke-miterlimit:10;}.cls-12,.cls-2,.cls-3,.cls-31,.cls-34{fill:#999;}.cls-3,.cls-34,.cls-5{isolation:isolate;}.cls-3{font-size:9.59px;}.cls-12,.cls-3,.cls-34{font-family:Calibri-Bold, Calibri;font-weight:700;}.cls-4{letter-spacing:0em;}.cls-6{letter-spacing:-0.02em;}.cls-7{letter-spacing:-0.02em;}.cls-8{letter-spacing:-0.01em;}.cls-9{letter-spacing:-0.01em;}.cls-10{letter-spacing:0em;}.cls-11{stroke:#999;stroke-linecap:round;stroke-linejoin:round;stroke-width:1.6px;}.cls-12{font-size:9.59px;}.cls-13{letter-spacing:-0.01em;}.cls-14{letter-spacing:-0.02em;}.cls-15{letter-spacing:-0.03em;}.cls-16{letter-spacing:0em;}.cls-17{letter-spacing:-0.02em;}.cls-18{letter-spacing:-0.02em;}.cls-19{letter-spacing:-0.09em;}.cls-20{letter-spacing:-0.01em;}.cls-21{letter-spacing:-0.01em;}.cls-22{letter-spacing:-0.01em;}.cls-23{letter-spacing:-0.01em;}.cls-24{letter-spacing:-0.09em;}.cls-25{letter-spacing:0em;}.cls-26{letter-spacing:-0.01em;}.cls-27{letter-spacing:-0.01em;}.cls-28{letter-spacing:-0.01em;}.cls-29{letter-spacing:-0.02em;}.cls-30{letter-spacing:-0.01em;}.cls-31{fill-rule:evenodd;}.cls-32{letter-spacing:-0.05em;}.cls-33{letter-spacing:0em;}.cls-34{font-size:8px;}.cls-35{letter-spacing:-0.04em;}.cls-36{letter-spacing:0em;}.cls-37{letter-spacing:-0.05em;}.cls-38{letter-spacing:-0.04em;}</style></defs><title>weldedpipetubeprocesssolution1</title><line class="cls-1" x1="850.4" y1="46.7" y2="46.7"/><line class="cls-1" x1="850.4" y1="165.1" y2="165.1"/><line class="cls-1" x1="850.4" y1="283.5" y2="283.5"/><line class="cls-1" x1="850.4" y1="401.9" y2="401.9"/><line class="cls-1" x1="850.4" y1="105.9" y2="105.9"/><line class="cls-1" x1="850.4" y1="224.3" y2="224.3"/><line class="cls-1" x1="850.4" y1="342.7" y2="342.7"/><line class="cls-1" x1="850.4" y1="461" y2="461"/><line class="cls-1" x1="850.4" y1="520.2" y2="520.2"/><line class="cls-1" x1="850.4" y1="135.5" y2="135.5"/><line class="cls-1" x1="850.4" y1="253.9" y2="253.9"/><line class="cls-1" x1="850.4" y1="372.3" y2="372.3"/><line class="cls-1" x1="850.4" y1="76.3" y2="76.3"/><line class="cls-1" x1="850.4" y1="17.1" y2="17.1"/><line class="cls-1" x1="850.4" y1="194.7" y2="194.7"/><line class="cls-1" x1="850.4" y1="313.1" y2="313.1"/><line class="cls-1" x1="850.4" y1="431.4" y2="431.4"/><line class="cls-1" x1="850.4" y1="490.6" y2="490.6"/><line class="cls-1" x1="850.4" y1="549.8" y2="549.8"/><line class="cls-1" x1="10.8" x2="10.8" y2="566.9"/><line class="cls-1" x1="129.2" x2="129.2" y2="566.9"/><line class="cls-1" x1="247.6" x2="247.6" y2="566.9"/><line class="cls-1" x1="366" x2="366" y2="566.9"/><line class="cls-1" x1="484.4" x2="484.4" y2="566.9"/><line class="cls-1" x1="602.8" x2="602.8" y2="566.9"/><line class="cls-1" x1="839.5" x2="839.5" y2="566.9"/><line class="cls-1" x1="721.2" x2="721.2" y2="566.9"/><line class="cls-1" x1="70" x2="70" y2="566.9"/><line class="cls-1" x1="188.4" x2="188.4" y2="566.9"/><line class="cls-1" x1="306.8" x2="306.8" y2="566.9"/><line class="cls-1" x1="425.2" x2="425.2" y2="566.9"/><line class="cls-1" x1="543.6" x2="543.6" y2="566.9"/><line class="cls-1" x1="662" x2="662" y2="566.9"/><line class="cls-1" x1="780.4" x2="780.4" y2="566.9"/><line class="cls-1" x1="810" x2="810" y2="566.9"/><line class="cls-1" x1="99.6" x2="99.6" y2="566.9"/><line class="cls-1" x1="218" x2="218" y2="566.9"/><line class="cls-1" x1="336.4" x2="336.4" y2="566.9"/><line class="cls-1" x1="454.8" x2="454.8" y2="566.9"/><line class="cls-1" x1="573.2" x2="573.2" y2="566.9"/><line class="cls-1" x1="691.6" x2="691.6" y2="566.9"/><line class="cls-1" x1="40.4" x2="40.4" y2="566.9"/><line class="cls-1" x1="158.8" x2="158.8" y2="566.9"/><line class="cls-1" x1="277.2" x2="277.2" y2="566.9"/><line class="cls-1" x1="395.6" x2="395.6" y2="566.9"/><line class="cls-1" x1="514" x2="514" y2="566.9"/><line class="cls-1" x1="632.4" x2="632.4" y2="566.9"/><line class="cls-1" x1="750.8" x2="750.8" y2="566.9"/><path class="cls-2" d="M434.27,372.17,429,363.7a8.47,8.47,0,1,0-1.76,1.11l5.2,8.48a1,1,0,0,0,.88.48,1.44,1.44,0,0,0,.55-.16,1,1,0,0,0,.4-1.44Zm-12.07-8.79a6.39,6.39,0,1,1,7.6-4.88,6.45,6.45,0,0,1-7.6,4.88Z"/><text class="cls-3" transform="translate(404.92 386.33)">Inspection</text><path class="cls-2" d="M364.8,371.13H344.73a3.21,3.21,0,0,1-3.2-3.2V351.54h1.52V368a1.6,1.6,0,0,0,1.6,1.6h20a1.6,1.6,0,0,0,1.6-1.6V351.54h1.51V368A2.93,2.93,0,0,1,364.8,371.13Z"/><path class="cls-2" d="M358,369.77a4.4,4.4,0,1,1,4.4-4.4A4.44,4.44,0,0,1,358,369.77Zm0-7.27a2.88,2.88,0,1,0,2.88,2.87h0A2.87,2.87,0,0,0,358,362.5Z"/><rect class="cls-2" x="341.53" y="355.14" width="26.38" height="1.68"/><text class="cls-3" transform="translate(339.4 386.33)">Pickling</text><path class="cls-2" d="M506.47,372.41,503,349.14a2.56,2.56,0,0,0-2.48-2.15H492.8a2.43,2.43,0,0,0-2.48,2.15l-3.44,23.27a2.52,2.52,0,0,0,2.08,2.88h15.11a2.62,2.62,0,0,0,2.56-2.48.44.44,0,0,1-.16-.4Zm-14.23-23a.45.45,0,0,1,.48-.4h7.75a.45.45,0,0,1,.48.4l1.76,11.68H490.48Z"/><text class="cls-3" transform="translate(480.52 386.33)">Anal<tspan class="cls-4" x="18.05" y="0">y</tspan><tspan x="22.65" y="0">tic</tspan></text><path class="cls-2" d="M637.83,352.1h-9.91v12.31h14V352.1Zm-2.24,1.76a.72.72,0,1,1-.72-.72.84.84,0,0,1,.72.72Zm-5,0a.72.72,0,1,1-.72-.72h0A.84.84,0,0,1,630.64,353.86Zm1.28-.64h1v4.24h-1Zm-2.72,9.28a.72.72,0,1,1,.72.72h0A.72.72,0,0,1,629.2,362.5Zm2.72.72v-4.08h1v4.08Zm2.23-.72a.72.72,0,1,1,.72.72.72.72,0,0,1-.72-.72Zm5,0a.72.72,0,1,1,.72.72h0a.72.72,0,0,1-.72-.72Zm-1.28.72h-1v-4.08h1Zm-1-5.84v-4.24h1v4.24Zm3.68-3.52a.72.72,0,1,1-.72-.72h0a.72.72,0,0,1,.72.72Z"/><circle class="cls-2" cx="628.32" cy="368.73" r="1.84"/><path class="cls-2" d="M628.32,367.29a1.43,1.43,0,0,0-1.44,1.44h2.8a1.32,1.32,0,0,0-1.36-1.44Z"/><path class="cls-2" d="M622.56,364.89v3.84H626a2.32,2.32,0,1,1,4.64-.16v.16h12.47v-3.84Z"/><circle class="cls-2" cx="649.9" cy="368.73" r="1.84"/><path class="cls-2" d="M649.9,367.29a1.43,1.43,0,0,0-1.43,1.44h2.79A1.42,1.42,0,0,0,649.9,367.29Z"/><path class="cls-2" d="M651.34,356.66h-7.43v12.07h3.68a2.32,2.32,0,1,1,4.63-.16v.16h3.68V363.3Z"/><g class="cls-5"><text class="cls-3" transform="translate(618.91 386.33)"><tspan class="cls-6">P</tspan><tspan x="4.92" y="0">acking &amp;</tspan></text><text class="cls-3" transform="translate(621.47 397.84)">Shipping</text></g><path class="cls-2" d="M719.78,181.88h-20a3.19,3.19,0,0,1-3.19-3.19V162.3h1.51v16.47a1.6,1.6,0,0,0,1.6,1.6h20a1.6,1.6,0,0,0,1.6-1.6V162.3h1.52v16.47A3,3,0,0,1,719.78,181.88Z"/><path class="cls-2" d="M713,180.53a4.4,4.4,0,1,1,4.39-4.4A4.44,4.44,0,0,1,713,180.53Zm0-7.28a2.88,2.88,0,1,0,2.87,2.88h0a2.87,2.87,0,0,0-2.87-2.88Z"/><rect class="cls-2" x="696.52" y="165.89" width="26.38" height="1.68"/><text class="cls-3" transform="translate(694.38 197.08)">Pickling</text><path class="cls-2" d="M506.49,181.88h-20a3.2,3.2,0,0,1-3.2-3.19V162.3h1.52v16.47a1.6,1.6,0,0,0,1.6,1.6h20a1.6,1.6,0,0,0,1.6-1.6V162.3h1.52v16.47A3,3,0,0,1,506.49,181.88Z"/><path class="cls-2" d="M499.69,180.53a4.4,4.4,0,1,1,4.4-4.4A4.44,4.44,0,0,1,499.69,180.53Zm0-7.28a2.88,2.88,0,1,0,2.88,2.88h0a2.87,2.87,0,0,0-2.88-2.88Z"/><rect class="cls-2" x="483.22" y="165.89" width="26.38" height="1.68"/><text class="cls-3" transform="translate(481.09 197.08)">Pickling</text><path class="cls-2" d="M625.91,174.05a6.25,6.25,0,0,1-2.56-.64,4,4,0,0,0-2.24-.56,1.44,1.44,0,0,1,0-2.88,7.41,7.41,0,0,1,3.44.8,2.7,2.7,0,0,0,1.36.4,3.26,3.26,0,0,0,1.44-.4,8,8,0,0,1,3.27-.8,6.22,6.22,0,0,1,2.4.32,11.65,11.65,0,0,0,2.48.32h14.63a1.44,1.44,0,1,1,0,2.88H635.5a14.78,14.78,0,0,1-3-.4,7.05,7.05,0,0,0-1.68-.24,6,6,0,0,0-2.23.56A6.1,6.1,0,0,1,625.91,174.05Z"/><path class="cls-2" d="M645.18,169.81h-8a1.43,1.43,0,0,1-1.44-1.44v-8a1.43,1.43,0,0,1,1.44-1.44h8a1.43,1.43,0,0,1,1.43,1.44v8A1.43,1.43,0,0,1,645.18,169.81Z"/><path class="cls-2" d="M645.18,174.37h-8a1.43,1.43,0,0,0-1.44,1.44v8a1.43,1.43,0,0,0,1.44,1.44h8a1.43,1.43,0,0,0,1.43-1.44v-8A1.43,1.43,0,0,0,645.18,174.37Z"/><text class="cls-3" transform="translate(611.83 197.08)">St<tspan class="cls-7" x="7.86" y="0">r</tspan><tspan x="11.06" y="0">aig</tspan><tspan class="cls-8" x="22.7" y="0">h</tspan><tspan class="cls-9" x="27.76" y="0">t</tspan><tspan class="cls-10" x="30.97" y="0">ening</tspan></text><polygon class="cls-2" points="569.79 364.42 567.31 366.57 566.91 365.45 566.91 365.45 565.48 361.54 552.2 367.45 566.91 356.58 567.47 357.94 568.27 360.34 568.99 362.18 576.03 358.82 569.79 364.42 569.79 364.42"/><path class="cls-2" d="M561.56,358.42a9.11,9.11,0,0,1,15.51-4.72,12.33,12.33,0,0,0-22,9.44Z"/><path class="cls-2" d="M573.63,368.65a8.82,8.82,0,0,1-6.08,0l-1,.88L566,368a9.48,9.48,0,0,1-3.35-3.28l-6.08,2.72a12.35,12.35,0,0,0,23-6.63A9.28,9.28,0,0,1,573.63,368.65Z"/><circle class="cls-2" cx="578.75" cy="356.98" r="1.6"/><text class="cls-3" transform="translate(551.04 386.33)">Marking</text><path class="cls-2" d="M180,176.85h-9a.8.8,0,1,1,0-1.6h9a.8.8,0,1,1,0,1.6Z"/><polygon class="cls-2" points="179.23 178.45 183.39 176.05 179.23 173.65 179.23 178.45"/><path class="cls-2" d="M251,176.85h-9a.8.8,0,1,1,0-1.6h9a.8.8,0,0,1,0,1.6Z"/><polygon class="cls-2" points="250.31 178.45 254.46 176.05 250.31 173.65 250.31 178.45"/><path class="cls-2" d="M322.18,176.85h-8.95a.8.8,0,1,1,0-1.6h8.95a.8.8,0,1,1,0,1.6Z"/><polygon class="cls-2" points="321.46 178.45 325.62 176.05 321.46 173.65 321.46 178.45"/><path class="cls-2" d="M393.26,176.85h-9a.8.8,0,0,1,0-1.6h9a.8.8,0,1,1,0,1.6Z"/><polygon class="cls-2" points="392.54 178.45 396.7 176.05 392.54 173.65 392.54 178.45"/><path class="cls-2" d="M464.42,176.85h-9a.8.8,0,1,1,0-1.6h9a.8.8,0,0,1,0,1.6Z"/><polygon class="cls-2" points="463.7 178.45 467.85 176.05 463.7 173.65 463.7 178.45"/><path class="cls-2" d="M382.42,232.17a.8.8,0,0,1-.8-.8v-9a.8.8,0,0,1,1.6,0v9A.8.8,0,0,1,382.42,232.17Z"/><polygon class="cls-2" points="380.02 230.65 382.42 234.81 384.82 230.65 380.02 230.65"/><path class="cls-2" d="M467.65,234.81a.8.8,0,0,1-.8-.8v-8.95a.8.8,0,1,1,1.6,0V234A.8.8,0,0,1,467.65,234.81Z"/><polygon class="cls-2" points="470.05 225.77 467.65 221.62 465.25 225.77 470.05 225.77"/><path class="cls-2" d="M535.49,176.85h-9a.8.8,0,1,1,0-1.6h9a.8.8,0,1,1,0,1.6Z"/><polygon class="cls-2" points="534.77 178.45 538.93 176.05 534.77 173.65 534.77 178.45"/><path class="cls-2" d="M180,271.51h-9a.8.8,0,0,1,0-1.6h9a.8.8,0,1,1,0,1.6Z"/><polygon class="cls-2" points="179.23 273.11 183.39 270.71 179.23 268.31 179.23 273.11"/><path class="cls-2" d="M251,271.51h-9a.8.8,0,0,1,0-1.6h9a.8.8,0,0,1,0,1.6Z"/><polygon class="cls-2" points="250.31 273.11 254.46 270.71 250.31 268.31 250.31 273.11"/><path class="cls-2" d="M322.18,271.51h-8.95a.8.8,0,0,1,0-1.6h8.95a.8.8,0,0,1,0,1.6Z"/><polygon class="cls-2" points="321.46 273.11 325.62 270.71 321.46 268.31 321.46 273.11"/><path class="cls-2" d="M393.26,271.51h-9a.8.8,0,0,1,0-1.6h9a.8.8,0,0,1,0,1.6Z"/><polygon class="cls-2" points="392.54 273.11 396.7 270.71 392.54 268.31 392.54 273.11"/><path class="cls-2" d="M464.42,271.51h-9a.8.8,0,0,1,0-1.6h9a.8.8,0,0,1,0,1.6Z"/><polygon class="cls-2" points="463.7 273.11 467.85 270.71 463.7 268.31 463.7 273.11"/><path class="cls-2" d="M180,366.17h-9a.8.8,0,0,1,0-1.6h9a.8.8,0,1,1,0,1.6Z"/><polygon class="cls-2" points="179.23 367.77 183.39 365.37 179.23 362.98 179.23 367.77"/><path class="cls-2" d="M251,366.17h-9a.8.8,0,1,1,0-1.6h9a.8.8,0,0,1,0,1.6Z"/><polygon class="cls-2" points="250.31 367.77 254.46 365.37 250.31 362.98 250.31 367.77"/><path class="cls-2" d="M322.18,366.17h-8.95a.8.8,0,0,1,0-1.6h8.95a.8.8,0,1,1,0,1.6Z"/><polygon class="cls-2" points="321.46 367.77 325.62 365.37 321.46 362.98 321.46 367.77"/><path class="cls-2" d="M393.26,366.17h-9a.8.8,0,0,1,0-1.6h9a.8.8,0,0,1,0,1.6Z"/><polygon class="cls-2" points="392.54 367.77 396.7 365.37 392.54 362.98 392.54 367.77"/><path class="cls-2" d="M464.42,366.17h-9a.8.8,0,0,1,0-1.6h9a.8.8,0,1,1,0,1.6Z"/><polygon class="cls-2" points="463.7 367.77 467.85 365.37 463.7 362.98 463.7 367.77"/><path class="cls-2" d="M535.49,366.17h-9a.8.8,0,0,1,0-1.6h9a.8.8,0,1,1,0,1.6Z"/><polygon class="cls-2" points="534.77 367.77 538.93 365.37 534.77 362.98 534.77 367.77"/><path class="cls-2" d="M605.85,366.17h-9a.8.8,0,0,1,0-1.6h9a.8.8,0,1,1,0,1.6Z"/><polygon class="cls-2" points="605.21 367.77 609.37 365.37 605.21 362.98 605.21 367.77"/><path class="cls-11" d="M738.41,176.61h13.51a4.56,4.56,0,0,1,4.56,4.56v94.1"/><path class="cls-11" d="M738.41,270.71h13.51a4.56,4.56,0,0,1,4.56,4.56v43.89a4.56,4.56,0,0,1-4.56,4.56h-653a4.56,4.56,0,0,0-4.56,4.56v32a4.55,4.55,0,0,0,4.56,4.55H109"/><polygon class="cls-2" points="108.23 367.21 112.39 364.81 108.23 362.42 108.23 367.21"/><path class="cls-2" d="M535.49,271.51h-9a.8.8,0,0,1,0-1.6h9a.8.8,0,0,1,0,1.6Z"/><polygon class="cls-2" points="534.77 273.11 538.93 270.71 534.77 268.31 534.77 273.11"/><path class="cls-2" d="M606.41,176.85h-8.95a.8.8,0,0,1,0-1.6h8.95a.8.8,0,0,1,0,1.6Z"/><polygon class="cls-2" points="605.69 178.45 609.85 176.05 605.69 173.65 605.69 178.45"/><path class="cls-2" d="M677.49,176.85h-9a.8.8,0,1,1,0-1.6h9a.8.8,0,1,1,0,1.6Z"/><polygon class="cls-2" points="676.77 178.45 680.93 176.05 676.77 173.65 676.77 178.45"/><path class="cls-2" d="M606.41,271.51h-8.95a.8.8,0,1,1,0-1.6h8.95a.8.8,0,1,1,0,1.6Z"/><polygon class="cls-2" points="605.69 273.11 609.85 270.71 605.69 268.31 605.69 273.11"/><path class="cls-2" d="M677.49,271.51h-9a.8.8,0,0,1,0-1.6h9a.8.8,0,0,1,0,1.6Z"/><polygon class="cls-2" points="676.77 273.11 680.93 270.71 676.77 268.31 676.77 273.11"/><rect class="cls-2" x="122.78" y="356.39" width="25.48" height="7.8"/><path class="cls-2" d="M154.07,354.69a5.6,5.6,0,1,0,5.6,5.59A5.59,5.59,0,0,0,154.07,354.69Zm0,7.9a2.31,2.31,0,1,1,2.31-2.31,2.3,2.3,0,0,1-2.31,2.31Z"/><circle class="cls-2" cx="127.31" cy="367.09" r="2.8"/><circle class="cls-2" cx="135.59" cy="367.09" r="2.8"/><circle class="cls-2" cx="143.87" cy="367.09" r="2.8"/><text class="cls-12" transform="translate(123.98 386.33)">Fl<tspan class="cls-13" x="6.76" y="0">a</tspan><tspan class="cls-14" x="11.41" y="0">t</tspan><tspan x="14.5" y="0">-end</tspan></text><path class="cls-2" d="M212.44,371.79a9.8,9.8,0,1,1,9.79-9.79h0A9.8,9.8,0,0,1,212.44,371.79Zm0-16.79a7,7,0,1,0,7,7A7,7,0,0,0,212.44,355Z"/><path class="cls-2" d="M212.44,374.64a13.19,13.19,0,0,1-2.51-.25l.23-1.18a11.6,11.6,0,0,0,3.67.14l.14,1.2A13.08,13.08,0,0,1,212.44,374.64Zm3.53-.5-.34-1.16a11.31,11.31,0,0,0,3.31-1.57l.69,1a12.83,12.83,0,0,1-3.66,1.74Zm-8-.32a12.53,12.53,0,0,1-3.51-2l.76-.93a11.4,11.4,0,0,0,3.19,1.83Zm13.23-2.71-.83-.86a11.75,11.75,0,0,0,2.21-2.94l1.06.56a12.89,12.89,0,0,1-2.44,3.24ZM203,370.39a12.72,12.72,0,0,1-2.17-3.42l1.1-.47a11.36,11.36,0,0,0,2,3.09Zm21.45-4.4-1.15-.37a11.39,11.39,0,0,0,.59-3.62v0h1.2v0a12.71,12.71,0,0,1-.65,4ZM200.17,365a12.54,12.54,0,0,1-.37-3.05,8.19,8.19,0,0,1,0-1l1.2.09c0,.3,0,.61,0,.9a11.15,11.15,0,0,0,.33,2.76Zm23.56-4.93a11.37,11.37,0,0,0-1.18-3.48l1.07-.56a12.77,12.77,0,0,1,1.29,3.85Zm-22.39-.83-1.16-.29a12.43,12.43,0,0,1,1.59-3.73l1,.64a11.09,11.09,0,0,0-1.48,3.38Zm20.24-4.19a11.62,11.62,0,0,0-2.65-2.54l.67-1a12.37,12.37,0,0,1,2.94,2.79Zm-17.72-.66-.9-.8a12.5,12.5,0,0,1,3.13-2.57l.6,1A11.54,11.54,0,0,0,203.86,354.43Zm13.44-2.8a11.42,11.42,0,0,0-3.53-1l.14-1.2a12.36,12.36,0,0,1,3.9,1.11Zm-9-.33-.43-1.12a12.53,12.53,0,0,1,4-.8l.05,1.2a11.25,11.25,0,0,0-3.58.73Z"/><text class="cls-12" transform="translate(193.35 386.33)"><tspan class="cls-15">X</tspan><tspan class="cls-16" x="4.98" y="0">-</tspan><tspan class="cls-17" x="7.92" y="0">r</tspan><tspan class="cls-18" x="11.12" y="0">a</tspan><tspan x="15.68" y="0">y </tspan><tspan class="cls-19" x="22.39" y="0">T</tspan><tspan class="cls-16" x="26.31" y="0">e</tspan><tspan class="cls-20" x="31.14" y="0">s</tspan><tspan x="34.86" y="0">t</tspan></text><path class="cls-2" d="M283.71,372a10.46,10.46,0,1,1,10.45-10.48A10.45,10.45,0,0,1,283.71,372Zm0-19.32a8.86,8.86,0,1,0,8.85,8.87v0A8.86,8.86,0,0,0,283.71,352.66Z"/><polygon class="cls-2" points="289.85 360.72 284.5 360.72 284.5 355.37 282.91 355.37 282.91 360.72 277.56 360.72 277.56 362.32 282.91 362.32 282.91 367.67 284.5 367.67 284.5 362.32 289.85 362.32 289.85 360.72"/><text class="cls-12" transform="translate(258.91 386.33)">H<tspan class="cls-21" x="6.05" y="0">y</tspan><tspan x="10.49" y="0">d</tspan><tspan class="cls-22" x="15.64" y="0">r</tspan><tspan x="18.93" y="0">o-</tspan><tspan class="cls-20" x="27.03" y="0">s</tspan><tspan class="cls-23" x="30.75" y="0">ta</tspan><tspan x="38.63" y="0">tio</tspan><tspan class="cls-24" x="16.8" y="11.51">T</tspan><tspan x="20.72" y="11.51">e</tspan><tspan class="cls-20" x="25.55" y="11.51">s</tspan><tspan x="29.27" y="11.51">t</tspan></text><path class="cls-2" d="M227.9,179.5V167H197.44V179.5h3.42v-.63h.83v.63h22.1v-.63h.83v.63Zm-26.2-1.88h-.83v-1.24h.83Zm0-2.48h-.83v-1.25h.83Zm0-2.49h-.83V171.4h.83Zm0-2.49h-.83v-1.23h.83Zm0-2.49h-.83V167h.83Zm22.1-.63h.83v.63h-.83Zm0,1.87h.83v1.25h-.83Zm0,2.49h.83v1.25h-.83Zm0,2.49h.83v1.25h-.83Zm0,3.73v-1.24h.83v1.24Z"/><text class="cls-12" transform="translate(198.91 197.08)">Slitting</text><path class="cls-2" d="M284.19,161.21v5.2a7.31,7.31,0,1,1-2.84,0v-5.2a12.43,12.43,0,1,0,2.84,0Z"/><text class="cls-12" transform="translate(256.69 197.08)">Au<tspan class="cls-23" x="10.96" y="0">t</tspan><tspan class="cls-25" x="14.19" y="0">o-</tspan><tspan class="cls-26" x="22.29" y="0">w</tspan><tspan x="29.36" y="0">elding</tspan></text><path class="cls-2" d="M568.14,255.88v5.19a7.3,7.3,0,1,1-2.85,0v-5.19a12.44,12.44,0,1,0,2.85,0Z"/><text class="cls-12" transform="translate(540.63 291.75)">Au<tspan class="cls-23" x="10.96" y="0">t</tspan><tspan x="14.19" y="0">o-</tspan><tspan class="cls-26" x="22.29" y="0">w</tspan><tspan x="29.36" y="0">elding</tspan></text><rect class="cls-2" x="335.42" y="170.78" width="37.38" height="7.8"/><path class="cls-2" d="M361.82,159.58a5.6,5.6,0,1,0,5.6,5.6A5.6,5.6,0,0,0,361.82,159.58Zm0,7.91a2.31,2.31,0,1,1,2.31-2.31,2.32,2.32,0,0,1-2.31,2.31Z"/><circle class="cls-2" cx="341.58" cy="181.48" r="2.8"/><circle class="cls-2" cx="349.86" cy="181.48" r="2.8"/><circle class="cls-2" cx="358.14" cy="181.48" r="2.8"/><circle class="cls-2" cx="366.42" cy="181.48" r="2.8"/><text class="cls-12" transform="translate(325.79 197.08)">Seam-grinding</text><path class="cls-2" d="M147.54,173.8a6.19,6.19,0,0,1-11.95,0h-1a7.18,7.18,0,0,0,14,0Z"/><path class="cls-2" d="M149.57,173.8a8.17,8.17,0,0,1-16,0h-1a9.16,9.16,0,0,0,10.11,7.43,9.05,9.05,0,0,0,7.89-7.47h-1Z"/><path class="cls-2" d="M151.56,173.8a10.14,10.14,0,0,1-20,0h-1a11.11,11.11,0,0,0,22,0Z"/><path class="cls-2" d="M153.54,173.8a12.07,12.07,0,0,1-23.95,0h-1a13.07,13.07,0,0,0,25.93,0h-1Z"/><path class="cls-2" d="M137.67,170a4.26,4.26,0,0,1,7.8,0h1.06a5.23,5.23,0,0,0-9.92,0Z"/><path class="cls-2" d="M135.59,170a6.16,6.16,0,0,1,7.06-4.43,6.23,6.23,0,0,1,4.89,4.43h1a7.18,7.18,0,0,0-8.08-5.44,7.26,7.26,0,0,0-5.9,5.44Z"/><path class="cls-2" d="M133.56,170a8.16,8.16,0,0,1,16,0h1a9.12,9.12,0,0,0-17.95,0Z"/><path class="cls-2" d="M131.58,170a10.14,10.14,0,0,1,20,0h1a11.11,11.11,0,0,0-22,0Z"/><path class="cls-2" d="M129.55,170a12.09,12.09,0,0,1,23.95,0h1a13.06,13.06,0,0,0-25.89,0Z"/><path class="cls-2" d="M145.47,173.8a4.23,4.23,0,0,1-7.8,0h-1a5.24,5.24,0,0,0,6,3.46,5.17,5.17,0,0,0,3.87-3.46Z"/><path class="cls-2" d="M154.42,172.93h-8.35a1.05,1.05,0,0,1-1.06-1.07h0a1,1,0,0,1,1.06-1.06h8.35a1,1,0,0,1,1.06,1.06h0A1.05,1.05,0,0,1,154.42,172.93Z"/><path class="cls-2" d="M137.07,172.93h-8.36a1.05,1.05,0,0,1-1.06-1.07h0a1,1,0,0,1,1.06-1.06h8.36a1,1,0,0,1,1.06,1.06h0A1.05,1.05,0,0,1,137.07,172.93Z"/><text class="cls-12" transform="translate(132.65 197.08)">Strip</text><path class="cls-2" d="M410.84,179.88c-2.39,0-4.18-3.42-4.18-7.95s1.8-8,4.18-8,4.19,3.42,4.19,8S413.23,179.88,410.84,179.88Zm0-14.07c-1,0-2.35,2.4-2.35,6.12s1.39,6.12,2.35,6.12,2.36-2.4,2.36-6.12S411.8,165.81,410.84,165.81Z"/><ellipse class="cls-2" cx="440.35" cy="171.93" rx="3.27" ry="7.04"/><path class="cls-2" d="M440.35,179.88c-2.4,0-4.19-3.42-4.19-7.95s1.8-8,4.19-8,4.18,3.42,4.18,8S442.73,179.88,440.35,179.88Zm0-14.07c-1,0-2.36,2.4-2.36,6.12s1.4,6.12,2.36,6.12,2.35-2.4,2.35-6.12S441.31,165.81,440.35,165.81Z"/><path class="cls-2" d="M425.19,164l-.23.2c0-.07-.12-.13-.18-.2H410.84c2.4,0,4.19,3.42,4.19,8s-1.8,7.95-4.19,7.95h13.93a5,5,0,0,0,.43-.5l.68.5h14.47V164Zm3.12,5.6-1.36.16a17,17,0,0,0-.4-2.15l1.32-.35a18.58,18.58,0,0,1,.45,2.34Zm-1.71-5.47a10.51,10.51,0,0,1,1,2.21l-1.29.44a8.84,8.84,0,0,0-.87-1.93Zm.24,15.23-1.2-.66a10,10,0,0,0,.8-2l1.31.4A11.19,11.19,0,0,1,426.84,179.34Zm1.15-3.17-1.34-.31a15.9,15.9,0,0,0,.34-2.16l1.37.12A18.82,18.82,0,0,1,428,176.17Zm.43-3.29-1.37-.06v-.89c0-.44,0-.88,0-1.32l1.36-.09c0,.46.05.94.05,1.41C428.44,172.25,428.43,172.57,428.42,172.88Z"/><text class="cls-12" transform="translate(398.96 197.08)">Cut <tspan class="cls-23" x="15.72" y="0">t</tspan><tspan x="18.95" y="0">o Len</tspan><tspan class="cls-27" x="40.32" y="0">g</tspan><tspan x="44.79" y="0">th</tspan></text><path class="cls-2" d="M212.18,267.79a.8.8,0,0,1,0-1.6h12.27v-6.86a.92.92,0,0,0-.92-.92H200.82a.92.92,0,0,0-.91.92v15.32a.91.91,0,0,0,.91.91h22.7a.91.91,0,0,0,.91-.91v-6.86Z"/><text class="cls-12" transform="translate(196.9 291.75)">Plasma-<tspan x="2.03" y="11.51">cutting</tspan></text><rect class="cls-2" x="266.98" y="265.11" width="28.33" height="6.32"/><circle class="cls-2" cx="272.02" cy="274.66" r="3.11"/><circle class="cls-2" cx="281.22" cy="274.66" r="3.11"/><circle class="cls-2" cx="290.42" cy="274.66" r="3.11"/><polygon class="cls-2" points="300.16 263.95 296.31 267.43 296.31 258.1 300.16 258.1 300.16 263.95"/><text class="cls-12" transform="translate(270.33 291.75)"><tspan class="cls-28">E</tspan><tspan x="4.54" y="0">dging</tspan></text><path class="cls-2" d="M360.46,255.68,358,260.2a7.32,7.32,0,1,1-6.95,0l-2.43-4.52a12.44,12.44,0,1,0,11.81,0Z"/><text class="cls-12" transform="translate(338.27 291.75)">Bending</text><path class="cls-2" d="M427.8,256.81h0v0l-.07-.13-2-3.82-2,3.85-.05.09,0,.05h0a2.22,2.22,0,0,0-.22,1,2.28,2.28,0,1,0,4.56,0A2.06,2.06,0,0,0,427.8,256.81Z"/><path class="cls-2" d="M425.74,280.29a9.55,9.55,0,1,1,9.55-9.55h0A9.57,9.57,0,0,1,425.74,280.29Zm0-17.29a7.74,7.74,0,1,0,7.74,7.74h0A7.75,7.75,0,0,0,425.74,263Z"/><text class="cls-12" transform="translate(413.22 291.75)">Seam-<tspan x="-4.15" y="11.51">cleaning</tspan></text><path class="cls-2" d="M496.43,273.86a7.1,7.1,0,1,1,7.09-7.1h0A7.09,7.09,0,0,1,496.43,273.86Zm0-12.26a5.17,5.17,0,1,0,5.15,5.18h0A5.17,5.17,0,0,0,496.43,261.6Z"/><path class="cls-2" d="M488.26,265.48a8.27,8.27,0,0,1,16.33,0h2.16V254.24H486.11v11.24Z"/><path class="cls-2" d="M504.59,268.06a8.27,8.27,0,0,1-16.33,0h-2.15V279.3h20.64V268.06Z"/><text class="cls-12" transform="translate(480.07 291.75)"><tspan class="cls-22">F</tspan><tspan x="4.29" y="0">orming</tspan></text><path class="cls-2" d="M709.63,273.86a7.1,7.1,0,1,1,7.09-7.1h0A7.09,7.09,0,0,1,709.63,273.86Zm0-12.26a5.17,5.17,0,1,0,5.15,5.18h0A5.17,5.17,0,0,0,709.63,261.6Z"/><path class="cls-2" d="M701.46,265.48a8.27,8.27,0,0,1,16.33,0H720V254.24H699.31v11.24Z"/><path class="cls-2" d="M717.79,268.06a8.27,8.27,0,0,1-16.33,0h-2.15V279.3H720V268.06Z"/><text class="cls-12" transform="translate(687.89 291.75)"><tspan class="cls-29">R</tspan><tspan x="5.23" y="0">oundness</tspan><tspan x="0.32" y="11.51">Calib</tspan><tspan class="cls-17" x="19.99" y="11.51">r</tspan><tspan class="cls-13" x="23.19" y="11.51">a</tspan><tspan x="27.84" y="11.51">ting</tspan></text><path id="_矩形_" data-name=" 矩形 " class="cls-2" d="M130.05,272.63h23.2a.49.49,0,0,1,.5.49h0a.49.49,0,0,1-.5.49h-23.2a.49.49,0,0,1-.49-.49h0A.49.49,0,0,1,130.05,272.63Z"/><path id="_矩形_2" data-name=" 矩形 2" class="cls-2" d="M130.11,274.39H153.2a.49.49,0,0,1,.49.5h0a.49.49,0,0,1-.49.49H130.11a.49.49,0,0,1-.49-.49h0A.49.49,0,0,1,130.11,274.39Z"/><path id="_矩形_3" data-name=" 矩形 3" class="cls-2" d="M130.16,276.16h23a.49.49,0,0,1,.49.49h0a.49.49,0,0,1-.49.49h-23a.49.49,0,0,1-.49-.49h0A.49.49,0,0,1,130.16,276.16Z"/><path id="_矩形_4" data-name=" 矩形 4" class="cls-2" d="M130.22,277.92h22.87a.49.49,0,0,1,.49.5h0a.49.49,0,0,1-.49.49H130.22a.49.49,0,0,1-.49-.49h0A.49.49,0,0,1,130.22,277.92Z"/><text class="cls-12" transform="translate(131.58 291.75)">Pl<tspan class="cls-30" x="7.46" y="0">a</tspan><tspan class="cls-22" x="12.11" y="0">t</tspan><tspan x="15.32" y="0">e</tspan></text><path class="cls-2" d="M153.91,270.84V255.55a.92.92,0,0,0-.92-.92H130.32a.92.92,0,0,0-.93.92v15.29a.93.93,0,0,0,.92.93H153a.93.93,0,0,0,.92-.93Z"/><path class="cls-31" d="M567.45,187.56c-1.37-4.34-8.75-6.15-10.06-9.87-.62-2.36-.56-5.09.62-6.89,0,2.36,1.68,5.65,3.23,4s-3-2.11-2.36-5.59c.13-1.62,1.49-2.49,2-6.15,1.55,1.55-.87,4.1,2.79,5.59-4.4-5.34,3.41-7.26,2.8-12.42,5.83,5.78.12,9.32,3.29,10.81,1.18.49,2.85-2.67,1.74-5.28,3.47,3,3.1,6.21,1.3,8.75-.68.93.06,2.92.93,3.54-.31-1.86,1.3-2.79,1.74-4.6,3.23,3.61,4.41,8-.93,11.61A28.32,28.32,0,0,0,567.45,187.56Z"/><text class="cls-12" transform="translate(551.07 197.08)">Solution<tspan class="cls-32" x="-4.13" y="11.51">T</tspan><tspan class="cls-20" x="0.13" y="11.51">r</tspan><tspan class="cls-33" x="3.43" y="11.51">e</tspan><tspan class="cls-13" x="8.26" y="11.51">a</tspan><tspan x="12.91" y="11.51">tme</tspan><tspan class="cls-13" x="28.87" y="11.51">n</tspan><tspan x="33.93" y="11.51">t</tspan></text><path class="cls-31" d="M638.24,282.22c-1.37-4.34-8.75-6.14-10.06-9.86-.62-2.37-.56-5.1.62-6.9,0,2.36,1.68,5.65,3.23,4s-3-2.11-2.36-5.59c.13-1.61,1.49-2.48,2.05-6.15,1.55,1.56-.87,4.1,2.79,5.59-4.4-5.34,3.41-7.26,2.79-12.41,5.84,5.77.13,9.31,3.3,10.8,1.18.5,2.85-2.67,1.74-5.28,3.47,3,3.1,6.21,1.3,8.75-.68.94.06,2.92.93,3.54-.31-1.86,1.3-2.79,1.74-4.59,3.22,3.6,4.41,8-.93,11.61A28.11,28.11,0,0,0,638.24,282.22Z"/><text class="cls-12" transform="translate(621.86 291.75)">Solution<tspan class="cls-32" x="-4.13" y="11.51">T</tspan><tspan class="cls-20" x="0.13" y="11.51">r</tspan><tspan class="cls-33" x="3.43" y="11.51">e</tspan><tspan class="cls-13" x="8.26" y="11.51">a</tspan><tspan x="12.91" y="11.51">tme</tspan><tspan class="cls-13" x="28.87" y="11.51">n</tspan><tspan x="33.93" y="11.51">t</tspan></text><text class="cls-34" transform="translate(474.58 230.08)"><tspan class="cls-35">W</tspan><tspan class="cls-36" x="6.96" y="0">elded </tspan><tspan class="cls-37" x="27.36" y="0">T</tspan><tspan x="30.91" y="0">ube</tspan></text><text class="cls-34" transform="translate(333.59 230.08)"><tspan class="cls-38">W</tspan><tspan x="6.96" y="0">elded Pipe</tspan></text></svg>