<svg id="图层_1" data-name="图层 1" xmlns="http://www.w3.org/2000/svg" viewBox="0 0 850.4 566.9"><defs><style>.cls-1,.cls-13,.cls-14{fill:none;stroke:#eee;}.cls-1{stroke-miterlimit:10;}.cls-1,.cls-14,.cls-2,.cls-3,.cls-30,.cls-32,.cls-7{opacity:0.6;}.cls-2,.cls-3,.cls-30,.cls-32,.cls-8,.cls-9{fill:#eee;}.cls-21,.cls-3,.cls-32,.cls-9{isolation:isolate;}.cls-3,.cls-9{font-size:9.59px;}.cls-3,.cls-32,.cls-9{font-family:Calibri-Bold, Calibri;font-weight:700;}.cls-4{letter-spacing:0em;}.cls-5{letter-spacing:0em;}.cls-6{letter-spacing:-0.02em;}.cls-10{letter-spacing:-0.02em;}.cls-11{letter-spacing:-0.01em;}.cls-12{letter-spacing:-0.01em;}.cls-13,.cls-14{stroke-linecap:round;stroke-linejoin:round;stroke-width:1.6px;}.cls-15{letter-spacing:-0.02em;}.cls-16{letter-spacing:-0.03em;}.cls-17{letter-spacing:0em;}.cls-18{letter-spacing:-0.02em;}.cls-19{letter-spacing:-0.09em;}.cls-20{letter-spacing:-0.01em;}.cls-22{letter-spacing:-0.01em;}.cls-23{letter-spacing:-0.01em;}.cls-24{letter-spacing:-0.01em;}.cls-25{letter-spacing:-0.01em;}.cls-26{letter-spacing:-0.01em;}.cls-27{letter-spacing:-0.02em;}.cls-28{letter-spacing:-0.02em;}.cls-29{letter-spacing:-0.01em;}.cls-30{fill-rule:evenodd;}.cls-31{letter-spacing:-0.05em;}.cls-32{font-size:8px;}.cls-33{letter-spacing:-0.04em;}.cls-34{letter-spacing:-0.05em;}</style></defs><title>weldedpipetubeprocesssolutionweldedpipetubeprocessaging2</title><line class="cls-1" x1="850.4" y1="46.7" y2="46.7"/><line class="cls-1" x1="850.4" y1="165.1" y2="165.1"/><line class="cls-1" x1="850.4" y1="283.5" y2="283.5"/><line class="cls-1" x1="850.4" y1="401.9" y2="401.9"/><line class="cls-1" x1="850.4" y1="105.9" y2="105.9"/><line class="cls-1" x1="850.4" y1="224.3" y2="224.3"/><line class="cls-1" x1="850.4" y1="342.7" y2="342.7"/><line class="cls-1" x1="850.4" y1="461" y2="461"/><line class="cls-1" x1="850.4" y1="520.2" y2="520.2"/><line class="cls-1" x1="850.4" y1="135.5" y2="135.5"/><line class="cls-1" x1="850.4" y1="253.9" y2="253.9"/><line class="cls-1" x1="850.4" y1="372.3" y2="372.3"/><line class="cls-1" x1="850.4" y1="76.3" y2="76.3"/><line class="cls-1" x1="850.4" y1="17.1" y2="17.1"/><line class="cls-1" x1="850.4" y1="194.7" y2="194.7"/><line class="cls-1" x1="850.4" y1="313.1" y2="313.1"/><line class="cls-1" x1="850.4" y1="431.4" y2="431.4"/><line class="cls-1" x1="850.4" y1="490.6" y2="490.6"/><line class="cls-1" x1="850.4" y1="549.8" y2="549.8"/><line class="cls-1" x1="10.8" x2="10.8" y2="566.9"/><line class="cls-1" x1="129.2" x2="129.2" y2="566.9"/><line class="cls-1" x1="247.6" x2="247.6" y2="566.9"/><line class="cls-1" x1="366" x2="366" y2="566.9"/><line class="cls-1" x1="484.4" x2="484.4" y2="566.9"/><line class="cls-1" x1="602.8" x2="602.8" y2="566.9"/><line class="cls-1" x1="839.5" x2="839.5" y2="566.9"/><line class="cls-1" x1="721.2" x2="721.2" y2="566.9"/><line class="cls-1" x1="70" x2="70" y2="566.9"/><line class="cls-1" x1="188.4" x2="188.4" y2="566.9"/><line class="cls-1" x1="306.8" x2="306.8" y2="566.9"/><line class="cls-1" x1="425.2" x2="425.2" y2="566.9"/><line class="cls-1" x1="543.6" x2="543.6" y2="566.9"/><line class="cls-1" x1="662" x2="662" y2="566.9"/><line class="cls-1" x1="780.4" x2="780.4" y2="566.9"/><line class="cls-1" x1="810" x2="810" y2="566.9"/><line class="cls-1" x1="99.6" x2="99.6" y2="566.9"/><line class="cls-1" x1="218" x2="218" y2="566.9"/><line class="cls-1" x1="336.4" x2="336.4" y2="566.9"/><line class="cls-1" x1="454.8" x2="454.8" y2="566.9"/><line class="cls-1" x1="573.2" x2="573.2" y2="566.9"/><line class="cls-1" x1="691.6" x2="691.6" y2="566.9"/><line class="cls-1" x1="40.4" x2="40.4" y2="566.9"/><line class="cls-1" x1="158.8" x2="158.8" y2="566.9"/><line class="cls-1" x1="277.2" x2="277.2" y2="566.9"/><line class="cls-1" x1="395.6" x2="395.6" y2="566.9"/><line class="cls-1" x1="514" x2="514" y2="566.9"/><line class="cls-1" x1="632.4" x2="632.4" y2="566.9"/><line class="cls-1" x1="750.8" x2="750.8" y2="566.9"/><path class="cls-2" d="M434.3,372.2l-5.3-8.5a8.58,8.58,0,1,0-1.8,1.1l5.2,8.5a1.19,1.19,0,0,0,.9.5,1.42,1.42,0,0,0,.6-.2,1,1,0,0,0,.4-1.4Zm-12.1-8.8a6.39,6.39,0,1,1,7.6-4.9,6.52,6.52,0,0,1-7.6,4.9Z"/><text class="cls-3" transform="translate(404.92 386.33)">Inspection</text><path class="cls-2" d="M364.8,371.1H344.7a3.16,3.16,0,0,1-3.2-3.2V351.5H343V368a1.58,1.58,0,0,0,1.6,1.6h20a1.58,1.58,0,0,0,1.6-1.6V351.5h1.5V368A2.83,2.83,0,0,1,364.8,371.1Z"/><path class="cls-2" d="M358,369.8a4.4,4.4,0,1,1,4.4-4.4A4.44,4.44,0,0,1,358,369.8Zm0-7.3a2.9,2.9,0,1,0,2.9,2.9h0a2.9,2.9,0,0,0-2.9-2.9Z"/><rect class="cls-2" x="341.5" y="355.1" width="26.4" height="1.7"/><text class="cls-3" transform="translate(339.4 386.33)">Pickling</text><path class="cls-2" d="M506.5,372.4l-3.4-23.3a2.66,2.66,0,0,0-2.5-2.2h-7.8a2.49,2.49,0,0,0-2.5,2.2l-3.4,23.3a2.57,2.57,0,0,0,2.1,2.9h15.1a2.63,2.63,0,0,0,2.6-2.5c-.2-.2-.2-.2-.2-.4Zm-14.3-22.9a.46.46,0,0,1,.5-.4h7.8c.2,0,.5.2.5.4l1.8,11.7H490.6Z"/><text class="cls-3" transform="translate(480.52 386.33)">Anal<tspan class="cls-4" x="18.05" y="0">y</tspan><tspan class="cls-5" x="22.65" y="0">tic</tspan></text><path class="cls-2" d="M637.8,352.1h-9.9v12.3h14V352.1Zm-2.2,1.8a.7.7,0,1,1-.7-.7.68.68,0,0,1,.7.7Zm-5,0a.7.7,0,1,1-.7-.7h0A.68.68,0,0,1,630.6,353.9Zm1.3-.7h1v4.2h-1Zm-2.7,9.3a.7.7,0,1,1,.7.7h0A.68.68,0,0,1,629.2,362.5Zm2.7.7v-4.1h1v4.1Zm2.3-.7a.7.7,0,1,1,.7.7.68.68,0,0,1-.7-.7Zm4.9,0a.7.7,0,1,1,.7.7h0a.68.68,0,0,1-.7-.7Zm-1.3.7h-1v-4.1h1Zm-.9-5.8v-4.2h1v4.2Zm3.6-3.5a.7.7,0,1,1-.7-.7h0c.4-.1.7.3.7.7Z"/><circle class="cls-2" cx="628.3" cy="368.7" r="1.8"/><path class="cls-2" d="M628.3,367.3a1.37,1.37,0,0,0-1.4,1.4h2.8a1.31,1.31,0,0,0-1.4-1.4Z"/><path class="cls-2" d="M622.6,364.9v3.8H626a2.3,2.3,0,0,1,4.6-.2v.2h12.5v-3.8Z"/><circle class="cls-2" cx="649.9" cy="368.7" r="1.8"/><path class="cls-2" d="M649.9,367.3a1.37,1.37,0,0,0-1.4,1.4h2.8A1.43,1.43,0,0,0,649.9,367.3Z"/><path class="cls-2" d="M651.3,356.7h-7.4v12.1h3.7a2.3,2.3,0,0,1,4.6-.2v.2h3.7v-5.4Z"/><text class="cls-3" transform="translate(618.91 386.33)"><tspan class="cls-6">P</tspan><tspan x="4.92" y="0">acking &amp;</tspan></text><text class="cls-3" transform="translate(621.47 397.84)">Shipping</text><path class="cls-2" d="M719.8,181.9h-20a3.16,3.16,0,0,1-3.2-3.2V162.3h1.5v16.5a1.58,1.58,0,0,0,1.6,1.6h20a1.58,1.58,0,0,0,1.6-1.6V162.3h1.5v16.5A3,3,0,0,1,719.8,181.9Z"/><path class="cls-2" d="M713,180.5a4.4,4.4,0,1,1,4.4-4.4A4.44,4.44,0,0,1,713,180.5Zm0-7.3a2.9,2.9,0,1,0,2.9,2.9h0a2.9,2.9,0,0,0-2.9-2.9Z"/><rect class="cls-2" x="696.5" y="165.9" width="26.4" height="1.7"/><text class="cls-3" transform="translate(694.38 197.08)">Pickling</text><g class="cls-7"><path class="cls-8" d="M506.5,181.9h-20a3.16,3.16,0,0,1-3.2-3.2V162.3h1.5v16.5a1.58,1.58,0,0,0,1.6,1.6h20a1.58,1.58,0,0,0,1.6-1.6V162.3h1.5v16.5A3,3,0,0,1,506.5,181.9Z"/><path class="cls-8" d="M499.7,180.5a4.4,4.4,0,1,1,4.4-4.4A4.44,4.44,0,0,1,499.7,180.5Zm0-7.3a2.9,2.9,0,1,0,2.9,2.9h0a2.9,2.9,0,0,0-2.9-2.9Z"/><rect class="cls-8" x="483.2" y="165.9" width="26.4" height="1.7"/><text class="cls-9" transform="translate(481.09 197.08)">Pickling</text></g><path class="cls-2" d="M625.9,174a7.66,7.66,0,0,1-2.6-.6,4.13,4.13,0,0,0-2.2-.6,1.4,1.4,0,1,1,0-2.8,7.24,7.24,0,0,1,3.4.8,2.65,2.65,0,0,0,2.8,0,8.65,8.65,0,0,1,3.3-.8,6.61,6.61,0,0,1,2.4.3,9.52,9.52,0,0,0,2.5.3h14.6a1.4,1.4,0,0,1,0,2.8H635.5a12.1,12.1,0,0,1-3-.4,5.24,5.24,0,0,0-1.7-.2,4.86,4.86,0,0,0-2.2.6A7.16,7.16,0,0,1,625.9,174Z"/><path class="cls-2" d="M645.2,169.8h-8a1.37,1.37,0,0,1-1.4-1.4v-8a1.37,1.37,0,0,1,1.4-1.4h8a1.37,1.37,0,0,1,1.4,1.4v8A1.37,1.37,0,0,1,645.2,169.8Z"/><path class="cls-2" d="M645.2,174.4h-8a1.37,1.37,0,0,0-1.4,1.4v8a1.37,1.37,0,0,0,1.4,1.4h8a1.37,1.37,0,0,0,1.4-1.4v-8A1.37,1.37,0,0,0,645.2,174.4Z"/><text class="cls-3" transform="translate(611.83 197.08)">St<tspan class="cls-10" x="7.86" y="0">r</tspan><tspan x="11.06" y="0">aig</tspan><tspan class="cls-11" x="22.7" y="0">h</tspan><tspan class="cls-12" x="27.76" y="0">t</tspan><tspan x="30.97" y="0">ening</tspan></text><polygon class="cls-2" points="569.8 364.4 567.3 366.6 566.9 365.5 566.9 365.5 565.5 361.5 552.2 367.5 566.9 356.6 567.5 357.9 568.3 360.3 569 362.2 576 358.8 569.8 364.4"/><path class="cls-2" d="M561.6,358.4a9.3,9.3,0,0,1,5.9-7,9.11,9.11,0,0,1,9.6,2.2,12.45,12.45,0,0,0-14-4.2,12.28,12.28,0,0,0-8,13.6Z"/><path class="cls-2" d="M573.6,368.7a9.12,9.12,0,0,1-6.1,0l-1,.9L566,368a9,9,0,0,1-3.4-3.3l-6.1,2.7a12.25,12.25,0,0,0,14.9,5.4,12.4,12.4,0,0,0,8.2-12.1A9.2,9.2,0,0,1,573.6,368.7Z"/><circle class="cls-2" cx="578.7" cy="357" r="1.6"/><text class="cls-3" transform="translate(551.04 386.33)">Marking</text><path class="cls-2" d="M179.9,176.8h-9a.8.8,0,1,1,0-1.6h9a.86.86,0,0,1,.8.8A.79.79,0,0,1,179.9,176.8Z"/><polygon class="cls-2" points="179.2 178.4 183.4 176 179.2 173.7 179.2 178.4"/><path class="cls-2" d="M251,176.8h-9a.8.8,0,0,1,0-1.6h9a.86.86,0,0,1,.8.8A.79.79,0,0,1,251,176.8Z"/><polygon class="cls-2" points="250.3 178.4 254.5 176 250.3 173.7 250.3 178.4"/><path class="cls-2" d="M322.2,176.8h-9a.8.8,0,1,1,0-1.6h9a.8.8,0,1,1,0,1.6Z"/><polygon class="cls-2" points="321.5 178.4 325.6 176 321.5 173.7 321.5 178.4"/><path class="cls-2" d="M393.3,176.8h-9a.8.8,0,1,1,0-1.6h9a.8.8,0,1,1,0,1.6Z"/><polygon class="cls-2" points="392.5 178.4 396.7 176 392.5 173.7 392.5 178.4"/><path class="cls-2" d="M464.4,176.8h-9a.8.8,0,0,1,0-1.6h9a.86.86,0,0,1,.8.8A.79.79,0,0,1,464.4,176.8Z"/><polygon class="cls-2" points="463.7 178.4 467.9 176 463.7 173.7 463.7 178.4"/><path class="cls-2" d="M382.4,232.2a.86.86,0,0,1-.8-.8v-9a.8.8,0,0,1,1.6,0v9A.79.79,0,0,1,382.4,232.2Z"/><polygon class="cls-2" points="380 230.7 382.4 234.8 384.8 230.7 380 230.7"/><path class="cls-2" d="M467.6,234.8a.86.86,0,0,1-.8-.8v-9a.8.8,0,0,1,1.6,0v9A.74.74,0,0,1,467.6,234.8Z"/><polygon class="cls-2" points="470 225.8 467.6 221.6 465.2 225.8 470 225.8"/><path class="cls-2" d="M535.5,176.8h-9a.8.8,0,0,1,0-1.6h9a.8.8,0,1,1,0,1.6Z"/><polygon class="cls-2" points="534.8 178.4 538.9 176 534.8 173.7 534.8 178.4"/><path class="cls-2" d="M179.9,271.5h-9a.8.8,0,0,1,0-1.6h9a.86.86,0,0,1,.8.8A.79.79,0,0,1,179.9,271.5Z"/><polygon class="cls-2" points="179.2 273.1 183.4 270.7 179.2 268.3 179.2 273.1"/><path class="cls-2" d="M251,271.5h-9a.8.8,0,0,1,0-1.6h9a.86.86,0,0,1,.8.8A.79.79,0,0,1,251,271.5Z"/><polygon class="cls-2" points="250.3 273.1 254.5 270.7 250.3 268.3 250.3 273.1"/><path class="cls-2" d="M322.2,271.5h-9a.8.8,0,0,1,0-1.6h9a.8.8,0,0,1,0,1.6Z"/><polygon class="cls-2" points="321.5 273.1 325.6 270.7 321.5 268.3 321.5 273.1"/><path class="cls-2" d="M393.3,271.5h-9a.8.8,0,0,1,0-1.6h9a.8.8,0,0,1,0,1.6Z"/><polygon class="cls-2" points="392.5 273.1 396.7 270.7 392.5 268.3 392.5 273.1"/><path class="cls-2" d="M464.4,271.5h-9a.8.8,0,0,1,0-1.6h9a.86.86,0,0,1,.8.8A.79.79,0,0,1,464.4,271.5Z"/><polygon class="cls-2" points="463.7 273.1 467.9 270.7 463.7 268.3 463.7 273.1"/><path class="cls-2" d="M179.9,366.2h-9a.8.8,0,0,1,0-1.6h9a.86.86,0,0,1,.8.8A.79.79,0,0,1,179.9,366.2Z"/><polygon class="cls-2" points="179.2 367.8 183.4 365.4 179.2 363 179.2 367.8"/><path class="cls-2" d="M251,366.2h-9a.8.8,0,0,1,0-1.6h9a.86.86,0,0,1,.8.8A.79.79,0,0,1,251,366.2Z"/><polygon class="cls-2" points="250.3 367.8 254.5 365.4 250.3 363 250.3 367.8"/><path class="cls-2" d="M322.2,366.2h-9a.8.8,0,1,1,0-1.6h9a.8.8,0,0,1,0,1.6Z"/><polygon class="cls-2" points="321.5 367.8 325.6 365.4 321.5 363 321.5 367.8"/><path class="cls-2" d="M393.3,366.2h-9a.8.8,0,1,1,0-1.6h9a.8.8,0,0,1,0,1.6Z"/><polygon class="cls-2" points="392.5 367.8 396.7 365.4 392.5 363 392.5 367.8"/><path class="cls-2" d="M464.4,366.2h-9a.8.8,0,0,1,0-1.6h9a.86.86,0,0,1,.8.8A.79.79,0,0,1,464.4,366.2Z"/><polygon class="cls-2" points="463.7 367.8 467.9 365.4 463.7 363 463.7 367.8"/><path class="cls-2" d="M535.5,366.2h-9a.8.8,0,0,1,0-1.6h9a.8.8,0,0,1,0,1.6Z"/><polygon class="cls-2" points="534.8 367.8 538.9 365.4 534.8 363 534.8 367.8"/><path class="cls-2" d="M605.9,366.2h-9a.8.8,0,0,1,0-1.6h9a.8.8,0,1,1,0,1.6Z"/><polygon class="cls-2" points="605.2 367.8 609.4 365.4 605.2 363 605.2 367.8"/><g class="cls-7"><path class="cls-13" d="M738.4,176.6h13.5a4.59,4.59,0,0,1,4.6,4.6v94.1"/></g><path class="cls-14" d="M738.4,270.7h13.5a4.59,4.59,0,0,1,4.6,4.6v43.9a4.59,4.59,0,0,1-4.6,4.6H98.9a4.59,4.59,0,0,0-4.6,4.6v32a4.59,4.59,0,0,0,4.6,4.6H109"/><polygon class="cls-2" points="108.2 367.2 112.4 364.8 108.2 362.4 108.2 367.2"/><path class="cls-2" d="M535.5,271.5h-9a.8.8,0,0,1,0-1.6h9a.8.8,0,1,1,0,1.6Z"/><polygon class="cls-2" points="534.8 273.1 538.9 270.7 534.8 268.3 534.8 273.1"/><path class="cls-2" d="M606.4,176.8h-9a.8.8,0,0,1,0-1.6h9a.86.86,0,0,1,.8.8A.79.79,0,0,1,606.4,176.8Z"/><polygon class="cls-2" points="605.7 178.4 609.8 176 605.7 173.7 605.7 178.4"/><path class="cls-2" d="M677.5,176.8h-9a.8.8,0,0,1,0-1.6h9a.8.8,0,1,1,0,1.6Z"/><polygon class="cls-2" points="676.8 178.4 680.9 176 676.8 173.7 676.8 178.4"/><path class="cls-2" d="M606.4,271.5h-9a.8.8,0,0,1,0-1.6h9a.86.86,0,0,1,.8.8A.79.79,0,0,1,606.4,271.5Z"/><polygon class="cls-2" points="605.7 273.1 609.8 270.7 605.7 268.3 605.7 273.1"/><path class="cls-2" d="M677.5,271.5h-9a.8.8,0,0,1,0-1.6h9a.8.8,0,1,1,0,1.6Z"/><polygon class="cls-2" points="676.8 273.1 680.9 270.7 676.8 268.3 676.8 273.1"/><rect class="cls-2" x="122.8" y="356.4" width="25.5" height="7.8"/><path class="cls-2" d="M154.1,354.7a5.6,5.6,0,1,0,5.6,5.6A5.59,5.59,0,0,0,154.1,354.7Zm0,7.9a2.3,2.3,0,1,1,2.3-2.3,2.33,2.33,0,0,1-2.3,2.3Z"/><circle class="cls-2" cx="127.3" cy="367.1" r="2.8"/><circle class="cls-2" cx="135.6" cy="367.1" r="2.8"/><circle class="cls-2" cx="143.9" cy="367.1" r="2.8"/><text class="cls-3" transform="translate(123.82 386.33)">Fl<tspan class="cls-11" x="6.76" y="0">a</tspan><tspan class="cls-15" x="11.41" y="0">t</tspan><tspan x="14.5" y="0">-end</tspan></text><path class="cls-2" d="M212.4,371.8a9.8,9.8,0,1,1,9.8-9.8h0A9.82,9.82,0,0,1,212.4,371.8Zm0-16.8a7,7,0,1,0,7,7A7,7,0,0,0,212.4,355Z"/><path class="cls-2" d="M212.4,374.6a21.05,21.05,0,0,1-2.5-.2l.2-1.2a11.42,11.42,0,0,0,3.7.1l.1,1.2A6.62,6.62,0,0,1,212.4,374.6Zm3.6-.5-.3-1.2a10.11,10.11,0,0,0,3.3-1.6l.7,1a9.78,9.78,0,0,1-3.7,1.8Zm-8-.3a13.3,13.3,0,0,1-3.5-2l.8-.9a10.14,10.14,0,0,0,3.2,1.8Zm13.2-2.7-.8-.9a12.34,12.34,0,0,0,2.2-2.9l1.1.6a13.13,13.13,0,0,1-2.5,3.2Zm-18.2-.7a15.23,15.23,0,0,1-2.2-3.4l1.1-.5a10.29,10.29,0,0,0,2,3.1Zm21.4-4.4-1.1-.4a11.33,11.33,0,0,0,.6-3.6h1.2a10.88,10.88,0,0,1-.7,4Zm-24.2-1a15.44,15.44,0,0,1-.4-3v-1l1.2.1v.9a13.33,13.33,0,0,0,.3,2.8Zm23.5-4.9a11.18,11.18,0,0,0-1.2-3.5l1.1-.6a13.16,13.16,0,0,1,1.3,3.8Zm-22.4-.8-1.2-.3a12.21,12.21,0,0,1,1.6-3.7l1,.6a12.81,12.81,0,0,0-1.4,3.4Zm20.3-4.2a9.26,9.26,0,0,0-2.7-2.5l.7-1a12.85,12.85,0,0,1,2.9,2.8Zm-17.7-.7-.9-.8a15.29,15.29,0,0,1,3.1-2.6l.6,1A13.12,13.12,0,0,0,203.9,354.4Zm13.4-2.8a10.8,10.8,0,0,0-3.5-1l.1-1.2a12.54,12.54,0,0,1,3.9,1.1Zm-9-.3-.4-1.1a13.54,13.54,0,0,1,4-.8v1.2a11.49,11.49,0,0,0-3.6.7Z"/><text class="cls-3" transform="translate(192.53 386.33)"><tspan class="cls-16">X</tspan><tspan class="cls-17" x="4.98" y="0">-</tspan><tspan class="cls-10" x="7.92" y="0">r</tspan><tspan class="cls-18" x="11.12" y="0">a</tspan><tspan x="15.68" y="0">y </tspan><tspan class="cls-19" x="22.39" y="0">T</tspan><tspan class="cls-17" x="26.31" y="0">e</tspan><tspan class="cls-20" x="31.14" y="0">s</tspan><tspan x="34.86" y="0">t</tspan></text><path class="cls-2" d="M283.7,372a10.5,10.5,0,1,1,10.5-10.6A10.5,10.5,0,0,1,283.7,372Zm0-19.3a8.9,8.9,0,1,0,8.9,8.9h0A8.92,8.92,0,0,0,283.7,352.7Z"/><polygon class="cls-2" points="289.9 360.7 284.5 360.7 284.5 355.4 282.9 355.4 282.9 360.7 277.6 360.7 277.6 362.3 282.9 362.3 282.9 367.7 284.5 367.7 284.5 362.3 289.9 362.3 289.9 360.7"/><g class="cls-21"><text class="cls-3" transform="translate(258.65 386.33)">H<tspan class="cls-22" x="6.05" y="0">y</tspan><tspan x="10.49" y="0">d</tspan><tspan class="cls-12" x="15.64" y="0">r</tspan><tspan x="18.93" y="0">o-</tspan><tspan class="cls-20" x="27.03" y="0">s</tspan><tspan class="cls-23" x="30.75" y="0">ta</tspan><tspan class="cls-5" x="38.63" y="0">tio</tspan></text><text class="cls-3" transform="translate(275.25 397.83)"><tspan class="cls-19">T</tspan><tspan x="3.92" y="0">e</tspan><tspan class="cls-20" x="8.75" y="0">s</tspan><tspan x="12.47" y="0">t</tspan></text></g><path class="cls-2" d="M227.9,179.5V167H197.4v12.5h3.4v-.6h.8v.6h22.1v-.6h.8v.6Zm-26.2-1.9h-.8v-1.2h.8Zm0-2.5h-.8v-1.2h.8Zm0-2.5h-.8v-1.2h.8Zm0-2.4h-.8V169h.8Zm0-2.5h-.8V167h.8Zm22.1-.7h.8v.6h-.8Zm0,1.9h.8v1.2h-.8Zm0,2.5h.8v1.2h-.8Zm0,2.5h.8v1.2h-.8Zm0,3.7v-1.2h.8v1.2Z"/><text class="cls-3" transform="translate(198.91 197.08)">Slitting</text><path class="cls-2" d="M284.2,161.2v5.2a7.3,7.3,0,1,1-8.6,5.7,7.14,7.14,0,0,1,5.7-5.7v-5.2a12.43,12.43,0,1,0,2.9,0Z"/><text class="cls-3" transform="translate(256.6 197.08)">Au<tspan class="cls-23" x="10.96" y="0">t</tspan><tspan class="cls-5" x="14.19" y="0">o-</tspan><tspan class="cls-24" x="22.29" y="0">w</tspan><tspan x="29.36" y="0">elding</tspan></text><path class="cls-2" d="M568.1,255.9v5.2a7.3,7.3,0,1,1-8.6,5.7,7.14,7.14,0,0,1,5.7-5.7v-5.2A12.43,12.43,0,1,0,579,266.8,12.24,12.24,0,0,0,568.1,255.9Z"/><text class="cls-3" transform="translate(540.55 291.75)">Au<tspan class="cls-23" x="10.96" y="0">t</tspan><tspan class="cls-5" x="14.19" y="0">o-</tspan><tspan class="cls-24" x="22.29" y="0">w</tspan><tspan x="29.36" y="0">elding</tspan></text><rect class="cls-2" x="335.4" y="170.8" width="37.4" height="7.8"/><path class="cls-2" d="M361.8,159.6a5.6,5.6,0,1,0,5.6,5.6A5.59,5.59,0,0,0,361.8,159.6Zm0,7.9a2.3,2.3,0,1,1,2.3-2.3,2.26,2.26,0,0,1-2.3,2.3Z"/><circle class="cls-2" cx="341.6" cy="181.5" r="2.8"/><circle class="cls-2" cx="349.9" cy="181.5" r="2.8"/><circle class="cls-2" cx="358.1" cy="181.5" r="2.8"/><circle class="cls-2" cx="366.4" cy="181.5" r="2.8"/><text class="cls-3" transform="translate(325.79 197.08)">Seam-grinding</text><path class="cls-2" d="M147.5,173.8a6.35,6.35,0,0,1-7.1,4.5,6.27,6.27,0,0,1-4.9-4.5h-1a7.09,7.09,0,0,0,8.1,5.4,7.17,7.17,0,0,0,5.9-5.4Z"/><path class="cls-2" d="M149.6,173.8a8.27,8.27,0,0,1-9.1,6.5,8.19,8.19,0,0,1-6.9-6.5h-1a9.15,9.15,0,0,0,18-.1l-1,.1Z"/><path class="cls-2" d="M151.6,173.8a10,10,0,0,1-11.2,8.3,10.19,10.19,0,0,1-8.8-8.3h-1a11.11,11.11,0,0,0,22,0Z"/><path class="cls-2" d="M153.5,173.8a12.08,12.08,0,0,1-13,10.5,12.23,12.23,0,0,1-11-10.5h-1a13.11,13.11,0,0,0,26,0Z"/><path class="cls-2" d="M137.7,170a4.26,4.26,0,0,1,7.8,0h1.1a5.25,5.25,0,0,0-6-3.5,5.31,5.31,0,0,0-3.9,3.5Z"/><path class="cls-2" d="M135.6,170a6.19,6.19,0,0,1,7.1-4.4,6.3,6.3,0,0,1,4.9,4.4h1a7.09,7.09,0,0,0-8.1-5.4,7.3,7.3,0,0,0-5.9,5.4Z"/><path class="cls-2" d="M133.6,170a8.18,8.18,0,0,1,16,0h1a9.16,9.16,0,0,0-18,0Z"/><path class="cls-2" d="M131.6,170a10,10,0,0,1,11.2-8.3,10.19,10.19,0,0,1,8.8,8.3h1a11.11,11.11,0,0,0-22,0Z"/><path class="cls-2" d="M129.5,170a12.08,12.08,0,0,1,13.1-10.4A11.92,11.92,0,0,1,153.4,170h1a13.06,13.06,0,0,0-25.9,0Z"/><path class="cls-2" d="M145.5,173.8a4.17,4.17,0,0,1-5,2.4,4,4,0,0,1-2.8-2.4h-1a5.25,5.25,0,0,0,6,3.5,5.31,5.31,0,0,0,3.9-3.5Z"/><path class="cls-2" d="M154.4,172.9H146a1.11,1.11,0,0,1-1.1-1.1h0a1.11,1.11,0,0,1,1.1-1.1h8.4a1.11,1.11,0,0,1,1.1,1.1h0A1,1,0,0,1,154.4,172.9Z"/><path class="cls-2" d="M137.1,172.9h-8.4a1.11,1.11,0,0,1-1.1-1.1h0a1.11,1.11,0,0,1,1.1-1.1h8.4a1.11,1.11,0,0,1,1.1,1.1h0C138.1,172.5,137.7,172.9,137.1,172.9Z"/><text class="cls-3" transform="translate(132.65 197.08)">Strip</text><path class="cls-2" d="M444.5,171.9c0-4.44-1.75-7.8-4.1-7.89H425.2l-.2.2-.2-.2H411c-2.35.08-4.11,3.45-4.11,7.89s1.76,7.81,4.11,7.89H424.8a1.76,1.76,0,0,0,.4-.5l.7.5h14.5C442.75,179.7,444.5,176.34,444.5,171.9Zm-35.82-.1c0-3.7,1.4-6.1,2.4-6.1s2.4,2.4,2.4,6.1-1.4,6.1-2.4,6.1S408.68,175.5,408.68,171.8Zm19.62-2.2-1.4.2a20.69,20.69,0,0,0-.4-2.2l1.3-.3A8.56,8.56,0,0,1,428.3,169.6Zm-1.7-5.5a8.75,8.75,0,0,1,1,2.2l-1.3.4a6.63,6.63,0,0,0-.9-1.9Zm.2,15.2-1.2-.7a11.92,11.92,0,0,0,.8-2l1.3.4A7.89,7.89,0,0,1,426.8,179.3Zm1.2-3.1-1.3-.3a7.8,7.8,0,0,0,.3-2.2l1.4.1A20,20,0,0,1,428,176.2Zm.4-4.3v1l-1.4-.1v-2.2l1.4-.1Z"/><text class="cls-3" transform="translate(398.88 197.08)">Cut <tspan class="cls-23" x="15.72" y="0">t</tspan><tspan x="18.95" y="0">o Len</tspan><tspan class="cls-25" x="40.32" y="0">g</tspan><tspan x="44.79" y="0">th</tspan></text><path class="cls-2" d="M212.2,267.8a.8.8,0,0,1,0-1.6h12.3v-6.9a.9.9,0,0,0-.9-.9H200.9a.9.9,0,0,0-.9.9v15.3a.9.9,0,0,0,.9.9h22.7a.9.9,0,0,0,.9-.9v-6.9H212.2Z"/><g class="cls-21"><text class="cls-3" transform="translate(196.9 291.75)">Plasma-</text><text class="cls-3" transform="translate(198.9 303.25)">cutting</text></g><rect class="cls-2" x="267" y="265.1" width="28.3" height="6.3"/><circle class="cls-2" cx="272" cy="274.7" r="3.1"/><circle class="cls-2" cx="281.2" cy="274.7" r="3.1"/><circle class="cls-2" cx="290.4" cy="274.7" r="3.1"/><polygon class="cls-2" points="300.2 263.9 296.3 267.4 296.3 258.1 300.2 258.1 300.2 263.9"/><text class="cls-3" transform="translate(270.26 291.75)"><tspan class="cls-26">E</tspan><tspan x="4.54" y="0">dging</tspan></text><path class="cls-2" d="M360.5,255.7l-2.4,4.5a7.3,7.3,0,0,1,3,9.9,7.31,7.31,0,1,1-12.9-6.9,7.23,7.23,0,0,1,3-3l-2.4-4.5a12.46,12.46,0,1,0,16.9,5A14.6,14.6,0,0,0,360.5,255.7Z"/><text class="cls-3" transform="translate(338.27 291.75)">Bending</text><path class="cls-2" d="M427.8,256.8h0c0-.1-.1-.1-.1-.2l-2-3.8-2,3.8-.1.1v.1h0a3,3,0,0,0-.2,1,2.3,2.3,0,0,0,4.6,0A3.55,3.55,0,0,0,427.8,256.8Z"/><path class="cls-2" d="M425.7,280.3a9.55,9.55,0,1,1,9.5-9.6h0A9.45,9.45,0,0,1,425.7,280.3Zm0-17.3a7.7,7.7,0,1,0,7.7,7.7h0A7.64,7.64,0,0,0,425.7,263Z"/><g class="cls-21"><text class="cls-3" transform="translate(413.22 291.75)">Seam-</text><text class="cls-3" transform="translate(409.12 303.25)">cleaning</text></g><path class="cls-2" d="M496.4,273.9a7.1,7.1,0,1,1,7.1-7.1h0A7.13,7.13,0,0,1,496.4,273.9Zm0-12.3a5.2,5.2,0,1,0,5.2,5.2h0A5.16,5.16,0,0,0,496.4,261.6Z"/><path class="cls-2" d="M488.3,265.5a8.24,8.24,0,0,1,9.4-6.9,8.39,8.39,0,0,1,6.9,6.9h2.2V254.3H486.2v11.2Z"/><path class="cls-2" d="M504.6,268.1a8.24,8.24,0,0,1-9.4,6.9,8.39,8.39,0,0,1-6.9-6.9h-2.2v11.2h20.6V268.1Z"/><text class="cls-3" transform="translate(480.01 291.75)"><tspan class="cls-12">F</tspan><tspan x="4.29" y="0">orming</tspan></text><path class="cls-2" d="M709.6,273.9a7.1,7.1,0,1,1,7.1-7.1h0A7.13,7.13,0,0,1,709.6,273.9Zm0-12.3a5.2,5.2,0,1,0,5.2,5.2h0A5.16,5.16,0,0,0,709.6,261.6Z"/><path class="cls-2" d="M701.5,265.5a8.24,8.24,0,0,1,9.4-6.9,8.39,8.39,0,0,1,6.9,6.9H720V254.3H699.4v11.2Z"/><path class="cls-2" d="M717.8,268.1a8.24,8.24,0,0,1-9.4,6.9,8.39,8.39,0,0,1-6.9-6.9h-2.2v11.2h20.6V268.1Z"/><g class="cls-21"><text class="cls-3" transform="translate(687.81 291.75)"><tspan class="cls-27">R</tspan><tspan x="5.23" y="0">oundness</tspan></text><text class="cls-3" transform="translate(688.11 303.25)">Calib<tspan class="cls-28" x="19.68" y="0">r</tspan><tspan class="cls-11" x="22.88" y="0">a</tspan><tspan x="27.52" y="0">ting</tspan></text></g><path id="_矩形_" data-name=" 矩形 " class="cls-2" d="M130.1,272.6h23.2a.47.47,0,0,1,.5.5h0a.47.47,0,0,1-.5.5H130.1a.47.47,0,0,1-.5-.5h0A.54.54,0,0,1,130.1,272.6Z"/><path id="_矩形_2" data-name=" 矩形 2" class="cls-2" d="M130.1,274.4h23.1a.47.47,0,0,1,.5.5h0a.47.47,0,0,1-.5.5H130.1a.47.47,0,0,1-.5-.5h0A.47.47,0,0,1,130.1,274.4Z"/><path id="_矩形_3" data-name=" 矩形 3" class="cls-2" d="M130.2,276.2h23a.47.47,0,0,1,.5.5h0a.47.47,0,0,1-.5.5h-23a.47.47,0,0,1-.5-.5h0A.47.47,0,0,1,130.2,276.2Z"/><path id="_矩形_4" data-name=" 矩形 4" class="cls-2" d="M130.2,277.9h22.9a.47.47,0,0,1,.5.5h0a.47.47,0,0,1-.5.5H130.2a.47.47,0,0,1-.5-.5h0A.47.47,0,0,1,130.2,277.9Z"/><text class="cls-3" transform="translate(131.47 291.75)">Pl<tspan class="cls-29" x="7.46" y="0">a</tspan><tspan class="cls-12" x="12.11" y="0">t</tspan><tspan x="15.32" y="0">e</tspan></text><path class="cls-2" d="M153.9,270.8V255.5a.9.9,0,0,0-.9-.9H130.3a.9.9,0,0,0-.9.9v15.3a.9.9,0,0,0,.9.9H153c.5.1.9-.3.9-.9Z"/><path class="cls-30" d="M567.4,187.6c-1.4-4.3-8.7-6.1-10.1-9.9-.6-2.4-.6-5.1.6-6.9,0,2.4,1.7,5.7,3.2,4,1.4-1.5-3-2.1-2.4-5.6.1-1.6,1.5-2.5,2-6.1,1.6,1.6-.9,4.1,2.8,5.6-4.4-5.3,3.4-7.3,2.8-12.4,5.8,5.8.1,9.3,3.3,10.8,1.2.5,2.9-2.7,1.7-5.3,3.5,3,3.1,6.2,1.3,8.7-.7.9.1,2.9.9,3.5-.3-1.9,1.3-2.8,1.7-4.6,3.2,3.6,4.4,8-.9,11.6A36.62,36.62,0,0,0,567.4,187.6Z"/><g class="cls-21"><text class="cls-3" transform="translate(556.06 197.08)">Aging</text><text class="cls-3" transform="translate(546.57 208.58)"><tspan class="cls-31">T</tspan><tspan class="cls-22" x="4.26" y="0">r</tspan><tspan x="7.56" y="0">e</tspan><tspan class="cls-29" x="12.39" y="0">a</tspan><tspan x="17.04" y="0">tme</tspan><tspan class="cls-29" x="33" y="0">n</tspan><tspan x="38.06" y="0">t</tspan></text></g><path class="cls-30" d="M638.19,282.23c-1.4-4.3-8.7-6.1-10.1-9.9-.6-2.4-.6-5.1.6-6.9,0,2.4,1.7,5.7,3.2,4,1.4-1.5-3-2.1-2.4-5.6.1-1.6,1.5-2.5,2-6.1,1.6,1.6-.9,4.1,2.8,5.6-4.4-5.3,3.4-7.3,2.8-12.4,5.8,5.8.1,9.3,3.3,10.8,1.2.5,2.9-2.7,1.7-5.3,3.5,3,3.1,6.2,1.3,8.7-.7.9.1,2.9.9,3.5-.3-1.9,1.3-2.8,1.7-4.6,3.2,3.6,4.4,8-.9,11.6A36.62,36.62,0,0,0,638.19,282.23Z"/><g class="cls-21"><text class="cls-3" transform="translate(626.85 291.72)">Aging</text><text class="cls-3" transform="translate(617.36 303.22)"><tspan class="cls-31">T</tspan><tspan class="cls-22" x="4.26" y="0">r</tspan><tspan x="7.56" y="0">e</tspan><tspan class="cls-29" x="12.39" y="0">a</tspan><tspan x="17.04" y="0">tme</tspan><tspan class="cls-29" x="33" y="0">n</tspan><tspan x="38.06" y="0">t</tspan></text></g><text class="cls-32" transform="translate(474.58 230.08)"><tspan class="cls-33">W</tspan><tspan x="6.96" y="0">elded </tspan><tspan class="cls-34" x="27.36" y="0">T</tspan><tspan x="30.91" y="0">ube</tspan></text><text class="cls-32" transform="translate(333.59 230.08)"><tspan class="cls-33">W</tspan><tspan x="6.96" y="0">elded Pipe</tspan></text></svg>