<svg id="图层_1" data-name="图层 1" xmlns="http://www.w3.org/2000/svg" viewBox="0 0 850.4 566.9"><defs><style>.cls-1{fill:#fff;}.cls-1,.cls-2,.cls-3,.cls-4,.cls-5,.cls-6,.cls-7,.cls-8,.cls-9{opacity:0.6;}.cls-2,.cls-5,.cls-7{fill:none;}.cls-2,.cls-5,.cls-6,.cls-7{stroke:#eee;}.cls-2,.cls-5,.cls-6{stroke-miterlimit:10;}.cls-10,.cls-11,.cls-12,.cls-13,.cls-14,.cls-15,.cls-16,.cls-3,.cls-4,.cls-6,.cls-8{fill:#eee;}.cls-10,.cls-11,.cls-12,.cls-13,.cls-14,.cls-15,.cls-16,.cls-4,.cls-9{isolation:isolate;}.cls-10,.cls-11,.cls-12,.cls-13,.cls-14,.cls-15,.cls-16,.cls-4{font-size:9.6px;font-family:Calibri-Bold, Calibri;font-weight:700;}.cls-5,.cls-7{stroke-linecap:round;stroke-width:1.6px;}.cls-6{stroke-width:0.89px;}.cls-7{stroke-linejoin:round;}.cls-8{fill-rule:evenodd;}.cls-11{letter-spacing:-0.01em;}.cls-12{letter-spacing:-0.02em;}.cls-13{letter-spacing:-0.01em;}.cls-14{letter-spacing:-0.01em;}.cls-15{letter-spacing:-0.02em;}.cls-16{letter-spacing:-0.04em;}</style></defs><rect class="cls-1" width="850.4" height="566.9"/><line class="cls-2" x1="850.4" y1="46.7" y2="46.7"/><line class="cls-2" x1="850.4" y1="165.1" y2="165.1"/><line class="cls-2" x1="850.4" y1="283.5" y2="283.5"/><line class="cls-2" x1="850.4" y1="401.9" y2="401.9"/><line class="cls-2" x1="850.4" y1="105.9" y2="105.9"/><line class="cls-2" x1="850.4" y1="224.3" y2="224.3"/><line class="cls-2" x1="850.4" y1="342.7" y2="342.7"/><line class="cls-2" x1="850.4" y1="461" y2="461"/><line class="cls-2" x1="850.4" y1="520.2" y2="520.2"/><line class="cls-2" x1="850.4" y1="135.5" y2="135.5"/><line class="cls-2" x1="850.4" y1="253.9" y2="253.9"/><line class="cls-2" x1="850.4" y1="372.3" y2="372.3"/><line class="cls-2" x1="850.4" y1="76.3" y2="76.3"/><line class="cls-2" x1="850.4" y1="17.1" y2="17.1"/><line class="cls-2" x1="850.4" y1="194.7" y2="194.7"/><line class="cls-2" x1="850.4" y1="313.1" y2="313.1"/><line class="cls-2" x1="850.4" y1="431.4" y2="431.4"/><line class="cls-2" x1="850.4" y1="490.6" y2="490.6"/><line class="cls-2" x1="850.4" y1="549.8" y2="549.8"/><line class="cls-2" x1="10.8" x2="10.8" y2="566.9"/><line class="cls-2" x1="129.2" x2="129.2" y2="566.9"/><line class="cls-2" x1="247.6" x2="247.6" y2="566.9"/><line class="cls-2" x1="366" x2="366" y2="566.9"/><line class="cls-2" x1="484.4" x2="484.4" y2="566.9"/><line class="cls-2" x1="602.8" x2="602.8" y2="566.9"/><line class="cls-2" x1="839.5" x2="839.5" y2="566.9"/><line class="cls-2" x1="721.2" x2="721.2" y2="566.9"/><line class="cls-2" x1="70" x2="70" y2="566.9"/><line class="cls-2" x1="188.4" x2="188.4" y2="566.9"/><line class="cls-2" x1="306.8" x2="306.8" y2="566.9"/><line class="cls-2" x1="425.2" x2="425.2" y2="566.9"/><line class="cls-2" x1="543.6" x2="543.6" y2="566.9"/><line class="cls-2" x1="662" x2="662" y2="566.9"/><line class="cls-2" x1="780.4" x2="780.4" y2="566.9"/><line class="cls-2" x1="810" x2="810" y2="566.9"/><line class="cls-2" x1="99.6" x2="99.6" y2="566.9"/><line class="cls-2" x1="218" x2="218" y2="566.9"/><line class="cls-2" x1="336.4" x2="336.4" y2="566.9"/><line class="cls-2" x1="454.8" x2="454.8" y2="566.9"/><line class="cls-2" x1="573.2" x2="573.2" y2="566.9"/><line class="cls-2" x1="691.6" x2="691.6" y2="566.9"/><line class="cls-2" x1="40.4" x2="40.4" y2="566.9"/><line class="cls-2" x1="158.8" x2="158.8" y2="566.9"/><line class="cls-2" x1="277.2" x2="277.2" y2="566.9"/><line class="cls-2" x1="395.6" x2="395.6" y2="566.9"/><line class="cls-2" x1="514" x2="514" y2="566.9"/><line class="cls-2" x1="632.4" x2="632.4" y2="566.9"/><line class="cls-2" x1="750.8" x2="750.8" y2="566.9"/><path class="cls-3" d="M541.54,377.06l-3.4-23.3a2.67,2.67,0,0,0-2.51-2.2h-7.8a2.57,2.57,0,0,0-2.49,2.2l-3.4,23.3A2.57,2.57,0,0,0,524,380h15.1a2.55,2.55,0,0,0,2.6-2.49h0C541.43,377.36,541.43,377.36,541.54,377.06Zm-14.31-22.9a.48.48,0,0,1,.51-.4h7.8c.2,0,.5.2.5.4l1.8,11.7H525.63Z"/><text class="cls-4" transform="translate(515.54 391.08)">Anal</text><text class="cls-4" transform="translate(533.6 391.08)">y</text><text class="cls-4" transform="translate(538.19 391.08)">tic</text><path class="cls-3" d="M670.61,356.86h-9.9v12.3h14v-12.3Zm-2.27,1.7a.7.7,0,1,1-1.4,0,.7.7,0,0,1,.7-.7C668,358,668.34,358.16,668.34,358.56Zm-4.9,0a.7.7,0,0,1-.77.63.72.72,0,0,1-.63-.63.7.7,0,0,1,.7-.7h0A1,1,0,0,1,663.44,358.56Zm1.2-.7h1v4.2h-1Zm-2.7,9.4a.71.71,0,1,1,1.41,0,.7.7,0,0,1-.7.7h0A.85.85,0,0,1,661.94,367.26Zm2.7.6v-4.1h1v4.13Zm2.2-.6a.71.71,0,1,1,.7.7A.85.85,0,0,1,666.84,367.26Zm5,0a.71.71,0,1,1,.7.7h0a.84.84,0,0,1-.73-.7Zm-1.2.6h-1v-4.1h1Zm-1-5.7V358h1v4.2Zm3.6-3.6a.7.7,0,0,1-.77.63.72.72,0,0,1-.63-.63.7.7,0,0,1,.7-.7h0a.68.68,0,0,1,.7.64v.06Z"/><circle class="cls-3" cx="661.01" cy="373.46" r="1.8"/><path class="cls-3" d="M661,372a1.43,1.43,0,0,0-1.4,1.4v.13h2.8A1.53,1.53,0,0,0,661,372Z"/><path class="cls-3" d="M655.31,369.66v3.83h3.43a2.3,2.3,0,0,1,4.6-.2v.2h12.4v-3.8Z"/><circle class="cls-3" cx="682.61" cy="373.46" r="1.8"/><path class="cls-3" d="M682.61,372a1.43,1.43,0,0,0-1.4,1.4v.13H684A1.53,1.53,0,0,0,682.61,372Z"/><path class="cls-3" d="M684.11,361.36h-7.4v12.13h3.7a2.3,2.3,0,0,1,4.6-.2v.2h3.7v-5.4Z"/><text class="cls-4" transform="translate(651.66 391.08)">P</text><text class="cls-4" transform="translate(656.58 391.08)">acking &amp;</text><text class="cls-4" transform="translate(654.22 402.6)">Shipping</text><polygon class="cls-3" points="604.34 369.06 601.94 371.36 601.54 370.16 601.54 370.16 600.14 366.26 586.74 372.16 601.54 361.36 602.14 362.66 602.94 365.06 603.54 366.96 610.65 363.46 604.34 369.06"/><path class="cls-3" d="M596.25,363.09a9.52,9.52,0,0,1,5.89-7,9.22,9.22,0,0,1,9.6,2.2,12.32,12.32,0,0,0-22,9.4Z"/><path class="cls-3" d="M608.25,373.36a9.15,9.15,0,0,1-6.11,0l-1,.93-.6-1.5a9.2,9.2,0,0,1-3.4-3.3l-6.09,2.7a12.24,12.24,0,0,0,14.89,5.37,12.44,12.44,0,0,0,8.2-12.07A9,9,0,0,1,608.25,373.36Z"/><circle class="cls-3" cx="613.45" cy="361.76" r="1.6"/><text class="cls-4" transform="translate(585.66 391.08)">Marking</text><line class="cls-5" x1="277.1" y1="180.66" x2="286.19" y2="180.66"/><polygon class="cls-6" points="285.39 183.07 289.5 180.67 285.39 178.27 285.39 183.07"/><line class="cls-5" x1="348.3" y1="180.66" x2="357.19" y2="180.66"/><polygon class="cls-6" points="356.59 183.07 360.7 180.67 356.59 178.27 356.59 183.07"/><line class="cls-5" x1="419.5" y1="180.66" x2="428.3" y2="180.66"/><polygon class="cls-6" points="427.59 183.07 431.9 180.67 427.59 178.27 427.59 183.07"/><line class="cls-5" x1="490.59" y1="180.66" x2="499.5" y2="180.66"/><polygon class="cls-6" points="498.79 183.07 502.99 180.67 498.79 178.27 498.79 183.07"/><line class="cls-5" x1="561.59" y1="180.66" x2="570.7" y2="180.66"/><polygon class="cls-6" points="569.9 183.07 573.99 180.67 569.9 178.27 569.9 183.07"/><line class="cls-5" x1="277.1" y1="275.36" x2="286.19" y2="275.36"/><polygon class="cls-6" points="285.39 277.76 289.5 275.36 285.39 272.96 285.39 277.76"/><line class="cls-5" x1="348.3" y1="275.36" x2="357.19" y2="275.36"/><polygon class="cls-6" points="356.59 277.76 360.7 275.36 356.59 272.96 356.59 277.76"/><line class="cls-5" x1="419.5" y1="275.36" x2="428.3" y2="275.36"/><polygon class="cls-6" points="427.59 277.76 431.9 275.36 427.59 272.96 427.59 277.76"/><line class="cls-5" x1="490.59" y1="275.36" x2="499.5" y2="275.36"/><polygon class="cls-6" points="498.79 277.76 502.99 275.36 498.79 272.96 498.79 277.76"/><polygon class="cls-6" points="419.5 272.96 415.3 275.36 419.5 277.76 419.5 272.96"/><line class="cls-5" x1="277.1" y1="370.16" x2="286.19" y2="370.16"/><polygon class="cls-6" points="285.39 372.56 289.5 370.16 285.39 367.76 285.39 372.56"/><line class="cls-5" x1="348.3" y1="370.16" x2="357.19" y2="370.16"/><polygon class="cls-6" points="356.59 372.56 360.7 370.16 356.59 367.76 356.59 372.56"/><line class="cls-5" x1="419.5" y1="370.16" x2="428.3" y2="370.16"/><polygon class="cls-6" points="427.59 372.56 431.9 370.16 427.59 367.76 427.59 372.56"/><line class="cls-5" x1="490.59" y1="370.16" x2="499.5" y2="370.16"/><polygon class="cls-6" points="498.79 372.56 502.99 370.16 498.79 367.76 498.79 372.56"/><path class="cls-7" d="M632.1,181.36h13.49a4.6,4.6,0,0,1,4.6,4.58h0v43.9a4.58,4.58,0,0,1-4.57,4.6H205.1a4.58,4.58,0,0,0-4.6,4.57h0v32a4.58,4.58,0,0,0,4.56,4.6h10"/><polygon class="cls-6" points="214.3 278.06 218.5 275.66 214.3 273.26 214.3 278.06"/><line class="cls-5" x1="561.59" y1="275.36" x2="570.7" y2="275.36"/><polygon class="cls-6" points="569.9 277.76 573.99 275.36 569.9 272.96 569.9 277.76"/><path class="cls-3" d="M258.79,169.16a3,3,0,0,0-3,3h0v12.9a1.43,1.43,0,0,1-1.4,1.4H241a1.44,1.44,0,0,1-1.4-1.4v-12.8a3,3,0,0,0-3-3H231.3V171h5.29a1.43,1.43,0,0,1,1.4,1.4v12.9a3,3,0,0,0,3,3h13.41a3,3,0,0,0,3-3h0v-13a1.44,1.44,0,0,1,1.4-1.4h5.4v-1.7Z"/><path class="cls-3" d="M240.59,185.06a.55.55,0,0,0,.51.5h13.4a.53.53,0,0,0,.49-.5h0v-10.4c-1.4-.1-3.69-.3-4.6-.3-1.49,0-4.8.8-6,.2-.69-.4-2.4-.3-3.69-.2v10.7Z"/><path class="cls-3" d="M243.59,172.56h-.2a.59.59,0,0,1-.4-.7h0a5.71,5.71,0,0,0,0-2.6,6.75,6.75,0,0,1,0-3.4c.2-.3.51-.5.8-.3a.81.81,0,0,1,.4.6h0a6.61,6.61,0,0,0,0,2.8,6,6,0,0,1,0,3.3A.6.6,0,0,1,243.59,172.56Z"/><path class="cls-3" d="M247.7,172.56h-.2a.56.56,0,0,1-.4-.7h0a5.71,5.71,0,0,0,0-2.6,6.33,6.33,0,0,1,0-3.4c.2-.3.49-.5.8-.3a.81.81,0,0,1,.4.6,6.61,6.61,0,0,0,0,2.8,6.37,6.37,0,0,1,0,3.3A.7.7,0,0,1,247.7,172.56Z"/><path class="cls-3" d="M251.9,172.56h-.2a.56.56,0,0,1-.4-.7h0a5.71,5.71,0,0,0,0-2.6,10.28,10.28,0,0,1,0-3.5.57.57,0,0,1,1.1.28v0h0a7.08,7.08,0,0,0,0,2.9,6,6,0,0,1,0,3.3A.44.44,0,0,1,251.9,172.56Z"/><text class="cls-4" transform="translate(237.85 201.8)">S</text><text class="cls-4" transform="translate(242.38 201.8)">t</text><text class="cls-4" transform="translate(245.59 201.8)">eel</text><text class="cls-4" transform="translate(232.83 213.31)">Making</text><path class="cls-7" d="M632.1,275.36h13.49a4.6,4.6,0,0,1,4.6,4.58h0v43.9a4.58,4.58,0,0,1-4.57,4.6H205.1a4.58,4.58,0,0,0-4.6,4.57h0v32a4.58,4.58,0,0,0,4.56,4.6h10"/><polygon class="cls-6" points="214.3 372.16 218.5 369.76 214.3 367.36 214.3 372.16"/><line class="cls-5" x1="561.59" y1="275.36" x2="570.7" y2="275.36"/><line class="cls-5" x1="561.59" y1="370.16" x2="570.7" y2="370.16"/><polygon class="cls-6" points="569.9 372.56 573.99 370.16 569.9 367.76 569.9 372.56"/><line class="cls-5" x1="561.59" y1="370.16" x2="570.7" y2="370.16"/><line class="cls-5" x1="632.22" y1="370.16" x2="641.32" y2="370.16"/><polygon class="cls-6" points="640.53 372.56 644.62 370.16 640.53 367.76 640.53 372.56"/><line class="cls-5" x1="632.22" y1="370.16" x2="641.32" y2="370.16"/><path class="cls-3" d="M469.43,376.93l-5.32-8.47a8.59,8.59,0,1,0-1.81,1.12l5.32,8.49a1.1,1.1,0,0,0,.92.49,1,1,0,0,0,.56-.16,1.07,1.07,0,0,0,.33-1.47Zm-12.08-8.85a6.4,6.4,0,1,1,7.64-4.85h0a6.39,6.39,0,0,1-7.6,4.85Z"/><text class="cls-4" transform="translate(440.07 391.08)">Inspection</text><path class="cls-8" d="M460.62,192.27c-1.36-4.36-8.8-6.16-10.06-9.88-.62-2.4-.56-5.1.62-6.9,0,2.36,1.68,5.66,3.2,4s-3-2.11-2.35-5.6c.12-1.6,1.49-2.49,2.05-6.15,1.55,1.55-.87,4.1,2.79,5.6-4.41-5.34,3.41-7.27,2.79-12.43,5.84,5.78.13,9.32,3.3,10.82,1.18.5,2.86-2.67,1.74-5.28,3.48,3,3.11,6.21,1.3,8.75-.68.94.07,2.92.94,3.55-.32-1.87,1.3-2.8,1.74-4.6,3.2,3.6,4.41,8-.94,11.61A28.5,28.5,0,0,0,460.62,192.27Z"/><g class="cls-9"><text class="cls-10" transform="translate(445.38 201.8)">He</text><text class="cls-11" transform="translate(456.26 201.8)">a</text><text class="cls-10" transform="translate(460.91 201.8)">ting</text></g><path class="cls-8" d="M247.54,287c-1.36-4.36-8.75-6.16-10.06-9.88-.62-2.4-.56-5.09.62-6.9,0,2.4,1.68,5.66,3.2,4,1.43-1.49-3-2.11-2.4-5.6.12-1.6,1.49-2.49,2-6.15,1.55,1.55-.87,4.1,2.79,5.6-4.4-5.34,3.41-7.27,2.8-12.43,5.84,5.78.12,9.32,3.29,10.82,1.19.5,2.87-2.67,1.75-5.28,3.48,3,3.1,6.21,1.3,8.75-.68.94.06,2.92.93,3.55-.31-1.87,1.3-2.8,1.74-4.6,3.2,3.6,4.41,8-.93,11.61A28.48,28.48,0,0,0,247.54,287Z"/><text class="cls-4" transform="translate(227.67 296.47)">Annealing</text><polygon class="cls-3" points="391.96 268.8 389.54 266.74 374.86 266.74 374.86 276.42 389.54 276.42 391.96 274.36 404.34 274.36 404.34 268.8 391.96 268.8"/><circle class="cls-3" cx="393.89" cy="264.38" r="3.8"/><circle class="cls-3" cx="393.89" cy="278.78" r="3.8"/><g class="cls-9"><text class="cls-10" transform="translate(380.74 296.47)">Cold</text><text class="cls-10" transform="translate(373.06 308)">D</text><text class="cls-12" transform="translate(379.1 308)">r</text><text class="cls-13" transform="translate(382.3 308)">a</text><text class="cls-10" transform="translate(386.97 308)">wing</text></g><path class="cls-3" d="M474.17,269.15c-15.84,0-16.72-.92-16.76-16.76h0c0,15.84-.92,16.72-16.76,16.76h0c15.84,0,16.72.92,16.76,16.76h0C457.45,270.07,458.33,269.19,474.17,269.15Z"/><path class="cls-8" d="M459.54,264.88a5.55,5.55,0,0,0,3.82,2.77c.34-1.66,1-4-2.12-7.14C461.47,262.29,460.54,263.63,459.54,264.88Z"/><path class="cls-8" d="M467.62,276.12c-.8-.54-1.41-2.29-.8-3.1a6,6,0,0,0,1.16-2.94c-8.8.46-9.66,2.67-9.76,13.71,1.71,1.16,3.32,2.4,3.85,4.13a25.11,25.11,0,0,1,6.27-5.63c4.68-3.2,3.65-7,.8-10.18C468.77,273.67,467.35,274.49,467.62,276.12Z"/><path class="cls-8" d="M465.85,268.08c.58.07,1.2.12,1.89.15a6.5,6.5,0,0,0-2.08-2.88A4.33,4.33,0,0,1,465.85,268.08Z"/><path class="cls-8" d="M456.26,277.05c-1.24.62-2.45-1.94-2.45-3.82a7.89,7.89,0,0,0-.55,6c.47,1.33,1.81,2.4,3.32,3.41A50.46,50.46,0,0,0,456.26,277.05Z"/><path class="cls-8" d="M462.83,269.15a7.46,7.46,0,0,1-3.53-1.89,5.88,5.88,0,0,1-.8-1c-1,1.45-1.46,3,.31,5.1-3.2-1.3-1.09-3.54-2.45-4.9a12.18,12.18,0,0,1-1.39,4.08c.19.16.37.33.55.51a7.51,7.51,0,0,1,1.89,3.53A6.91,6.91,0,0,1,462.83,269.15Z"/><g class="cls-9"><text class="cls-10" transform="translate(448.86 296.47)">Brig</text><text class="cls-14" transform="translate(464.57 296.47)">h</text><text class="cls-10" transform="translate(469.63 296.47)">t</text><text class="cls-10" transform="translate(440.86 308)">Annealing</text></g><path class="cls-3" d="M314.38,169.32l-2.46,3.85a1.45,1.45,0,0,1-2,.45h0l-3.33-2.12a1.45,1.45,0,0,1-.46-2h0l4-6.2a.36.36,0,0,0-.1-.49h0l-.33-.22a.39.39,0,0,0-.52.11l-4,6.26a2.55,2.55,0,0,0,.8,3.52h0l3.46,2.21a2.56,2.56,0,0,0,3.52-.8h0l2.34-3.67a3.61,3.61,0,0,1,3.7-1.6l.06-.08-.8-.49a2.79,2.79,0,0,0-2.16-.12A3.37,3.37,0,0,0,314.38,169.32Z"/><path class="cls-3" d="M319,167.4a3.25,3.25,0,0,0-.45-.25,5.65,5.65,0,0,0-2.22-.45h-1.26s-1.44,0-2.32,0H310a9,9,0,0,0-1.64,0l-1.92,3a1.08,1.08,0,0,0,.33,1.48l3.33,2.12a1.07,1.07,0,0,0,1.48-.33l2.45-3.85a3.87,3.87,0,0,1,1.9-1.53,3.18,3.18,0,0,1,2.44.12h0a4.28,4.28,0,0,1,1.2,1.2c2,3.15,3.6,10.16,3.6,10.16h4C324.18,170.58,319,167.4,319,167.4Z"/><path class="cls-3" d="M329.26,190.1h-8.8a3,3,0,0,1-3-2.95V171.31a.72.72,0,0,1,1.43,0h0v15.84a1.52,1.52,0,0,0,1.53,1.52h8.8a1.5,1.5,0,0,0,1.52-1.51h0V171.31a.72.72,0,0,1,1.43-.11v16A3,3,0,0,1,329.26,190.1Z"/><path class="cls-3" d="M319.45,178.87h10.83v8a1.26,1.26,0,0,1-1.26,1.26h-8.31a1.25,1.25,0,0,1-1.26-1.26h0Z"/><g class="cls-9"><text class="cls-10" transform="translate(308.15 201.8)">In</text><text class="cls-13" transform="translate(315.86 201.8)">g</text><text class="cls-10" transform="translate(320.32 201.8)">ot</text><text class="cls-10" transform="translate(304.05 213.31)">Ca</text><text class="cls-14" transform="translate(313.87 213.31)">s</text><text class="cls-10" transform="translate(317.59 213.31)">ting</text></g><path class="cls-3" d="M397.86,169.1H381.38c-2.83,0-5,4.05-5,9.2s2.21,9.2,5,9.2h16.48c2.82,0,5-4.05,5-9.2S400.68,169.1,397.86,169.1Zm0,17.23H383.91l0-.05.19-.21.06-.07.24-.3.05-.08a2.46,2.46,0,0,0,.17-.27l.07-.1.17-.29,0-.08c.06-.12.14-.25.2-.4a.36.36,0,0,0,0-.09,2.22,2.22,0,0,0,.14-.32s0-.08.06-.12a3.85,3.85,0,0,0,.14-.37v-.07c.06-.15.11-.3.16-.45v-.12c0-.12.07-.24.1-.37s0-.09,0-.14.08-.28.11-.44v-.05a2.33,2.33,0,0,1,.11-.51v-.14l.07-.4v-.16a4,4,0,0,1,.06-.5h0a2.12,2.12,0,0,1,.05-.56V177a2.05,2.05,0,0,0-.05-.55v0a4,4,0,0,0-.06-.5v-.16c0-.14,0-.27-.07-.4v-.15a2.24,2.24,0,0,0-.11-.5v-.07a1.82,1.82,0,0,0-.11-.43.33.33,0,0,0,0-.14,1.21,1.21,0,0,0-.1-.36v-.12c-.05-.15-.1-.31-.16-.46v-.07l-.14-.36a.75.75,0,0,0-.06-.13c0-.1-.09-.21-.14-.31a.3.3,0,0,0,0-.1c-.06-.13-.14-.26-.2-.4l0-.08-.17-.28-.07-.12-.17-.25-.05-.08-.24-.31-.06-.07-.2-.21h13.91c2.09,0,3.85,3.67,3.85,8s-1.77,8-3.85,8Z"/><path class="cls-3" d="M399.54,173.2l-.31-.59a1.54,1.54,0,0,0-1.38-1h-10.6a.85.85,0,0,0-.74.94.79.79,0,0,0,.06.22l.31,1a1.08,1.08,0,0,0,1,.8l11-.05a.85.85,0,0,0,.69-1A1,1,0,0,0,399.54,173.2Z"/><g class="cls-9"><text class="cls-10" transform="translate(379.29 201.8)">In</text><text class="cls-13" transform="translate(387 201.8)">g</text><text class="cls-10" transform="translate(391.46 201.8)">ot</text></g><path class="cls-3" d="M540,188.56H523.4a.72.72,0,0,1-.74-.72V167.38a.74.74,0,0,1,.72-.75H540a.75.75,0,0,1,.74.75v20.44A.74.74,0,0,1,540,188.56Zm-14.9-2.4h13.2v-17.1h-13.2Z"/><path class="cls-3" d="M517.38,176.64H546a1,1,0,0,1,1,1h0a1,1,0,0,1-1,1H517.38a1,1,0,0,1-1-1h0A1,1,0,0,1,517.38,176.64Z"/><path class="cls-8" d="M531.69,170.21a3.2,3.2,0,1,0,3.2,3.2A3.2,3.2,0,0,0,531.69,170.21Zm0,4.57a1.36,1.36,0,1,1,1.34-1.36h0a1.35,1.35,0,0,1-1.34,1.36Z"/><path class="cls-8" d="M531.69,178.59a3.2,3.2,0,1,0,3.2,3.2A3.2,3.2,0,0,0,531.69,178.59Zm0,4.57A1.35,1.35,0,1,1,533,181.8h0a1.34,1.34,0,0,1-1.34,1.35Z"/><g class="cls-9"><text class="cls-10" transform="translate(523.89 201.8)">Hot</text><text class="cls-15" transform="translate(517.58 213.31)">R</text><text class="cls-10" transform="translate(522.81 213.31)">olling</text></g><rect class="cls-3" x="590.34" y="177.75" width="19.63" height="0.56"/><rect class="cls-3" x="613.52" y="177.75" width="1.09" height="0.56"/><path class="cls-3" d="M591.63,177.39c.11-4.67,1-7.55,1.6-7.87a.72.72,0,0,1,.25.32,3.84,3.84,0,0,1,.8-1.23,1.37,1.37,0,0,0-1-.49c-2.21,0-2.91,5.51-3,9.27Z"/><path class="cls-3" d="M593.22,186.74c-.56-.32-1.52-3.27-1.6-8.08h-1.4c.07,3.76.73,9.52,3,9.52a1.35,1.35,0,0,0,1-.49,4.73,4.73,0,0,1-.8-1.23A1,1,0,0,1,593.22,186.74Z"/><path class="cls-3" d="M593.7,177.39c.12-4.67,1.06-7.52,1.6-7.83a.62.62,0,0,1,.25.31,3.64,3.64,0,0,1,.8-1.22,1.34,1.34,0,0,0-1-.53c-2.22,0-2.92,5.51-3,9.27Z"/><path class="cls-3" d="M595.29,186.74c-.56-.32-1.51-3.27-1.6-8.08h-1.4c.07,3.76.73,9.52,3,9.52a1.34,1.34,0,0,0,1-.49,4.73,4.73,0,0,1-.8-1.23A1.1,1.1,0,0,1,595.29,186.74Z"/><path class="cls-3" d="M597.33,186.74c-.56-.32-1.51-3.27-1.6-8.08h-1.41c.07,3.76.74,9.52,3,9.52a1.45,1.45,0,0,0,1-.46,4,4,0,0,1-.8-1.23A.55.55,0,0,1,597.33,186.74Z"/><path class="cls-3" d="M595.74,177.39c.11-4.67,1.06-7.52,1.6-7.83a.55.55,0,0,1,.25.31,3.8,3.8,0,0,1,.8-1.22,1.3,1.3,0,0,0-1-.53c-2.21,0-2.91,5.51-3,9.27Z"/><path class="cls-3" d="M597.82,177.39c.1-4.67,1-7.52,1.6-7.83a.66.66,0,0,1,.24.31,3.8,3.8,0,0,1,.8-1.22,1.26,1.26,0,0,0-1-.53c-2.22,0-2.92,5.51-3,9.27Z"/><path class="cls-3" d="M599.4,186.74c-.56-.32-1.51-3.27-1.6-8.08h-1.4c.06,3.76.74,9.52,3,9.52a1.37,1.37,0,0,0,1-.49,4.14,4.14,0,0,1-.8-1.23A.69.69,0,0,1,599.4,186.74Z"/><path class="cls-3" d="M599.89,177.39c.1-4.67,1.05-7.52,1.6-7.83a.75.75,0,0,1,.25.31,3.64,3.64,0,0,1,.8-1.22,1.38,1.38,0,0,0-1-.53c-2.22,0-2.92,5.51-3,9.27Z"/><path class="cls-3" d="M601.47,186.74c-.56-.32-1.51-3.27-1.6-8.08h-1.4c.07,3.76.74,9.52,3,9.52a1.36,1.36,0,0,0,1-.49,4.73,4.73,0,0,1-.8-1.23A.9.9,0,0,1,601.47,186.74Z"/><path class="cls-3" d="M601.94,177.39c.11-4.67,1.06-7.55,1.6-7.87a.58.58,0,0,1,.24.32,4,4,0,0,1,.8-1.23,1.36,1.36,0,0,0-1-.49c-2.22,0-2.92,5.51-3,9.27Z"/><path class="cls-3" d="M603.54,186.74c-.56-.32-1.51-3.27-1.6-8.08h-1.4c.07,3.76.74,9.52,3,9.52a1.36,1.36,0,0,0,1-.49,4.73,4.73,0,0,1-.8-1.23A.51.51,0,0,1,603.54,186.74Z"/><path class="cls-3" d="M604,177.39c.11-4.67,1.06-7.52,1.6-7.83a.6.6,0,0,1,.24.31,4,4,0,0,1,.8-1.22,1.29,1.29,0,0,0-1-.53c-2.22,0-2.92,5.51-3,9.27Z"/><path class="cls-3" d="M605.58,186.74c-.56-.32-1.51-3.27-1.6-8.08h-1.4c0,3.76.73,9.52,3,9.52a1.37,1.37,0,0,0,1-.49,4.57,4.57,0,0,1-.8-1.23A.63.63,0,0,1,605.58,186.74Z"/><path class="cls-3" d="M606.07,177.39c.07-4.67,1-7.55,1.6-7.87a.64.64,0,0,1,.24.32,4,4,0,0,1,.8-1.23,1.4,1.4,0,0,0-1-.49c-2.22,0-2.92,5.51-3,9.27Z"/><path class="cls-3" d="M607.66,186.74c-.56-.32-1.52-3.27-1.6-8.08h-1.4c.06,3.76.73,9.52,3,9.52a1.4,1.4,0,0,0,1-.49,4.73,4.73,0,0,1-.8-1.23A1.42,1.42,0,0,1,607.66,186.74Z"/><path class="cls-3" d="M608.11,177.39c.11-4.67,1.06-7.52,1.6-7.83a.55.55,0,0,1,.25.31,3.64,3.64,0,0,1,.8-1.22,1.3,1.3,0,0,0-1-.53c-2.21,0-2.92,5.51-3,9.27Z"/><path class="cls-3" d="M609.69,186.74c-.56-.32-1.51-3.27-1.6-8.08h-1.35c.08,3.76.74,9.52,3,9.52a1.39,1.39,0,0,0,1-.49,4.73,4.73,0,0,1-.8-1.23C609.86,186.59,609.8,186.71,609.69,186.74Z"/><path class="cls-3" d="M610.18,177.39c.11-4.67,1-7.55,1.6-7.87.56.32,1.48,3.2,1.6,7.84h1.43c-.07-3.73-.8-9.24-3-9.24s-2.91,5.51-3,9.27Z"/><path class="cls-3" d="M613.34,178.66c-.07,4.8-1,7.76-1.6,8.08-.56-.32-1.51-3.27-1.6-8.08h-1.38c.07,3.76.74,9.52,3,9.52s3-5.76,3-9.52Z"/><g class="cls-9"><text class="cls-10" transform="translate(581.37 201.8)">Hot </text><text class="cls-15" transform="translate(598.08 201.8)">R</text><text class="cls-10" transform="translate(603.32 201.8)">olled</text><text class="cls-10" transform="translate(583.82 213.31)">Wi</text><text class="cls-14" transform="translate(594.87 213.31)">r</text><text class="cls-10" transform="translate(598.18 213.31)">e </text><text class="cls-15" transform="translate(605.18 213.31)">R</text><text class="cls-10" transform="translate(610.42 213.31)">od</text></g><path class="cls-3" d="M329.26,282h-20a3.2,3.2,0,0,1-3.2-3.2V262.35h1.6v16.44a1.63,1.63,0,0,0,1.6,1.64h20a1.65,1.65,0,0,0,1.64-1.64h0V262.35h1.56v16.44a3.2,3.2,0,0,1-3.2,3.2Z"/><rect class="cls-3" x="306.06" y="266.01" width="26.4" height="1.64"/><path class="cls-3" d="M329.26,282h-20a3.2,3.2,0,0,1-3.2-3.2V262.35h1.6v16.48a1.63,1.63,0,0,0,1.6,1.64h20a1.65,1.65,0,0,0,1.64-1.64h0V262.35h1.56v16.48A3.28,3.28,0,0,1,329.26,282Z"/><rect class="cls-3" x="306.02" y="266.01" width="26.4" height="1.64"/><path class="cls-3" d="M321,275.64a3,3,0,0,1,5.8,0H328a4.16,4.16,0,0,0-8.22,0Z"/><path class="cls-3" d="M326.81,276.59a3,3,0,0,1-5.86,0h-1.2a4.15,4.15,0,0,0,8.27,0Z"/><text class="cls-4" transform="translate(303.53 296.47)">Pickling</text><path id="_矩形_" data-name=" 矩形 " class="cls-3" d="M524.77,282.35h14.52a.33.33,0,0,1,.32.31h0v.08a.32.32,0,0,1-.31.32H524.77a.31.31,0,0,1-.32-.31h0v-.09a.3.3,0,0,1,.3-.31h0Z"/><path id="_矩形_2" data-name=" 矩形 2" class="cls-3" d="M523.81,281.19h16a.33.33,0,0,1,.32.31h0v.08a.32.32,0,0,1-.31.32h-16a.3.3,0,0,1-.32-.31h0v-.11a.29.29,0,0,1,.28-.29h0Z"/><path id="_矩形_3" data-name=" 矩形 3" class="cls-3" d="M524.77,280h15.08a.33.33,0,0,1,.32.31h0v.08a.32.32,0,0,1-.31.32H524.77a.35.35,0,0,1-.32-.36v-.08a.28.28,0,0,1,.28-.28h0Z"/><path id="_矩形_4" data-name=" 矩形 4" class="cls-3" d="M524.13,278.79h15.12a.33.33,0,0,1,.32.31h0v.08a.32.32,0,0,1-.31.32H524.13a.3.3,0,0,1-.32-.31h0v-.07C523.85,279,524,278.79,524.13,278.79Z"/><path id="_矩形_5" data-name=" 矩形 5" class="cls-3" d="M524.13,277.63h16.21a.31.31,0,0,1,.32.31h0V278a.31.31,0,0,1-.31.32H524.13a.31.31,0,0,1-.32-.31h0V278C523.85,277.75,524,277.63,524.13,277.63Z"/><path id="_矩形_6" data-name=" 矩形 6" class="cls-3" d="M523.05,276.43h17.6a.33.33,0,0,1,.32.31h0v.08a.32.32,0,0,1-.31.32h-17.6a.31.31,0,0,1-.32-.31h0v-.09a.3.3,0,0,1,.3-.31Z"/><path id="_矩形_7" data-name=" 矩形 7" class="cls-3" d="M523.85,269.35h16.4a.33.33,0,0,1,.32.31h0v.08a.32.32,0,0,1-.31.32h-16.4a.31.31,0,0,1-.32-.31h0v-.09a.3.3,0,0,1,.3-.31Z"/><path id="_矩形_8" data-name=" 矩形 8" class="cls-3" d="M522.74,270.51H541.3a.31.31,0,0,1,.32.31h0v.08a.31.31,0,0,1-.31.32H522.74a.32.32,0,0,1-.32-.31h0v-.09A.34.34,0,0,1,522.74,270.51Z"/><path id="_矩形_9" data-name=" 矩形 9" class="cls-3" d="M523.05,271.71h18a.33.33,0,0,1,.32.31h0v.08a.32.32,0,0,1-.31.32H523.05a.31.31,0,0,1-.32-.31h0V272a.27.27,0,0,1,.25-.31h.07Z"/><path id="_矩形_10" data-name=" 矩形 10" class="cls-3" d="M522.41,272.91h19.44a.33.33,0,0,1,.32.31h0v.08a.32.32,0,0,1-.31.32H522.41a.31.31,0,0,1-.32-.31h0v-.09a.3.3,0,0,1,.3-.31h0Z"/><path id="_矩形_11" data-name=" 矩形 11" class="cls-3" d="M522.61,274.07h18.16a.33.33,0,0,1,.32.31h0v.08a.32.32,0,0,1-.31.32H522.61a.3.3,0,0,1-.32-.31h0v-.09A.33.33,0,0,1,522.61,274.07Z"/><path id="_矩形_12" data-name=" 矩形 12" class="cls-3" d="M521.53,275.27h19.76a.33.33,0,0,1,.32.31h0v.08a.32.32,0,0,1-.31.32H521.53a.3.3,0,0,1-.32-.31h0v-.09a.3.3,0,0,1,.3-.31h0Z"/><path id="_矩形_13" data-name=" 矩形 13" class="cls-3" d="M523.37,268.15h15.8a.33.33,0,0,1,.32.31h0v.08a.32.32,0,0,1-.31.32H523.37a.31.31,0,0,1-.32-.31h0v-.09a.3.3,0,0,1,.3-.31h0Z"/><path id="_矩形_14" data-name=" 矩形 14" class="cls-3" d="M524.21,267h15a.33.33,0,0,1,.32.31h0v.08a.32.32,0,0,1-.31.32h-15a.3.3,0,0,1-.32-.31h0v-.09a.27.27,0,0,1,.25-.31h.07Z"/><path id="_矩形_15" data-name=" 矩形 15" class="cls-3" d="M524.65,265.79h14.89a.31.31,0,0,1,.32.31h0v.08a.31.31,0,0,1-.31.32h-14.9a.35.35,0,0,1-.32-.36v0a.3.3,0,0,1,.3-.31h0Z"/><path id="_矩形_16" data-name=" 矩形 16" class="cls-3" d="M524.21,264.63h15a.33.33,0,0,1,.32.31h0V265a.32.32,0,0,1-.31.32h-15a.31.31,0,0,1-.32-.31h0v-.13a.28.28,0,0,1,.28-.28Z"/><path id="_矩形_17" data-name=" 矩形 17" class="cls-3" d="M524.45,263.43H539a.33.33,0,0,1,.32.31h0v.08a.32.32,0,0,1-.31.32H524.45a.31.31,0,0,1-.32-.31h0v-.09a.3.3,0,0,1,.3-.31h0Z"/><g class="cls-9"><text class="cls-10" transform="translate(522.65 297.36)">Wi</text><text class="cls-14" transform="translate(533.7 297.36)">r</text><text class="cls-10" transform="translate(537.01 297.36)">e</text></g><path class="cls-3" d="M589.6,273.44a5.4,5.4,0,0,1-2.55-.65,4.48,4.48,0,0,0-2.23-.53,1.4,1.4,0,1,1,0-2.8,7.07,7.07,0,0,1,3.43.8,2.77,2.77,0,0,0,1.35.38,3,3,0,0,0,1.43-.37,8.16,8.16,0,0,1,3.28-.8,9.22,9.22,0,0,1,2.4.28,11.47,11.47,0,0,0,2.47.33h14.68a1.4,1.4,0,0,1,0,2.8h-14.7a15.07,15.07,0,0,1-3.06-.38,6.07,6.07,0,0,0-1.64-.23,5.26,5.26,0,0,0-2.28.56A5.66,5.66,0,0,1,589.6,273.44Z"/><rect class="cls-3" x="599.49" y="258.31" width="10.86" height="10.86" rx="1.42"/><rect class="cls-3" x="599.49" y="273.78" width="10.86" height="10.86" rx="1.42"/><g class="cls-9"><text class="cls-10" transform="translate(575.75 296.47)">St</text><text class="cls-15" transform="translate(583.62 296.47)">r</text><text class="cls-10" transform="translate(586.82 296.47)">aig</text><text class="cls-14" transform="translate(598.46 296.47)">h</text><text class="cls-14" transform="translate(603.53 296.47)">t</text><text class="cls-10" transform="translate(606.74 296.47)">ening</text></g><path class="cls-3" d="M263,373.49V361H232.5v12.47h3.41v-.63h.8v.63h22.11v-.63h.8v.63Zm-26.22-1.88H236v-1.24h.8Zm0-2.49H236v-1.23h.8Zm0-2.49H236v-1.24h.8Zm0-2.49H236v-1.23h.8Zm0-2.49H236V361h.8Zm22.11-.63h.8v.63h-.8Zm0,1.88h.8v1.24h-.8Zm0,2.49h.8v1.24h-.8Zm0,2.48h.8v1.25h-.8Zm0,3.74v-1.24h.8v1.24Z"/><text class="cls-4" transform="translate(233.47 391.08)">Cutting</text><path class="cls-3" d="M302.2,363.89h31a2.16,2.16,0,0,1,2.16,2.16h0a2.16,2.16,0,0,1-2.16,2.16h-31v-4.32Z"/><path class="cls-3" d="M335.33,365.71a2.16,2.16,0,0,1,0,.36A2.16,2.16,0,0,0,335.33,365.71Z"/><path class="cls-3" d="M333.2,363.89h0Z"/><path class="cls-3" d="M333.67,364l.29.09Z"/><path class="cls-3" d="M335.22,365.34a1.31,1.31,0,0,1,.09.28A1.31,1.31,0,0,0,335.22,365.34Z"/><path class="cls-3" d="M335.13,365.12Z"/><path class="cls-3" d="M335.25,366.75l.05-.13v-.05C335.3,366.52,335.27,366.68,335.25,366.75Z"/><path class="cls-3" d="M335.33,366.47a2.41,2.41,0,0,0,0-.38A2.41,2.41,0,0,1,335.33,366.47Z"/><path class="cls-3" d="M302.2,372.42h21.24a2.85,2.85,0,0,0,2.78-2.47h-24Z"/><path class="cls-3" d="M323.44,359.75H302.2v2.48h24A2.81,2.81,0,0,0,323.44,359.75Z"/><text class="cls-4" transform="translate(300.04 391.08)">Extrusion</text><path class="cls-3" d="M399.14,361.27v-4.52a1.4,1.4,0,0,0-2.8,0v4.52a1.81,1.81,0,0,0-1.6,1.8v13.76h6V363.09A1.85,1.85,0,0,0,399.14,361.27Z"/><path class="cls-3" d="M382.9,361.27v-4.52a1.4,1.4,0,0,0-2.8,0v4.52a1.81,1.81,0,0,0-1.6,1.8v13.76h6V363.09A1.85,1.85,0,0,0,382.9,361.27Z"/><path class="cls-3" d="M391,361.27v-4.52a1.4,1.4,0,0,0-2.8,0v4.52a1.81,1.81,0,0,0-1.6,1.8v13.76h6V363.09A1.85,1.85,0,0,0,391,361.27Z"/><g class="cls-9"><text class="cls-16" transform="translate(373.24 391.08)">W</text><text class="cls-10" transform="translate(381.6 391.08)">elding</text><text class="cls-10" transform="translate(370.79 402.6)">Elect</text><text class="cls-13" transform="translate(390.01 402.6)">r</text><text class="cls-10" transform="translate(393.3 402.6)">ode</text></g></svg>