<svg id="图层_1" data-name="图层 1" xmlns="http://www.w3.org/2000/svg" viewBox="0 0 850.4 566.9"><defs><style>.cls-1{fill:#fff;}.cls-1,.cls-2,.cls-3,.cls-4,.cls-5,.cls-6,.cls-7,.cls-8,.cls-9{opacity:0.6;}.cls-2,.cls-5,.cls-7{fill:none;}.cls-2,.cls-5,.cls-6,.cls-7{stroke:#eee;}.cls-2,.cls-5,.cls-6{stroke-miterlimit:10;}.cls-10,.cls-11,.cls-12,.cls-13,.cls-14,.cls-15,.cls-3,.cls-4,.cls-6,.cls-8{fill:#eee;}.cls-10,.cls-11,.cls-12,.cls-13,.cls-14,.cls-15,.cls-4,.cls-9{isolation:isolate;}.cls-10,.cls-11,.cls-12,.cls-13,.cls-14,.cls-15,.cls-4{font-size:9.6px;font-family:Calibri-Bold, Calibri;font-weight:700;}.cls-5,.cls-7{stroke-linecap:round;stroke-width:1.6px;}.cls-6{stroke-width:0.89px;}.cls-7{stroke-linejoin:round;}.cls-8{fill-rule:evenodd;}.cls-11{letter-spacing:-0.01em;}.cls-12{letter-spacing:-0.02em;}.cls-13{letter-spacing:-0.01em;}.cls-14{letter-spacing:-0.02em;}.cls-15{letter-spacing:-0.01em;}</style></defs><rect class="cls-1" width="850.4" height="566.9"/><line class="cls-2" x1="850.4" y1="46.7" y2="46.7"/><line class="cls-2" x1="850.4" y1="165.1" y2="165.1"/><line class="cls-2" x1="850.4" y1="283.5" y2="283.5"/><line class="cls-2" x1="850.4" y1="401.9" y2="401.9"/><line class="cls-2" x1="850.4" y1="105.9" y2="105.9"/><line class="cls-2" x1="850.4" y1="224.3" y2="224.3"/><line class="cls-2" x1="850.4" y1="342.7" y2="342.7"/><line class="cls-2" x1="850.4" y1="461" y2="461"/><line class="cls-2" x1="850.4" y1="520.2" y2="520.2"/><line class="cls-2" x1="850.4" y1="135.5" y2="135.5"/><line class="cls-2" x1="850.4" y1="253.9" y2="253.9"/><line class="cls-2" x1="850.4" y1="372.3" y2="372.3"/><line class="cls-2" x1="850.4" y1="76.3" y2="76.3"/><line class="cls-2" x1="850.4" y1="17.1" y2="17.1"/><line class="cls-2" x1="850.4" y1="194.7" y2="194.7"/><line class="cls-2" x1="850.4" y1="313.1" y2="313.1"/><line class="cls-2" x1="850.4" y1="431.4" y2="431.4"/><line class="cls-2" x1="850.4" y1="490.6" y2="490.6"/><line class="cls-2" x1="850.4" y1="549.8" y2="549.8"/><line class="cls-2" x1="10.8" x2="10.8" y2="566.9"/><line class="cls-2" x1="129.2" x2="129.2" y2="566.9"/><line class="cls-2" x1="247.6" x2="247.6" y2="566.9"/><line class="cls-2" x1="366" x2="366" y2="566.9"/><line class="cls-2" x1="484.4" x2="484.4" y2="566.9"/><line class="cls-2" x1="602.8" x2="602.8" y2="566.9"/><line class="cls-2" x1="839.5" x2="839.5" y2="566.9"/><line class="cls-2" x1="721.2" x2="721.2" y2="566.9"/><line class="cls-2" x1="70" x2="70" y2="566.9"/><line class="cls-2" x1="188.4" x2="188.4" y2="566.9"/><line class="cls-2" x1="306.8" x2="306.8" y2="566.9"/><line class="cls-2" x1="425.2" x2="425.2" y2="566.9"/><line class="cls-2" x1="543.6" x2="543.6" y2="566.9"/><line class="cls-2" x1="662" x2="662" y2="566.9"/><line class="cls-2" x1="780.4" x2="780.4" y2="566.9"/><line class="cls-2" x1="810" x2="810" y2="566.9"/><line class="cls-2" x1="99.6" x2="99.6" y2="566.9"/><line class="cls-2" x1="218" x2="218" y2="566.9"/><line class="cls-2" x1="336.4" x2="336.4" y2="566.9"/><line class="cls-2" x1="454.8" x2="454.8" y2="566.9"/><line class="cls-2" x1="573.2" x2="573.2" y2="566.9"/><line class="cls-2" x1="691.6" x2="691.6" y2="566.9"/><line class="cls-2" x1="40.4" x2="40.4" y2="566.9"/><line class="cls-2" x1="158.8" x2="158.8" y2="566.9"/><line class="cls-2" x1="277.2" x2="277.2" y2="566.9"/><line class="cls-2" x1="395.6" x2="395.6" y2="566.9"/><line class="cls-2" x1="514" x2="514" y2="566.9"/><line class="cls-2" x1="632.4" x2="632.4" y2="566.9"/><line class="cls-2" x1="750.8" x2="750.8" y2="566.9"/><path class="cls-3" d="M470.56,377.06l-3.4-23.3a2.65,2.65,0,0,0-2.49-2.2h-7.8a2.59,2.59,0,0,0-2.51,2.2l-3.4,23.3a2.56,2.56,0,0,0,2.11,2.9h15.09a2.54,2.54,0,0,0,2.6-2.48h0C470.47,377.36,470.47,377.36,470.56,377.06Zm-14.31-22.9a.47.47,0,0,1,.5-.4h7.8c.2,0,.5.2.5.4l1.8,11.7h-12.2Z"/><text class="cls-4" transform="translate(444.57 391.08)">Anal</text><text class="cls-4" transform="translate(462.63 391.08)">y</text><text class="cls-4" transform="translate(467.23 391.08)">tic</text><path class="cls-3" d="M599.93,356.86H590v12.3h14v-12.3Zm-2.3,1.7a.71.71,0,0,1-.78.63.67.67,0,0,1,.08-1.33C597.33,358,597.63,358.16,597.63,358.56Zm-4.9,0a.71.71,0,1,1-.7-.7h0A1,1,0,0,1,592.73,358.56Zm1.2-.7h1v4.2h-1Zm-2.7,9.4a.7.7,0,1,1,1.4,0,.7.7,0,0,1-.7.7h0A.85.85,0,0,1,591.23,367.26Zm2.7.6v-4.1h1v4.13Zm2.2-.6a.71.71,0,1,1,.7.7h0A.84.84,0,0,1,596.13,367.26Zm5,0a.71.71,0,1,1,.7.7h0A.84.84,0,0,1,601.13,367.26Zm-1.2.6h-1v-4.1h1Zm-1-5.7V358h1v4.2Zm3.6-3.6a.71.71,0,1,1-.7-.7h0a.67.67,0,0,1,.7.64h0v.06Z"/><circle class="cls-3" cx="590.33" cy="373.46" r="1.8"/><path class="cls-3" d="M590.33,372a1.44,1.44,0,0,0-1.4,1.4v.13h2.8A1.52,1.52,0,0,0,590.33,372Z"/><path class="cls-3" d="M584.63,369.66v3.83H588a2.3,2.3,0,0,1,4.6-.2v.2h12.42v-3.8Z"/><circle class="cls-3" cx="611.93" cy="373.46" r="1.8"/><path class="cls-3" d="M611.93,372a1.44,1.44,0,0,0-1.4,1.4v.13h2.8A1.52,1.52,0,0,0,611.93,372Z"/><path class="cls-3" d="M613.43,361.36H606v12.13h3.7a2.3,2.3,0,0,1,4.6-.2v.2H618v-5.4Z"/><text class="cls-4" transform="translate(580.98 391.08)">P</text><text class="cls-4" transform="translate(585.9 391.08)">acking &amp;</text><text class="cls-4" transform="translate(583.54 402.6)">Shipping</text><polygon class="cls-3" points="533.67 369.06 531.27 371.36 530.87 370.16 530.87 370.16 529.47 366.26 516.07 372.16 530.87 361.36 531.47 362.66 532.27 365.06 532.87 366.96 539.97 363.46 533.67 369.06"/><path class="cls-3" d="M525.57,363.09a9.53,9.53,0,0,1,5.9-7,9.24,9.24,0,0,1,9.58,2.2,12.32,12.32,0,0,0-22,9.4Z"/><path class="cls-3" d="M537.57,373.36a9.12,9.12,0,0,1-6.1,0l-1,.93-.6-1.5a9,9,0,0,1-3.4-3.3l-6.1,2.7a12.25,12.25,0,0,0,14.9,5.4,12.46,12.46,0,0,0,8.18-12.1A9,9,0,0,1,537.57,373.36Z"/><circle class="cls-3" cx="542.77" cy="361.76" r="1.6"/><text class="cls-4" transform="translate(514.99 391.08)">Marking</text><line class="cls-5" x1="277" y1="180.66" x2="286.1" y2="180.66"/><polygon class="cls-6" points="285.3 183.07 289.4 180.67 285.3 178.27 285.3 183.07"/><line class="cls-5" x1="348.2" y1="180.66" x2="357.1" y2="180.66"/><polygon class="cls-6" points="356.5 183.07 360.6 180.67 356.5 178.27 356.5 183.07"/><line class="cls-5" x1="419.4" y1="180.66" x2="428.2" y2="180.66"/><polygon class="cls-6" points="427.5 183.07 431.8 180.67 427.5 178.27 427.5 183.07"/><line class="cls-5" x1="490.5" y1="180.66" x2="499.4" y2="180.66"/><polygon class="cls-6" points="498.7 183.07 502.9 180.67 498.7 178.27 498.7 183.07"/><line class="cls-5" x1="561.5" y1="180.66" x2="570.6" y2="180.66"/><polygon class="cls-6" points="569.8 183.07 573.9 180.67 569.8 178.27 569.8 183.07"/><line class="cls-5" x1="277" y1="275.36" x2="286.1" y2="275.36"/><polygon class="cls-6" points="285.3 277.76 289.4 275.36 285.3 272.96 285.3 277.76"/><line class="cls-5" x1="348.2" y1="275.36" x2="357.1" y2="275.36"/><polygon class="cls-6" points="356.5 277.76 360.6 275.36 356.5 272.96 356.5 277.76"/><line class="cls-5" x1="419.4" y1="275.36" x2="428.2" y2="275.36"/><polygon class="cls-6" points="427.5 277.76 431.8 275.36 427.5 272.96 427.5 277.76"/><line class="cls-5" x1="490.5" y1="275.36" x2="499.4" y2="275.36"/><polygon class="cls-6" points="498.7 277.76 502.9 275.36 498.7 272.96 498.7 277.76"/><polygon class="cls-6" points="490.55 272.96 486.35 275.36 490.55 277.76 490.55 272.96"/><line class="cls-5" x1="277" y1="370.16" x2="286.1" y2="370.16"/><polygon class="cls-6" points="285.3 372.56 289.4 370.16 285.3 367.76 285.3 372.56"/><line class="cls-5" x1="348.2" y1="370.16" x2="357.1" y2="370.16"/><polygon class="cls-6" points="356.5 372.56 360.6 370.16 356.5 367.76 356.5 372.56"/><line class="cls-5" x1="419.4" y1="370.16" x2="428.2" y2="370.16"/><polygon class="cls-6" points="427.5 372.56 431.8 370.16 427.5 367.76 427.5 372.56"/><polygon class="cls-6" points="387.12 340.86 389.52 345.16 391.92 340.86 387.12 340.86"/><line class="cls-5" x1="490.5" y1="370.16" x2="499.4" y2="370.16"/><polygon class="cls-6" points="498.7 372.56 502.9 370.16 498.7 367.76 498.7 372.56"/><path class="cls-7" d="M632,181.36h13.5a4.6,4.6,0,0,1,4.6,4.58h0v43.9a4.6,4.6,0,0,1-4.58,4.6H205a4.59,4.59,0,0,0-4.6,4.57h0v32a4.59,4.59,0,0,0,4.57,4.6h10"/><polygon class="cls-6" points="214.2 278.06 218.4 275.66 214.2 273.26 214.2 278.06"/><line class="cls-5" x1="561.5" y1="275.36" x2="570.6" y2="275.36"/><polygon class="cls-6" points="569.8 277.76 573.9 275.36 569.8 272.96 569.8 277.76"/><path class="cls-3" d="M258.7,169.16a3,3,0,0,0-3,3h0v12.9a1.44,1.44,0,0,1-1.4,1.4H240.9a1.42,1.42,0,0,1-1.4-1.4v-12.8a3,3,0,0,0-3-3h-5.3V171h5.3a1.44,1.44,0,0,1,1.4,1.4v12.9a3,3,0,0,0,3,3H254.3a3,3,0,0,0,3-3h0v-13a1.42,1.42,0,0,1,1.4-1.4h5.4v-1.7Z"/><path class="cls-3" d="M240.5,185.06a.54.54,0,0,0,.5.5h13.4a.54.54,0,0,0,.5-.5h0v-10.4c-1.4-.1-3.7-.3-4.6-.3-1.5,0-4.8.8-6,.2-.7-.4-2.4-.3-3.7-.2v10.7Z"/><path class="cls-3" d="M243.5,172.56h-.2a.58.58,0,0,1-.4-.7h0a5.71,5.71,0,0,0,0-2.6,6.53,6.53,0,0,1,0-3.4c.2-.3.5-.5.8-.3a.81.81,0,0,1,.4.6h0a6.61,6.61,0,0,0,0,2.8,6.16,6.16,0,0,1,0,3.3A.61.61,0,0,1,243.5,172.56Z"/><path class="cls-3" d="M247.6,172.56h-.2a.58.58,0,0,1-.4-.7h0a5.71,5.71,0,0,0,0-2.6,6.53,6.53,0,0,1,0-3.4c.2-.3.5-.5.8-.3a.81.81,0,0,1,.4.6,6.61,6.61,0,0,0,0,2.8,6.16,6.16,0,0,1,0,3.3A.68.68,0,0,1,247.6,172.56Z"/><path class="cls-3" d="M251.8,172.56h-.2a.58.58,0,0,1-.4-.7h0a5.71,5.71,0,0,0,0-2.6,10.28,10.28,0,0,1,0-3.5.58.58,0,0,1,.7-.4.55.55,0,0,1,.4.68v0h0a7.08,7.08,0,0,0,0,2.9,6.16,6.16,0,0,1,0,3.3A.44.44,0,0,1,251.8,172.56Z"/><text class="cls-4" transform="translate(237.75 201.8)">S</text><text class="cls-4" transform="translate(242.29 201.8)">t</text><text class="cls-4" transform="translate(245.5 201.8)">eel</text><text class="cls-4" transform="translate(232.74 213.31)">Making</text><path class="cls-7" d="M632,275.36h13.5a4.6,4.6,0,0,1,4.6,4.58h0v43.9a4.6,4.6,0,0,1-4.58,4.6H205a4.59,4.59,0,0,0-4.6,4.57h0v32a4.59,4.59,0,0,0,4.57,4.6h10"/><polygon class="cls-6" points="214.2 372.16 218.4 369.76 214.2 367.36 214.2 372.16"/><line class="cls-5" x1="561.5" y1="275.36" x2="570.6" y2="275.36"/><line class="cls-5" x1="561.5" y1="370.16" x2="570.6" y2="370.16"/><polygon class="cls-6" points="569.8 372.56 573.9 370.16 569.8 367.76 569.8 372.56"/><line class="cls-5" x1="561.5" y1="370.16" x2="570.6" y2="370.16"/><path class="cls-7" d="M389.52,340.86v-7.8a4.6,4.6,0,0,1,4.59-4.6h0"/><path class="cls-3" d="M398.15,376.93l-5.32-8.47a8.59,8.59,0,1,0-1.81,1.12l5.32,8.49a1.07,1.07,0,0,0,.91.49.92.92,0,0,0,.56-.16,1.07,1.07,0,0,0,.34-1.47Zm-12.08-8.85a6.4,6.4,0,1,1,7.64-4.85h0a6.4,6.4,0,0,1-7.6,4.85Z"/><text class="cls-4" transform="translate(368.79 391.08)">Inspection</text><path class="cls-8" d="M460.53,192.27c-1.37-4.36-8.8-6.16-10.06-9.88-.62-2.4-.56-5.1.62-6.9,0,2.36,1.67,5.66,3.2,4s-3-2.11-2.35-5.6c.12-1.6,1.49-2.49,2.05-6.15,1.55,1.55-.88,4.1,2.79,5.6-4.41-5.34,3.41-7.27,2.79-12.43,5.84,5.78.13,9.32,3.3,10.82,1.18.5,2.85-2.67,1.74-5.28,3.48,3,3.1,6.21,1.3,8.75-.68.94.07,2.92.93,3.55-.31-1.87,1.31-2.8,1.75-4.6,3.2,3.6,4.4,8-.94,11.61A28.33,28.33,0,0,0,460.53,192.27Z"/><g class="cls-9"><text class="cls-10" transform="translate(445.28 201.8)">He</text><text class="cls-11" transform="translate(456.17 201.8)">a</text><text class="cls-10" transform="translate(460.82 201.8)">ting</text></g><path class="cls-8" d="M247.45,287c-1.37-4.36-8.75-6.16-10.06-9.88-.62-2.4-.56-5.09.62-6.9,0,2.4,1.68,5.66,3.2,4,1.42-1.49-3-2.11-2.4-5.6.12-1.6,1.49-2.49,2.05-6.15,1.55,1.55-.87,4.1,2.79,5.6-4.41-5.34,3.41-7.27,2.8-12.43,5.84,5.78.12,9.32,3.29,10.82,1.18.5,2.86-2.67,1.74-5.28,3.48,3,3.11,6.21,1.31,8.75-.68.94.06,2.92.92,3.55-.31-1.87,1.31-2.8,1.75-4.6,3.2,3.6,4.41,8-.94,11.61A28.27,28.27,0,0,0,247.45,287Z"/><text class="cls-4" transform="translate(227.58 296.47)">Annealing</text><polygon class="cls-3" points="391.87 268.8 389.45 266.74 374.76 266.74 374.76 276.42 389.45 276.42 391.87 274.36 404.25 274.36 404.25 268.8 391.87 268.8"/><circle class="cls-3" cx="393.79" cy="264.38" r="3.8"/><circle class="cls-3" cx="393.79" cy="278.78" r="3.8"/><g class="cls-9"><text class="cls-10" transform="translate(380.65 296.47)">Cold</text><text class="cls-10" transform="translate(372.96 308)">D</text><text class="cls-12" transform="translate(379.01 308)">r</text><text class="cls-13" transform="translate(382.21 308)">a</text><text class="cls-10" transform="translate(386.87 308)">wing</text></g><polygon class="cls-3" points="533.94 268.8 531.51 266.74 516.83 266.74 516.83 276.42 531.51 276.42 533.94 274.36 546.31 274.36 546.31 268.8 533.94 268.8"/><circle class="cls-3" cx="535.87" cy="264.38" r="3.8"/><circle class="cls-3" cx="535.87" cy="278.78" r="3.8"/><g class="cls-9"><text class="cls-10" transform="translate(522.71 296.47)">Cold</text><text class="cls-10" transform="translate(515.03 308)">D</text><text class="cls-14" transform="translate(521.07 308)">r</text><text class="cls-11" transform="translate(524.27 308)">a</text><text class="cls-10" transform="translate(528.94 308)">wing</text></g><path class="cls-3" d="M474.07,269.15c-15.84,0-16.72-.92-16.76-16.76h0c0,15.84-.92,16.72-16.76,16.76h0c15.84,0,16.72.92,16.76,16.76h0C457.35,270.07,458.23,269.19,474.07,269.15Z"/><path class="cls-8" d="M459.45,264.88a5.55,5.55,0,0,0,3.82,2.77c.34-1.66,1-4-2.12-7.14C461.38,262.29,460.44,263.63,459.45,264.88Z"/><path class="cls-8" d="M467.53,276.12c-.8-.54-1.42-2.29-.8-3.1a5.93,5.93,0,0,0,1.15-2.94c-8.8.46-9.65,2.67-9.75,13.71,1.7,1.16,3.31,2.4,3.85,4.13a24.77,24.77,0,0,1,6.27-5.63c4.68-3.2,3.65-7,.8-10.18C468.67,273.67,467.26,274.49,467.53,276.12Z"/><path class="cls-8" d="M465.75,268.08c.59.07,1.2.12,1.9.15a6.57,6.57,0,0,0-2.08-2.88A4.33,4.33,0,0,1,465.75,268.08Z"/><path class="cls-8" d="M456.17,277.05c-1.24.62-2.46-1.94-2.46-3.82a7.89,7.89,0,0,0-.54,6c.46,1.33,1.81,2.4,3.32,3.41A50.46,50.46,0,0,0,456.17,277.05Z"/><path class="cls-8" d="M462.74,269.15a7.54,7.54,0,0,1-3.54-1.89,5.88,5.88,0,0,1-.8-1c-1,1.45-1.45,3,.31,5.1-3.2-1.3-1.08-3.54-2.44-4.9a12,12,0,0,1-1.4,4.08,6.77,6.77,0,0,1,.56.51,7.41,7.41,0,0,1,1.88,3.53A6.91,6.91,0,0,1,462.74,269.15Z"/><g class="cls-9"><text class="cls-10" transform="translate(448.77 296.47)">Brig</text><text class="cls-15" transform="translate(464.47 296.47)">h</text><text class="cls-10" transform="translate(469.54 296.47)">t</text><text class="cls-10" transform="translate(440.76 308)">Annealing</text></g><path class="cls-3" d="M261,363.76c-15.84,0-16.72-.92-16.8-16.76h0c0,15.84-.92,16.72-16.76,16.76h0c15.84,0,16.72.92,16.76,16.8h0C244.25,364.69,245.15,363.8,261,363.76Z"/><path class="cls-8" d="M246.39,359.49a5.6,5.6,0,0,0,3.81,2.78c.35-1.68,1-4-2.12-7.16C248.3,356.9,247.36,358.23,246.39,359.49Z"/><path class="cls-8" d="M254.45,370.73c-.76-.54-1.42-2.29-.8-3.1a6,6,0,0,0,1.15-2.93c-8.76.45-9.65,2.66-9.75,13.69,1.7,1.17,3.31,2.4,3.85,4.15a25,25,0,0,1,6.25-5.67c4.68-3.15,3.65-7,.8-10.16C255.59,368.28,254.18,369.1,254.45,370.73Z"/><path class="cls-8" d="M252.67,362.7c.59.06,1.2.11,1.9.15a6.66,6.66,0,0,0-2.08-2.89A4.36,4.36,0,0,1,252.67,362.7Z"/><path class="cls-8" d="M243.09,371.67c-1.24.61-2.46-1.94-2.46-3.82a7.87,7.87,0,0,0-.54,6c.46,1.33,1.81,2.4,3.32,3.41A50.15,50.15,0,0,0,243.09,371.67Z"/><path class="cls-8" d="M249.66,363.76a6.75,6.75,0,0,1-4.34-2.87c-1,1.44-1.45,2.95.31,5.09-3.2-1.31-1.08-3.54-2.44-4.9a12.11,12.11,0,0,1-1.4,4.09,6.66,6.66,0,0,1,.56.5,7.36,7.36,0,0,1,1.88,3.53A6.91,6.91,0,0,1,249.66,363.76Z"/><g class="cls-9"><text class="cls-10" transform="translate(235.7 391.08)">Brig</text><text class="cls-15" transform="translate(251.4 391.08)">h</text><text class="cls-10" transform="translate(256.47 391.08)">t</text><text class="cls-10" transform="translate(227.69 402.6)">Annealing</text></g><path class="cls-3" d="M314.28,169.32l-2.45,3.85a1.46,1.46,0,0,1-2,.45h0l-3.32-2.12a1.44,1.44,0,0,1-.46-2h0l3.95-6.2a.35.35,0,0,0-.1-.49h0l-.34-.22a.38.38,0,0,0-.51.11l-4,6.26a2.55,2.55,0,0,0,.8,3.52h0l3.46,2.21a2.56,2.56,0,0,0,3.52-.8h0l2.34-3.67a3.6,3.6,0,0,1,3.7-1.6l.05-.08-.8-.49a2.77,2.77,0,0,0-2.15-.12A3.44,3.44,0,0,0,314.28,169.32Z"/><path class="cls-3" d="M318.9,167.4a4.09,4.09,0,0,0-.46-.25,5.6,5.6,0,0,0-2.21-.45H315s-1.45,0-2.32,0h-2.72a9.09,9.09,0,0,0-1.65,0l-1.91,3a1.07,1.07,0,0,0,.33,1.48L310,173.3a1.07,1.07,0,0,0,1.48-.33l2.44-3.85a3.85,3.85,0,0,1,1.91-1.53,3.18,3.18,0,0,1,2.44.12h0a4.28,4.28,0,0,1,1.2,1.2c2,3.15,3.6,10.16,3.6,10.16h4C324.08,170.58,318.9,167.4,318.9,167.4Z"/><path class="cls-3" d="M329.16,190.1h-8.8a3,3,0,0,1-2.95-2.95V171.31a.71.71,0,0,1,1.42,0h0v15.84a1.53,1.53,0,0,0,1.53,1.52h8.8a1.51,1.51,0,0,0,1.53-1.51h0V171.31a.71.71,0,0,1,1.42-.11v16A3,3,0,0,1,329.16,190.1Z"/><path class="cls-3" d="M319.35,178.87h10.84v8a1.26,1.26,0,0,1-1.27,1.26h-8.3a1.26,1.26,0,0,1-1.27-1.26h0Z"/><g class="cls-9"><text class="cls-10" transform="translate(308.06 201.8)">In</text><text class="cls-13" transform="translate(315.77 201.8)">g</text><text class="cls-10" transform="translate(320.23 201.8)">ot</text><text class="cls-10" transform="translate(303.95 213.31)">Ca</text><text class="cls-15" transform="translate(313.78 213.31)">s</text><text class="cls-10" transform="translate(317.5 213.31)">ting</text></g><path class="cls-3" d="M397.76,169.1H381.28c-2.82,0-5,4.05-5,9.2s2.22,9.2,5,9.2h16.48c2.83,0,5-4.05,5-9.2S400.59,169.1,397.76,169.1Zm0,17.23H383.82l.05-.05.19-.21.05-.07.24-.3,0-.08a2.53,2.53,0,0,0,.18-.27l.07-.1.17-.29.05-.08c.06-.12.13-.25.2-.4l0-.09c.05-.11.1-.21.14-.32s0-.08.06-.12.1-.24.14-.37v-.07c.06-.15.1-.3.15-.45v-.12c0-.12.07-.24.11-.37s0-.09,0-.14.08-.28.11-.44v-.05a3.06,3.06,0,0,1,.1-.51v-.14l.07-.4v-.16a2.74,2.74,0,0,1,.07-.5h0a2.12,2.12,0,0,1,.05-.56V177a2.05,2.05,0,0,0-.05-.55v0a2.74,2.74,0,0,0-.07-.5v-.16a1.76,1.76,0,0,0-.07-.4v-.15a2.22,2.22,0,0,0-.1-.5v-.07a1.82,1.82,0,0,0-.11-.43v-.14a1.24,1.24,0,0,0-.11-.36v-.12c-.05-.15-.09-.31-.15-.46v-.07l-.14-.36-.06-.13c0-.1-.09-.21-.14-.31a1,1,0,0,0,0-.1c-.07-.13-.14-.26-.2-.4l-.05-.08-.17-.28-.07-.12a2.94,2.94,0,0,0-.18-.25l0-.08-.24-.31-.05-.07-.2-.21h13.91c2.09,0,3.85,3.67,3.85,8s-1.78,8-3.86,8Z"/><path class="cls-3" d="M399.45,173.2l-.31-.59a1.56,1.56,0,0,0-1.39-1h-10.6a.84.84,0,0,0-.73.94,1.42,1.42,0,0,0,.05.22l.32,1a1.06,1.06,0,0,0,1,.8l11-.05a.87.87,0,0,0,.69-1A1,1,0,0,0,399.45,173.2Z"/><g class="cls-9"><text class="cls-10" transform="translate(379.19 201.8)">In</text><text class="cls-13" transform="translate(386.91 201.8)">g</text><text class="cls-10" transform="translate(391.36 201.8)">ot</text></g><path class="cls-3" d="M539.88,188.56H523.31a.74.74,0,0,1-.75-.72V167.38a.74.74,0,0,1,.73-.75h16.59a.76.76,0,0,1,.75.75v20.44A.75.75,0,0,1,539.88,188.56ZM525,186.16h13.2v-17.1H525Z"/><path class="cls-3" d="M517.29,176.64H545.9a1,1,0,0,1,1,1h0a1,1,0,0,1-1,1H517.29a1,1,0,0,1-1-1h0A1,1,0,0,1,517.29,176.64Z"/><path class="cls-8" d="M531.59,170.21a3.2,3.2,0,1,0,3.2,3.2A3.2,3.2,0,0,0,531.59,170.21Zm0,4.57a1.36,1.36,0,1,1,1.35-1.36h0a1.36,1.36,0,0,1-1.35,1.36Z"/><path class="cls-8" d="M531.59,178.59a3.2,3.2,0,1,0,3.2,3.2A3.21,3.21,0,0,0,531.59,178.59Zm0,4.57a1.35,1.35,0,1,1,1.35-1.36h0a1.34,1.34,0,0,1-1.35,1.35Z"/><g class="cls-9"><text class="cls-10" transform="translate(523.79 201.8)">Hot</text><text class="cls-14" transform="translate(517.48 213.31)">R</text><text class="cls-10" transform="translate(522.71 213.31)">olling</text></g><rect class="cls-3" x="590.24" y="177.75" width="19.63" height="0.56"/><rect class="cls-3" x="613.43" y="177.75" width="1.09" height="0.56"/><path class="cls-3" d="M591.54,177.39c.11-4.67,1-7.55,1.6-7.87a.72.72,0,0,1,.25.32,3.68,3.68,0,0,1,.8-1.23,1.39,1.39,0,0,0-1-.49c-2.22,0-2.91,5.51-3,9.27Z"/><path class="cls-3" d="M593.12,186.74c-.56-.32-1.51-3.27-1.6-8.08h-1.4c.07,3.76.74,9.52,3,9.52a1.33,1.33,0,0,0,1-.49,4.73,4.73,0,0,1-.8-1.23A.69.69,0,0,1,593.12,186.74Z"/><path class="cls-3" d="M593.61,177.39c.11-4.67,1.06-7.52,1.6-7.83a.68.68,0,0,1,.25.31,3.64,3.64,0,0,1,.8-1.22,1.36,1.36,0,0,0-1-.53c-2.21,0-2.91,5.51-3,9.27Z"/><path class="cls-3" d="M595.19,186.74c-.56-.32-1.51-3.27-1.6-8.08h-1.4c.08,3.76.74,9.52,3,9.52a1.33,1.33,0,0,0,1-.49,4.73,4.73,0,0,1-.8-1.23A1.1,1.1,0,0,1,595.19,186.74Z"/><path class="cls-3" d="M597.23,186.74c-.56-.32-1.51-3.27-1.6-8.08h-1.4c.07,3.76.73,9.52,3,9.52a1.41,1.41,0,0,0,1-.46,4.21,4.21,0,0,1-.8-1.23A.55.55,0,0,1,597.23,186.74Z"/><path class="cls-3" d="M595.65,177.39c.1-4.67,1.06-7.52,1.6-7.83a.55.55,0,0,1,.25.31,3.64,3.64,0,0,1,.8-1.22,1.3,1.3,0,0,0-1-.53c-2.2,0-2.91,5.51-3,9.27Z"/><path class="cls-3" d="M597.72,177.39c.11-4.67,1.06-7.52,1.6-7.83a.68.68,0,0,1,.25.31,3.64,3.64,0,0,1,.8-1.22,1.27,1.27,0,0,0-1-.53c-2.21,0-2.92,5.51-3,9.27Z"/><path class="cls-3" d="M599.31,186.74c-.56-.32-1.52-3.27-1.6-8.08h-1.4c.06,3.76.73,9.52,3,9.52a1.4,1.4,0,0,0,1-.49,4.14,4.14,0,0,1-.8-1.23A1,1,0,0,1,599.31,186.74Z"/><path class="cls-3" d="M599.79,177.39c.11-4.67,1.06-7.52,1.6-7.83a.68.68,0,0,1,.25.31,3.64,3.64,0,0,1,.8-1.22,1.34,1.34,0,0,0-1-.53c-2.22,0-2.92,5.51-3,9.27Z"/><path class="cls-3" d="M601.38,186.74c-.56-.32-1.51-3.27-1.6-8.08h-1.4c.06,3.76.73,9.52,3,9.52a1.37,1.37,0,0,0,1-.49,4.73,4.73,0,0,1-.8-1.23A1.1,1.1,0,0,1,601.38,186.74Z"/><path class="cls-3" d="M601.85,177.39c.1-4.67,1.06-7.55,1.6-7.87a.64.64,0,0,1,.24.32,3.84,3.84,0,0,1,.8-1.23,1.37,1.37,0,0,0-1-.49c-2.21,0-2.92,5.51-3,9.27Z"/><path class="cls-3" d="M603.45,186.74c-.57-.32-1.51-3.27-1.6-8.08h-1.41c.07,3.76.75,9.52,3,9.52a1.37,1.37,0,0,0,1-.49,4.73,4.73,0,0,1-.8-1.23A.51.51,0,0,1,603.45,186.74Z"/><path class="cls-3" d="M603.89,177.39c.1-4.67,1.06-7.52,1.6-7.83a.66.66,0,0,1,.24.31,3.64,3.64,0,0,1,.8-1.22,1.31,1.31,0,0,0-1-.53c-2.21,0-2.92,5.51-3,9.27Z"/><path class="cls-3" d="M605.49,186.74c-.56-.32-1.51-3.27-1.6-8.08h-1.41c0,3.76.74,9.52,3,9.52a1.39,1.39,0,0,0,1-.49,4.57,4.57,0,0,1-.8-1.23A.63.63,0,0,1,605.49,186.74Z"/><path class="cls-3" d="M606,177.39c.07-4.67,1-7.55,1.6-7.87a.7.7,0,0,1,.24.32,3.68,3.68,0,0,1,.8-1.23,1.44,1.44,0,0,0-1-.49c-2.21,0-2.92,5.51-3,9.27Z"/><path class="cls-3" d="M607.56,186.74c-.56-.32-1.51-3.27-1.6-8.08h-1.4c.07,3.76.74,9.52,3,9.52a1.36,1.36,0,0,0,1-.49,4.73,4.73,0,0,1-.8-1.23A1.1,1.1,0,0,1,607.56,186.74Z"/><path class="cls-3" d="M608,177.39c.1-4.67,1.05-7.52,1.6-7.83a.59.59,0,0,1,.25.31,3.64,3.64,0,0,1,.8-1.22,1.3,1.3,0,0,0-1-.53c-2.21,0-2.91,5.51-3,9.27Z"/><path class="cls-3" d="M609.59,186.74c-.56-.32-1.5-3.27-1.6-8.08h-1.34c.07,3.76.74,9.52,3,9.52a1.41,1.41,0,0,0,1-.49,4.73,4.73,0,0,1-.8-1.23C609.77,186.59,609.71,186.71,609.59,186.74Z"/><path class="cls-3" d="M610.09,177.39c.1-4.67,1-7.55,1.6-7.87.56.32,1.47,3.2,1.6,7.84h1.42c-.07-3.73-.8-9.24-3-9.24s-2.91,5.51-3,9.27Z"/><path class="cls-3" d="M613.25,178.66c-.07,4.8-1,7.76-1.6,8.08-.57-.32-1.51-3.27-1.6-8.08h-1.38c.07,3.76.73,9.52,3,9.52s2.94-5.76,3-9.52Z"/><g class="cls-9"><text class="cls-10" transform="translate(581.27 201.8)">Hot </text><text class="cls-14" transform="translate(597.99 201.8)">R</text><text class="cls-10" transform="translate(603.23 201.8)">olled</text><text class="cls-10" transform="translate(583.72 213.31)">Wi</text><text class="cls-15" transform="translate(594.78 213.31)">r</text><text class="cls-10" transform="translate(598.08 213.31)">e </text><text class="cls-14" transform="translate(605.09 213.31)">R</text><text class="cls-10" transform="translate(610.32 213.31)">od</text></g><path class="cls-3" d="M329.16,282h-20a3.2,3.2,0,0,1-3.2-3.2V262.35h1.6v16.44a1.63,1.63,0,0,0,1.6,1.64h20a1.63,1.63,0,0,0,1.64-1.64h0V262.35h1.56v16.44a3.2,3.2,0,0,1-3.2,3.2Z"/><rect class="cls-3" x="305.96" y="266.01" width="26.4" height="1.64"/><path class="cls-3" d="M329.16,282h-20a3.2,3.2,0,0,1-3.2-3.2V262.35h1.6v16.48a1.63,1.63,0,0,0,1.6,1.64h20a1.63,1.63,0,0,0,1.64-1.64h0V262.35h1.56v16.48A3.27,3.27,0,0,1,329.16,282Z"/><rect class="cls-3" x="305.92" y="266.01" width="26.4" height="1.64"/><path class="cls-3" d="M320.89,275.64a3,3,0,0,1,5.79,0h1.2a4.15,4.15,0,0,0-8.21,0Z"/><path class="cls-3" d="M326.71,276.59a2.95,2.95,0,0,1-5.85,0h-1.2a4.14,4.14,0,0,0,8.26,0Z"/><text class="cls-4" transform="translate(303.43 296.47)">Pickling</text><path id="_矩形_" data-name=" 矩形 " class="cls-3" d="M593.14,282.35h14.52a.33.33,0,0,1,.32.31h0v.08a.32.32,0,0,1-.31.32H593.14a.31.31,0,0,1-.32-.31h0v-.09a.3.3,0,0,1,.3-.31h0Z"/><path id="_矩形_2" data-name=" 矩形 2" class="cls-3" d="M592.18,281.19h16.07a.32.32,0,0,1,.32.31h0v.08a.31.31,0,0,1-.31.32H592.18a.3.3,0,0,1-.32-.31h0v-.11a.29.29,0,0,1,.29-.29h0Z"/><path id="_矩形_3" data-name=" 矩形 3" class="cls-3" d="M593.14,280h15.11a.32.32,0,0,1,.32.31h0v.08a.31.31,0,0,1-.31.32H593.14a.35.35,0,0,1-.32-.36v-.08a.29.29,0,0,1,.29-.28h0Z"/><path id="_矩形_4" data-name=" 矩形 4" class="cls-3" d="M592.5,278.79h15.12a.33.33,0,0,1,.32.31h0v.08a.32.32,0,0,1-.31.32H592.5a.3.3,0,0,1-.32-.31h0v-.07C592.25,279,592.34,278.79,592.5,278.79Z"/><path id="_矩形_5" data-name=" 矩形 5" class="cls-3" d="M592.5,277.63h16.24a.33.33,0,0,1,.32.31h0V278a.32.32,0,0,1-.31.32H592.5a.31.31,0,0,1-.32-.31h0V278C592.25,277.75,592.34,277.63,592.5,277.63Z"/><path id="_矩形_6" data-name=" 矩形 6" class="cls-3" d="M591.45,276.43H609a.32.32,0,0,1,.32.31h0v.08a.31.31,0,0,1-.31.32H591.45a.31.31,0,0,1-.32-.31h0v-.09a.3.3,0,0,1,.3-.31h0Z"/><path id="_矩形_7" data-name=" 矩形 7" class="cls-3" d="M592.25,269.35h16.4a.32.32,0,0,1,.32.31h0v.08a.31.31,0,0,1-.31.32H592.25a.31.31,0,0,1-.32-.31h0v-.09a.3.3,0,0,1,.3-.31h0Z"/><path id="_矩形_8" data-name=" 矩形 8" class="cls-3" d="M591.1,270.51h18.56a.33.33,0,0,1,.32.31h0v.08a.32.32,0,0,1-.31.32H591.1a.3.3,0,0,1-.32-.31h0v-.09A.34.34,0,0,1,591.1,270.51Z"/><path id="_矩形_9" data-name=" 矩形 9" class="cls-3" d="M591.45,271.71h18a.32.32,0,0,1,.32.31h0v.08a.31.31,0,0,1-.31.32h-18a.31.31,0,0,1-.32-.31h0V272a.28.28,0,0,1,.25-.31h.07Z"/><path id="_矩形_10" data-name=" 矩形 10" class="cls-3" d="M590.78,272.91h19.44a.33.33,0,0,1,.32.31h0v.08a.32.32,0,0,1-.31.32H590.78a.3.3,0,0,1-.32-.31h0v-.09a.3.3,0,0,1,.3-.31h0Z"/><path id="_矩形_11" data-name=" 矩形 11" class="cls-3" d="M591,274.07h18.16a.33.33,0,0,1,.32.31h0v.08a.32.32,0,0,1-.31.32H591a.3.3,0,0,1-.32-.31h0v-.09A.34.34,0,0,1,591,274.07Z"/><path id="_矩形_12" data-name=" 矩形 12" class="cls-3" d="M589.9,275.27h19.76a.33.33,0,0,1,.32.31h0v.08a.32.32,0,0,1-.31.32H589.9a.3.3,0,0,1-.32-.31h0v-.09a.3.3,0,0,1,.3-.31h0Z"/><path id="_矩形_13" data-name=" 矩形 13" class="cls-3" d="M591.74,268.15h15.8a.33.33,0,0,1,.32.31h0v.08a.32.32,0,0,1-.31.32H591.74a.31.31,0,0,1-.32-.31h0v-.09a.3.3,0,0,1,.3-.31h0Z"/><path id="_矩形_14" data-name=" 矩形 14" class="cls-3" d="M592.58,267h15a.33.33,0,0,1,.32.31h0v.08a.32.32,0,0,1-.31.32h-15a.3.3,0,0,1-.32-.31h0v-.09a.27.27,0,0,1,.25-.31h.07Z"/><path id="_矩形_15" data-name=" 矩形 15" class="cls-3" d="M593.05,265.79h14.88a.32.32,0,0,1,.32.31h0v.08a.31.31,0,0,1-.31.32H593.05a.36.36,0,0,1-.32-.36v0a.3.3,0,0,1,.3-.31h0Z"/><path id="_矩形_16" data-name=" 矩形 16" class="cls-3" d="M592.58,264.63h15a.33.33,0,0,1,.32.31h0V265a.32.32,0,0,1-.31.32h-15a.31.31,0,0,1-.32-.31h0v-.13a.29.29,0,0,1,.29-.28h0Z"/><path id="_矩形_17" data-name=" 矩形 17" class="cls-3" d="M592.82,263.43h14.52a.33.33,0,0,1,.32.31h0v.08a.32.32,0,0,1-.31.32H592.82a.31.31,0,0,1-.32-.31h0v-.09a.3.3,0,0,1,.3-.31h0Z"/><g class="cls-9"><text class="cls-10" transform="translate(588.03 297.36)">Spring</text><text class="cls-10" transform="translate(591.02 308.88)">Wi</text><text class="cls-15" transform="translate(602.07 308.88)">r</text><text class="cls-10" transform="translate(605.38 308.88)">e</text></g><path id="_矩形_2-2" data-name=" 矩形 2-2" class="cls-3" d="M311.77,376.07h14.52a.34.34,0,0,1,.32.32h0v.08a.31.31,0,0,1-.31.32H311.77a.31.31,0,0,1-.32-.3h0v-.09a.3.3,0,0,1,.3-.31h0Z"/><path id="_矩形_2-3" data-name=" 矩形 2-3" class="cls-3" d="M310.81,374.91h16a.34.34,0,0,1,.32.32h0v.08a.31.31,0,0,1-.31.32H310.81a.31.31,0,0,1-.32-.3h0v-.13a.28.28,0,0,1,.27-.28h.05Z"/><path id="_矩形_3-2" data-name=" 矩形 3-2" class="cls-3" d="M311.77,373.71h15.08a.34.34,0,0,1,.32.32h0v.08a.31.31,0,0,1-.31.32H311.77a.34.34,0,0,1-.32-.36V374a.28.28,0,0,1,.27-.28h0Z"/><path id="_矩形_4-2" data-name=" 矩形 4-2" class="cls-3" d="M311.13,372.51h15.12a.34.34,0,0,1,.32.32h0v.08a.31.31,0,0,1-.31.32H311.13a.31.31,0,0,1-.32-.3h0v-.07C310.85,372.69,311,372.51,311.13,372.51Z"/><path id="_矩形_5-2" data-name=" 矩形 5-2" class="cls-3" d="M311.13,371.35h16.24a.34.34,0,0,1,.32.32h0v.08a.31.31,0,0,1-.31.32H311.13a.31.31,0,0,1-.32-.3h0v-.09C310.85,371.47,311,371.35,311.13,371.35Z"/><path id="_矩形_6-2" data-name=" 矩形 6-2" class="cls-3" d="M310.05,370.15h17.56a.34.34,0,0,1,.32.32h0v.08a.31.31,0,0,1-.31.32H310a.31.31,0,0,1-.32-.3h0v-.09a.3.3,0,0,1,.3-.31h.05Z"/><path id="_矩形_7-2" data-name=" 矩形 7-2" class="cls-3" d="M310.85,363.09h16.4a.33.33,0,0,1,.32.31h0v.09a.32.32,0,0,1-.31.32h-16.4a.31.31,0,0,1-.32-.3h0v-.09a.31.31,0,0,1,.3-.32Z"/><path id="_矩形_8-2" data-name=" 矩形 8-2" class="cls-3" d="M309.73,364.23h18.56a.34.34,0,0,1,.32.32h0v.08a.31.31,0,0,1-.31.32H309.73a.31.31,0,0,1-.32-.3h0v-.09A.34.34,0,0,1,309.73,364.23Z"/><path id="_矩形_9-2" data-name=" 矩形 9-2" class="cls-3" d="M310.05,365.43h18a.34.34,0,0,1,.32.32h0v.08a.31.31,0,0,1-.31.32H310.05a.31.31,0,0,1-.32-.3h0v-.09a.3.3,0,0,1,.26-.32Z"/><path id="_矩形_10-2" data-name=" 矩形 10-2" class="cls-3" d="M309.41,366.63h19.44a.34.34,0,0,1,.32.32h0V367a.31.31,0,0,1-.31.32H309.41a.31.31,0,0,1-.32-.3h0V367a.3.3,0,0,1,.3-.31h0Z"/><path id="_矩形_11-2" data-name=" 矩形 11-2" class="cls-3" d="M309.61,367.79h18.16a.34.34,0,0,1,.32.32h0v.08a.31.31,0,0,1-.31.32H309.61a.31.31,0,0,1-.32-.3h0v-.09A.34.34,0,0,1,309.61,367.79Z"/><path id="_矩形_12-2" data-name=" 矩形 12-2" class="cls-3" d="M308.53,369h19.76a.34.34,0,0,1,.32.32h0v.08a.31.31,0,0,1-.31.32H308.53a.31.31,0,0,1-.32-.3h0v-.09a.3.3,0,0,1,.3-.31h0Z"/><path id="_矩形_13-2" data-name=" 矩形 13-2" class="cls-3" d="M310.37,361.87h15.8a.34.34,0,0,1,.32.32h0v.1a.32.32,0,0,1-.31.32H310.37a.31.31,0,0,1-.32-.3h0v-.09a.32.32,0,0,1,.3-.32h0Z"/><path id="_矩形_14-2" data-name=" 矩形 14-2" class="cls-3" d="M311.21,360.69h15a.33.33,0,0,1,.32.31h0v.09a.32.32,0,0,1-.31.32h-15a.31.31,0,0,1-.32-.3h0V361a.3.3,0,0,1,.26-.32Z"/><path id="_矩形_15-2" data-name=" 矩形 15-2" class="cls-3" d="M311.65,359.51h14.88a.34.34,0,0,1,.32.32h0v.06a.32.32,0,0,1-.31.32H311.65a.34.34,0,0,1-.32-.36v0a.32.32,0,0,1,.3-.32h0Z"/><path id="_矩形_16-2" data-name=" 矩形 16-2" class="cls-3" d="M311.21,358.35h15a.34.34,0,0,1,.32.32h0v.08a.31.31,0,0,1-.31.32h-15a.31.31,0,0,1-.32-.3h0v-.13a.28.28,0,0,1,.27-.28h0Z"/><path id="_矩形_17-2" data-name=" 矩形 17-2" class="cls-3" d="M311.45,357.15H326a.34.34,0,0,1,.32.32h0v.08a.31.31,0,0,1-.31.32H311.45a.31.31,0,0,1-.32-.3h0v-.07a.32.32,0,0,1,.3-.32h0Z"/><g class="cls-9"><text class="cls-10" transform="translate(311.35 391.08)">Soft</text><text class="cls-10" transform="translate(309.65 402.6)">Wi</text><text class="cls-13" transform="translate(320.71 402.6)">r</text><text class="cls-10" transform="translate(324.01 402.6)">e</text></g></svg>