<svg id="图层_1" data-name="图层 1" xmlns="http://www.w3.org/2000/svg" viewBox="0 0 850.4 566.9"><defs><style>.cls-1{fill:#fff;}.cls-2,.cls-5,.cls-7{fill:none;}.cls-2,.cls-5,.cls-6,.cls-7{stroke:#eee;}.cls-2,.cls-5,.cls-6{stroke-miterlimit:10;}.cls-22,.cls-23,.cls-24,.cls-3,.cls-4,.cls-6,.cls-8,.cls-9{fill:#eee;}.cls-22,.cls-23,.cls-24,.cls-4{isolation:isolate;}.cls-4{font-size:9.6px;}.cls-22,.cls-23,.cls-24,.cls-4,.cls-9{font-family:Calibri-Bold, Calibri;font-weight:700;}.cls-5,.cls-7{stroke-linecap:round;stroke-width:1.6px;}.cls-6{stroke-width:0.89px;}.cls-7{stroke-linejoin:round;}.cls-8{fill-rule:evenodd;}.cls-9{font-size:9.6px;}.cls-10{letter-spacing:-0.01em;}.cls-11{letter-spacing:-0.02em;}.cls-12{letter-spacing:-0.01em;}.cls-13{letter-spacing:-0.01em;}.cls-14{letter-spacing:0em;}.cls-15{letter-spacing:-0.01em;}.cls-16{letter-spacing:0em;}.cls-17{letter-spacing:-0.02em;}.cls-18{letter-spacing:0em;}.cls-19{letter-spacing:-0.02em;}.cls-20{letter-spacing:-0.01em;}.cls-21{letter-spacing:-0.02em;}.cls-22,.cls-23,.cls-24{font-size:6.4px;}.cls-22{letter-spacing:-0.01em;}.cls-24{letter-spacing:-0.02em;}</style></defs><rect class="cls-1" width="850.4" height="566.9"/><line class="cls-2" x1="850.4" y1="46.7" y2="46.7"/><line class="cls-2" x1="850.4" y1="165.1" y2="165.1"/><line class="cls-2" x1="850.4" y1="283.5" y2="283.5"/><line class="cls-2" x1="850.4" y1="401.9" y2="401.9"/><line class="cls-2" x1="850.4" y1="105.9" y2="105.9"/><line class="cls-2" x1="850.4" y1="224.3" y2="224.3"/><line class="cls-2" x1="850.4" y1="342.7" y2="342.7"/><line class="cls-2" x1="850.4" y1="461" y2="461"/><line class="cls-2" x1="850.4" y1="520.2" y2="520.2"/><line class="cls-2" x1="850.4" y1="135.5" y2="135.5"/><line class="cls-2" x1="850.4" y1="253.9" y2="253.9"/><line class="cls-2" x1="850.4" y1="372.3" y2="372.3"/><line class="cls-2" x1="850.4" y1="76.3" y2="76.3"/><line class="cls-2" x1="850.4" y1="17.1" y2="17.1"/><line class="cls-2" x1="850.4" y1="194.7" y2="194.7"/><line class="cls-2" x1="850.4" y1="313.1" y2="313.1"/><line class="cls-2" x1="850.4" y1="431.4" y2="431.4"/><line class="cls-2" x1="850.4" y1="490.6" y2="490.6"/><line class="cls-2" x1="850.4" y1="549.8" y2="549.8"/><line class="cls-2" x1="10.8" x2="10.8" y2="566.9"/><line class="cls-2" x1="129.2" x2="129.2" y2="566.9"/><line class="cls-2" x1="247.6" x2="247.6" y2="566.9"/><line class="cls-2" x1="366" x2="366" y2="566.9"/><line class="cls-2" x1="484.4" x2="484.4" y2="566.9"/><line class="cls-2" x1="602.8" x2="602.8" y2="566.9"/><line class="cls-2" x1="839.5" x2="839.5" y2="566.9"/><line class="cls-2" x1="721.2" x2="721.2" y2="566.9"/><line class="cls-2" x1="70" x2="70" y2="566.9"/><line class="cls-2" x1="188.4" x2="188.4" y2="566.9"/><line class="cls-2" x1="306.8" x2="306.8" y2="566.9"/><line class="cls-2" x1="425.2" x2="425.2" y2="566.9"/><line class="cls-2" x1="543.6" x2="543.6" y2="566.9"/><line class="cls-2" x1="662" x2="662" y2="566.9"/><line class="cls-2" x1="780.4" x2="780.4" y2="566.9"/><line class="cls-2" x1="810" x2="810" y2="566.9"/><line class="cls-2" x1="99.6" x2="99.6" y2="566.9"/><line class="cls-2" x1="218" x2="218" y2="566.9"/><line class="cls-2" x1="336.4" x2="336.4" y2="566.9"/><line class="cls-2" x1="454.8" x2="454.8" y2="566.9"/><line class="cls-2" x1="573.2" x2="573.2" y2="566.9"/><line class="cls-2" x1="691.6" x2="691.6" y2="566.9"/><line class="cls-2" x1="40.4" x2="40.4" y2="566.9"/><line class="cls-2" x1="158.8" x2="158.8" y2="566.9"/><line class="cls-2" x1="277.2" x2="277.2" y2="566.9"/><line class="cls-2" x1="395.6" x2="395.6" y2="566.9"/><line class="cls-2" x1="514" x2="514" y2="566.9"/><line class="cls-2" x1="632.4" x2="632.4" y2="566.9"/><line class="cls-2" x1="750.8" x2="750.8" y2="566.9"/><path class="cls-3" d="M328.53,377.06l-3.4-23.3a2.66,2.66,0,0,0-2.5-2.2h-7.8a2.59,2.59,0,0,0-2.5,2.2l-3.4,23.3A2.57,2.57,0,0,0,311,380h15.1a2.54,2.54,0,0,0,2.6-2.5h0C328.43,377.36,328.43,377.36,328.53,377.06Zm-14.3-22.9a.47.47,0,0,1,.5-.4h7.8c.2,0,.5.2.5.4l1.8,11.7h-12.2Z"/><text class="cls-4" transform="translate(302.54 391.08)">Anal</text><text class="cls-4" transform="translate(320.6 391.08)">y</text><text class="cls-4" transform="translate(325.19 391.08)">tic</text><path class="cls-3" d="M460,356.86h-9.9v12.3h14v-12.3Zm-2.3,1.7a.7.7,0,1,1-.7-.7C457.43,358,457.73,358.16,457.73,358.56Zm-4.9,0a.7.7,0,1,1-.7-.7h0a1,1,0,0,1,.7.7Zm1.2-.7h1v4.2h-1Zm-2.7,9.4a.7.7,0,1,1,.7.7h0A.84.84,0,0,1,451.33,367.26Zm2.7.6v-4.1h1v4.1Zm2.2-.6a.7.7,0,1,1,.7.7.84.84,0,0,1-.7-.7Zm5,0a.7.7,0,1,1,.7.7h0A.84.84,0,0,1,461.23,367.26Zm-1.2.6h-1v-4.1h1Zm-1-5.7V358h1v4.2Zm3.6-3.6a.7.7,0,1,1-.7-.7h0a.68.68,0,0,1,.7.64v.06Z"/><circle class="cls-3" cx="450.43" cy="373.46" r="1.8"/><path class="cls-3" d="M450.43,372a1.43,1.43,0,0,0-1.4,1.4v.1h2.8A1.54,1.54,0,0,0,450.43,372Z"/><path class="cls-3" d="M444.73,369.66v3.8h3.4a2.3,2.3,0,1,1,4.6-.2v.2h12.4v-3.8Z"/><circle class="cls-3" cx="472.03" cy="373.46" r="1.8"/><path class="cls-3" d="M472,372a1.43,1.43,0,0,0-1.4,1.4v.1h2.8A1.54,1.54,0,0,0,472,372Z"/><path class="cls-3" d="M473.53,361.36h-7.4v12.1h3.7a2.3,2.3,0,1,1,4.6-.2v.2h3.7v-5.4Z"/><text class="cls-4" transform="translate(441.08 391.08)">P</text><text class="cls-4" transform="translate(446 391.08)">acking &amp;</text><text class="cls-4" transform="translate(443.64 402.6)">Shipping</text><polygon class="cls-3" points="391.6 369.06 389.2 371.36 388.8 370.16 388.8 370.16 387.4 366.26 374 372.16 388.8 361.36 389.4 362.66 390.2 365.06 390.8 366.96 397.9 363.46 391.6 369.06"/><path class="cls-3" d="M383.5,363.06a9.51,9.51,0,0,1,5.9-7,9.23,9.23,0,0,1,9.6,2.2,12.32,12.32,0,0,0-22,9.4Z"/><path class="cls-3" d="M395.5,373.36a9.12,9.12,0,0,1-6.1,0l-1,.9-.6-1.5a9,9,0,0,1-3.4-3.3l-6.1,2.7a12.25,12.25,0,0,0,14.9,5.4,12.46,12.46,0,0,0,8.2-12.1A9,9,0,0,1,395.5,373.36Z"/><circle class="cls-3" cx="400.7" cy="361.76" r="1.6"/><text class="cls-4" transform="translate(372.92 391.08)">Marking</text><line class="cls-5" x1="277" y1="180.66" x2="286.1" y2="180.66"/><polygon class="cls-6" points="285.3 183.06 289.4 180.66 285.3 178.26 285.3 183.06"/><line class="cls-5" x1="348.2" y1="180.66" x2="357.1" y2="180.66"/><polygon class="cls-6" points="356.5 183.06 360.6 180.66 356.5 178.26 356.5 183.06"/><line class="cls-5" x1="419.4" y1="180.66" x2="428.2" y2="180.66"/><polygon class="cls-6" points="427.5 183.06 431.8 180.66 427.5 178.26 427.5 183.06"/><line class="cls-5" x1="490.5" y1="180.66" x2="499.4" y2="180.66"/><polygon class="cls-6" points="498.7 183.06 502.9 180.66 498.7 178.26 498.7 183.06"/><line class="cls-5" x1="561.5" y1="180.66" x2="570.6" y2="180.66"/><polygon class="cls-6" points="569.8 183.06 573.9 180.66 569.8 178.26 569.8 183.06"/><line class="cls-5" x1="277" y1="275.36" x2="286.1" y2="275.36"/><polygon class="cls-6" points="285.3 277.76 289.4 275.36 285.3 272.96 285.3 277.76"/><line class="cls-5" x1="348.2" y1="275.36" x2="357.1" y2="275.36"/><polygon class="cls-6" points="356.5 277.76 360.6 275.36 356.5 272.96 356.5 277.76"/><line class="cls-5" x1="419.4" y1="275.36" x2="498.7" y2="275.36"/><line class="cls-5" x1="490.5" y1="275.36" x2="499.4" y2="275.36"/><polygon class="cls-6" points="498.7 277.76 502.9 275.36 498.7 272.96 498.7 277.76"/><polygon class="cls-6" points="419.4 272.96 415.2 275.36 419.4 277.76 419.4 272.96"/><line class="cls-5" x1="277" y1="370.16" x2="286.1" y2="370.16"/><polygon class="cls-6" points="285.3 372.56 289.4 370.16 285.3 367.76 285.3 372.56"/><line class="cls-5" x1="348.2" y1="370.16" x2="357.1" y2="370.16"/><polygon class="cls-6" points="356.5 372.56 360.6 370.16 356.5 367.76 356.5 372.56"/><line class="cls-5" x1="419.4" y1="370.16" x2="428.2" y2="370.16"/><polygon class="cls-6" points="427.5 372.56 431.8 370.16 427.5 367.76 427.5 372.56"/><path class="cls-7" d="M632,181.36h13.5a4.6,4.6,0,0,1,4.6,4.58h0v43.9a4.6,4.6,0,0,1-4.58,4.6H205a4.6,4.6,0,0,0-4.6,4.58h0v32a4.58,4.58,0,0,0,4.58,4.6h10"/><polygon class="cls-6" points="214.2 278.06 218.4 275.66 214.2 273.26 214.2 278.06"/><line class="cls-5" x1="561.5" y1="275.36" x2="570.6" y2="275.36"/><polygon class="cls-6" points="569.8 277.76 573.9 275.36 569.8 272.96 569.8 277.76"/><path class="cls-3" d="M258.7,169.16a3,3,0,0,0-3,3v12.9a1.42,1.42,0,0,1-1.4,1.4H240.9a1.42,1.42,0,0,1-1.4-1.4v-12.8a3,3,0,0,0-3-3h-5.3V171h5.3a1.44,1.44,0,0,1,1.4,1.4v12.9a3,3,0,0,0,3,3h13.4a3,3,0,0,0,3-3v-13a1.44,1.44,0,0,1,1.4-1.4h5.4v-1.7Z"/><path class="cls-3" d="M240.5,185.06a.54.54,0,0,0,.5.5h13.4a.54.54,0,0,0,.5-.5h0v-10.4c-1.4-.1-3.7-.3-4.6-.3-1.5,0-4.8.8-6,.2-.7-.4-2.4-.3-3.7-.2v10.7Z"/><path class="cls-3" d="M243.5,172.56h-.2a.57.57,0,0,1-.4-.7h0a5.71,5.71,0,0,0,0-2.6,6.53,6.53,0,0,1,0-3.4c.2-.3.5-.5.8-.3a.81.81,0,0,1,.4.6h0a6.61,6.61,0,0,0,0,2.8,6.16,6.16,0,0,1,0,3.3A.61.61,0,0,1,243.5,172.56Z"/><path class="cls-3" d="M247.6,172.56h-.2a.57.57,0,0,1-.4-.7h0a5.71,5.71,0,0,0,0-2.6,6.53,6.53,0,0,1,0-3.4c.2-.3.5-.5.8-.3a.81.81,0,0,1,.4.6,6.61,6.61,0,0,0,0,2.8,6.16,6.16,0,0,1,0,3.3A.69.69,0,0,1,247.6,172.56Z"/><path class="cls-3" d="M251.8,172.56h-.2a.57.57,0,0,1-.4-.7h0a5.71,5.71,0,0,0,0-2.6,10.28,10.28,0,0,1,0-3.5.57.57,0,1,1,1.1.3h0a7.08,7.08,0,0,0,0,2.9,6.16,6.16,0,0,1,0,3.3A.44.44,0,0,1,251.8,172.56Z"/><text class="cls-4" transform="translate(237.75 201.79)">S</text><text class="cls-4" transform="translate(242.29 201.79)">t</text><text class="cls-4" transform="translate(245.5 201.79)">eel</text><text class="cls-4" transform="translate(232.74 213.31)">Making</text><path class="cls-7" d="M632,275.36h13.5a4.6,4.6,0,0,1,4.6,4.58h0v43.9a4.6,4.6,0,0,1-4.58,4.6H205a4.6,4.6,0,0,0-4.6,4.58h0v32a4.58,4.58,0,0,0,4.58,4.6h10"/><polygon class="cls-6" points="214.2 372.16 218.4 369.76 214.2 367.36 214.2 372.16"/><line class="cls-5" x1="561.5" y1="275.36" x2="570.6" y2="275.36"/><path class="cls-3" d="M256.26,376.93l-5.32-8.47a8.58,8.58,0,1,0-1.81,1.12l5.32,8.49a1.05,1.05,0,0,0,.91.49.94.94,0,0,0,.56-.16,1.07,1.07,0,0,0,.34-1.47Zm-12.08-8.85a6.4,6.4,0,1,1,7.64-4.85h0a6.38,6.38,0,0,1-7.6,4.86Z"/><text class="cls-4" transform="translate(226.9 391.08)">Inspection</text><path class="cls-8" d="M460.53,192.26c-1.37-4.34-8.76-6.15-10.06-9.87-.62-2.36-.56-5.1.62-6.9,0,2.36,1.67,5.66,3.23,4s-3-2.11-2.36-5.59c.12-1.62,1.49-2.49,2.05-6.15,1.55,1.55-.87,4.1,2.79,5.59-4.41-5.34,3.41-7.27,2.8-12.42,5.84,5.77.12,9.32,3.29,10.81,1.18.49,2.86-2.67,1.74-5.28,3.48,3,3.11,6.21,1.3,8.75-.68.94.07,2.92.93,3.55-.31-1.87,1.31-2.8,1.75-4.6,3.22,3.6,4.41,8-.94,11.61A28.49,28.49,0,0,0,460.53,192.26Z"/><text class="cls-9" transform="translate(445.28 201.79)">He<tspan class="cls-10" x="10.89" y="0">a</tspan><tspan x="15.54" y="0">ting</tspan></text><path class="cls-8" d="M247.45,287c-1.37-4.35-8.75-6.16-10.06-9.88-.62-2.36-.56-5.09.62-6.9,0,2.37,1.68,5.66,3.23,4s-3-2.11-2.36-5.59c.13-1.61,1.49-2.49,2.05-6.15,1.55,1.55-.87,4.1,2.8,5.59-4.41-5.34,3.4-7.27,2.79-12.42,5.84,5.77.12,9.32,3.29,10.81,1.18.49,2.86-2.67,1.74-5.28,3.48,3,3.11,6.21,1.31,8.75-.69.94.06,2.93.93,3.55-.31-1.87,1.3-2.8,1.74-4.6,3.23,3.6,4.41,8-.93,11.61A28.38,28.38,0,0,0,247.45,287Z"/><text class="cls-9" transform="translate(227.58 296.47)">Annealing</text><polygon class="cls-3" points="391.87 268.81 389.45 266.74 374.76 266.74 374.76 276.42 389.45 276.42 391.87 274.35 404.25 274.35 404.25 268.81 391.87 268.81"/><circle class="cls-3" cx="393.8" cy="264.38" r="3.8"/><circle class="cls-3" cx="393.8" cy="278.78" r="3.8"/><text class="cls-9" transform="translate(380.65 296.47)">Cold<tspan x="-7.69" y="11.52">D</tspan><tspan class="cls-11" x="-1.64" y="11.52">r</tspan><tspan class="cls-12" x="1.56" y="11.52">a</tspan><tspan x="6.23" y="11.52">wing</tspan></text><path class="cls-3" d="M545,269.15c-15.84,0-16.72-.92-16.76-16.76h0c0,15.84-.92,16.72-16.76,16.76h0c15.84,0,16.72.92,16.76,16.76h0C528.23,270.07,529.11,269.19,545,269.15Z"/><path class="cls-8" d="M530.34,264.88a5.55,5.55,0,0,0,3.82,2.77c.34-1.66,1-4-2.12-7.14C532.25,262.29,531.32,263.63,530.34,264.88Z"/><path class="cls-8" d="M538.4,276.12c-.76-.54-1.41-2.29-.8-3.1a6,6,0,0,0,1.16-2.93c-8.76.45-9.66,2.66-9.76,13.7,1.71,1.16,3.32,2.42,3.86,4.14a24.75,24.75,0,0,1,6.25-5.66c4.68-3.16,3.65-7,.8-10.18C539.55,273.67,538.13,274.49,538.4,276.12Z"/><path class="cls-8" d="M536.63,268.09c.58.06,1.2.11,1.9.15a6.57,6.57,0,0,0-2.09-2.89A4.36,4.36,0,0,1,536.63,268.09Z"/><path class="cls-8" d="M527.05,277.05c-1.25.62-2.46-1.93-2.46-3.81-1,1.57-1.09,4-.55,6,.47,1.33,1.81,2.38,3.33,3.41A50.46,50.46,0,0,0,527.05,277.05Z"/><path class="cls-8" d="M533.62,269.15a7.54,7.54,0,0,1-3.54-1.89,6.23,6.23,0,0,1-.8-1c-1,1.44-1.46,3,.31,5.09-3.2-1.3-1.09-3.54-2.45-4.9a12.31,12.31,0,0,1-1.39,4.09,5.17,5.17,0,0,1,.55.5,7.42,7.42,0,0,1,1.89,3.53A6.91,6.91,0,0,1,533.62,269.15Z"/><text class="cls-9" transform="translate(519.65 296.47)">Brig<tspan class="cls-10" x="15.7" y="0">h</tspan><tspan x="20.77" y="0">t</tspan><tspan x="-8.01" y="11.52">Annealing</tspan></text><path class="cls-3" d="M314.28,169.33l-2.45,3.84a1.44,1.44,0,0,1-2,.45h0l-3.33-2.12a1.44,1.44,0,0,1-.46-2h0l4-6.2a.36.36,0,0,0-.11-.5h0l-.34-.22a.36.36,0,0,0-.5.11l-4,6.26a2.54,2.54,0,0,0,.8,3.52l3.45,2.21a2.56,2.56,0,0,0,3.52-.8h0l2.34-3.67a3.6,3.6,0,0,1,3.7-1.6l.05-.09-.76-.48a2.79,2.79,0,0,0-2.16-.12A3.35,3.35,0,0,0,314.28,169.33Z"/><path class="cls-3" d="M318.9,167.41a2,2,0,0,0-.45-.25,5.49,5.49,0,0,0-2.22-.46H315s-1.45,0-2.32,0h-2.72a9.09,9.09,0,0,0-1.65,0l-1.91,3a1.07,1.07,0,0,0,.33,1.48L310,173.3a1.07,1.07,0,0,0,1.48-.33l2.45-3.84a3.7,3.7,0,0,1,1.9-1.54,3.09,3.09,0,0,1,2.44.13l0,0a4,4,0,0,1,1.2,1.2c2,3.14,3.6,10.15,3.6,10.15h4C324.09,170.58,318.9,167.41,318.9,167.41Z"/><path class="cls-3" d="M329.17,190.1h-8.8a3,3,0,0,1-3-2.95V171.31a.72.72,0,0,1,1.43,0h0v15.84a1.53,1.53,0,0,0,1.53,1.53h8.8a1.53,1.53,0,0,0,1.52-1.53V171.31a.71.71,0,0,1,1.42-.1.17.17,0,0,1,0,.1v15.84A3,3,0,0,1,329.17,190.1Z"/><path class="cls-3" d="M319.35,178.87h10.84v8a1.26,1.26,0,0,1-1.27,1.26h-8.3a1.26,1.26,0,0,1-1.27-1.26h0Z"/><text class="cls-9" transform="translate(308.06 201.79)">In<tspan class="cls-13" x="7.71" y="0">g</tspan><tspan class="cls-14" x="12.17" y="0">ot</tspan><tspan x="-4.1" y="11.52">Ca</tspan><tspan class="cls-15" x="5.72" y="11.52">s</tspan><tspan class="cls-16" x="9.44" y="11.52">ting</tspan></text><path class="cls-3" d="M397.76,169.1H381.29c-2.83,0-5,4.05-5,9.2s2.21,9.2,5,9.2h16.47c2.83,0,5.05-4.05,5.05-9.2S400.59,169.1,397.76,169.1Zm0,17.23H383.82l.05-.05.19-.21.06-.07.23-.3.06-.08c.06-.09.12-.17.17-.26l.07-.11s.12-.19.17-.29l.05-.08c.06-.12.13-.25.2-.4l0-.09c.05-.11.1-.21.14-.32s0-.09.06-.13.1-.24.14-.36l0-.07c.06-.15.11-.3.16-.45l0-.12c0-.12.08-.24.11-.37a.74.74,0,0,1,0-.14c0-.14.08-.29.11-.43v-.06c0-.17.07-.34.11-.51l0-.14c0-.13.05-.27.07-.4l0-.16c0-.17.05-.33.07-.51v0a5.29,5.29,0,0,1,0-.56V177a5.11,5.11,0,0,0,0-.55v0a2.74,2.74,0,0,0-.07-.5l0-.16a1.87,1.87,0,0,0-.07-.4l0-.15c0-.17-.07-.34-.11-.5v-.06c0-.15-.07-.3-.11-.44a.43.43,0,0,0,0-.14c0-.12-.07-.24-.11-.36l0-.12c-.05-.16-.1-.31-.16-.46l0-.07-.14-.36-.06-.13c0-.1-.09-.21-.14-.31a1,1,0,0,0,0-.1c-.07-.13-.14-.26-.2-.4l-.05-.08-.17-.29c-.06-.09,0-.07-.07-.1a2.73,2.73,0,0,0-.17-.26c-.06-.09,0-.06-.06-.08l-.23-.31-.06-.07-.2-.21h13.91c2.09,0,3.85,3.67,3.85,8s-1.77,8-3.86,8Z"/><path class="cls-3" d="M399.45,173.2l-.31-.59a1.55,1.55,0,0,0-1.38-1h-10.6a.85.85,0,0,0-.74.95,1.6,1.6,0,0,0,.05.21l.32,1a1.1,1.1,0,0,0,1,.84l11-.06A.86.86,0,0,0,399.45,173.2Z"/><text class="cls-9" transform="translate(379.2 201.79)">In<tspan class="cls-13" x="7.71" y="0">g</tspan><tspan class="cls-14" x="12.17" y="0">ot</tspan></text><path class="cls-3" d="M539.88,188.56H523.3a.74.74,0,0,1-.74-.74V167.38a.75.75,0,0,1,.74-.75h16.58a.76.76,0,0,1,.75.75v20.44A.75.75,0,0,1,539.88,188.56ZM525,186.14h13.2V169.06H525Z"/><path class="cls-3" d="M517.29,176.64h28.6a1,1,0,0,1,1,1h0a1,1,0,0,1-1,1h-28.6a1,1,0,0,1-1-1h0A1,1,0,0,1,517.29,176.64Z"/><path class="cls-8" d="M531.59,170.21a3.2,3.2,0,1,0,3.2,3.2A3.2,3.2,0,0,0,531.59,170.21Zm0,4.57a1.36,1.36,0,1,1,1.35-1.36h0A1.36,1.36,0,0,1,531.59,174.78Z"/><path class="cls-8" d="M531.59,178.6a3.2,3.2,0,1,0,3.2,3.2A3.2,3.2,0,0,0,531.59,178.6Zm0,4.56a1.35,1.35,0,1,1,0-2.7,1.34,1.34,0,0,1,1.36,1.34h0a1.35,1.35,0,0,1-1.35,1.35Z"/><text class="cls-9" transform="translate(523.79 201.79)">Hot<tspan class="cls-17"><tspan x="-6.31" y="11.52">R</tspan><tspan class="cls-18" x="-1.08" y="11.52">olling</tspan></tspan></text><rect class="cls-3" x="590.24" y="177.75" width="19.64" height="0.56"/><rect class="cls-3" x="613.43" y="177.75" width="1.09" height="0.56"/><path class="cls-3" d="M591.54,177.4c.11-4.68,1-7.56,1.6-7.87a.57.57,0,0,1,.24.31,3.74,3.74,0,0,1,.78-1.22,1.36,1.36,0,0,0-1-.5c-2.22,0-2.92,5.52-3,9.28Z"/><path class="cls-3" d="M593.12,186.74c-.56-.32-1.51-3.26-1.6-8.08h-1.4c.07,3.76.74,9.52,3,9.52a1.3,1.3,0,0,0,1-.49,4.63,4.63,0,0,1-.77-1.23A.7.7,0,0,1,593.12,186.74Z"/><path class="cls-3" d="M593.61,177.4c.11-4.68,1.06-7.52,1.6-7.84a.66.66,0,0,1,.25.32,3.6,3.6,0,0,1,.77-1.23,1.36,1.36,0,0,0-1-.53c-2.21,0-2.91,5.52-3,9.28Z"/><path class="cls-3" d="M595.2,186.74c-.57-.32-1.52-3.26-1.6-8.08h-1.41c.07,3.76.74,9.52,3,9.52a1.32,1.32,0,0,0,1-.49,4.93,4.93,0,0,1-.78-1.23A.85.85,0,0,1,595.2,186.74Z"/><path class="cls-3" d="M597.23,186.74c-.56-.32-1.51-3.26-1.6-8.08h-1.4c.07,3.76.73,9.52,3,9.52a1.41,1.41,0,0,0,1-.46,4,4,0,0,1-.77-1.22A.59.59,0,0,1,597.23,186.74Z"/><path class="cls-3" d="M595.65,177.4c.11-4.68,1.05-7.52,1.6-7.84a.6.6,0,0,1,.25.32,3.65,3.65,0,0,1,.77-1.23,1.27,1.27,0,0,0-1-.53c-2.21,0-2.91,5.52-3,9.28Z"/><path class="cls-3" d="M597.72,177.4c.11-4.68,1.06-7.52,1.58-7.84a.6.6,0,0,1,.25.32,3.65,3.65,0,0,1,.77-1.23,1.27,1.27,0,0,0-1-.53c-2.21,0-2.91,5.52-3,9.28Z"/><path class="cls-3" d="M599.3,186.74c-.56-.32-1.5-3.26-1.58-8.08h-1.4c.07,3.76.74,9.52,3,9.52a1.3,1.3,0,0,0,1-.49,4.47,4.47,0,0,1-.77-1.23A.62.62,0,0,1,599.3,186.74Z"/><path class="cls-3" d="M599.8,177.4c.1-4.68,1.05-7.52,1.58-7.84a.64.64,0,0,1,.24.32,3.78,3.78,0,0,1,.78-1.23,1.38,1.38,0,0,0-1-.53c-2.22,0-2.92,5.52-3,9.28Z"/><path class="cls-3" d="M601.38,186.74c-.56-.32-1.51-3.26-1.58-8.08h-1.41c.07,3.76.74,9.52,3,9.52a1.33,1.33,0,0,0,1-.49,4.93,4.93,0,0,1-.78-1.23A.92.92,0,0,1,601.38,186.74Z"/><path class="cls-3" d="M601.84,177.4c.1-4.68,1-7.56,1.58-7.87a.57.57,0,0,1,.24.31,3.88,3.88,0,0,1,.77-1.22,1.34,1.34,0,0,0-1-.5c-2.22,0-2.92,5.52-3,9.28Z"/><path class="cls-3" d="M603.42,186.74c-.57-.32-1.52-3.26-1.58-8.08h-1.41c.07,3.76.74,9.52,3,9.52a1.3,1.3,0,0,0,1-.49,4.63,4.63,0,0,1-.77-1.23A.51.51,0,0,1,603.42,186.74Z"/><path class="cls-3" d="M603.89,177.4c.11-4.68,1.05-7.52,1.58-7.84a.66.66,0,0,1,.25.32,3.5,3.5,0,0,1,.77-1.23,1.31,1.31,0,0,0-1-.53c-2.21,0-2.91,5.52-3,9.28Z"/><path class="cls-3" d="M605.49,186.74c-.56-.32-1.51-3.26-1.58-8.08H602.5c0,3.76.74,9.52,3,9.52a1.3,1.3,0,0,0,1-.49,4.63,4.63,0,0,1-.77-1.23A.75.75,0,0,1,605.49,186.74Z"/><path class="cls-3" d="M606,177.4c.07-4.68,1-7.56,1.58-7.87a.53.53,0,0,1,.24.31,3.74,3.74,0,0,1,.78-1.22,1.45,1.45,0,0,0-1-.5c-2.21,0-2.92,5.52-3,9.28Z"/><path class="cls-3" d="M607.56,186.74c-.56-.32-1.51-3.26-1.58-8.08h-1.4c.06,3.76.73,9.52,3,9.52a1.3,1.3,0,0,0,1-.49,4.93,4.93,0,0,1-.78-1.23A.92.92,0,0,1,607.56,186.74Z"/><path class="cls-3" d="M608,177.4c.1-4.68,1.05-7.52,1.58-7.84a.64.64,0,0,1,.24.32,3.78,3.78,0,0,1,.78-1.23,1.3,1.3,0,0,0-1-.53c-2.22,0-2.92,5.52-3,9.28Z"/><path class="cls-3" d="M609.6,186.74c-.56-.32-1.51-3.26-1.58-8.08h-1.41c.07,3.76.74,9.52,3,9.52a1.33,1.33,0,0,0,1-.49,4.93,4.93,0,0,1-.78-1.23C609.77,186.6,609.7,186.71,609.6,186.74Z"/><path class="cls-3" d="M610.09,177.4c.11-4.68,1-7.56,1.6-7.87.56.31,1.47,3.16,1.58,7.83h1.42c-.07-3.72-.77-9.24-3-9.24s-2.92,5.52-3,9.28Z"/><path class="cls-3" d="M613.25,178.66c-.07,4.8-1,7.76-1.58,8.08-.56-.32-1.51-3.26-1.6-8.08h-1.38c.07,3.76.74,9.52,3,9.52s3-5.76,3-9.52Z"/><text class="cls-9" transform="translate(581.27 201.79)">Hot <tspan class="cls-19" x="16.72" y="0">R</tspan><tspan x="21.95" y="0">olled</tspan><tspan x="2.45" y="11.52">Wi</tspan><tspan class="cls-20" x="13.51" y="11.52">r</tspan><tspan x="16.81" y="11.52">e </tspan><tspan class="cls-17" x="23.81" y="11.52">R</tspan><tspan x="29.05" y="11.52">od</tspan></text><rect class="cls-3" x="590.24" y="272.43" width="19.64" height="0.56"/><rect class="cls-3" x="613.43" y="272.43" width="1.09" height="0.56"/><path class="cls-3" d="M591.54,272.08c.11-4.68,1-7.56,1.6-7.87a.57.57,0,0,1,.24.31,3.74,3.74,0,0,1,.78-1.22,1.36,1.36,0,0,0-1-.5c-2.22,0-2.92,5.52-3,9.28Z"/><path class="cls-3" d="M593.12,281.42c-.56-.32-1.51-3.26-1.6-8.08h-1.4c.07,3.76.74,9.52,3,9.52a1.3,1.3,0,0,0,1-.49,4.63,4.63,0,0,1-.77-1.23A.7.7,0,0,1,593.12,281.42Z"/><path class="cls-3" d="M593.61,272.08c.11-4.68,1.06-7.52,1.6-7.84a.66.66,0,0,1,.25.32,3.6,3.6,0,0,1,.77-1.23,1.36,1.36,0,0,0-1-.53c-2.21,0-2.91,5.52-3,9.28Z"/><path class="cls-3" d="M595.2,281.42c-.57-.32-1.52-3.26-1.6-8.08h-1.41c.07,3.76.74,9.52,3,9.52a1.32,1.32,0,0,0,1-.49,4.93,4.93,0,0,1-.78-1.23A.85.85,0,0,1,595.2,281.42Z"/><path class="cls-3" d="M597.23,281.42c-.56-.32-1.51-3.26-1.6-8.08h-1.4c.07,3.76.73,9.52,3,9.52a1.41,1.41,0,0,0,1-.46,4,4,0,0,1-.77-1.22A.59.59,0,0,1,597.23,281.42Z"/><path class="cls-3" d="M595.65,272.08c.11-4.68,1.05-7.52,1.6-7.84a.6.6,0,0,1,.25.32,3.76,3.76,0,0,1,.77-1.23,1.27,1.27,0,0,0-1-.53c-2.21,0-2.91,5.52-3,9.28Z"/><path class="cls-3" d="M597.72,272.08c.11-4.68,1.06-7.52,1.58-7.84a.6.6,0,0,1,.25.32,3.76,3.76,0,0,1,.77-1.23,1.27,1.27,0,0,0-1-.53c-2.21,0-2.91,5.52-3,9.28Z"/><path class="cls-3" d="M599.3,281.42c-.56-.32-1.5-3.26-1.58-8.08h-1.4c.07,3.76.74,9.52,3,9.52a1.3,1.3,0,0,0,1-.49,4.47,4.47,0,0,1-.77-1.23A.62.62,0,0,1,599.3,281.42Z"/><path class="cls-3" d="M599.8,272.08c.1-4.68,1.05-7.52,1.58-7.84a.64.64,0,0,1,.24.32,3.78,3.78,0,0,1,.78-1.23,1.38,1.38,0,0,0-1-.53c-2.22,0-2.92,5.52-3,9.28Z"/><path class="cls-3" d="M601.38,281.42c-.56-.32-1.51-3.26-1.58-8.08h-1.41c.07,3.76.74,9.52,3,9.52a1.33,1.33,0,0,0,1-.49,4.93,4.93,0,0,1-.78-1.23A.92.92,0,0,1,601.38,281.42Z"/><path class="cls-3" d="M601.84,272.08c.1-4.68,1-7.56,1.58-7.87a.57.57,0,0,1,.24.31,3.88,3.88,0,0,1,.77-1.22,1.34,1.34,0,0,0-1-.5c-2.22,0-2.92,5.52-3,9.28Z"/><path class="cls-3" d="M603.42,281.42c-.57-.32-1.52-3.26-1.58-8.08h-1.41c.07,3.76.74,9.52,3,9.52a1.3,1.3,0,0,0,1-.49,4.63,4.63,0,0,1-.77-1.23A.48.48,0,0,1,603.42,281.42Z"/><path class="cls-3" d="M603.89,272.08c.11-4.68,1.05-7.52,1.58-7.84a.66.66,0,0,1,.25.32,3.5,3.5,0,0,1,.77-1.23,1.31,1.31,0,0,0-1-.53c-2.21,0-2.91,5.52-3,9.28Z"/><path class="cls-3" d="M605.49,281.42c-.56-.32-1.51-3.26-1.58-8.08H602.5c0,3.76.74,9.52,3,9.52a1.3,1.3,0,0,0,1-.49,4.63,4.63,0,0,1-.77-1.23A.68.68,0,0,1,605.49,281.42Z"/><path class="cls-3" d="M606,272.08c.07-4.68,1-7.56,1.58-7.87a.53.53,0,0,1,.24.31,3.74,3.74,0,0,1,.78-1.22,1.45,1.45,0,0,0-1-.5c-2.21,0-2.92,5.52-3,9.28Z"/><path class="cls-3" d="M607.56,281.42c-.56-.32-1.51-3.26-1.58-8.08h-1.4c.06,3.76.73,9.52,3,9.52a1.3,1.3,0,0,0,1-.49,4.93,4.93,0,0,1-.78-1.23A.92.92,0,0,1,607.56,281.42Z"/><path class="cls-3" d="M608,272.08c.1-4.68,1.05-7.52,1.58-7.84a.64.64,0,0,1,.24.32,3.78,3.78,0,0,1,.78-1.23,1.3,1.3,0,0,0-1-.53c-2.22,0-2.92,5.52-3,9.28Z"/><path class="cls-3" d="M609.6,281.42c-.56-.32-1.51-3.26-1.58-8.08h-1.41c.07,3.76.74,9.52,3,9.52a1.33,1.33,0,0,0,1-.49,4.93,4.93,0,0,1-.78-1.23C609.77,281.28,609.7,281.39,609.6,281.42Z"/><path class="cls-3" d="M610.09,272.08c.11-4.68,1-7.56,1.6-7.87.56.31,1.47,3.16,1.58,7.83h1.42c-.07-3.72-.77-9.24-3-9.24s-2.92,5.52-3,9.28Z"/><path class="cls-3" d="M613.25,273.34c-.07,4.8-1,7.76-1.58,8.08-.56-.32-1.51-3.26-1.6-8.08h-1.38c.07,3.76.74,9.52,3,9.52s3-5.76,3-9.52Z"/><text class="cls-9" transform="translate(579.11 296.47)">Cold D<tspan class="cls-21" x="25.97" y="0">r</tspan><tspan class="cls-12" x="29.17" y="0">a</tspan><tspan x="33.84" y="0">wn</tspan><tspan x="4.62" y="11.52">Wi</tspan><tspan class="cls-20" x="15.67" y="11.52">r</tspan><tspan x="18.98" y="11.52">e </tspan><tspan class="cls-17" x="25.98" y="11.52">R</tspan><tspan x="31.22" y="11.52">od</tspan></text><path class="cls-3" d="M329.16,282h-20a3.2,3.2,0,0,1-3.2-3.2V262.36h1.56V278.8a1.66,1.66,0,0,0,1.64,1.64h20a1.65,1.65,0,0,0,1.64-1.64h0V262.36h1.56V278.8A3.24,3.24,0,0,1,329.16,282Z"/><rect class="cls-3" x="305.96" y="266.01" width="26.4" height="1.64"/><path class="cls-3" d="M329.16,282h-20a3.2,3.2,0,0,1-3.2-3.2V262.36h1.56v16.48a1.66,1.66,0,0,0,1.64,1.64h20a1.65,1.65,0,0,0,1.64-1.64h0V262.36h1.56v16.48A3.29,3.29,0,0,1,329.16,282Z"/><rect class="cls-3" x="305.92" y="266.01" width="26.4" height="1.64"/><path class="cls-3" d="M320.89,275.64a3,3,0,0,1,5.79,0h1.2a4.15,4.15,0,0,0-8.21,0Z"/><path class="cls-3" d="M326.71,276.59a2.95,2.95,0,0,1-5.85,0h-1.2a4.14,4.14,0,0,0,8.26,0Z"/><text class="cls-9" transform="translate(303.43 296.47)">Pickling</text><text class="cls-22" transform="translate(436.61 271.46)">F</text><text class="cls-23" transform="translate(439.47 271.46)">or S</text><text class="cls-23" transform="translate(449.65 271.46)">e</text><text class="cls-22" transform="translate(452.85 271.46)">v</text><text class="cls-23" transform="translate(455.81 271.46)">e</text><text class="cls-24" transform="translate(459.03 271.46)">r</text><text class="cls-23" transform="translate(461.17 271.46)">al Times</text><line class="cls-7" x1="650.1" y1="229.84" x2="650.1" y2="279.94"/></svg>