<svg id="图层_1" data-name="图层 1" xmlns="http://www.w3.org/2000/svg" xmlns:xlink="http://www.w3.org/1999/xlink" viewBox="0 0 841.89 200"><defs><style>.cls-1,.cls-9{fill:none;}.cls-2{fill:#999899;}.cls-3{clip-path:url(#clip-path);}.cls-4{fill:#2f5288;}.cls-5,.cls-8{isolation:isolate;fill:#fff;font-family:Calibri-Bold, Calibri;font-weight:700;}.cls-5{font-size:24px;}.cls-6{fill:#c2ad99;}.cls-7{clip-path:url(#clip-path-2);}.cls-8{font-size:12.51px;}.cls-9{stroke:#999899;stroke-miterlimit:10;stroke-width:8px;}</style><clipPath id="clip-path"><rect class="cls-1" x="25.41" y="25" width="350" height="150" rx="15"/></clipPath><clipPath id="clip-path-2"><rect class="cls-1" x="466.9" y="25" width="350" height="150" rx="15"/></clipPath></defs><path class="cls-2" d="M360.41,25a15,15,0,0,1,15,15V160a15,15,0,0,1-15,15h-320a15,15,0,0,1-15-15V40a15,15,0,0,1,15-15h320m0-3h-320a18,18,0,0,0-18,18V160a18,18,0,0,0,18,18h320a18,18,0,0,0,18-18V40a18,18,0,0,0-18-18Z"/><g class="cls-3"><circle class="cls-4" cx="167.46" cy="41.14" r="25"/><text class="cls-5" transform="translate(161.85 45.75)">γ</text><circle class="cls-4" cx="299.27" cy="41.14" r="25"/><text class="cls-5" transform="translate(293.67 45.75)">γ</text><circle class="cls-6" cx="233.37" cy="41.14" r="25"/><text class="cls-5" transform="translate(226.96 45.75)">γ&apos;</text><circle class="cls-4" cx="35.64" cy="41.14" r="25"/><text class="cls-5" transform="translate(30.04 45.75)">γ</text><circle class="cls-6" cx="101.55" cy="41.14" r="25"/><text class="cls-5" transform="translate(95.14 45.75)">γ&apos;</text><circle class="cls-6" cx="365.18" cy="41.14" r="25"/><text class="cls-5" transform="translate(358.77 45.75)">γ&apos;</text><circle class="cls-4" cx="134.5" cy="100" r="25"/><text class="cls-5" transform="translate(128.9 104.6)">γ</text><circle class="cls-4" cx="266.32" cy="100" r="25"/><text class="cls-5" transform="translate(260.71 104.6)">γ</text><circle class="cls-4" cx="398.14" cy="100" r="25"/><text class="cls-5" transform="translate(392.53 104.6)">γ</text><circle class="cls-6" cx="200.41" cy="100" r="25"/><text class="cls-5" transform="translate(194 104.6)">γ&apos;</text><circle class="cls-4" cx="2.69" cy="100" r="25"/><text class="cls-5" transform="translate(-2.92 104.6)">γ</text><circle class="cls-6" cx="68.6" cy="100" r="25"/><text class="cls-5" transform="translate(62.19 104.6)">γ&apos;</text><circle class="cls-6" cx="332.23" cy="100" r="25"/><text class="cls-5" transform="translate(325.82 104.6)">γ&apos;</text><circle class="cls-4" cx="167.46" cy="158.86" r="25"/><text class="cls-5" transform="translate(161.85 163.46)">γ</text><circle class="cls-4" cx="299.27" cy="158.86" r="25"/><text class="cls-5" transform="translate(293.67 163.46)">γ</text><circle class="cls-6" cx="233.37" cy="158.86" r="25"/><text class="cls-5" transform="translate(226.96 163.46)">γ&apos;</text><circle class="cls-4" cx="35.64" cy="158.86" r="25"/><text class="cls-5" transform="translate(30.04 163.46)">γ</text><circle class="cls-6" cx="101.55" cy="158.86" r="25"/><text class="cls-5" transform="translate(95.14 163.46)">γ&apos;</text><circle class="cls-6" cx="365.18" cy="158.86" r="25"/><text class="cls-5" transform="translate(358.77 163.46)">γ&apos;</text></g><path class="cls-2" d="M801.9,25a15,15,0,0,1,15,15V160a15,15,0,0,1-15,15h-320a15,15,0,0,1-15-15V40a15,15,0,0,1,15-15h320m0-3h-320a18,18,0,0,0-18,18V160a18,18,0,0,0,18,18h320a18,18,0,0,0,18-18V40a18,18,0,0,0-18-18Z"/><g class="cls-7"><circle class="cls-4" cx="553.93" cy="97.63" r="13.03"/><text class="cls-8" transform="translate(551 100.03)">γ</text><circle class="cls-4" cx="622.65" cy="97.63" r="13.03"/><text class="cls-8" transform="translate(619.73 100.03)">γ</text><circle class="cls-6" cx="588.29" cy="97.63" r="13.03"/><text class="cls-8" transform="translate(584.95 100.03)">γ&apos;</text><circle class="cls-4" cx="485.2" cy="97.63" r="13.03"/><text class="cls-8" transform="translate(482.28 100.03)">γ</text><circle class="cls-6" cx="519.56" cy="97.63" r="13.03"/><text class="cls-8" transform="translate(516.22 100.03)">γ&apos;</text><circle class="cls-6" cx="657.02" cy="97.63" r="13.03"/><text class="cls-8" transform="translate(653.67 100.03)">γ&apos;</text><circle class="cls-4" cx="536.75" cy="128.74" r="13.03"/><text class="cls-8" transform="translate(533.82 131.14)">γ</text><circle class="cls-4" cx="605.47" cy="128.74" r="13.03"/><text class="cls-8" transform="translate(602.55 131.14)">γ</text><circle class="cls-4" cx="674.2" cy="128.74" r="13.03"/><text class="cls-8" transform="translate(671.27 131.14)">γ</text><circle class="cls-6" cx="571.11" cy="128.74" r="13.03"/><text class="cls-8" transform="translate(567.77 131.14)">γ&apos;</text><circle class="cls-4" cx="468.02" cy="128.74" r="13.03"/><text class="cls-8" transform="translate(465.1 131.14)">γ</text><circle class="cls-6" cx="502.38" cy="128.74" r="13.03"/><text class="cls-8" transform="translate(499.04 131.14)">γ&apos;</text><circle class="cls-6" cx="639.83" cy="128.74" r="13.03"/><text class="cls-8" transform="translate(636.49 131.14)">γ&apos;</text><circle class="cls-4" cx="553.93" cy="35.41" r="13.03"/><text class="cls-8" transform="translate(551 37.81)">γ</text><circle class="cls-4" cx="622.65" cy="35.41" r="13.03"/><text class="cls-8" transform="translate(619.73 37.81)">γ</text><circle class="cls-6" cx="588.29" cy="35.41" r="13.03"/><text class="cls-8" transform="translate(584.95 37.81)">γ&apos;</text><circle class="cls-4" cx="485.2" cy="35.41" r="13.03"/><text class="cls-8" transform="translate(482.28 37.81)">γ</text><circle class="cls-6" cx="519.56" cy="35.41" r="13.03"/><text class="cls-8" transform="translate(516.22 37.81)">γ&apos;</text><circle class="cls-6" cx="657.02" cy="35.41" r="13.03"/><text class="cls-8" transform="translate(653.67 37.81)">γ&apos;</text><circle class="cls-4" cx="536.75" cy="66.52" r="13.03"/><text class="cls-8" transform="translate(533.82 68.92)">γ</text><circle class="cls-4" cx="605.47" cy="66.52" r="13.03"/><text class="cls-8" transform="translate(602.55 68.92)">γ</text><circle class="cls-4" cx="674.2" cy="66.52" r="13.03"/><text class="cls-8" transform="translate(671.27 68.92)">γ</text><circle class="cls-6" cx="571.11" cy="66.52" r="13.03"/><text class="cls-8" transform="translate(567.77 68.92)">γ&apos;</text><circle class="cls-4" cx="468.02" cy="66.52" r="13.03"/><text class="cls-8" transform="translate(465.1 68.92)">γ</text><circle class="cls-6" cx="502.38" cy="66.52" r="13.03"/><text class="cls-8" transform="translate(499.04 68.92)">γ&apos;</text><circle class="cls-6" cx="639.83" cy="66.52" r="13.03"/><text class="cls-8" transform="translate(636.49 68.92)">γ&apos;</text><circle class="cls-4" cx="553.93" cy="159.85" r="13.03"/><text class="cls-8" transform="translate(551 162.25)">γ</text><circle class="cls-4" cx="622.65" cy="159.85" r="13.03"/><text class="cls-8" transform="translate(619.73 162.25)">γ</text><circle class="cls-6" cx="588.29" cy="159.85" r="13.03"/><text class="cls-8" transform="translate(584.95 162.25)">γ&apos;</text><circle class="cls-4" cx="485.2" cy="159.85" r="13.03"/><text class="cls-8" transform="translate(482.28 162.25)">γ</text><circle class="cls-6" cx="519.56" cy="159.85" r="13.03"/><text class="cls-8" transform="translate(516.22 162.25)">γ&apos;</text><circle class="cls-6" cx="657.02" cy="159.85" r="13.03"/><text class="cls-8" transform="translate(653.67 162.25)">γ&apos;</text><circle class="cls-4" cx="760.13" cy="97.63" r="13.03"/><text class="cls-8" transform="translate(757.2 100.03)">γ</text><circle class="cls-4" cx="828.85" cy="97.63" r="13.03"/><text class="cls-8" transform="translate(825.93 100.03)">γ</text><circle class="cls-6" cx="794.49" cy="97.63" r="13.03"/><text class="cls-8" transform="translate(791.15 100.03)">γ&apos;</text><circle class="cls-4" cx="691.4" cy="97.63" r="13.03"/><text class="cls-8" transform="translate(688.48 100.03)">γ</text><circle class="cls-6" cx="725.77" cy="97.63" r="13.03"/><text class="cls-8" transform="translate(722.42 100.03)">γ&apos;</text><circle class="cls-4" cx="742.95" cy="128.74" r="13.03"/><text class="cls-8" transform="translate(740.02 131.14)">γ</text><circle class="cls-4" cx="811.67" cy="128.74" r="13.03"/><text class="cls-8" transform="translate(808.75 131.14)">γ</text><circle class="cls-6" cx="777.31" cy="128.74" r="13.03"/><text class="cls-8" transform="translate(773.97 131.14)">γ&apos;</text><circle class="cls-6" cx="708.58" cy="128.74" r="13.03"/><text class="cls-8" transform="translate(705.24 131.14)">γ&apos;</text><circle class="cls-6" cx="846.03" cy="128.74" r="13.03"/><circle class="cls-4" cx="760.13" cy="35.41" r="13.03"/><text class="cls-8" transform="translate(757.2 37.81)">γ</text><circle class="cls-4" cx="828.85" cy="35.41" r="13.03"/><text class="cls-8" transform="translate(825.93 37.81)">γ</text><circle class="cls-6" cx="794.49" cy="35.41" r="13.03"/><text class="cls-8" transform="translate(791.15 37.81)">γ&apos;</text><circle class="cls-4" cx="691.4" cy="35.41" r="13.03"/><text class="cls-8" transform="translate(688.48 37.81)">γ</text><circle class="cls-6" cx="725.77" cy="35.41" r="13.03"/><text class="cls-8" transform="translate(722.42 37.81)">γ&apos;</text><circle class="cls-4" cx="742.95" cy="66.52" r="13.03"/><text class="cls-8" transform="translate(740.02 68.92)">γ</text><circle class="cls-4" cx="811.67" cy="66.52" r="13.03"/><text class="cls-8" transform="translate(808.75 68.92)">γ</text><circle class="cls-6" cx="777.31" cy="66.52" r="13.03"/><text class="cls-8" transform="translate(773.97 68.92)">γ&apos;</text><circle class="cls-6" cx="708.58" cy="66.52" r="13.03"/><text class="cls-8" transform="translate(705.24 68.92)">γ&apos;</text><circle class="cls-6" cx="846.03" cy="66.52" r="13.03"/><circle class="cls-4" cx="760.13" cy="159.85" r="13.03"/><text class="cls-8" transform="translate(757.2 162.25)">γ</text><circle class="cls-4" cx="828.85" cy="159.85" r="13.03"/><text class="cls-8" transform="translate(825.93 162.25)">γ</text><circle class="cls-6" cx="794.49" cy="159.85" r="13.03"/><text class="cls-8" transform="translate(791.15 162.25)">γ&apos;</text><circle class="cls-4" cx="691.4" cy="159.85" r="13.03"/><text class="cls-8" transform="translate(688.48 162.25)">γ</text><circle class="cls-6" cx="725.77" cy="159.85" r="13.03"/><text class="cls-8" transform="translate(722.42 162.25)">γ&apos;</text></g><line class="cls-9" x1="398.2" y1="100" x2="426.47" y2="100"/><polygon class="cls-2" points="422.97 111.97 443.69 100 422.97 88.03 422.97 111.97"/></svg>