<svg id="图层_1" data-name="图层 1" xmlns="http://www.w3.org/2000/svg" viewBox="0 0 1133.9 672.3"><defs><style>.cls-1,.cls-5{fill:none;stroke-miterlimit:10;}.cls-1{stroke:#999899;stroke-width:3px;}.cls-2{isolation:isolate;font-size:24px;fill:#231815;font-family:Calibri-Bold, Calibri;font-weight:700;}.cls-3{letter-spacing:-0.01em;}.cls-4{fill:#2f5288;}.cls-5{stroke:#2f5288;stroke-linecap:round;stroke-width:6px;}</style></defs><title>Al</title><path class="cls-1" d="M223.5,35.6H979.4a12,12,0,0,1,12,12V564.8a12,12,0,0,1-12,12H223.5a12,12,0,0,1-12-12V47.6A12,12,0,0,1,223.5,35.6Z"/><line class="cls-1" x1="211.5" y1="93.2" x2="991.4" y2="93.2"/><line class="cls-1" x1="211.5" y1="203.7" x2="991.4" y2="203.7"/><line class="cls-1" x1="211.5" y1="146.1" x2="991.4" y2="146.1"/><line class="cls-1" x1="211.5" y1="309.7" x2="991.4" y2="309.7"/><line class="cls-1" x1="211.5" y1="252.1" x2="991.4" y2="252.1"/><line class="cls-1" x1="211.5" y1="420.2" x2="991.4" y2="420.2"/><line class="cls-1" x1="211.5" y1="362.6" x2="991.4" y2="362.6"/><line class="cls-1" x1="211.5" y1="466.2" x2="991.4" y2="466.2"/><line class="cls-1" x1="211.5" y1="519.1" x2="991.4" y2="519.1"/><line class="cls-1" x1="260.3" y1="576.7" x2="260.3" y2="35.6"/><line class="cls-1" x1="309" y1="576.7" x2="309" y2="35.6"/><line class="cls-1" x1="357.8" y1="576.7" x2="357.8" y2="35.6"/><line class="cls-1" x1="406.5" y1="576.7" x2="406.5" y2="35.6"/><line class="cls-1" x1="455.2" y1="576.7" x2="455.2" y2="35.6"/><line class="cls-1" x1="504" y1="576.7" x2="504" y2="35.6"/><line class="cls-1" x1="552.7" y1="576.7" x2="552.7" y2="35.6"/><line class="cls-1" x1="601.5" y1="576.7" x2="601.5" y2="35.6"/><line class="cls-1" x1="650.2" y1="576.7" x2="650.2" y2="35.6"/><line class="cls-1" x1="699" y1="576.7" x2="699" y2="35.6"/><line class="cls-1" x1="747.7" y1="576.7" x2="747.7" y2="35.6"/><line class="cls-1" x1="796.5" y1="576.7" x2="796.5" y2="35.6"/><line class="cls-1" x1="845.2" y1="576.7" x2="845.2" y2="35.6"/><line class="cls-1" x1="893.9" y1="576.7" x2="893.9" y2="35.6"/><line class="cls-1" x1="942.7" y1="576.7" x2="942.7" y2="35.6"/><text class="cls-2" transform="translate(133.61 379.14) rotate(-90)">B<tspan class="cls-3" x="13.45" y="0">r</tspan><tspan x="21.71" y="0">eak Time / h</tspan></text><text class="cls-2" transform="translate(184.82 582.32)">0</text><text class="cls-2" transform="translate(172.65 529.57)">20</text><text class="cls-2" transform="translate(172.65 476.83)">40</text><text class="cls-2" transform="translate(172.65 424.08)">60</text><text class="cls-2" transform="translate(172.65 371.34)">80</text><text class="cls-2" transform="translate(160.49 318.59)">100</text><text class="cls-2" transform="translate(160.49 263.04)">120</text><text class="cls-2" transform="translate(160.49 212.88)">140</text><text class="cls-2" transform="translate(160.49 152.48)">160</text><text class="cls-2" transform="translate(160.49 102.32)">180</text><text class="cls-2" transform="translate(160.49 41.16)">200</text><text class="cls-2" transform="translate(205.44 602.73)">2</text><text class="cls-2" transform="translate(449.16 602.73)">3</text><text class="cls-2" transform="translate(692.88 602.73)">4</text><text class="cls-2" transform="translate(936.6 602.73)">5</text><text class="cls-2" transform="translate(582.51 647.33)">Al%</text><circle class="cls-4" cx="317.6" cy="203.7" r="8.6"/><circle class="cls-4" cx="371.5" cy="149.4" r="8.6"/><circle class="cls-4" cx="407.7" cy="115.7" r="8.6"/><circle class="cls-4" cx="457.5" cy="275.2" r="8.6"/><circle class="cls-4" cx="510.1" cy="417.1" r="8.6"/><circle class="cls-4" cx="701.2" cy="508.4" r="8.6"/><circle class="cls-4" cx="942.7" cy="524.3" r="8.6"/><polyline class="cls-5" points="317.6 203.7 371.5 149.4 407.7 115.7 457.5 275.2 510.1 417.1 701.2 508.4 942.7 524.3"/></svg>