<?xml version="1.0" encoding="utf-8"?>
<!-- Generator: Adobe Illustrator 23.0.0, SVG Export Plug-In . SVG Version: 6.00 Build 0)  -->
<svg version="1.1" id="图层_1" xmlns="http://www.w3.org/2000/svg" xmlns:xlink="http://www.w3.org/1999/xlink" x="0px" y="0px"
	 viewBox="0 0 1026.9 462.3" style="enable-background:new 0 0 1026.9 462.3;" xml:space="preserve">
<style type="text/css">
	.st0{fill:#32558E;}
	.st1{fill:#C4AF9A;}
	.st2{fill:none;stroke:#C4AF9A;stroke-width:5;stroke-miterlimit:10;}
	#gamma{
		animation: st0 2s linear infinite;
	}	
	@keyframes st0{
		0%{transform: translate(-20px, 0);}
		10%{transform: translate(10px, 0);}
		15%{transform: translate(-5px, 0);}
		20%{transform: translate(10px, 0);}
		100%{transform: translate(-20px, 0);}
	}
</style>
<title>cold-rolling</title>
<title>cold-rolling</title>
<g id="gamma">
	<path class="st0" d="M35.4,71.4c-15.9,0-28.7,12.8-28.7,28.7s12.8,28.7,28.7,28.7s28.7-12.8,28.7-28.7S51.3,71.4,35.4,71.4z
		 M38.8,107.5c0,0.2,0,0.4-0.1,0.5c-0.1,0.2-0.2,0.3-0.3,0.4s-0.3,0.2-0.4,0.2c-0.2,0-0.3,0.1-0.5,0.1h-1.4c-0.3,0-0.6,0-0.8-0.1
		s-0.4-0.2-0.6-0.3c-0.2-0.2-0.4-0.4-0.5-0.6c-0.2-0.3-0.4-0.6-0.6-1L29.5,99c-0.2-0.5-0.5-1-0.7-1.5s-0.5-1-0.7-1.5l0,0
		c0,0.6,0.1,1.2,0.1,1.8s0,1.2,0,1.9v8.6c0,0.1,0,0.2-0.1,0.2c0,0.1-0.1,0.1-0.2,0.2s-0.3,0.1-0.5,0.1s-0.4,0-0.8,0
		c-0.3,0-0.5,0-0.7,0s-0.3-0.1-0.5-0.1c-0.1,0-0.2-0.1-0.2-0.2s-0.1-0.1-0.1-0.2V93.5c0-0.4,0.1-0.7,0.3-0.9
		c0.2-0.2,0.5-0.3,0.9-0.3h1.8c0.3,0,0.6,0,0.8,0.1s0.4,0.1,0.6,0.3c0.2,0.1,0.3,0.3,0.5,0.5c0.2,0.2,0.3,0.5,0.5,0.8l3.2,6
		c0.2,0.4,0.4,0.7,0.6,1.1c0.2,0.4,0.4,0.7,0.5,1.1c0.1,0.4,0.3,0.7,0.5,1c0.2,0.3,0.3,0.7,0.5,1l0,0c0-0.6,0-1.2-0.1-1.9
		c0-0.6,0-1.3,0-1.8v-7.7c0-0.1,0-0.2,0.1-0.2c0.1-0.1,0.1-0.1,0.3-0.2c0.2-0.1,0.3-0.1,0.5-0.1s0.4,0,0.8,0c0.3,0,0.5,0,0.7,0
		s0.3,0.1,0.5,0.1s0.2,0.1,0.2,0.2s0.1,0.1,0.1,0.2v14.7C38.9,107.5,38.8,107.5,38.8,107.5z M45.4,108.3c0,0.1,0,0.2-0.1,0.2
		c-0.1,0.1-0.1,0.1-0.3,0.2c-0.1,0-0.3,0.1-0.5,0.1s-0.5,0-0.8,0s-0.6,0-0.8,0s-0.4-0.1-0.5-0.1s-0.2-0.1-0.3-0.2s-0.1-0.1-0.1-0.2
		V97c0-0.1,0-0.2,0.1-0.2c0.1-0.1,0.1-0.1,0.3-0.2c0.1,0,0.3-0.1,0.5-0.1s0.5,0,0.8,0s0.6,0,0.8,0s0.4,0.1,0.5,0.1s0.2,0.1,0.3,0.2
		c0.1,0.1,0.1,0.1,0.1,0.2V108.3z M45.2,94.4c-0.3,0.2-0.7,0.4-1.5,0.4c-0.7,0-1.2-0.1-1.5-0.4s-0.4-0.7-0.4-1.3s0.1-1.1,0.4-1.3
		c0.3-0.2,0.7-0.4,1.5-0.4c0.7,0,1.2,0.1,1.4,0.4c0.3,0.2,0.4,0.7,0.4,1.3C45.6,93.7,45.5,94.2,45.2,94.4z"/>
	<path class="st0" d="M166.1,71.4c-15.9,0-28.7,12.8-28.7,28.7s12.8,28.7,28.7,28.7s28.7-12.8,28.7-28.7S182,71.4,166.1,71.4z
		 M169.5,107.5c0,0.2,0,0.4-0.1,0.5c-0.1,0.2-0.2,0.3-0.3,0.4c-0.1,0.1-0.3,0.2-0.4,0.2c-0.2,0-0.3,0.1-0.5,0.1h-1.4
		c-0.3,0-0.6,0-0.8-0.1c-0.2-0.1-0.4-0.2-0.6-0.3c-0.2-0.2-0.4-0.4-0.5-0.6c-0.2-0.3-0.4-0.6-0.6-1l-4.1-7.7c-0.2-0.5-0.5-1-0.7-1.5
		s-0.5-1-0.7-1.5l0,0c0,0.6,0.1,1.2,0.1,1.8s0,1.2,0,1.9v8.6c0,0.1,0,0.2-0.1,0.2c0,0.1-0.1,0.1-0.2,0.2s-0.3,0.1-0.5,0.1
		s-0.4,0-0.8,0c-0.3,0-0.5,0-0.7,0s-0.3-0.1-0.5-0.1c-0.1,0-0.2-0.1-0.2-0.2s-0.1-0.1-0.1-0.2V93.5c0-0.4,0.1-0.7,0.3-0.9
		c0.2-0.2,0.5-0.3,0.9-0.3h1.8c0.3,0,0.6,0,0.8,0.1c0.2,0.1,0.4,0.1,0.6,0.3c0.2,0.1,0.3,0.3,0.5,0.5c0.2,0.2,0.3,0.5,0.5,0.8l3.2,6
		c0.2,0.4,0.4,0.7,0.6,1.1s0.4,0.7,0.5,1.1c0.1,0.4,0.3,0.7,0.5,1c0.2,0.3,0.3,0.7,0.5,1l0,0c0-0.6,0-1.2-0.1-1.9c0-0.6,0-1.3,0-1.8
		v-7.7c0-0.1,0-0.2,0.1-0.2c0.1-0.1,0.1-0.1,0.3-0.2c0.2-0.1,0.3-0.1,0.5-0.1s0.4,0,0.8,0c0.3,0,0.5,0,0.7,0s0.3,0.1,0.5,0.1
		s0.2,0.1,0.2,0.2s0.1,0.1,0.1,0.2L169.5,107.5L169.5,107.5z M176.1,108.3c0,0.1,0,0.2-0.1,0.2c-0.1,0.1-0.1,0.1-0.3,0.2
		c-0.1,0-0.3,0.1-0.5,0.1s-0.5,0-0.8,0s-0.6,0-0.8,0c-0.2,0-0.4-0.1-0.5-0.1s-0.2-0.1-0.3-0.2c-0.1-0.1-0.1-0.1-0.1-0.2V97
		c0-0.1,0-0.2,0.1-0.2c0.1-0.1,0.1-0.1,0.3-0.2c0.1,0,0.3-0.1,0.5-0.1s0.5,0,0.8,0s0.6,0,0.8,0c0.2,0,0.4,0.1,0.5,0.1
		s0.2,0.1,0.3,0.2c0.1,0.1,0.1,0.1,0.1,0.2V108.3z M175.9,94.4c-0.3,0.2-0.7,0.4-1.5,0.4c-0.7,0-1.2-0.1-1.5-0.4s-0.4-0.7-0.4-1.3
		s0.1-1.1,0.4-1.3c0.3-0.2,0.7-0.4,1.5-0.4c0.7,0,1.2,0.1,1.4,0.4c0.3,0.2,0.4,0.7,0.4,1.3C176.3,93.7,176.2,94.2,175.9,94.4z"/>
	<path class="st0" d="M296.9,71.4c-15.9,0-28.7,12.8-28.7,28.7s12.8,28.7,28.7,28.7s28.7-12.8,28.7-28.7S312.8,71.4,296.9,71.4z
		 M300.3,107.5c0,0.2,0,0.4-0.1,0.5c-0.1,0.2-0.2,0.3-0.3,0.4c-0.1,0.1-0.3,0.2-0.4,0.2c-0.2,0-0.3,0.1-0.5,0.1h-1.4
		c-0.3,0-0.6,0-0.8-0.1c-0.2-0.1-0.4-0.2-0.6-0.3c-0.2-0.2-0.4-0.4-0.5-0.6c-0.2-0.3-0.4-0.6-0.6-1L291,99c-0.2-0.5-0.5-1-0.7-1.5
		s-0.5-1-0.7-1.5l0,0c0,0.6,0.1,1.2,0.1,1.8s0,1.2,0,1.9v8.6c0,0.1,0,0.2-0.1,0.2c0,0.1-0.1,0.1-0.2,0.2s-0.3,0.1-0.5,0.1
		s-0.4,0-0.8,0c-0.3,0-0.5,0-0.7,0s-0.3-0.1-0.5-0.1c-0.1,0-0.2-0.1-0.2-0.2s-0.1-0.1-0.1-0.2V93.5c0-0.4,0.1-0.7,0.3-0.9
		c0.2-0.2,0.5-0.3,0.9-0.3h1.8c0.3,0,0.6,0,0.8,0.1c0.2,0.1,0.4,0.1,0.6,0.3c0.2,0.1,0.3,0.3,0.5,0.5c0.2,0.2,0.3,0.5,0.5,0.8l3.2,6
		c0.2,0.4,0.4,0.7,0.6,1.1s0.4,0.7,0.5,1.1c0.1,0.4,0.3,0.7,0.5,1c0.2,0.3,0.3,0.7,0.5,1l0,0c0-0.6,0-1.2-0.1-1.9c0-0.6,0-1.3,0-1.8
		v-7.7c0-0.1,0-0.2,0.1-0.2c0.1-0.1,0.1-0.1,0.3-0.2c0.2-0.1,0.3-0.1,0.5-0.1s0.4,0,0.8,0c0.3,0,0.5,0,0.7,0s0.3,0.1,0.5,0.1
		s0.2,0.1,0.2,0.2s0.1,0.1,0.1,0.2L300.3,107.5L300.3,107.5z M306.9,108.3c0,0.1,0,0.2-0.1,0.2c-0.1,0.1-0.1,0.1-0.3,0.2
		c-0.1,0-0.3,0.1-0.5,0.1s-0.5,0-0.8,0s-0.6,0-0.8,0c-0.2,0-0.4-0.1-0.5-0.1s-0.2-0.1-0.3-0.2c-0.1-0.1-0.1-0.1-0.1-0.2V97
		c0-0.1,0-0.2,0.1-0.2c0.1-0.1,0.1-0.1,0.3-0.2c0.1,0,0.3-0.1,0.5-0.1s0.5,0,0.8,0s0.6,0,0.8,0c0.2,0,0.4,0.1,0.5,0.1
		s0.2,0.1,0.3,0.2c0.1,0.1,0.1,0.1,0.1,0.2V108.3z M306.7,94.4c-0.3,0.2-0.7,0.4-1.5,0.4c-0.7,0-1.2-0.1-1.5-0.4s-0.4-0.7-0.4-1.3
		s0.1-1.1,0.4-1.3c0.3-0.2,0.7-0.4,1.5-0.4c0.7,0,1.2,0.1,1.4,0.4c0.3,0.2,0.4,0.7,0.4,1.3C307.1,93.7,307,94.2,306.7,94.4z"/>
	<path class="st0" d="M558.4,71.4c-15.9,0-28.7,12.8-28.7,28.7s12.8,28.7,28.7,28.7s28.7-12.8,28.7-28.7S574.3,71.4,558.4,71.4z
		 M561.8,107.5c0,0.2,0,0.4-0.1,0.5c-0.1,0.2-0.2,0.3-0.3,0.4s-0.3,0.2-0.4,0.2c-0.2,0-0.3,0.1-0.5,0.1h-1.4c-0.3,0-0.6,0-0.8-0.1
		s-0.4-0.2-0.6-0.3c-0.2-0.2-0.4-0.4-0.5-0.6c-0.2-0.3-0.4-0.6-0.6-1l-4.1-7.7c-0.2-0.5-0.5-1-0.7-1.5s-0.5-1-0.7-1.5l0,0
		c0,0.6,0.1,1.2,0.1,1.8s0,1.2,0,1.9v8.6c0,0.1,0,0.2-0.1,0.2c0,0.1-0.1,0.1-0.2,0.2s-0.3,0.1-0.5,0.1s-0.4,0-0.8,0
		c-0.3,0-0.5,0-0.7,0s-0.3-0.1-0.5-0.1c-0.1,0-0.2-0.1-0.2-0.2s-0.1-0.1-0.1-0.2V93.5c0-0.4,0.1-0.7,0.3-0.9
		c0.2-0.2,0.5-0.3,0.9-0.3h1.8c0.3,0,0.6,0,0.8,0.1s0.4,0.1,0.6,0.3c0.2,0.1,0.3,0.3,0.5,0.5c0.2,0.2,0.3,0.5,0.5,0.8l3.2,6
		c0.2,0.4,0.4,0.7,0.6,1.1c0.2,0.4,0.4,0.7,0.5,1.1c0.1,0.4,0.3,0.7,0.5,1c0.2,0.3,0.3,0.7,0.5,1l0,0c0-0.6,0-1.2-0.1-1.9
		c0-0.6,0-1.3,0-1.8v-7.7c0-0.1,0-0.2,0.1-0.2c0.1-0.1,0.1-0.1,0.3-0.2c0.2-0.1,0.3-0.1,0.5-0.1s0.4,0,0.8,0c0.3,0,0.5,0,0.7,0
		s0.3,0.1,0.5,0.1s0.2,0.1,0.2,0.2s0.1,0.1,0.1,0.2L561.8,107.5L561.8,107.5z M568.4,108.3c0,0.1,0,0.2-0.1,0.2
		c-0.1,0.1-0.1,0.1-0.3,0.2c-0.1,0-0.3,0.1-0.5,0.1s-0.5,0-0.8,0s-0.6,0-0.8,0s-0.4-0.1-0.5-0.1s-0.2-0.1-0.3-0.2s-0.1-0.1-0.1-0.2
		V97c0-0.1,0-0.2,0.1-0.2c0.1-0.1,0.1-0.1,0.3-0.2c0.1,0,0.3-0.1,0.5-0.1s0.5,0,0.8,0s0.6,0,0.8,0s0.4,0.1,0.5,0.1s0.2,0.1,0.3,0.2
		c0.1,0.1,0.1,0.1,0.1,0.2V108.3z M568.2,94.4c-0.3,0.2-0.7,0.4-1.5,0.4c-0.7,0-1.2-0.1-1.5-0.4s-0.4-0.7-0.4-1.3s0.1-1.1,0.4-1.3
		c0.3-0.2,0.7-0.4,1.5-0.4c0.7,0,1.2,0.1,1.4,0.4c0.3,0.2,0.4,0.7,0.4,1.3C568.6,93.7,568.5,94.2,568.2,94.4z"/>
	<path class="st0" d="M166.1,202.2c-15.9,0-28.7,12.8-28.7,28.7s12.8,28.7,28.7,28.7s28.7-12.8,28.7-28.7S182,202.2,166.1,202.2z
		 M169.5,238.3c0,0.2,0,0.4-0.1,0.5c-0.1,0.2-0.2,0.3-0.3,0.4c-0.1,0.1-0.3,0.2-0.4,0.2c-0.2,0-0.3,0.1-0.5,0.1h-1.4
		c-0.3,0-0.6,0-0.8-0.1c-0.2-0.1-0.4-0.2-0.6-0.3c-0.2-0.2-0.4-0.4-0.5-0.6c-0.2-0.3-0.4-0.6-0.6-1l-4.1-7.7c-0.2-0.5-0.5-1-0.7-1.5
		s-0.5-1-0.7-1.5l0,0c0,0.6,0.1,1.2,0.1,1.8s0,1.2,0,1.9v8.6c0,0.1,0,0.2-0.1,0.2c0,0.1-0.1,0.1-0.2,0.2s-0.3,0.1-0.5,0.1
		s-0.4,0-0.8,0c-0.3,0-0.5,0-0.7,0s-0.3-0.1-0.5-0.1c-0.1,0-0.2-0.1-0.2-0.2c0-0.1-0.1-0.1-0.1-0.2v-14.8c0-0.4,0.1-0.7,0.3-0.9
		c0.2-0.2,0.5-0.3,0.9-0.3h1.8c0.3,0,0.6,0,0.8,0.1c0.2,0.1,0.4,0.1,0.6,0.3c0.2,0.1,0.3,0.3,0.5,0.5s0.3,0.5,0.5,0.8l3.2,6
		c0.2,0.4,0.4,0.7,0.6,1.1c0.2,0.4,0.4,0.7,0.5,1.1s0.3,0.7,0.5,1s0.3,0.7,0.5,1l0,0c0-0.6,0-1.2-0.1-1.9c0-0.6,0-1.3,0-1.8v-7.7
		c0-0.1,0-0.2,0.1-0.2c0.1-0.1,0.1-0.1,0.3-0.2s0.3-0.1,0.5-0.1s0.4,0,0.8,0c0.3,0,0.5,0,0.7,0s0.3,0.1,0.5,0.1s0.2,0.1,0.2,0.2
		c0,0.1,0.1,0.1,0.1,0.2L169.5,238.3L169.5,238.3z M176.1,239.1c0,0.1,0,0.2-0.1,0.2c-0.1,0.1-0.1,0.1-0.3,0.2
		c-0.1,0-0.3,0.1-0.5,0.1s-0.5,0-0.8,0s-0.6,0-0.8,0c-0.2,0-0.4-0.1-0.5-0.1s-0.2-0.1-0.3-0.2c-0.1-0.1-0.1-0.1-0.1-0.2v-11.3
		c0-0.1,0-0.2,0.1-0.2c0.1-0.1,0.1-0.1,0.3-0.2c0.1,0,0.3-0.1,0.5-0.1s0.5,0,0.8,0s0.6,0,0.8,0c0.2,0,0.4,0.1,0.5,0.1
		s0.2,0.1,0.3,0.2c0.1,0.1,0.1,0.1,0.1,0.2V239.1z M175.9,225.2c-0.3,0.2-0.7,0.4-1.5,0.4c-0.7,0-1.2-0.1-1.5-0.4s-0.4-0.7-0.4-1.3
		s0.1-1.1,0.4-1.3s0.7-0.4,1.5-0.4c0.7,0,1.2,0.1,1.4,0.4c0.3,0.2,0.4,0.7,0.4,1.3C176.3,224.5,176.2,225,175.9,225.2z"/>
	<path class="st0" d="M35.4,202.2c-15.9,0-28.7,12.8-28.7,28.7s12.8,28.7,28.7,28.7s28.7-12.8,28.7-28.7S51.3,202.2,35.4,202.2z
		 M38.8,238.3c0,0.2,0,0.4-0.1,0.5c-0.1,0.2-0.2,0.3-0.3,0.4c-0.1,0.1-0.3,0.2-0.4,0.2c-0.2,0-0.3,0.1-0.5,0.1h-1.4
		c-0.3,0-0.6,0-0.8-0.1c-0.2-0.1-0.4-0.2-0.6-0.3c-0.2-0.2-0.4-0.4-0.5-0.6c-0.2-0.3-0.4-0.6-0.6-1l-4.1-7.7c-0.2-0.5-0.5-1-0.7-1.5
		s-0.5-1-0.7-1.5l0,0c0,0.6,0.1,1.2,0.1,1.8s0,1.2,0,1.9v8.6c0,0.1,0,0.2-0.1,0.2c0,0.1-0.1,0.1-0.2,0.2s-0.3,0.1-0.5,0.1
		s-0.4,0-0.8,0c-0.3,0-0.5,0-0.7,0s-0.3-0.1-0.5-0.1c-0.1,0-0.2-0.1-0.2-0.2c0-0.1-0.1-0.1-0.1-0.2v-14.8c0-0.4,0.1-0.7,0.3-0.9
		c0.2-0.2,0.5-0.3,0.9-0.3h1.8c0.3,0,0.6,0,0.8,0.1c0.2,0.1,0.4,0.1,0.6,0.3c0.2,0.1,0.3,0.3,0.5,0.5s0.3,0.5,0.5,0.8l3.2,6
		c0.2,0.4,0.4,0.7,0.6,1.1c0.2,0.4,0.4,0.7,0.5,1.1s0.3,0.7,0.5,1s0.3,0.7,0.5,1l0,0c0-0.6,0-1.2-0.1-1.9c0-0.6,0-1.3,0-1.8v-7.7
		c0-0.1,0-0.2,0.1-0.2c0.1-0.1,0.1-0.1,0.3-0.2s0.3-0.1,0.5-0.1s0.4,0,0.8,0c0.3,0,0.5,0,0.7,0s0.3,0.1,0.5,0.1s0.2,0.1,0.2,0.2
		c0,0.1,0.1,0.1,0.1,0.2L38.8,238.3L38.8,238.3z M45.4,239.1c0,0.1,0,0.2-0.1,0.2c-0.1,0.1-0.1,0.1-0.3,0.2c-0.1,0-0.3,0.1-0.5,0.1
		s-0.5,0-0.8,0s-0.6,0-0.8,0c-0.2,0-0.4-0.1-0.5-0.1s-0.2-0.1-0.3-0.2c-0.1-0.1-0.1-0.1-0.1-0.2v-11.3c0-0.1,0-0.2,0.1-0.2
		c0.1-0.1,0.1-0.1,0.3-0.2c0.1,0,0.3-0.1,0.5-0.1s0.5,0,0.8,0s0.6,0,0.8,0c0.2,0,0.4,0.1,0.5,0.1s0.2,0.1,0.3,0.2
		c0.1,0.1,0.1,0.1,0.1,0.2V239.1z M45.2,225.2c-0.3,0.2-0.7,0.4-1.5,0.4c-0.7,0-1.2-0.1-1.5-0.4s-0.4-0.7-0.4-1.3s0.1-1.1,0.4-1.3
		s0.7-0.4,1.5-0.4c0.7,0,1.2,0.1,1.4,0.4c0.3,0.2,0.4,0.7,0.4,1.3C45.6,224.5,45.5,225,45.2,225.2z"/>
	<path class="st0" d="M296.9,202.2c-15.9,0-28.7,12.8-28.7,28.7s12.8,28.7,28.7,28.7s28.7-12.8,28.7-28.7S312.8,202.2,296.9,202.2z
		 M300.3,238.3c0,0.2,0,0.4-0.1,0.5c-0.1,0.2-0.2,0.3-0.3,0.4c-0.1,0.1-0.3,0.2-0.4,0.2c-0.2,0-0.3,0.1-0.5,0.1h-1.4
		c-0.3,0-0.6,0-0.8-0.1c-0.2-0.1-0.4-0.2-0.6-0.3c-0.2-0.2-0.4-0.4-0.5-0.6c-0.2-0.3-0.4-0.6-0.6-1l-4.1-7.7c-0.2-0.5-0.5-1-0.7-1.5
		s-0.5-1-0.7-1.5l0,0c0,0.6,0.1,1.2,0.1,1.8s0,1.2,0,1.9v8.6c0,0.1,0,0.2-0.1,0.2c0,0.1-0.1,0.1-0.2,0.2s-0.3,0.1-0.5,0.1
		s-0.4,0-0.8,0c-0.3,0-0.5,0-0.7,0s-0.3-0.1-0.5-0.1c-0.1,0-0.2-0.1-0.2-0.2c0-0.1-0.1-0.1-0.1-0.2v-14.8c0-0.4,0.1-0.7,0.3-0.9
		c0.2-0.2,0.5-0.3,0.9-0.3h1.8c0.3,0,0.6,0,0.8,0.1c0.2,0.1,0.4,0.1,0.6,0.3c0.2,0.1,0.3,0.3,0.5,0.5s0.3,0.5,0.5,0.8l3.2,6
		c0.2,0.4,0.4,0.7,0.6,1.1c0.2,0.4,0.4,0.7,0.5,1.1s0.3,0.7,0.5,1s0.3,0.7,0.5,1l0,0c0-0.6,0-1.2-0.1-1.9c0-0.6,0-1.3,0-1.8v-7.7
		c0-0.1,0-0.2,0.1-0.2c0.1-0.1,0.1-0.1,0.3-0.2s0.3-0.1,0.5-0.1s0.4,0,0.8,0c0.3,0,0.5,0,0.7,0s0.3,0.1,0.5,0.1s0.2,0.1,0.2,0.2
		c0,0.1,0.1,0.1,0.1,0.2L300.3,238.3L300.3,238.3z M306.9,239.1c0,0.1,0,0.2-0.1,0.2c-0.1,0.1-0.1,0.1-0.3,0.2
		c-0.1,0-0.3,0.1-0.5,0.1s-0.5,0-0.8,0s-0.6,0-0.8,0c-0.2,0-0.4-0.1-0.5-0.1s-0.2-0.1-0.3-0.2c-0.1-0.1-0.1-0.1-0.1-0.2v-11.3
		c0-0.1,0-0.2,0.1-0.2c0.1-0.1,0.1-0.1,0.3-0.2c0.1,0,0.3-0.1,0.5-0.1s0.5,0,0.8,0s0.6,0,0.8,0c0.2,0,0.4,0.1,0.5,0.1
		s0.2,0.1,0.3,0.2c0.1,0.1,0.1,0.1,0.1,0.2V239.1z M306.7,225.2c-0.3,0.2-0.7,0.4-1.5,0.4c-0.7,0-1.2-0.1-1.5-0.4s-0.4-0.7-0.4-1.3
		s0.1-1.1,0.4-1.3s0.7-0.4,1.5-0.4c0.7,0,1.2,0.1,1.4,0.4c0.3,0.2,0.4,0.7,0.4,1.3C307.1,224.5,307,225,306.7,225.2z"/>
	<path class="st0" d="M427.6,202.2c-15.9,0-28.7,12.8-28.7,28.7s12.8,28.7,28.7,28.7s28.7-12.8,28.7-28.7S443.5,202.2,427.6,202.2z
		 M431,238.3c0,0.2,0,0.4-0.1,0.5c-0.1,0.2-0.2,0.3-0.3,0.4c-0.1,0.1-0.3,0.2-0.4,0.2c-0.2,0-0.3,0.1-0.5,0.1h-1.4
		c-0.3,0-0.6,0-0.8-0.1s-0.4-0.2-0.6-0.3c-0.2-0.2-0.4-0.4-0.5-0.6c-0.2-0.3-0.4-0.6-0.6-1l-4.1-7.7c-0.2-0.5-0.5-1-0.7-1.5
		s-0.5-1-0.7-1.5l0,0c0,0.6,0.1,1.2,0.1,1.8s0,1.2,0,1.9v8.6c0,0.1,0,0.2-0.1,0.2c0,0.1-0.1,0.1-0.2,0.2s-0.3,0.1-0.5,0.1
		s-0.4,0-0.8,0c-0.3,0-0.5,0-0.7,0s-0.3-0.1-0.5-0.1c-0.1,0-0.2-0.1-0.2-0.2c0-0.1-0.1-0.1-0.1-0.2v-14.8c0-0.4,0.1-0.7,0.3-0.9
		s0.5-0.3,0.9-0.3h1.8c0.3,0,0.6,0,0.8,0.1s0.4,0.1,0.6,0.3c0.2,0.1,0.3,0.3,0.5,0.5s0.3,0.5,0.5,0.8l3.2,6c0.2,0.4,0.4,0.7,0.6,1.1
		c0.2,0.4,0.4,0.7,0.5,1.1s0.3,0.7,0.5,1s0.3,0.7,0.5,1l0,0c0-0.6,0-1.2-0.1-1.9c0-0.6,0-1.3,0-1.8v-7.7c0-0.1,0-0.2,0.1-0.2
		c0.1-0.1,0.1-0.1,0.3-0.2s0.3-0.1,0.5-0.1s0.4,0,0.8,0c0.3,0,0.5,0,0.7,0s0.3,0.1,0.5,0.1s0.2,0.1,0.2,0.2c0,0.1,0.1,0.1,0.1,0.2
		L431,238.3L431,238.3z M437.6,239.1c0,0.1,0,0.2-0.1,0.2c-0.1,0.1-0.1,0.1-0.3,0.2c-0.1,0-0.3,0.1-0.5,0.1s-0.5,0-0.8,0
		s-0.6,0-0.8,0s-0.4-0.1-0.5-0.1s-0.2-0.1-0.3-0.2c-0.1-0.1-0.1-0.1-0.1-0.2v-11.3c0-0.1,0-0.2,0.1-0.2c0.1-0.1,0.1-0.1,0.3-0.2
		c0.1,0,0.3-0.1,0.5-0.1s0.5,0,0.8,0s0.6,0,0.8,0s0.4,0.1,0.5,0.1s0.2,0.1,0.3,0.2c0.1,0.1,0.1,0.1,0.1,0.2V239.1z M437.4,225.2
		c-0.3,0.2-0.7,0.4-1.5,0.4c-0.7,0-1.2-0.1-1.5-0.4s-0.4-0.7-0.4-1.3s0.1-1.1,0.4-1.3s0.7-0.4,1.5-0.4c0.7,0,1.2,0.1,1.4,0.4
		c0.3,0.2,0.4,0.7,0.4,1.3C437.8,224.5,437.7,225,437.4,225.2z"/>
	<path class="st0" d="M558.4,202.2c-15.9,0-28.7,12.8-28.7,28.7s12.8,28.7,28.7,28.7s28.7-12.8,28.7-28.7S574.3,202.2,558.4,202.2z
		 M561.8,238.3c0,0.2,0,0.4-0.1,0.5c-0.1,0.2-0.2,0.3-0.3,0.4c-0.1,0.1-0.3,0.2-0.4,0.2c-0.2,0-0.3,0.1-0.5,0.1h-1.4
		c-0.3,0-0.6,0-0.8-0.1s-0.4-0.2-0.6-0.3c-0.2-0.2-0.4-0.4-0.5-0.6c-0.2-0.3-0.4-0.6-0.6-1l-4.1-7.7c-0.2-0.5-0.5-1-0.7-1.5
		s-0.5-1-0.7-1.5l0,0c0,0.6,0.1,1.2,0.1,1.8s0,1.2,0,1.9v8.6c0,0.1,0,0.2-0.1,0.2c0,0.1-0.1,0.1-0.2,0.2s-0.3,0.1-0.5,0.1
		s-0.4,0-0.8,0c-0.3,0-0.5,0-0.7,0s-0.3-0.1-0.5-0.1c-0.1,0-0.2-0.1-0.2-0.2c0-0.1-0.1-0.1-0.1-0.2v-14.8c0-0.4,0.1-0.7,0.3-0.9
		s0.5-0.3,0.9-0.3h1.8c0.3,0,0.6,0,0.8,0.1s0.4,0.1,0.6,0.3c0.2,0.1,0.3,0.3,0.5,0.5s0.3,0.5,0.5,0.8l3.2,6c0.2,0.4,0.4,0.7,0.6,1.1
		c0.2,0.4,0.4,0.7,0.5,1.1s0.3,0.7,0.5,1s0.3,0.7,0.5,1l0,0c0-0.6,0-1.2-0.1-1.9c0-0.6,0-1.3,0-1.8v-7.7c0-0.1,0-0.2,0.1-0.2
		c0.1-0.1,0.1-0.1,0.3-0.2s0.3-0.1,0.5-0.1s0.4,0,0.8,0c0.3,0,0.5,0,0.7,0s0.3,0.1,0.5,0.1s0.2,0.1,0.2,0.2c0,0.1,0.1,0.1,0.1,0.2
		L561.8,238.3L561.8,238.3z M568.4,239.1c0,0.1,0,0.2-0.1,0.2c-0.1,0.1-0.1,0.1-0.3,0.2c-0.1,0-0.3,0.1-0.5,0.1s-0.5,0-0.8,0
		s-0.6,0-0.8,0s-0.4-0.1-0.5-0.1s-0.2-0.1-0.3-0.2c-0.1-0.1-0.1-0.1-0.1-0.2v-11.3c0-0.1,0-0.2,0.1-0.2c0.1-0.1,0.1-0.1,0.3-0.2
		c0.1,0,0.3-0.1,0.5-0.1s0.5,0,0.8,0s0.6,0,0.8,0s0.4,0.1,0.5,0.1s0.2,0.1,0.3,0.2c0.1,0.1,0.1,0.1,0.1,0.2V239.1z M568.2,225.2
		c-0.3,0.2-0.7,0.4-1.5,0.4c-0.7,0-1.2-0.1-1.5-0.4s-0.4-0.7-0.4-1.3s0.1-1.1,0.4-1.3s0.7-0.4,1.5-0.4c0.7,0,1.2,0.1,1.4,0.4
		c0.3,0.2,0.4,0.7,0.4,1.3C568.6,224.5,568.5,225,568.2,225.2z"/>
	<path class="st0" d="M100.8,136.8c-15.9,0-28.7,12.8-28.7,28.7s12.8,28.7,28.7,28.7s28.7-12.8,28.7-28.7
		C129.5,149.7,116.7,136.8,100.8,136.8z M104.1,172.9c0,0.2,0,0.4-0.1,0.5c-0.1,0.2-0.2,0.3-0.3,0.4c-0.1,0.1-0.3,0.2-0.4,0.2
		c-0.2,0-0.3,0.1-0.5,0.1h-1.4c-0.3,0-0.6,0-0.8-0.1c-0.2-0.1-0.4-0.2-0.6-0.3c-0.2-0.2-0.4-0.4-0.5-0.6c-0.2-0.3-0.4-0.6-0.6-1
		l-4.1-7.7c-0.2-0.5-0.5-1-0.7-1.5s-0.5-1-0.7-1.5l0,0c0,0.6,0.1,1.2,0.1,1.8c0,0.6,0,1.2,0,1.9v8.6c0,0.1,0,0.2-0.1,0.2
		c0,0.1-0.1,0.1-0.2,0.2s-0.3,0.1-0.5,0.1s-0.4,0-0.8,0c-0.3,0-0.5,0-0.7,0s-0.3-0.1-0.5-0.1c-0.1,0-0.2-0.1-0.2-0.2
		s-0.1-0.1-0.1-0.2v-14.8c0-0.4,0.1-0.7,0.3-0.9c0.2-0.2,0.5-0.3,0.9-0.3h1.8c0.3,0,0.6,0,0.8,0.1c0.2,0.1,0.4,0.1,0.6,0.3
		c0.2,0.1,0.3,0.3,0.5,0.5s0.3,0.5,0.5,0.8l3.2,6c0.2,0.4,0.4,0.7,0.6,1.1c0.2,0.4,0.4,0.7,0.5,1.1c0.1,0.4,0.3,0.7,0.5,1
		s0.3,0.7,0.5,1l0,0c0-0.6,0-1.2-0.1-1.9c0-0.6,0-1.3,0-1.8v-7.7c0-0.1,0-0.2,0.1-0.2c0.1-0.1,0.1-0.1,0.3-0.2
		c0.2-0.1,0.3-0.1,0.5-0.1s0.4,0,0.8,0c0.3,0,0.5,0,0.7,0s0.3,0.1,0.5,0.1s0.2,0.1,0.2,0.2c0,0.1,0.1,0.1,0.1,0.2L104.1,172.9
		L104.1,172.9z M110.7,173.7c0,0.1,0,0.2-0.1,0.2c-0.1,0.1-0.1,0.1-0.3,0.2c-0.1,0-0.3,0.1-0.5,0.1s-0.5,0-0.8,0s-0.6,0-0.8,0
		c-0.2,0-0.4-0.1-0.5-0.1s-0.2-0.1-0.3-0.2c-0.1-0.1-0.1-0.1-0.1-0.2v-11.3c0-0.1,0-0.2,0.1-0.2c0.1-0.1,0.1-0.1,0.3-0.2
		c0.1,0,0.3-0.1,0.5-0.1s0.5,0,0.8,0s0.6,0,0.8,0c0.2,0,0.4,0.1,0.5,0.1s0.2,0.1,0.3,0.2c0.1,0.1,0.1,0.1,0.1,0.2V173.7z
		 M110.5,159.8c-0.3,0.2-0.7,0.4-1.5,0.4c-0.7,0-1.2-0.1-1.5-0.4s-0.4-0.7-0.4-1.3c0-0.6,0.1-1.1,0.4-1.3c0.3-0.2,0.7-0.4,1.5-0.4
		c0.7,0,1.2,0.1,1.4,0.4c0.3,0.2,0.4,0.7,0.4,1.3C110.9,159.1,110.8,159.6,110.5,159.8z"/>
	<path class="st0" d="M231.5,136.8c-15.9,0-28.7,12.8-28.7,28.7s12.8,28.7,28.7,28.7s28.7-12.8,28.7-28.7
		C260.2,149.7,247.4,136.8,231.5,136.8z M234.9,172.9c0,0.2,0,0.4-0.1,0.5c-0.1,0.2-0.2,0.3-0.3,0.4c-0.1,0.1-0.3,0.2-0.4,0.2
		c-0.2,0-0.3,0.1-0.5,0.1h-1.4c-0.3,0-0.6,0-0.8-0.1c-0.2-0.1-0.4-0.2-0.6-0.3c-0.2-0.2-0.4-0.4-0.5-0.6c-0.2-0.3-0.4-0.6-0.6-1
		l-4.1-7.7c-0.2-0.5-0.5-1-0.7-1.5s-0.5-1-0.7-1.5l0,0c0,0.6,0.1,1.2,0.1,1.8c0,0.6,0,1.2,0,1.9v8.6c0,0.1,0,0.2-0.1,0.2
		c0,0.1-0.1,0.1-0.2,0.2s-0.3,0.1-0.5,0.1s-0.4,0-0.8,0c-0.3,0-0.5,0-0.7,0s-0.3-0.1-0.5-0.1c-0.1,0-0.2-0.1-0.2-0.2
		s-0.1-0.1-0.1-0.2v-14.8c0-0.4,0.1-0.7,0.3-0.9c0.2-0.2,0.5-0.3,0.9-0.3h1.8c0.3,0,0.6,0,0.8,0.1c0.2,0.1,0.4,0.1,0.6,0.3
		c0.2,0.1,0.3,0.3,0.5,0.5s0.3,0.5,0.5,0.8l3.2,6c0.2,0.4,0.4,0.7,0.6,1.1c0.2,0.4,0.4,0.7,0.5,1.1c0.1,0.4,0.3,0.7,0.5,1
		s0.3,0.7,0.5,1l0,0c0-0.6,0-1.2-0.1-1.9c0-0.6,0-1.3,0-1.8v-7.7c0-0.1,0-0.2,0.1-0.2c0.1-0.1,0.1-0.1,0.3-0.2
		c0.2-0.1,0.3-0.1,0.5-0.1s0.4,0,0.8,0c0.3,0,0.5,0,0.7,0s0.3,0.1,0.5,0.1s0.2,0.1,0.2,0.2c0,0.1,0.1,0.1,0.1,0.2L234.9,172.9
		L234.9,172.9z M241.5,173.7c0,0.1,0,0.2-0.1,0.2c-0.1,0.1-0.1,0.1-0.3,0.2c-0.1,0-0.3,0.1-0.5,0.1s-0.5,0-0.8,0s-0.6,0-0.8,0
		c-0.2,0-0.4-0.1-0.5-0.1s-0.2-0.1-0.3-0.2c-0.1-0.1-0.1-0.1-0.1-0.2v-11.3c0-0.1,0-0.2,0.1-0.2c0.1-0.1,0.1-0.1,0.3-0.2
		c0.1,0,0.3-0.1,0.5-0.1s0.5,0,0.8,0s0.6,0,0.8,0c0.2,0,0.4,0.1,0.5,0.1s0.2,0.1,0.3,0.2c0.1,0.1,0.1,0.1,0.1,0.2V173.7z
		 M241.3,159.8c-0.3,0.2-0.7,0.4-1.5,0.4c-0.7,0-1.2-0.1-1.5-0.4s-0.4-0.7-0.4-1.3c0-0.6,0.1-1.1,0.4-1.3c0.3-0.2,0.7-0.4,1.5-0.4
		c0.7,0,1.2,0.1,1.4,0.4c0.3,0.2,0.4,0.7,0.4,1.3C241.7,159.1,241.6,159.6,241.3,159.8z"/>
	<path class="st0" d="M362.3,136.8c-15.9,0-28.7,12.8-28.7,28.7s12.8,28.7,28.7,28.7s28.7-12.8,28.7-28.7
		C391,149.7,378.2,136.8,362.3,136.8z M365.6,172.9c0,0.2,0,0.4-0.1,0.5c-0.1,0.2-0.2,0.3-0.3,0.4s-0.3,0.2-0.4,0.2
		c-0.2,0-0.3,0.1-0.5,0.1h-1.4c-0.3,0-0.6,0-0.8-0.1s-0.4-0.2-0.6-0.3c-0.2-0.2-0.4-0.4-0.5-0.6c-0.2-0.3-0.4-0.6-0.6-1l-4.1-7.7
		c-0.2-0.5-0.5-1-0.7-1.5s-0.5-1-0.7-1.5l0,0c0,0.6,0.1,1.2,0.1,1.8c0,0.6,0,1.2,0,1.9v8.6c0,0.1,0,0.2-0.1,0.2
		c0,0.1-0.1,0.1-0.2,0.2s-0.3,0.1-0.5,0.1s-0.4,0-0.8,0c-0.3,0-0.5,0-0.7,0s-0.3-0.1-0.5-0.1c-0.1,0-0.2-0.1-0.2-0.2
		s-0.1-0.1-0.1-0.2v-14.8c0-0.4,0.1-0.7,0.3-0.9c0.2-0.2,0.5-0.3,0.9-0.3h1.8c0.3,0,0.6,0,0.8,0.1c0.2,0.1,0.4,0.1,0.6,0.3
		c0.2,0.1,0.3,0.3,0.5,0.5s0.3,0.5,0.5,0.8l3.2,6c0.2,0.4,0.4,0.7,0.6,1.1c0.2,0.4,0.4,0.7,0.5,1.1c0.1,0.4,0.3,0.7,0.5,1
		s0.3,0.7,0.5,1l0,0c0-0.6,0-1.2-0.1-1.9c0-0.6,0-1.3,0-1.8v-7.7c0-0.1,0-0.2,0.1-0.2c0.1-0.1,0.1-0.1,0.3-0.2
		c0.2-0.1,0.3-0.1,0.5-0.1s0.4,0,0.8,0c0.3,0,0.5,0,0.7,0s0.3,0.1,0.5,0.1s0.2,0.1,0.2,0.2c0,0.1,0.1,0.1,0.1,0.2L365.6,172.9
		L365.6,172.9z M372.2,173.7c0,0.1,0,0.2-0.1,0.2c-0.1,0.1-0.1,0.1-0.3,0.2c-0.1,0-0.3,0.1-0.5,0.1s-0.5,0-0.8,0s-0.6,0-0.8,0
		s-0.4-0.1-0.5-0.1s-0.2-0.1-0.3-0.2s-0.1-0.1-0.1-0.2v-11.3c0-0.1,0-0.2,0.1-0.2c0.1-0.1,0.1-0.1,0.3-0.2c0.1,0,0.3-0.1,0.5-0.1
		s0.5,0,0.8,0s0.6,0,0.8,0s0.4,0.1,0.5,0.1s0.2,0.1,0.3,0.2c0.1,0.1,0.1,0.1,0.1,0.2V173.7z M372,159.8c-0.3,0.2-0.7,0.4-1.5,0.4
		c-0.7,0-1.2-0.1-1.5-0.4s-0.4-0.7-0.4-1.3c0-0.6,0.1-1.1,0.4-1.3c0.3-0.2,0.7-0.4,1.5-0.4c0.7,0,1.2,0.1,1.4,0.4
		c0.3,0.2,0.4,0.7,0.4,1.3C372.4,159.1,372.3,159.6,372,159.8z"/>
	<path class="st0" d="M493,136.8c-15.9,0-28.7,12.8-28.7,28.7s12.8,28.7,28.7,28.7s28.7-12.8,28.7-28.7
		C521.7,149.7,508.9,136.8,493,136.8z M496.4,172.9c0,0.2,0,0.4-0.1,0.5c-0.1,0.2-0.2,0.3-0.3,0.4s-0.3,0.2-0.4,0.2
		c-0.2,0-0.3,0.1-0.5,0.1h-1.4c-0.3,0-0.6,0-0.8-0.1s-0.4-0.2-0.6-0.3c-0.2-0.2-0.4-0.4-0.5-0.6c-0.2-0.3-0.4-0.6-0.6-1l-4.1-7.7
		c-0.2-0.5-0.5-1-0.7-1.5s-0.5-1-0.7-1.5l0,0c0,0.6,0.1,1.2,0.1,1.8c0,0.6,0,1.2,0,1.9v8.6c0,0.1,0,0.2-0.1,0.2
		c0,0.1-0.1,0.1-0.2,0.2s-0.3,0.1-0.5,0.1s-0.4,0-0.8,0c-0.3,0-0.5,0-0.7,0s-0.3-0.1-0.5-0.1c-0.1,0-0.2-0.1-0.2-0.2
		s-0.1-0.1-0.1-0.2v-14.8c0-0.4,0.1-0.7,0.3-0.9c0.2-0.2,0.5-0.3,0.9-0.3h1.8c0.3,0,0.6,0,0.8,0.1c0.2,0.1,0.4,0.1,0.6,0.3
		c0.2,0.1,0.3,0.3,0.5,0.5s0.3,0.5,0.5,0.8l3.2,6c0.2,0.4,0.4,0.7,0.6,1.1c0.2,0.4,0.4,0.7,0.5,1.1c0.1,0.4,0.3,0.7,0.5,1
		s0.3,0.7,0.5,1l0,0c0-0.6,0-1.2-0.1-1.9c0-0.6,0-1.3,0-1.8v-7.7c0-0.1,0-0.2,0.1-0.2c0.1-0.1,0.1-0.1,0.3-0.2
		c0.2-0.1,0.3-0.1,0.5-0.1s0.4,0,0.8,0c0.3,0,0.5,0,0.7,0s0.3,0.1,0.5,0.1s0.2,0.1,0.2,0.2c0,0.1,0.1,0.1,0.1,0.2L496.4,172.9
		L496.4,172.9z M503,173.7c0,0.1,0,0.2-0.1,0.2c-0.1,0.1-0.1,0.1-0.3,0.2c-0.1,0-0.3,0.1-0.5,0.1s-0.5,0-0.8,0s-0.6,0-0.8,0
		s-0.4-0.1-0.5-0.1s-0.2-0.1-0.3-0.2s-0.1-0.1-0.1-0.2v-11.3c0-0.1,0-0.2,0.1-0.2c0.1-0.1,0.1-0.1,0.3-0.2c0.1,0,0.3-0.1,0.5-0.1
		s0.5,0,0.8,0s0.6,0,0.8,0s0.4,0.1,0.5,0.1s0.2,0.1,0.3,0.2c0.1,0.1,0.1,0.1,0.1,0.2V173.7z M502.8,159.8c-0.3,0.2-0.7,0.4-1.5,0.4
		c-0.7,0-1.2-0.1-1.5-0.4s-0.4-0.7-0.4-1.3c0-0.6,0.1-1.1,0.4-1.3c0.3-0.2,0.7-0.4,1.5-0.4c0.7,0,1.2,0.1,1.4,0.4
		c0.3,0.2,0.4,0.7,0.4,1.3C503.2,159.1,503.1,159.6,502.8,159.8z"/>
	<path class="st0" d="M100.8,6C84.9,6,72.1,18.8,72.1,34.7s12.8,28.7,28.7,28.7s28.7-12.8,28.7-28.7C129.5,18.9,116.7,6,100.8,6z
		 M104.1,42.1c0,0.2,0,0.4-0.1,0.5c-0.1,0.2-0.2,0.3-0.3,0.4c-0.1,0.1-0.3,0.2-0.4,0.2c-0.2,0-0.3,0.1-0.5,0.1h-1.4
		c-0.3,0-0.6,0-0.8-0.1c-0.2-0.1-0.4-0.2-0.6-0.3c-0.2-0.2-0.4-0.4-0.5-0.6c-0.2-0.3-0.4-0.6-0.6-1l-4.1-7.7c-0.2-0.5-0.5-1-0.7-1.5
		c-0.2-0.5-0.5-1-0.7-1.5l0,0c0,0.6,0.1,1.2,0.1,1.8c0,0.6,0,1.2,0,1.9v8.6c0,0.1,0,0.2-0.1,0.2c0,0.1-0.1,0.1-0.2,0.2
		s-0.3,0.1-0.5,0.1s-0.4,0-0.8,0c-0.3,0-0.5,0-0.7,0s-0.3-0.1-0.5-0.1c-0.1,0-0.2-0.1-0.2-0.2s-0.1-0.1-0.1-0.2V28.1
		c0-0.4,0.1-0.7,0.3-0.9c0.2-0.2,0.5-0.3,0.9-0.3h1.8c0.3,0,0.6,0,0.8,0.1c0.2,0.1,0.4,0.1,0.6,0.3c0.2,0.1,0.3,0.3,0.5,0.5
		s0.3,0.5,0.5,0.8l3.2,6c0.2,0.4,0.4,0.7,0.6,1.1s0.4,0.7,0.5,1.1s0.3,0.7,0.5,1s0.3,0.7,0.5,1l0,0c0-0.6,0-1.2-0.1-1.9
		c0-0.6,0-1.3,0-1.8v-7.7c0-0.1,0-0.2,0.1-0.2c0.1-0.1,0.1-0.1,0.3-0.2s0.3-0.1,0.5-0.1s0.4,0,0.8,0c0.3,0,0.5,0,0.7,0
		s0.3,0.1,0.5,0.1s0.2,0.1,0.2,0.2s0.1,0.1,0.1,0.2L104.1,42.1L104.1,42.1z M110.7,42.9c0,0.1,0,0.2-0.1,0.2
		c-0.1,0.1-0.1,0.1-0.3,0.2c-0.1,0-0.3,0.1-0.5,0.1s-0.5,0-0.8,0s-0.6,0-0.8,0c-0.2,0-0.4-0.1-0.5-0.1s-0.2-0.1-0.3-0.2
		c-0.1-0.1-0.1-0.1-0.1-0.2V31.6c0-0.1,0-0.2,0.1-0.2c0.1-0.1,0.1-0.1,0.3-0.2c0.1,0,0.3-0.1,0.5-0.1s0.5,0,0.8,0s0.6,0,0.8,0
		c0.2,0,0.4,0.1,0.5,0.1s0.2,0.1,0.3,0.2c0.1,0.1,0.1,0.1,0.1,0.2V42.9z M110.5,29c-0.3,0.2-0.7,0.4-1.5,0.4c-0.7,0-1.2-0.1-1.5-0.4
		s-0.4-0.7-0.4-1.3c0-0.6,0.1-1.1,0.4-1.3s0.7-0.4,1.5-0.4c0.7,0,1.2,0.1,1.4,0.4c0.3,0.2,0.4,0.7,0.4,1.3
		C110.9,28.3,110.8,28.8,110.5,29z"/>
	<path class="st0" d="M231.5,6c-15.9,0-28.7,12.8-28.7,28.7s12.8,28.7,28.7,28.7s28.7-12.8,28.7-28.7C260.2,18.9,247.4,6,231.5,6z
		 M234.9,42.1c0,0.2,0,0.4-0.1,0.5c-0.1,0.2-0.2,0.3-0.3,0.4c-0.1,0.1-0.3,0.2-0.4,0.2c-0.2,0-0.3,0.1-0.5,0.1h-1.4
		c-0.3,0-0.6,0-0.8-0.1c-0.2-0.1-0.4-0.2-0.6-0.3c-0.2-0.2-0.4-0.4-0.5-0.6c-0.2-0.3-0.4-0.6-0.6-1l-4.1-7.7c-0.2-0.5-0.5-1-0.7-1.5
		c-0.2-0.5-0.5-1-0.7-1.5l0,0c0,0.6,0.1,1.2,0.1,1.8c0,0.6,0,1.2,0,1.9v8.6c0,0.1,0,0.2-0.1,0.2c0,0.1-0.1,0.1-0.2,0.2
		s-0.3,0.1-0.5,0.1s-0.4,0-0.8,0c-0.3,0-0.5,0-0.7,0s-0.3-0.1-0.5-0.1c-0.1,0-0.2-0.1-0.2-0.2s-0.1-0.1-0.1-0.2V28.1
		c0-0.4,0.1-0.7,0.3-0.9c0.2-0.2,0.5-0.3,0.9-0.3h1.8c0.3,0,0.6,0,0.8,0.1c0.2,0.1,0.4,0.1,0.6,0.3c0.2,0.1,0.3,0.3,0.5,0.5
		s0.3,0.5,0.5,0.8l3.2,6c0.2,0.4,0.4,0.7,0.6,1.1s0.4,0.7,0.5,1.1s0.3,0.7,0.5,1s0.3,0.7,0.5,1l0,0c0-0.6,0-1.2-0.1-1.9
		c0-0.6,0-1.3,0-1.8v-7.7c0-0.1,0-0.2,0.1-0.2c0.1-0.1,0.1-0.1,0.3-0.2s0.3-0.1,0.5-0.1s0.4,0,0.8,0c0.3,0,0.5,0,0.7,0
		s0.3,0.1,0.5,0.1s0.2,0.1,0.2,0.2s0.1,0.1,0.1,0.2L234.9,42.1L234.9,42.1z M241.5,42.9c0,0.1,0,0.2-0.1,0.2
		c-0.1,0.1-0.1,0.1-0.3,0.2c-0.1,0-0.3,0.1-0.5,0.1s-0.5,0-0.8,0s-0.6,0-0.8,0c-0.2,0-0.4-0.1-0.5-0.1s-0.2-0.1-0.3-0.2
		c-0.1-0.1-0.1-0.1-0.1-0.2V31.6c0-0.1,0-0.2,0.1-0.2c0.1-0.1,0.1-0.1,0.3-0.2c0.1,0,0.3-0.1,0.5-0.1s0.5,0,0.8,0s0.6,0,0.8,0
		c0.2,0,0.4,0.1,0.5,0.1s0.2,0.1,0.3,0.2c0.1,0.1,0.1,0.1,0.1,0.2V42.9z M241.3,29c-0.3,0.2-0.7,0.4-1.5,0.4c-0.7,0-1.2-0.1-1.5-0.4
		s-0.4-0.7-0.4-1.3c0-0.6,0.1-1.1,0.4-1.3s0.7-0.4,1.5-0.4c0.7,0,1.2,0.1,1.4,0.4c0.3,0.2,0.4,0.7,0.4,1.3
		C241.7,28.3,241.6,28.8,241.3,29z"/>
	<path class="st0" d="M362.3,6c-15.9,0-28.7,12.8-28.7,28.7s12.8,28.7,28.7,28.7S391,50.6,391,34.7C391,18.9,378.2,6,362.3,6z
		 M365.6,42.1c0,0.2,0,0.4-0.1,0.5c-0.1,0.2-0.2,0.3-0.3,0.4s-0.3,0.2-0.4,0.2c-0.2,0-0.3,0.1-0.5,0.1h-1.4c-0.3,0-0.6,0-0.8-0.1
		s-0.4-0.2-0.6-0.3c-0.2-0.2-0.4-0.4-0.5-0.6c-0.2-0.3-0.4-0.6-0.6-1l-4.1-7.7c-0.2-0.5-0.5-1-0.7-1.5c-0.2-0.5-0.5-1-0.7-1.5l0,0
		c0,0.6,0.1,1.2,0.1,1.8c0,0.6,0,1.2,0,1.9v8.6c0,0.1,0,0.2-0.1,0.2c0,0.1-0.1,0.1-0.2,0.2s-0.3,0.1-0.5,0.1s-0.4,0-0.8,0
		c-0.3,0-0.5,0-0.7,0s-0.3-0.1-0.5-0.1c-0.1,0-0.2-0.1-0.2-0.2s-0.1-0.1-0.1-0.2V28.1c0-0.4,0.1-0.7,0.3-0.9
		c0.2-0.2,0.5-0.3,0.9-0.3h1.8c0.3,0,0.6,0,0.8,0.1s0.4,0.1,0.6,0.3c0.2,0.1,0.3,0.3,0.5,0.5s0.3,0.5,0.5,0.8l3.2,6
		c0.2,0.4,0.4,0.7,0.6,1.1c0.2,0.4,0.4,0.7,0.5,1.1s0.3,0.7,0.5,1s0.3,0.7,0.5,1l0,0c0-0.6,0-1.2-0.1-1.9c0-0.6,0-1.3,0-1.8v-7.7
		c0-0.1,0-0.2,0.1-0.2c0.1-0.1,0.1-0.1,0.3-0.2s0.3-0.1,0.5-0.1s0.4,0,0.8,0c0.3,0,0.5,0,0.7,0s0.3,0.1,0.5,0.1s0.2,0.1,0.2,0.2
		s0.1,0.1,0.1,0.2L365.6,42.1L365.6,42.1z M372.2,42.9c0,0.1,0,0.2-0.1,0.2c-0.1,0.1-0.1,0.1-0.3,0.2c-0.1,0-0.3,0.1-0.5,0.1
		s-0.5,0-0.8,0s-0.6,0-0.8,0s-0.4-0.1-0.5-0.1s-0.2-0.1-0.3-0.2s-0.1-0.1-0.1-0.2V31.6c0-0.1,0-0.2,0.1-0.2c0.1-0.1,0.1-0.1,0.3-0.2
		c0.1,0,0.3-0.1,0.5-0.1s0.5,0,0.8,0s0.6,0,0.8,0s0.4,0.1,0.5,0.1s0.2,0.1,0.3,0.2s0.1,0.1,0.1,0.2V42.9z M372,29
		c-0.3,0.2-0.7,0.4-1.5,0.4c-0.7,0-1.2-0.1-1.5-0.4s-0.4-0.7-0.4-1.3c0-0.6,0.1-1.1,0.4-1.3s0.7-0.4,1.5-0.4c0.7,0,1.2,0.1,1.4,0.4
		c0.3,0.2,0.4,0.7,0.4,1.3C372.4,28.3,372.3,28.8,372,29z"/>
	<path class="st0" d="M493,6c-15.9,0-28.7,12.8-28.7,28.7s12.8,28.7,28.7,28.7s28.7-12.8,28.7-28.7C521.7,18.9,508.9,6,493,6z
		 M496.4,42.1c0,0.2,0,0.4-0.1,0.5c-0.1,0.2-0.2,0.3-0.3,0.4s-0.3,0.2-0.4,0.2c-0.2,0-0.3,0.1-0.5,0.1h-1.4c-0.3,0-0.6,0-0.8-0.1
		s-0.4-0.2-0.6-0.3c-0.2-0.2-0.4-0.4-0.5-0.6c-0.2-0.3-0.4-0.6-0.6-1l-4.1-7.7c-0.2-0.5-0.5-1-0.7-1.5c-0.2-0.5-0.5-1-0.7-1.5l0,0
		c0,0.6,0.1,1.2,0.1,1.8c0,0.6,0,1.2,0,1.9v8.6c0,0.1,0,0.2-0.1,0.2c0,0.1-0.1,0.1-0.2,0.2s-0.3,0.1-0.5,0.1s-0.4,0-0.8,0
		c-0.3,0-0.5,0-0.7,0s-0.3-0.1-0.5-0.1c-0.1,0-0.2-0.1-0.2-0.2s-0.1-0.1-0.1-0.2V28.1c0-0.4,0.1-0.7,0.3-0.9
		c0.2-0.2,0.5-0.3,0.9-0.3h1.8c0.3,0,0.6,0,0.8,0.1s0.4,0.1,0.6,0.3c0.2,0.1,0.3,0.3,0.5,0.5s0.3,0.5,0.5,0.8l3.2,6
		c0.2,0.4,0.4,0.7,0.6,1.1c0.2,0.4,0.4,0.7,0.5,1.1s0.3,0.7,0.5,1s0.3,0.7,0.5,1l0,0c0-0.6,0-1.2-0.1-1.9c0-0.6,0-1.3,0-1.8v-7.7
		c0-0.1,0-0.2,0.1-0.2c0.1-0.1,0.1-0.1,0.3-0.2s0.3-0.1,0.5-0.1s0.4,0,0.8,0c0.3,0,0.5,0,0.7,0s0.3,0.1,0.5,0.1s0.2,0.1,0.2,0.2
		s0.1,0.1,0.1,0.2L496.4,42.1L496.4,42.1z M503,42.9c0,0.1,0,0.2-0.1,0.2c-0.1,0.1-0.1,0.1-0.3,0.2c-0.1,0-0.3,0.1-0.5,0.1
		s-0.5,0-0.8,0s-0.6,0-0.8,0s-0.4-0.1-0.5-0.1s-0.2-0.1-0.3-0.2s-0.1-0.1-0.1-0.2V31.6c0-0.1,0-0.2,0.1-0.2c0.1-0.1,0.1-0.1,0.3-0.2
		c0.1,0,0.3-0.1,0.5-0.1s0.5,0,0.8,0s0.6,0,0.8,0s0.4,0.1,0.5,0.1s0.2,0.1,0.3,0.2s0.1,0.1,0.1,0.2V42.9z M502.8,29
		c-0.3,0.2-0.7,0.4-1.5,0.4c-0.7,0-1.2-0.1-1.5-0.4s-0.4-0.7-0.4-1.3c0-0.6,0.1-1.1,0.4-1.3s0.7-0.4,1.5-0.4c0.7,0,1.2,0.1,1.4,0.4
		c0.3,0.2,0.4,0.7,0.4,1.3C503.2,28.3,503.1,28.8,502.8,29z"/>
	<path class="st0" d="M427.6,71.4c-15.9,0-28.7,12.8-28.7,28.7s12.8,28.7,28.7,28.7s28.7-12.8,28.7-28.7
		C456.3,84.3,443.5,71.4,427.6,71.4z M431,107.5c0,0.2,0,0.4-0.1,0.5c-0.1,0.2-0.2,0.3-0.3,0.4s-0.3,0.2-0.4,0.2
		c-0.2,0-0.3,0.1-0.5,0.1h-1.4c-0.3,0-0.6,0-0.8-0.1s-0.4-0.2-0.6-0.3c-0.2-0.2-0.4-0.4-0.5-0.6c-0.2-0.3-0.4-0.6-0.6-1l-4.1-7.7
		c-0.2-0.5-0.5-1-0.7-1.5s-0.5-1-0.7-1.5l0,0c0,0.6,0.1,1.2,0.1,1.8c0,0.6,0,1.2,0,1.9v8.6c0,0.1,0,0.2-0.1,0.2
		c0,0.1-0.1,0.1-0.2,0.2s-0.3,0.1-0.5,0.1s-0.4,0-0.8,0c-0.3,0-0.5,0-0.7,0s-0.3-0.1-0.5-0.1c-0.1,0-0.2-0.1-0.2-0.2
		s-0.1-0.1-0.1-0.2V93.5c0-0.4,0.1-0.7,0.3-0.9c0.2-0.2,0.5-0.3,0.9-0.3h1.8c0.3,0,0.6,0,0.8,0.1s0.4,0.1,0.6,0.3
		c0.2,0.1,0.3,0.3,0.5,0.5s0.3,0.5,0.5,0.8l3.2,6c0.2,0.4,0.4,0.7,0.6,1.1c0.2,0.4,0.4,0.7,0.5,1.1s0.3,0.7,0.5,1s0.3,0.7,0.5,1l0,0
		c0-0.6,0-1.2-0.1-1.9c0-0.6,0-1.3,0-1.8v-7.7c0-0.1,0-0.2,0.1-0.2c0.1-0.1,0.1-0.1,0.3-0.2s0.3-0.1,0.5-0.1s0.4,0,0.8,0
		c0.3,0,0.5,0,0.7,0s0.3,0.1,0.5,0.1s0.2,0.1,0.2,0.2s0.1,0.1,0.1,0.2L431,107.5L431,107.5z M437.6,108.3c0,0.1,0,0.2-0.1,0.2
		c-0.1,0.1-0.1,0.1-0.3,0.2c-0.1,0-0.3,0.1-0.5,0.1s-0.5,0-0.8,0s-0.6,0-0.8,0s-0.4-0.1-0.5-0.1s-0.2-0.1-0.3-0.2s-0.1-0.1-0.1-0.2
		V97c0-0.1,0-0.2,0.1-0.2c0.1-0.1,0.1-0.1,0.3-0.2c0.1,0,0.3-0.1,0.5-0.1s0.5,0,0.8,0s0.6,0,0.8,0s0.4,0.1,0.5,0.1s0.2,0.1,0.3,0.2
		s0.1,0.1,0.1,0.2V108.3z M437.4,94.4c-0.3,0.2-0.7,0.4-1.5,0.4c-0.7,0-1.2-0.1-1.5-0.4s-0.4-0.7-0.4-1.3c0-0.6,0.1-1.1,0.4-1.3
		s0.7-0.4,1.5-0.4c0.7,0,1.2,0.1,1.4,0.4c0.3,0.2,0.4,0.7,0.4,1.3C437.8,93.7,437.7,94.2,437.4,94.4z"/>
	<path class="st0" d="M166.1,333c-15.9,0-28.7,12.8-28.7,28.7s12.8,28.7,28.7,28.7s28.7-12.8,28.7-28.7S182,333,166.1,333z
		 M169.5,369.1c0,0.2,0,0.4-0.1,0.5c-0.1,0.2-0.2,0.3-0.3,0.4c-0.1,0.1-0.3,0.2-0.4,0.2c-0.2,0-0.3,0.1-0.5,0.1h-1.4
		c-0.3,0-0.6,0-0.8-0.1c-0.2-0.1-0.4-0.2-0.6-0.3c-0.2-0.2-0.4-0.4-0.5-0.6c-0.2-0.3-0.4-0.6-0.6-1l-4.1-7.7c-0.2-0.5-0.5-1-0.7-1.5
		s-0.5-1-0.7-1.5l0,0c0,0.6,0.1,1.2,0.1,1.8s0,1.2,0,1.9v8.6c0,0.1,0,0.2-0.1,0.2c0,0.1-0.1,0.1-0.2,0.2c-0.1,0.1-0.3,0.1-0.5,0.1
		s-0.4,0-0.8,0c-0.3,0-0.5,0-0.7,0s-0.3-0.1-0.5-0.1c-0.1,0-0.2-0.1-0.2-0.2s-0.1-0.1-0.1-0.2v-14.8c0-0.4,0.1-0.7,0.3-0.9
		c0.2-0.2,0.5-0.3,0.9-0.3h1.8c0.3,0,0.6,0,0.8,0.1c0.2,0.1,0.4,0.1,0.6,0.3c0.2,0.1,0.3,0.3,0.5,0.5c0.2,0.2,0.3,0.5,0.5,0.8l3.2,6
		c0.2,0.4,0.4,0.7,0.6,1.1c0.2,0.4,0.4,0.7,0.5,1.1c0.1,0.4,0.3,0.7,0.5,1c0.2,0.3,0.3,0.7,0.5,1l0,0c0-0.6,0-1.2-0.1-1.9
		c0-0.6,0-1.3,0-1.8v-7.7c0-0.1,0-0.2,0.1-0.2c0.1-0.1,0.1-0.1,0.3-0.2c0.2-0.1,0.3-0.1,0.5-0.1s0.4,0,0.8,0c0.3,0,0.5,0,0.7,0
		s0.3,0.1,0.5,0.1s0.2,0.1,0.2,0.2c0,0.1,0.1,0.1,0.1,0.2L169.5,369.1L169.5,369.1z M176.1,369.9c0,0.1,0,0.2-0.1,0.2
		c-0.1,0.1-0.1,0.1-0.3,0.2c-0.1,0-0.3,0.1-0.5,0.1s-0.5,0-0.8,0s-0.6,0-0.8,0c-0.2,0-0.4-0.1-0.5-0.1s-0.2-0.1-0.3-0.2
		c-0.1-0.1-0.1-0.1-0.1-0.2v-11.3c0-0.1,0-0.2,0.1-0.2c0.1-0.1,0.1-0.1,0.3-0.2c0.1,0,0.3-0.1,0.5-0.1s0.5,0,0.8,0s0.6,0,0.8,0
		c0.2,0,0.4,0.1,0.5,0.1s0.2,0.1,0.3,0.2c0.1,0.1,0.1,0.1,0.1,0.2V369.9z M175.9,356c-0.3,0.2-0.7,0.4-1.5,0.4
		c-0.7,0-1.2-0.1-1.5-0.4s-0.4-0.7-0.4-1.3s0.1-1.1,0.4-1.3c0.3-0.2,0.7-0.4,1.5-0.4c0.7,0,1.2,0.1,1.4,0.4c0.3,0.2,0.4,0.7,0.4,1.3
		C176.3,355.3,176.2,355.8,175.9,356z"/>
	<path class="st0" d="M35.4,333c-15.9,0-28.7,12.8-28.7,28.7s12.8,28.7,28.7,28.7s28.7-12.8,28.7-28.7S51.3,333,35.4,333z
		 M38.8,369.1c0,0.2,0,0.4-0.1,0.5c-0.1,0.2-0.2,0.3-0.3,0.4c-0.1,0.1-0.3,0.2-0.4,0.2c-0.2,0-0.3,0.1-0.5,0.1h-1.4
		c-0.3,0-0.6,0-0.8-0.1c-0.2-0.1-0.4-0.2-0.6-0.3c-0.2-0.2-0.4-0.4-0.5-0.6c-0.2-0.3-0.4-0.6-0.6-1l-4.1-7.7c-0.2-0.5-0.5-1-0.7-1.5
		s-0.5-1-0.7-1.5l0,0c0,0.6,0.1,1.2,0.1,1.8s0,1.2,0,1.9v8.6c0,0.1,0,0.2-0.1,0.2c0,0.1-0.1,0.1-0.2,0.2c-0.1,0.1-0.3,0.1-0.5,0.1
		s-0.4,0-0.8,0c-0.3,0-0.5,0-0.7,0s-0.3-0.1-0.5-0.1c-0.1,0-0.2-0.1-0.2-0.2s-0.1-0.1-0.1-0.2v-14.8c0-0.4,0.1-0.7,0.3-0.9
		c0.2-0.2,0.5-0.3,0.9-0.3h1.8c0.3,0,0.6,0,0.8,0.1c0.2,0.1,0.4,0.1,0.6,0.3c0.2,0.1,0.3,0.3,0.5,0.5c0.2,0.2,0.3,0.5,0.5,0.8l3.2,6
		c0.2,0.4,0.4,0.7,0.6,1.1c0.2,0.4,0.4,0.7,0.5,1.1c0.1,0.4,0.3,0.7,0.5,1c0.2,0.3,0.3,0.7,0.5,1l0,0c0-0.6,0-1.2-0.1-1.9
		c0-0.6,0-1.3,0-1.8v-7.7c0-0.1,0-0.2,0.1-0.2c0.1-0.1,0.1-0.1,0.3-0.2c0.2-0.1,0.3-0.1,0.5-0.1s0.4,0,0.8,0c0.3,0,0.5,0,0.7,0
		s0.3,0.1,0.5,0.1s0.2,0.1,0.2,0.2c0,0.1,0.1,0.1,0.1,0.2L38.8,369.1L38.8,369.1z M45.4,369.9c0,0.1,0,0.2-0.1,0.2
		c-0.1,0.1-0.1,0.1-0.3,0.2c-0.1,0-0.3,0.1-0.5,0.1s-0.5,0-0.8,0s-0.6,0-0.8,0c-0.2,0-0.4-0.1-0.5-0.1s-0.2-0.1-0.3-0.2
		C42,370,42,370,42,369.9v-11.3c0-0.1,0-0.2,0.1-0.2c0.1-0.1,0.1-0.1,0.3-0.2c0.1,0,0.3-0.1,0.5-0.1s0.5,0,0.8,0s0.6,0,0.8,0
		c0.2,0,0.4,0.1,0.5,0.1s0.2,0.1,0.3,0.2c0.1,0.1,0.1,0.1,0.1,0.2V369.9z M45.2,356c-0.3,0.2-0.7,0.4-1.5,0.4
		c-0.7,0-1.2-0.1-1.5-0.4s-0.4-0.7-0.4-1.3s0.1-1.1,0.4-1.3c0.3-0.2,0.7-0.4,1.5-0.4c0.7,0,1.2,0.1,1.4,0.4c0.3,0.2,0.4,0.7,0.4,1.3
		C45.6,355.3,45.5,355.8,45.2,356z"/>
	<path class="st0" d="M296.9,333c-15.9,0-28.7,12.8-28.7,28.7s12.8,28.7,28.7,28.7s28.7-12.8,28.7-28.7S312.8,333,296.9,333z
		 M300.3,369.1c0,0.2,0,0.4-0.1,0.5c-0.1,0.2-0.2,0.3-0.3,0.4c-0.1,0.1-0.3,0.2-0.4,0.2c-0.2,0-0.3,0.1-0.5,0.1h-1.4
		c-0.3,0-0.6,0-0.8-0.1c-0.2-0.1-0.4-0.2-0.6-0.3c-0.2-0.2-0.4-0.4-0.5-0.6c-0.2-0.3-0.4-0.6-0.6-1l-4.1-7.7c-0.2-0.5-0.5-1-0.7-1.5
		s-0.5-1-0.7-1.5l0,0c0,0.6,0.1,1.2,0.1,1.8s0,1.2,0,1.9v8.6c0,0.1,0,0.2-0.1,0.2c0,0.1-0.1,0.1-0.2,0.2c-0.1,0.1-0.3,0.1-0.5,0.1
		s-0.4,0-0.8,0c-0.3,0-0.5,0-0.7,0s-0.3-0.1-0.5-0.1c-0.1,0-0.2-0.1-0.2-0.2s-0.1-0.1-0.1-0.2v-14.8c0-0.4,0.1-0.7,0.3-0.9
		c0.2-0.2,0.5-0.3,0.9-0.3h1.8c0.3,0,0.6,0,0.8,0.1c0.2,0.1,0.4,0.1,0.6,0.3c0.2,0.1,0.3,0.3,0.5,0.5c0.2,0.2,0.3,0.5,0.5,0.8l3.2,6
		c0.2,0.4,0.4,0.7,0.6,1.1c0.2,0.4,0.4,0.7,0.5,1.1c0.1,0.4,0.3,0.7,0.5,1c0.2,0.3,0.3,0.7,0.5,1l0,0c0-0.6,0-1.2-0.1-1.9
		c0-0.6,0-1.3,0-1.8v-7.7c0-0.1,0-0.2,0.1-0.2c0.1-0.1,0.1-0.1,0.3-0.2c0.2-0.1,0.3-0.1,0.5-0.1s0.4,0,0.8,0c0.3,0,0.5,0,0.7,0
		s0.3,0.1,0.5,0.1s0.2,0.1,0.2,0.2c0,0.1,0.1,0.1,0.1,0.2L300.3,369.1L300.3,369.1z M306.9,369.9c0,0.1,0,0.2-0.1,0.2
		c-0.1,0.1-0.1,0.1-0.3,0.2c-0.1,0-0.3,0.1-0.5,0.1s-0.5,0-0.8,0s-0.6,0-0.8,0c-0.2,0-0.4-0.1-0.5-0.1s-0.2-0.1-0.3-0.2
		c-0.1-0.1-0.1-0.1-0.1-0.2v-11.3c0-0.1,0-0.2,0.1-0.2c0.1-0.1,0.1-0.1,0.3-0.2c0.1,0,0.3-0.1,0.5-0.1s0.5,0,0.8,0s0.6,0,0.8,0
		c0.2,0,0.4,0.1,0.5,0.1s0.2,0.1,0.3,0.2c0.1,0.1,0.1,0.1,0.1,0.2V369.9z M306.7,356c-0.3,0.2-0.7,0.4-1.5,0.4
		c-0.7,0-1.2-0.1-1.5-0.4s-0.4-0.7-0.4-1.3s0.1-1.1,0.4-1.3c0.3-0.2,0.7-0.4,1.5-0.4c0.7,0,1.2,0.1,1.4,0.4c0.3,0.2,0.4,0.7,0.4,1.3
		C307.1,355.3,307,355.8,306.7,356z"/>
	<path class="st0" d="M427.6,333c-15.9,0-28.7,12.8-28.7,28.7s12.8,28.7,28.7,28.7s28.7-12.8,28.7-28.7S443.5,333,427.6,333z
		 M431,369.1c0,0.2,0,0.4-0.1,0.5c-0.1,0.2-0.2,0.3-0.3,0.4s-0.3,0.2-0.4,0.2c-0.2,0-0.3,0.1-0.5,0.1h-1.4c-0.3,0-0.6,0-0.8-0.1
		s-0.4-0.2-0.6-0.3c-0.2-0.2-0.4-0.4-0.5-0.6c-0.2-0.3-0.4-0.6-0.6-1l-4.1-7.7c-0.2-0.5-0.5-1-0.7-1.5s-0.5-1-0.7-1.5l0,0
		c0,0.6,0.1,1.2,0.1,1.8s0,1.2,0,1.9v8.6c0,0.1,0,0.2-0.1,0.2c0,0.1-0.1,0.1-0.2,0.2c-0.1,0.1-0.3,0.1-0.5,0.1s-0.4,0-0.8,0
		c-0.3,0-0.5,0-0.7,0s-0.3-0.1-0.5-0.1c-0.1,0-0.2-0.1-0.2-0.2s-0.1-0.1-0.1-0.2v-14.8c0-0.4,0.1-0.7,0.3-0.9
		c0.2-0.2,0.5-0.3,0.9-0.3h1.8c0.3,0,0.6,0,0.8,0.1s0.4,0.1,0.6,0.3c0.2,0.1,0.3,0.3,0.5,0.5c0.2,0.2,0.3,0.5,0.5,0.8l3.2,6
		c0.2,0.4,0.4,0.7,0.6,1.1c0.2,0.4,0.4,0.7,0.5,1.1c0.1,0.4,0.3,0.7,0.5,1c0.2,0.3,0.3,0.7,0.5,1l0,0c0-0.6,0-1.2-0.1-1.9
		c0-0.6,0-1.3,0-1.8v-7.7c0-0.1,0-0.2,0.1-0.2c0.1-0.1,0.1-0.1,0.3-0.2c0.2-0.1,0.3-0.1,0.5-0.1s0.4,0,0.8,0c0.3,0,0.5,0,0.7,0
		s0.3,0.1,0.5,0.1s0.2,0.1,0.2,0.2c0,0.1,0.1,0.1,0.1,0.2L431,369.1L431,369.1z M437.6,369.9c0,0.1,0,0.2-0.1,0.2
		c-0.1,0.1-0.1,0.1-0.3,0.2c-0.1,0-0.3,0.1-0.5,0.1s-0.5,0-0.8,0s-0.6,0-0.8,0s-0.4-0.1-0.5-0.1s-0.2-0.1-0.3-0.2
		c-0.1-0.1-0.1-0.1-0.1-0.2v-11.3c0-0.1,0-0.2,0.1-0.2c0.1-0.1,0.1-0.1,0.3-0.2c0.1,0,0.3-0.1,0.5-0.1s0.5,0,0.8,0s0.6,0,0.8,0
		s0.4,0.1,0.5,0.1s0.2,0.1,0.3,0.2c0.1,0.1,0.1,0.1,0.1,0.2V369.9z M437.4,356c-0.3,0.2-0.7,0.4-1.5,0.4c-0.7,0-1.2-0.1-1.5-0.4
		s-0.4-0.7-0.4-1.3s0.1-1.1,0.4-1.3c0.3-0.2,0.7-0.4,1.5-0.4c0.7,0,1.2,0.1,1.4,0.4c0.3,0.2,0.4,0.7,0.4,1.3
		C437.8,355.3,437.7,355.8,437.4,356z"/>
	<path class="st0" d="M558.4,333c-15.9,0-28.7,12.8-28.7,28.7s12.8,28.7,28.7,28.7s28.7-12.8,28.7-28.7S574.3,333,558.4,333z
		 M561.8,369.1c0,0.2,0,0.4-0.1,0.5c-0.1,0.2-0.2,0.3-0.3,0.4s-0.3,0.2-0.4,0.2c-0.2,0-0.3,0.1-0.5,0.1h-1.4c-0.3,0-0.6,0-0.8-0.1
		s-0.4-0.2-0.6-0.3c-0.2-0.2-0.4-0.4-0.5-0.6c-0.2-0.3-0.4-0.6-0.6-1l-4.1-7.7c-0.2-0.5-0.5-1-0.7-1.5s-0.5-1-0.7-1.5l0,0
		c0,0.6,0.1,1.2,0.1,1.8s0,1.2,0,1.9v8.6c0,0.1,0,0.2-0.1,0.2c0,0.1-0.1,0.1-0.2,0.2c-0.1,0.1-0.3,0.1-0.5,0.1s-0.4,0-0.8,0
		c-0.3,0-0.5,0-0.7,0s-0.3-0.1-0.5-0.1c-0.1,0-0.2-0.1-0.2-0.2s-0.1-0.1-0.1-0.2v-14.8c0-0.4,0.1-0.7,0.3-0.9
		c0.2-0.2,0.5-0.3,0.9-0.3h1.8c0.3,0,0.6,0,0.8,0.1s0.4,0.1,0.6,0.3c0.2,0.1,0.3,0.3,0.5,0.5c0.2,0.2,0.3,0.5,0.5,0.8l3.2,6
		c0.2,0.4,0.4,0.7,0.6,1.1c0.2,0.4,0.4,0.7,0.5,1.1c0.1,0.4,0.3,0.7,0.5,1c0.2,0.3,0.3,0.7,0.5,1l0,0c0-0.6,0-1.2-0.1-1.9
		c0-0.6,0-1.3,0-1.8v-7.7c0-0.1,0-0.2,0.1-0.2c0.1-0.1,0.1-0.1,0.3-0.2c0.2-0.1,0.3-0.1,0.5-0.1s0.4,0,0.8,0c0.3,0,0.5,0,0.7,0
		s0.3,0.1,0.5,0.1s0.2,0.1,0.2,0.2c0,0.1,0.1,0.1,0.1,0.2L561.8,369.1L561.8,369.1z M568.4,369.9c0,0.1,0,0.2-0.1,0.2
		c-0.1,0.1-0.1,0.1-0.3,0.2c-0.1,0-0.3,0.1-0.5,0.1s-0.5,0-0.8,0s-0.6,0-0.8,0s-0.4-0.1-0.5-0.1s-0.2-0.1-0.3-0.2
		c-0.1-0.1-0.1-0.1-0.1-0.2v-11.3c0-0.1,0-0.2,0.1-0.2c0.1-0.1,0.1-0.1,0.3-0.2c0.1,0,0.3-0.1,0.5-0.1s0.5,0,0.8,0s0.6,0,0.8,0
		s0.4,0.1,0.5,0.1s0.2,0.1,0.3,0.2c0.1,0.1,0.1,0.1,0.1,0.2V369.9z M568.2,356c-0.3,0.2-0.7,0.4-1.5,0.4c-0.7,0-1.2-0.1-1.5-0.4
		s-0.4-0.7-0.4-1.3s0.1-1.1,0.4-1.3c0.3-0.2,0.7-0.4,1.5-0.4c0.7,0,1.2,0.1,1.4,0.4c0.3,0.2,0.4,0.7,0.4,1.3
		C568.6,355.3,568.5,355.8,568.2,356z"/>
	<path class="st0" d="M100.8,267.6c-15.9,0-28.7,12.8-28.7,28.7S84.9,325,100.8,325s28.7-12.8,28.7-28.7
		C129.5,280.5,116.7,267.6,100.8,267.6z M104.1,303.7c0,0.2,0,0.4-0.1,0.5c-0.1,0.2-0.2,0.3-0.3,0.4c-0.1,0.1-0.3,0.2-0.4,0.2
		c-0.2,0-0.3,0.1-0.5,0.1h-1.4c-0.3,0-0.6,0-0.8-0.1c-0.2-0.1-0.4-0.2-0.6-0.3c-0.2-0.2-0.4-0.4-0.5-0.6c-0.2-0.3-0.4-0.6-0.6-1
		l-4.1-7.7c-0.2-0.5-0.5-1-0.7-1.5s-0.5-1-0.7-1.5l0,0c0,0.6,0.1,1.2,0.1,1.8s0,1.2,0,1.9v8.6c0,0.1,0,0.2-0.1,0.2
		c0,0.1-0.1,0.1-0.2,0.2c-0.1,0.1-0.3,0.1-0.5,0.1s-0.4,0-0.8,0c-0.3,0-0.5,0-0.7,0s-0.3-0.1-0.5-0.1c-0.1,0-0.2-0.1-0.2-0.2
		c0-0.1-0.1-0.1-0.1-0.2v-14.8c0-0.4,0.1-0.7,0.3-0.9c0.2-0.2,0.5-0.3,0.9-0.3h1.8c0.3,0,0.6,0,0.8,0.1c0.2,0.1,0.4,0.1,0.6,0.3
		c0.2,0.1,0.3,0.3,0.5,0.5c0.2,0.2,0.3,0.5,0.5,0.8l3.2,6c0.2,0.4,0.4,0.7,0.6,1.1c0.2,0.4,0.4,0.7,0.5,1.1c0.1,0.4,0.3,0.7,0.5,1
		c0.2,0.3,0.3,0.7,0.5,1l0,0c0-0.6,0-1.2-0.1-1.9c0-0.6,0-1.3,0-1.8V289c0-0.1,0-0.2,0.1-0.2c0.1-0.1,0.1-0.1,0.3-0.2
		s0.3-0.1,0.5-0.1s0.4,0,0.8,0c0.3,0,0.5,0,0.7,0s0.3,0.1,0.5,0.1s0.2,0.1,0.2,0.2c0,0.1,0.1,0.1,0.1,0.2L104.1,303.7L104.1,303.7z
		 M110.7,304.5c0,0.1,0,0.2-0.1,0.2c-0.1,0.1-0.1,0.1-0.3,0.2c-0.1,0-0.3,0.1-0.5,0.1s-0.5,0-0.8,0s-0.6,0-0.8,0
		c-0.2,0-0.4-0.1-0.5-0.1s-0.2-0.1-0.3-0.2c-0.1-0.1-0.1-0.1-0.1-0.2v-11.3c0-0.1,0-0.2,0.1-0.2c0.1-0.1,0.1-0.1,0.3-0.2
		c0.1,0,0.3-0.1,0.5-0.1s0.5,0,0.8,0s0.6,0,0.8,0c0.2,0,0.4,0.1,0.5,0.1s0.2,0.1,0.3,0.2c0.1,0.1,0.1,0.1,0.1,0.2V304.5z
		 M110.5,290.6c-0.3,0.2-0.7,0.4-1.5,0.4c-0.7,0-1.2-0.1-1.5-0.4c-0.3-0.3-0.4-0.7-0.4-1.3s0.1-1.1,0.4-1.3s0.7-0.4,1.5-0.4
		c0.7,0,1.2,0.1,1.4,0.4c0.3,0.2,0.4,0.7,0.4,1.3C110.9,289.9,110.8,290.4,110.5,290.6z"/>
	<path class="st0" d="M231.5,267.6c-15.9,0-28.7,12.8-28.7,28.7s12.8,28.7,28.7,28.7s28.7-12.8,28.7-28.7
		C260.2,280.5,247.4,267.6,231.5,267.6z M234.9,303.7c0,0.2,0,0.4-0.1,0.5c-0.1,0.2-0.2,0.3-0.3,0.4c-0.1,0.1-0.3,0.2-0.4,0.2
		c-0.2,0-0.3,0.1-0.5,0.1h-1.4c-0.3,0-0.6,0-0.8-0.1c-0.2-0.1-0.4-0.2-0.6-0.3c-0.2-0.2-0.4-0.4-0.5-0.6c-0.2-0.3-0.4-0.6-0.6-1
		l-4.1-7.7c-0.2-0.5-0.5-1-0.7-1.5s-0.5-1-0.7-1.5l0,0c0,0.6,0.1,1.2,0.1,1.8s0,1.2,0,1.9v8.6c0,0.1,0,0.2-0.1,0.2
		c0,0.1-0.1,0.1-0.2,0.2c-0.1,0.1-0.3,0.1-0.5,0.1s-0.4,0-0.8,0c-0.3,0-0.5,0-0.7,0s-0.3-0.1-0.5-0.1c-0.1,0-0.2-0.1-0.2-0.2
		c0-0.1-0.1-0.1-0.1-0.2v-14.8c0-0.4,0.1-0.7,0.3-0.9c0.2-0.2,0.5-0.3,0.9-0.3h1.8c0.3,0,0.6,0,0.8,0.1c0.2,0.1,0.4,0.1,0.6,0.3
		c0.2,0.1,0.3,0.3,0.5,0.5c0.2,0.2,0.3,0.5,0.5,0.8l3.2,6c0.2,0.4,0.4,0.7,0.6,1.1c0.2,0.4,0.4,0.7,0.5,1.1c0.1,0.4,0.3,0.7,0.5,1
		c0.2,0.3,0.3,0.7,0.5,1l0,0c0-0.6,0-1.2-0.1-1.9c0-0.6,0-1.3,0-1.8V289c0-0.1,0-0.2,0.1-0.2c0.1-0.1,0.1-0.1,0.3-0.2
		s0.3-0.1,0.5-0.1s0.4,0,0.8,0c0.3,0,0.5,0,0.7,0s0.3,0.1,0.5,0.1s0.2,0.1,0.2,0.2c0,0.1,0.1,0.1,0.1,0.2L234.9,303.7L234.9,303.7z
		 M241.5,304.5c0,0.1,0,0.2-0.1,0.2c-0.1,0.1-0.1,0.1-0.3,0.2c-0.1,0-0.3,0.1-0.5,0.1s-0.5,0-0.8,0s-0.6,0-0.8,0
		c-0.2,0-0.4-0.1-0.5-0.1s-0.2-0.1-0.3-0.2c-0.1-0.1-0.1-0.1-0.1-0.2v-11.3c0-0.1,0-0.2,0.1-0.2c0.1-0.1,0.1-0.1,0.3-0.2
		c0.1,0,0.3-0.1,0.5-0.1s0.5,0,0.8,0s0.6,0,0.8,0c0.2,0,0.4,0.1,0.5,0.1s0.2,0.1,0.3,0.2c0.1,0.1,0.1,0.1,0.1,0.2V304.5z
		 M241.3,290.6c-0.3,0.2-0.7,0.4-1.5,0.4c-0.7,0-1.2-0.1-1.5-0.4c-0.3-0.3-0.4-0.7-0.4-1.3s0.1-1.1,0.4-1.3s0.7-0.4,1.5-0.4
		c0.7,0,1.2,0.1,1.4,0.4c0.3,0.2,0.4,0.7,0.4,1.3C241.7,289.9,241.6,290.4,241.3,290.6z"/>
	<path class="st0" d="M362.3,267.6c-15.9,0-28.7,12.8-28.7,28.7s12.8,28.7,28.7,28.7s28.7-12.8,28.7-28.7
		C391,280.5,378.2,267.6,362.3,267.6z M365.6,303.7c0,0.2,0,0.4-0.1,0.5c-0.1,0.2-0.2,0.3-0.3,0.4c-0.1,0.1-0.3,0.2-0.4,0.2
		c-0.2,0-0.3,0.1-0.5,0.1h-1.4c-0.3,0-0.6,0-0.8-0.1s-0.4-0.2-0.6-0.3c-0.2-0.2-0.4-0.4-0.5-0.6c-0.2-0.3-0.4-0.6-0.6-1l-4.1-7.7
		c-0.2-0.5-0.5-1-0.7-1.5s-0.5-1-0.7-1.5l0,0c0,0.6,0.1,1.2,0.1,1.8s0,1.2,0,1.9v8.6c0,0.1,0,0.2-0.1,0.2c0,0.1-0.1,0.1-0.2,0.2
		c-0.1,0.1-0.3,0.1-0.5,0.1s-0.4,0-0.8,0c-0.3,0-0.5,0-0.7,0s-0.3-0.1-0.5-0.1c-0.1,0-0.2-0.1-0.2-0.2c0-0.1-0.1-0.1-0.1-0.2v-14.8
		c0-0.4,0.1-0.7,0.3-0.9c0.2-0.2,0.5-0.3,0.9-0.3h1.8c0.3,0,0.6,0,0.8,0.1s0.4,0.1,0.6,0.3c0.2,0.1,0.3,0.3,0.5,0.5
		c0.2,0.2,0.3,0.5,0.5,0.8l3.2,6c0.2,0.4,0.4,0.7,0.6,1.1c0.2,0.4,0.4,0.7,0.5,1.1c0.1,0.4,0.3,0.7,0.5,1c0.2,0.3,0.3,0.7,0.5,1l0,0
		c0-0.6,0-1.2-0.1-1.9c0-0.6,0-1.3,0-1.8V289c0-0.1,0-0.2,0.1-0.2c0.1-0.1,0.1-0.1,0.3-0.2s0.3-0.1,0.5-0.1s0.4,0,0.8,0
		c0.3,0,0.5,0,0.7,0s0.3,0.1,0.5,0.1s0.2,0.1,0.2,0.2c0,0.1,0.1,0.1,0.1,0.2L365.6,303.7L365.6,303.7z M372.2,304.5
		c0,0.1,0,0.2-0.1,0.2c-0.1,0.1-0.1,0.1-0.3,0.2c-0.1,0-0.3,0.1-0.5,0.1s-0.5,0-0.8,0s-0.6,0-0.8,0s-0.4-0.1-0.5-0.1
		s-0.2-0.1-0.3-0.2c-0.1-0.1-0.1-0.1-0.1-0.2v-11.3c0-0.1,0-0.2,0.1-0.2c0.1-0.1,0.1-0.1,0.3-0.2c0.1,0,0.3-0.1,0.5-0.1s0.5,0,0.8,0
		s0.6,0,0.8,0s0.4,0.1,0.5,0.1s0.2,0.1,0.3,0.2c0.1,0.1,0.1,0.1,0.1,0.2V304.5z M372,290.6c-0.3,0.2-0.7,0.4-1.5,0.4
		c-0.7,0-1.2-0.1-1.5-0.4c-0.3-0.3-0.4-0.7-0.4-1.3s0.1-1.1,0.4-1.3s0.7-0.4,1.5-0.4c0.7,0,1.2,0.1,1.4,0.4c0.3,0.2,0.4,0.7,0.4,1.3
		C372.4,289.9,372.3,290.4,372,290.6z"/>
	<path class="st0" d="M493,267.6c-15.9,0-28.7,12.8-28.7,28.7S477.1,325,493,325s28.7-12.8,28.7-28.7
		C521.7,280.5,508.9,267.6,493,267.6z M496.4,303.7c0,0.2,0,0.4-0.1,0.5c-0.1,0.2-0.2,0.3-0.3,0.4c-0.1,0.1-0.3,0.2-0.4,0.2
		c-0.2,0-0.3,0.1-0.5,0.1h-1.4c-0.3,0-0.6,0-0.8-0.1s-0.4-0.2-0.6-0.3c-0.2-0.2-0.4-0.4-0.5-0.6c-0.2-0.3-0.4-0.6-0.6-1l-4.1-7.7
		c-0.2-0.5-0.5-1-0.7-1.5s-0.5-1-0.7-1.5l0,0c0,0.6,0.1,1.2,0.1,1.8s0,1.2,0,1.9v8.6c0,0.1,0,0.2-0.1,0.2c0,0.1-0.1,0.1-0.2,0.2
		c-0.1,0.1-0.3,0.1-0.5,0.1s-0.4,0-0.8,0c-0.3,0-0.5,0-0.7,0s-0.3-0.1-0.5-0.1c-0.1,0-0.2-0.1-0.2-0.2c0-0.1-0.1-0.1-0.1-0.2v-14.8
		c0-0.4,0.1-0.7,0.3-0.9c0.2-0.2,0.5-0.3,0.9-0.3h1.8c0.3,0,0.6,0,0.8,0.1s0.4,0.1,0.6,0.3c0.2,0.1,0.3,0.3,0.5,0.5
		c0.2,0.2,0.3,0.5,0.5,0.8l3.2,6c0.2,0.4,0.4,0.7,0.6,1.1c0.2,0.4,0.4,0.7,0.5,1.1c0.1,0.4,0.3,0.7,0.5,1c0.2,0.3,0.3,0.7,0.5,1l0,0
		c0-0.6,0-1.2-0.1-1.9c0-0.6,0-1.3,0-1.8V289c0-0.1,0-0.2,0.1-0.2c0.1-0.1,0.1-0.1,0.3-0.2s0.3-0.1,0.5-0.1s0.4,0,0.8,0
		c0.3,0,0.5,0,0.7,0s0.3,0.1,0.5,0.1s0.2,0.1,0.2,0.2c0,0.1,0.1,0.1,0.1,0.2L496.4,303.7L496.4,303.7z M503,304.5
		c0,0.1,0,0.2-0.1,0.2c-0.1,0.1-0.1,0.1-0.3,0.2c-0.1,0-0.3,0.1-0.5,0.1s-0.5,0-0.8,0s-0.6,0-0.8,0s-0.4-0.1-0.5-0.1
		s-0.2-0.1-0.3-0.2c-0.1-0.1-0.1-0.1-0.1-0.2v-11.3c0-0.1,0-0.2,0.1-0.2c0.1-0.1,0.1-0.1,0.3-0.2c0.1,0,0.3-0.1,0.5-0.1s0.5,0,0.8,0
		s0.6,0,0.8,0s0.4,0.1,0.5,0.1s0.2,0.1,0.3,0.2c0.1,0.1,0.1,0.1,0.1,0.2V304.5z M502.8,290.6c-0.3,0.2-0.7,0.4-1.5,0.4
		c-0.7,0-1.2-0.1-1.5-0.4c-0.3-0.3-0.4-0.7-0.4-1.3s0.1-1.1,0.4-1.3s0.7-0.4,1.5-0.4c0.7,0,1.2,0.1,1.4,0.4c0.3,0.2,0.4,0.7,0.4,1.3
		C503.2,289.9,503.1,290.4,502.8,290.6z"/>
	<path class="st0" d="M100.8,398.4c-15.9,0-28.7,12.8-28.7,28.7s12.8,28.7,28.7,28.7s28.7-12.8,28.7-28.7
		C129.5,411.3,116.7,398.4,100.8,398.4z M104.1,434.5c0,0.2,0,0.4-0.1,0.5c-0.1,0.2-0.2,0.3-0.3,0.4c-0.1,0.1-0.3,0.2-0.4,0.2
		c-0.2,0-0.3,0.1-0.5,0.1h-1.4c-0.3,0-0.6,0-0.8-0.1c-0.2-0.1-0.4-0.2-0.6-0.3c-0.2-0.2-0.4-0.4-0.5-0.6c-0.2-0.3-0.4-0.6-0.6-1
		l-4.1-7.7c-0.2-0.5-0.5-1-0.7-1.5s-0.5-1-0.7-1.5l0,0c0,0.6,0.1,1.2,0.1,1.8s0,1.2,0,1.9v8.6c0,0.1,0,0.2-0.1,0.2
		c0,0.1-0.1,0.1-0.2,0.2c-0.1,0.1-0.3,0.1-0.5,0.1s-0.4,0-0.8,0c-0.3,0-0.5,0-0.7,0s-0.3-0.1-0.5-0.1c-0.1,0-0.2-0.1-0.2-0.2
		c0-0.1-0.1-0.1-0.1-0.2v-14.8c0-0.4,0.1-0.7,0.3-0.9c0.2-0.2,0.5-0.3,0.9-0.3h1.8c0.3,0,0.6,0,0.8,0.1c0.2,0.1,0.4,0.1,0.6,0.3
		c0.2,0.1,0.3,0.3,0.5,0.5c0.2,0.2,0.3,0.5,0.5,0.8l3.2,6c0.2,0.4,0.4,0.7,0.6,1.1s0.4,0.7,0.5,1.1c0.1,0.4,0.3,0.7,0.5,1
		c0.2,0.3,0.3,0.7,0.5,1l0,0c0-0.6,0-1.2-0.1-1.9c0-0.6,0-1.3,0-1.8v-7.7c0-0.1,0-0.2,0.1-0.2c0.1-0.1,0.1-0.1,0.3-0.2
		c0.2-0.1,0.3-0.1,0.5-0.1s0.4,0,0.8,0c0.3,0,0.5,0,0.7,0s0.3,0.1,0.5,0.1s0.2,0.1,0.2,0.2s0.1,0.1,0.1,0.2L104.1,434.5L104.1,434.5
		z M110.7,435.3c0,0.1,0,0.2-0.1,0.2c-0.1,0.1-0.1,0.1-0.3,0.2c-0.1,0-0.3,0.1-0.5,0.1s-0.5,0-0.8,0s-0.6,0-0.8,0
		c-0.2,0-0.4-0.1-0.5-0.1s-0.2-0.1-0.3-0.2c-0.1-0.1-0.1-0.1-0.1-0.2V424c0-0.1,0-0.2,0.1-0.2c0.1-0.1,0.1-0.1,0.3-0.2
		c0.1,0,0.3-0.1,0.5-0.1s0.5,0,0.8,0s0.6,0,0.8,0c0.2,0,0.4,0.1,0.5,0.1s0.2,0.1,0.3,0.2c0.1,0.1,0.1,0.1,0.1,0.2V435.3z
		 M110.5,421.4c-0.3,0.2-0.7,0.4-1.5,0.4c-0.7,0-1.2-0.1-1.5-0.4c-0.3-0.3-0.4-0.7-0.4-1.3s0.1-1.1,0.4-1.3c0.3-0.2,0.7-0.4,1.5-0.4
		c0.7,0,1.2,0.1,1.4,0.4c0.3,0.2,0.4,0.7,0.4,1.3C110.9,420.7,110.8,421.2,110.5,421.4z"/>
	<path class="st0" d="M231.5,398.4c-15.9,0-28.7,12.8-28.7,28.7s12.8,28.7,28.7,28.7s28.7-12.8,28.7-28.7
		C260.2,411.3,247.4,398.4,231.5,398.4z M234.9,434.5c0,0.2,0,0.4-0.1,0.5c-0.1,0.2-0.2,0.3-0.3,0.4c-0.1,0.1-0.3,0.2-0.4,0.2
		c-0.2,0-0.3,0.1-0.5,0.1h-1.4c-0.3,0-0.6,0-0.8-0.1c-0.2-0.1-0.4-0.2-0.6-0.3c-0.2-0.2-0.4-0.4-0.5-0.6c-0.2-0.3-0.4-0.6-0.6-1
		l-4.1-7.7c-0.2-0.5-0.5-1-0.7-1.5s-0.5-1-0.7-1.5l0,0c0,0.6,0.1,1.2,0.1,1.8s0,1.2,0,1.9v8.6c0,0.1,0,0.2-0.1,0.2
		c0,0.1-0.1,0.1-0.2,0.2c-0.1,0.1-0.3,0.1-0.5,0.1s-0.4,0-0.8,0c-0.3,0-0.5,0-0.7,0s-0.3-0.1-0.5-0.1c-0.1,0-0.2-0.1-0.2-0.2
		c0-0.1-0.1-0.1-0.1-0.2v-14.8c0-0.4,0.1-0.7,0.3-0.9c0.2-0.2,0.5-0.3,0.9-0.3h1.8c0.3,0,0.6,0,0.8,0.1c0.2,0.1,0.4,0.1,0.6,0.3
		c0.2,0.1,0.3,0.3,0.5,0.5c0.2,0.2,0.3,0.5,0.5,0.8l3.2,6c0.2,0.4,0.4,0.7,0.6,1.1s0.4,0.7,0.5,1.1c0.1,0.4,0.3,0.7,0.5,1
		c0.2,0.3,0.3,0.7,0.5,1l0,0c0-0.6,0-1.2-0.1-1.9c0-0.6,0-1.3,0-1.8v-7.7c0-0.1,0-0.2,0.1-0.2c0.1-0.1,0.1-0.1,0.3-0.2
		c0.2-0.1,0.3-0.1,0.5-0.1s0.4,0,0.8,0c0.3,0,0.5,0,0.7,0s0.3,0.1,0.5,0.1s0.2,0.1,0.2,0.2s0.1,0.1,0.1,0.2L234.9,434.5L234.9,434.5
		z M241.5,435.3c0,0.1,0,0.2-0.1,0.2c-0.1,0.1-0.1,0.1-0.3,0.2c-0.1,0-0.3,0.1-0.5,0.1s-0.5,0-0.8,0s-0.6,0-0.8,0
		c-0.2,0-0.4-0.1-0.5-0.1s-0.2-0.1-0.3-0.2c-0.1-0.1-0.1-0.1-0.1-0.2V424c0-0.1,0-0.2,0.1-0.2c0.1-0.1,0.1-0.1,0.3-0.2
		c0.1,0,0.3-0.1,0.5-0.1s0.5,0,0.8,0s0.6,0,0.8,0c0.2,0,0.4,0.1,0.5,0.1s0.2,0.1,0.3,0.2c0.1,0.1,0.1,0.1,0.1,0.2V435.3z
		 M241.3,421.4c-0.3,0.2-0.7,0.4-1.5,0.4c-0.7,0-1.2-0.1-1.5-0.4c-0.3-0.3-0.4-0.7-0.4-1.3s0.1-1.1,0.4-1.3c0.3-0.2,0.7-0.4,1.5-0.4
		c0.7,0,1.2,0.1,1.4,0.4c0.3,0.2,0.4,0.7,0.4,1.3C241.7,420.7,241.6,421.2,241.3,421.4z"/>
	<path class="st0" d="M362.3,398.4c-15.9,0-28.7,12.8-28.7,28.7s12.8,28.7,28.7,28.7S391,443,391,427.1
		C391,411.3,378.2,398.4,362.3,398.4z M365.6,434.5c0,0.2,0,0.4-0.1,0.5c-0.1,0.2-0.2,0.3-0.3,0.4c-0.1,0.1-0.3,0.2-0.4,0.2
		c-0.2,0-0.3,0.1-0.5,0.1h-1.4c-0.3,0-0.6,0-0.8-0.1s-0.4-0.2-0.6-0.3c-0.2-0.2-0.4-0.4-0.5-0.6c-0.2-0.3-0.4-0.6-0.6-1l-4.1-7.7
		c-0.2-0.5-0.5-1-0.7-1.5s-0.5-1-0.7-1.5l0,0c0,0.6,0.1,1.2,0.1,1.8s0,1.2,0,1.9v8.6c0,0.1,0,0.2-0.1,0.2c0,0.1-0.1,0.1-0.2,0.2
		c-0.1,0.1-0.3,0.1-0.5,0.1s-0.4,0-0.8,0c-0.3,0-0.5,0-0.7,0s-0.3-0.1-0.5-0.1c-0.1,0-0.2-0.1-0.2-0.2c0-0.1-0.1-0.1-0.1-0.2v-14.8
		c0-0.4,0.1-0.7,0.3-0.9s0.5-0.3,0.9-0.3h1.8c0.3,0,0.6,0,0.8,0.1s0.4,0.1,0.6,0.3c0.2,0.1,0.3,0.3,0.5,0.5c0.2,0.2,0.3,0.5,0.5,0.8
		l3.2,6c0.2,0.4,0.4,0.7,0.6,1.1c0.2,0.4,0.4,0.7,0.5,1.1c0.1,0.4,0.3,0.7,0.5,1c0.2,0.3,0.3,0.7,0.5,1l0,0c0-0.6,0-1.2-0.1-1.9
		c0-0.6,0-1.3,0-1.8v-7.7c0-0.1,0-0.2,0.1-0.2c0.1-0.1,0.1-0.1,0.3-0.2c0.2-0.1,0.3-0.1,0.5-0.1s0.4,0,0.8,0c0.3,0,0.5,0,0.7,0
		s0.3,0.1,0.5,0.1s0.2,0.1,0.2,0.2s0.1,0.1,0.1,0.2L365.6,434.5L365.6,434.5z M372.2,435.3c0,0.1,0,0.2-0.1,0.2
		c-0.1,0.1-0.1,0.1-0.3,0.2c-0.1,0-0.3,0.1-0.5,0.1s-0.5,0-0.8,0s-0.6,0-0.8,0s-0.4-0.1-0.5-0.1s-0.2-0.1-0.3-0.2
		c-0.1-0.1-0.1-0.1-0.1-0.2V424c0-0.1,0-0.2,0.1-0.2c0.1-0.1,0.1-0.1,0.3-0.2c0.1,0,0.3-0.1,0.5-0.1s0.5,0,0.8,0s0.6,0,0.8,0
		s0.4,0.1,0.5,0.1s0.2,0.1,0.3,0.2c0.1,0.1,0.1,0.1,0.1,0.2V435.3z M372,421.4c-0.3,0.2-0.7,0.4-1.5,0.4c-0.7,0-1.2-0.1-1.5-0.4
		c-0.3-0.3-0.4-0.7-0.4-1.3s0.1-1.1,0.4-1.3c0.3-0.2,0.7-0.4,1.5-0.4c0.7,0,1.2,0.1,1.4,0.4c0.3,0.2,0.4,0.7,0.4,1.3
		C372.4,420.7,372.3,421.2,372,421.4z"/>
	<path class="st0" d="M493,398.4c-15.9,0-28.7,12.8-28.7,28.7s12.8,28.7,28.7,28.7s28.7-12.8,28.7-28.7
		C521.7,411.3,508.9,398.4,493,398.4z M496.4,434.5c0,0.2,0,0.4-0.1,0.5c-0.1,0.2-0.2,0.3-0.3,0.4c-0.1,0.1-0.3,0.2-0.4,0.2
		c-0.2,0-0.3,0.1-0.5,0.1h-1.4c-0.3,0-0.6,0-0.8-0.1s-0.4-0.2-0.6-0.3c-0.2-0.2-0.4-0.4-0.5-0.6c-0.2-0.3-0.4-0.6-0.6-1l-4.1-7.7
		c-0.2-0.5-0.5-1-0.7-1.5s-0.5-1-0.7-1.5l0,0c0,0.6,0.1,1.2,0.1,1.8s0,1.2,0,1.9v8.6c0,0.1,0,0.2-0.1,0.2c0,0.1-0.1,0.1-0.2,0.2
		c-0.1,0.1-0.3,0.1-0.5,0.1s-0.4,0-0.8,0c-0.3,0-0.5,0-0.7,0s-0.3-0.1-0.5-0.1c-0.1,0-0.2-0.1-0.2-0.2c0-0.1-0.1-0.1-0.1-0.2v-14.8
		c0-0.4,0.1-0.7,0.3-0.9s0.5-0.3,0.9-0.3h1.8c0.3,0,0.6,0,0.8,0.1s0.4,0.1,0.6,0.3c0.2,0.1,0.3,0.3,0.5,0.5c0.2,0.2,0.3,0.5,0.5,0.8
		l3.2,6c0.2,0.4,0.4,0.7,0.6,1.1c0.2,0.4,0.4,0.7,0.5,1.1c0.1,0.4,0.3,0.7,0.5,1c0.2,0.3,0.3,0.7,0.5,1l0,0c0-0.6,0-1.2-0.1-1.9
		c0-0.6,0-1.3,0-1.8v-7.7c0-0.1,0-0.2,0.1-0.2c0.1-0.1,0.1-0.1,0.3-0.2c0.2-0.1,0.3-0.1,0.5-0.1s0.4,0,0.8,0c0.3,0,0.5,0,0.7,0
		s0.3,0.1,0.5,0.1s0.2,0.1,0.2,0.2s0.1,0.1,0.1,0.2L496.4,434.5L496.4,434.5z M503,435.3c0,0.1,0,0.2-0.1,0.2
		c-0.1,0.1-0.1,0.1-0.3,0.2c-0.1,0-0.3,0.1-0.5,0.1s-0.5,0-0.8,0s-0.6,0-0.8,0s-0.4-0.1-0.5-0.1s-0.2-0.1-0.3-0.2
		c-0.1-0.1-0.1-0.1-0.1-0.2V424c0-0.1,0-0.2,0.1-0.2c0.1-0.1,0.1-0.1,0.3-0.2c0.1,0,0.3-0.1,0.5-0.1s0.5,0,0.8,0s0.6,0,0.8,0
		s0.4,0.1,0.5,0.1s0.2,0.1,0.3,0.2c0.1,0.1,0.1,0.1,0.1,0.2V435.3z M502.8,421.4c-0.3,0.2-0.7,0.4-1.5,0.4c-0.7,0-1.2-0.1-1.5-0.4
		c-0.3-0.3-0.4-0.7-0.4-1.3s0.1-1.1,0.4-1.3c0.3-0.2,0.7-0.4,1.5-0.4c0.7,0,1.2,0.1,1.4,0.4c0.3,0.2,0.4,0.7,0.4,1.3
		C503.2,420.7,503.1,421.2,502.8,421.4z"/>
</g>
<g>
	<path class="st0" d="M735.6,123.3c-15.9,0-28.7,12.8-28.7,28.7s12.8,28.7,28.7,28.7s28.7-12.8,28.7-28.7
		C764.3,136.2,751.5,123.3,735.6,123.3z M739,159.4c0,0.2,0,0.4-0.1,0.5c-0.1,0.2-0.2,0.3-0.3,0.4s-0.3,0.2-0.4,0.2
		c-0.2,0-0.3,0.1-0.5,0.1h-1.4c-0.3,0-0.6,0-0.8-0.1s-0.4-0.2-0.6-0.3c-0.2-0.2-0.4-0.4-0.5-0.6c-0.2-0.3-0.4-0.6-0.6-1l-4.1-7.7
		c-0.2-0.5-0.5-1-0.7-1.5s-0.5-1-0.7-1.5l0,0c0,0.6,0.1,1.2,0.1,1.8s0,1.2,0,1.9v8.6c0,0.1,0,0.2-0.1,0.2c0,0.1-0.1,0.1-0.2,0.2
		s-0.3,0.1-0.5,0.1s-0.4,0-0.8,0c-0.3,0-0.5,0-0.7,0s-0.3-0.1-0.5-0.1c-0.1,0-0.2-0.1-0.2-0.2s-0.1-0.1-0.1-0.2v-14.8
		c0-0.4,0.1-0.7,0.3-0.9s0.5-0.3,0.9-0.3h1.8c0.3,0,0.6,0,0.8,0.1c0.2,0.1,0.4,0.1,0.6,0.3c0.2,0.1,0.3,0.3,0.5,0.5s0.3,0.5,0.5,0.8
		l3.2,6c0.2,0.4,0.4,0.7,0.6,1.1c0.2,0.4,0.4,0.7,0.5,1.1c0.1,0.4,0.3,0.7,0.5,1s0.3,0.7,0.5,1l0,0c0-0.6,0-1.2-0.1-1.9
		c0-0.6,0-1.3,0-1.8v-7.7c0-0.1,0-0.2,0.1-0.2c0.1-0.1,0.1-0.1,0.3-0.2c0.2-0.1,0.3-0.1,0.5-0.1s0.4,0,0.8,0c0.3,0,0.5,0,0.7,0
		s0.3,0.1,0.5,0.1s0.2,0.1,0.2,0.2c0,0.1,0.1,0.1,0.1,0.2L739,159.4L739,159.4z M745.6,160.2c0,0.1,0,0.2-0.1,0.2
		c-0.1,0.1-0.1,0.1-0.3,0.2c-0.1,0-0.3,0.1-0.5,0.1s-0.5,0-0.8,0s-0.6,0-0.8,0s-0.4-0.1-0.5-0.1s-0.2-0.1-0.3-0.2s-0.1-0.1-0.1-0.2
		v-11.3c0-0.1,0-0.2,0.1-0.2c0.1-0.1,0.1-0.1,0.3-0.2c0.1,0,0.3-0.1,0.5-0.1s0.5,0,0.8,0s0.6,0,0.8,0s0.4,0.1,0.5,0.1
		s0.2,0.1,0.3,0.2c0.1,0.1,0.1,0.1,0.1,0.2V160.2z M745.4,146.3c-0.3,0.2-0.7,0.4-1.5,0.4c-0.7,0-1.2-0.1-1.5-0.4s-0.4-0.7-0.4-1.3
		s0.1-1.1,0.4-1.3c0.3-0.2,0.7-0.4,1.5-0.4c0.7,0,1.2,0.1,1.4,0.4c0.3,0.2,0.4,0.7,0.4,1.3C745.8,145.6,745.7,146.1,745.4,146.3z"/>
	<g>
		<path class="st1" d="M656.8,43.4c-16.4,0-29.8,13.3-29.8,29.8s13.3,29.8,29.8,29.8c16.4,0,29.8-13.3,29.8-29.8
			S673.3,43.4,656.8,43.4z M661.6,81.7c-0.1,0.1-0.3,0.1-0.5,0.2c-0.2,0-0.5,0-1,0c-0.4,0-0.7,0-1,0c-0.2,0-0.4,0-0.5-0.1
			c-0.1,0-0.2-0.1-0.3-0.2c0-0.1-0.1-0.2-0.1-0.3l-1.1-3.2h-6l-1,3.1c0,0.1-0.1,0.2-0.1,0.3c-0.1,0.1-0.1,0.1-0.3,0.2
			c-0.1,0-0.3,0.1-0.5,0.1s-0.5,0-0.9,0s-0.7,0-0.9,0s-0.4-0.1-0.4-0.2c-0.1-0.1-0.1-0.2-0.1-0.4c0-0.2,0.1-0.4,0.2-0.7l4.9-14.2
			c0-0.1,0.1-0.3,0.2-0.3c0.1-0.1,0.2-0.2,0.3-0.2s0.3-0.1,0.6-0.1s0.6,0,1,0c0.5,0,0.9,0,1.2,0s0.5,0,0.7,0.1
			c0.2,0,0.3,0.1,0.3,0.2c0.1,0.1,0.1,0.2,0.2,0.4l5,14.2c0.1,0.3,0.2,0.5,0.2,0.7C661.7,81.4,661.7,81.6,661.6,81.7z M666.7,81.3
			c0,0.1,0,0.2-0.1,0.2c-0.1,0.1-0.1,0.1-0.3,0.2c-0.1,0-0.3,0.1-0.5,0.1s-0.5,0-0.8,0s-0.6,0-0.8,0s-0.4-0.1-0.5-0.1
			s-0.2-0.1-0.3-0.2c0-0.1-0.1-0.1-0.1-0.2V65.1c0-0.1,0-0.2,0.1-0.2c0-0.1,0.1-0.1,0.3-0.2c0.1,0,0.3-0.1,0.5-0.1s0.5,0,0.8,0
			s0.6,0,0.8,0s0.4,0.1,0.5,0.1s0.2,0.1,0.3,0.2c0,0.1,0.1,0.1,0.1,0.2V81.3z"/>
		<polygon class="st1" points="654.2,68.8 651.9,75.6 656.4,75.6 		"/>
	</g>
	<g>
		<path class="st1" d="M656.8,201c-16.4,0-29.8,13.3-29.8,29.8s13.3,29.8,29.8,29.8c16.4,0,29.8-13.3,29.8-29.8S673.3,201,656.8,201
			z M661.6,239.3c-0.1,0.1-0.3,0.1-0.5,0.2c-0.2,0-0.5,0-1,0c-0.4,0-0.7,0-1,0c-0.2,0-0.4,0-0.5-0.1c-0.1,0-0.2-0.1-0.3-0.2
			c0-0.1-0.1-0.2-0.1-0.3l-1.1-3.2h-6l-1,3.1c0,0.1-0.1,0.2-0.1,0.3c-0.1,0.1-0.1,0.1-0.3,0.2c-0.1,0-0.3,0.1-0.5,0.1s-0.5,0-0.9,0
			s-0.7,0-0.9,0s-0.4-0.1-0.4-0.2c-0.1-0.1-0.1-0.2-0.1-0.4c0-0.2,0.1-0.4,0.2-0.7l4.9-14.2c0-0.1,0.1-0.3,0.2-0.3
			c0.1-0.1,0.2-0.2,0.3-0.2s0.3-0.1,0.6-0.1s0.6,0,1,0c0.5,0,0.9,0,1.2,0s0.5,0,0.7,0.1c0.2,0,0.3,0.1,0.3,0.2
			c0.1,0.1,0.1,0.2,0.2,0.4l5,14.2c0.1,0.3,0.2,0.5,0.2,0.7C661.7,239,661.7,239.2,661.6,239.3z M666.7,238.9c0,0.1,0,0.2-0.1,0.2
			c-0.1,0.1-0.1,0.1-0.3,0.2c-0.1,0-0.3,0.1-0.5,0.1s-0.5,0-0.8,0s-0.6,0-0.8,0s-0.4-0.1-0.5-0.1s-0.2-0.1-0.3-0.2
			c0-0.1-0.1-0.1-0.1-0.2v-16.2c0-0.1,0-0.2,0.1-0.2c0-0.1,0.1-0.1,0.3-0.2c0.1,0,0.3-0.1,0.5-0.1s0.5,0,0.8,0s0.6,0,0.8,0
			s0.4,0.1,0.5,0.1s0.2,0.1,0.3,0.2c0,0.1,0.1,0.1,0.1,0.2V238.9z"/>
		<polygon class="st1" points="654.2,226.4 651.9,233.2 656.4,233.2 		"/>
	</g>
	<g>
		<path class="st1" d="M814.3,201.7c-16.4,0-29.8,13.3-29.8,29.8s13.3,29.8,29.8,29.8c16.4,0,29.8-13.3,29.8-29.8
			S830.8,201.7,814.3,201.7z M819.1,240c-0.1,0.1-0.3,0.1-0.5,0.2c-0.2,0-0.5,0-1,0c-0.4,0-0.7,0-1,0c-0.2,0-0.4,0-0.5-0.1
			c-0.1,0-0.2-0.1-0.3-0.2c0-0.1-0.1-0.2-0.1-0.3l-1.1-3.2h-6l-1,3.1c0,0.1-0.1,0.2-0.1,0.3c-0.1,0.1-0.1,0.1-0.3,0.2
			c-0.1,0-0.3,0.1-0.5,0.1s-0.5,0-0.9,0s-0.7,0-0.9,0s-0.4-0.1-0.4-0.2c-0.1-0.1-0.1-0.2-0.1-0.4s0.1-0.4,0.2-0.7l4.9-14.2
			c0-0.1,0.1-0.3,0.2-0.3c0.1-0.1,0.2-0.2,0.3-0.2s0.3-0.1,0.6-0.1s0.6,0,1,0c0.5,0,0.9,0,1.2,0s0.5,0,0.7,0.1
			c0.2,0,0.3,0.1,0.3,0.2c0.1,0.1,0.1,0.2,0.2,0.4l5,14.2c0.1,0.3,0.2,0.5,0.2,0.7C819.2,239.7,819.2,239.9,819.1,240z M824.2,239.6
			c0,0.1,0,0.2-0.1,0.2c-0.1,0.1-0.1,0.1-0.3,0.2c-0.1,0-0.3,0.1-0.5,0.1s-0.5,0-0.8,0s-0.6,0-0.8,0s-0.4-0.1-0.5-0.1
			s-0.2-0.1-0.3-0.2c0-0.1-0.1-0.1-0.1-0.2v-16.2c0-0.1,0-0.2,0.1-0.2c0-0.1,0.1-0.1,0.3-0.2c0.1,0,0.3-0.1,0.5-0.1s0.5,0,0.8,0
			s0.6,0,0.8,0s0.4,0.1,0.5,0.1s0.2,0.1,0.3,0.2c0,0.1,0.1,0.1,0.1,0.2V239.6z"/>
		<polygon class="st1" points="811.7,227.1 809.4,233.9 813.9,233.9 		"/>
	</g>
	<g>
		<path class="st1" d="M815.1,43.6c-16.4,0-29.8,13.3-29.8,29.8s13.3,29.8,29.8,29.8c16.4,0,29.8-13.3,29.8-29.8
			S831.6,43.6,815.1,43.6z M819.9,81.9c-0.1,0.1-0.3,0.1-0.5,0.2c-0.2,0-0.5,0-1,0c-0.4,0-0.7,0-1,0c-0.2,0-0.4,0-0.5-0.1
			c-0.1,0-0.2-0.1-0.3-0.2c0-0.1-0.1-0.2-0.1-0.3l-1.1-3.2h-6l-1,3.1c0,0.1-0.1,0.2-0.1,0.3c-0.1,0.1-0.1,0.1-0.3,0.2
			c-0.1,0-0.3,0.1-0.5,0.1s-0.5,0-0.9,0s-0.7,0-0.9,0s-0.4-0.1-0.4-0.2c-0.1-0.1-0.1-0.2-0.1-0.4c0-0.2,0.1-0.4,0.2-0.7l4.9-14.2
			c0-0.1,0.1-0.3,0.2-0.3c0.1-0.1,0.2-0.2,0.3-0.2s0.3-0.1,0.6-0.1s0.6,0,1,0c0.5,0,0.9,0,1.2,0s0.5,0,0.7,0.1
			c0.2,0,0.3,0.1,0.3,0.2c0.1,0.1,0.1,0.2,0.2,0.4l5,14.2c0.1,0.3,0.2,0.5,0.2,0.7C820,81.6,820,81.8,819.9,81.9z M825,81.5
			c0,0.1,0,0.2-0.1,0.2c-0.1,0.1-0.1,0.1-0.3,0.2c-0.1,0-0.3,0.1-0.5,0.1s-0.5,0-0.8,0s-0.6,0-0.8,0s-0.4-0.1-0.5-0.1
			s-0.2-0.1-0.3-0.2c0-0.1-0.1-0.1-0.1-0.2V65.3c0-0.1,0-0.2,0.1-0.2c0-0.1,0.1-0.1,0.3-0.2c0.1,0,0.3-0.1,0.5-0.1s0.5,0,0.8,0
			s0.6,0,0.8,0s0.4,0.1,0.5,0.1s0.2,0.1,0.3,0.2c0,0.1,0.1,0.1,0.1,0.2V81.5z"/>
		<polygon class="st1" points="812.5,69 810.2,75.8 814.7,75.8 		"/>
	</g>
	<path class="st0" d="M735.6,280.9c-15.9,0-28.7,12.8-28.7,28.7s12.8,28.7,28.7,28.7s28.7-12.8,28.7-28.7
		C764.3,293.8,751.5,280.9,735.6,280.9z M739,317c0,0.2,0,0.4-0.1,0.5c-0.1,0.2-0.2,0.3-0.3,0.4c-0.1,0.1-0.3,0.2-0.4,0.2
		c-0.2,0-0.3,0.1-0.5,0.1h-1.4c-0.3,0-0.6,0-0.8-0.1s-0.4-0.2-0.6-0.3c-0.2-0.2-0.4-0.4-0.5-0.6c-0.2-0.3-0.4-0.6-0.6-1l-4.1-7.7
		c-0.2-0.5-0.5-1-0.7-1.5s-0.5-1-0.7-1.5l0,0c0,0.6,0.1,1.2,0.1,1.8s0,1.2,0,1.9v8.6c0,0.1,0,0.2-0.1,0.2c0,0.1-0.1,0.1-0.2,0.2
		c-0.1,0.1-0.3,0.1-0.5,0.1s-0.4,0-0.8,0c-0.3,0-0.5,0-0.7,0s-0.3-0.1-0.5-0.1c-0.1,0-0.2-0.1-0.2-0.2c0-0.1-0.1-0.1-0.1-0.2V303
		c0-0.4,0.1-0.7,0.3-0.9s0.5-0.3,0.9-0.3h1.8c0.3,0,0.6,0,0.8,0.1s0.4,0.1,0.6,0.3c0.2,0.1,0.3,0.3,0.5,0.5c0.2,0.2,0.3,0.5,0.5,0.8
		l3.2,6c0.2,0.4,0.4,0.7,0.6,1.1c0.2,0.4,0.4,0.7,0.5,1.1c0.1,0.4,0.3,0.7,0.5,1c0.2,0.3,0.3,0.7,0.5,1l0,0c0-0.6,0-1.2-0.1-1.9
		c0-0.6,0-1.3,0-1.8v-7.7c0-0.1,0-0.2,0.1-0.2c0.1-0.1,0.1-0.1,0.3-0.2c0.2-0.1,0.3-0.1,0.5-0.1s0.4,0,0.8,0c0.3,0,0.5,0,0.7,0
		s0.3,0.1,0.5,0.1s0.2,0.1,0.2,0.2s0.1,0.1,0.1,0.2L739,317L739,317z M745.6,317.8c0,0.1,0,0.2-0.1,0.2c-0.1,0.1-0.1,0.1-0.3,0.2
		c-0.1,0-0.3,0.1-0.5,0.1s-0.5,0-0.8,0s-0.6,0-0.8,0s-0.4-0.1-0.5-0.1s-0.2-0.1-0.3-0.2c-0.1-0.1-0.1-0.1-0.1-0.2v-11.3
		c0-0.1,0-0.2,0.1-0.2c0.1-0.1,0.1-0.1,0.3-0.2c0.1,0,0.3-0.1,0.5-0.1s0.5,0,0.8,0s0.6,0,0.8,0s0.4,0.1,0.5,0.1s0.2,0.1,0.3,0.2
		c0.1,0.1,0.1,0.1,0.1,0.2V317.8z M745.4,303.9c-0.3,0.2-0.7,0.4-1.5,0.4c-0.7,0-1.2-0.1-1.5-0.4c-0.3-0.3-0.4-0.7-0.4-1.3
		s0.1-1.1,0.4-1.3c0.3-0.2,0.7-0.4,1.5-0.4c0.7,0,1.2,0.1,1.4,0.4c0.3,0.2,0.4,0.7,0.4,1.3C745.8,303.2,745.7,303.7,745.4,303.9z"/>
	<g>
		<path class="st1" d="M656.8,358.5c-16.4,0-29.8,13.3-29.8,29.8s13.3,29.8,29.8,29.8c16.4,0,29.8-13.3,29.8-29.8
			S673.3,358.5,656.8,358.5z M661.6,396.8c-0.1,0.1-0.3,0.1-0.5,0.2c-0.2,0-0.5,0-1,0c-0.4,0-0.7,0-1,0c-0.2,0-0.4,0-0.5-0.1
			c-0.1,0-0.2-0.1-0.3-0.2c0-0.1-0.1-0.2-0.1-0.3l-1.1-3.2h-6l-1,3.1c0,0.1-0.1,0.2-0.1,0.3c-0.1,0.1-0.1,0.1-0.3,0.2
			c-0.1,0-0.3,0.1-0.5,0.1s-0.5,0-0.9,0s-0.7,0-0.9,0s-0.4-0.1-0.4-0.2c-0.1-0.1-0.1-0.2-0.1-0.4c0-0.2,0.1-0.4,0.2-0.7l4.9-14.2
			c0-0.1,0.1-0.3,0.2-0.3c0.1-0.1,0.2-0.2,0.3-0.2s0.3-0.1,0.6-0.1s0.6,0,1,0c0.5,0,0.9,0,1.2,0s0.5,0,0.7,0.1
			c0.2,0,0.3,0.1,0.3,0.2c0.1,0.1,0.1,0.2,0.2,0.4l5,14.2c0.1,0.3,0.2,0.5,0.2,0.7C661.7,396.5,661.7,396.7,661.6,396.8z
			 M666.7,396.4c0,0.1,0,0.2-0.1,0.2c-0.1,0.1-0.1,0.1-0.3,0.2c-0.1,0-0.3,0.1-0.5,0.1s-0.5,0-0.8,0s-0.6,0-0.8,0s-0.4-0.1-0.5-0.1
			s-0.2-0.1-0.3-0.2c0-0.1-0.1-0.1-0.1-0.2v-16.2c0-0.1,0-0.2,0.1-0.2c0-0.1,0.1-0.1,0.3-0.2c0.1,0,0.3-0.1,0.5-0.1s0.5,0,0.8,0
			s0.6,0,0.8,0s0.4,0.1,0.5,0.1s0.2,0.1,0.3,0.2c0,0.1,0.1,0.1,0.1,0.2V396.4z"/>
		<polygon class="st1" points="654.2,383.9 651.9,390.7 656.4,390.7 		"/>
	</g>
	<g>
		<path class="st1" d="M814.3,359.2c-16.4,0-29.8,13.3-29.8,29.8s13.3,29.8,29.8,29.8c16.4,0,29.8-13.3,29.8-29.8
			S830.8,359.2,814.3,359.2z M819.1,397.5c-0.1,0.1-0.3,0.1-0.5,0.2c-0.2,0-0.5,0-1,0c-0.4,0-0.7,0-1,0c-0.2,0-0.4,0-0.5-0.1
			c-0.1,0-0.2-0.1-0.3-0.2c0-0.1-0.1-0.2-0.1-0.3l-1.1-3.2h-6l-1,3.1c0,0.1-0.1,0.2-0.1,0.3c-0.1,0.1-0.1,0.1-0.3,0.2
			c-0.1,0-0.3,0.1-0.5,0.1s-0.5,0-0.9,0s-0.7,0-0.9,0s-0.4-0.1-0.4-0.2c-0.1-0.1-0.1-0.2-0.1-0.4c0-0.2,0.1-0.4,0.2-0.7l4.9-14.2
			c0-0.1,0.1-0.3,0.2-0.3c0.1-0.1,0.2-0.2,0.3-0.2s0.3-0.1,0.6-0.1s0.6,0,1,0c0.5,0,0.9,0,1.2,0s0.5,0,0.7,0.1
			c0.2,0,0.3,0.1,0.3,0.2c0.1,0.1,0.1,0.2,0.2,0.4l5,14.2c0.1,0.3,0.2,0.5,0.2,0.7C819.2,397.2,819.2,397.4,819.1,397.5z
			 M824.2,397.1c0,0.1,0,0.2-0.1,0.2c-0.1,0.1-0.1,0.1-0.3,0.2c-0.1,0-0.3,0.1-0.5,0.1s-0.5,0-0.8,0s-0.6,0-0.8,0s-0.4-0.1-0.5-0.1
			s-0.2-0.1-0.3-0.2c0-0.1-0.1-0.1-0.1-0.2v-16.2c0-0.1,0-0.2,0.1-0.2c0-0.1,0.1-0.1,0.3-0.2c0.1,0,0.3-0.1,0.5-0.1s0.5,0,0.8,0
			s0.6,0,0.8,0s0.4,0.1,0.5,0.1s0.2,0.1,0.3,0.2c0,0.1,0.1,0.1,0.1,0.2V397.1z"/>
		<polygon class="st1" points="811.7,384.6 809.4,391.4 813.9,391.4 		"/>
	</g>
</g>
<path class="st0" d="M893.9,123.3c-15.9,0-28.7,12.8-28.7,28.7s12.8,28.7,28.7,28.7s28.7-12.8,28.7-28.7
	C922.6,136.2,909.8,123.3,893.9,123.3z M897.3,159.4c0,0.2,0,0.4-0.1,0.5c-0.1,0.2-0.2,0.3-0.3,0.4s-0.3,0.2-0.4,0.2
	c-0.2,0-0.3,0.1-0.5,0.1h-1.4c-0.3,0-0.6,0-0.8-0.1s-0.4-0.2-0.6-0.3c-0.2-0.2-0.4-0.4-0.5-0.6c-0.2-0.3-0.4-0.6-0.6-1l-4.1-7.7
	c-0.2-0.5-0.5-1-0.7-1.5s-0.5-1-0.7-1.5l0,0c0,0.6,0.1,1.2,0.1,1.8s0,1.2,0,1.9v8.6c0,0.1,0,0.2-0.1,0.2c0,0.1-0.1,0.1-0.2,0.2
	s-0.3,0.1-0.5,0.1s-0.4,0-0.8,0c-0.3,0-0.5,0-0.7,0s-0.3-0.1-0.5-0.1c-0.1,0-0.2-0.1-0.2-0.2s-0.1-0.1-0.1-0.2v-14.8
	c0-0.4,0.1-0.7,0.3-0.9s0.5-0.3,0.9-0.3h1.8c0.3,0,0.6,0,0.8,0.1c0.2,0.1,0.4,0.1,0.6,0.3c0.2,0.1,0.3,0.3,0.5,0.5s0.3,0.5,0.5,0.8
	l3.2,6c0.2,0.4,0.4,0.7,0.6,1.1c0.2,0.4,0.4,0.7,0.5,1.1c0.1,0.4,0.3,0.7,0.5,1s0.3,0.7,0.5,1l0,0c0-0.6,0-1.2-0.1-1.9
	c0-0.6,0-1.3,0-1.8v-7.7c0-0.1,0-0.2,0.1-0.2c0.1-0.1,0.1-0.1,0.3-0.2c0.2-0.1,0.3-0.1,0.5-0.1s0.4,0,0.8,0c0.3,0,0.5,0,0.7,0
	s0.3,0.1,0.5,0.1s0.2,0.1,0.2,0.2c0,0.1,0.1,0.1,0.1,0.2L897.3,159.4L897.3,159.4z M903.9,160.2c0,0.1,0,0.2-0.1,0.2
	c-0.1,0.1-0.1,0.1-0.3,0.2c-0.1,0-0.3,0.1-0.5,0.1s-0.5,0-0.8,0s-0.6,0-0.8,0s-0.4-0.1-0.5-0.1s-0.2-0.1-0.3-0.2s-0.1-0.1-0.1-0.2
	v-11.3c0-0.1,0-0.2,0.1-0.2c0.1-0.1,0.1-0.1,0.3-0.2c0.1,0,0.3-0.1,0.5-0.1s0.5,0,0.8,0s0.6,0,0.8,0s0.4,0.1,0.5,0.1
	s0.2,0.1,0.3,0.2c0.1,0.1,0.1,0.1,0.1,0.2V160.2z M903.7,146.3c-0.3,0.2-0.7,0.4-1.5,0.4c-0.7,0-1.2-0.1-1.5-0.4s-0.4-0.7-0.4-1.3
	s0.1-1.1,0.4-1.3c0.3-0.2,0.7-0.4,1.5-0.4c0.7,0,1.2,0.1,1.4,0.4c0.3,0.2,0.4,0.7,0.4,1.3C904.1,145.6,904,146.1,903.7,146.3z"/>
<g>
	<path class="st1" d="M972.5,201.7c-16.4,0-29.8,13.3-29.8,29.8s13.3,29.8,29.8,29.8c16.4,0,29.8-13.3,29.8-29.8
		S989,201.7,972.5,201.7z M977.3,240c-0.1,0.1-0.3,0.1-0.5,0.2c-0.2,0-0.5,0-1,0c-0.4,0-0.7,0-1,0c-0.2,0-0.4,0-0.5-0.1
		c-0.1,0-0.2-0.1-0.3-0.2c0-0.1-0.1-0.2-0.1-0.3l-1.1-3.2h-6l-1,3.1c0,0.1-0.1,0.2-0.1,0.3c-0.1,0.1-0.1,0.1-0.3,0.2
		c-0.1,0-0.3,0.1-0.5,0.1s-0.5,0-0.9,0s-0.7,0-0.9,0s-0.4-0.1-0.4-0.2c-0.1-0.1-0.1-0.2-0.1-0.4s0.1-0.4,0.2-0.7l4.9-14.2
		c0-0.1,0.1-0.3,0.2-0.3c0.1-0.1,0.2-0.2,0.3-0.2s0.3-0.1,0.6-0.1s0.6,0,1,0c0.5,0,0.9,0,1.2,0s0.5,0,0.7,0.1c0.2,0,0.3,0.1,0.3,0.2
		c0.1,0.1,0.1,0.2,0.2,0.4l5,14.2c0.1,0.3,0.2,0.5,0.2,0.7C977.4,239.7,977.4,239.9,977.3,240z M982.4,239.6c0,0.1,0,0.2-0.1,0.2
		c-0.1,0.1-0.1,0.1-0.3,0.2c-0.1,0-0.3,0.1-0.5,0.1s-0.5,0-0.8,0s-0.6,0-0.8,0s-0.4-0.1-0.5-0.1s-0.2-0.1-0.3-0.2
		c0-0.1-0.1-0.1-0.1-0.2v-16.2c0-0.1,0-0.2,0.1-0.2c0-0.1,0.1-0.1,0.3-0.2c0.1,0,0.3-0.1,0.5-0.1s0.5,0,0.8,0s0.6,0,0.8,0
		s0.4,0.1,0.5,0.1s0.2,0.1,0.3,0.2c0,0.1,0.1,0.1,0.1,0.2V239.6z"/>
	<polygon class="st1" points="969.9,227.1 967.6,233.9 972.1,233.9 	"/>
</g>
<g>
	<path class="st1" d="M973.3,43.6c-16.4,0-29.8,13.3-29.8,29.8s13.3,29.8,29.8,29.8c16.4,0,29.8-13.3,29.8-29.8
		S989.8,43.6,973.3,43.6z M978.1,81.9c-0.1,0.1-0.3,0.1-0.5,0.2c-0.2,0-0.5,0-1,0c-0.4,0-0.7,0-1,0c-0.2,0-0.4,0-0.5-0.1
		c-0.1,0-0.2-0.1-0.3-0.2c0-0.1-0.1-0.2-0.1-0.3l-1.1-3.2h-6l-1,3.1c0,0.1-0.1,0.2-0.1,0.3c-0.1,0.1-0.1,0.1-0.3,0.2
		c-0.1,0-0.3,0.1-0.5,0.1s-0.5,0-0.9,0s-0.7,0-0.9,0s-0.4-0.1-0.4-0.2c-0.1-0.1-0.1-0.2-0.1-0.4c0-0.2,0.1-0.4,0.2-0.7l4.9-14.2
		c0-0.1,0.1-0.3,0.2-0.3c0.1-0.1,0.2-0.2,0.3-0.2s0.3-0.1,0.6-0.1s0.6,0,1,0c0.5,0,0.9,0,1.2,0s0.5,0,0.7,0.1c0.2,0,0.3,0.1,0.3,0.2
		c0.1,0.1,0.1,0.2,0.2,0.4l5,14.2c0.1,0.3,0.2,0.5,0.2,0.7C978.2,81.6,978.2,81.8,978.1,81.9z M983.2,81.5c0,0.1,0,0.2-0.1,0.2
		c-0.1,0.1-0.1,0.1-0.3,0.2c-0.1,0-0.3,0.1-0.5,0.1s-0.5,0-0.8,0s-0.6,0-0.8,0s-0.4-0.1-0.5-0.1s-0.2-0.1-0.3-0.2
		c0-0.1-0.1-0.1-0.1-0.2V65.3c0-0.1,0-0.2,0.1-0.2c0-0.1,0.1-0.1,0.3-0.2c0.1,0,0.3-0.1,0.5-0.1s0.5,0,0.8,0s0.6,0,0.8,0
		s0.4,0.1,0.5,0.1s0.2,0.1,0.3,0.2c0,0.1,0.1,0.1,0.1,0.2V81.5z"/>
	<polygon class="st1" points="970.7,69 968.4,75.8 972.9,75.8 	"/>
</g>
<path class="st0" d="M893.9,280.9c-15.9,0-28.7,12.8-28.7,28.7s12.8,28.7,28.7,28.7s28.7-12.8,28.7-28.7
	C922.6,293.8,909.8,280.9,893.9,280.9z M897.3,317c0,0.2,0,0.4-0.1,0.5c-0.1,0.2-0.2,0.3-0.3,0.4c-0.1,0.1-0.3,0.2-0.4,0.2
	c-0.2,0-0.3,0.1-0.5,0.1h-1.4c-0.3,0-0.6,0-0.8-0.1s-0.4-0.2-0.6-0.3c-0.2-0.2-0.4-0.4-0.5-0.6c-0.2-0.3-0.4-0.6-0.6-1l-4.1-7.7
	c-0.2-0.5-0.5-1-0.7-1.5s-0.5-1-0.7-1.5l0,0c0,0.6,0.1,1.2,0.1,1.8s0,1.2,0,1.9v8.6c0,0.1,0,0.2-0.1,0.2c0,0.1-0.1,0.1-0.2,0.2
	c-0.1,0.1-0.3,0.1-0.5,0.1s-0.4,0-0.8,0c-0.3,0-0.5,0-0.7,0s-0.3-0.1-0.5-0.1c-0.1,0-0.2-0.1-0.2-0.2c0-0.1-0.1-0.1-0.1-0.2V303
	c0-0.4,0.1-0.7,0.3-0.9s0.5-0.3,0.9-0.3h1.8c0.3,0,0.6,0,0.8,0.1s0.4,0.1,0.6,0.3c0.2,0.1,0.3,0.3,0.5,0.5c0.2,0.2,0.3,0.5,0.5,0.8
	l3.2,6c0.2,0.4,0.4,0.7,0.6,1.1c0.2,0.4,0.4,0.7,0.5,1.1c0.1,0.4,0.3,0.7,0.5,1c0.2,0.3,0.3,0.7,0.5,1l0,0c0-0.6,0-1.2-0.1-1.9
	c0-0.6,0-1.3,0-1.8v-7.7c0-0.1,0-0.2,0.1-0.2c0.1-0.1,0.1-0.1,0.3-0.2c0.2-0.1,0.3-0.1,0.5-0.1s0.4,0,0.8,0c0.3,0,0.5,0,0.7,0
	s0.3,0.1,0.5,0.1s0.2,0.1,0.2,0.2s0.1,0.1,0.1,0.2L897.3,317L897.3,317z M903.9,317.8c0,0.1,0,0.2-0.1,0.2c-0.1,0.1-0.1,0.1-0.3,0.2
	c-0.1,0-0.3,0.1-0.5,0.1s-0.5,0-0.8,0s-0.6,0-0.8,0s-0.4-0.1-0.5-0.1s-0.2-0.1-0.3-0.2c-0.1-0.1-0.1-0.1-0.1-0.2v-11.3
	c0-0.1,0-0.2,0.1-0.2c0.1-0.1,0.1-0.1,0.3-0.2c0.1,0,0.3-0.1,0.5-0.1s0.5,0,0.8,0s0.6,0,0.8,0s0.4,0.1,0.5,0.1s0.2,0.1,0.3,0.2
	c0.1,0.1,0.1,0.1,0.1,0.2V317.8z M903.7,303.9c-0.3,0.2-0.7,0.4-1.5,0.4c-0.7,0-1.2-0.1-1.5-0.4c-0.3-0.3-0.4-0.7-0.4-1.3
	s0.1-1.1,0.4-1.3c0.3-0.2,0.7-0.4,1.5-0.4c0.7,0,1.2,0.1,1.4,0.4c0.3,0.2,0.4,0.7,0.4,1.3C904.1,303.2,904,303.7,903.7,303.9z"/>
<g>
	<path class="st1" d="M972.5,359.2c-16.4,0-29.8,13.3-29.8,29.8s13.3,29.8,29.8,29.8c16.4,0,29.8-13.3,29.8-29.8
		S989,359.2,972.5,359.2z M977.3,397.5c-0.1,0.1-0.3,0.1-0.5,0.2c-0.2,0-0.5,0-1,0c-0.4,0-0.7,0-1,0c-0.2,0-0.4,0-0.5-0.1
		c-0.1,0-0.2-0.1-0.3-0.2c0-0.1-0.1-0.2-0.1-0.3l-1.1-3.2h-6l-1,3.1c0,0.1-0.1,0.2-0.1,0.3c-0.1,0.1-0.1,0.1-0.3,0.2
		c-0.1,0-0.3,0.1-0.5,0.1s-0.5,0-0.9,0s-0.7,0-0.9,0s-0.4-0.1-0.4-0.2c-0.1-0.1-0.1-0.2-0.1-0.4c0-0.2,0.1-0.4,0.2-0.7l4.9-14.2
		c0-0.1,0.1-0.3,0.2-0.3c0.1-0.1,0.2-0.2,0.3-0.2s0.3-0.1,0.6-0.1s0.6,0,1,0c0.5,0,0.9,0,1.2,0s0.5,0,0.7,0.1c0.2,0,0.3,0.1,0.3,0.2
		c0.1,0.1,0.1,0.2,0.2,0.4l5,14.2c0.1,0.3,0.2,0.5,0.2,0.7C977.4,397.2,977.4,397.4,977.3,397.5z M982.4,397.1c0,0.1,0,0.2-0.1,0.2
		c-0.1,0.1-0.1,0.1-0.3,0.2c-0.1,0-0.3,0.1-0.5,0.1s-0.5,0-0.8,0s-0.6,0-0.8,0s-0.4-0.1-0.5-0.1s-0.2-0.1-0.3-0.2
		c0-0.1-0.1-0.1-0.1-0.2v-16.2c0-0.1,0-0.2,0.1-0.2c0-0.1,0.1-0.1,0.3-0.2c0.1,0,0.3-0.1,0.5-0.1s0.5,0,0.8,0s0.6,0,0.8,0
		s0.4,0.1,0.5,0.1s0.2,0.1,0.3,0.2c0,0.1,0.1,0.1,0.1,0.2V397.1z"/>
	<polygon class="st1" points="969.9,384.6 967.6,391.4 972.1,391.4 	"/>
</g>
<path class="st2" d="M988.2,432.8h-347c-15.6,0-28.3-12.8-28.3-28.3V57.8c0-15.6,12.8-28.3,28.3-28.3h347
	c15.6,0,28.3,12.8,28.3,28.3v346.7C1016.5,420.1,1003.7,432.8,988.2,432.8z"/>
</svg>
