<?xml version="1.0" encoding="utf-8"?>
<!-- Generator: Adobe Illustrator 23.0.0, SVG Export Plug-In . SVG Version: 6.00 Build 0)  -->
<svg version="1.1" id="图层_1" xmlns="http://www.w3.org/2000/svg" xmlns:xlink="http://www.w3.org/1999/xlink" x="0px" y="0px"
	 viewBox="0 0 1417.3 708.7" style="enable-background:new 0 0 1417.3 708.7;" xml:space="preserve">
<style type="text/css">
	.st0{fill:none;stroke:#231815;stroke-width:5;stroke-linecap:round;stroke-linejoin:round;}
	.st1{fill:none;stroke:#231815;stroke-width:5;stroke-linecap:round;stroke-linejoin:round;stroke-dasharray:12.42,24.84;}
	.st2{fill:none;stroke:#231815;stroke-width:5;stroke-linecap:round;stroke-linejoin:round;stroke-dasharray:11.93,23.85;}
	.st3{fill:none;stroke:#231815;stroke-width:5;stroke-linecap:round;stroke-linejoin:round;stroke-dasharray:12.41,24.83;}
	.st4{fill:none;stroke:#231815;stroke-width:5;stroke-linejoin:round;}
	.st5{fill:#FFFFFF;}
	.st6{opacity:0.3;fill:#315288;enable-background:new    ;}
	.st7{fill:#315288;}
	.st8{enable-background:new    ;}
	.st9{fill:#C4AF9A;}
</style>
<title>gamma</title>
<g>
	<line class="st0" x1="314" y1="100.8" x2="314" y2="106.8"/>
	<line class="st1" x1="314" y1="131.6" x2="314" y2="380"/>
	<polyline class="st0" points="314,392.5 314,398.5 308.8,401.5 	"/>
	<line class="st2" x1="288.2" y1="413.4" x2="143.6" y2="496.9"/>
	<line class="st0" x1="314" y1="398.5" x2="320" y2="398.5"/>
	<line class="st3" x1="344.9" y1="398.5" x2="593.2" y2="398.5"/>
	<line class="st0" x1="605.6" y1="398.5" x2="611.6" y2="398.5"/>
	<polygon class="st4" points="611.6,100.8 611.6,398.5 425.6,505.8 128.1,505.8 128.1,208.2 314,100.8 	"/>
	<polyline class="st4" points="128.1,208.2 425.6,208.2 611.6,100.8 	"/>
	
		<ellipse transform="matrix(0.1602 -0.9871 0.9871 0.1602 -130.0663 645.0292)" class="st5" cx="314" cy="399" rx="28.4" ry="28.3"/>
	<path class="st6" d="M314,370.6c-15.7,0-28.4,12.6-28.4,28.3c0,15.7,12.6,28.4,28.3,28.4c15.7,0,28.4-12.6,28.4-28.3l0,0
		C342.4,383.3,329.8,370.6,314,370.6C314.1,370.6,314.1,370.6,314,370.6z M317.4,406.2c0,0.2,0,0.3-0.1,0.5
		c-0.1,0.1-0.2,0.3-0.3,0.4c-0.1,0.1-0.2,0.2-0.4,0.2c-0.2,0-0.3,0.1-0.5,0.1h-1.4c-0.3,0-0.5,0-0.8-0.1l-0.6-0.3
		c-0.2-0.2-0.4-0.4-0.5-0.6c-0.2-0.3-0.4-0.7-0.6-1l-4-7.6c-0.2-0.5-0.5-1-0.7-1.5s-0.5-1-0.7-1.5l0,0c0,0.6,0.1,1.2,0.1,1.8V407
		c0,0.1,0,0.2-0.1,0.2s-0.1,0.1-0.2,0.2s-0.3,0.1-0.5,0.1h-1.5c-0.2,0-0.3-0.1-0.5-0.1c-0.1,0-0.2-0.1-0.2-0.2s-0.1-0.1-0.1-0.2
		v-14.6c-0.1-0.6,0.3-1.1,0.9-1.2c0.1,0,0.2,0,0.3,0h1.8c0.3,0,0.5,0,0.8,0.1c0.2,0.1,0.4,0.1,0.6,0.3c0.2,0.2,0.3,0.3,0.5,0.5
		s0.4,0.5,0.5,0.8l3.1,6c0.2,0.4,0.4,0.7,0.6,1.1c0.2,0.3,0.4,0.7,0.5,1.1s0.3,0.7,0.5,1s0.3,0.7,0.5,1l0,0c0-0.6,0-1.3-0.1-1.9
		v-9.4c0-0.1,0-0.2,0.1-0.2c0.1-0.1,0.2-0.2,0.3-0.2c0.1-0.1,0.3-0.1,0.5-0.1h1.5c0.2,0,0.3,0.1,0.5,0.1s0.2,0.1,0.2,0.2
		s0.1,0.1,0.1,0.2L317.4,406.2L317.4,406.2z M323.9,407c0,0.1,0,0.2-0.1,0.2c-0.1,0.1-0.2,0.2-0.3,0.2c-0.2,0-0.3,0.1-0.5,0.1h-1.6
		c-0.2,0-0.3-0.1-0.5-0.1c-0.1,0-0.2-0.1-0.3-0.2s-0.1-0.1-0.1-0.2v-11.1c0-0.1,0-0.2,0.1-0.2c0.1-0.1,0.2-0.2,0.3-0.2
		c0.2,0,0.3-0.1,0.5-0.1h1.6c0.2,0,0.3,0.1,0.5,0.1c0.1,0,0.2,0.1,0.3,0.2c0.1,0.1,0.1,0.1,0.1,0.2V407z M323.7,393.3
		c-0.4,0.3-1,0.4-1.5,0.4c-0.5,0.1-1.1-0.1-1.5-0.4c-0.3-0.4-0.4-0.8-0.4-1.3c-0.1-0.5,0.1-0.9,0.4-1.3c0.4-0.3,1-0.4,1.5-0.4
		c0.7,0,1.2,0.1,1.4,0.4c0.3,0.3,0.5,0.8,0.4,1.3C324.2,392.4,324,392.9,323.7,393.3L323.7,393.3z"/>
	<circle class="st5" cx="369.8" cy="452.4" r="31.9"/>
	<path class="st6" d="M369.8,420.5c-17.6,0-31.9,14.3-31.9,31.9s14.3,31.9,31.9,31.9s31.9-14.3,31.9-31.9s-14.2-31.9-31.8-31.9
		H369.8z M373.6,460.6c0,0.2,0,0.4-0.1,0.6s-0.2,0.3-0.3,0.4c-0.1,0.1-0.3,0.2-0.5,0.2s-0.3,0.1-0.5,0.1h-1.6c-0.3,0-0.6,0-0.9-0.1
		l-0.7-0.3c-0.2-0.2-0.4-0.4-0.6-0.7c-0.2-0.3-0.4-0.7-0.7-1.1l-4.5-8.6c-0.2-0.6-0.6-1.1-0.8-1.7s-0.5-1.1-0.8-1.7l0,0
		c0,0.7,0.1,1.3,0.1,2v11.7c0,0.1,0,0.2-0.1,0.2s-0.1,0.1-0.2,0.2c-0.2,0.1-0.4,0.1-0.5,0.1h-1.7c-0.2,0-0.3-0.1-0.6-0.1
		c-0.1,0-0.2-0.1-0.2-0.2s-0.1-0.1-0.1-0.2V445c0-0.4,0.1-0.7,0.3-1c0.3-0.2,0.6-0.4,1-0.3h2c0.3,0,0.6,0,0.9,0.1
		c0.2,0.1,0.5,0.1,0.7,0.3s0.3,0.3,0.5,0.6c0.2,0.3,0.4,0.6,0.6,0.9l3.6,6.7c0.2,0.5,0.4,0.8,0.7,1.2c0.2,0.4,0.4,0.8,0.6,1.2
		c0.1,0.4,0.3,0.8,0.5,1.1c0.2,0.3,0.3,0.8,0.6,1.1l0,0c0-0.7,0-1.4-0.1-2.1v-10.6c0-0.1,0-0.2,0.1-0.2c0.1-0.1,0.2-0.2,0.3-0.2
		c0.2-0.1,0.4-0.1,0.6-0.1h1.7c0.2,0,0.3,0.1,0.6,0.1s0.2,0.1,0.2,0.2s0.1,0.1,0.1,0.2v16.3L373.6,460.6L373.6,460.6z M380.9,461.5
		c0,0.1,0,0.2-0.1,0.2c-0.1,0.1-0.2,0.2-0.3,0.2c-0.2,0-0.4,0.1-0.5,0.1h-1.8c-0.2,0-0.4-0.1-0.6-0.1c-0.1,0-0.2-0.1-0.3-0.2
		s-0.1-0.1-0.1-0.2v-12.6c0-0.1,0-0.2,0.1-0.2c0.1-0.1,0.2-0.2,0.3-0.2c0.2,0,0.4-0.1,0.6-0.1h1.8c0.2,0,0.4,0.1,0.5,0.1
		s0.2,0.1,0.3,0.2s0.1,0.1,0.1,0.2V461.5z M380.7,446c-0.5,0.3-1.1,0.5-1.7,0.4c-0.6,0.1-1.2-0.1-1.7-0.4c-0.3-0.4-0.5-0.9-0.4-1.5
		c0-0.7,0.1-1.2,0.4-1.4c0.5-0.3,1.1-0.5,1.7-0.4c0.8,0,1.3,0.1,1.5,0.4s0.5,0.8,0.5,1.4S381,445.8,380.7,446L380.7,446z"/>
	<circle class="st5" cx="462.8" cy="249.6" r="28.4"/>
	<path class="st6" d="M462.8,221.3c-15.7,0-28.4,12.7-28.4,28.3s12.7,28.4,28.3,28.4c15.7,0,28.4-12.7,28.4-28.3l0,0
		C491.1,234.1,478.5,221.4,462.8,221.3C462.9,221.3,462.8,221.3,462.8,221.3z M466.2,256.9c0,0.2,0,0.4-0.1,0.5s-0.2,0.3-0.3,0.4
		c-0.1,0.1-0.2,0.2-0.4,0.2c-0.2,0-0.3,0.1-0.5,0.1h-1.4c-0.3,0-0.5,0-0.8-0.1l-0.6-0.3c-0.2-0.2-0.4-0.4-0.5-0.6
		c-0.2-0.3-0.4-0.7-0.6-1l-4-7.6c-0.2-0.5-0.5-1-0.7-1.5s-0.5-1-0.7-1.5l0,0c0,0.6,0.1,1.2,0.1,1.8v10.4c0,0.1,0,0.2-0.1,0.2
		s-0.1,0.1-0.2,0.2s-0.3,0.1-0.5,0.1h-1.5c-0.2,0-0.3-0.1-0.5-0.1c-0.1,0-0.2-0.1-0.2-0.2s-0.1-0.1-0.1-0.2v-14.6
		c-0.1-0.6,0.3-1.1,0.9-1.2c0.1,0,0.2,0,0.3,0h1.8c0.3,0,0.5,0,0.8,0.1c0.2,0.1,0.4,0.1,0.6,0.3s0.3,0.3,0.5,0.5s0.4,0.5,0.5,0.8
		l3.2,5.9c0.2,0.4,0.4,0.7,0.6,1.1c0.2,0.3,0.4,0.7,0.5,1.1c0.1,0.4,0.3,0.7,0.5,1s0.3,0.7,0.5,1l0,0c0-0.6,0-1.3-0.1-1.9v-9.4
		c0-0.1,0-0.2,0.1-0.2c0.1-0.1,0.2-0.2,0.3-0.2c0.2-0.1,0.3-0.1,0.5-0.1h1.5c0.2,0,0.3,0.1,0.5,0.1s0.2,0.1,0.2,0.2s0.1,0.1,0.1,0.2
		L466.2,256.9L466.2,256.9z M472.7,257.7c0,0.1,0,0.2-0.1,0.2c-0.1,0.1-0.2,0.2-0.3,0.2c-0.2,0-0.3,0.1-0.5,0.1h-1.6
		c-0.2,0-0.3-0.1-0.5-0.1c-0.1,0-0.2-0.1-0.3-0.2c-0.1-0.1-0.1-0.1-0.1-0.2v-11.2c0-0.1,0-0.2,0.1-0.2c0.1-0.1,0.2-0.2,0.3-0.2
		c0.2,0,0.3-0.1,0.5-0.1h1.6c0.2,0,0.3,0.1,0.5,0.1c0.1,0,0.2,0.1,0.3,0.2s0.1,0.1,0.1,0.2V257.7z M472.5,244
		c-0.4,0.3-1,0.4-1.5,0.4c-0.5,0.1-1.1-0.1-1.5-0.4c-0.3-0.4-0.4-0.8-0.4-1.3c0-0.6,0.1-1.1,0.4-1.3c0.4-0.3,1-0.4,1.5-0.4
		c0.7,0,1.2,0.1,1.4,0.4s0.4,0.7,0.4,1.3C472.9,243.2,472.8,243.6,472.5,244L472.5,244z"/>
	<line class="st4" x1="425.6" y1="208.2" x2="425.6" y2="505.8"/>
	
		<ellipse transform="matrix(7.088903e-02 -0.9975 0.9975 7.088903e-02 -88.6571 321.2186)" class="st5" cx="128.1" cy="208.2" rx="35.4" ry="35.4"/>
	<path class="st7" d="M128.1,172.7c-19.6,0-35.4,15.9-35.4,35.4s15.9,35.4,35.4,35.4s35.4-15.9,35.4-35.4S147.8,172.7,128.1,172.7
		C128.2,172.7,128.1,172.7,128.1,172.7z M132.3,217.3c0,0.3,0,0.5-0.1,0.6c-0.1,0.2-0.2,0.4-0.4,0.5c-0.1,0.1-0.3,0.2-0.5,0.2
		c-0.3,0-0.4,0.1-0.6,0.1H129c-0.3,0-0.7,0-1-0.1l-0.7-0.4c-0.2-0.2-0.5-0.5-0.6-0.7c-0.3-0.4-0.5-0.8-0.7-1.2l-5-9.5
		c-0.3-0.6-0.6-1.2-0.9-1.9s-0.6-1.2-0.9-1.9l0,0c0,0.7,0.1,1.5,0.1,2.2v13c0,0.1,0,0.3-0.1,0.3s-0.1,0.1-0.3,0.3
		c-0.2,0.1-0.4,0.1-0.6,0.1h-1.8c-0.3,0-0.4-0.1-0.6-0.1c-0.1,0-0.2-0.1-0.2-0.3c0-0.1-0.1-0.1-0.1-0.3V200c0-0.4,0.1-0.8,0.4-1.1
		s0.7-0.4,1.1-0.4h2.2c0.3,0,0.7,0,1,0.1c0.2,0.1,0.5,0.1,0.7,0.4s0.4,0.4,0.6,0.6c0.2,0.3,0.4,0.7,0.6,1l4,7.4
		c0.3,0.5,0.5,0.9,0.7,1.4c0.3,0.4,0.5,0.9,0.6,1.4c0.1,0.4,0.3,0.9,0.6,1.2c0.2,0.4,0.4,0.9,0.6,1.2l0,0c0-0.8,0-1.6-0.1-2.4v-11.7
		c0-0.1,0-0.3,0.1-0.3c0.1-0.1,0.2-0.2,0.4-0.3s0.4-0.1,0.6-0.1h1.8c0.3,0,0.4,0.1,0.6,0.1s0.3,0.1,0.3,0.3s0.1,0.1,0.1,0.3
		L132.3,217.3L132.3,217.3z M140.4,218.3c0,0.1,0,0.3-0.1,0.3c-0.1,0.1-0.2,0.2-0.4,0.3s-0.4,0.1-0.6,0.1h-1.9
		c-0.2,0-0.4-0.1-0.6-0.1c-0.1,0-0.2-0.1-0.4-0.3c-0.1-0.1-0.1-0.1-0.1-0.3v-14c0-0.1,0-0.3,0.1-0.3c0.1-0.1,0.2-0.2,0.4-0.2
		c0.2-0.1,0.4-0.1,0.6-0.1h2c0.2,0,0.4,0.1,0.6,0.1c0.1,0,0.3,0.1,0.4,0.2s0.1,0.1,0.1,0.3L140.4,218.3z M140.2,201.1
		c-0.5,0.4-1.2,0.5-1.8,0.5c-0.7,0.1-1.3-0.1-1.9-0.5c-0.4-0.4-0.6-1-0.5-1.6c0-0.7,0.1-1.4,0.5-1.6c0.5-0.4,1.2-0.5,1.9-0.5
		c0.9,0,1.5,0.1,1.7,0.5s0.5,0.9,0.5,1.6S140.5,200.8,140.2,201.1L140.2,201.1z"/>
	
		<ellipse transform="matrix(4.531445e-02 -0.999 0.999 4.531445e-02 -382.9852 610.8483)" class="st5" cx="128.1" cy="505.8" rx="35.4" ry="35.4"/>
	<path class="st7" d="M128.1,470.4c-19.6,0-35.4,15.9-35.4,35.4c0,19.6,15.9,35.4,35.4,35.4c19.6,0,35.4-15.9,35.4-35.4
		C163.5,486.3,147.8,470.4,128.1,470.4C128.2,470.4,128.1,470.4,128.1,470.4z M132.3,515c0,0.2,0,0.5-0.1,0.6
		c-0.1,0.2-0.2,0.4-0.4,0.5c-0.1,0.1-0.3,0.2-0.5,0.2c-0.3,0-0.4,0.1-0.6,0.1H129c-0.3,0-0.7,0-1-0.1l-0.7-0.4
		c-0.2-0.2-0.5-0.5-0.6-0.7c-0.3-0.4-0.5-0.8-0.7-1.2l-5.1-9.5c-0.3-0.6-0.6-1.2-0.9-1.9s-0.6-1.2-0.9-1.9l0,0
		c0,0.7,0.1,1.5,0.1,2.2v13c0,0.1,0,0.3-0.1,0.3s-0.1,0.1-0.3,0.3c-0.2,0.1-0.4,0.1-0.6,0.1h-1.8c-0.3,0-0.4-0.1-0.6-0.1
		c-0.1,0-0.2-0.1-0.2-0.3c0-0.1-0.1-0.1-0.1-0.3v-18.3c0-0.4,0.1-0.8,0.4-1.1c0.3-0.3,0.7-0.4,1.1-0.4h2.2c0.3,0,0.7,0,1,0.1
		c0.2,0.1,0.5,0.1,0.7,0.4s0.4,0.4,0.6,0.6c0.2,0.3,0.4,0.7,0.6,1l4,7.4c0.3,0.5,0.5,0.9,0.7,1.4c0.3,0.4,0.5,0.9,0.6,1.4
		c0.1,0.4,0.3,0.9,0.6,1.2c0.2,0.4,0.4,0.9,0.6,1.2l0,0c0-0.8,0-1.6-0.1-2.3v-11.7c0-0.1,0-0.3,0.1-0.3c0.1-0.1,0.2-0.2,0.4-0.3
		c0.2-0.1,0.4-0.1,0.6-0.1h1.8c0.3,0,0.4,0.1,0.6,0.1s0.3,0.1,0.3,0.3s0.1,0.1,0.1,0.3L132.3,515L132.3,515z M140.4,516
		c0,0.1,0,0.3-0.1,0.3c-0.1,0.1-0.2,0.2-0.4,0.3s-0.4,0.1-0.6,0.1h-1.9c-0.2,0-0.4-0.1-0.6-0.1c-0.1,0-0.2-0.1-0.4-0.3
		c-0.1-0.1-0.1-0.1-0.1-0.3v-14c0-0.1,0-0.2,0.1-0.2c0.1-0.1,0.2-0.2,0.4-0.3c0.2-0.1,0.4-0.1,0.6-0.1h2c0.2,0,0.4,0.1,0.6,0.1
		c0.1,0,0.3,0.1,0.4,0.3s0.1,0.1,0.1,0.2L140.4,516z M140.2,498.8c-0.5,0.4-1.2,0.5-1.9,0.5c-0.7,0.1-1.3-0.1-1.8-0.5
		c-0.4-0.4-0.6-1-0.5-1.6c0-0.7,0.1-1.4,0.5-1.6c0.5-0.4,1.2-0.5,1.8-0.5c0.9,0,1.5,0.1,1.7,0.5s0.5,0.9,0.5,1.6
		S140.5,498.6,140.2,498.8z"/>
	<circle class="st5" cx="425.6" cy="208.2" r="35.4"/>
	<path class="st7" d="M425.6,172.7c-19.6,0-35.4,15.9-35.4,35.4s15.9,35.4,35.4,35.4c19.6,0,35.4-15.9,35.4-35.4
		s-15.7-35.4-35.3-35.4C425.7,172.7,425.6,172.7,425.6,172.7z M429.8,217.3c0,0.2,0,0.4-0.1,0.6c-0.1,0.2-0.2,0.4-0.4,0.5
		c-0.1,0.1-0.3,0.2-0.5,0.2s-0.4,0.1-0.6,0.1h-1.7c-0.3,0-0.7,0-1-0.1l-0.7-0.4c-0.2-0.2-0.5-0.5-0.6-0.7c-0.3-0.4-0.5-0.8-0.7-1.2
		l-5-9.5c-0.3-0.6-0.6-1.2-0.9-1.9s-0.6-1.2-0.9-1.9l0,0c0,0.7,0.1,1.5,0.1,2.2v13c0,0.1,0,0.3-0.1,0.3s-0.1,0.1-0.3,0.3
		c-0.2,0.1-0.4,0.2-0.6,0.1h-1.9c-0.2,0-0.4-0.1-0.6-0.1c-0.1,0-0.2-0.1-0.3-0.3c0-0.1-0.1-0.1-0.1-0.3V200c0-0.4,0.1-0.8,0.4-1.1
		s0.7-0.4,1.1-0.4h2.2c0.3,0,0.7,0,1,0.1s0.5,0.1,0.7,0.4s0.4,0.4,0.6,0.6c0.2,0.3,0.4,0.7,0.6,1l4,7.4c0.3,0.5,0.5,0.9,0.8,1.4
		c0.3,0.4,0.5,0.9,0.6,1.4c0.1,0.4,0.3,0.9,0.6,1.2c0.3,0.4,0.4,0.9,0.6,1.2l0,0c0-0.8,0-1.6-0.1-2.4v-11.7c0-0.1,0-0.3,0.1-0.3
		c0.1-0.1,0.2-0.2,0.4-0.3c0.2-0.1,0.4-0.1,0.6-0.1h1.9c0.2,0,0.4,0.1,0.6,0.1s0.3,0.1,0.3,0.3s0.1,0.1,0.1,0.3v18.1h-0.2V217.3z
		 M437.9,218.3c0,0.1,0,0.3-0.1,0.3c-0.1,0.1-0.2,0.2-0.4,0.3c-0.2,0.1-0.4,0.1-0.6,0.1h-2c-0.2,0-0.4-0.1-0.6-0.1
		c-0.1,0-0.3-0.1-0.4-0.3s-0.1-0.1-0.1-0.3v-14c0-0.1,0-0.3,0.1-0.3c0.1-0.1,0.2-0.2,0.4-0.2c0.2-0.1,0.4-0.1,0.6-0.1h2
		c0.2,0,0.4,0.1,0.6,0.1c0.1,0,0.2,0.1,0.4,0.2s0.1,0.1,0.1,0.3V218.3z M437.7,201.1c-0.5,0.4-1.2,0.5-1.9,0.5
		c-0.7,0.1-1.3-0.1-1.9-0.5c-0.4-0.4-0.6-1-0.5-1.6c-0.1-0.6,0.1-1.2,0.5-1.6c0.5-0.4,1.2-0.5,1.9-0.5c0.9,0,1.5,0.1,1.7,0.5
		s0.5,0.9,0.5,1.6C438.2,200.1,438.1,200.7,437.7,201.1L437.7,201.1z"/>
	<circle class="st5" cx="314" cy="100.8" r="28.3"/>
	<path class="st7" d="M314,72.4c-15.7,0-28.4,12.6-28.4,28.3s12.6,28.4,28.3,28.4c15.7,0,28.4-12.6,28.4-28.3l0,0
		C342.4,85.2,329.7,72.5,314,72.4C314.1,72.4,314.1,72.4,314,72.4z M317.4,108.1c0,0.2,0,0.3-0.1,0.5s-0.2,0.3-0.3,0.4
		c-0.1,0.1-0.3,0.2-0.4,0.2c-0.2,0-0.3,0.1-0.5,0.1h-1.4c-0.3,0-0.5,0-0.8-0.1l-0.6-0.3c-0.2-0.2-0.4-0.4-0.5-0.6
		c-0.2-0.3-0.4-0.7-0.6-1l-4-7.6c-0.2-0.5-0.5-1-0.7-1.5s-0.5-1-0.7-1.5l0,0c0,0.6,0.1,1.2,0.1,1.8v10.4c0,0.1,0,0.2-0.1,0.2
		s-0.1,0.1-0.2,0.2s-0.3,0.1-0.5,0.1h-1.5c-0.2,0-0.3-0.1-0.5-0.1c-0.1,0-0.2-0.1-0.2-0.2s-0.1-0.1-0.1-0.2V94.3
		c0-0.3,0.1-0.6,0.3-0.9c0.2-0.2,0.6-0.3,0.9-0.3h1.8c0.3,0,0.5,0,0.8,0.1c0.2,0.1,0.4,0.1,0.6,0.3c0.2,0.2,0.3,0.3,0.5,0.5
		s0.4,0.5,0.5,0.8l3.1,5.9c0.2,0.4,0.4,0.7,0.6,1.1c0.2,0.3,0.4,0.7,0.5,1.1s0.3,0.7,0.5,1s0.3,0.7,0.5,1l0,0c0-0.6,0-1.3-0.1-1.9
		v-9.4c0-0.1,0-0.2,0.1-0.2c0.1-0.1,0.2-0.2,0.3-0.2c0.2-0.1,0.3-0.1,0.5-0.1h1.5c0.2,0,0.3,0.1,0.5,0.1s0.2,0.1,0.2,0.2
		s0.1,0.1,0.1,0.2L317.4,108.1L317.4,108.1z M323.9,108.9c0,0.1,0,0.2-0.1,0.2c-0.1,0.1-0.2,0.1-0.3,0.2c-0.2,0-0.3,0.1-0.5,0.1
		h-1.6c-0.2,0-0.3-0.1-0.5-0.1c-0.1,0-0.2-0.1-0.3-0.2s-0.1-0.1-0.1-0.2V97.7c0-0.1,0-0.2,0.1-0.2c0.1-0.1,0.2-0.2,0.3-0.2
		c0.2,0,0.3-0.1,0.5-0.1h1.6c0.2,0,0.3,0.1,0.5,0.1c0.1,0,0.2,0.1,0.3,0.2c0.1,0.1,0.1,0.1,0.1,0.2V108.9z M323.7,95.2
		c-0.4,0.3-1,0.4-1.5,0.4c-0.5,0.1-1.1-0.1-1.5-0.4c-0.3-0.4-0.5-0.8-0.4-1.3c0-0.6,0.1-1.1,0.4-1.3c0.4-0.3,1-0.4,1.5-0.4
		c0.7,0,1.2,0.1,1.4,0.4c0.2,0.3,0.4,0.7,0.4,1.3C324.2,94.3,324.1,94.8,323.7,95.2L323.7,95.2z"/>
	
		<ellipse transform="matrix(0.2298 -0.9732 0.9732 0.2298 372.9651 672.8698)" class="st5" cx="611.6" cy="100.8" rx="28.3" ry="28.3"/>
	<path class="st7" d="M611.6,72.4c-15.7,0-28.3,12.7-28.4,28.3c0,15.7,12.7,28.4,28.3,28.4c15.7,0,28.4-12.7,28.4-28.3l0,0
		C639.9,85.2,627.3,72.5,611.6,72.4C611.6,72.4,611.6,72.4,611.6,72.4z M614.9,108.1c0,0.2,0,0.3-0.1,0.5s-0.2,0.3-0.3,0.4
		s-0.2,0.2-0.4,0.2s-0.3,0.1-0.5,0.1h-1.4c-0.3,0-0.5,0-0.8-0.1l-0.6-0.3c-0.2-0.2-0.4-0.4-0.5-0.6c-0.2-0.3-0.4-0.6-0.6-1l-4-7.6
		c-0.2-0.5-0.5-1-0.7-1.5s-0.5-1-0.7-1.5l0,0c0,0.6,0.1,1.2,0.1,1.8v10.3c0,0.1,0,0.2-0.1,0.2s-0.1,0.1-0.2,0.2
		c-0.1,0.1-0.3,0.1-0.5,0.1h-1.5c-0.2,0-0.3-0.1-0.5-0.1c-0.1,0-0.2-0.1-0.2-0.2s-0.1-0.1-0.1-0.2V94.3c-0.1-0.5,0.2-1.1,0.8-1.2
		c0.1,0,0.3,0,0.4,0h1.8c0.3,0,0.5,0,0.8,0.1c0.2,0.1,0.4,0.1,0.6,0.3s0.3,0.3,0.5,0.5c0.2,0.3,0.3,0.5,0.5,0.8l3.2,5.9
		c0.2,0.4,0.4,0.7,0.6,1.1c0.2,0.3,0.4,0.7,0.5,1.1s0.3,0.7,0.5,1s0.3,0.7,0.5,1l0,0c0-0.6,0-1.3-0.1-1.9v-9.4c0-0.1,0-0.2,0.1-0.2
		c0.1-0.1,0.2-0.2,0.3-0.2c0.2-0.1,0.3-0.1,0.5-0.1h1.5c0.2,0,0.3,0.1,0.5,0.1s0.2,0.1,0.2,0.2s0.1,0.1,0.1,0.2L614.9,108.1
		L614.9,108.1z M621.4,108.9c0,0.1,0,0.2-0.1,0.2c-0.1,0.1-0.2,0.1-0.3,0.2c-0.2,0-0.3,0.1-0.5,0.1H619c-0.2,0-0.3-0.1-0.5-0.1
		c-0.1,0-0.2-0.1-0.3-0.2s-0.1-0.1-0.1-0.2V97.7c0-0.1,0-0.2,0.1-0.2c0.1-0.1,0.2-0.2,0.3-0.2c0.2,0,0.3-0.1,0.5-0.1h1.6
		c0.2,0,0.3,0.1,0.5,0.1c0.1,0,0.2,0.1,0.3,0.2s0.1,0.1,0.1,0.2L621.4,108.9L621.4,108.9z M621.2,95.2c-0.4,0.3-1,0.4-1.5,0.4
		c-0.5,0.1-1.1-0.1-1.5-0.4c-0.3-0.4-0.5-0.8-0.4-1.3c0-0.6,0.1-1.1,0.4-1.3c0.4-0.3,1-0.4,1.5-0.4c0.7,0,1.2,0.1,1.4,0.4
		s0.4,0.7,0.4,1.3C621.7,94.3,621.6,94.8,621.2,95.2L621.2,95.2z"/>
	
		<ellipse transform="matrix(0.1602 -0.9871 0.9871 0.1602 120.3663 938.3325)" class="st5" cx="611.6" cy="398.4" rx="28.4" ry="28.3"/>
	<path class="st7" d="M611.6,370.1c-15.7,0-28.3,12.7-28.4,28.3c0,15.7,12.7,28.4,28.3,28.4c15.7,0,28.4-12.7,28.4-28.3l0,0
		C639.9,382.9,627.3,370.2,611.6,370.1C611.6,370.1,611.6,370.1,611.6,370.1z M614.9,405.8c0,0.2,0,0.3-0.1,0.5s-0.2,0.3-0.3,0.4
		s-0.2,0.2-0.4,0.2s-0.3,0.1-0.5,0.1h-1.4c-0.3,0-0.5,0-0.8-0.1l-0.6-0.3c-0.2-0.2-0.4-0.4-0.5-0.6c-0.2-0.3-0.4-0.6-0.6-1l-4-7.6
		c-0.2-0.5-0.5-1-0.7-1.5s-0.5-1-0.7-1.5l0,0c0,0.6,0.1,1.2,0.1,1.8v10.4c0,0.1,0,0.2-0.1,0.2s-0.1,0.1-0.2,0.2
		c-0.1,0.1-0.3,0.1-0.5,0.1h-1.5c-0.2,0-0.3-0.1-0.5-0.1c-0.1,0-0.2-0.1-0.2-0.2s-0.1-0.1-0.1-0.2V392c0-0.3,0.1-0.6,0.3-0.9
		c0.2-0.2,0.6-0.3,0.9-0.3h1.8c0.3,0,0.5,0,0.8,0.1c0.2,0.1,0.4,0.2,0.6,0.3c0.2,0.1,0.3,0.3,0.5,0.5s0.3,0.5,0.5,0.8l3.2,5.9
		c0.2,0.4,0.4,0.7,0.6,1.1c0.2,0.3,0.4,0.7,0.5,1.1s0.3,0.7,0.5,1s0.3,0.7,0.5,1l0,0c0-0.6,0-1.3-0.1-1.9v-9.4c0-0.1,0-0.2,0.1-0.2
		c0.1-0.1,0.2-0.2,0.3-0.2c0.2-0.1,0.3-0.1,0.5-0.1h1.5c0.2,0,0.3,0.1,0.5,0.1s0.2,0.1,0.2,0.2s0.1,0.1,0.1,0.2L614.9,405.8
		L614.9,405.8z M621.4,406.6c0,0.1,0,0.2-0.1,0.2c-0.1,0.1-0.2,0.2-0.3,0.2c-0.2,0-0.3,0.1-0.5,0.1H619c-0.2,0-0.3-0.1-0.5-0.1
		c-0.1,0-0.2-0.1-0.3-0.2s-0.1-0.1-0.1-0.2v-11.2c0-0.1,0-0.2,0.1-0.2c0.1-0.1,0.2-0.2,0.3-0.2c0.2,0,0.3-0.1,0.5-0.1h1.6
		c0.2,0,0.4,0.1,0.5,0.1s0.2,0.1,0.3,0.2s0.1,0.1,0.1,0.2L621.4,406.6L621.4,406.6z M621.2,392.8c-0.4,0.3-1,0.4-1.5,0.4
		c-0.5,0.1-1.1-0.1-1.5-0.4c-0.3-0.4-0.5-0.8-0.4-1.3c0-0.6,0.1-1.1,0.4-1.3c0.4-0.3,1-0.4,1.5-0.4c0.7,0,1.2,0.1,1.4,0.4
		s0.4,0.7,0.4,1.3C621.7,392,621.6,392.5,621.2,392.8z"/>
	
		<ellipse transform="matrix(0.1602 -0.9871 0.9871 0.1602 136.442 766.3683)" class="st5" cx="518.6" cy="303" rx="31.9" ry="31.9"/>
	<path class="st7" d="M518.6,271.1c-17.6,0-31.9,14.3-31.9,31.9s14.3,31.9,31.9,31.9c17.6,0,31.9-14.3,31.9-31.9l0,0
		c0-17.6-14.2-31.9-31.7-31.9C518.7,271.1,518.6,271.1,518.6,271.1z M522.3,311.2c0,0.2,0,0.4-0.1,0.6s-0.2,0.3-0.3,0.4
		s-0.3,0.2-0.4,0.2c-0.2,0-0.3,0.1-0.6,0.1h-1.6c-0.3,0-0.6,0-0.9-0.1l-0.7-0.3c-0.2-0.2-0.4-0.4-0.6-0.7c-0.2-0.4-0.5-0.7-0.7-1.1
		l-4.6-8.5c-0.2-0.6-0.6-1.1-0.8-1.7s-0.5-1.1-0.8-1.7l0,0c0,0.7,0.1,1.3,0.1,2v11.7c0,0.1,0,0.2-0.1,0.2s-0.1,0.1-0.2,0.2
		c-0.2,0.1-0.4,0.1-0.5,0.1H508c-0.2,0-0.3-0.1-0.6-0.1c-0.1,0-0.2-0.1-0.2-0.2s-0.1-0.1-0.1-0.2v-16.5c0-0.4,0.1-0.7,0.3-1
		c0.3-0.2,0.6-0.4,1-0.3h2c0.3,0,0.6,0,0.9,0.1c0.2,0.1,0.5,0.1,0.7,0.3c0.2,0.2,0.3,0.3,0.6,0.6c0.2,0.3,0.4,0.6,0.5,0.9l3.6,6.7
		c0.2,0.5,0.4,0.8,0.7,1.2c0.2,0.4,0.4,0.8,0.6,1.2c0.1,0.4,0.3,0.8,0.6,1.1c0.2,0.3,0.3,0.8,0.5,1.1l0,0c0-0.7,0-1.4-0.1-2.1v-10.6
		c0-0.1,0-0.2,0.1-0.2c0.1-0.1,0.2-0.2,0.3-0.2c0.2-0.1,0.4-0.1,0.6-0.1h1.7c0.2,0,0.3,0.1,0.5,0.1s0.2,0.1,0.2,0.2s0.1,0.1,0.1,0.2
		v16.3L522.3,311.2L522.3,311.2z M529.7,312.1c0,0.1,0,0.2-0.1,0.2c-0.1,0.1-0.2,0.2-0.3,0.2c-0.2,0-0.4,0.1-0.5,0.1H527
		c-0.2,0-0.4-0.1-0.6-0.1c-0.1,0-0.2-0.1-0.3-0.2s-0.1-0.1-0.1-0.2v-12.6c0-0.1,0-0.2,0.1-0.2c0.1-0.1,0.2-0.2,0.3-0.2
		c0.2,0,0.4-0.1,0.6-0.1h1.8c0.2,0,0.4,0.1,0.5,0.1s0.2,0.1,0.3,0.2s0.1,0.1,0.1,0.2V312.1z M529.5,296.7c-0.5,0.3-1.1,0.5-1.7,0.4
		c-0.6,0.1-1.2-0.1-1.7-0.4c-0.3-0.4-0.5-0.9-0.4-1.5c0-0.7,0.1-1.2,0.4-1.4c0.5-0.3,1.1-0.5,1.7-0.4c0.8,0,1.3,0.1,1.5,0.4
		s0.5,0.8,0.5,1.4S529.8,296.5,529.5,296.7z"/>
	<ellipse class="st5" cx="369.8" cy="154.5" rx="31.9" ry="31.9"/>
	<path class="st7" d="M369.8,122.6c-17.6,0-31.9,14.3-31.9,31.9s14.3,31.9,31.9,31.9s31.9-14.3,31.9-31.9l0,0
		c0-17.6-14.2-31.9-31.7-31.9C369.9,122.6,369.9,122.6,369.8,122.6z M373.6,162.7c0,0.2,0,0.4-0.1,0.6c-0.1,0.2-0.2,0.3-0.3,0.4
		c-0.1,0.1-0.3,0.2-0.5,0.2s-0.3,0.1-0.5,0.1h-1.6c-0.3,0-0.6,0-0.9-0.1l-0.7-0.3c-0.2-0.2-0.4-0.4-0.6-0.7
		c-0.2-0.4-0.5-0.7-0.7-1.1l-4.5-8.6c-0.2-0.6-0.6-1.1-0.8-1.7s-0.5-1.1-0.8-1.7l0,0c0,0.7,0.1,1.3,0.1,2v11.7c0,0.1,0,0.2-0.1,0.2
		s-0.1,0.1-0.2,0.2s-0.3,0.1-0.5,0.1h-1.7c-0.2,0-0.3-0.1-0.6-0.1c-0.1,0-0.2-0.1-0.2-0.2c0-0.1-0.1-0.1-0.1-0.2v-16.4
		c-0.1-0.6,0.4-1.2,1-1.3c0.1,0,0.2,0,0.3,0h2c0.3,0,0.6,0,0.9,0.1c0.2,0.1,0.5,0.1,0.7,0.3s0.3,0.3,0.5,0.6s0.4,0.6,0.6,0.9
		l3.6,6.7c0.2,0.4,0.4,0.8,0.7,1.2c0.2,0.4,0.4,0.8,0.6,1.2c0.1,0.4,0.3,0.8,0.5,1.1s0.3,0.8,0.6,1.1l0,0c0-0.7,0-1.4-0.1-2.1v-10.6
		c0-0.1,0-0.2,0.1-0.2c0.1-0.1,0.2-0.2,0.3-0.2c0.2-0.1,0.4-0.1,0.6-0.1h1.7c0.2,0,0.3,0.1,0.6,0.1s0.2,0.1,0.2,0.2
		c0,0.1,0.1,0.1,0.1,0.2v16.3L373.6,162.7z M380.9,163.6c0,0.1,0,0.2-0.1,0.2c-0.1,0.1-0.2,0.2-0.3,0.2c-0.2,0.1-0.4,0.1-0.5,0.1
		h-1.8c-0.2,0-0.4-0.1-0.6-0.1c-0.1,0-0.2-0.1-0.3-0.2s-0.1-0.1-0.1-0.2V151c0-0.1,0-0.2,0.1-0.2c0.1-0.1,0.2-0.2,0.3-0.2
		c0.2,0,0.4-0.1,0.6-0.1h1.8c0.2,0,0.4,0.1,0.5,0.1s0.2,0.1,0.3,0.2s0.1,0.1,0.1,0.2V163.6z M380.7,148.1c-0.5,0.3-1.1,0.5-1.7,0.4
		c-0.6,0.1-1.2-0.1-1.7-0.4c-0.3-0.4-0.5-0.9-0.4-1.4c0-0.7,0.1-1.2,0.4-1.4c0.5-0.3,1.1-0.5,1.7-0.4c0.8,0,1.3,0.1,1.5,0.4
		s0.5,0.8,0.5,1.4C381,147.4,381,147.9,380.7,148.1L380.7,148.1z"/>
	<circle class="st5" cx="221" cy="303" r="31.9"/>
	<path class="st6" d="M221,271.1c-17.6,0-31.9,14.3-31.9,31.9s14.3,31.9,31.9,31.9s31.9-14.3,31.9-31.9S238.7,271.1,221,271.1
		C221.1,271.1,221.1,271.1,221,271.1z M224.8,311.2c0,0.2,0,0.4-0.1,0.6s-0.2,0.3-0.3,0.4s-0.3,0.2-0.4,0.2c-0.2,0-0.3,0.1-0.6,0.1
		h-1.6c-0.3,0-0.6,0-0.9-0.1l-0.7-0.3c-0.2-0.2-0.4-0.4-0.6-0.7c-0.2-0.3-0.4-0.7-0.7-1.1l-4.6-8.5c-0.2-0.6-0.6-1.1-0.8-1.7
		s-0.6-1.1-0.8-1.7l0,0c0,0.7,0.1,1.3,0.1,2v11.7c0,0.1,0,0.2-0.1,0.2s-0.1,0.1-0.2,0.2c-0.2,0.1-0.4,0.1-0.6,0.1h-1.7
		c-0.2,0-0.3-0.1-0.6-0.1c-0.1,0-0.2-0.1-0.2-0.2s-0.1-0.1-0.1-0.2v-16.5c0-0.4,0.1-0.7,0.3-1c0.3-0.2,0.6-0.4,1-0.3h2
		c0.3,0,0.6,0,0.9,0.1c0.2,0.1,0.5,0.2,0.7,0.3c0.2,0.1,0.3,0.3,0.6,0.6c0.2,0.3,0.4,0.6,0.6,0.9l3.6,6.7c0.2,0.5,0.4,0.8,0.7,1.2
		c0.2,0.4,0.4,0.8,0.6,1.2c0.1,0.4,0.3,0.8,0.6,1.1c0.2,0.3,0.3,0.8,0.6,1.1l0,0c0-0.7,0-1.4-0.1-2.1v-10.6c0-0.1,0-0.2,0.1-0.2
		c0.1-0.1,0.2-0.2,0.3-0.2c0.2-0.1,0.4-0.1,0.6-0.1h1.7c0.2,0,0.3,0.1,0.6,0.1s0.2,0.1,0.2,0.2s0.1,0.1,0.1,0.2v16.3L224.8,311.2
		L224.8,311.2z M232.2,312.1c0,0.1,0,0.2-0.1,0.2c-0.1,0.1-0.2,0.2-0.3,0.2c-0.2,0-0.4,0.1-0.6,0.1h-1.8c-0.2,0-0.4-0.1-0.6-0.1
		c-0.1,0-0.2-0.1-0.3-0.2s-0.1-0.1-0.1-0.2v-12.6c0-0.1,0-0.2,0.1-0.2c0.1-0.1,0.2-0.2,0.3-0.2c0.2,0,0.4-0.1,0.6-0.1h1.8
		c0.2,0,0.4,0.1,0.6,0.1c0.1,0,0.2,0.1,0.3,0.2s0.1,0.1,0.1,0.2V312.1z M231.9,296.7c-0.5,0.3-1.1,0.5-1.7,0.4
		c-0.6,0.1-1.2-0.1-1.7-0.4c-0.3-0.4-0.5-0.9-0.4-1.5c-0.1-0.5,0.1-1.1,0.4-1.4c0.5-0.3,1.1-0.5,1.7-0.4c0.8,0,1.3,0.1,1.6,0.4
		c0.4,0.4,0.5,0.9,0.4,1.4C232.3,295.9,232.3,296.5,231.9,296.7z"/>
	<circle class="st5" cx="276.8" cy="357" r="35.4"/>
	<path class="st7" d="M276.8,321.6c-19.6,0-35.4,15.9-35.5,35.4s15.9,35.4,35.4,35.5s35.4-15.9,35.5-35.4l0,0
		c0-19.5-15.7-35.4-35.3-35.4C276.9,321.6,276.9,321.6,276.8,321.6z M281,366.1c0,0.2,0,0.4-0.1,0.6s-0.2,0.3-0.4,0.5
		c-0.1,0.1-0.3,0.2-0.5,0.3c-0.3,0-0.4,0.1-0.6,0.1h-1.7c-0.3,0-0.7,0-1-0.1l-0.7-0.4c-0.2-0.2-0.5-0.5-0.6-0.7
		c-0.3-0.4-0.5-0.8-0.7-1.2l-5.1-9.5c-0.3-0.6-0.6-1.2-0.9-1.9s-0.6-1.2-0.9-1.9l0,0c0,0.7,0.1,1.5,0.1,2.2v13c0,0.1,0,0.2-0.1,0.2
		s-0.1,0.1-0.3,0.3s-0.4,0.1-0.6,0.1H265c-0.2,0-0.4-0.1-0.6-0.1c-0.1,0-0.2-0.1-0.3-0.3c0-0.1-0.1-0.1-0.1-0.2v-18.3
		c-0.1-0.7,0.4-1.4,1.1-1.5c0.1,0,0.3,0,0.4,0h2.2c0.3,0,0.7,0,1,0.1c0.2,0.1,0.5,0.1,0.7,0.4s0.4,0.4,0.6,0.6
		c0.2,0.3,0.4,0.6,0.6,1l4,7.4c0.3,0.5,0.5,0.9,0.7,1.4c0.3,0.4,0.5,0.9,0.6,1.4c0.1,0.4,0.3,0.9,0.6,1.2c0.3,0.4,0.4,0.9,0.6,1.2
		l0,0c0-0.8,0-1.6-0.1-2.4V348c0-0.1,0-0.3,0.1-0.3c0.1-0.1,0.2-0.2,0.4-0.2c0.2-0.1,0.4-0.2,0.6-0.1h1.9c0.2,0,0.4,0.1,0.6,0.1
		s0.3,0.1,0.3,0.2s0.1,0.1,0.1,0.3L281,366.1L281,366.1z M289.2,367.1c0,0.1,0,0.2-0.1,0.2c-0.1,0.1-0.2,0.2-0.4,0.3
		c-0.2,0.1-0.4,0.1-0.6,0.1h-2c-0.2,0-0.4-0.1-0.6-0.1c-0.1,0-0.2-0.1-0.4-0.3c-0.1-0.1-0.1-0.1-0.1-0.2v-14c0-0.1,0-0.3,0.1-0.3
		c0.1-0.1,0.2-0.2,0.4-0.3c0.2-0.1,0.4-0.1,0.6-0.1h2c0.2,0,0.4,0.1,0.6,0.1c0.1,0,0.3,0.1,0.4,0.3s0.1,0.1,0.1,0.3V367.1z
		 M288.9,350c-0.5,0.4-1.2,0.5-1.9,0.5c-0.7,0.1-1.3-0.1-1.9-0.5c-0.4-0.4-0.6-1-0.5-1.6c0-0.7,0.1-1.4,0.5-1.6
		c0.5-0.4,1.2-0.5,1.9-0.5c0.9,0,1.5,0.1,1.7,0.5s0.5,0.9,0.5,1.6C289.5,348.9,289.3,349.5,288.9,350L288.9,350z"/>
	<circle class="st5" cx="425.6" cy="505.8" r="35.4"/>
	<path class="st7" d="M425.6,470.4c-19.6,0-35.4,15.9-35.4,35.4c0,19.6,15.9,35.4,35.4,35.4c19.6,0,35.4-15.9,35.4-35.4
		c0-19.5-15.7-35.4-35.3-35.4C425.7,470.4,425.6,470.4,425.6,470.4z M429.8,515c0,0.2,0,0.4-0.1,0.6c-0.1,0.2-0.2,0.4-0.4,0.5
		c-0.1,0.1-0.3,0.2-0.5,0.2s-0.4,0.1-0.6,0.1h-1.7c-0.3,0-0.7,0-1-0.1l-0.7-0.4c-0.2-0.2-0.5-0.5-0.6-0.7c-0.3-0.4-0.5-0.8-0.7-1.2
		l-5-9.5c-0.3-0.6-0.6-1.2-0.9-1.9s-0.6-1.2-0.9-1.9l0,0c0,0.7,0.1,1.5,0.1,2.2v13c0,0.1,0,0.3-0.1,0.3s-0.1,0.1-0.3,0.3
		c-0.2,0.1-0.4,0.2-0.6,0.1h-1.9c-0.2,0-0.4-0.1-0.6-0.1c-0.1,0-0.2-0.1-0.3-0.3c0-0.1-0.1-0.1-0.1-0.3v-18.3c0-0.4,0.1-0.8,0.4-1.1
		c0.3-0.3,0.7-0.4,1.1-0.4h2.2c0.3,0,0.7,0,1,0.1s0.5,0.1,0.7,0.4s0.4,0.4,0.6,0.6c0.2,0.3,0.4,0.7,0.6,1l4,7.4
		c0.3,0.5,0.5,0.9,0.8,1.4c0.3,0.4,0.5,0.9,0.6,1.4c0.1,0.4,0.3,0.9,0.6,1.2c0.3,0.4,0.4,0.9,0.6,1.2l0,0c0-0.8,0-1.6-0.1-2.3v-11.7
		c0-0.1,0-0.3,0.1-0.3c0.1-0.1,0.2-0.2,0.4-0.3c0.2-0.1,0.4-0.1,0.6-0.1h1.9c0.2,0,0.4,0.1,0.6,0.1s0.3,0.1,0.3,0.3s0.1,0.1,0.1,0.3
		V515H429.8z M437.9,516c0,0.1,0,0.3-0.1,0.3c-0.1,0.1-0.2,0.2-0.4,0.3c-0.2,0.1-0.4,0.1-0.6,0.1h-2c-0.2,0-0.4-0.1-0.6-0.1
		c-0.1,0-0.3-0.1-0.4-0.3s-0.1-0.1-0.1-0.3v-14c0-0.1,0-0.2,0.1-0.2c0.1-0.1,0.2-0.2,0.4-0.3c0.2-0.1,0.4-0.1,0.6-0.1h2
		c0.2,0,0.4,0.1,0.6,0.1c0.1,0,0.2,0.1,0.4,0.3s0.1,0.1,0.1,0.2V516z M437.7,498.8c-0.5,0.4-1.2,0.5-1.9,0.5
		c-0.7,0.1-1.3-0.1-1.9-0.5c-0.4-0.4-0.6-1-0.5-1.6c-0.1-0.6,0.1-1.2,0.5-1.6c0.5-0.4,1.2-0.5,1.9-0.5c0.9,0,1.5,0.1,1.7,0.5
		s0.5,0.9,0.5,1.6S438,498.6,437.7,498.8z"/>
</g>
<line class="st0" x1="979" y1="100.8" x2="979" y2="106.8"/>
<line class="st1" x1="979" y1="131.6" x2="979" y2="380"/>
<polyline class="st0" points="979,392.5 979,398.5 973.8,401.5 "/>
<line class="st2" x1="953.2" y1="413.4" x2="808.6" y2="496.9"/>
<line class="st0" x1="979" y1="398.5" x2="985" y2="398.5"/>
<line class="st3" x1="1009.9" y1="398.5" x2="1258.1" y2="398.5"/>
<line class="st0" x1="1270.6" y1="398.5" x2="1276.6" y2="398.5"/>
<polygon class="st4" points="1276.6,100.8 1276.6,398.5 1090.6,505.8 793,505.8 793,208.2 979,100.8 "/>
<polyline class="st4" points="793,208.2 1090.6,208.2 1276.6,100.8 "/>
<ellipse transform="matrix(0.1602 -0.9871 0.9871 0.1602 428.4235 1301.4266)" class="st5" cx="979" cy="398.9" rx="28.4" ry="28.3"/>
<path class="st6" d="M979,370.6c-15.7,0-28.4,12.6-28.4,28.3c0,15.7,12.6,28.4,28.3,28.4s28.4-12.6,28.4-28.3l0,0
	C1007.4,383.3,994.7,370.6,979,370.6C979.1,370.6,979.1,370.6,979,370.6z M982.4,406.2c0,0.2,0,0.3-0.1,0.5
	c-0.1,0.1-0.2,0.3-0.3,0.4s-0.2,0.2-0.4,0.2s-0.3,0.1-0.5,0.1h-1.4c-0.3,0-0.5,0-0.8-0.1l-0.6-0.3c-0.2-0.2-0.4-0.4-0.5-0.6
	c-0.2-0.3-0.4-0.7-0.6-1l-4-7.6c-0.2-0.5-0.5-1-0.7-1.5s-0.5-1-0.7-1.5l0,0c0,0.6,0.1,1.2,0.1,1.8V407c0,0.1,0,0.2-0.1,0.2
	s-0.1,0.1-0.2,0.2c-0.1,0.1-0.3,0.1-0.5,0.1h-1.5c-0.2,0-0.3-0.1-0.5-0.1c-0.1,0-0.2-0.1-0.2-0.2s-0.1-0.1-0.1-0.2v-14.6
	c-0.1-0.6,0.3-1.1,0.9-1.2c0.1,0,0.2,0,0.3,0h1.8c0.3,0,0.5,0,0.8,0.1c0.2,0.1,0.4,0.1,0.6,0.3c0.2,0.2,0.3,0.3,0.5,0.5
	s0.4,0.5,0.5,0.8l3.1,6c0.2,0.4,0.4,0.7,0.6,1.1c0.2,0.3,0.4,0.7,0.5,1.1s0.3,0.7,0.5,1s0.3,0.7,0.5,1l0,0c0-0.6,0-1.3-0.1-1.9v-9.4
	c0-0.1,0-0.2,0.1-0.2c0.1-0.1,0.2-0.2,0.3-0.2c0.1-0.1,0.3-0.1,0.5-0.1h1.5c0.2,0,0.3,0.1,0.5,0.1s0.2,0.1,0.2,0.2s0.1,0.1,0.1,0.2
	L982.4,406.2L982.4,406.2z M988.9,407c0,0.1,0,0.2-0.1,0.2c-0.1,0.1-0.2,0.2-0.3,0.2c-0.2,0-0.3,0.1-0.5,0.1h-1.6
	c-0.2,0-0.3-0.1-0.5-0.1c-0.1,0-0.2-0.1-0.3-0.2s-0.1-0.1-0.1-0.2v-11.1c0-0.1,0-0.2,0.1-0.2c0.1-0.1,0.2-0.2,0.3-0.2
	c0.2,0,0.3-0.1,0.5-0.1h1.6c0.2,0,0.3,0.1,0.5,0.1c0.1,0,0.2,0.1,0.3,0.2s0.1,0.1,0.1,0.2V407z M988.7,393.3c-0.4,0.3-1,0.4-1.5,0.4
	c-0.5,0.1-1.1-0.1-1.5-0.4c-0.3-0.4-0.4-0.8-0.4-1.3c-0.1-0.5,0.1-0.9,0.4-1.3c0.4-0.3,1-0.4,1.5-0.4c0.7,0,1.2,0.1,1.4,0.4
	c0.3,0.3,0.5,0.8,0.4,1.3C989.2,392.4,989,392.9,988.7,393.3L988.7,393.3z"/>
<circle class="st5" cx="1034.8" cy="452.4" r="31.9"/>
<path class="st6" d="M1034.8,420.5c-17.6,0-31.9,14.3-31.9,31.9s14.3,31.9,31.9,31.9c17.6,0,31.9-14.3,31.9-31.9
	S1052.5,420.5,1034.8,420.5L1034.8,420.5z M1038.6,460.6c0,0.2,0,0.4-0.1,0.6s-0.2,0.3-0.3,0.4c-0.1,0.1-0.3,0.2-0.4,0.2
	c-0.2,0-0.3,0.1-0.6,0.1h-1.6c-0.3,0-0.6,0-0.9-0.1l-0.7-0.3c-0.2-0.2-0.4-0.4-0.6-0.7c-0.2-0.3-0.4-0.7-0.7-1.1l-4.6-8.6
	c-0.2-0.6-0.6-1.1-0.8-1.7c-0.2-0.6-0.6-1.1-0.8-1.7l0,0c0,0.7,0.1,1.3,0.1,2v11.7c0,0.1,0,0.2-0.1,0.2s-0.1,0.1-0.2,0.2
	c-0.2,0.1-0.4,0.1-0.6,0.1h-1.7c-0.2,0-0.3-0.1-0.6-0.1c-0.1,0-0.2-0.1-0.2-0.2s-0.1-0.1-0.1-0.2V445c0-0.4,0.1-0.7,0.3-1
	c0.3-0.2,0.6-0.4,1-0.3h2c0.3,0,0.6,0,0.9,0.1c0.2,0.1,0.4,0.1,0.7,0.3c0.2,0.2,0.3,0.3,0.5,0.6c0.2,0.3,0.4,0.6,0.6,0.9l3.6,6.7
	c0.2,0.5,0.4,0.8,0.7,1.2c0.2,0.4,0.4,0.8,0.6,1.2c0.1,0.4,0.3,0.8,0.6,1.1c0.2,0.3,0.3,0.8,0.6,1.1l0,0c0-0.7,0-1.4-0.1-2.1v-10.6
	c0-0.1,0-0.2,0.1-0.2c0.1-0.1,0.2-0.2,0.3-0.2c0.2-0.1,0.4-0.1,0.6-0.1h1.7c0.2,0,0.3,0.1,0.6,0.1c0.2,0,0.2,0.1,0.2,0.2
	s0.1,0.1,0.1,0.2L1038.6,460.6L1038.6,460.6L1038.6,460.6z M1045.9,461.5c0,0.1,0,0.2-0.1,0.2c-0.1,0.1-0.2,0.2-0.3,0.2
	c-0.2,0-0.4,0.1-0.6,0.1h-1.8c-0.2,0-0.4-0.1-0.6-0.1c-0.1,0-0.2-0.1-0.3-0.2s-0.1-0.1-0.1-0.2v-12.6c0-0.1,0-0.2,0.1-0.2
	c0.1-0.1,0.2-0.2,0.3-0.2c0.2,0,0.4-0.1,0.6-0.1h1.8c0.2,0,0.4,0.1,0.5,0.1s0.2,0.1,0.3,0.2s0.1,0.1,0.1,0.2L1045.9,461.5
	L1045.9,461.5z M1045.7,446c-0.5,0.3-1.1,0.5-1.7,0.4c-0.6,0.1-1.2-0.1-1.7-0.4c-0.3-0.4-0.5-0.9-0.4-1.5c0-0.7,0.1-1.2,0.4-1.4
	c0.5-0.3,1.1-0.5,1.7-0.4c0.8,0,1.3,0.1,1.5,0.4s0.5,0.8,0.5,1.4S1046,445.8,1045.7,446L1045.7,446z"/>
<circle class="st5" cx="1127.8" cy="249.6" r="28.4"/>
<path class="st6" d="M1127.8,221.3c-15.7,0-28.4,12.7-28.4,28.3c0,15.7,12.7,28.4,28.3,28.4c15.7,0,28.4-12.7,28.4-28.3l0,0
	c0-15.6-12.6-28.3-28.2-28.3C1127.9,221.3,1127.8,221.3,1127.8,221.3z M1131.2,256.9c0,0.2,0,0.4-0.1,0.5s-0.2,0.3-0.3,0.4
	c-0.1,0.1-0.2,0.2-0.4,0.2c-0.2,0-0.3,0.1-0.5,0.1h-1.4c-0.3,0-0.5,0-0.8-0.1l-0.6-0.3c-0.2-0.2-0.4-0.4-0.5-0.6
	c-0.2-0.3-0.4-0.7-0.6-1l-4.1-7.6c-0.2-0.5-0.5-1-0.7-1.5s-0.5-1-0.7-1.5l0,0c0,0.6,0.1,1.2,0.1,1.8v10.4c0,0.1,0,0.2-0.1,0.2
	s-0.1,0.1-0.2,0.2s-0.3,0.1-0.5,0.1h-1.5c-0.2,0-0.3-0.1-0.5-0.1c-0.1,0-0.2-0.1-0.2-0.2s-0.1-0.1-0.1-0.2v-14.6
	c-0.1-0.6,0.3-1.1,0.9-1.2c0.1,0,0.2,0,0.3,0h1.8c0.3,0,0.5,0,0.8,0.1c0.2,0.1,0.4,0.1,0.6,0.3s0.3,0.3,0.5,0.5s0.4,0.5,0.5,0.8
	l3.2,5.9c0.2,0.4,0.4,0.7,0.6,1.1c0.2,0.3,0.4,0.7,0.5,1.1c0.1,0.4,0.3,0.7,0.5,1s0.3,0.7,0.5,1l0,0c0-0.6,0-1.3-0.1-1.9v-9.4
	c0-0.1,0-0.2,0.1-0.2c0.1-0.1,0.2-0.2,0.3-0.2c0.2-0.1,0.3-0.1,0.5-0.1h1.5c0.2,0,0.3,0.1,0.5,0.1s0.2,0.1,0.2,0.2s0.1,0.1,0.1,0.2
	L1131.2,256.9L1131.2,256.9z M1137.7,257.7c0,0.1,0,0.2-0.1,0.2c-0.1,0.1-0.2,0.2-0.3,0.2c-0.2,0-0.3,0.1-0.5,0.1h-1.6
	c-0.2,0-0.3-0.1-0.5-0.1c-0.1,0-0.2-0.1-0.3-0.2c-0.1-0.1-0.1-0.1-0.1-0.2v-11.2c0-0.1,0-0.2,0.1-0.2c0.1-0.1,0.2-0.2,0.3-0.2
	c0.2,0,0.3-0.1,0.5-0.1h1.6c0.2,0,0.3,0.1,0.5,0.1c0.1,0,0.2,0.1,0.3,0.2s0.1,0.1,0.1,0.2V257.7z M1137.5,244
	c-0.4,0.3-1,0.4-1.5,0.4c-0.5,0.1-1.1-0.1-1.5-0.4c-0.3-0.4-0.4-0.8-0.4-1.3c0-0.6,0.1-1.1,0.4-1.3c0.4-0.3,1-0.4,1.5-0.4
	c0.7,0,1.2,0.1,1.4,0.4c0.2,0.3,0.4,0.7,0.4,1.3C1137.9,243.2,1137.8,243.6,1137.5,244L1137.5,244z"/>
<line class="st4" x1="1090.6" y1="208.2" x2="1090.6" y2="505.8"/>
<circle class="st5" cx="793" cy="208.2" r="35.4"/>
<circle class="st5" cx="793" cy="505.8" r="35.4"/>
<circle class="st5" cx="1090.6" cy="208.2" r="35.4"/>
<circle class="st5" cx="979" cy="100.8" r="28.3"/>
<ellipse transform="matrix(0.2298 -0.9732 0.9732 0.2298 885.139 1320.1105)" class="st5" cx="1276.6" cy="100.8" rx="28.3" ry="28.3"/>
<ellipse transform="matrix(0.1602 -0.9871 0.9871 0.1602 678.8561 1594.73)" class="st5" cx="1276.6" cy="398.4" rx="28.4" ry="28.3"/>
<circle class="st5" cx="1183.6" cy="303" r="31.9"/>
<path class="st7" d="M1183.6,271.1c-17.6,0-31.9,14.3-31.9,31.9s14.3,31.9,31.9,31.9s31.9-14.3,31.9-31.9l0,0
	c0-17.6-14.2-31.9-31.7-31.9C1183.7,271.1,1183.6,271.1,1183.6,271.1z M1187.3,311.2c0,0.2,0,0.4-0.1,0.6s-0.2,0.3-0.3,0.4
	c-0.1,0.1-0.3,0.2-0.4,0.2c-0.2,0-0.3,0.1-0.6,0.1h-1.6c-0.3,0-0.6,0-0.9-0.1l-0.7-0.3c-0.2-0.2-0.4-0.4-0.6-0.7
	c-0.2-0.4-0.5-0.7-0.7-1.1l-4.6-8.5c-0.2-0.6-0.6-1.1-0.8-1.7c-0.2-0.6-0.6-1.1-0.8-1.7l0,0c0,0.7,0.1,1.3,0.1,2v11.7
	c0,0.1,0,0.2-0.1,0.2s-0.1,0.1-0.2,0.2c-0.2,0.1-0.4,0.1-0.6,0.1h-1.7c-0.2,0-0.3-0.1-0.6-0.1c-0.1,0-0.2-0.1-0.2-0.2
	s-0.1-0.1-0.1-0.2v-16.5c0-0.4,0.1-0.7,0.3-1c0.3-0.2,0.6-0.4,1-0.3h2c0.3,0,0.6,0,0.9,0.1c0.2,0.1,0.4,0.1,0.7,0.3
	c0.2,0.2,0.3,0.3,0.6,0.6c0.2,0.3,0.4,0.6,0.6,0.9l3.6,6.7c0.2,0.5,0.4,0.8,0.7,1.2c0.2,0.4,0.4,0.8,0.6,1.2
	c0.1,0.4,0.3,0.8,0.6,1.1c0.2,0.3,0.3,0.8,0.5,1.1l0,0c0-0.7,0-1.4-0.1-2.1v-10.6c0-0.1,0-0.2,0.1-0.2c0.1-0.1,0.2-0.2,0.3-0.2
	c0.2-0.1,0.4-0.1,0.6-0.1h1.7c0.2,0,0.3,0.1,0.5,0.1s0.2,0.1,0.2,0.2s0.1,0.1,0.1,0.2V311.2L1187.3,311.2L1187.3,311.2z
	 M1194.7,312.1c0,0.1,0,0.2-0.1,0.2c-0.1,0.1-0.2,0.2-0.3,0.2c-0.2,0-0.4,0.1-0.6,0.1h-1.8c-0.2,0-0.4-0.1-0.6-0.1
	c-0.1,0-0.2-0.1-0.3-0.2s-0.1-0.1-0.1-0.2v-12.6c0-0.1,0-0.2,0.1-0.2c0.1-0.1,0.2-0.2,0.3-0.2c0.2,0,0.4-0.1,0.6-0.1h1.8
	c0.2,0,0.4,0.1,0.6,0.1c0.1,0,0.2,0.1,0.3,0.2s0.1,0.1,0.1,0.2V312.1z M1194.5,296.7c-0.5,0.3-1.1,0.5-1.7,0.4
	c-0.6,0.1-1.2-0.1-1.7-0.4c-0.3-0.4-0.5-0.9-0.4-1.5c0-0.7,0.1-1.2,0.4-1.4c0.5-0.3,1.1-0.5,1.7-0.4c0.8,0,1.3,0.1,1.5,0.4
	s0.5,0.8,0.5,1.4S1194.8,296.5,1194.5,296.7z"/>
<ellipse transform="matrix(0.1602 -0.9871 0.9871 0.1602 716.5919 1151.1936)" class="st5" cx="1034.8" cy="154.5" rx="31.9" ry="31.9"/>
<path class="st7" d="M1034.8,122.6c-17.6,0-31.9,14.3-31.9,31.9s14.3,31.9,31.9,31.9c17.6,0,31.9-14.3,31.9-31.9l0,0
	c0-17.6-14.2-31.9-31.7-31.9C1034.9,122.6,1034.8,122.6,1034.8,122.6z M1038.6,162.7c0,0.2,0,0.4-0.1,0.6c-0.1,0.2-0.2,0.3-0.3,0.4
	c-0.1,0.1-0.3,0.2-0.4,0.2c-0.2,0-0.3,0.1-0.6,0.1h-1.6c-0.3,0-0.6,0-0.9-0.1l-0.7-0.3c-0.2-0.2-0.4-0.4-0.6-0.7
	c-0.2-0.4-0.5-0.7-0.7-1.1l-4.6-8.6c-0.2-0.6-0.6-1.1-0.8-1.7c-0.2-0.6-0.6-1.1-0.8-1.7l0,0c0,0.7,0.1,1.3,0.1,2v11.7
	c0,0.1,0,0.2-0.1,0.2s-0.1,0.1-0.2,0.2c-0.1,0.1-0.3,0.1-0.6,0.1h-1.7c-0.2,0-0.3-0.1-0.6-0.1c-0.1,0-0.2-0.1-0.2-0.2
	c0-0.1-0.1-0.1-0.1-0.2v-16.4c-0.1-0.6,0.4-1.2,1-1.3c0.1,0,0.2,0,0.3,0h2c0.3,0,0.6,0,0.9,0.1c0.2,0.1,0.4,0.1,0.7,0.3
	c0.2,0.2,0.3,0.3,0.5,0.6s0.4,0.6,0.6,0.9l3.6,6.7c0.2,0.4,0.4,0.8,0.7,1.2c0.2,0.4,0.4,0.8,0.6,1.2c0.1,0.4,0.3,0.8,0.6,1.1
	c0.2,0.3,0.3,0.8,0.6,1.1l0,0c0-0.7,0-1.4-0.1-2.1v-10.6c0-0.1,0-0.2,0.1-0.2c0.1-0.1,0.2-0.2,0.3-0.2c0.2-0.1,0.4-0.1,0.6-0.1h1.7
	c0.2,0,0.3,0.1,0.6,0.1c0.2,0,0.2,0.1,0.2,0.2c0,0.1,0.1,0.1,0.1,0.2v16.3L1038.6,162.7z M1045.9,163.6c0,0.1,0,0.2-0.1,0.2
	c-0.1,0.1-0.2,0.2-0.3,0.2c-0.2,0.1-0.4,0.1-0.6,0.1h-1.8c-0.2,0-0.4-0.1-0.6-0.1c-0.1,0-0.2-0.1-0.3-0.2s-0.1-0.1-0.1-0.2V151
	c0-0.1,0-0.2,0.1-0.2c0.1-0.1,0.2-0.2,0.3-0.2c0.2,0,0.4-0.1,0.6-0.1h1.8c0.2,0,0.4,0.1,0.5,0.1s0.2,0.1,0.3,0.2s0.1,0.1,0.1,0.2
	L1045.9,163.6L1045.9,163.6z M1045.7,148.1c-0.5,0.3-1.1,0.5-1.7,0.4c-0.6,0.1-1.2-0.1-1.7-0.4c-0.3-0.4-0.5-0.9-0.4-1.4
	c0-0.7,0.1-1.2,0.4-1.4c0.5-0.3,1.1-0.5,1.7-0.4c0.8,0,1.3,0.1,1.5,0.4c0.2,0.3,0.5,0.8,0.5,1.4C1046,147.4,1046,147.9,1045.7,148.1
	L1045.7,148.1z"/>
<circle class="st5" cx="886" cy="303" r="31.9"/>
<path class="st6" d="M886,271.1c-17.6,0-31.9,14.3-31.9,31.9s14.3,31.9,31.9,31.9s31.9-14.3,31.9-31.9s-14.2-31.9-31.8-31.9
	C886.1,271.1,886.1,271.1,886,271.1z M889.8,311.2c0,0.2,0,0.4-0.1,0.6s-0.2,0.3-0.3,0.4s-0.3,0.2-0.5,0.2s-0.3,0.1-0.5,0.1h-1.6
	c-0.3,0-0.6,0-0.9-0.1l-0.7-0.3c-0.2-0.2-0.4-0.4-0.6-0.7c-0.2-0.3-0.4-0.7-0.7-1.1l-4.5-8.5c-0.2-0.6-0.6-1.1-0.8-1.7
	s-0.6-1.1-0.8-1.7l0,0c0,0.7,0.1,1.3,0.1,2v11.7c0,0.1,0,0.2-0.1,0.2s-0.1,0.1-0.2,0.2c-0.2,0.1-0.4,0.1-0.6,0.1h-1.7
	c-0.2,0-0.3-0.1-0.6-0.1c-0.1,0-0.2-0.1-0.2-0.2s-0.1-0.1-0.1-0.2v-16.5c0-0.4,0.1-0.7,0.3-1c0.3-0.2,0.6-0.4,1-0.3h2
	c0.3,0,0.6,0,0.9,0.1c0.2,0.1,0.5,0.2,0.7,0.3c0.2,0.1,0.3,0.3,0.5,0.6c0.2,0.3,0.4,0.6,0.6,0.9l3.5,6.7c0.2,0.5,0.5,0.8,0.7,1.2
	c0.2,0.4,0.4,0.8,0.6,1.2c0.1,0.4,0.3,0.8,0.5,1.1c0.2,0.3,0.3,0.8,0.6,1.1l0,0c0-0.7,0-1.4-0.1-2.1v-10.6c0-0.1,0-0.2,0.1-0.2
	c0.1-0.1,0.2-0.2,0.3-0.2c0.2-0.1,0.4-0.1,0.6-0.1h1.7c0.2,0,0.3,0.1,0.6,0.1c0.2,0,0.2,0.1,0.2,0.2s0.1,0.1,0.1,0.2V311.2
	L889.8,311.2L889.8,311.2z M897.1,312.1c0,0.1,0,0.2-0.1,0.2c-0.1,0.1-0.2,0.2-0.3,0.2c-0.2,0-0.4,0.1-0.6,0.1h-1.8
	c-0.2,0-0.4-0.1-0.6-0.1c-0.1,0-0.2-0.1-0.3-0.2s-0.1-0.1-0.1-0.2v-12.6c0-0.1,0-0.2,0.1-0.2c0.1-0.1,0.2-0.2,0.3-0.2
	c0.2,0,0.4-0.1,0.6-0.1h1.8c0.2,0,0.4,0.1,0.6,0.1c0.1,0,0.2,0.1,0.3,0.2s0.1,0.1,0.1,0.2V312.1z M896.9,296.7
	c-0.5,0.3-1.1,0.5-1.7,0.4c-0.6,0.1-1.2-0.1-1.7-0.4c-0.3-0.4-0.5-0.9-0.5-1.5c-0.1-0.5,0.1-1.1,0.5-1.4c0.5-0.3,1.1-0.5,1.7-0.4
	c0.8,0,1.3,0.1,1.6,0.4c0.4,0.4,0.5,0.9,0.4,1.4C897.3,295.9,897.3,296.5,896.9,296.7z"/>
<circle class="st5" cx="941.8" cy="357" r="35.4"/>
<path class="st7" d="M941.8,321.6c-19.6,0-35.4,15.9-35.5,35.4c0,19.6,15.9,35.4,35.4,35.5s35.4-15.9,35.5-35.4l0,0
	c0-19.5-15.7-35.4-35.3-35.4C941.9,321.6,941.9,321.6,941.8,321.6z M946,366.1c0,0.2,0,0.4-0.1,0.6s-0.2,0.3-0.4,0.5
	c-0.1,0.1-0.3,0.2-0.5,0.3c-0.3,0-0.4,0.1-0.6,0.1h-1.7c-0.3,0-0.7,0-1-0.1l-0.7-0.4c-0.2-0.2-0.5-0.5-0.6-0.7
	c-0.3-0.4-0.5-0.8-0.7-1.2l-5.1-9.5c-0.3-0.6-0.6-1.2-0.9-1.9s-0.6-1.2-0.9-1.9l0,0c0,0.7,0.1,1.5,0.1,2.2v13c0,0.1,0,0.2-0.1,0.2
	s-0.1,0.1-0.3,0.3s-0.4,0.1-0.6,0.1h-1.8c-0.2,0-0.4-0.1-0.6-0.1c-0.1,0-0.2-0.1-0.3-0.3c0-0.1-0.1-0.1-0.1-0.2v-18.3
	c-0.1-0.7,0.4-1.4,1.1-1.5c0.1,0,0.3,0,0.4,0h2.2c0.3,0,0.7,0,1,0.1c0.2,0.1,0.5,0.1,0.7,0.4s0.4,0.4,0.6,0.6c0.2,0.3,0.4,0.6,0.6,1
	l4,7.4c0.3,0.5,0.5,0.9,0.7,1.4c0.3,0.4,0.5,0.9,0.6,1.4c0.1,0.4,0.3,0.9,0.6,1.2c0.3,0.4,0.4,0.9,0.6,1.2l0,0c0-0.8,0-1.6-0.1-2.4
	V348c0-0.1,0-0.3,0.1-0.3c0.1-0.1,0.2-0.2,0.4-0.2c0.2-0.1,0.4-0.2,0.6-0.1h1.9c0.2,0,0.4,0.1,0.6,0.1s0.3,0.1,0.3,0.2
	s0.1,0.1,0.1,0.3L946,366.1L946,366.1z M954.2,367.1c0,0.1,0,0.2-0.1,0.2c-0.1,0.1-0.2,0.2-0.4,0.3c-0.2,0.1-0.4,0.1-0.6,0.1h-2
	c-0.2,0-0.4-0.1-0.6-0.1c-0.1,0-0.2-0.1-0.4-0.3s-0.1-0.1-0.1-0.2v-14c0-0.1,0-0.3,0.1-0.3c0.1-0.1,0.2-0.2,0.4-0.3
	c0.2-0.1,0.4-0.1,0.6-0.1h2c0.2,0,0.4,0.1,0.6,0.1c0.1,0,0.3,0.1,0.4,0.3s0.1,0.1,0.1,0.3V367.1z M953.9,350
	c-0.5,0.4-1.2,0.5-1.8,0.5c-0.7,0.1-1.3-0.1-1.9-0.5c-0.4-0.4-0.6-1-0.5-1.6c0-0.7,0.1-1.4,0.5-1.6c0.5-0.4,1.2-0.5,1.9-0.5
	c0.9,0,1.5,0.1,1.7,0.5s0.5,0.9,0.5,1.6C954.5,348.9,954.3,349.5,953.9,350L953.9,350z"/>
<circle class="st5" cx="1090.6" cy="505.8" r="35.4"/>
<g class="st8">
	<path d="M236.1,608.4c0,1.2-0.2,2.2-0.6,3.1c-0.4,0.9-1,1.6-1.8,2.2c-0.7,0.6-1.6,1-2.6,1.3c-1,0.3-2.1,0.4-3.2,0.4
		c-0.8,0-1.5-0.1-2.1-0.2c-0.7-0.1-1.2-0.3-1.7-0.5c-0.5-0.2-0.9-0.4-1.3-0.6c-0.3-0.2-0.6-0.4-0.7-0.5c-0.1-0.1-0.3-0.4-0.3-0.6
		c-0.1-0.3-0.1-0.7-0.1-1.2c0-0.4,0-0.6,0-0.9c0-0.2,0.1-0.4,0.1-0.6c0.1-0.1,0.1-0.3,0.2-0.3c0.1-0.1,0.2-0.1,0.3-0.1
		c0.2,0,0.4,0.1,0.7,0.3c0.3,0.2,0.7,0.4,1.1,0.6c0.5,0.2,1,0.4,1.6,0.6c0.6,0.2,1.4,0.3,2.2,0.3c0.5,0,1-0.1,1.5-0.2
		c0.4-0.1,0.8-0.3,1.1-0.6c0.3-0.2,0.5-0.5,0.7-0.9c0.2-0.4,0.2-0.7,0.2-1.2c0-0.5-0.1-0.9-0.4-1.3c-0.3-0.4-0.6-0.7-1.1-1
		c-0.4-0.3-0.9-0.5-1.5-0.8c-0.6-0.2-1.1-0.5-1.7-0.8c-0.6-0.3-1.2-0.6-1.7-0.9c-0.6-0.3-1.1-0.8-1.5-1.2c-0.4-0.5-0.8-1.1-1.1-1.7
		c-0.3-0.7-0.4-1.5-0.4-2.4c0-1.1,0.2-2,0.6-2.8c0.4-0.8,0.9-1.5,1.6-2c0.7-0.5,1.5-0.9,2.4-1.2c0.9-0.3,1.9-0.4,2.9-0.4
		c0.5,0,1,0,1.6,0.1c0.5,0.1,1,0.2,1.5,0.3c0.5,0.1,0.9,0.3,1.2,0.5c0.4,0.2,0.6,0.3,0.7,0.4c0.1,0.1,0.2,0.2,0.2,0.3
		c0,0.1,0.1,0.2,0.1,0.3c0,0.1,0,0.3,0.1,0.5c0,0.2,0,0.4,0,0.7c0,0.3,0,0.6,0,0.8c0,0.2,0,0.4-0.1,0.6c0,0.1-0.1,0.3-0.2,0.3
		c-0.1,0.1-0.2,0.1-0.3,0.1c-0.1,0-0.3-0.1-0.6-0.2c-0.3-0.2-0.6-0.3-1-0.5c-0.4-0.2-0.9-0.4-1.4-0.5c-0.5-0.2-1.1-0.2-1.7-0.2
		c-0.5,0-0.9,0.1-1.3,0.2c-0.4,0.1-0.7,0.3-0.9,0.5c-0.2,0.2-0.4,0.5-0.5,0.8c-0.1,0.3-0.2,0.6-0.2,0.9c0,0.5,0.1,0.9,0.4,1.3
		c0.3,0.4,0.6,0.7,1.1,1c0.4,0.3,1,0.5,1.5,0.8c0.6,0.2,1.2,0.5,1.7,0.8c0.6,0.3,1.2,0.6,1.7,0.9c0.6,0.3,1.1,0.8,1.5,1.2
		s0.8,1.1,1.1,1.7S236.1,607.5,236.1,608.4z"/>
	<path d="M248.3,612.9c0,0.5,0,0.9-0.1,1.2c-0.1,0.3-0.1,0.5-0.2,0.6s-0.3,0.2-0.5,0.3c-0.2,0.1-0.4,0.2-0.7,0.2
		c-0.3,0.1-0.6,0.1-0.9,0.1c-0.3,0-0.6,0.1-0.9,0.1c-0.9,0-1.6-0.1-2.2-0.3c-0.6-0.2-1.1-0.5-1.6-1s-0.7-1-0.9-1.7
		c-0.2-0.7-0.3-1.5-0.3-2.4v-7.8h-1.8c-0.2,0-0.4-0.1-0.5-0.4c-0.1-0.3-0.2-0.7-0.2-1.3c0-0.3,0-0.6,0-0.8c0-0.2,0.1-0.4,0.1-0.5
		c0.1-0.1,0.1-0.2,0.2-0.3c0.1-0.1,0.2-0.1,0.3-0.1h1.8v-3.4c0-0.1,0-0.2,0.1-0.3c0.1-0.1,0.2-0.2,0.3-0.2c0.2-0.1,0.4-0.1,0.7-0.1
		c0.3,0,0.6,0,1,0c0.4,0,0.8,0,1.1,0c0.3,0,0.5,0.1,0.7,0.1c0.2,0.1,0.3,0.1,0.3,0.2c0.1,0.1,0.1,0.2,0.1,0.3v3.4h3.3
		c0.1,0,0.2,0,0.3,0.1c0.1,0.1,0.2,0.2,0.2,0.3c0.1,0.1,0.1,0.3,0.1,0.5c0,0.2,0,0.5,0,0.8c0,0.6-0.1,1.1-0.2,1.3
		c-0.1,0.3-0.3,0.4-0.5,0.4h-3.3v7.2c0,0.8,0.1,1.5,0.4,1.9c0.3,0.4,0.7,0.6,1.4,0.6c0.2,0,0.4,0,0.6-0.1c0.2,0,0.3-0.1,0.5-0.1
		c0.1-0.1,0.3-0.1,0.4-0.1c0.1,0,0.2-0.1,0.3-0.1c0.1,0,0.1,0,0.2,0.1c0.1,0,0.1,0.1,0.1,0.2c0,0.1,0.1,0.3,0.1,0.5
		S248.3,612.6,248.3,612.9z"/>
	<path d="M261.2,600.6c0,0.4,0,0.7,0,1c0,0.3-0.1,0.5-0.1,0.6c0,0.1-0.1,0.3-0.2,0.3c-0.1,0.1-0.2,0.1-0.3,0.1c-0.1,0-0.2,0-0.3-0.1
		c-0.1,0-0.2-0.1-0.4-0.1c-0.1,0-0.3-0.1-0.5-0.1s-0.4-0.1-0.6-0.1c-0.2,0-0.5,0-0.7,0.1c-0.2,0.1-0.5,0.2-0.7,0.5
		c-0.3,0.2-0.5,0.5-0.8,0.8c-0.3,0.3-0.6,0.8-0.9,1.3v9.5c0,0.1,0,0.2-0.1,0.3c-0.1,0.1-0.2,0.2-0.4,0.2c-0.2,0.1-0.4,0.1-0.7,0.1
		s-0.6,0-1,0c-0.4,0-0.8,0-1,0s-0.5-0.1-0.7-0.1c-0.2-0.1-0.3-0.1-0.4-0.2c-0.1-0.1-0.1-0.2-0.1-0.3v-15.2c0-0.1,0-0.2,0.1-0.3
		c0.1-0.1,0.2-0.2,0.3-0.2c0.1-0.1,0.3-0.1,0.6-0.1c0.2,0,0.5,0,0.9,0c0.4,0,0.7,0,0.9,0s0.4,0.1,0.6,0.1c0.1,0.1,0.2,0.1,0.3,0.2
		c0.1,0.1,0.1,0.2,0.1,0.3v1.9c0.4-0.6,0.8-1,1.1-1.4c0.4-0.4,0.7-0.7,1-0.9c0.3-0.2,0.6-0.4,1-0.5c0.3-0.1,0.6-0.1,1-0.1
		c0.1,0,0.3,0,0.5,0c0.2,0,0.3,0,0.5,0.1c0.2,0,0.3,0.1,0.5,0.1c0.1,0.1,0.2,0.1,0.3,0.2c0.1,0.1,0.1,0.1,0.1,0.2
		c0,0.1,0.1,0.2,0.1,0.3c0,0.1,0,0.3,0.1,0.5C261.2,599.8,261.2,600.2,261.2,600.6z"/>
	<path d="M278.3,614.4c0,0.1,0,0.2-0.1,0.3c-0.1,0.1-0.2,0.2-0.3,0.2c-0.1,0.1-0.3,0.1-0.6,0.1c-0.2,0-0.5,0-0.9,0
		c-0.4,0-0.7,0-0.9,0s-0.4-0.1-0.6-0.1c-0.1-0.1-0.2-0.1-0.3-0.2c-0.1-0.1-0.1-0.2-0.1-0.3v-1.8c-0.8,0.9-1.7,1.6-2.6,2.1
		c-0.9,0.5-1.8,0.7-2.7,0.7c-1,0-1.9-0.2-2.6-0.5s-1.3-0.8-1.7-1.4c-0.4-0.6-0.8-1.3-0.9-2.1c-0.2-0.8-0.3-1.8-0.3-2.9v-9.3
		c0-0.1,0-0.2,0.1-0.3c0.1-0.1,0.2-0.2,0.3-0.2c0.2-0.1,0.4-0.1,0.7-0.1s0.6,0,1,0c0.4,0,0.8,0,1,0s0.5,0.1,0.7,0.1
		c0.2,0.1,0.3,0.1,0.4,0.2c0.1,0.1,0.1,0.2,0.1,0.3v8.6c0,0.8,0.1,1.4,0.2,1.8c0.1,0.4,0.3,0.8,0.5,1.1c0.2,0.3,0.5,0.5,0.8,0.7
		c0.3,0.2,0.7,0.2,1.1,0.2c0.5,0,1.1-0.2,1.6-0.6c0.6-0.4,1.1-1,1.8-1.7v-10.1c0-0.1,0-0.2,0.1-0.3c0.1-0.1,0.2-0.2,0.3-0.2
		c0.2-0.1,0.4-0.1,0.7-0.1s0.6,0,1,0c0.4,0,0.8,0,1,0s0.5,0.1,0.6,0.1c0.2,0.1,0.3,0.1,0.3,0.2c0.1,0.1,0.1,0.2,0.1,0.3V614.4z"/>
	<path d="M294.2,612c0,0.3,0,0.5,0,0.7c0,0.2,0,0.4-0.1,0.5s-0.1,0.2-0.1,0.3c0,0.1-0.1,0.2-0.3,0.3c-0.1,0.1-0.4,0.3-0.7,0.5
		c-0.3,0.2-0.7,0.4-1.1,0.5c-0.4,0.1-0.9,0.3-1.4,0.4c-0.5,0.1-1,0.1-1.5,0.1c-1.2,0-2.2-0.2-3.1-0.5c-0.9-0.4-1.7-0.9-2.3-1.6
		c-0.6-0.7-1.1-1.6-1.4-2.6s-0.5-2.2-0.5-3.5c0-1.5,0.2-2.8,0.6-4c0.4-1.1,0.9-2,1.6-2.8c0.7-0.7,1.5-1.3,2.4-1.6
		c0.9-0.4,2-0.5,3.1-0.5c0.5,0,0.9,0,1.3,0.1c0.4,0.1,0.8,0.2,1.2,0.3s0.7,0.3,1,0.5c0.3,0.2,0.5,0.3,0.6,0.4
		c0.1,0.1,0.2,0.2,0.3,0.3c0.1,0.1,0.1,0.2,0.1,0.3s0.1,0.3,0.1,0.5c0,0.2,0,0.4,0,0.7c0,0.7-0.1,1.1-0.2,1.4
		c-0.1,0.3-0.3,0.4-0.4,0.4c-0.2,0-0.4-0.1-0.6-0.2c-0.2-0.2-0.5-0.3-0.8-0.5c-0.3-0.2-0.6-0.4-1.1-0.5c-0.4-0.2-0.9-0.2-1.5-0.2
		c-1.1,0-2,0.4-2.6,1.3c-0.6,0.9-0.9,2.1-0.9,3.8c0,0.8,0.1,1.5,0.2,2.2c0.1,0.6,0.4,1.2,0.7,1.6c0.3,0.4,0.7,0.7,1.1,0.9
		c0.4,0.2,0.9,0.3,1.5,0.3c0.6,0,1.1-0.1,1.5-0.3c0.4-0.2,0.8-0.4,1.1-0.6c0.3-0.2,0.6-0.4,0.8-0.6c0.2-0.2,0.4-0.3,0.5-0.3
		c0.1,0,0.2,0,0.3,0.1c0.1,0.1,0.1,0.2,0.2,0.3c0,0.2,0.1,0.4,0.1,0.6C294.2,611.3,294.2,611.6,294.2,612z"/>
	<path d="M306.3,612.9c0,0.5,0,0.9-0.1,1.2c-0.1,0.3-0.1,0.5-0.2,0.6s-0.3,0.2-0.5,0.3c-0.2,0.1-0.4,0.2-0.7,0.2
		c-0.3,0.1-0.6,0.1-0.9,0.1c-0.3,0-0.6,0.1-0.9,0.1c-0.9,0-1.6-0.1-2.2-0.3c-0.6-0.2-1.1-0.5-1.6-1s-0.7-1-0.9-1.7
		c-0.2-0.7-0.3-1.5-0.3-2.4v-7.8h-1.8c-0.2,0-0.4-0.1-0.5-0.4c-0.1-0.3-0.2-0.7-0.2-1.3c0-0.3,0-0.6,0-0.8c0-0.2,0.1-0.4,0.1-0.5
		c0.1-0.1,0.1-0.2,0.2-0.3c0.1-0.1,0.2-0.1,0.3-0.1h1.8v-3.4c0-0.1,0-0.2,0.1-0.3c0.1-0.1,0.2-0.2,0.3-0.2c0.2-0.1,0.4-0.1,0.7-0.1
		c0.3,0,0.6,0,1,0c0.4,0,0.8,0,1.1,0c0.3,0,0.5,0.1,0.7,0.1c0.2,0.1,0.3,0.1,0.3,0.2c0.1,0.1,0.1,0.2,0.1,0.3v3.4h3.3
		c0.1,0,0.2,0,0.3,0.1c0.1,0.1,0.2,0.2,0.2,0.3c0.1,0.1,0.1,0.3,0.1,0.5c0,0.2,0,0.5,0,0.8c0,0.6-0.1,1.1-0.2,1.3
		c-0.1,0.3-0.3,0.4-0.5,0.4h-3.3v7.2c0,0.8,0.1,1.5,0.4,1.9c0.3,0.4,0.7,0.6,1.4,0.6c0.2,0,0.4,0,0.6-0.1c0.2,0,0.3-0.1,0.5-0.1
		c0.1-0.1,0.3-0.1,0.4-0.1c0.1,0,0.2-0.1,0.3-0.1c0.1,0,0.1,0,0.2,0.1c0.1,0,0.1,0.1,0.1,0.2c0,0.1,0.1,0.3,0.1,0.5
		S306.3,612.6,306.3,612.9z"/>
	<path d="M323.9,614.4c0,0.1,0,0.2-0.1,0.3c-0.1,0.1-0.2,0.2-0.3,0.2c-0.1,0.1-0.3,0.1-0.6,0.1c-0.2,0-0.5,0-0.9,0
		c-0.4,0-0.7,0-0.9,0s-0.4-0.1-0.6-0.1c-0.1-0.1-0.2-0.1-0.3-0.2c-0.1-0.1-0.1-0.2-0.1-0.3v-1.8c-0.8,0.9-1.7,1.6-2.6,2.1
		c-0.9,0.5-1.8,0.7-2.7,0.7c-1,0-1.9-0.2-2.6-0.5s-1.3-0.8-1.7-1.4c-0.4-0.6-0.8-1.3-0.9-2.1c-0.2-0.8-0.3-1.8-0.3-2.9v-9.3
		c0-0.1,0-0.2,0.1-0.3c0.1-0.1,0.2-0.2,0.3-0.2c0.2-0.1,0.4-0.1,0.7-0.1s0.6,0,1,0c0.4,0,0.8,0,1,0s0.5,0.1,0.7,0.1
		c0.2,0.1,0.3,0.1,0.4,0.2c0.1,0.1,0.1,0.2,0.1,0.3v8.6c0,0.8,0.1,1.4,0.2,1.8c0.1,0.4,0.3,0.8,0.5,1.1c0.2,0.3,0.5,0.5,0.8,0.7
		c0.3,0.2,0.7,0.2,1.1,0.2c0.5,0,1.1-0.2,1.6-0.6c0.6-0.4,1.1-1,1.8-1.7v-10.1c0-0.1,0-0.2,0.1-0.3c0.1-0.1,0.2-0.2,0.3-0.2
		c0.2-0.1,0.4-0.1,0.7-0.1s0.6,0,1,0c0.4,0,0.8,0,1,0s0.5,0.1,0.6,0.1c0.2,0.1,0.3,0.1,0.3,0.2c0.1,0.1,0.1,0.2,0.1,0.3V614.4z"/>
	<path d="M338,600.6c0,0.4,0,0.7,0,1c0,0.3-0.1,0.5-0.1,0.6c0,0.1-0.1,0.3-0.2,0.3c-0.1,0.1-0.2,0.1-0.3,0.1c-0.1,0-0.2,0-0.3-0.1
		c-0.1,0-0.2-0.1-0.4-0.1c-0.1,0-0.3-0.1-0.5-0.1s-0.4-0.1-0.6-0.1c-0.2,0-0.5,0-0.7,0.1c-0.2,0.1-0.5,0.2-0.7,0.5
		c-0.3,0.2-0.5,0.5-0.8,0.8c-0.3,0.3-0.6,0.8-0.9,1.3v9.5c0,0.1,0,0.2-0.1,0.3c-0.1,0.1-0.2,0.2-0.4,0.2c-0.2,0.1-0.4,0.1-0.7,0.1
		s-0.6,0-1,0c-0.4,0-0.8,0-1,0s-0.5-0.1-0.7-0.1c-0.2-0.1-0.3-0.1-0.4-0.2c-0.1-0.1-0.1-0.2-0.1-0.3v-15.2c0-0.1,0-0.2,0.1-0.3
		c0.1-0.1,0.2-0.2,0.3-0.2c0.1-0.1,0.3-0.1,0.6-0.1c0.2,0,0.5,0,0.9,0c0.4,0,0.7,0,0.9,0s0.4,0.1,0.6,0.1c0.1,0.1,0.2,0.1,0.3,0.2
		c0.1,0.1,0.1,0.2,0.1,0.3v1.9c0.4-0.6,0.8-1,1.1-1.4c0.4-0.4,0.7-0.7,1-0.9c0.3-0.2,0.6-0.4,1-0.5c0.3-0.1,0.6-0.1,1-0.1
		c0.1,0,0.3,0,0.5,0c0.2,0,0.3,0,0.5,0.1c0.2,0,0.3,0.1,0.5,0.1c0.1,0.1,0.2,0.1,0.3,0.2c0.1,0.1,0.1,0.1,0.1,0.2
		c0,0.1,0.1,0.2,0.1,0.3c0,0.1,0,0.3,0.1,0.5C338,599.8,338,600.2,338,600.6z"/>
	<path d="M354.3,606.3c0,0.5-0.1,0.9-0.4,1.2c-0.2,0.3-0.6,0.4-1,0.4h-9.3c0,0.6,0.1,1.2,0.2,1.8c0.2,0.5,0.4,1,0.7,1.4
		c0.3,0.4,0.8,0.7,1.3,0.8c0.5,0.2,1.2,0.3,1.9,0.3c0.8,0,1.4-0.1,2-0.2c0.6-0.1,1.1-0.2,1.5-0.4c0.4-0.1,0.8-0.3,1-0.4
		c0.3-0.1,0.5-0.2,0.7-0.2c0.1,0,0.2,0,0.3,0.1c0.1,0,0.1,0.1,0.2,0.2c0,0.1,0.1,0.2,0.1,0.4c0,0.2,0,0.4,0,0.7c0,0.3,0,0.5,0,0.6
		c0,0.2,0,0.3-0.1,0.5c0,0.1-0.1,0.2-0.1,0.3c0,0.1-0.1,0.2-0.2,0.2c-0.1,0.1-0.3,0.2-0.6,0.3c-0.3,0.1-0.8,0.3-1.3,0.4
		s-1.1,0.2-1.8,0.3c-0.7,0.1-1.4,0.1-2.1,0.1c-1.4,0-2.5-0.2-3.6-0.5c-1-0.3-1.9-0.9-2.6-1.6c-0.7-0.7-1.2-1.6-1.5-2.6
		s-0.5-2.3-0.5-3.7c0-1.4,0.2-2.6,0.5-3.7c0.4-1.1,0.9-2,1.5-2.8c0.7-0.8,1.5-1.3,2.5-1.7c1-0.4,2-0.6,3.3-0.6
		c1.3,0,2.4,0.2,3.3,0.6c0.9,0.4,1.6,0.9,2.2,1.6c0.6,0.7,1,1.5,1.3,2.4c0.3,0.9,0.4,1.9,0.4,3V606.3z M350.2,605.1
		c0-1.2-0.2-2.2-0.7-2.8c-0.5-0.7-1.3-1-2.4-1c-0.5,0-1,0.1-1.4,0.3s-0.7,0.5-1,0.8c-0.3,0.3-0.5,0.8-0.6,1.2
		c-0.1,0.5-0.2,1-0.2,1.5H350.2z"/>
	<path d="M381.2,606.6c0,1.3-0.2,2.5-0.5,3.6c-0.3,1.1-0.9,2-1.6,2.8c-0.7,0.8-1.6,1.4-2.6,1.8c-1,0.4-2.3,0.6-3.7,0.6
		c-1.4,0-2.5-0.2-3.5-0.6c-1-0.4-1.8-0.9-2.5-1.6c-0.7-0.7-1.2-1.6-1.5-2.6c-0.3-1-0.5-2.2-0.5-3.6c0-1.3,0.2-2.5,0.5-3.6
		c0.3-1.1,0.9-2,1.6-2.8c0.7-0.8,1.6-1.4,2.6-1.8c1-0.4,2.3-0.6,3.7-0.6c1.4,0,2.6,0.2,3.6,0.6c1,0.4,1.8,0.9,2.5,1.6
		c0.7,0.7,1.1,1.6,1.5,2.6C381,604.1,381.2,605.3,381.2,606.6z M376.8,606.8c0-0.8-0.1-1.4-0.2-2.1c-0.1-0.6-0.3-1.2-0.6-1.6
		c-0.3-0.5-0.7-0.8-1.1-1.1c-0.5-0.3-1.1-0.4-1.8-0.4c-0.6,0-1.2,0.1-1.7,0.4s-0.9,0.6-1.2,1s-0.5,1-0.7,1.6
		c-0.2,0.6-0.2,1.4-0.2,2.2c0,0.8,0.1,1.4,0.2,2.1c0.1,0.6,0.3,1.2,0.6,1.6c0.3,0.5,0.7,0.8,1.1,1.1c0.5,0.3,1.1,0.4,1.8,0.4
		c0.6,0,1.2-0.1,1.7-0.4c0.5-0.2,0.9-0.6,1.2-1s0.5-1,0.7-1.6C376.7,608.3,376.8,607.6,376.8,606.8z"/>
	<path d="M393.8,593.4c0,0.3,0,0.6,0,0.8c0,0.2-0.1,0.4-0.1,0.5c0,0.1-0.1,0.2-0.2,0.2c-0.1,0-0.1,0.1-0.2,0.1c-0.1,0-0.2,0-0.3-0.1
		c-0.1,0-0.2-0.1-0.4-0.1c-0.1,0-0.3-0.1-0.5-0.1c-0.2,0-0.4-0.1-0.7-0.1c-0.3,0-0.6,0-0.8,0.1c-0.2,0.1-0.4,0.3-0.6,0.5
		c-0.1,0.2-0.3,0.5-0.3,0.8c-0.1,0.3-0.1,0.8-0.1,1.2v1.4h2.8c0.1,0,0.2,0,0.3,0.1c0.1,0.1,0.2,0.2,0.2,0.3c0.1,0.1,0.1,0.3,0.1,0.5
		c0,0.2,0,0.5,0,0.8c0,0.6-0.1,1.1-0.2,1.3c-0.1,0.3-0.3,0.4-0.5,0.4h-2.8v12.3c0,0.1,0,0.2-0.1,0.3c-0.1,0.1-0.2,0.2-0.3,0.2
		c-0.2,0.1-0.4,0.1-0.7,0.1c-0.3,0-0.6,0-1,0s-0.8,0-1,0s-0.5-0.1-0.7-0.1c-0.2-0.1-0.3-0.1-0.3-0.2c-0.1-0.1-0.1-0.2-0.1-0.3v-12.3
		h-1.9c-0.2,0-0.4-0.1-0.5-0.4c-0.1-0.3-0.2-0.7-0.2-1.3c0-0.3,0-0.6,0-0.8c0-0.2,0.1-0.4,0.1-0.5c0.1-0.1,0.1-0.2,0.2-0.3
		c0.1-0.1,0.2-0.1,0.3-0.1h1.9v-1.3c0-1,0.1-1.9,0.3-2.7c0.2-0.8,0.5-1.4,1-1.9c0.4-0.5,1-0.9,1.7-1.2c0.7-0.3,1.5-0.4,2.4-0.4
		c0.4,0,0.9,0,1.3,0.1c0.4,0.1,0.7,0.2,0.9,0.2c0.2,0.1,0.4,0.2,0.5,0.2c0.1,0.1,0.1,0.2,0.2,0.3c0.1,0.1,0.1,0.3,0.1,0.5
		C393.8,592.7,393.8,593,393.8,593.4z"/>
	<path d="M416.9,599.2c0,1.2-0.1,2.5-0.4,3.8s-0.6,2.6-1.2,4c-0.5,1.3-1.2,2.7-2,4.1c-0.8,1.4-1.8,2.7-3,4.1c0.1,0.5,0.1,1,0.2,1.4
		c0,0.5,0.1,0.9,0.1,1.3c0,0.4,0,0.9,0.1,1.3c0,0.4,0,0.9,0,1.3c0,0.1,0,0.2-0.1,0.3c-0.1,0.1-0.2,0.2-0.3,0.2
		c-0.2,0.1-0.4,0.1-0.7,0.1s-0.6,0-1,0c-0.4,0-0.8,0-1,0s-0.5-0.1-0.7-0.1c-0.2-0.1-0.3-0.1-0.4-0.2c-0.1-0.1-0.1-0.2-0.1-0.3
		c0-0.8,0-1.5,0-2.2c0-0.7-0.1-1.4-0.1-2.1c-0.1-0.7-0.1-1.4-0.2-2c-0.1-0.7-0.2-1.4-0.4-2.1c-0.1-0.8-0.3-1.6-0.5-2.4
		c-0.2-0.9-0.5-1.8-0.8-2.8c-0.3-1-0.6-2.1-1.1-3.3c-0.4-1.2-0.9-2.4-1.4-3.7c-0.2-0.5-0.2-0.8,0.1-1c0.2-0.2,0.9-0.3,1.9-0.3
		c0.4,0,0.8,0,1.1,0c0.3,0,0.5,0.1,0.7,0.1c0.2,0.1,0.3,0.1,0.4,0.2c0.1,0.1,0.2,0.2,0.2,0.3c0.5,1.2,0.9,2.4,1.2,3.5
		c0.3,1.1,0.6,2.2,0.9,3.1c0.2,0.9,0.4,1.8,0.6,2.5c0.1,0.7,0.2,1.4,0.2,1.8c0.6-0.9,1-1.8,1.5-2.7c0.4-0.9,0.8-1.9,1-2.8
		c0.3-0.9,0.5-1.9,0.6-2.8c0.1-0.9,0.2-1.8,0.2-2.7c0-0.2,0.2-0.4,0.6-0.5c0.4-0.1,1-0.2,1.8-0.2c0.4,0,0.8,0,1,0
		c0.3,0,0.4,0.1,0.6,0.1c0.1,0.1,0.2,0.1,0.2,0.2C416.9,599,416.9,599.1,416.9,599.2z"/>
	<path d="M443.2,599.6c0,1.2-0.2,2.3-0.6,3.3c-0.4,1-1,1.8-1.7,2.4c-0.7,0.7-1.6,1.2-2.7,1.5c-1.1,0.3-2.3,0.5-3.8,0.5h-1.8v7.1
		c0,0.1,0,0.2-0.1,0.3c-0.1,0.1-0.2,0.2-0.4,0.2c-0.2,0.1-0.4,0.1-0.7,0.1c-0.3,0-0.6,0.1-1.1,0.1c-0.4,0-0.8,0-1.1-0.1
		c-0.3,0-0.5-0.1-0.7-0.1c-0.2-0.1-0.3-0.1-0.4-0.2c-0.1-0.1-0.1-0.2-0.1-0.3v-19.9c0-0.5,0.1-0.9,0.4-1.2c0.3-0.3,0.6-0.4,1.1-0.4
		h5.2c0.5,0,1,0,1.5,0.1c0.5,0,1,0.1,1.7,0.3c0.7,0.1,1.3,0.4,2,0.7c0.7,0.4,1.3,0.8,1.7,1.3c0.5,0.5,0.8,1.2,1.1,1.9
		C443.1,597.9,443.2,598.7,443.2,599.6z M438.5,599.9c0-0.8-0.1-1.4-0.4-1.9c-0.3-0.5-0.6-0.9-1-1.1c-0.4-0.2-0.8-0.4-1.3-0.5
		s-0.9-0.1-1.4-0.1h-1.9v7.5h2c0.7,0,1.3-0.1,1.8-0.3c0.5-0.2,0.9-0.5,1.2-0.8c0.3-0.3,0.5-0.8,0.7-1.2
		C438.5,601,438.5,600.5,438.5,599.9z"/>
	<path d="M461,614.4c0,0.1,0,0.2-0.1,0.3c-0.1,0.1-0.2,0.2-0.3,0.2c-0.2,0.1-0.4,0.1-0.7,0.1s-0.6,0-1,0c-0.4,0-0.8,0-1.1,0
		s-0.5-0.1-0.7-0.1c-0.2-0.1-0.3-0.1-0.3-0.2c-0.1-0.1-0.1-0.2-0.1-0.3v-8.7c0-0.7-0.1-1.3-0.2-1.7c-0.1-0.4-0.3-0.8-0.5-1.1
		c-0.2-0.3-0.5-0.5-0.8-0.7c-0.3-0.2-0.7-0.2-1.1-0.2c-0.5,0-1.1,0.2-1.7,0.6c-0.6,0.4-1.1,1-1.7,1.7v10.1c0,0.1,0,0.2-0.1,0.3
		c-0.1,0.1-0.2,0.2-0.4,0.2c-0.2,0.1-0.4,0.1-0.7,0.1s-0.6,0-1,0c-0.4,0-0.8,0-1,0s-0.5-0.1-0.7-0.1c-0.2-0.1-0.3-0.1-0.4-0.2
		c-0.1-0.1-0.1-0.2-0.1-0.3v-22.5c0-0.1,0-0.2,0.1-0.3c0.1-0.1,0.2-0.2,0.4-0.2c0.2-0.1,0.4-0.1,0.7-0.1c0.3,0,0.6-0.1,1-0.1
		c0.4,0,0.8,0,1,0.1c0.3,0,0.5,0.1,0.7,0.1c0.2,0.1,0.3,0.1,0.4,0.2c0.1,0.1,0.1,0.2,0.1,0.3v8.4c0.7-0.7,1.5-1.3,2.3-1.6
		c0.8-0.4,1.6-0.5,2.4-0.5c1,0,1.9,0.2,2.6,0.5c0.7,0.3,1.3,0.8,1.7,1.4c0.4,0.6,0.8,1.3,0.9,2.1c0.2,0.8,0.3,1.8,0.3,2.9V614.4z"/>
	<path d="M478.2,614.5c0,0.2-0.1,0.3-0.2,0.4c-0.1,0.1-0.3,0.2-0.5,0.2c-0.2,0-0.6,0.1-1.1,0.1c-0.5,0-0.9,0-1.1-0.1
		c-0.2,0-0.4-0.1-0.5-0.2c-0.1-0.1-0.1-0.2-0.1-0.4v-1.2c-0.6,0.7-1.3,1.2-2.1,1.6c-0.8,0.4-1.7,0.6-2.7,0.6c-0.8,0-1.6-0.1-2.2-0.3
		c-0.7-0.2-1.3-0.5-1.8-0.9c-0.5-0.4-0.9-0.9-1.2-1.5s-0.4-1.3-0.4-2.2c0-0.9,0.2-1.7,0.5-2.3c0.3-0.7,0.9-1.2,1.6-1.6
		c0.7-0.4,1.5-0.7,2.6-0.9s2.2-0.3,3.6-0.3h1.5v-0.9c0-0.5,0-0.9-0.1-1.3c-0.1-0.4-0.3-0.7-0.5-0.9c-0.2-0.2-0.5-0.4-0.9-0.5
		c-0.4-0.1-0.8-0.2-1.4-0.2c-0.7,0-1.4,0.1-1.9,0.2c-0.6,0.2-1.1,0.3-1.5,0.5c-0.4,0.2-0.8,0.4-1.1,0.5c-0.3,0.2-0.5,0.2-0.7,0.2
		c-0.1,0-0.2,0-0.3-0.1c-0.1-0.1-0.2-0.2-0.2-0.3c-0.1-0.1-0.1-0.3-0.1-0.5c0-0.2-0.1-0.5-0.1-0.7c0-0.4,0-0.6,0.1-0.8
		c0.1-0.2,0.2-0.4,0.3-0.6c0.2-0.2,0.4-0.3,0.8-0.5c0.4-0.2,0.9-0.4,1.4-0.6c0.5-0.2,1.1-0.3,1.8-0.4c0.6-0.1,1.3-0.2,2-0.2
		c1.2,0,2.2,0.1,3.1,0.3c0.8,0.2,1.5,0.6,2.1,1.1s0.9,1.1,1.2,1.9c0.3,0.8,0.4,1.7,0.4,2.7V614.5z M474,607.9h-1.6
		c-0.7,0-1.3,0.1-1.8,0.2c-0.5,0.1-0.9,0.3-1.2,0.5s-0.5,0.5-0.7,0.7c-0.1,0.3-0.2,0.6-0.2,1c0,0.6,0.2,1.1,0.6,1.5
		c0.4,0.4,1,0.5,1.7,0.5c0.6,0,1.2-0.2,1.7-0.5c0.5-0.3,1-0.8,1.5-1.4V607.9z"/>
	<path d="M493.3,610.1c0,0.9-0.2,1.6-0.5,2.3c-0.3,0.7-0.8,1.2-1.4,1.7c-0.6,0.4-1.3,0.8-2.1,1c-0.8,0.2-1.7,0.3-2.6,0.3
		c-0.6,0-1.1,0-1.6-0.1c-0.5-0.1-1-0.2-1.4-0.3s-0.8-0.3-1-0.4s-0.5-0.3-0.6-0.4c-0.1-0.1-0.2-0.3-0.3-0.6c-0.1-0.3-0.1-0.6-0.1-1.1
		c0-0.3,0-0.6,0-0.8c0-0.2,0.1-0.4,0.1-0.5c0-0.1,0.1-0.2,0.2-0.2s0.2-0.1,0.3-0.1c0.1,0,0.3,0.1,0.6,0.2c0.2,0.1,0.5,0.3,0.9,0.5
		c0.4,0.2,0.8,0.3,1.3,0.5c0.5,0.1,1,0.2,1.6,0.2c0.4,0,0.7,0,1-0.1c0.3-0.1,0.6-0.2,0.8-0.3c0.2-0.1,0.4-0.3,0.5-0.6
		c0.1-0.2,0.2-0.5,0.2-0.8c0-0.3-0.1-0.6-0.3-0.9c-0.2-0.2-0.5-0.5-0.8-0.6c-0.3-0.2-0.7-0.4-1.2-0.5c-0.4-0.2-0.9-0.3-1.4-0.5
		c-0.5-0.2-0.9-0.4-1.3-0.7c-0.4-0.3-0.8-0.6-1.2-0.9c-0.3-0.4-0.6-0.8-0.8-1.3c-0.2-0.5-0.3-1.1-0.3-1.8c0-0.7,0.1-1.4,0.4-2
		c0.3-0.6,0.7-1.1,1.2-1.6c0.5-0.4,1.2-0.8,2-1c0.8-0.2,1.6-0.4,2.6-0.4c0.5,0,0.9,0,1.4,0.1c0.4,0.1,0.9,0.2,1.2,0.3
		c0.4,0.1,0.7,0.2,0.9,0.3c0.3,0.1,0.4,0.2,0.5,0.3c0.1,0.1,0.2,0.2,0.2,0.3c0,0.1,0.1,0.2,0.1,0.3c0,0.1,0,0.3,0.1,0.4
		c0,0.2,0,0.4,0,0.7c0,0.3,0,0.6,0,0.8c0,0.2,0,0.3-0.1,0.5c0,0.1-0.1,0.2-0.2,0.2c-0.1,0-0.1,0.1-0.2,0.1c-0.1,0-0.3-0.1-0.5-0.2
		c-0.2-0.1-0.5-0.2-0.8-0.4c-0.3-0.1-0.7-0.3-1.1-0.4c-0.4-0.1-0.9-0.2-1.5-0.2c-0.4,0-0.7,0-1,0.1c-0.3,0.1-0.5,0.2-0.7,0.3
		c-0.2,0.1-0.3,0.3-0.4,0.5c-0.1,0.2-0.1,0.4-0.1,0.6c0,0.4,0.1,0.6,0.3,0.9c0.2,0.2,0.5,0.5,0.9,0.6c0.4,0.2,0.8,0.4,1.2,0.5
		c0.4,0.2,0.9,0.3,1.4,0.5c0.5,0.2,0.9,0.4,1.4,0.7c0.4,0.3,0.9,0.6,1.2,0.9c0.4,0.4,0.6,0.8,0.9,1.3
		C493.2,608.8,493.3,609.4,493.3,610.1z"/>
	<path d="M510.6,606.3c0,0.5-0.1,0.9-0.4,1.2c-0.2,0.3-0.6,0.4-1,0.4H500c0,0.6,0.1,1.2,0.2,1.8c0.2,0.5,0.4,1,0.7,1.4
		c0.3,0.4,0.8,0.7,1.3,0.8c0.5,0.2,1.2,0.3,1.9,0.3c0.8,0,1.4-0.1,2-0.2c0.6-0.1,1.1-0.2,1.5-0.4c0.4-0.1,0.8-0.3,1-0.4
		c0.3-0.1,0.5-0.2,0.7-0.2c0.1,0,0.2,0,0.3,0.1c0.1,0,0.1,0.1,0.2,0.2c0,0.1,0.1,0.2,0.1,0.4c0,0.2,0,0.4,0,0.7c0,0.3,0,0.5,0,0.6
		c0,0.2,0,0.3-0.1,0.5c0,0.1-0.1,0.2-0.1,0.3c0,0.1-0.1,0.2-0.2,0.2c-0.1,0.1-0.3,0.2-0.6,0.3c-0.3,0.1-0.8,0.3-1.3,0.4
		s-1.1,0.2-1.8,0.3c-0.7,0.1-1.4,0.1-2.1,0.1c-1.4,0-2.5-0.2-3.6-0.5c-1-0.3-1.9-0.9-2.6-1.6c-0.7-0.7-1.2-1.6-1.5-2.6
		s-0.5-2.3-0.5-3.7c0-1.4,0.2-2.6,0.5-3.7c0.4-1.1,0.9-2,1.5-2.8c0.7-0.8,1.5-1.3,2.5-1.7c1-0.4,2-0.6,3.3-0.6
		c1.3,0,2.4,0.2,3.3,0.6c0.9,0.4,1.6,0.9,2.2,1.6c0.6,0.7,1,1.5,1.3,2.4c0.3,0.9,0.4,1.9,0.4,3V606.3z M506.4,605.1
		c0-1.2-0.2-2.2-0.7-2.8c-0.5-0.7-1.3-1-2.4-1c-0.5,0-1,0.1-1.4,0.3s-0.7,0.5-1,0.8c-0.3,0.3-0.5,0.8-0.6,1.2
		c-0.1,0.5-0.2,1-0.2,1.5H506.4z"/>
</g>
<g class="st8">
	<path d="M897,608.4c0,1.2-0.2,2.2-0.6,3.1c-0.4,0.9-1,1.6-1.8,2.2c-0.7,0.6-1.6,1-2.6,1.3c-1,0.3-2.1,0.4-3.2,0.4
		c-0.8,0-1.5-0.1-2.1-0.2c-0.7-0.1-1.2-0.3-1.7-0.5c-0.5-0.2-0.9-0.4-1.3-0.6c-0.3-0.2-0.6-0.4-0.7-0.5c-0.1-0.1-0.3-0.4-0.3-0.6
		c-0.1-0.3-0.1-0.7-0.1-1.2c0-0.4,0-0.6,0-0.9c0-0.2,0.1-0.4,0.1-0.6c0.1-0.1,0.1-0.3,0.2-0.3c0.1-0.1,0.2-0.1,0.3-0.1
		c0.2,0,0.4,0.1,0.7,0.3c0.3,0.2,0.7,0.4,1.1,0.6c0.5,0.2,1,0.4,1.6,0.6c0.6,0.2,1.4,0.3,2.2,0.3c0.5,0,1-0.1,1.5-0.2
		c0.4-0.1,0.8-0.3,1.1-0.6c0.3-0.2,0.5-0.5,0.7-0.9c0.2-0.4,0.2-0.7,0.2-1.2c0-0.5-0.1-0.9-0.4-1.3c-0.3-0.4-0.6-0.7-1.1-1
		s-0.9-0.5-1.5-0.8c-0.6-0.2-1.1-0.5-1.7-0.8s-1.2-0.6-1.7-0.9c-0.6-0.3-1.1-0.8-1.5-1.2c-0.4-0.5-0.8-1.1-1.1-1.7
		c-0.3-0.7-0.4-1.5-0.4-2.4c0-1.1,0.2-2,0.6-2.8c0.4-0.8,0.9-1.5,1.6-2c0.7-0.5,1.5-0.9,2.4-1.2c0.9-0.3,1.9-0.4,2.9-0.4
		c0.5,0,1,0,1.6,0.1c0.5,0.1,1,0.2,1.5,0.3c0.5,0.1,0.9,0.3,1.2,0.5s0.6,0.3,0.7,0.4c0.1,0.1,0.2,0.2,0.2,0.3c0,0.1,0.1,0.2,0.1,0.3
		s0,0.3,0.1,0.5c0,0.2,0,0.4,0,0.7c0,0.3,0,0.6,0,0.8c0,0.2,0,0.4-0.1,0.6c0,0.1-0.1,0.3-0.2,0.3s-0.2,0.1-0.3,0.1
		c-0.1,0-0.3-0.1-0.6-0.2c-0.3-0.2-0.6-0.3-1-0.5c-0.4-0.2-0.9-0.4-1.4-0.5c-0.5-0.2-1.1-0.2-1.7-0.2c-0.5,0-0.9,0.1-1.3,0.2
		c-0.4,0.1-0.7,0.3-0.9,0.5c-0.2,0.2-0.4,0.5-0.5,0.8c-0.1,0.3-0.2,0.6-0.2,0.9c0,0.5,0.1,0.9,0.4,1.3c0.3,0.4,0.6,0.7,1.1,1
		c0.5,0.3,1,0.5,1.5,0.8c0.6,0.2,1.2,0.5,1.7,0.8s1.2,0.6,1.7,0.9c0.6,0.3,1.1,0.8,1.5,1.2s0.8,1.1,1.1,1.7S897,607.5,897,608.4z"/>
	<path d="M909.2,612.9c0,0.5,0,0.9-0.1,1.2c-0.1,0.3-0.1,0.5-0.2,0.6s-0.3,0.2-0.5,0.3c-0.2,0.1-0.4,0.2-0.7,0.2
		c-0.3,0.1-0.6,0.1-0.9,0.1c-0.3,0-0.6,0.1-0.9,0.1c-0.9,0-1.6-0.1-2.2-0.3c-0.6-0.2-1.1-0.5-1.6-1s-0.7-1-0.9-1.7s-0.3-1.5-0.3-2.4
		v-7.8h-1.8c-0.2,0-0.4-0.1-0.5-0.4c-0.1-0.3-0.2-0.7-0.2-1.3c0-0.3,0-0.6,0-0.8c0-0.2,0.1-0.4,0.1-0.5c0.1-0.1,0.1-0.2,0.2-0.3
		c0.1-0.1,0.2-0.1,0.3-0.1h1.8v-3.4c0-0.1,0-0.2,0.1-0.3c0.1-0.1,0.2-0.2,0.3-0.2c0.2-0.1,0.4-0.1,0.7-0.1c0.3,0,0.6,0,1,0
		c0.4,0,0.8,0,1.1,0c0.3,0,0.5,0.1,0.7,0.1c0.2,0.1,0.3,0.1,0.3,0.2c0.1,0.1,0.1,0.2,0.1,0.3v3.4h3.3c0.1,0,0.2,0,0.3,0.1
		c0.1,0.1,0.2,0.2,0.2,0.3c0.1,0.1,0.1,0.3,0.1,0.5c0,0.2,0,0.5,0,0.8c0,0.6-0.1,1.1-0.2,1.3s-0.3,0.4-0.5,0.4h-3.3v7.2
		c0,0.8,0.1,1.5,0.4,1.9c0.3,0.4,0.7,0.6,1.4,0.6c0.2,0,0.4,0,0.6-0.1c0.2,0,0.3-0.1,0.5-0.1c0.1-0.1,0.3-0.1,0.4-0.1
		c0.1,0,0.2-0.1,0.3-0.1c0.1,0,0.1,0,0.2,0.1c0.1,0,0.1,0.1,0.1,0.2c0,0.1,0.1,0.3,0.1,0.5S909.2,612.6,909.2,612.9z"/>
	<path d="M922.1,600.6c0,0.4,0,0.7,0,1c0,0.3-0.1,0.5-0.1,0.6c0,0.1-0.1,0.3-0.2,0.3c-0.1,0.1-0.2,0.1-0.3,0.1c-0.1,0-0.2,0-0.3-0.1
		c-0.1,0-0.2-0.1-0.4-0.1c-0.1,0-0.3-0.1-0.5-0.1s-0.4-0.1-0.6-0.1c-0.2,0-0.5,0-0.7,0.1c-0.2,0.1-0.5,0.2-0.7,0.5
		c-0.3,0.2-0.5,0.5-0.8,0.8s-0.6,0.8-0.9,1.3v9.5c0,0.1,0,0.2-0.1,0.3c-0.1,0.1-0.2,0.2-0.4,0.2c-0.2,0.1-0.4,0.1-0.7,0.1
		s-0.6,0-1,0s-0.8,0-1,0s-0.5-0.1-0.7-0.1c-0.2-0.1-0.3-0.1-0.4-0.2c-0.1-0.1-0.1-0.2-0.1-0.3v-15.2c0-0.1,0-0.2,0.1-0.3
		c0.1-0.1,0.2-0.2,0.3-0.2c0.1-0.1,0.3-0.1,0.6-0.1s0.5,0,0.9,0c0.4,0,0.7,0,0.9,0s0.4,0.1,0.6,0.1c0.1,0.1,0.2,0.1,0.3,0.2
		c0.1,0.1,0.1,0.2,0.1,0.3v1.9c0.4-0.6,0.8-1,1.1-1.4c0.4-0.4,0.7-0.7,1-0.9c0.3-0.2,0.6-0.4,1-0.5c0.3-0.1,0.6-0.1,1-0.1
		c0.1,0,0.3,0,0.5,0c0.2,0,0.3,0,0.5,0.1c0.2,0,0.3,0.1,0.5,0.1c0.1,0.1,0.2,0.1,0.3,0.2c0.1,0.1,0.1,0.1,0.1,0.2s0.1,0.2,0.1,0.3
		c0,0.1,0,0.3,0.1,0.5S922.1,600.2,922.1,600.6z"/>
	<path d="M939.2,614.4c0,0.1,0,0.2-0.1,0.3c-0.1,0.1-0.2,0.2-0.3,0.2c-0.1,0.1-0.3,0.1-0.6,0.1s-0.5,0-0.9,0c-0.4,0-0.7,0-0.9,0
		s-0.4-0.1-0.6-0.1c-0.1-0.1-0.2-0.1-0.3-0.2c-0.1-0.1-0.1-0.2-0.1-0.3v-1.8c-0.8,0.9-1.7,1.6-2.6,2.1c-0.9,0.5-1.8,0.7-2.7,0.7
		c-1,0-1.9-0.2-2.6-0.5s-1.3-0.8-1.7-1.4c-0.4-0.6-0.8-1.3-0.9-2.1c-0.2-0.8-0.3-1.8-0.3-2.9v-9.3c0-0.1,0-0.2,0.1-0.3
		c0.1-0.1,0.2-0.2,0.3-0.2c0.2-0.1,0.4-0.1,0.7-0.1s0.6,0,1,0c0.4,0,0.8,0,1,0s0.5,0.1,0.7,0.1c0.2,0.1,0.3,0.1,0.4,0.2
		c0.1,0.1,0.1,0.2,0.1,0.3v8.6c0,0.8,0.1,1.4,0.2,1.8c0.1,0.4,0.3,0.8,0.5,1.1s0.5,0.5,0.8,0.7c0.3,0.2,0.7,0.2,1.1,0.2
		c0.5,0,1.1-0.2,1.6-0.6c0.6-0.4,1.1-1,1.8-1.7v-10.1c0-0.1,0-0.2,0.1-0.3c0.1-0.1,0.2-0.2,0.3-0.2c0.2-0.1,0.4-0.1,0.7-0.1
		s0.6,0,1,0c0.4,0,0.8,0,1,0s0.5,0.1,0.6,0.1c0.2,0.1,0.3,0.1,0.3,0.2c0.1,0.1,0.1,0.2,0.1,0.3V614.4z"/>
	<path d="M955.1,612c0,0.3,0,0.5,0,0.7c0,0.2,0,0.4-0.1,0.5s-0.1,0.2-0.1,0.3c0,0.1-0.1,0.2-0.3,0.3c-0.1,0.1-0.4,0.3-0.7,0.5
		c-0.3,0.2-0.7,0.4-1.1,0.5c-0.4,0.1-0.9,0.3-1.4,0.4c-0.5,0.1-1,0.1-1.5,0.1c-1.2,0-2.2-0.2-3.1-0.5c-0.9-0.4-1.7-0.9-2.3-1.6
		c-0.6-0.7-1.1-1.6-1.4-2.6s-0.5-2.2-0.5-3.5c0-1.5,0.2-2.8,0.6-4c0.4-1.1,0.9-2,1.6-2.8c0.7-0.7,1.5-1.3,2.4-1.6
		c0.9-0.4,2-0.5,3.1-0.5c0.5,0,0.9,0,1.3,0.1c0.4,0.1,0.8,0.2,1.2,0.3s0.7,0.3,1,0.5c0.3,0.2,0.5,0.3,0.6,0.4
		c0.1,0.1,0.2,0.2,0.3,0.3c0.1,0.1,0.1,0.2,0.1,0.3s0.1,0.3,0.1,0.5c0,0.2,0,0.4,0,0.7c0,0.7-0.1,1.1-0.2,1.4s-0.3,0.4-0.4,0.4
		c-0.2,0-0.4-0.1-0.6-0.2c-0.2-0.2-0.5-0.3-0.8-0.5c-0.3-0.2-0.6-0.4-1.1-0.5c-0.4-0.2-0.9-0.2-1.5-0.2c-1.1,0-2,0.4-2.6,1.3
		c-0.6,0.9-0.9,2.1-0.9,3.8c0,0.8,0.1,1.5,0.2,2.2c0.1,0.6,0.4,1.2,0.7,1.6c0.3,0.4,0.7,0.7,1.1,0.9c0.4,0.2,0.9,0.3,1.5,0.3
		c0.6,0,1.1-0.1,1.5-0.3c0.4-0.2,0.8-0.4,1.1-0.6c0.3-0.2,0.6-0.4,0.8-0.6c0.2-0.2,0.4-0.3,0.5-0.3c0.1,0,0.2,0,0.3,0.1
		c0.1,0.1,0.1,0.2,0.2,0.3c0,0.2,0.1,0.4,0.1,0.6S955.1,611.6,955.1,612z"/>
	<path d="M967.2,612.9c0,0.5,0,0.9-0.1,1.2c-0.1,0.3-0.1,0.5-0.2,0.6s-0.3,0.2-0.5,0.3c-0.2,0.1-0.4,0.2-0.7,0.2
		c-0.3,0.1-0.6,0.1-0.9,0.1c-0.3,0-0.6,0.1-0.9,0.1c-0.9,0-1.6-0.1-2.2-0.3c-0.6-0.2-1.1-0.5-1.6-1s-0.7-1-0.9-1.7s-0.3-1.5-0.3-2.4
		v-7.8h-1.8c-0.2,0-0.4-0.1-0.5-0.4c-0.1-0.3-0.2-0.7-0.2-1.3c0-0.3,0-0.6,0-0.8c0-0.2,0.1-0.4,0.1-0.5c0.1-0.1,0.1-0.2,0.2-0.3
		c0.1-0.1,0.2-0.1,0.3-0.1h1.8v-3.4c0-0.1,0-0.2,0.1-0.3c0.1-0.1,0.2-0.2,0.3-0.2c0.2-0.1,0.4-0.1,0.7-0.1c0.3,0,0.6,0,1,0
		c0.4,0,0.8,0,1.1,0c0.3,0,0.5,0.1,0.7,0.1c0.2,0.1,0.3,0.1,0.3,0.2c0.1,0.1,0.1,0.2,0.1,0.3v3.4h3.3c0.1,0,0.2,0,0.3,0.1
		c0.1,0.1,0.2,0.2,0.2,0.3c0.1,0.1,0.1,0.3,0.1,0.5c0,0.2,0,0.5,0,0.8c0,0.6-0.1,1.1-0.2,1.3s-0.3,0.4-0.5,0.4h-3.3v7.2
		c0,0.8,0.1,1.5,0.4,1.9c0.3,0.4,0.7,0.6,1.4,0.6c0.2,0,0.4,0,0.6-0.1c0.2,0,0.3-0.1,0.5-0.1c0.1-0.1,0.3-0.1,0.4-0.1
		c0.1,0,0.2-0.1,0.3-0.1c0.1,0,0.1,0,0.2,0.1c0.1,0,0.1,0.1,0.1,0.2c0,0.1,0.1,0.3,0.1,0.5S967.2,612.6,967.2,612.9z"/>
	<path d="M984.8,614.4c0,0.1,0,0.2-0.1,0.3c-0.1,0.1-0.2,0.2-0.3,0.2c-0.1,0.1-0.3,0.1-0.6,0.1s-0.5,0-0.9,0c-0.4,0-0.7,0-0.9,0
		s-0.4-0.1-0.6-0.1c-0.1-0.1-0.2-0.1-0.3-0.2c-0.1-0.1-0.1-0.2-0.1-0.3v-1.8c-0.8,0.9-1.7,1.6-2.6,2.1c-0.9,0.5-1.8,0.7-2.7,0.7
		c-1,0-1.9-0.2-2.6-0.5s-1.3-0.8-1.7-1.4c-0.4-0.6-0.8-1.3-0.9-2.1c-0.2-0.8-0.3-1.8-0.3-2.9v-9.3c0-0.1,0-0.2,0.1-0.3
		c0.1-0.1,0.2-0.2,0.3-0.2c0.2-0.1,0.4-0.1,0.7-0.1s0.6,0,1,0c0.4,0,0.8,0,1,0s0.5,0.1,0.7,0.1c0.2,0.1,0.3,0.1,0.4,0.2
		c0.1,0.1,0.1,0.2,0.1,0.3v8.6c0,0.8,0.1,1.4,0.2,1.8c0.1,0.4,0.3,0.8,0.5,1.1s0.5,0.5,0.8,0.7c0.3,0.2,0.7,0.2,1.1,0.2
		c0.5,0,1.1-0.2,1.6-0.6c0.6-0.4,1.1-1,1.8-1.7v-10.1c0-0.1,0-0.2,0.1-0.3c0.1-0.1,0.2-0.2,0.3-0.2c0.2-0.1,0.4-0.1,0.7-0.1
		s0.6,0,1,0c0.4,0,0.8,0,1,0s0.5,0.1,0.6,0.1c0.2,0.1,0.3,0.1,0.3,0.2c0.1,0.1,0.1,0.2,0.1,0.3V614.4z"/>
	<path d="M998.9,600.6c0,0.4,0,0.7,0,1c0,0.3-0.1,0.5-0.1,0.6c0,0.1-0.1,0.3-0.2,0.3c-0.1,0.1-0.2,0.1-0.3,0.1c-0.1,0-0.2,0-0.3-0.1
		c-0.1,0-0.2-0.1-0.4-0.1c-0.1,0-0.3-0.1-0.5-0.1s-0.4-0.1-0.6-0.1c-0.2,0-0.5,0-0.7,0.1c-0.2,0.1-0.5,0.2-0.7,0.5
		c-0.3,0.2-0.5,0.5-0.8,0.8c-0.3,0.3-0.6,0.8-0.9,1.3v9.5c0,0.1,0,0.2-0.1,0.3c-0.1,0.1-0.2,0.2-0.4,0.2c-0.2,0.1-0.4,0.1-0.7,0.1
		s-0.6,0-1,0c-0.4,0-0.8,0-1,0s-0.5-0.1-0.7-0.1c-0.2-0.1-0.3-0.1-0.4-0.2c-0.1-0.1-0.1-0.2-0.1-0.3v-15.2c0-0.1,0-0.2,0.1-0.3
		c0.1-0.1,0.2-0.2,0.3-0.2c0.1-0.1,0.3-0.1,0.6-0.1c0.2,0,0.5,0,0.9,0c0.4,0,0.7,0,0.9,0s0.4,0.1,0.6,0.1c0.1,0.1,0.2,0.1,0.3,0.2
		c0.1,0.1,0.1,0.2,0.1,0.3v1.9c0.4-0.6,0.8-1,1.1-1.4s0.7-0.7,1-0.9c0.3-0.2,0.6-0.4,1-0.5c0.3-0.1,0.6-0.1,1-0.1c0.1,0,0.3,0,0.5,0
		c0.2,0,0.3,0,0.5,0.1c0.2,0,0.3,0.1,0.5,0.1c0.1,0.1,0.2,0.1,0.3,0.2c0.1,0.1,0.1,0.1,0.1,0.2c0,0.1,0.1,0.2,0.1,0.3
		c0,0.1,0,0.3,0.1,0.5C998.9,599.8,998.9,600.2,998.9,600.6z"/>
	<path d="M1015.2,606.3c0,0.5-0.1,0.9-0.4,1.2c-0.2,0.3-0.6,0.4-1,0.4h-9.3c0,0.6,0.1,1.2,0.2,1.8c0.2,0.5,0.4,1,0.7,1.4
		s0.8,0.7,1.3,0.8c0.5,0.2,1.2,0.3,1.9,0.3c0.8,0,1.4-0.1,2-0.2c0.6-0.1,1.1-0.2,1.5-0.4s0.8-0.3,1-0.4c0.3-0.1,0.5-0.2,0.7-0.2
		c0.1,0,0.2,0,0.3,0.1c0.1,0,0.1,0.1,0.2,0.2c0,0.1,0.1,0.2,0.1,0.4c0,0.2,0,0.4,0,0.7c0,0.3,0,0.5,0,0.6c0,0.2,0,0.3-0.1,0.5
		c0,0.1-0.1,0.2-0.1,0.3c0,0.1-0.1,0.2-0.2,0.2c-0.1,0.1-0.3,0.2-0.6,0.3s-0.8,0.3-1.3,0.4s-1.1,0.2-1.8,0.3
		c-0.7,0.1-1.4,0.1-2.1,0.1c-1.4,0-2.5-0.2-3.6-0.5s-1.9-0.9-2.6-1.6c-0.7-0.7-1.2-1.6-1.5-2.6s-0.5-2.3-0.5-3.7
		c0-1.4,0.2-2.6,0.5-3.7c0.4-1.1,0.9-2,1.5-2.8c0.7-0.8,1.5-1.3,2.5-1.7c1-0.4,2-0.6,3.3-0.6c1.3,0,2.4,0.2,3.3,0.6
		c0.9,0.4,1.6,0.9,2.2,1.6c0.6,0.7,1,1.5,1.3,2.4c0.3,0.9,0.4,1.9,0.4,3V606.3z M1011.1,605.1c0-1.2-0.2-2.2-0.7-2.8
		c-0.5-0.7-1.3-1-2.4-1c-0.5,0-1,0.1-1.4,0.3s-0.7,0.5-1,0.8c-0.3,0.3-0.5,0.8-0.6,1.2c-0.1,0.5-0.2,1-0.2,1.5H1011.1z"/>
	<path d="M1042.1,606.6c0,1.3-0.2,2.5-0.5,3.6c-0.3,1.1-0.9,2-1.6,2.8c-0.7,0.8-1.6,1.4-2.6,1.8s-2.3,0.6-3.7,0.6
		c-1.4,0-2.5-0.2-3.5-0.6s-1.8-0.9-2.5-1.6s-1.2-1.6-1.5-2.6c-0.3-1-0.5-2.2-0.5-3.6c0-1.3,0.2-2.5,0.5-3.6c0.3-1.1,0.9-2,1.6-2.8
		c0.7-0.8,1.6-1.4,2.6-1.8c1-0.4,2.3-0.6,3.7-0.6c1.4,0,2.6,0.2,3.6,0.6c1,0.4,1.8,0.9,2.5,1.6c0.7,0.7,1.1,1.6,1.5,2.6
		C1041.9,604.1,1042.1,605.3,1042.1,606.6z M1037.7,606.8c0-0.8-0.1-1.4-0.2-2.1c-0.1-0.6-0.3-1.2-0.6-1.6c-0.3-0.5-0.7-0.8-1.1-1.1
		c-0.5-0.3-1.1-0.4-1.8-0.4c-0.6,0-1.2,0.1-1.7,0.4s-0.9,0.6-1.2,1s-0.5,1-0.7,1.6c-0.2,0.6-0.2,1.4-0.2,2.2c0,0.8,0.1,1.4,0.2,2.1
		c0.1,0.6,0.3,1.2,0.6,1.6c0.3,0.5,0.7,0.8,1.1,1.1c0.5,0.3,1.1,0.4,1.8,0.4c0.6,0,1.2-0.1,1.7-0.4c0.5-0.2,0.9-0.6,1.2-1
		s0.5-1,0.7-1.6C1037.6,608.3,1037.7,607.6,1037.7,606.8z"/>
	<path d="M1054.7,593.4c0,0.3,0,0.6,0,0.8c0,0.2-0.1,0.4-0.1,0.5c0,0.1-0.1,0.2-0.2,0.2s-0.1,0.1-0.2,0.1c-0.1,0-0.2,0-0.3-0.1
		c-0.1,0-0.2-0.1-0.4-0.1c-0.1,0-0.3-0.1-0.5-0.1c-0.2,0-0.4-0.1-0.7-0.1c-0.3,0-0.6,0-0.8,0.1c-0.2,0.1-0.4,0.3-0.6,0.5
		c-0.1,0.2-0.3,0.5-0.3,0.8c-0.1,0.3-0.1,0.8-0.1,1.2v1.4h2.8c0.1,0,0.2,0,0.3,0.1c0.1,0.1,0.2,0.2,0.2,0.3c0.1,0.1,0.1,0.3,0.1,0.5
		c0,0.2,0,0.5,0,0.8c0,0.6-0.1,1.1-0.2,1.3c-0.1,0.3-0.3,0.4-0.5,0.4h-2.8v12.3c0,0.1,0,0.2-0.1,0.3c-0.1,0.1-0.2,0.2-0.3,0.2
		c-0.2,0.1-0.4,0.1-0.7,0.1s-0.6,0-1,0s-0.8,0-1,0s-0.5-0.1-0.7-0.1c-0.2-0.1-0.3-0.1-0.3-0.2c-0.1-0.1-0.1-0.2-0.1-0.3v-12.3h-1.9
		c-0.2,0-0.4-0.1-0.5-0.4c-0.1-0.3-0.2-0.7-0.2-1.3c0-0.3,0-0.6,0-0.8c0-0.2,0.1-0.4,0.1-0.5c0.1-0.1,0.1-0.2,0.2-0.3
		c0.1-0.1,0.2-0.1,0.3-0.1h1.9v-1.3c0-1,0.1-1.9,0.3-2.7c0.2-0.8,0.5-1.4,1-1.9c0.4-0.5,1-0.9,1.7-1.2c0.7-0.3,1.5-0.4,2.4-0.4
		c0.4,0,0.9,0,1.3,0.1c0.4,0.1,0.7,0.2,0.9,0.2c0.2,0.1,0.4,0.2,0.5,0.2c0.1,0.1,0.1,0.2,0.2,0.3c0.1,0.1,0.1,0.3,0.1,0.5
		C1054.7,592.7,1054.7,593,1054.7,593.4z"/>
	<path d="M1077.8,599.2c0,1.2-0.1,2.5-0.4,3.8s-0.6,2.6-1.2,4c-0.5,1.3-1.2,2.7-2,4.1c-0.8,1.4-1.8,2.7-3,4.1c0.1,0.5,0.1,1,0.2,1.4
		c0,0.5,0.1,0.9,0.1,1.3s0,0.9,0.1,1.3c0,0.4,0,0.9,0,1.3c0,0.1,0,0.2-0.1,0.3c-0.1,0.1-0.2,0.2-0.3,0.2c-0.2,0.1-0.4,0.1-0.7,0.1
		s-0.6,0-1,0c-0.4,0-0.8,0-1,0s-0.5-0.1-0.7-0.1c-0.2-0.1-0.3-0.1-0.3-0.2c-0.1-0.1-0.1-0.2-0.1-0.3c0-0.8,0-1.5,0-2.2
		c0-0.7-0.1-1.4-0.1-2.1c-0.1-0.7-0.1-1.4-0.2-2c-0.1-0.7-0.2-1.4-0.4-2.1c-0.1-0.8-0.3-1.6-0.5-2.4c-0.2-0.9-0.5-1.8-0.8-2.8
		c-0.3-1-0.6-2.1-1.1-3.3c-0.4-1.2-0.9-2.4-1.3-3.7c-0.2-0.5-0.2-0.8,0.1-1c0.2-0.2,0.9-0.3,1.9-0.3c0.4,0,0.8,0,1.1,0
		s0.5,0.1,0.7,0.1c0.2,0.1,0.3,0.1,0.4,0.2c0.1,0.1,0.2,0.2,0.2,0.3c0.5,1.2,0.9,2.4,1.2,3.5c0.3,1.1,0.6,2.2,0.9,3.1
		c0.2,0.9,0.4,1.8,0.6,2.5c0.1,0.7,0.2,1.4,0.2,1.8c0.6-0.9,1-1.8,1.5-2.7c0.4-0.9,0.8-1.9,1-2.8c0.3-0.9,0.5-1.9,0.6-2.8
		c0.1-0.9,0.2-1.8,0.2-2.7c0-0.2,0.2-0.4,0.6-0.5c0.4-0.1,1-0.2,1.8-0.2c0.4,0,0.8,0,1,0s0.4,0.1,0.6,0.1c0.1,0.1,0.2,0.1,0.2,0.2
		C1077.8,599,1077.8,599.1,1077.8,599.2z"/>
	<path d="M1084.4,599.4c0,0.1,0,0.2-0.1,0.3c-0.1,0.1-0.1,0.2-0.3,0.2c-0.1,0.1-0.3,0.1-0.5,0.1c-0.2,0-0.4,0-0.7,0
		c-0.3,0-0.6,0-0.8-0.1c-0.2,0-0.4-0.1-0.5-0.1c-0.1-0.1-0.2-0.1-0.3-0.2c-0.1-0.1-0.1-0.2-0.1-0.3l-0.4-7.6c0-0.1,0-0.2,0.1-0.3
		c0.1-0.1,0.2-0.2,0.4-0.2c0.2-0.1,0.4-0.1,0.6-0.1c0.3,0,0.6,0,0.9,0c0.4,0,0.7,0,0.9,0c0.3,0,0.5,0.1,0.6,0.1
		c0.2,0.1,0.3,0.1,0.3,0.2c0.1,0.1,0.1,0.2,0.1,0.3L1084.4,599.4z"/>
	<path d="M1112.3,599.6c0,1.2-0.2,2.3-0.6,3.3c-0.4,1-1,1.8-1.7,2.4c-0.7,0.7-1.6,1.2-2.7,1.5c-1.1,0.3-2.3,0.5-3.8,0.5h-1.8v7.1
		c0,0.1,0,0.2-0.1,0.3c-0.1,0.1-0.2,0.2-0.4,0.2c-0.2,0.1-0.4,0.1-0.7,0.1c-0.3,0-0.6,0.1-1.1,0.1c-0.4,0-0.8,0-1.1-0.1
		c-0.3,0-0.5-0.1-0.7-0.1c-0.2-0.1-0.3-0.1-0.4-0.2c-0.1-0.1-0.1-0.2-0.1-0.3v-19.9c0-0.5,0.1-0.9,0.4-1.2c0.3-0.3,0.6-0.4,1.1-0.4
		h5.2c0.5,0,1,0,1.5,0.1c0.5,0,1,0.1,1.7,0.3s1.3,0.4,2,0.7c0.7,0.4,1.3,0.8,1.7,1.3c0.5,0.5,0.8,1.2,1.1,1.9
		C1112.2,597.9,1112.3,598.7,1112.3,599.6z M1107.6,599.9c0-0.8-0.1-1.4-0.4-1.9c-0.3-0.5-0.6-0.9-1-1.1c-0.4-0.2-0.8-0.4-1.3-0.5
		s-0.9-0.1-1.4-0.1h-1.9v7.5h2c0.7,0,1.3-0.1,1.8-0.3c0.5-0.2,0.9-0.5,1.2-0.8c0.3-0.3,0.5-0.8,0.7-1.2S1107.6,600.5,1107.6,599.9z"
		/>
	<path d="M1130.1,614.4c0,0.1,0,0.2-0.1,0.3c-0.1,0.1-0.2,0.2-0.3,0.2c-0.2,0.1-0.4,0.1-0.7,0.1s-0.6,0-1,0c-0.4,0-0.8,0-1.1,0
		s-0.5-0.1-0.7-0.1c-0.2-0.1-0.3-0.1-0.3-0.2c-0.1-0.1-0.1-0.2-0.1-0.3v-8.7c0-0.7-0.1-1.3-0.2-1.7c-0.1-0.4-0.3-0.8-0.5-1.1
		c-0.2-0.3-0.5-0.5-0.8-0.7c-0.3-0.2-0.7-0.2-1.1-0.2c-0.5,0-1.1,0.2-1.7,0.6c-0.6,0.4-1.1,1-1.7,1.7v10.1c0,0.1,0,0.2-0.1,0.3
		c-0.1,0.1-0.2,0.2-0.4,0.2c-0.2,0.1-0.4,0.1-0.7,0.1s-0.6,0-1,0s-0.8,0-1,0s-0.5-0.1-0.7-0.1c-0.2-0.1-0.3-0.1-0.4-0.2
		c-0.1-0.1-0.1-0.2-0.1-0.3v-22.5c0-0.1,0-0.2,0.1-0.3c0.1-0.1,0.2-0.2,0.4-0.2c0.2-0.1,0.4-0.1,0.7-0.1c0.3,0,0.6-0.1,1-0.1
		s0.8,0,1,0.1c0.3,0,0.5,0.1,0.7,0.1c0.2,0.1,0.3,0.1,0.4,0.2c0.1,0.1,0.1,0.2,0.1,0.3v8.4c0.7-0.7,1.5-1.3,2.3-1.6
		c0.8-0.4,1.6-0.5,2.4-0.5c1,0,1.9,0.2,2.6,0.5s1.3,0.8,1.7,1.4c0.4,0.6,0.8,1.3,0.9,2.1c0.2,0.8,0.3,1.8,0.3,2.9V614.4z"/>
	<path d="M1147.3,614.5c0,0.2-0.1,0.3-0.2,0.4c-0.1,0.1-0.3,0.2-0.5,0.2c-0.2,0-0.6,0.1-1.1,0.1c-0.5,0-0.9,0-1.1-0.1
		c-0.2,0-0.4-0.1-0.5-0.2c-0.1-0.1-0.1-0.2-0.1-0.4v-1.2c-0.6,0.7-1.3,1.2-2.1,1.6c-0.8,0.4-1.7,0.6-2.7,0.6c-0.8,0-1.6-0.1-2.2-0.3
		c-0.7-0.2-1.3-0.5-1.8-0.9c-0.5-0.4-0.9-0.9-1.2-1.5s-0.4-1.3-0.4-2.2c0-0.9,0.2-1.7,0.5-2.3c0.3-0.7,0.9-1.2,1.6-1.6
		c0.7-0.4,1.5-0.7,2.6-0.9s2.2-0.3,3.6-0.3h1.5v-0.9c0-0.5,0-0.9-0.1-1.3c-0.1-0.4-0.3-0.7-0.5-0.9c-0.2-0.2-0.5-0.4-0.9-0.5
		c-0.4-0.1-0.8-0.2-1.4-0.2c-0.7,0-1.4,0.1-1.9,0.2c-0.6,0.2-1.1,0.3-1.5,0.5c-0.4,0.2-0.8,0.4-1.1,0.5c-0.3,0.2-0.5,0.2-0.7,0.2
		c-0.1,0-0.2,0-0.3-0.1c-0.1-0.1-0.2-0.2-0.2-0.3c-0.1-0.1-0.1-0.3-0.1-0.5c0-0.2-0.1-0.5-0.1-0.7c0-0.4,0-0.6,0.1-0.8
		s0.2-0.4,0.3-0.6c0.2-0.2,0.4-0.3,0.8-0.5c0.4-0.2,0.9-0.4,1.4-0.6c0.5-0.2,1.1-0.3,1.8-0.4c0.6-0.1,1.3-0.2,2-0.2
		c1.2,0,2.2,0.1,3.1,0.3c0.8,0.2,1.5,0.6,2.1,1.1s0.9,1.1,1.2,1.9c0.3,0.8,0.4,1.7,0.4,2.7V614.5z M1143.1,607.9h-1.6
		c-0.7,0-1.3,0.1-1.8,0.2s-0.9,0.3-1.2,0.5s-0.5,0.5-0.7,0.7c-0.1,0.3-0.2,0.6-0.2,1c0,0.6,0.2,1.1,0.6,1.5c0.4,0.4,1,0.5,1.7,0.5
		c0.6,0,1.2-0.2,1.7-0.5c0.5-0.3,1-0.8,1.5-1.4V607.9z"/>
	<path d="M1162.3,610.1c0,0.9-0.2,1.6-0.5,2.3c-0.3,0.7-0.8,1.2-1.4,1.7c-0.6,0.4-1.3,0.8-2.1,1c-0.8,0.2-1.7,0.3-2.6,0.3
		c-0.6,0-1.1,0-1.6-0.1c-0.5-0.1-1-0.2-1.4-0.3s-0.8-0.3-1-0.4s-0.5-0.3-0.6-0.4c-0.1-0.1-0.2-0.3-0.3-0.6c-0.1-0.3-0.1-0.6-0.1-1.1
		c0-0.3,0-0.6,0-0.8c0-0.2,0.1-0.4,0.1-0.5c0-0.1,0.1-0.2,0.2-0.2s0.2-0.1,0.3-0.1c0.1,0,0.3,0.1,0.6,0.2c0.2,0.1,0.5,0.3,0.9,0.5
		c0.4,0.2,0.8,0.3,1.3,0.5c0.5,0.1,1,0.2,1.6,0.2c0.4,0,0.7,0,1-0.1c0.3-0.1,0.6-0.2,0.8-0.3c0.2-0.1,0.4-0.3,0.5-0.6
		c0.1-0.2,0.2-0.5,0.2-0.8c0-0.3-0.1-0.6-0.3-0.9s-0.5-0.5-0.8-0.6c-0.3-0.2-0.7-0.4-1.2-0.5c-0.4-0.2-0.9-0.3-1.4-0.5
		c-0.5-0.2-0.9-0.4-1.3-0.7c-0.4-0.3-0.8-0.6-1.2-0.9c-0.3-0.4-0.6-0.8-0.8-1.3s-0.3-1.1-0.3-1.8c0-0.7,0.1-1.4,0.4-2
		c0.3-0.6,0.7-1.1,1.2-1.6c0.5-0.4,1.2-0.8,2-1c0.8-0.2,1.6-0.4,2.6-0.4c0.5,0,0.9,0,1.4,0.1s0.9,0.2,1.2,0.3s0.7,0.2,0.9,0.3
		c0.3,0.1,0.4,0.2,0.5,0.3c0.1,0.1,0.2,0.2,0.2,0.3c0,0.1,0.1,0.2,0.1,0.3c0,0.1,0,0.3,0.1,0.4c0,0.2,0,0.4,0,0.7c0,0.3,0,0.6,0,0.8
		c0,0.2,0,0.3-0.1,0.5c0,0.1-0.1,0.2-0.2,0.2c-0.1,0-0.1,0.1-0.2,0.1c-0.1,0-0.3-0.1-0.5-0.2c-0.2-0.1-0.5-0.2-0.8-0.4
		c-0.3-0.1-0.7-0.3-1.1-0.4c-0.4-0.1-0.9-0.2-1.5-0.2c-0.4,0-0.7,0-1,0.1c-0.3,0.1-0.5,0.2-0.7,0.3c-0.2,0.1-0.3,0.3-0.4,0.5
		c-0.1,0.2-0.1,0.4-0.1,0.6c0,0.4,0.1,0.6,0.3,0.9s0.5,0.5,0.9,0.6c0.4,0.2,0.8,0.4,1.2,0.5c0.5,0.2,0.9,0.3,1.4,0.5
		c0.5,0.2,0.9,0.4,1.4,0.7c0.5,0.3,0.9,0.6,1.2,0.9c0.4,0.4,0.6,0.8,0.9,1.3C1162.2,608.8,1162.3,609.4,1162.3,610.1z"/>
	<path d="M1179.7,606.3c0,0.5-0.1,0.9-0.3,1.2c-0.2,0.3-0.6,0.4-1,0.4h-9.3c0,0.6,0.1,1.2,0.2,1.8c0.2,0.5,0.4,1,0.7,1.4
		c0.3,0.4,0.8,0.7,1.3,0.8c0.5,0.2,1.2,0.3,1.9,0.3c0.8,0,1.4-0.1,2-0.2c0.6-0.1,1.1-0.2,1.5-0.4c0.4-0.1,0.8-0.3,1-0.4
		c0.3-0.1,0.5-0.2,0.7-0.2c0.1,0,0.2,0,0.3,0.1c0.1,0,0.1,0.1,0.2,0.2s0.1,0.2,0.1,0.4c0,0.2,0,0.4,0,0.7c0,0.3,0,0.5,0,0.6
		s0,0.3-0.1,0.5c0,0.1-0.1,0.2-0.1,0.3c0,0.1-0.1,0.2-0.2,0.2c-0.1,0.1-0.3,0.2-0.6,0.3c-0.3,0.1-0.8,0.3-1.3,0.4s-1.1,0.2-1.8,0.3
		c-0.7,0.1-1.4,0.1-2.1,0.1c-1.4,0-2.5-0.2-3.6-0.5c-1-0.3-1.9-0.9-2.6-1.6c-0.7-0.7-1.2-1.6-1.5-2.6s-0.5-2.3-0.5-3.7
		c0-1.4,0.2-2.6,0.5-3.7c0.4-1.1,0.9-2,1.5-2.8c0.7-0.8,1.5-1.3,2.5-1.7c1-0.4,2-0.6,3.3-0.6c1.3,0,2.4,0.2,3.3,0.6
		c0.9,0.4,1.6,0.9,2.2,1.6c0.6,0.7,1,1.5,1.3,2.4c0.3,0.9,0.4,1.9,0.4,3V606.3z M1175.5,605.1c0-1.2-0.2-2.2-0.7-2.8
		c-0.5-0.7-1.3-1-2.4-1c-0.5,0-1,0.1-1.4,0.3s-0.7,0.5-1,0.8c-0.3,0.3-0.5,0.8-0.6,1.2c-0.1,0.5-0.2,1-0.2,1.5H1175.5z"/>
</g>
<g>
	<path class="st9" d="M1090.6,171.3c-20.4,0-36.9,16.5-36.9,36.9s16.5,36.9,36.9,36.9s36.9-16.5,36.9-36.9
		S1110.9,171.3,1090.6,171.3z M1096.5,218.6c-0.1,0.1-0.3,0.2-0.6,0.2c-0.3,0-0.7,0-1.2,0s-0.9,0-1.2,0c-0.3,0-0.5,0-0.7-0.1
		c-0.2,0-0.3-0.1-0.3-0.2c-0.1-0.1-0.1-0.2-0.2-0.3l-1.3-4h-7.5l-1.3,3.9c0,0.1-0.1,0.3-0.2,0.4c-0.1,0.1-0.2,0.2-0.3,0.2
		c-0.1,0.1-0.4,0.1-0.6,0.1s-0.6,0-1.1,0s-0.8,0-1.1,0c-0.3,0-0.4-0.1-0.6-0.2c-0.1-0.1-0.1-0.3-0.1-0.5s0.1-0.5,0.2-0.9l6.1-17.6
		c0.1-0.2,0.1-0.3,0.2-0.4c0.1-0.1,0.2-0.2,0.4-0.2c0.2-0.1,0.4-0.1,0.7-0.1s0.7,0,1.3,0c0.6,0,1.1,0,1.4,0s0.6,0.1,0.8,0.1
		c0.2,0.1,0.3,0.1,0.4,0.3c0.1,0.1,0.2,0.3,0.2,0.5l6.1,17.6c0.1,0.4,0.2,0.7,0.2,0.9C1096.6,218.4,1096.6,218.5,1096.5,218.6z
		 M1102.8,218.3c0,0.1,0,0.2-0.1,0.3s-0.2,0.1-0.3,0.2c-0.1,0.1-0.3,0.1-0.6,0.1c-0.2,0-0.6,0-0.9,0s-0.7,0-0.9,0
		c-0.2,0-0.4-0.1-0.6-0.1c-0.1-0.1-0.3-0.1-0.3-0.2c-0.1-0.1-0.1-0.2-0.1-0.3v-20.2c0-0.1,0-0.2,0.1-0.3s0.2-0.2,0.3-0.2
		c0.1-0.1,0.3-0.1,0.6-0.1c0.2,0,0.6,0,0.9,0s0.7,0,0.9,0c0.2,0,0.4,0.1,0.6,0.1c0.1,0.1,0.3,0.1,0.3,0.2c0.1,0.1,0.1,0.2,0.1,0.3
		V218.3z"/>
	<polygon class="st9" points="1087.2,202.7 1084.4,211.2 1090.1,211.2 1087.3,202.7 	"/>
</g>
<g>
	<path class="st9" d="M793,171.3c-20.4,0-36.9,16.5-36.9,36.9S772.7,245,793,245c20.4,0,36.9-16.5,36.9-36.9S813.4,171.3,793,171.3z
		 M799,218.6c-0.1,0.1-0.3,0.2-0.6,0.2s-0.7,0-1.2,0s-0.9,0-1.2,0s-0.5,0-0.7-0.1c-0.2,0-0.3-0.1-0.3-0.2c-0.1-0.1-0.1-0.2-0.2-0.3
		l-1.3-4H786l-1.3,3.9c0,0.1-0.1,0.3-0.2,0.4c-0.1,0.1-0.2,0.2-0.3,0.2c-0.1,0.1-0.4,0.1-0.6,0.1c-0.3,0-0.6,0-1.1,0s-0.8,0-1.1,0
		s-0.5-0.1-0.6-0.2c-0.1-0.1-0.1-0.3-0.1-0.5s0.1-0.5,0.2-0.9l6.1-17.6c0.1-0.2,0.1-0.3,0.2-0.4c0.1-0.1,0.2-0.2,0.4-0.2
		c0.2-0.1,0.4-0.1,0.7-0.1s0.7,0,1.3,0s1.1,0,1.4,0c0.4,0,0.6,0.1,0.8,0.1c0.2,0.1,0.3,0.1,0.4,0.3c0.1,0.1,0.2,0.3,0.2,0.5
		l6.1,17.6c0.1,0.4,0.2,0.7,0.2,0.9C799.1,218.4,799.1,218.5,799,218.6z M805.3,218.3c0,0.1,0,0.2-0.1,0.3s-0.2,0.1-0.3,0.2
		c-0.1,0.1-0.3,0.1-0.6,0.1c-0.2,0-0.6,0-0.9,0s-0.7,0-0.9,0s-0.4-0.1-0.6-0.1c-0.1-0.1-0.3-0.1-0.3-0.2c-0.1-0.1-0.1-0.2-0.1-0.3
		v-20.2c0-0.1,0-0.2,0.1-0.3s0.2-0.2,0.3-0.2c0.1-0.1,0.3-0.1,0.6-0.1c0.2,0,0.6,0,0.9,0s0.7,0,0.9,0s0.4,0.1,0.6,0.1
		c0.1,0.1,0.3,0.1,0.3,0.2c0.1,0.1,0.1,0.2,0.1,0.3V218.3z"/>
	<polygon class="st9" points="789.7,202.7 786.9,211.2 792.6,211.2 	"/>
</g>
<g>
	<path class="st9" d="M793,469c-20.4,0-36.9,16.5-36.9,36.9s16.5,36.9,36.9,36.9s36.9-16.5,36.9-36.9S813.4,469,793,469z M799,516.3
		c-0.1,0.1-0.3,0.2-0.6,0.2s-0.7,0-1.2,0s-0.9,0-1.2,0s-0.5,0-0.7-0.1c-0.2,0-0.3-0.1-0.3-0.2c-0.1-0.1-0.1-0.2-0.2-0.3l-1.3-4H786
		l-1.3,3.9c0,0.1-0.1,0.3-0.2,0.4c-0.1,0.1-0.2,0.2-0.3,0.2c-0.1,0.1-0.4,0.1-0.6,0.1c-0.3,0-0.6,0-1.1,0s-0.8,0-1.1,0
		s-0.5-0.1-0.6-0.2c-0.1-0.1-0.1-0.3-0.1-0.5s0.1-0.5,0.2-0.9l6.1-17.6c0.1-0.2,0.1-0.3,0.2-0.4c0.1-0.1,0.2-0.2,0.4-0.2
		c0.2-0.1,0.4-0.1,0.7-0.1s0.7,0,1.3,0s1.1,0,1.4,0c0.4,0,0.6,0.1,0.8,0.1c0.2,0.1,0.3,0.1,0.4,0.3c0.1,0.1,0.2,0.3,0.2,0.5
		l6.1,17.6c0.1,0.4,0.2,0.7,0.2,0.9C799.1,516,799.1,516.2,799,516.3z M805.3,515.9c0,0.1,0,0.2-0.1,0.3s-0.2,0.1-0.3,0.2
		c-0.1,0.1-0.3,0.1-0.6,0.1c-0.2,0-0.6,0-0.9,0s-0.7,0-0.9,0s-0.4-0.1-0.6-0.1c-0.1-0.1-0.3-0.1-0.3-0.2c-0.1-0.1-0.1-0.2-0.1-0.3
		v-20.2c0-0.1,0-0.2,0.1-0.3c0.1-0.1,0.2-0.2,0.3-0.2c0.1-0.1,0.3-0.1,0.6-0.1c0.2,0,0.6,0,0.9,0s0.7,0,0.9,0s0.4,0.1,0.6,0.1
		c0.1,0.1,0.3,0.1,0.3,0.2c0.1,0.1,0.1,0.2,0.1,0.3V515.9z"/>
	<polygon class="st9" points="789.7,500.4 786.9,508.8 792.6,508.8 	"/>
</g>
<g>
	<path class="st9" d="M1090.6,469c-20.4,0-36.9,16.5-36.9,36.9s16.5,36.9,36.9,36.9s36.9-16.5,36.9-36.9
		C1127.4,485.5,1110.9,469,1090.6,469z M1096.5,516.3c-0.1,0.1-0.3,0.2-0.6,0.2c-0.3,0-0.7,0-1.2,0s-0.9,0-1.2,0
		c-0.3,0-0.5,0-0.7-0.1c-0.2,0-0.3-0.1-0.3-0.2c-0.1-0.1-0.1-0.2-0.2-0.3l-1.3-4h-7.5l-1.3,3.9c0,0.1-0.1,0.3-0.2,0.4
		c-0.1,0.1-0.2,0.2-0.3,0.2c-0.1,0.1-0.4,0.1-0.6,0.1s-0.6,0-1.1,0s-0.8,0-1.1,0c-0.3,0-0.4-0.1-0.6-0.2c-0.1-0.1-0.1-0.3-0.1-0.5
		s0.1-0.5,0.2-0.9l6.1-17.6c0.1-0.2,0.1-0.3,0.2-0.4s0.2-0.2,0.4-0.2c0.2-0.1,0.4-0.1,0.7-0.1s0.7,0,1.3,0c0.6,0,1.1,0,1.4,0
		s0.6,0.1,0.8,0.1c0.2,0.1,0.3,0.1,0.4,0.3c0.1,0.1,0.2,0.3,0.2,0.5l6.1,17.6c0.1,0.4,0.2,0.7,0.2,0.9
		C1096.6,516,1096.6,516.2,1096.5,516.3z M1102.8,515.9c0,0.1,0,0.2-0.1,0.3s-0.2,0.1-0.3,0.2c-0.1,0.1-0.3,0.1-0.6,0.1
		c-0.2,0-0.6,0-0.9,0s-0.7,0-0.9,0c-0.2,0-0.4-0.1-0.6-0.1c-0.1-0.1-0.3-0.1-0.3-0.2c-0.1-0.1-0.1-0.2-0.1-0.3v-20.2
		c0-0.1,0-0.2,0.1-0.3c0.1-0.1,0.2-0.2,0.3-0.2c0.1-0.1,0.3-0.1,0.6-0.1c0.2,0,0.6,0,0.9,0s0.7,0,0.9,0c0.2,0,0.4,0.1,0.6,0.1
		c0.1,0.1,0.3,0.1,0.3,0.2c0.1,0.1,0.1,0.2,0.1,0.3V515.9z"/>
	<polygon class="st9" points="1087.2,500.4 1084.4,508.8 1090.1,508.8 1087.3,500.4 	"/>
</g>
<g>
	<path class="st9" d="M979,71c-16.4,0-29.8,13.3-29.8,29.8s13.3,29.8,29.8,29.8c16.4,0,29.8-13.3,29.8-29.8S995.5,71,979,71z
		 M983.8,109.3c-0.1,0.1-0.3,0.1-0.5,0.2c-0.2,0-0.5,0-1,0c-0.4,0-0.7,0-1,0c-0.2,0-0.4,0-0.5-0.1c-0.1,0-0.2-0.1-0.3-0.2
		c0-0.1-0.1-0.2-0.1-0.3l-1.1-3.2h-6l-1,3.1c0,0.1-0.1,0.2-0.1,0.3c-0.1,0.1-0.1,0.1-0.3,0.2c-0.1,0-0.3,0.1-0.5,0.1s-0.5,0-0.9,0
		s-0.7,0-0.9,0s-0.4-0.1-0.4-0.2c-0.1-0.1-0.1-0.2-0.1-0.4c0-0.2,0.1-0.4,0.2-0.7l4.9-14.2c0-0.1,0.1-0.3,0.2-0.3
		c0.1-0.1,0.2-0.2,0.3-0.2s0.3-0.1,0.6-0.1s0.6,0,1,0c0.5,0,0.9,0,1.2,0s0.5,0,0.7,0.1c0.2,0,0.3,0.1,0.3,0.2
		c0.1,0.1,0.1,0.2,0.2,0.4l5,14.2c0.1,0.3,0.2,0.5,0.2,0.7C983.9,109,983.9,109.2,983.8,109.3z M988.9,108.9c0,0.1,0,0.2-0.1,0.2
		c-0.1,0.1-0.1,0.1-0.3,0.2c-0.1,0-0.3,0.1-0.5,0.1s-0.5,0-0.8,0s-0.6,0-0.8,0s-0.4-0.1-0.5-0.1s-0.2-0.1-0.3-0.2
		c0-0.1-0.1-0.1-0.1-0.2V92.7c0-0.1,0-0.2,0.1-0.2c0-0.1,0.1-0.1,0.3-0.2c0.1,0,0.3-0.1,0.5-0.1s0.5,0,0.8,0s0.6,0,0.8,0
		s0.4,0.1,0.5,0.1s0.2,0.1,0.3,0.2c0,0.1,0.1,0.1,0.1,0.2V108.9z"/>
	<polygon class="st9" points="976.4,96.4 974.1,103.2 978.6,103.2 	"/>
</g>
<g>
	<path class="st9" d="M1276.6,71c-16.4,0-29.8,13.3-29.8,29.8s13.3,29.8,29.8,29.8c16.4,0,29.8-13.3,29.8-29.8S1293,71,1276.6,71z
		 M1281.3,109.3c-0.1,0.1-0.3,0.1-0.5,0.2c-0.2,0-0.5,0-1,0c-0.4,0-0.7,0-1,0c-0.2,0-0.4,0-0.5-0.1c-0.1,0-0.2-0.1-0.3-0.2
		c0-0.1-0.1-0.2-0.1-0.3l-1.1-3.2h-6l-1,3.1c0,0.1-0.1,0.2-0.1,0.3c-0.1,0.1-0.1,0.1-0.3,0.2c-0.1,0-0.3,0.1-0.5,0.1s-0.5,0-0.9,0
		s-0.7,0-0.9,0c-0.2,0-0.4-0.1-0.4-0.2c-0.1-0.1-0.1-0.2-0.1-0.4c0-0.2,0.1-0.4,0.2-0.7l4.9-14.2c0-0.1,0.1-0.3,0.2-0.3
		c0.1-0.1,0.2-0.2,0.3-0.2c0.1,0,0.3-0.1,0.6-0.1s0.6,0,1,0c0.5,0,0.9,0,1.2,0c0.3,0,0.5,0,0.7,0.1c0.2,0,0.3,0.1,0.3,0.2
		c0.1,0.1,0.1,0.2,0.2,0.4l5,14.2c0.1,0.3,0.2,0.5,0.2,0.7C1281.5,109,1281.4,109.2,1281.3,109.3z M1286.4,108.9
		c0,0.1,0,0.2-0.1,0.2c-0.1,0.1-0.1,0.1-0.3,0.2c-0.1,0-0.3,0.1-0.5,0.1s-0.4,0-0.8,0c-0.3,0-0.6,0-0.8,0c-0.2,0-0.4-0.1-0.5-0.1
		s-0.2-0.1-0.3-0.2c0-0.1-0.1-0.1-0.1-0.2V92.7c0-0.1,0-0.2,0.1-0.2c0-0.1,0.1-0.1,0.3-0.2c0.1,0,0.3-0.1,0.5-0.1s0.5,0,0.8,0
		s0.6,0,0.8,0c0.2,0,0.4,0.1,0.5,0.1s0.2,0.1,0.3,0.2c0,0.1,0.1,0.1,0.1,0.2V108.9z"/>
	<polygon class="st9" points="1273.9,96.4 1271.6,103.2 1276.2,103.2 	"/>
</g>
<g>
	<path class="st9" d="M1276.6,368.7c-16.4,0-29.8,13.3-29.8,29.8c0,16.4,13.3,29.8,29.8,29.8c16.4,0,29.8-13.3,29.8-29.8
		C1306.3,382,1293,368.7,1276.6,368.7z M1281.3,406.9c-0.1,0.1-0.3,0.1-0.5,0.2c-0.2,0-0.5,0-1,0c-0.4,0-0.7,0-1,0
		c-0.2,0-0.4,0-0.5-0.1c-0.1,0-0.2-0.1-0.3-0.2c0-0.1-0.1-0.2-0.1-0.3l-1.1-3.2h-6l-1,3.1c0,0.1-0.1,0.2-0.1,0.3
		c-0.1,0.1-0.1,0.1-0.3,0.2c-0.1,0-0.3,0.1-0.5,0.1s-0.5,0-0.9,0s-0.7,0-0.9,0c-0.2,0-0.4-0.1-0.4-0.2c-0.1-0.1-0.1-0.2-0.1-0.4
		c0-0.2,0.1-0.4,0.2-0.7l4.9-14.2c0-0.1,0.1-0.3,0.2-0.3c0.1-0.1,0.2-0.2,0.3-0.2c0.1,0,0.3-0.1,0.6-0.1c0.3,0,0.6,0,1,0
		c0.5,0,0.9,0,1.2,0c0.3,0,0.5,0,0.7,0.1c0.2,0,0.3,0.1,0.3,0.2c0.1,0.1,0.1,0.2,0.2,0.4l5,14.2c0.1,0.3,0.2,0.5,0.2,0.7
		C1281.5,406.7,1281.4,406.8,1281.3,406.9z M1286.4,406.6c0,0.1,0,0.2-0.1,0.2c-0.1,0.1-0.1,0.1-0.3,0.2c-0.1,0-0.3,0.1-0.5,0.1
		s-0.4,0-0.8,0c-0.3,0-0.6,0-0.8,0c-0.2,0-0.4-0.1-0.5-0.1s-0.2-0.1-0.3-0.2c0-0.1-0.1-0.1-0.1-0.2v-16.3c0-0.1,0-0.2,0.1-0.2
		c0-0.1,0.1-0.1,0.3-0.2c0.1,0,0.3-0.1,0.5-0.1s0.5,0,0.8,0s0.6,0,0.8,0c0.2,0,0.4,0.1,0.5,0.1s0.2,0.1,0.3,0.2
		c0,0.1,0.1,0.1,0.1,0.2V406.6z"/>
	<polygon class="st9" points="1273.9,394.1 1271.6,400.9 1276.2,400.9 	"/>
</g>
</svg>
