<svg id="图层_1" data-name="图层 1" xmlns="http://www.w3.org/2000/svg" viewBox="0 0 566.93 566.93"><defs><style>.cls-1,.cls-2,.cls-3,.cls-4,.cls-5{fill:none;stroke:#231815;stroke-linejoin:round;stroke-width:5px;}.cls-1,.cls-2,.cls-3,.cls-4{stroke-linecap:round;}.cls-2{stroke-dasharray:12.42 24.84;}.cls-3{stroke-dasharray:11.93 23.85;}.cls-4{stroke-dasharray:12.41 24.83;}.cls-6{fill:#fff;}.cls-7,.cls-8{fill:#315288;}.cls-7{opacity:0.3;}</style></defs><title>gamma</title><line class="cls-1" x1="227.7" y1="80.94" x2="227.7" y2="86.94"/><line class="cls-2" x1="227.7" y1="111.78" x2="227.7" y2="360.19"/><polyline class="cls-1" points="227.7 372.61 227.7 378.61 222.5 381.61"/><line class="cls-3" x1="201.84" y1="393.54" x2="57.24" y2="477.03"/><line class="cls-1" x1="46.91" y1="482.99" x2="41.71" y2="485.99"/><line class="cls-1" x1="227.7" y1="378.61" x2="233.7" y2="378.61"/><line class="cls-4" x1="258.52" y1="378.61" x2="506.81" y2="378.61"/><line class="cls-1" x1="519.22" y1="378.61" x2="525.22" y2="378.61"/><polygon class="cls-5" points="525.22 80.94 525.22 378.61 339.23 485.99 41.71 485.99 41.71 188.32 227.7 80.94 525.22 80.94"/><polyline class="cls-5" points="41.71 188.32 339.23 188.32 525.22 80.94"/><circle class="cls-6" cx="227.7" cy="379.06" r="28.35"/><path class="cls-7" d="M227.7,350.71A28.35,28.35,0,1,0,256,379.06,28.28,28.28,0,0,0,227.7,350.71Zm3.35,35.65a.82.82,0,0,1-.09.5,1.32,1.32,0,0,1-.3.39.76.76,0,0,1-.4.2c-.19,0-.29.1-.49.1h-1.38a1.88,1.88,0,0,1-.79-.1l-.6-.3a2.6,2.6,0,0,1-.49-.59,7.84,7.84,0,0,1-.59-1l-4-7.6c-.2-.5-.5-1-.69-1.48s-.5-1-.69-1.48h0c0,.59.09,1.18.09,1.77v10.37c0,.1,0,.2-.09.2s-.1.1-.2.2a.75.75,0,0,1-.5.1h-1.48c-.19,0-.29-.1-.49-.1a.22.22,0,0,1-.2-.2c0-.1-.1-.1-.1-.2V372.54a1.06,1.06,0,0,1,1.19-1.19h1.78a1.92,1.92,0,0,1,.79.1c.19.1.39.1.59.3s.29.29.49.49a5.43,5.43,0,0,1,.5.79L226,379c.19.39.39.69.59,1.08a5.23,5.23,0,0,1,.49,1.09,3.18,3.18,0,0,0,.5,1c.19.29.29.69.49,1h0a12.36,12.36,0,0,0-.1-1.87v-9.38c0-.1,0-.2.1-.2a.77.77,0,0,1,.3-.2.85.85,0,0,1,.49-.1h1.48c.2,0,.3.1.5.1s.19.1.19.2.1.1.1.2v14.51Zm6.52.79c0,.1,0,.2-.1.2a.8.8,0,0,1-.29.2,4.33,4.33,0,0,1-.5.1H235.1a4.55,4.55,0,0,1-.49-.1c-.1,0-.2-.1-.3-.2s-.1-.1-.1-.2V376c0-.1,0-.19.1-.19a.77.77,0,0,1,.3-.2,4.55,4.55,0,0,1,.49-.1h1.58a4.33,4.33,0,0,1,.5.1c.1,0,.19.1.29.2s.1.09.1.19Zm-.2-13.72a2.46,2.46,0,0,1-1.48.39,2.08,2.08,0,0,1-1.48-.39,1.72,1.72,0,0,1-.39-1.29,1.56,1.56,0,0,1,.39-1.28,2.4,2.4,0,0,1,1.48-.4c.69,0,1.19.1,1.39.4a1.56,1.56,0,0,1,.39,1.28A1.28,1.28,0,0,1,237.37,373.43Z"/><circle class="cls-6" cx="283.46" cy="432.52" r="31.89"/><path class="cls-7" d="M283.46,400.63a31.89,31.89,0,1,0,31.89,31.89A31.83,31.83,0,0,0,283.46,400.63Zm3.78,40.11a.84.84,0,0,1-.11.56,1.52,1.52,0,0,1-.33.44.81.81,0,0,1-.45.23c-.22,0-.33.11-.55.11h-1.56a2.22,2.22,0,0,1-.89-.11l-.66-.34a2.73,2.73,0,0,1-.56-.66c-.22-.34-.44-.67-.67-1.11l-4.55-8.56c-.22-.56-.56-1.11-.78-1.67s-.55-1.11-.78-1.66h0c0,.66.11,1.33.11,2v11.66c0,.11,0,.23-.11.23s-.11.11-.22.22a.82.82,0,0,1-.55.11h-1.67c-.22,0-.33-.11-.56-.11a.24.24,0,0,1-.22-.22c0-.12-.11-.12-.11-.23V425.19a1.35,1.35,0,0,1,.33-1,1.39,1.39,0,0,1,1-.33h2a2.17,2.17,0,0,1,.89.11c.22.11.45.11.67.33s.33.33.55.56a5.36,5.36,0,0,1,.56.88l3.56,6.67c.22.45.44.78.66,1.22a6.1,6.1,0,0,1,.56,1.23,3.6,3.6,0,0,0,.55,1.11c.23.33.34.77.56,1.11h0a14.22,14.22,0,0,0-.11-2.11V424.41c0-.11,0-.22.11-.22a.85.85,0,0,1,.33-.22,1,1,0,0,1,.56-.11h1.66c.23,0,.34.11.56.11s.22.11.22.22.11.11.11.22v16.33Zm7.34.89c0,.11,0,.23-.12.23a.85.85,0,0,1-.33.22,4.76,4.76,0,0,1-.55.11H291.8a5,5,0,0,1-.56-.11c-.11,0-.22-.11-.33-.22s-.11-.12-.11-.23V429.08c0-.11,0-.22.11-.22a.75.75,0,0,1,.33-.23,5,5,0,0,1,.56-.11h1.78a4.76,4.76,0,0,1,.55.11c.11,0,.22.11.33.23s.12.11.12.22Zm-.23-15.44a2.71,2.71,0,0,1-1.66.44,2.32,2.32,0,0,1-1.67-.44,1.9,1.9,0,0,1-.44-1.45c0-.66.11-1.22.44-1.44a2.75,2.75,0,0,1,1.67-.44c.77,0,1.33.11,1.55.44s.45.78.45,1.44S294.69,426,294.35,426.19Z"/><circle class="cls-6" cx="376.46" cy="229.78" r="28.35"/><path class="cls-7" d="M376.46,201.43a28.35,28.35,0,1,0,28.34,28.35A28.28,28.28,0,0,0,376.46,201.43Zm3.36,35.65a.75.75,0,0,1-.1.5,1.32,1.32,0,0,1-.3.39.77.77,0,0,1-.39.2c-.2,0-.3.1-.5.1h-1.38a1.9,1.9,0,0,1-.79-.1l-.59-.3a2.42,2.42,0,0,1-.5-.59,7.84,7.84,0,0,1-.59-1l-4.05-7.6c-.2-.5-.49-1-.69-1.48s-.5-1-.69-1.48h0c0,.59.1,1.18.1,1.77v10.37c0,.1,0,.2-.1.2s-.1.1-.2.2a.73.73,0,0,1-.49.1h-1.49c-.19,0-.29-.1-.49-.1a.22.22,0,0,1-.2-.2c0-.1-.1-.1-.1-.2V223.26a1.06,1.06,0,0,1,1.19-1.19h1.78a1.92,1.92,0,0,1,.79.1c.19.1.39.1.59.3s.3.29.49.49a5.43,5.43,0,0,1,.5.79l3.16,5.93c.2.39.39.69.59,1.08a4.76,4.76,0,0,1,.49,1.09,3.18,3.18,0,0,0,.5,1c.2.29.29.69.49,1h0a12.36,12.36,0,0,0-.1-1.87v-9.38c0-.1,0-.2.1-.2a.77.77,0,0,1,.3-.2.88.88,0,0,1,.49-.1h1.48c.2,0,.3.1.5.1s.2.1.2.2.09.1.09.2v14.51Zm6.51.79c0,.1,0,.2-.09.2a.77.77,0,0,1-.3.2,4.55,4.55,0,0,1-.49.1h-1.59a4.55,4.55,0,0,1-.49-.1c-.1,0-.2-.1-.3-.2s-.09-.1-.09-.2V226.71c0-.1,0-.19.09-.19a.77.77,0,0,1,.3-.2,4.55,4.55,0,0,1,.49-.1h1.59a4.55,4.55,0,0,1,.49.1c.1,0,.2.1.3.2s.09.09.09.19Zm-.19-13.72a2.48,2.48,0,0,1-1.48.39,2.1,2.1,0,0,1-1.49-.39,1.72,1.72,0,0,1-.39-1.29c0-.59.1-1.09.39-1.28a2.42,2.42,0,0,1,1.49-.4c.69,0,1.18.1,1.38.4s.39.69.39,1.28A1.31,1.31,0,0,1,386.14,224.15Z"/><line class="cls-5" x1="339.23" y1="188.32" x2="339.23" y2="485.99"/><circle class="cls-6" cx="41.71" cy="188.32" r="35.43"/><path class="cls-8" d="M41.71,152.89a35.43,35.43,0,1,0,35.43,35.43A35.35,35.35,0,0,0,41.71,152.89Zm4.2,44.56c0,.25,0,.5-.13.62a1.62,1.62,0,0,1-.37.5.94.94,0,0,1-.49.24c-.25,0-.37.13-.62.13H42.57a2.24,2.24,0,0,1-1-.13l-.74-.37a2.94,2.94,0,0,1-.62-.74,9.74,9.74,0,0,1-.74-1.23L34.43,187c-.25-.62-.62-1.23-.87-1.85s-.62-1.24-.86-1.85h0c0,.74.12,1.48.12,2.22v13c0,.13,0,.25-.12.25s-.13.12-.25.25a1,1,0,0,1-.62.12H30c-.25,0-.37-.12-.62-.12a.27.27,0,0,1-.24-.25c0-.12-.13-.12-.13-.25V180.17a1.55,1.55,0,0,1,.37-1.11,1.51,1.51,0,0,1,1.12-.37H32.7a2.49,2.49,0,0,1,1,.12c.24.13.49.13.74.37s.37.37.61.62a7.12,7.12,0,0,1,.62,1l4,7.4c.25.5.5.87.74,1.36a6.54,6.54,0,0,1,.62,1.36,3.8,3.8,0,0,0,.62,1.24c.24.37.37.86.61,1.23h0a16.29,16.29,0,0,0-.12-2.35V179.31c0-.13,0-.25.12-.25a1.22,1.22,0,0,1,.37-.25,1.15,1.15,0,0,1,.62-.12H45c.25,0,.37.12.62.12s.25.13.25.25.12.12.12.25v18.14Zm8.15,1c0,.13,0,.25-.13.25a1,1,0,0,1-.37.25,5.26,5.26,0,0,1-.62.12H51a5.72,5.72,0,0,1-.62-.12c-.12,0-.24-.13-.37-.25s-.12-.12-.12-.25V184.49c0-.12,0-.25.12-.25a1.07,1.07,0,0,1,.37-.24,5.33,5.33,0,0,1,.62-.13h2a4.91,4.91,0,0,1,.62.13c.13,0,.25.12.37.24s.13.13.13.25Zm-.25-17.16a3,3,0,0,1-1.85.49,2.55,2.55,0,0,1-1.85-.49,2,2,0,0,1-.5-1.6c0-.74.12-1.36.5-1.61a3,3,0,0,1,1.85-.49c.86,0,1.48.12,1.73.49s.49.87.49,1.61S54.18,181,53.81,181.28Z"/><circle class="cls-6" cx="41.71" cy="485.99" r="35.43"/><path class="cls-8" d="M41.71,450.56A35.43,35.43,0,1,0,77.14,486,35.35,35.35,0,0,0,41.71,450.56Zm4.2,44.57c0,.24,0,.49-.13.61a1.62,1.62,0,0,1-.37.5.94.94,0,0,1-.49.24c-.25,0-.37.13-.62.13H42.57a2.24,2.24,0,0,1-1-.13l-.74-.37a2.94,2.94,0,0,1-.62-.74,9.74,9.74,0,0,1-.74-1.23l-5.06-9.51c-.25-.62-.62-1.23-.87-1.85s-.62-1.23-.86-1.85h0c0,.74.12,1.48.12,2.22v13c0,.13,0,.25-.12.25s-.13.12-.25.25a1,1,0,0,1-.62.12H30c-.25,0-.37-.12-.62-.12a.27.27,0,0,1-.24-.25c0-.12-.13-.12-.13-.25V477.84a1.55,1.55,0,0,1,.37-1.11,1.51,1.51,0,0,1,1.12-.37H32.7a2.49,2.49,0,0,1,1,.12c.24.13.49.13.74.37s.37.37.61.62a7.12,7.12,0,0,1,.62,1l4,7.41c.25.49.5.86.74,1.35a6.54,6.54,0,0,1,.62,1.36,3.7,3.7,0,0,0,.62,1.24c.24.37.37.86.61,1.23h0a16.09,16.09,0,0,0-.12-2.34V477c0-.13,0-.25.12-.25a1.22,1.22,0,0,1,.37-.25,1.15,1.15,0,0,1,.62-.12H45c.25,0,.37.12.62.12s.25.13.25.25.12.12.12.25v18.15Zm8.15,1c0,.13,0,.25-.13.25a1,1,0,0,1-.37.25,5.26,5.26,0,0,1-.62.12H51a5.72,5.72,0,0,1-.62-.12c-.12,0-.24-.13-.37-.25s-.12-.12-.12-.25V482.16c0-.12,0-.24.12-.24a1,1,0,0,1,.37-.25,5.72,5.72,0,0,1,.62-.12h2a5.26,5.26,0,0,1,.62.12c.13,0,.25.12.37.25s.13.12.13.24ZM53.81,479a3,3,0,0,1-1.85.5,2.55,2.55,0,0,1-1.85-.5,2,2,0,0,1-.5-1.6c0-.74.12-1.36.5-1.61a3.07,3.07,0,0,1,1.85-.49c.86,0,1.48.12,1.73.49s.49.87.49,1.61S54.18,478.71,53.81,479Z"/><circle class="cls-6" cx="339.23" cy="188.32" r="35.43"/><path class="cls-8" d="M339.23,152.89a35.43,35.43,0,1,0,35.44,35.43A35.35,35.35,0,0,0,339.23,152.89Zm4.2,44.56a1,1,0,0,1-.12.62,2,2,0,0,1-.37.5,1,1,0,0,1-.5.24c-.24,0-.37.13-.61.13H340.1a2.31,2.31,0,0,1-1-.13l-.74-.37a3.17,3.17,0,0,1-.62-.74,12.86,12.86,0,0,1-.74-1.23L332,187c-.25-.62-.62-1.23-.86-1.85s-.62-1.24-.87-1.85h0c0,.74.12,1.48.12,2.22v13c0,.13,0,.25-.12.25s-.12.12-.25.25a.93.93,0,0,1-.61.12H327.5c-.24,0-.37-.12-.61-.12a.27.27,0,0,1-.25-.25c0-.12-.12-.12-.12-.25V180.17a1.5,1.5,0,0,1,.37-1.11,1.47,1.47,0,0,1,1.11-.37h2.22a2.49,2.49,0,0,1,1,.12c.25.13.49.13.74.37s.37.37.62.62a7.14,7.14,0,0,1,.61,1l3.95,7.4c.25.5.5.87.75,1.36a7,7,0,0,1,.61,1.36,4,4,0,0,0,.62,1.24c.25.37.37.86.62,1.23h0a15.05,15.05,0,0,0-.13-2.35V179.31c0-.13,0-.25.13-.25a1,1,0,0,1,.37-.25,1.12,1.12,0,0,1,.61-.12h1.86c.24,0,.37.12.61.12s.25.13.25.25.12.12.12.25v18.14Zm8.15,1c0,.13,0,.25-.12.25a1.22,1.22,0,0,1-.37.25,5.72,5.72,0,0,1-.62.12h-2a5.45,5.45,0,0,1-.61-.12c-.13,0-.25-.13-.37-.25s-.13-.12-.13-.25V184.49c0-.12,0-.25.13-.25a.9.9,0,0,1,.37-.24,5.09,5.09,0,0,1,.61-.13h2a5.33,5.33,0,0,1,.62.13c.12,0,.24.12.37.24s.12.13.12.25Zm-.25-17.16a3,3,0,0,1-1.85.49,2.57,2.57,0,0,1-1.85-.49,2.09,2.09,0,0,1-.5-1.6,2,2,0,0,1,.5-1.61,3,3,0,0,1,1.85-.49c.86,0,1.48.12,1.73.49s.49.87.49,1.61A1.58,1.58,0,0,1,351.33,181.28Z"/><circle class="cls-6" cx="227.7" cy="80.94" r="28.35"/><path class="cls-8" d="M227.7,52.59A28.35,28.35,0,1,0,256,80.94,28.29,28.29,0,0,0,227.7,52.59Zm3.35,35.66a.78.78,0,0,1-.09.49,1.38,1.38,0,0,1-.3.4.74.74,0,0,1-.4.19c-.19,0-.29.1-.49.1h-1.38a1.88,1.88,0,0,1-.79-.1L227,89a3.12,3.12,0,0,1-.49-.59,9.59,9.59,0,0,1-.59-1l-4-7.61c-.2-.49-.5-1-.69-1.48s-.5-1-.69-1.48h0c0,.59.09,1.19.09,1.78V89c0,.1,0,.2-.09.2s-.1.09-.2.19a.75.75,0,0,1-.5.1h-1.48c-.19,0-.29-.1-.49-.1a.21.21,0,0,1-.2-.19c0-.1-.1-.1-.1-.2V74.42a1.21,1.21,0,0,1,.3-.89,1.19,1.19,0,0,1,.89-.29h1.78a2.12,2.12,0,0,1,.79.09c.19.1.39.1.59.3s.29.3.49.49a6,6,0,0,1,.5.79L226,80.84c.19.4.39.69.59,1.09A5.16,5.16,0,0,1,227.1,83a3.07,3.07,0,0,0,.5,1c.19.3.29.69.49,1h0a12.49,12.49,0,0,0-.1-1.88V73.73c0-.1,0-.2.1-.2a.77.77,0,0,1,.3-.2.93.93,0,0,1,.49-.09h1.48c.2,0,.3.09.5.09s.19.1.19.2.1.1.1.2V88.25Zm6.52.79c0,.1,0,.2-.1.2a1,1,0,0,1-.29.19,4.33,4.33,0,0,1-.5.1H235.1a4.55,4.55,0,0,1-.49-.1c-.1,0-.2-.1-.3-.19s-.1-.1-.1-.2V77.88c0-.1,0-.2.1-.2a.77.77,0,0,1,.3-.2,4.55,4.55,0,0,1,.49-.1h1.58a4.33,4.33,0,0,1,.5.1c.1,0,.19.1.29.2s.1.1.1.2Zm-.2-13.73a2.39,2.39,0,0,1-1.48.39,2,2,0,0,1-1.48-.39A1.7,1.7,0,0,1,234,74c0-.6.1-1.09.39-1.29a2.41,2.41,0,0,1,1.48-.39c.69,0,1.19.1,1.39.39s.39.69.39,1.29A1.27,1.27,0,0,1,237.37,75.31Z"/><circle class="cls-6" cx="525.22" cy="80.94" r="28.35"/><path class="cls-8" d="M525.22,52.59a28.35,28.35,0,1,0,28.35,28.35A28.29,28.29,0,0,0,525.22,52.59Zm3.36,35.66a.72.72,0,0,1-.1.49,1.38,1.38,0,0,1-.3.4.71.71,0,0,1-.39.19c-.2,0-.3.1-.5.1h-1.38a1.9,1.9,0,0,1-.79-.1l-.59-.29a2.85,2.85,0,0,1-.5-.59c-.19-.3-.39-.6-.59-1l-4.05-7.61c-.2-.49-.49-1-.69-1.48s-.49-1-.69-1.48h0c0,.59.1,1.19.1,1.78V89c0,.1,0,.2-.1.2s-.1.09-.2.19a.72.72,0,0,1-.49.1h-1.48c-.2,0-.3-.1-.5-.1a.21.21,0,0,1-.2-.19c0-.1-.09-.1-.09-.2V74.42a1,1,0,0,1,1.18-1.18H518a2.1,2.1,0,0,1,.79.09c.2.1.39.1.59.3s.3.3.5.49a7.37,7.37,0,0,1,.49.79l3.16,5.93c.2.4.4.69.59,1.09a5.22,5.22,0,0,1,.5,1.08,3.06,3.06,0,0,0,.49,1c.2.3.3.69.49,1h0a13.87,13.87,0,0,0-.09-1.88V73.73c0-.1,0-.2.09-.2a.77.77,0,0,1,.3-.2,1,1,0,0,1,.49-.09h1.49c.19,0,.29.09.49.09s.2.1.2.2.1.1.1.2V88.25Zm6.52.79c0,.1,0,.2-.1.2a.91.91,0,0,1-.3.19,4.55,4.55,0,0,1-.49.1h-1.58a4.33,4.33,0,0,1-.5-.1c-.1,0-.19-.1-.29-.19s-.1-.1-.1-.2V77.88c0-.1,0-.2.1-.2a.8.8,0,0,1,.29-.2,4.33,4.33,0,0,1,.5-.1h1.58a4.55,4.55,0,0,1,.49.1c.1,0,.2.1.3.2s.1.1.1.2Zm-.2-13.73a2.41,2.41,0,0,1-1.48.39,2,2,0,0,1-1.48-.39,1.66,1.66,0,0,1-.4-1.28c0-.6.1-1.09.4-1.29a2.39,2.39,0,0,1,1.48-.39c.69,0,1.18.1,1.38.39s.39.69.39,1.29A1.29,1.29,0,0,1,534.9,75.31Z"/><circle class="cls-6" cx="525.22" cy="378.61" r="28.35"/><path class="cls-8" d="M525.22,350.26a28.35,28.35,0,1,0,28.35,28.35A28.29,28.29,0,0,0,525.22,350.26Zm3.36,35.66a.72.72,0,0,1-.1.49,1.38,1.38,0,0,1-.3.4.73.73,0,0,1-.39.2c-.2,0-.3.09-.5.09h-1.38a2.1,2.1,0,0,1-.79-.09l-.59-.3a2.85,2.85,0,0,1-.5-.59c-.19-.3-.39-.6-.59-1l-4.05-7.61c-.2-.49-.49-1-.69-1.48s-.49-1-.69-1.48h0c0,.59.1,1.19.1,1.78v10.37c0,.1,0,.2-.1.2s-.1.1-.2.19a.72.72,0,0,1-.49.1h-1.48c-.2,0-.3-.1-.5-.1a.21.21,0,0,1-.2-.19c0-.1-.09-.1-.09-.2V372.09a1.21,1.21,0,0,1,.29-.89,1.25,1.25,0,0,1,.89-.29H518a1.9,1.9,0,0,1,.79.1,1.47,1.47,0,0,1,.59.29c.2.1.3.3.5.5a5.79,5.79,0,0,1,.49.79l3.16,5.92c.2.4.4.69.59,1.09a5.22,5.22,0,0,1,.5,1.08,3,3,0,0,0,.49,1c.2.3.3.69.49,1h0a13.94,13.94,0,0,0-.09-1.88V371.4c0-.1,0-.2.09-.2a.67.67,0,0,1,.3-.19.88.88,0,0,1,.49-.1h1.49c.19,0,.29.1.49.1s.2.09.2.19.1.1.1.2v14.52Zm6.52.79c0,.1,0,.2-.1.2a.67.67,0,0,1-.3.19,4.55,4.55,0,0,1-.49.1h-1.58a4.33,4.33,0,0,1-.5-.1c-.1,0-.19-.09-.29-.19s-.1-.1-.1-.2V375.55c0-.1,0-.2.1-.2a.8.8,0,0,1,.29-.2,4.76,4.76,0,0,1,.5-.09h1.58c.19,0,.39.09.49.09s.2.1.3.2.1.1.1.2ZM534.9,373a2.4,2.4,0,0,1-1.48.4,2,2,0,0,1-1.48-.4,1.66,1.66,0,0,1-.4-1.28c0-.6.1-1.09.4-1.29a2.46,2.46,0,0,1,1.48-.39c.69,0,1.18.1,1.38.39s.39.69.39,1.29A1.29,1.29,0,0,1,534.9,373Z"/><circle class="cls-6" cx="432.23" cy="283.18" r="31.89"/><path class="cls-8" d="M432.23,251.29a31.89,31.89,0,1,0,31.89,31.89A31.82,31.82,0,0,0,432.23,251.29ZM436,291.4a.84.84,0,0,1-.11.56,1.52,1.52,0,0,1-.33.44.79.79,0,0,1-.44.23c-.23,0-.34.11-.56.11H433a2.14,2.14,0,0,1-.88-.11l-.67-.34a3,3,0,0,1-.56-.66,10.86,10.86,0,0,1-.66-1.11L425.67,282c-.22-.56-.56-1.11-.78-1.67s-.55-1.11-.78-1.66h0c0,.66.12,1.33.12,2v11.66c0,.11,0,.23-.12.23s-.11.11-.22.22a.82.82,0,0,1-.55.11h-1.67c-.22,0-.33-.11-.56-.11a.24.24,0,0,1-.22-.22c0-.12-.11-.12-.11-.23V275.85a1.35,1.35,0,0,1,.33-1,1.39,1.39,0,0,1,1-.33h2a2.17,2.17,0,0,1,.89.11c.23.11.45.11.67.33s.33.33.56.56a6.14,6.14,0,0,1,.55.88l3.56,6.67c.22.45.44.78.66,1.22a5.59,5.59,0,0,1,.56,1.23,3.41,3.41,0,0,0,.56,1.11c.22.33.33.77.55,1.11h0a14.22,14.22,0,0,0-.11-2.11V275.07c0-.11,0-.22.11-.22a.85.85,0,0,1,.33-.22,1,1,0,0,1,.56-.11h1.67c.22,0,.33.11.55.11s.22.11.22.22.12.11.12.22V291.4Zm7.34.89c0,.11,0,.23-.11.23a.82.82,0,0,1-.34.22,4.76,4.76,0,0,1-.55.11h-1.78a5.54,5.54,0,0,1-.56-.11c-.11,0-.22-.11-.33-.22s-.11-.12-.11-.23V279.74c0-.11,0-.22.11-.22a.75.75,0,0,1,.33-.23,5.54,5.54,0,0,1,.56-.11h1.78a4.76,4.76,0,0,1,.55.11c.11,0,.23.11.34.23s.11.11.11.22Zm-.22-15.44a2.77,2.77,0,0,1-1.67.44,2.34,2.34,0,0,1-1.67-.44,1.9,1.9,0,0,1-.44-1.45c0-.66.11-1.22.44-1.44a2.77,2.77,0,0,1,1.67-.44c.78,0,1.33.11,1.55.44s.45.78.45,1.44S443.45,276.63,443.12,276.85Z"/><circle class="cls-6" cx="283.46" cy="134.63" r="31.89"/><path class="cls-8" d="M283.46,102.74a31.89,31.89,0,1,0,31.89,31.89A31.82,31.82,0,0,0,283.46,102.74Zm3.78,40.11a.85.85,0,0,1-.11.56,1.52,1.52,0,0,1-.33.44.86.86,0,0,1-.45.22c-.22,0-.33.11-.55.11h-1.56a2.22,2.22,0,0,1-.89-.11l-.66-.33a2.59,2.59,0,0,1-.56-.67,10.45,10.45,0,0,1-.67-1.11l-4.55-8.55c-.22-.56-.56-1.11-.78-1.67s-.55-1.11-.78-1.67h0c0,.67.11,1.34.11,2v11.67c0,.11,0,.22-.11.22s-.11.11-.22.22-.33.12-.55.12h-1.67c-.22,0-.33-.12-.56-.12a.24.24,0,0,1-.22-.22c0-.11-.11-.11-.11-.22V127.3a1.18,1.18,0,0,1,1.33-1.34h2a2.17,2.17,0,0,1,.89.11c.22.11.45.11.67.34s.33.33.55.55a5.49,5.49,0,0,1,.56.89l3.56,6.67c.22.44.44.78.66,1.22a6,6,0,0,1,.56,1.22,3.39,3.39,0,0,0,.55,1.11c.23.34.34.78.56,1.11h0a14.35,14.35,0,0,0-.11-2.11V126.52c0-.11,0-.22.11-.22a.75.75,0,0,1,.33-.23,1,1,0,0,1,.56-.11h1.66c.23,0,.34.11.56.11s.22.11.22.23.11.11.11.22v16.33Zm7.34.89c0,.11,0,.22-.12.22a.85.85,0,0,1-.33.22,4.42,4.42,0,0,1-.55.12H291.8a4.65,4.65,0,0,1-.56-.12c-.11,0-.22-.11-.33-.22s-.11-.11-.11-.22V131.18c0-.11,0-.22.11-.22a.85.85,0,0,1,.33-.22,5,5,0,0,1,.56-.11h1.78a4.76,4.76,0,0,1,.55.11c.11,0,.22.11.33.22s.12.11.12.22Zm-.23-15.44a2.71,2.71,0,0,1-1.66.44,2.32,2.32,0,0,1-1.67-.44,1.92,1.92,0,0,1-.44-1.45c0-.67.11-1.22.44-1.44a2.67,2.67,0,0,1,1.67-.45c.77,0,1.33.11,1.55.45s.45.77.45,1.44S294.69,128.07,294.35,128.3Z"/><circle class="cls-6" cx="134.7" cy="283.18" r="31.89"/><path class="cls-7" d="M134.7,251.29a31.89,31.89,0,1,0,31.89,31.89A31.83,31.83,0,0,0,134.7,251.29Zm3.78,40.11a.84.84,0,0,1-.11.56,1.52,1.52,0,0,1-.33.44.81.81,0,0,1-.45.23c-.22,0-.33.11-.55.11h-1.56a2.19,2.19,0,0,1-.89-.11l-.66-.34a2.73,2.73,0,0,1-.56-.66c-.22-.34-.44-.67-.67-1.11L128.15,282c-.23-.56-.56-1.11-.78-1.67s-.56-1.11-.78-1.66h0c0,.66.11,1.33.11,2v11.66c0,.11,0,.23-.11.23s-.11.11-.22.22a.84.84,0,0,1-.56.11h-1.66c-.23,0-.34-.11-.56-.11a.24.24,0,0,1-.22-.22c0-.12-.11-.12-.11-.23V275.85a1.35,1.35,0,0,1,.33-1,1.37,1.37,0,0,1,1-.33h2a2.19,2.19,0,0,1,.89.11,2,2,0,0,1,.67.33c.22.11.33.33.55.56a6.12,6.12,0,0,1,.56.88l3.55,6.67c.23.45.45.78.67,1.22a6.1,6.1,0,0,1,.56,1.23,3.6,3.6,0,0,0,.55,1.11c.22.33.34.77.56,1.11h0a14.22,14.22,0,0,0-.11-2.11V275.07c0-.11,0-.22.11-.22a.85.85,0,0,1,.33-.22,1,1,0,0,1,.56-.11h1.66c.23,0,.34.11.56.11s.22.11.22.22.11.11.11.22V291.4Zm7.33.89c0,.11,0,.23-.11.23a.85.85,0,0,1-.33.22,4.59,4.59,0,0,1-.56.11H143a4.59,4.59,0,0,1-.56-.11c-.11,0-.22-.11-.33-.22s-.11-.12-.11-.23V279.74c0-.11,0-.22.11-.22a.75.75,0,0,1,.33-.23,4.59,4.59,0,0,1,.56-.11h1.77a4.59,4.59,0,0,1,.56.11c.11,0,.22.11.33.23s.11.11.11.22Zm-.22-15.44a2.73,2.73,0,0,1-1.66.44,2.32,2.32,0,0,1-1.67-.44,1.9,1.9,0,0,1-.45-1.45,1.74,1.74,0,0,1,.45-1.44,2.75,2.75,0,0,1,1.67-.44c.77,0,1.33.11,1.55.44a1.74,1.74,0,0,1,.45,1.44C146,276.07,145.93,276.63,145.59,276.85Z"/><circle class="cls-6" cx="190.47" cy="337.15" r="35.43"/><path class="cls-8" d="M190.47,301.72a35.44,35.44,0,1,0,35.43,35.43A35.35,35.35,0,0,0,190.47,301.72Zm4.2,44.57a1,1,0,0,1-.12.62,1.94,1.94,0,0,1-.37.49,1,1,0,0,1-.5.25c-.25,0-.37.12-.62.12h-1.72a2.49,2.49,0,0,1-1-.12l-.74-.37a3.33,3.33,0,0,1-.62-.74,10.41,10.41,0,0,1-.74-1.24l-5.06-9.5c-.25-.62-.62-1.24-.87-1.86s-.61-1.23-.86-1.85h0c0,.74.12,1.48.12,2.22v13c0,.12,0,.24-.12.24s-.12.13-.25.25-.37.13-.62.13h-1.85c-.24,0-.37-.13-.61-.13a.26.26,0,0,1-.25-.25c0-.12-.12-.12-.12-.24V329a1.31,1.31,0,0,1,1.48-1.49h2.22a2.31,2.31,0,0,1,1,.13c.24.12.49.12.74.37s.37.37.61.62a5.74,5.74,0,0,1,.62,1l4,7.41c.25.49.5.86.74,1.36a6.1,6.1,0,0,1,.62,1.36,3.75,3.75,0,0,0,.62,1.23c.25.37.37.87.62,1.24h0a15,15,0,0,0-.13-2.35V328.14c0-.12,0-.25.13-.25a.9.9,0,0,1,.37-.24,1,1,0,0,1,.61-.13h1.86c.24,0,.37.13.61.13s.25.12.25.24.12.13.12.25v18.15Zm8.15,1c0,.12,0,.24-.13.24a.81.81,0,0,1-.37.25,5.09,5.09,0,0,1-.61.13h-2a5.33,5.33,0,0,1-.62-.13c-.12,0-.24-.12-.37-.25s-.12-.12-.12-.24V333.33c0-.13,0-.25.12-.25a1.22,1.22,0,0,1,.37-.25,5.72,5.72,0,0,1,.62-.12h2a5.45,5.45,0,0,1,.61.12c.13,0,.25.13.37.25s.13.12.13.25Zm-.25-17.16a3.07,3.07,0,0,1-1.85.49,2.55,2.55,0,0,1-1.85-.49,2.11,2.11,0,0,1-.5-1.61c0-.74.13-1.36.5-1.6a3,3,0,0,1,1.85-.5c.86,0,1.48.13,1.73.5s.49.86.49,1.6A1.62,1.62,0,0,1,202.57,330.12Z"/><circle class="cls-6" cx="339.23" cy="485.99" r="35.43"/><path class="cls-8" d="M339.23,450.56A35.43,35.43,0,1,0,374.67,486,35.35,35.35,0,0,0,339.23,450.56Zm4.2,44.57a.93.93,0,0,1-.12.61,2,2,0,0,1-.37.5,1,1,0,0,1-.5.24c-.24,0-.37.13-.61.13H340.1a2.31,2.31,0,0,1-1-.13l-.74-.37a3.17,3.17,0,0,1-.62-.74,12.86,12.86,0,0,1-.74-1.23L332,484.63c-.25-.62-.62-1.23-.86-1.85s-.62-1.23-.87-1.85h0c0,.74.12,1.48.12,2.22v13c0,.13,0,.25-.12.25s-.12.12-.25.25a.93.93,0,0,1-.61.12H327.5c-.24,0-.37-.12-.61-.12a.27.27,0,0,1-.25-.25c0-.12-.12-.12-.12-.25V477.84a1.5,1.5,0,0,1,.37-1.11,1.47,1.47,0,0,1,1.11-.37h2.22a2.49,2.49,0,0,1,1,.12c.25.13.49.13.74.37s.37.37.62.62a7.14,7.14,0,0,1,.61,1l3.95,7.41c.25.49.5.86.75,1.35a7,7,0,0,1,.61,1.36,3.9,3.9,0,0,0,.62,1.24c.25.37.37.86.62,1.23h0a14.87,14.87,0,0,0-.13-2.34V477c0-.13,0-.25.13-.25a1,1,0,0,1,.37-.25,1.12,1.12,0,0,1,.61-.12h1.86c.24,0,.37.12.61.12s.25.13.25.25.12.12.12.25v18.15Zm8.15,1c0,.13,0,.25-.12.25a1.22,1.22,0,0,1-.37.25,5.72,5.72,0,0,1-.62.12h-2a5.45,5.45,0,0,1-.61-.12c-.13,0-.25-.13-.37-.25s-.13-.12-.13-.25V482.16c0-.12,0-.24.13-.24a.81.81,0,0,1,.37-.25,5.45,5.45,0,0,1,.61-.12h2a5.72,5.72,0,0,1,.62.12c.12,0,.24.12.37.25s.12.12.12.24ZM351.33,479a3,3,0,0,1-1.85.5,2.56,2.56,0,0,1-1.85-.5,2.09,2.09,0,0,1-.5-1.6,2,2,0,0,1,.5-1.61,3.07,3.07,0,0,1,1.85-.49c.86,0,1.48.12,1.73.49s.49.87.49,1.61S351.7,478.71,351.33,479Z"/></svg>