<svg id="图层_1" data-name="图层 1" xmlns="http://www.w3.org/2000/svg" viewBox="0 0 1133.86 672.27"><defs><style>.cls-1,.cls-6{fill:none;stroke-miterlimit:10;}.cls-1{stroke:#999899;stroke-width:3px;}.cls-2,.cls-3,.cls-4,.cls-7,.cls-8{isolation:isolate;}.cls-2,.cls-4,.cls-7,.cls-8{font-size:24px;font-family:Calibri-Bold, Calibri;font-weight:700;}.cls-2,.cls-4{fill:#231815;}.cls-4{letter-spacing:-0.01em;}.cls-5,.cls-7,.cls-8{fill:#2f5288;}.cls-6{stroke:#2f5288;stroke-linecap:round;stroke-width:6px;}.cls-8{letter-spacing:-0.08em;}</style></defs><title>lattice-mismatchlattice-mismatch</title><rect class="cls-1" x="211.52" y="35.56" width="779.91" height="541.15" rx="12"/><line class="cls-1" x1="211.52" y1="112.87" x2="991.43" y2="112.87"/><line class="cls-1" x1="211.52" y1="190.18" x2="991.43" y2="190.18"/><line class="cls-1" x1="211.52" y1="267.49" x2="991.43" y2="267.49"/><line class="cls-1" x1="211.52" y1="344.79" x2="991.43" y2="344.79"/><line class="cls-1" x1="211.52" y1="422.1" x2="991.43" y2="422.1"/><line class="cls-1" x1="211.52" y1="499.41" x2="991.43" y2="499.41"/><line class="cls-1" x1="523.49" y1="576.71" x2="523.49" y2="35.56"/><line class="cls-1" x1="601.48" y1="576.71" x2="601.48" y2="35.56"/><line class="cls-1" x1="679.47" y1="576.71" x2="679.47" y2="35.56"/><line class="cls-1" x1="757.46" y1="576.71" x2="757.46" y2="35.56"/><line class="cls-1" x1="835.45" y1="576.71" x2="835.45" y2="35.56"/><line class="cls-1" x1="445.49" y1="576.71" x2="445.49" y2="35.56"/><line class="cls-1" x1="367.5" y1="576.71" x2="367.5" y2="35.56"/><line class="cls-1" x1="289.51" y1="576.71" x2="289.51" y2="35.56"/><line class="cls-1" x1="913.44" y1="576.71" x2="913.44" y2="35.56"/><text class="cls-2" transform="translate(160.49 195.78)">400</text><text class="cls-2" transform="translate(160.49 118.47)">450</text><text class="cls-2" transform="translate(160.49 41.17)">500</text><text class="cls-2" transform="translate(160.49 273.09)">350</text><text class="cls-2" transform="translate(160.49 350.39)">300</text><g class="cls-3"><text class="cls-2" transform="translate(133.61 384.35) rotate(-90)">Ha</text><text class="cls-4" transform="translate(133.61 357.36) rotate(-90)">r</text><text class="cls-2" transform="translate(133.61 349.12) rotate(-90)">dness / DPH</text></g><text class="cls-2" transform="translate(160.49 427.7)">250</text><text class="cls-2" transform="translate(160.49 505.01)">200</text><text class="cls-2" transform="translate(160.49 582.32)">150</text><text class="cls-2" transform="translate(274.14 602.73)">0.1</text><text class="cls-2" transform="translate(352.13 602.73)">0.2</text><text class="cls-2" transform="translate(430.12 602.73)">0.3</text><text class="cls-2" transform="translate(508.12 602.73)">0.4</text><text class="cls-2" transform="translate(586.11 602.73)">0.5</text><text class="cls-2" transform="translate(664.1 602.73)">0.6</text><text class="cls-2" transform="translate(742.09 602.73)">0.7</text><text class="cls-2" transform="translate(820.08 602.73)">0.8</text><text class="cls-2" transform="translate(898.07 602.73)">0.9</text><text class="cls-2" transform="translate(976.06 602.73)">1.0</text><text class="cls-2" transform="translate(205.44 602.73)">0</text><g class="cls-3"><text class="cls-2" transform="translate(446.31 647.33)">Deg</text><text class="cls-4" transform="translate(484.9 647.33)">r</text><text class="cls-2" transform="translate(493.16 647.33)">ee of L</text><text class="cls-4" transform="translate(558.82 647.33)">a</text><text class="cls-2" transform="translate(570.45 647.33)">ttice Mism</text><text class="cls-4" transform="translate(675.44 647.33)">a</text><text class="cls-4" transform="translate(687.06 647.33)">t</text><text class="cls-2" transform="translate(695.06 647.33)">ch / %</text></g><circle class="cls-5" cx="385.75" cy="487.74" r="8.63"/><circle class="cls-5" cx="377.12" cy="430.73" r="8.63"/><circle class="cls-5" cx="469.93" cy="368.94" r="8.63"/><circle class="cls-5" cx="625.8" cy="305.01" r="8.63"/><circle class="cls-5" cx="757.9" cy="242.18" r="8.63"/><circle class="cls-5" cx="831.66" cy="181.55" r="8.63"/><line class="cls-6" x1="367.5" y1="479.11" x2="884.65" y2="169.93"/><text class="cls-7" transform="translate(402.47 495.04)">Ni-Al-Mn</text><text class="cls-7" transform="translate(285.47 438.08)">Ni-Al-Si</text><text class="cls-7" transform="translate(380.23 376.44)">Ni-Al-V</text><text class="cls-7" transform="translate(536.3 311.93)">Ni-Al-C</text><text class="cls-7" transform="translate(650.63 249.1)">Ni-Al-Nb</text><g class="cls-3"><text class="cls-7" transform="translate(728.09 189.61)">Ni-Al-</text><text class="cls-8" transform="translate(784.93 189.61)">T</text><text class="cls-7" transform="translate(794.99 189.61)">a</text></g></svg>