<?xml version="1.0" encoding="utf-8"?>
<!-- Generator: Adobe Illustrator 23.0.0, SVG Export Plug-In . SVG Version: 6.00 Build 0)  -->
<svg version="1.1" id="图层_1" xmlns="http://www.w3.org/2000/svg" xmlns:xlink="http://www.w3.org/1999/xlink" x="0px" y="0px"
	 viewBox="0 0 1026.9 398.9" style="enable-background:new 0 0 1026.9 398.9;" xml:space="preserve">
<style type="text/css">
	.st0{fill:#32558E;}
	.st1{fill:#C4AF9A;}
	.st2{fill:none;stroke:#C4AF9A;stroke-width:5;stroke-miterlimit:10;}	
	#big-g > path{
		animation: layer1 5s linear infinite;
	}
	@keyframes layer1{
		0%{transform: translate(0, 0);}
		100%{transform: translate(130px, 0);}
	}
	#small-g > path{
		animation: layer2 5s linear infinite;
	}
	@keyframes layer2{
		0%{transform: translate(0, 0);}
		50%{transform: translate(65px, -20px);}
		100%{transform: translate(130px, -30px);}
	}
</style>
<title>cold-rolling</title>
<title>cold-rolling</title>
<g id="small-g">
	<path class="st0" d="M558.4,71.4c-15.9,0-28.7,12.8-28.7,28.7s12.8,28.7,28.7,28.7s28.7-12.8,28.7-28.7S574.3,71.4,558.4,71.4z
		 M561.8,107.5c0,0.2,0,0.4-0.1,0.5c-0.1,0.2-0.2,0.3-0.3,0.4s-0.3,0.2-0.4,0.2c-0.2,0-0.3,0.1-0.5,0.1h-1.4c-0.3,0-0.6,0-0.8-0.1
		s-0.4-0.2-0.6-0.3c-0.2-0.2-0.4-0.4-0.5-0.6c-0.2-0.3-0.4-0.6-0.6-1l-4.1-7.7c-0.2-0.5-0.5-1-0.7-1.5s-0.5-1-0.7-1.5l0,0
		c0,0.6,0.1,1.2,0.1,1.8s0,1.2,0,1.9v8.6c0,0.1,0,0.2-0.1,0.2c0,0.1-0.1,0.1-0.2,0.2s-0.3,0.1-0.5,0.1s-0.4,0-0.8,0
		c-0.3,0-0.5,0-0.7,0s-0.3-0.1-0.5-0.1c-0.1,0-0.2-0.1-0.2-0.2s-0.1-0.1-0.1-0.2V93.5c0-0.4,0.1-0.7,0.3-0.9
		c0.2-0.2,0.5-0.3,0.9-0.3h1.8c0.3,0,0.6,0,0.8,0.1s0.4,0.1,0.6,0.3c0.2,0.1,0.3,0.3,0.5,0.5s0.3,0.5,0.5,0.8l3.2,6
		c0.2,0.4,0.4,0.7,0.6,1.1c0.2,0.4,0.4,0.7,0.5,1.1s0.3,0.7,0.5,1s0.3,0.7,0.5,1l0,0c0-0.6,0-1.2-0.1-1.9c0-0.6,0-1.3,0-1.8v-7.7
		c0-0.1,0-0.2,0.1-0.2c0.1-0.1,0.1-0.1,0.3-0.2s0.3-0.1,0.5-0.1s0.4,0,0.8,0c0.3,0,0.5,0,0.7,0s0.3,0.1,0.5,0.1s0.2,0.1,0.2,0.2
		s0.1,0.1,0.1,0.2L561.8,107.5L561.8,107.5z M568.4,108.3c0,0.1,0,0.2-0.1,0.2c-0.1,0.1-0.1,0.1-0.3,0.2c-0.1,0-0.3,0.1-0.5,0.1
		s-0.5,0-0.8,0s-0.6,0-0.8,0s-0.4-0.1-0.5-0.1s-0.2-0.1-0.3-0.2s-0.1-0.1-0.1-0.2V97c0-0.1,0-0.2,0.1-0.2c0.1-0.1,0.1-0.1,0.3-0.2
		c0.1,0,0.3-0.1,0.5-0.1s0.5,0,0.8,0s0.6,0,0.8,0s0.4,0.1,0.5,0.1s0.2,0.1,0.3,0.2s0.1,0.1,0.1,0.2V108.3z M568.2,94.4
		c-0.3,0.2-0.7,0.4-1.5,0.4c-0.7,0-1.2-0.1-1.5-0.4s-0.4-0.7-0.4-1.3s0.1-1.1,0.4-1.3c0.3-0.2,0.7-0.4,1.5-0.4
		c0.7,0,1.2,0.1,1.4,0.4c0.3,0.2,0.4,0.7,0.4,1.3C568.6,93.7,568.5,94.2,568.2,94.4z"/>
</g>
<path class="st0" d="M166.1,202.2c-15.9,0-28.7,12.8-28.7,28.7s12.8,28.7,28.7,28.7s28.7-12.8,28.7-28.7S182,202.2,166.1,202.2z
	 M169.5,238.3c0,0.2,0,0.4-0.1,0.5c-0.1,0.2-0.2,0.3-0.3,0.4c-0.1,0.1-0.3,0.2-0.4,0.2c-0.2,0-0.3,0.1-0.5,0.1h-1.4
	c-0.3,0-0.6,0-0.8-0.1s-0.4-0.2-0.6-0.3c-0.2-0.2-0.4-0.4-0.5-0.6c-0.2-0.3-0.4-0.6-0.6-1l-4.1-7.7c-0.2-0.5-0.5-1-0.7-1.5
	s-0.5-1-0.7-1.5l0,0c0,0.6,0.1,1.2,0.1,1.8s0,1.2,0,1.9v8.6c0,0.1,0,0.2-0.1,0.2c0,0.1-0.1,0.1-0.2,0.2s-0.3,0.1-0.5,0.1
	s-0.4,0-0.8,0c-0.3,0-0.5,0-0.7,0s-0.3-0.1-0.5-0.1c-0.1,0-0.2-0.1-0.2-0.2c0-0.1-0.1-0.1-0.1-0.2v-14.8c0-0.4,0.1-0.7,0.3-0.9
	s0.5-0.3,0.9-0.3h1.8c0.3,0,0.6,0,0.8,0.1s0.4,0.1,0.6,0.3c0.2,0.1,0.3,0.3,0.5,0.5s0.3,0.5,0.5,0.8l3.2,6c0.2,0.4,0.4,0.7,0.6,1.1
	c0.2,0.4,0.4,0.7,0.5,1.1s0.3,0.7,0.5,1s0.3,0.7,0.5,1l0,0c0-0.6,0-1.2-0.1-1.9c0-0.6,0-1.3,0-1.8v-7.7c0-0.1,0-0.2,0.1-0.2
	c0.1-0.1,0.1-0.1,0.3-0.2s0.3-0.1,0.5-0.1s0.4,0,0.8,0c0.3,0,0.5,0,0.7,0s0.3,0.1,0.5,0.1s0.2,0.1,0.2,0.2c0,0.1,0.1,0.1,0.1,0.2
	L169.5,238.3L169.5,238.3z M176.1,239.1c0,0.1,0,0.2-0.1,0.2c-0.1,0.1-0.1,0.1-0.3,0.2c-0.1,0-0.3,0.1-0.5,0.1s-0.5,0-0.8,0
	s-0.6,0-0.8,0s-0.4-0.1-0.5-0.1s-0.2-0.1-0.3-0.2c-0.1-0.1-0.1-0.1-0.1-0.2v-11.3c0-0.1,0-0.2,0.1-0.2c0.1-0.1,0.1-0.1,0.3-0.2
	c0.1,0,0.3-0.1,0.5-0.1s0.5,0,0.8,0s0.6,0,0.8,0s0.4,0.1,0.5,0.1s0.2,0.1,0.3,0.2c0.1,0.1,0.1,0.1,0.1,0.2V239.1z M175.9,225.2
	c-0.3,0.2-0.7,0.4-1.5,0.4c-0.7,0-1.2-0.1-1.5-0.4s-0.4-0.7-0.4-1.3s0.1-1.1,0.4-1.3s0.7-0.4,1.5-0.4c0.7,0,1.2,0.1,1.4,0.4
	c0.3,0.2,0.4,0.7,0.4,1.3C176.3,224.5,176.2,225,175.9,225.2z"/>
<path class="st0" d="M35.4,202.2c-15.9,0-28.7,12.8-28.7,28.7s12.8,28.7,28.7,28.7s28.7-12.8,28.7-28.7S51.3,202.2,35.4,202.2z
	 M38.8,238.3c0,0.2,0,0.4-0.1,0.5c-0.1,0.2-0.2,0.3-0.3,0.4c-0.1,0.1-0.3,0.2-0.4,0.2c-0.2,0-0.3,0.1-0.5,0.1h-1.4
	c-0.3,0-0.6,0-0.8-0.1s-0.4-0.2-0.6-0.3c-0.2-0.2-0.4-0.4-0.5-0.6c-0.2-0.3-0.4-0.6-0.6-1l-4.1-7.7c-0.2-0.5-0.5-1-0.7-1.5
	s-0.5-1-0.7-1.5l0,0c0,0.6,0.1,1.2,0.1,1.8s0,1.2,0,1.9v8.6c0,0.1,0,0.2-0.1,0.2c0,0.1-0.1,0.1-0.2,0.2s-0.3,0.1-0.5,0.1
	s-0.4,0-0.8,0c-0.3,0-0.5,0-0.7,0s-0.3-0.1-0.5-0.1c-0.1,0-0.2-0.1-0.2-0.2c0-0.1-0.1-0.1-0.1-0.2v-14.8c0-0.4,0.1-0.7,0.3-0.9
	c0.2-0.2,0.5-0.3,0.9-0.3h1.8c0.3,0,0.6,0,0.8,0.1c0.2,0.1,0.4,0.1,0.6,0.3c0.2,0.1,0.3,0.3,0.5,0.5s0.3,0.5,0.5,0.8l3.2,6
	c0.2,0.4,0.4,0.7,0.6,1.1c0.2,0.4,0.4,0.7,0.5,1.1s0.3,0.7,0.5,1s0.3,0.7,0.5,1l0,0c0-0.6,0-1.2-0.1-1.9c0-0.6,0-1.3,0-1.8v-7.7
	c0-0.1,0-0.2,0.1-0.2c0.1-0.1,0.1-0.1,0.3-0.2s0.3-0.1,0.5-0.1s0.4,0,0.8,0c0.3,0,0.5,0,0.7,0s0.3,0.1,0.5,0.1s0.2,0.1,0.2,0.2
	c0,0.1,0.1,0.1,0.1,0.2L38.8,238.3L38.8,238.3z M45.4,239.1c0,0.1,0,0.2-0.1,0.2c-0.1,0.1-0.1,0.1-0.3,0.2c-0.1,0-0.3,0.1-0.5,0.1
	s-0.5,0-0.8,0s-0.6,0-0.8,0s-0.4-0.1-0.5-0.1s-0.2-0.1-0.3-0.2c-0.1-0.1-0.1-0.1-0.1-0.2v-11.3c0-0.1,0-0.2,0.1-0.2
	c0.1-0.1,0.1-0.1,0.3-0.2c0.1,0,0.3-0.1,0.5-0.1s0.5,0,0.8,0s0.6,0,0.8,0s0.4,0.1,0.5,0.1s0.2,0.1,0.3,0.2c0.1,0.1,0.1,0.1,0.1,0.2
	V239.1z M45.2,225.2c-0.3,0.2-0.7,0.4-1.5,0.4c-0.7,0-1.2-0.1-1.5-0.4s-0.4-0.7-0.4-1.3s0.1-1.1,0.4-1.3s0.7-0.4,1.5-0.4
	c0.7,0,1.2,0.1,1.4,0.4c0.3,0.2,0.4,0.7,0.4,1.3C45.6,224.5,45.5,225,45.2,225.2z"/>
<path class="st0" d="M296.9,202.2c-15.9,0-28.7,12.8-28.7,28.7s12.8,28.7,28.7,28.7s28.7-12.8,28.7-28.7S312.8,202.2,296.9,202.2z
	 M300.3,238.3c0,0.2,0,0.4-0.1,0.5c-0.1,0.2-0.2,0.3-0.3,0.4c-0.1,0.1-0.3,0.2-0.4,0.2c-0.2,0-0.3,0.1-0.5,0.1h-1.4
	c-0.3,0-0.6,0-0.8-0.1c-0.2-0.1-0.4-0.2-0.6-0.3c-0.2-0.2-0.4-0.4-0.5-0.6c-0.2-0.3-0.4-0.6-0.6-1l-4.1-7.7c-0.2-0.5-0.5-1-0.7-1.5
	s-0.5-1-0.7-1.5l0,0c0,0.6,0.1,1.2,0.1,1.8s0,1.2,0,1.9v8.6c0,0.1,0,0.2-0.1,0.2c0,0.1-0.1,0.1-0.2,0.2s-0.3,0.1-0.5,0.1
	s-0.4,0-0.8,0c-0.3,0-0.5,0-0.7,0s-0.3-0.1-0.5-0.1c-0.1,0-0.2-0.1-0.2-0.2c0-0.1-0.1-0.1-0.1-0.2v-14.8c0-0.4,0.1-0.7,0.3-0.9
	c0.2-0.2,0.5-0.3,0.9-0.3h1.8c0.3,0,0.6,0,0.8,0.1c0.2,0.1,0.4,0.1,0.6,0.3c0.2,0.1,0.3,0.3,0.5,0.5s0.3,0.5,0.5,0.8l3.2,6
	c0.2,0.4,0.4,0.7,0.6,1.1c0.2,0.4,0.4,0.7,0.5,1.1s0.3,0.7,0.5,1s0.3,0.7,0.5,1l0,0c0-0.6,0-1.2-0.1-1.9c0-0.6,0-1.3,0-1.8v-7.7
	c0-0.1,0-0.2,0.1-0.2c0.1-0.1,0.1-0.1,0.3-0.2s0.3-0.1,0.5-0.1s0.4,0,0.8,0c0.3,0,0.5,0,0.7,0s0.3,0.1,0.5,0.1s0.2,0.1,0.2,0.2
	c0,0.1,0.1,0.1,0.1,0.2L300.3,238.3L300.3,238.3z M306.9,239.1c0,0.1,0,0.2-0.1,0.2c-0.1,0.1-0.1,0.1-0.3,0.2
	c-0.1,0-0.3,0.1-0.5,0.1s-0.5,0-0.8,0s-0.6,0-0.8,0c-0.2,0-0.4-0.1-0.5-0.1s-0.2-0.1-0.3-0.2c-0.1-0.1-0.1-0.1-0.1-0.2v-11.3
	c0-0.1,0-0.2,0.1-0.2c0.1-0.1,0.1-0.1,0.3-0.2c0.1,0,0.3-0.1,0.5-0.1s0.5,0,0.8,0s0.6,0,0.8,0c0.2,0,0.4,0.1,0.5,0.1
	s0.2,0.1,0.3,0.2c0.1,0.1,0.1,0.1,0.1,0.2V239.1z M306.7,225.2c-0.3,0.2-0.7,0.4-1.5,0.4c-0.7,0-1.2-0.1-1.5-0.4s-0.4-0.7-0.4-1.3
	s0.1-1.1,0.4-1.3s0.7-0.4,1.5-0.4c0.7,0,1.2,0.1,1.4,0.4c0.3,0.2,0.4,0.7,0.4,1.3C307.1,224.5,307,225,306.7,225.2z"/>
<path class="st0" d="M427.6,202.2c-15.9,0-28.7,12.8-28.7,28.7s12.8,28.7,28.7,28.7s28.7-12.8,28.7-28.7S443.5,202.2,427.6,202.2z
	 M431,238.3c0,0.2,0,0.4-0.1,0.5c-0.1,0.2-0.2,0.3-0.3,0.4c-0.1,0.1-0.3,0.2-0.4,0.2c-0.2,0-0.3,0.1-0.5,0.1h-1.4
	c-0.3,0-0.6,0-0.8-0.1s-0.4-0.2-0.6-0.3c-0.2-0.2-0.4-0.4-0.5-0.6c-0.2-0.3-0.4-0.6-0.6-1l-4.1-7.7c-0.2-0.5-0.5-1-0.7-1.5
	s-0.5-1-0.7-1.5l0,0c0,0.6,0.1,1.2,0.1,1.8s0,1.2,0,1.9v8.6c0,0.1,0,0.2-0.1,0.2c0,0.1-0.1,0.1-0.2,0.2s-0.3,0.1-0.5,0.1
	s-0.4,0-0.8,0c-0.3,0-0.5,0-0.7,0s-0.3-0.1-0.5-0.1c-0.1,0-0.2-0.1-0.2-0.2c0-0.1-0.1-0.1-0.1-0.2v-14.8c0-0.4,0.1-0.7,0.3-0.9
	s0.5-0.3,0.9-0.3h1.8c0.3,0,0.6,0,0.8,0.1s0.4,0.1,0.6,0.3c0.2,0.1,0.3,0.3,0.5,0.5s0.3,0.5,0.5,0.8l3.2,6c0.2,0.4,0.4,0.7,0.6,1.1
	c0.2,0.4,0.4,0.7,0.5,1.1s0.3,0.7,0.5,1s0.3,0.7,0.5,1l0,0c0-0.6,0-1.2-0.1-1.9c0-0.6,0-1.3,0-1.8v-7.7c0-0.1,0-0.2,0.1-0.2
	c0.1-0.1,0.1-0.1,0.3-0.2s0.3-0.1,0.5-0.1s0.4,0,0.8,0c0.3,0,0.5,0,0.7,0s0.3,0.1,0.5,0.1s0.2,0.1,0.2,0.2c0,0.1,0.1,0.1,0.1,0.2
	L431,238.3L431,238.3z M437.6,239.1c0,0.1,0,0.2-0.1,0.2c-0.1,0.1-0.1,0.1-0.3,0.2c-0.1,0-0.3,0.1-0.5,0.1s-0.5,0-0.8,0
	s-0.6,0-0.8,0s-0.4-0.1-0.5-0.1s-0.2-0.1-0.3-0.2c-0.1-0.1-0.1-0.1-0.1-0.2v-11.3c0-0.1,0-0.2,0.1-0.2c0.1-0.1,0.1-0.1,0.3-0.2
	c0.1,0,0.3-0.1,0.5-0.1s0.5,0,0.8,0s0.6,0,0.8,0s0.4,0.1,0.5,0.1s0.2,0.1,0.3,0.2c0.1,0.1,0.1,0.1,0.1,0.2V239.1z M437.4,225.2
	c-0.3,0.2-0.7,0.4-1.5,0.4c-0.7,0-1.2-0.1-1.5-0.4s-0.4-0.7-0.4-1.3s0.1-1.1,0.4-1.3s0.7-0.4,1.5-0.4c0.7,0,1.2,0.1,1.4,0.4
	c0.3,0.2,0.4,0.7,0.4,1.3C437.8,224.5,437.7,225,437.4,225.2z"/>
<path class="st0" d="M558.4,202.2c-15.9,0-28.7,12.8-28.7,28.7s12.8,28.7,28.7,28.7s28.7-12.8,28.7-28.7S574.3,202.2,558.4,202.2z
	 M561.8,238.3c0,0.2,0,0.4-0.1,0.5c-0.1,0.2-0.2,0.3-0.3,0.4c-0.1,0.1-0.3,0.2-0.4,0.2c-0.2,0-0.3,0.1-0.5,0.1h-1.4
	c-0.3,0-0.6,0-0.8-0.1s-0.4-0.2-0.6-0.3c-0.2-0.2-0.4-0.4-0.5-0.6c-0.2-0.3-0.4-0.6-0.6-1l-4.1-7.7c-0.2-0.5-0.5-1-0.7-1.5
	s-0.5-1-0.7-1.5l0,0c0,0.6,0.1,1.2,0.1,1.8s0,1.2,0,1.9v8.6c0,0.1,0,0.2-0.1,0.2c0,0.1-0.1,0.1-0.2,0.2s-0.3,0.1-0.5,0.1
	s-0.4,0-0.8,0c-0.3,0-0.5,0-0.7,0s-0.3-0.1-0.5-0.1c-0.1,0-0.2-0.1-0.2-0.2c0-0.1-0.1-0.1-0.1-0.2v-14.8c0-0.4,0.1-0.7,0.3-0.9
	s0.5-0.3,0.9-0.3h1.8c0.3,0,0.6,0,0.8,0.1s0.4,0.1,0.6,0.3c0.2,0.1,0.3,0.3,0.5,0.5s0.3,0.5,0.5,0.8l3.2,6c0.2,0.4,0.4,0.7,0.6,1.1
	c0.2,0.4,0.4,0.7,0.5,1.1s0.3,0.7,0.5,1s0.3,0.7,0.5,1l0,0c0-0.6,0-1.2-0.1-1.9c0-0.6,0-1.3,0-1.8v-7.7c0-0.1,0-0.2,0.1-0.2
	c0.1-0.1,0.1-0.1,0.3-0.2s0.3-0.1,0.5-0.1s0.4,0,0.8,0c0.3,0,0.5,0,0.7,0s0.3,0.1,0.5,0.1s0.2,0.1,0.2,0.2c0,0.1,0.1,0.1,0.1,0.2
	L561.8,238.3L561.8,238.3z M568.4,239.1c0,0.1,0,0.2-0.1,0.2c-0.1,0.1-0.1,0.1-0.3,0.2c-0.1,0-0.3,0.1-0.5,0.1s-0.5,0-0.8,0
	s-0.6,0-0.8,0s-0.4-0.1-0.5-0.1s-0.2-0.1-0.3-0.2c-0.1-0.1-0.1-0.1-0.1-0.2v-11.3c0-0.1,0-0.2,0.1-0.2c0.1-0.1,0.1-0.1,0.3-0.2
	c0.1,0,0.3-0.1,0.5-0.1s0.5,0,0.8,0s0.6,0,0.8,0s0.4,0.1,0.5,0.1s0.2,0.1,0.3,0.2c0.1,0.1,0.1,0.1,0.1,0.2V239.1z M568.2,225.2
	c-0.3,0.2-0.7,0.4-1.5,0.4c-0.7,0-1.2-0.1-1.5-0.4s-0.4-0.7-0.4-1.3s0.1-1.1,0.4-1.3s0.7-0.4,1.5-0.4c0.7,0,1.2,0.1,1.4,0.4
	c0.3,0.2,0.4,0.7,0.4,1.3C568.6,224.5,568.5,225,568.2,225.2z"/>
<path class="st0" d="M100.8,136.8c-15.9,0-28.7,12.8-28.7,28.7s12.8,28.7,28.7,28.7s28.7-12.8,28.7-28.7
	C129.5,149.7,116.7,136.8,100.8,136.8z M104.1,172.9c0,0.2,0,0.4-0.1,0.5c-0.1,0.2-0.2,0.3-0.3,0.4c-0.1,0.1-0.3,0.2-0.4,0.2
	c-0.2,0-0.3,0.1-0.5,0.1h-1.4c-0.3,0-0.6,0-0.8-0.1c-0.2-0.1-0.4-0.2-0.6-0.3c-0.2-0.2-0.4-0.4-0.5-0.6c-0.2-0.3-0.4-0.6-0.6-1
	l-4.1-7.7c-0.2-0.5-0.5-1-0.7-1.5s-0.5-1-0.7-1.5l0,0c0,0.6,0.1,1.2,0.1,1.8s0,1.2,0,1.9v8.6c0,0.1,0,0.2-0.1,0.2
	c0,0.1-0.1,0.1-0.2,0.2s-0.3,0.1-0.5,0.1s-0.4,0-0.8,0c-0.3,0-0.5,0-0.7,0s-0.3-0.1-0.5-0.1c-0.1,0-0.2-0.1-0.2-0.2
	s-0.1-0.1-0.1-0.2v-14.8c0-0.4,0.1-0.7,0.3-0.9c0.2-0.2,0.5-0.3,0.9-0.3h1.8c0.3,0,0.6,0,0.8,0.1c0.2,0.1,0.4,0.1,0.6,0.3
	c0.2,0.1,0.3,0.3,0.5,0.5s0.3,0.5,0.5,0.8l3.2,6c0.2,0.4,0.4,0.7,0.6,1.1c0.2,0.4,0.4,0.7,0.5,1.1c0.1,0.4,0.3,0.7,0.5,1
	s0.3,0.7,0.5,1l0,0c0-0.6,0-1.2-0.1-1.9c0-0.6,0-1.3,0-1.8v-7.7c0-0.1,0-0.2,0.1-0.2c0.1-0.1,0.1-0.1,0.3-0.2
	c0.2-0.1,0.3-0.1,0.5-0.1s0.4,0,0.8,0c0.3,0,0.5,0,0.7,0s0.3,0.1,0.5,0.1s0.2,0.1,0.2,0.2c0,0.1,0.1,0.1,0.1,0.2L104.1,172.9
	L104.1,172.9z M110.7,173.7c0,0.1,0,0.2-0.1,0.2c-0.1,0.1-0.1,0.1-0.3,0.2c-0.1,0-0.3,0.1-0.5,0.1s-0.5,0-0.8,0s-0.6,0-0.8,0
	c-0.2,0-0.4-0.1-0.5-0.1s-0.2-0.1-0.3-0.2c-0.1-0.1-0.1-0.1-0.1-0.2v-11.3c0-0.1,0-0.2,0.1-0.2c0.1-0.1,0.1-0.1,0.3-0.2
	c0.1,0,0.3-0.1,0.5-0.1s0.5,0,0.8,0s0.6,0,0.8,0c0.2,0,0.4,0.1,0.5,0.1s0.2,0.1,0.3,0.2c0.1,0.1,0.1,0.1,0.1,0.2V173.7z
	 M110.5,159.8c-0.3,0.2-0.7,0.4-1.5,0.4c-0.7,0-1.2-0.1-1.5-0.4s-0.4-0.7-0.4-1.3s0.1-1.1,0.4-1.3s0.7-0.4,1.5-0.4
	c0.7,0,1.2,0.1,1.4,0.4c0.3,0.2,0.4,0.7,0.4,1.3C110.9,159.1,110.8,159.6,110.5,159.8z"/>
<path class="st0" d="M231.5,136.8c-15.9,0-28.7,12.8-28.7,28.7s12.8,28.7,28.7,28.7s28.7-12.8,28.7-28.7
	C260.2,149.7,247.4,136.8,231.5,136.8z M234.9,172.9c0,0.2,0,0.4-0.1,0.5c-0.1,0.2-0.2,0.3-0.3,0.4c-0.1,0.1-0.3,0.2-0.4,0.2
	c-0.2,0-0.3,0.1-0.5,0.1h-1.4c-0.3,0-0.6,0-0.8-0.1s-0.4-0.2-0.6-0.3c-0.2-0.2-0.4-0.4-0.5-0.6c-0.2-0.3-0.4-0.6-0.6-1l-4.1-7.7
	c-0.2-0.5-0.5-1-0.7-1.5s-0.5-1-0.7-1.5l0,0c0,0.6,0.1,1.2,0.1,1.8s0,1.2,0,1.9v8.6c0,0.1,0,0.2-0.1,0.2c0,0.1-0.1,0.1-0.2,0.2
	s-0.3,0.1-0.5,0.1s-0.4,0-0.8,0c-0.3,0-0.5,0-0.7,0s-0.3-0.1-0.5-0.1c-0.1,0-0.2-0.1-0.2-0.2s-0.1-0.1-0.1-0.2v-14.8
	c0-0.4,0.1-0.7,0.3-0.9s0.5-0.3,0.9-0.3h1.8c0.3,0,0.6,0,0.8,0.1s0.4,0.1,0.6,0.3c0.2,0.1,0.3,0.3,0.5,0.5s0.3,0.5,0.5,0.8l3.2,6
	c0.2,0.4,0.4,0.7,0.6,1.1c0.2,0.4,0.4,0.7,0.5,1.1c0.1,0.4,0.3,0.7,0.5,1s0.3,0.7,0.5,1l0,0c0-0.6,0-1.2-0.1-1.9c0-0.6,0-1.3,0-1.8
	v-7.7c0-0.1,0-0.2,0.1-0.2c0.1-0.1,0.1-0.1,0.3-0.2c0.2-0.1,0.3-0.1,0.5-0.1s0.4,0,0.8,0c0.3,0,0.5,0,0.7,0s0.3,0.1,0.5,0.1
	s0.2,0.1,0.2,0.2c0,0.1,0.1,0.1,0.1,0.2L234.9,172.9L234.9,172.9z M241.5,173.7c0,0.1,0,0.2-0.1,0.2c-0.1,0.1-0.1,0.1-0.3,0.2
	c-0.1,0-0.3,0.1-0.5,0.1s-0.5,0-0.8,0s-0.6,0-0.8,0s-0.4-0.1-0.5-0.1s-0.2-0.1-0.3-0.2c-0.1-0.1-0.1-0.1-0.1-0.2v-11.3
	c0-0.1,0-0.2,0.1-0.2c0.1-0.1,0.1-0.1,0.3-0.2c0.1,0,0.3-0.1,0.5-0.1s0.5,0,0.8,0s0.6,0,0.8,0s0.4,0.1,0.5,0.1s0.2,0.1,0.3,0.2
	c0.1,0.1,0.1,0.1,0.1,0.2V173.7z M241.3,159.8c-0.3,0.2-0.7,0.4-1.5,0.4c-0.7,0-1.2-0.1-1.5-0.4s-0.4-0.7-0.4-1.3s0.1-1.1,0.4-1.3
	c0.3-0.2,0.7-0.4,1.5-0.4c0.7,0,1.2,0.1,1.4,0.4c0.3,0.2,0.4,0.7,0.4,1.3C241.7,159.1,241.6,159.6,241.3,159.8z"/>
<path class="st0" d="M362.3,136.8c-15.9,0-28.7,12.8-28.7,28.7s12.8,28.7,28.7,28.7s28.7-12.8,28.7-28.7
	C391,149.7,378.2,136.8,362.3,136.8z M365.6,172.9c0,0.2,0,0.4-0.1,0.5c-0.1,0.2-0.2,0.3-0.3,0.4s-0.3,0.2-0.4,0.2
	c-0.2,0-0.3,0.1-0.5,0.1h-1.4c-0.3,0-0.6,0-0.8-0.1s-0.4-0.2-0.6-0.3c-0.2-0.2-0.4-0.4-0.5-0.6c-0.2-0.3-0.4-0.6-0.6-1l-4.1-7.7
	c-0.2-0.5-0.5-1-0.7-1.5s-0.5-1-0.7-1.5l0,0c0,0.6,0.1,1.2,0.1,1.8s0,1.2,0,1.9v8.6c0,0.1,0,0.2-0.1,0.2c0,0.1-0.1,0.1-0.2,0.2
	s-0.3,0.1-0.5,0.1s-0.4,0-0.8,0c-0.3,0-0.5,0-0.7,0s-0.3-0.1-0.5-0.1c-0.1,0-0.2-0.1-0.2-0.2s-0.1-0.1-0.1-0.2v-14.8
	c0-0.4,0.1-0.7,0.3-0.9c0.2-0.2,0.5-0.3,0.9-0.3h1.8c0.3,0,0.6,0,0.8,0.1c0.2,0.1,0.4,0.1,0.6,0.3c0.2,0.1,0.3,0.3,0.5,0.5
	s0.3,0.5,0.5,0.8l3.2,6c0.2,0.4,0.4,0.7,0.6,1.1c0.2,0.4,0.4,0.7,0.5,1.1c0.1,0.4,0.3,0.7,0.5,1s0.3,0.7,0.5,1l0,0
	c0-0.6,0-1.2-0.1-1.9c0-0.6,0-1.3,0-1.8v-7.7c0-0.1,0-0.2,0.1-0.2c0.1-0.1,0.1-0.1,0.3-0.2c0.2-0.1,0.3-0.1,0.5-0.1s0.4,0,0.8,0
	c0.3,0,0.5,0,0.7,0s0.3,0.1,0.5,0.1s0.2,0.1,0.2,0.2c0,0.1,0.1,0.1,0.1,0.2L365.6,172.9L365.6,172.9z M372.2,173.7
	c0,0.1,0,0.2-0.1,0.2c-0.1,0.1-0.1,0.1-0.3,0.2c-0.1,0-0.3,0.1-0.5,0.1s-0.5,0-0.8,0s-0.6,0-0.8,0s-0.4-0.1-0.5-0.1
	s-0.2-0.1-0.3-0.2s-0.1-0.1-0.1-0.2v-11.3c0-0.1,0-0.2,0.1-0.2c0.1-0.1,0.1-0.1,0.3-0.2c0.1,0,0.3-0.1,0.5-0.1s0.5,0,0.8,0
	s0.6,0,0.8,0s0.4,0.1,0.5,0.1s0.2,0.1,0.3,0.2c0.1,0.1,0.1,0.1,0.1,0.2V173.7z M372,159.8c-0.3,0.2-0.7,0.4-1.5,0.4
	c-0.7,0-1.2-0.1-1.5-0.4s-0.4-0.7-0.4-1.3s0.1-1.1,0.4-1.3s0.7-0.4,1.5-0.4c0.7,0,1.2,0.1,1.4,0.4c0.3,0.2,0.4,0.7,0.4,1.3
	C372.4,159.1,372.3,159.6,372,159.8z"/>
<path class="st0" d="M493,136.8c-15.9,0-28.7,12.8-28.7,28.7s12.8,28.7,28.7,28.7s28.7-12.8,28.7-28.7
	C521.7,149.7,508.9,136.8,493,136.8z M496.4,172.9c0,0.2,0,0.4-0.1,0.5c-0.1,0.2-0.2,0.3-0.3,0.4s-0.3,0.2-0.4,0.2
	c-0.2,0-0.3,0.1-0.5,0.1h-1.4c-0.3,0-0.6,0-0.8-0.1s-0.4-0.2-0.6-0.3c-0.2-0.2-0.4-0.4-0.5-0.6c-0.2-0.3-0.4-0.6-0.6-1l-4.1-7.7
	c-0.2-0.5-0.5-1-0.7-1.5s-0.5-1-0.7-1.5l0,0c0,0.6,0.1,1.2,0.1,1.8s0,1.2,0,1.9v8.6c0,0.1,0,0.2-0.1,0.2c0,0.1-0.1,0.1-0.2,0.2
	s-0.3,0.1-0.5,0.1s-0.4,0-0.8,0c-0.3,0-0.5,0-0.7,0s-0.3-0.1-0.5-0.1c-0.1,0-0.2-0.1-0.2-0.2s-0.1-0.1-0.1-0.2v-14.8
	c0-0.4,0.1-0.7,0.3-0.9c0.2-0.2,0.5-0.3,0.9-0.3h1.8c0.3,0,0.6,0,0.8,0.1c0.2,0.1,0.4,0.1,0.6,0.3c0.2,0.1,0.3,0.3,0.5,0.5
	s0.3,0.5,0.5,0.8l3.2,6c0.2,0.4,0.4,0.7,0.6,1.1c0.2,0.4,0.4,0.7,0.5,1.1c0.1,0.4,0.3,0.7,0.5,1s0.3,0.7,0.5,1l0,0
	c0-0.6,0-1.2-0.1-1.9c0-0.6,0-1.3,0-1.8v-7.7c0-0.1,0-0.2,0.1-0.2c0.1-0.1,0.1-0.1,0.3-0.2c0.2-0.1,0.3-0.1,0.5-0.1s0.4,0,0.8,0
	c0.3,0,0.5,0,0.7,0s0.3,0.1,0.5,0.1s0.2,0.1,0.2,0.2c0,0.1,0.1,0.1,0.1,0.2L496.4,172.9L496.4,172.9z M503,173.7
	c0,0.1,0,0.2-0.1,0.2c-0.1,0.1-0.1,0.1-0.3,0.2c-0.1,0-0.3,0.1-0.5,0.1s-0.5,0-0.8,0s-0.6,0-0.8,0s-0.4-0.1-0.5-0.1
	s-0.2-0.1-0.3-0.2s-0.1-0.1-0.1-0.2v-11.3c0-0.1,0-0.2,0.1-0.2c0.1-0.1,0.1-0.1,0.3-0.2c0.1,0,0.3-0.1,0.5-0.1s0.5,0,0.8,0
	s0.6,0,0.8,0s0.4,0.1,0.5,0.1s0.2,0.1,0.3,0.2c0.1,0.1,0.1,0.1,0.1,0.2V173.7z M502.8,159.8c-0.3,0.2-0.7,0.4-1.5,0.4
	c-0.7,0-1.2-0.1-1.5-0.4s-0.4-0.7-0.4-1.3s0.1-1.1,0.4-1.3s0.7-0.4,1.5-0.4c0.7,0,1.2,0.1,1.4,0.4c0.3,0.2,0.4,0.7,0.4,1.3
	C503.2,159.1,503.1,159.6,502.8,159.8z"/>
<path class="st0" d="M166.1,333c-15.9,0-28.7,12.8-28.7,28.7s12.8,28.7,28.7,28.7s28.7-12.8,28.7-28.7S182,333,166.1,333z
	 M169.5,369.1c0,0.2,0,0.4-0.1,0.5c-0.1,0.2-0.2,0.3-0.3,0.4s-0.3,0.2-0.4,0.2c-0.2,0-0.3,0.1-0.5,0.1h-1.4c-0.3,0-0.6,0-0.8-0.1
	s-0.4-0.2-0.6-0.3c-0.2-0.2-0.4-0.4-0.5-0.6c-0.2-0.3-0.4-0.6-0.6-1l-4.1-7.7c-0.2-0.5-0.5-1-0.7-1.5s-0.5-1-0.7-1.5l0,0
	c0,0.6,0.1,1.2,0.1,1.8s0,1.2,0,1.9v8.6c0,0.1,0,0.2-0.1,0.2c0,0.1-0.1,0.1-0.2,0.2c-0.1,0.1-0.3,0.1-0.5,0.1s-0.4,0-0.8,0
	c-0.3,0-0.5,0-0.7,0s-0.3-0.1-0.5-0.1c-0.1,0-0.2-0.1-0.2-0.2s-0.1-0.1-0.1-0.2v-14.8c0-0.4,0.1-0.7,0.3-0.9
	c0.2-0.2,0.5-0.3,0.9-0.3h1.8c0.3,0,0.6,0,0.8,0.1s0.4,0.1,0.6,0.3c0.2,0.1,0.3,0.3,0.5,0.5s0.3,0.5,0.5,0.8l3.2,6
	c0.2,0.4,0.4,0.7,0.6,1.1c0.2,0.4,0.4,0.7,0.5,1.1s0.3,0.7,0.5,1s0.3,0.7,0.5,1l0,0c0-0.6,0-1.2-0.1-1.9c0-0.6,0-1.3,0-1.8v-7.7
	c0-0.1,0-0.2,0.1-0.2c0.1-0.1,0.1-0.1,0.3-0.2s0.3-0.1,0.5-0.1s0.4,0,0.8,0c0.3,0,0.5,0,0.7,0s0.3,0.1,0.5,0.1s0.2,0.1,0.2,0.2
	s0.1,0.1,0.1,0.2L169.5,369.1L169.5,369.1z M176.1,369.9c0,0.1,0,0.2-0.1,0.2c-0.1,0.1-0.1,0.1-0.3,0.2c-0.1,0-0.3,0.1-0.5,0.1
	s-0.5,0-0.8,0s-0.6,0-0.8,0s-0.4-0.1-0.5-0.1s-0.2-0.1-0.3-0.2s-0.1-0.1-0.1-0.2v-11.3c0-0.1,0-0.2,0.1-0.2c0.1-0.1,0.1-0.1,0.3-0.2
	c0.1,0,0.3-0.1,0.5-0.1s0.5,0,0.8,0s0.6,0,0.8,0s0.4,0.1,0.5,0.1s0.2,0.1,0.3,0.2s0.1,0.1,0.1,0.2V369.9z M175.9,356
	c-0.3,0.2-0.7,0.4-1.5,0.4c-0.7,0-1.2-0.1-1.5-0.4s-0.4-0.7-0.4-1.3s0.1-1.1,0.4-1.3c0.3-0.2,0.7-0.4,1.5-0.4c0.7,0,1.2,0.1,1.4,0.4
	c0.3,0.2,0.4,0.7,0.4,1.3C176.3,355.3,176.2,355.8,175.9,356z"/>
<path class="st0" d="M35.4,333c-15.9,0-28.7,12.8-28.7,28.7s12.8,28.7,28.7,28.7s28.7-12.8,28.7-28.7S51.3,333,35.4,333z
	 M38.8,369.1c0,0.2,0,0.4-0.1,0.5c-0.1,0.2-0.2,0.3-0.3,0.4s-0.3,0.2-0.4,0.2c-0.2,0-0.3,0.1-0.5,0.1h-1.4c-0.3,0-0.6,0-0.8-0.1
	s-0.4-0.2-0.6-0.3c-0.2-0.2-0.4-0.4-0.5-0.6c-0.2-0.3-0.4-0.6-0.6-1l-4.1-7.7c-0.2-0.5-0.5-1-0.7-1.5s-0.5-1-0.7-1.5l0,0
	c0,0.6,0.1,1.2,0.1,1.8s0,1.2,0,1.9v8.6c0,0.1,0,0.2-0.1,0.2c0,0.1-0.1,0.1-0.2,0.2s-0.3,0.1-0.5,0.1s-0.4,0-0.8,0
	c-0.3,0-0.5,0-0.7,0s-0.3-0.1-0.5-0.1c-0.1,0-0.2-0.1-0.2-0.2s-0.1-0.1-0.1-0.2v-14.8c0-0.4,0.1-0.7,0.3-0.9
	c0.2-0.2,0.5-0.3,0.9-0.3h1.8c0.3,0,0.6,0,0.8,0.1c0.2,0.1,0.4,0.1,0.6,0.3c0.2,0.1,0.3,0.3,0.5,0.5s0.3,0.5,0.5,0.8l3.2,6
	c0.2,0.4,0.4,0.7,0.6,1.1c0.2,0.4,0.4,0.7,0.5,1.1s0.3,0.7,0.5,1s0.3,0.7,0.5,1l0,0c0-0.6,0-1.2-0.1-1.9c0-0.6,0-1.3,0-1.8v-7.7
	c0-0.1,0-0.2,0.1-0.2c0.1-0.1,0.1-0.1,0.3-0.2s0.3-0.1,0.5-0.1s0.4,0,0.8,0c0.3,0,0.5,0,0.7,0s0.3,0.1,0.5,0.1s0.2,0.1,0.2,0.2
	s0.1,0.1,0.1,0.2L38.8,369.1L38.8,369.1z M45.4,369.9c0,0.1,0,0.2-0.1,0.2c-0.1,0.1-0.1,0.1-0.3,0.2c-0.1,0-0.3,0.1-0.5,0.1
	s-0.5,0-0.8,0s-0.6,0-0.8,0s-0.4-0.1-0.5-0.1s-0.2-0.1-0.3-0.2C42,370,42,370,42,369.9v-11.3c0-0.1,0-0.2,0.1-0.2
	c0.1-0.1,0.1-0.1,0.3-0.2c0.1,0,0.3-0.1,0.5-0.1s0.5,0,0.8,0s0.6,0,0.8,0s0.4,0.1,0.5,0.1s0.2,0.1,0.3,0.2s0.1,0.1,0.1,0.2
	C45.4,358.6,45.4,369.9,45.4,369.9z M45.2,356c-0.3,0.2-0.7,0.4-1.5,0.4c-0.7,0-1.2-0.1-1.5-0.4s-0.4-0.7-0.4-1.3s0.1-1.1,0.4-1.3
	c0.3-0.2,0.7-0.4,1.5-0.4c0.7,0,1.2,0.1,1.4,0.4c0.3,0.2,0.4,0.7,0.4,1.3C45.6,355.3,45.5,355.8,45.2,356z"/>
<path class="st0" d="M296.9,333c-15.9,0-28.7,12.8-28.7,28.7s12.8,28.7,28.7,28.7s28.7-12.8,28.7-28.7S312.8,333,296.9,333z
	 M300.3,369.1c0,0.2,0,0.4-0.1,0.5c-0.1,0.2-0.2,0.3-0.3,0.4c-0.1,0.1-0.3,0.2-0.4,0.2c-0.2,0-0.3,0.1-0.5,0.1h-1.4
	c-0.3,0-0.6,0-0.8-0.1c-0.2-0.1-0.4-0.2-0.6-0.3c-0.2-0.2-0.4-0.4-0.5-0.6c-0.2-0.3-0.4-0.6-0.6-1l-4.1-7.7c-0.2-0.5-0.5-1-0.7-1.5
	s-0.5-1-0.7-1.5l0,0c0,0.6,0.1,1.2,0.1,1.8s0,1.2,0,1.9v8.6c0,0.1,0,0.2-0.1,0.2c0,0.1-0.1,0.1-0.2,0.2s-0.3,0.1-0.5,0.1
	s-0.4,0-0.8,0c-0.3,0-0.5,0-0.7,0s-0.3-0.1-0.5-0.1c-0.1,0-0.2-0.1-0.2-0.2s-0.1-0.1-0.1-0.2v-14.8c0-0.4,0.1-0.7,0.3-0.9
	c0.2-0.2,0.5-0.3,0.9-0.3h1.8c0.3,0,0.6,0,0.8,0.1c0.2,0.1,0.4,0.1,0.6,0.3c0.2,0.1,0.3,0.3,0.5,0.5s0.3,0.5,0.5,0.8l3.2,6
	c0.2,0.4,0.4,0.7,0.6,1.1s0.4,0.7,0.5,1.1s0.3,0.7,0.5,1s0.3,0.7,0.5,1l0,0c0-0.6,0-1.2-0.1-1.9c0-0.6,0-1.3,0-1.8v-7.7
	c0-0.1,0-0.2,0.1-0.2c0.1-0.1,0.1-0.1,0.3-0.2c0.2-0.1,0.3-0.1,0.5-0.1s0.4,0,0.8,0c0.3,0,0.5,0,0.7,0s0.3,0.1,0.5,0.1
	s0.2,0.1,0.2,0.2s0.1,0.1,0.1,0.2L300.3,369.1L300.3,369.1z M306.9,369.9c0,0.1,0,0.2-0.1,0.2c-0.1,0.1-0.1,0.1-0.3,0.2
	c-0.1,0-0.3,0.1-0.5,0.1s-0.5,0-0.8,0s-0.6,0-0.8,0c-0.2,0-0.4-0.1-0.5-0.1s-0.2-0.1-0.3-0.2c-0.1-0.1-0.1-0.1-0.1-0.2v-11.3
	c0-0.1,0-0.2,0.1-0.2c0.1-0.1,0.1-0.1,0.3-0.2c0.1,0,0.3-0.1,0.5-0.1s0.5,0,0.8,0s0.6,0,0.8,0c0.2,0,0.4,0.1,0.5,0.1
	s0.2,0.1,0.3,0.2c0.1,0.1,0.1,0.1,0.1,0.2V369.9z M306.7,356c-0.3,0.2-0.7,0.4-1.5,0.4c-0.7,0-1.2-0.1-1.5-0.4s-0.4-0.7-0.4-1.3
	s0.1-1.1,0.4-1.3c0.3-0.2,0.7-0.4,1.5-0.4c0.7,0,1.2,0.1,1.4,0.4c0.3,0.2,0.4,0.7,0.4,1.3C307.1,355.3,307,355.8,306.7,356z"/>
<path class="st0" d="M427.6,333c-15.9,0-28.7,12.8-28.7,28.7s12.8,28.7,28.7,28.7s28.7-12.8,28.7-28.7S443.5,333,427.6,333z
	 M431,369.1c0,0.2,0,0.4-0.1,0.5c-0.1,0.2-0.2,0.3-0.3,0.4s-0.3,0.2-0.4,0.2c-0.2,0-0.3,0.1-0.5,0.1h-1.4c-0.3,0-0.6,0-0.8-0.1
	s-0.4-0.2-0.6-0.3c-0.2-0.2-0.4-0.4-0.5-0.6c-0.2-0.3-0.4-0.6-0.6-1l-4.1-7.7c-0.2-0.5-0.5-1-0.7-1.5s-0.5-1-0.7-1.5l0,0
	c0,0.6,0.1,1.2,0.1,1.8s0,1.2,0,1.9v8.6c0,0.1,0,0.2-0.1,0.2c0,0.1-0.1,0.1-0.2,0.2s-0.3,0.1-0.5,0.1s-0.4,0-0.8,0
	c-0.3,0-0.5,0-0.7,0s-0.3-0.1-0.5-0.1c-0.1,0-0.2-0.1-0.2-0.2s-0.1-0.1-0.1-0.2v-14.8c0-0.4,0.1-0.7,0.3-0.9
	c0.2-0.2,0.5-0.3,0.9-0.3h1.8c0.3,0,0.6,0,0.8,0.1s0.4,0.1,0.6,0.3c0.2,0.1,0.3,0.3,0.5,0.5s0.3,0.5,0.5,0.8l3.2,6
	c0.2,0.4,0.4,0.7,0.6,1.1s0.4,0.7,0.5,1.1s0.3,0.7,0.5,1s0.3,0.7,0.5,1l0,0c0-0.6,0-1.2-0.1-1.9c0-0.6,0-1.3,0-1.8v-7.7
	c0-0.1,0-0.2,0.1-0.2c0.1-0.1,0.1-0.1,0.3-0.2c0.2-0.1,0.3-0.1,0.5-0.1s0.4,0,0.8,0c0.3,0,0.5,0,0.7,0s0.3,0.1,0.5,0.1
	s0.2,0.1,0.2,0.2s0.1,0.1,0.1,0.2L431,369.1L431,369.1z M437.6,369.9c0,0.1,0,0.2-0.1,0.2c-0.1,0.1-0.1,0.1-0.3,0.2
	c-0.1,0-0.3,0.1-0.5,0.1s-0.5,0-0.8,0s-0.6,0-0.8,0s-0.4-0.1-0.5-0.1s-0.2-0.1-0.3-0.2c-0.1-0.1-0.1-0.1-0.1-0.2v-11.3
	c0-0.1,0-0.2,0.1-0.2c0.1-0.1,0.1-0.1,0.3-0.2c0.1,0,0.3-0.1,0.5-0.1s0.5,0,0.8,0s0.6,0,0.8,0s0.4,0.1,0.5,0.1s0.2,0.1,0.3,0.2
	c0.1,0.1,0.1,0.1,0.1,0.2V369.9z M437.4,356c-0.3,0.2-0.7,0.4-1.5,0.4c-0.7,0-1.2-0.1-1.5-0.4s-0.4-0.7-0.4-1.3s0.1-1.1,0.4-1.3
	c0.3-0.2,0.7-0.4,1.5-0.4c0.7,0,1.2,0.1,1.4,0.4c0.3,0.2,0.4,0.7,0.4,1.3C437.8,355.3,437.7,355.8,437.4,356z"/>
<path class="st0" d="M558.4,333c-15.9,0-28.7,12.8-28.7,28.7s12.8,28.7,28.7,28.7s28.7-12.8,28.7-28.7S574.3,333,558.4,333z
	 M561.8,369.1c0,0.2,0,0.4-0.1,0.5c-0.1,0.2-0.2,0.3-0.3,0.4s-0.3,0.2-0.4,0.2c-0.2,0-0.3,0.1-0.5,0.1h-1.4c-0.3,0-0.6,0-0.8-0.1
	s-0.4-0.2-0.6-0.3c-0.2-0.2-0.4-0.4-0.5-0.6c-0.2-0.3-0.4-0.6-0.6-1l-4.1-7.7c-0.2-0.5-0.5-1-0.7-1.5s-0.5-1-0.7-1.5l0,0
	c0,0.6,0.1,1.2,0.1,1.8s0,1.2,0,1.9v8.6c0,0.1,0,0.2-0.1,0.2c0,0.1-0.1,0.1-0.2,0.2c-0.1,0.1-0.3,0.1-0.5,0.1s-0.4,0-0.8,0
	c-0.3,0-0.5,0-0.7,0s-0.3-0.1-0.5-0.1c-0.1,0-0.2-0.1-0.2-0.2s-0.1-0.1-0.1-0.2v-14.8c0-0.4,0.1-0.7,0.3-0.9
	c0.2-0.2,0.5-0.3,0.9-0.3h1.8c0.3,0,0.6,0,0.8,0.1s0.4,0.1,0.6,0.3c0.2,0.1,0.3,0.3,0.5,0.5s0.3,0.5,0.5,0.8l3.2,6
	c0.2,0.4,0.4,0.7,0.6,1.1c0.2,0.4,0.4,0.7,0.5,1.1s0.3,0.7,0.5,1s0.3,0.7,0.5,1l0,0c0-0.6,0-1.2-0.1-1.9c0-0.6,0-1.3,0-1.8v-7.7
	c0-0.1,0-0.2,0.1-0.2c0.1-0.1,0.1-0.1,0.3-0.2s0.3-0.1,0.5-0.1s0.4,0,0.8,0c0.3,0,0.5,0,0.7,0s0.3,0.1,0.5,0.1s0.2,0.1,0.2,0.2
	s0.1,0.1,0.1,0.2L561.8,369.1L561.8,369.1z M568.4,369.9c0,0.1,0,0.2-0.1,0.2c-0.1,0.1-0.1,0.1-0.3,0.2c-0.1,0-0.3,0.1-0.5,0.1
	s-0.5,0-0.8,0s-0.6,0-0.8,0s-0.4-0.1-0.5-0.1s-0.2-0.1-0.3-0.2s-0.1-0.1-0.1-0.2v-11.3c0-0.1,0-0.2,0.1-0.2c0.1-0.1,0.1-0.1,0.3-0.2
	c0.1,0,0.3-0.1,0.5-0.1s0.5,0,0.8,0s0.6,0,0.8,0s0.4,0.1,0.5,0.1s0.2,0.1,0.3,0.2s0.1,0.1,0.1,0.2V369.9z M568.2,356
	c-0.3,0.2-0.7,0.4-1.5,0.4c-0.7,0-1.2-0.1-1.5-0.4s-0.4-0.7-0.4-1.3s0.1-1.1,0.4-1.3c0.3-0.2,0.7-0.4,1.5-0.4c0.7,0,1.2,0.1,1.4,0.4
	c0.3,0.2,0.4,0.7,0.4,1.3C568.6,355.3,568.5,355.8,568.2,356z"/>
<path class="st0" d="M100.8,267.6c-15.9,0-28.7,12.8-28.7,28.7S84.9,325,100.8,325s28.7-12.8,28.7-28.7
	C129.5,280.5,116.7,267.6,100.8,267.6z M104.1,303.7c0,0.2,0,0.4-0.1,0.5c-0.1,0.2-0.2,0.3-0.3,0.4c-0.1,0.1-0.3,0.2-0.4,0.2
	c-0.2,0-0.3,0.1-0.5,0.1h-1.4c-0.3,0-0.6,0-0.8-0.1c-0.2-0.1-0.4-0.2-0.6-0.3c-0.2-0.2-0.4-0.4-0.5-0.6c-0.2-0.3-0.4-0.6-0.6-1
	l-4.1-7.7c-0.2-0.5-0.5-1-0.7-1.5s-0.5-1-0.7-1.5l0,0c0,0.6,0.1,1.2,0.1,1.8s0,1.2,0,1.9v8.6c0,0.1,0,0.2-0.1,0.2
	c0,0.1-0.1,0.1-0.2,0.2s-0.3,0.1-0.5,0.1s-0.4,0-0.8,0c-0.3,0-0.5,0-0.7,0s-0.3-0.1-0.5-0.1c-0.1,0-0.2-0.1-0.2-0.2
	s-0.1-0.1-0.1-0.2v-14.8c0-0.4,0.1-0.7,0.3-0.9c0.2-0.2,0.5-0.3,0.9-0.3h1.8c0.3,0,0.6,0,0.8,0.1c0.2,0.1,0.4,0.1,0.6,0.3
	c0.2,0.1,0.3,0.3,0.5,0.5s0.3,0.5,0.5,0.8l3.2,6c0.2,0.4,0.4,0.7,0.6,1.1s0.4,0.7,0.5,1.1s0.3,0.7,0.5,1s0.3,0.7,0.5,1l0,0
	c0-0.6,0-1.2-0.1-1.9c0-0.6,0-1.3,0-1.8V289c0-0.1,0-0.2,0.1-0.2c0.1-0.1,0.1-0.1,0.3-0.2s0.3-0.1,0.5-0.1s0.4,0,0.8,0
	c0.3,0,0.5,0,0.7,0s0.3,0.1,0.5,0.1s0.2,0.1,0.2,0.2s0.1,0.1,0.1,0.2L104.1,303.7L104.1,303.7z M110.7,304.5c0,0.1,0,0.2-0.1,0.2
	c-0.1,0.1-0.1,0.1-0.3,0.2c-0.1,0-0.3,0.1-0.5,0.1s-0.5,0-0.8,0s-0.6,0-0.8,0c-0.2,0-0.4-0.1-0.5-0.1s-0.2-0.1-0.3-0.2
	c-0.1-0.1-0.1-0.1-0.1-0.2v-11.3c0-0.1,0-0.2,0.1-0.2c0.1-0.1,0.1-0.1,0.3-0.2c0.1,0,0.3-0.1,0.5-0.1s0.5,0,0.8,0s0.6,0,0.8,0
	c0.2,0,0.4,0.1,0.5,0.1s0.2,0.1,0.3,0.2c0.1,0.1,0.1,0.1,0.1,0.2V304.5z M110.5,290.6c-0.3,0.2-0.7,0.4-1.5,0.4
	c-0.7,0-1.2-0.1-1.5-0.4s-0.4-0.7-0.4-1.3s0.1-1.1,0.4-1.3s0.7-0.4,1.5-0.4c0.7,0,1.2,0.1,1.4,0.4c0.3,0.2,0.4,0.7,0.4,1.3
	C110.9,289.9,110.8,290.4,110.5,290.6z"/>
<path class="st0" d="M231.5,267.6c-15.9,0-28.7,12.8-28.7,28.7s12.8,28.7,28.7,28.7s28.7-12.8,28.7-28.7
	C260.2,280.5,247.4,267.6,231.5,267.6z M234.9,303.7c0,0.2,0,0.4-0.1,0.5c-0.1,0.2-0.2,0.3-0.3,0.4s-0.3,0.2-0.4,0.2
	c-0.2,0-0.3,0.1-0.5,0.1h-1.4c-0.3,0-0.6,0-0.8-0.1s-0.4-0.2-0.6-0.3c-0.2-0.2-0.4-0.4-0.5-0.6c-0.2-0.3-0.4-0.6-0.6-1l-4.1-7.7
	c-0.2-0.5-0.5-1-0.7-1.5s-0.5-1-0.7-1.5l0,0c0,0.6,0.1,1.2,0.1,1.8s0,1.2,0,1.9v8.6c0,0.1,0,0.2-0.1,0.2c0,0.1-0.1,0.1-0.2,0.2
	c-0.1,0.1-0.3,0.1-0.5,0.1s-0.4,0-0.8,0c-0.3,0-0.5,0-0.7,0s-0.3-0.1-0.5-0.1c-0.1,0-0.2-0.1-0.2-0.2s-0.1-0.1-0.1-0.2v-14.8
	c0-0.4,0.1-0.7,0.3-0.9c0.2-0.2,0.5-0.3,0.9-0.3h1.8c0.3,0,0.6,0,0.8,0.1s0.4,0.1,0.6,0.3c0.2,0.1,0.3,0.3,0.5,0.5s0.3,0.5,0.5,0.8
	l3.2,6c0.2,0.4,0.4,0.7,0.6,1.1c0.2,0.4,0.4,0.7,0.5,1.1s0.3,0.7,0.5,1s0.3,0.7,0.5,1l0,0c0-0.6,0-1.2-0.1-1.9c0-0.6,0-1.3,0-1.8
	V289c0-0.1,0-0.2,0.1-0.2c0.1-0.1,0.1-0.1,0.3-0.2s0.3-0.1,0.5-0.1s0.4,0,0.8,0c0.3,0,0.5,0,0.7,0s0.3,0.1,0.5,0.1s0.2,0.1,0.2,0.2
	s0.1,0.1,0.1,0.2L234.9,303.7L234.9,303.7z M241.5,304.5c0,0.1,0,0.2-0.1,0.2c-0.1,0.1-0.1,0.1-0.3,0.2c-0.1,0-0.3,0.1-0.5,0.1
	s-0.5,0-0.8,0s-0.6,0-0.8,0s-0.4-0.1-0.5-0.1s-0.2-0.1-0.3-0.2s-0.1-0.1-0.1-0.2v-11.3c0-0.1,0-0.2,0.1-0.2c0.1-0.1,0.1-0.1,0.3-0.2
	c0.1,0,0.3-0.1,0.5-0.1s0.5,0,0.8,0s0.6,0,0.8,0s0.4,0.1,0.5,0.1s0.2,0.1,0.3,0.2s0.1,0.1,0.1,0.2V304.5z M241.3,290.6
	c-0.3,0.2-0.7,0.4-1.5,0.4c-0.7,0-1.2-0.1-1.5-0.4s-0.4-0.7-0.4-1.3s0.1-1.1,0.4-1.3s0.7-0.4,1.5-0.4c0.7,0,1.2,0.1,1.4,0.4
	c0.3,0.2,0.4,0.7,0.4,1.3C241.7,289.9,241.6,290.4,241.3,290.6z"/>
<path class="st0" d="M362.3,267.6c-15.9,0-28.7,12.8-28.7,28.7s12.8,28.7,28.7,28.7s28.7-12.8,28.7-28.7
	C391,280.5,378.2,267.6,362.3,267.6z M365.6,303.7c0,0.2,0,0.4-0.1,0.5c-0.1,0.2-0.2,0.3-0.3,0.4c-0.1,0.1-0.3,0.2-0.4,0.2
	c-0.2,0-0.3,0.1-0.5,0.1h-1.4c-0.3,0-0.6,0-0.8-0.1s-0.4-0.2-0.6-0.3c-0.2-0.2-0.4-0.4-0.5-0.6c-0.2-0.3-0.4-0.6-0.6-1l-4.1-7.7
	c-0.2-0.5-0.5-1-0.7-1.5s-0.5-1-0.7-1.5l0,0c0,0.6,0.1,1.2,0.1,1.8s0,1.2,0,1.9v8.6c0,0.1,0,0.2-0.1,0.2c0,0.1-0.1,0.1-0.2,0.2
	s-0.3,0.1-0.5,0.1s-0.4,0-0.8,0c-0.3,0-0.5,0-0.7,0s-0.3-0.1-0.5-0.1c-0.1,0-0.2-0.1-0.2-0.2s-0.1-0.1-0.1-0.2v-14.8
	c0-0.4,0.1-0.7,0.3-0.9c0.2-0.2,0.5-0.3,0.9-0.3h1.8c0.3,0,0.6,0,0.8,0.1s0.4,0.1,0.6,0.3c0.2,0.1,0.3,0.3,0.5,0.5s0.3,0.5,0.5,0.8
	l3.2,6c0.2,0.4,0.4,0.7,0.6,1.1s0.4,0.7,0.5,1.1s0.3,0.7,0.5,1s0.3,0.7,0.5,1l0,0c0-0.6,0-1.2-0.1-1.9c0-0.6,0-1.3,0-1.8V289
	c0-0.1,0-0.2,0.1-0.2c0.1-0.1,0.1-0.1,0.3-0.2s0.3-0.1,0.5-0.1s0.4,0,0.8,0c0.3,0,0.5,0,0.7,0s0.3,0.1,0.5,0.1s0.2,0.1,0.2,0.2
	s0.1,0.1,0.1,0.2L365.6,303.7L365.6,303.7z M372.2,304.5c0,0.1,0,0.2-0.1,0.2c-0.1,0.1-0.1,0.1-0.3,0.2c-0.1,0-0.3,0.1-0.5,0.1
	s-0.5,0-0.8,0s-0.6,0-0.8,0s-0.4-0.1-0.5-0.1s-0.2-0.1-0.3-0.2c-0.1-0.1-0.1-0.1-0.1-0.2v-11.3c0-0.1,0-0.2,0.1-0.2
	c0.1-0.1,0.1-0.1,0.3-0.2c0.1,0,0.3-0.1,0.5-0.1s0.5,0,0.8,0s0.6,0,0.8,0s0.4,0.1,0.5,0.1s0.2,0.1,0.3,0.2c0.1,0.1,0.1,0.1,0.1,0.2
	V304.5z M372,290.6c-0.3,0.2-0.7,0.4-1.5,0.4c-0.7,0-1.2-0.1-1.5-0.4s-0.4-0.7-0.4-1.3s0.1-1.1,0.4-1.3s0.7-0.4,1.5-0.4
	c0.7,0,1.2,0.1,1.4,0.4c0.3,0.2,0.4,0.7,0.4,1.3C372.4,289.9,372.3,290.4,372,290.6z"/>
<path class="st0" d="M493,267.6c-15.9,0-28.7,12.8-28.7,28.7S477.1,325,493,325s28.7-12.8,28.7-28.7
	C521.7,280.5,508.9,267.6,493,267.6z M496.4,303.7c0,0.2,0,0.4-0.1,0.5c-0.1,0.2-0.2,0.3-0.3,0.4c-0.1,0.1-0.3,0.2-0.4,0.2
	c-0.2,0-0.3,0.1-0.5,0.1h-1.4c-0.3,0-0.6,0-0.8-0.1s-0.4-0.2-0.6-0.3c-0.2-0.2-0.4-0.4-0.5-0.6c-0.2-0.3-0.4-0.6-0.6-1l-4.1-7.7
	c-0.2-0.5-0.5-1-0.7-1.5s-0.5-1-0.7-1.5l0,0c0,0.6,0.1,1.2,0.1,1.8s0,1.2,0,1.9v8.6c0,0.1,0,0.2-0.1,0.2c0,0.1-0.1,0.1-0.2,0.2
	s-0.3,0.1-0.5,0.1s-0.4,0-0.8,0c-0.3,0-0.5,0-0.7,0s-0.3-0.1-0.5-0.1c-0.1,0-0.2-0.1-0.2-0.2s-0.1-0.1-0.1-0.2v-14.8
	c0-0.4,0.1-0.7,0.3-0.9c0.2-0.2,0.5-0.3,0.9-0.3h1.8c0.3,0,0.6,0,0.8,0.1s0.4,0.1,0.6,0.3c0.2,0.1,0.3,0.3,0.5,0.5s0.3,0.5,0.5,0.8
	l3.2,6c0.2,0.4,0.4,0.7,0.6,1.1s0.4,0.7,0.5,1.1s0.3,0.7,0.5,1s0.3,0.7,0.5,1l0,0c0-0.6,0-1.2-0.1-1.9c0-0.6,0-1.3,0-1.8V289
	c0-0.1,0-0.2,0.1-0.2c0.1-0.1,0.1-0.1,0.3-0.2s0.3-0.1,0.5-0.1s0.4,0,0.8,0c0.3,0,0.5,0,0.7,0s0.3,0.1,0.5,0.1s0.2,0.1,0.2,0.2
	s0.1,0.1,0.1,0.2L496.4,303.7L496.4,303.7z M503,304.5c0,0.1,0,0.2-0.1,0.2c-0.1,0.1-0.1,0.1-0.3,0.2c-0.1,0-0.3,0.1-0.5,0.1
	s-0.5,0-0.8,0s-0.6,0-0.8,0s-0.4-0.1-0.5-0.1s-0.2-0.1-0.3-0.2c-0.1-0.1-0.1-0.1-0.1-0.2v-11.3c0-0.1,0-0.2,0.1-0.2
	c0.1-0.1,0.1-0.1,0.3-0.2c0.1,0,0.3-0.1,0.5-0.1s0.5,0,0.8,0s0.6,0,0.8,0s0.4,0.1,0.5,0.1s0.2,0.1,0.3,0.2c0.1,0.1,0.1,0.1,0.1,0.2
	V304.5z M502.8,290.6c-0.3,0.2-0.7,0.4-1.5,0.4c-0.7,0-1.2-0.1-1.5-0.4s-0.4-0.7-0.4-1.3s0.1-1.1,0.4-1.3s0.7-0.4,1.5-0.4
	c0.7,0,1.2,0.1,1.4,0.4c0.3,0.2,0.4,0.7,0.4,1.3C503.2,289.9,503.1,290.4,502.8,290.6z"/>
<g id="big-g">
	<path class="st0" d="M35.4,71.4c-15.9,0-28.7,12.8-28.7,28.7s12.8,28.7,28.7,28.7s28.7-12.8,28.7-28.7S51.3,71.4,35.4,71.4z
		 M38.8,107.5c0,0.2,0,0.4-0.1,0.5c-0.1,0.2-0.2,0.3-0.3,0.4s-0.3,0.2-0.4,0.2c-0.2,0-0.3,0.1-0.5,0.1h-1.4c-0.3,0-0.6,0-0.8-0.1
		s-0.4-0.2-0.6-0.3c-0.2-0.2-0.4-0.4-0.5-0.6c-0.2-0.3-0.4-0.6-0.6-1L29.5,99c-0.2-0.5-0.5-1-0.7-1.5s-0.5-1-0.7-1.5l0,0
		c0,0.6,0.1,1.2,0.1,1.8s0,1.2,0,1.9v8.6c0,0.1,0,0.2-0.1,0.2c0,0.1-0.1,0.1-0.2,0.2s-0.3,0.1-0.5,0.1s-0.4,0-0.8,0
		c-0.3,0-0.5,0-0.7,0s-0.3-0.1-0.5-0.1c-0.1,0-0.2-0.1-0.2-0.2s-0.1-0.1-0.1-0.2V93.5c0-0.4,0.1-0.7,0.3-0.9
		c0.2-0.2,0.5-0.3,0.9-0.3h1.8c0.3,0,0.6,0,0.8,0.1s0.4,0.1,0.6,0.3c0.2,0.1,0.3,0.3,0.5,0.5s0.3,0.5,0.5,0.8l3.2,6
		c0.2,0.4,0.4,0.7,0.6,1.1c0.2,0.4,0.4,0.7,0.5,1.1s0.3,0.7,0.5,1s0.3,0.7,0.5,1l0,0c0-0.6,0-1.2-0.1-1.9c0-0.6,0-1.3,0-1.8v-7.7
		c0-0.1,0-0.2,0.1-0.2c0.1-0.1,0.1-0.1,0.3-0.2s0.3-0.1,0.5-0.1s0.4,0,0.8,0c0.3,0,0.5,0,0.7,0s0.3,0.1,0.5,0.1s0.2,0.1,0.2,0.2
		s0.1,0.1,0.1,0.2L38.8,107.5C38.9,107.5,38.8,107.5,38.8,107.5z M45.4,108.3c0,0.1,0,0.2-0.1,0.2c-0.1,0.1-0.1,0.1-0.3,0.2
		c-0.1,0-0.3,0.1-0.5,0.1s-0.5,0-0.8,0s-0.6,0-0.8,0s-0.4-0.1-0.5-0.1s-0.2-0.1-0.3-0.2s-0.1-0.1-0.1-0.2V97c0-0.1,0-0.2,0.1-0.2
		c0.1-0.1,0.1-0.1,0.3-0.2c0.1,0,0.3-0.1,0.5-0.1s0.5,0,0.8,0s0.6,0,0.8,0s0.4,0.1,0.5,0.1s0.2,0.1,0.3,0.2s0.1,0.1,0.1,0.2V108.3z
		 M45.2,94.4c-0.3,0.2-0.7,0.4-1.5,0.4c-0.7,0-1.2-0.1-1.5-0.4s-0.4-0.7-0.4-1.3s0.1-1.1,0.4-1.3c0.3-0.2,0.7-0.4,1.5-0.4
		c0.7,0,1.2,0.1,1.4,0.4c0.3,0.2,0.4,0.7,0.4,1.3C45.6,93.7,45.5,94.2,45.2,94.4z"/>
	<path class="st0" d="M166.1,71.4c-15.9,0-28.7,12.8-28.7,28.7s12.8,28.7,28.7,28.7s28.7-12.8,28.7-28.7S182,71.4,166.1,71.4z
		 M169.5,107.5c0,0.2,0,0.4-0.1,0.5c-0.1,0.2-0.2,0.3-0.3,0.4s-0.3,0.2-0.4,0.2c-0.2,0-0.3,0.1-0.5,0.1h-1.4c-0.3,0-0.6,0-0.8-0.1
		s-0.4-0.2-0.6-0.3c-0.2-0.2-0.4-0.4-0.5-0.6c-0.2-0.3-0.4-0.6-0.6-1l-4.1-7.7c-0.2-0.5-0.5-1-0.7-1.5s-0.5-1-0.7-1.5l0,0
		c0,0.6,0.1,1.2,0.1,1.8s0,1.2,0,1.9v8.6c0,0.1,0,0.2-0.1,0.2c0,0.1-0.1,0.1-0.2,0.2s-0.3,0.1-0.5,0.1s-0.4,0-0.8,0
		c-0.3,0-0.5,0-0.7,0s-0.3-0.1-0.5-0.1c-0.1,0-0.2-0.1-0.2-0.2s-0.1-0.1-0.1-0.2V93.5c0-0.4,0.1-0.7,0.3-0.9
		c0.2-0.2,0.5-0.3,0.9-0.3h1.8c0.3,0,0.6,0,0.8,0.1s0.4,0.1,0.6,0.3c0.2,0.1,0.3,0.3,0.5,0.5s0.3,0.5,0.5,0.8l3.2,6
		c0.2,0.4,0.4,0.7,0.6,1.1s0.4,0.7,0.5,1.1s0.3,0.7,0.5,1s0.3,0.7,0.5,1l0,0c0-0.6,0-1.2-0.1-1.9c0-0.6,0-1.3,0-1.8v-7.7
		c0-0.1,0-0.2,0.1-0.2c0.1-0.1,0.1-0.1,0.3-0.2s0.3-0.1,0.5-0.1s0.4,0,0.8,0c0.3,0,0.5,0,0.7,0s0.3,0.1,0.5,0.1s0.2,0.1,0.2,0.2
		s0.1,0.1,0.1,0.2L169.5,107.5L169.5,107.5z M176.1,108.3c0,0.1,0,0.2-0.1,0.2c-0.1,0.1-0.1,0.1-0.3,0.2c-0.1,0-0.3,0.1-0.5,0.1
		s-0.5,0-0.8,0s-0.6,0-0.8,0s-0.4-0.1-0.5-0.1s-0.2-0.1-0.3-0.2s-0.1-0.1-0.1-0.2V97c0-0.1,0-0.2,0.1-0.2c0.1-0.1,0.1-0.1,0.3-0.2
		c0.1,0,0.3-0.1,0.5-0.1s0.5,0,0.8,0s0.6,0,0.8,0s0.4,0.1,0.5,0.1s0.2,0.1,0.3,0.2s0.1,0.1,0.1,0.2V108.3z M175.9,94.4
		c-0.3,0.2-0.7,0.4-1.5,0.4c-0.7,0-1.2-0.1-1.5-0.4s-0.4-0.7-0.4-1.3s0.1-1.1,0.4-1.3c0.3-0.2,0.7-0.4,1.5-0.4
		c0.7,0,1.2,0.1,1.4,0.4c0.3,0.2,0.4,0.7,0.4,1.3C176.3,93.7,176.2,94.2,175.9,94.4z"/>
	<path class="st0" d="M296.9,71.4c-15.9,0-28.7,12.8-28.7,28.7s12.8,28.7,28.7,28.7s28.7-12.8,28.7-28.7S312.8,71.4,296.9,71.4z
		 M300.3,107.5c0,0.2,0,0.4-0.1,0.5c-0.1,0.2-0.2,0.3-0.3,0.4c-0.1,0.1-0.3,0.2-0.4,0.2c-0.2,0-0.3,0.1-0.5,0.1h-1.4
		c-0.3,0-0.6,0-0.8-0.1c-0.2-0.1-0.4-0.2-0.6-0.3c-0.2-0.2-0.4-0.4-0.5-0.6c-0.2-0.3-0.4-0.6-0.6-1L291,99c-0.2-0.5-0.5-1-0.7-1.5
		s-0.5-1-0.7-1.5l0,0c0,0.6,0.1,1.2,0.1,1.8s0,1.2,0,1.9v8.6c0,0.1,0,0.2-0.1,0.2c0,0.1-0.1,0.1-0.2,0.2s-0.3,0.1-0.5,0.1
		s-0.4,0-0.8,0c-0.3,0-0.5,0-0.7,0s-0.3-0.1-0.5-0.1c-0.1,0-0.2-0.1-0.2-0.2s-0.1-0.1-0.1-0.2V93.5c0-0.4,0.1-0.7,0.3-0.9
		c0.2-0.2,0.5-0.3,0.9-0.3h1.8c0.3,0,0.6,0,0.8,0.1c0.2,0.1,0.4,0.1,0.6,0.3c0.2,0.1,0.3,0.3,0.5,0.5s0.3,0.5,0.5,0.8l3.2,6
		c0.2,0.4,0.4,0.7,0.6,1.1s0.4,0.7,0.5,1.1s0.3,0.7,0.5,1s0.3,0.7,0.5,1l0,0c0-0.6,0-1.2-0.1-1.9c0-0.6,0-1.3,0-1.8v-7.7
		c0-0.1,0-0.2,0.1-0.2c0.1-0.1,0.1-0.1,0.3-0.2c0.2-0.1,0.3-0.1,0.5-0.1s0.4,0,0.8,0c0.3,0,0.5,0,0.7,0s0.3,0.1,0.5,0.1
		s0.2,0.1,0.2,0.2s0.1,0.1,0.1,0.2L300.3,107.5L300.3,107.5z M306.9,108.3c0,0.1,0,0.2-0.1,0.2c-0.1,0.1-0.1,0.1-0.3,0.2
		c-0.1,0-0.3,0.1-0.5,0.1s-0.5,0-0.8,0s-0.6,0-0.8,0c-0.2,0-0.4-0.1-0.5-0.1s-0.2-0.1-0.3-0.2c-0.1-0.1-0.1-0.1-0.1-0.2V97
		c0-0.1,0-0.2,0.1-0.2c0.1-0.1,0.1-0.1,0.3-0.2c0.1,0,0.3-0.1,0.5-0.1s0.5,0,0.8,0s0.6,0,0.8,0c0.2,0,0.4,0.1,0.5,0.1
		s0.2,0.1,0.3,0.2c0.1,0.1,0.1,0.1,0.1,0.2V108.3z M306.7,94.4c-0.3,0.2-0.7,0.4-1.5,0.4c-0.7,0-1.2-0.1-1.5-0.4s-0.4-0.7-0.4-1.3
		s0.1-1.1,0.4-1.3c0.3-0.2,0.7-0.4,1.5-0.4c0.7,0,1.2,0.1,1.4,0.4c0.3,0.2,0.4,0.7,0.4,1.3C307.1,93.7,307,94.2,306.7,94.4z"/>
	<path class="st0" d="M427.6,71.4c-15.9,0-28.7,12.8-28.7,28.7s12.8,28.7,28.7,28.7s28.7-12.8,28.7-28.7
		C456.3,84.3,443.5,71.4,427.6,71.4z M431,107.5c0,0.2,0,0.4-0.1,0.5c-0.1,0.2-0.2,0.3-0.3,0.4s-0.3,0.2-0.4,0.2
		c-0.2,0-0.3,0.1-0.5,0.1h-1.4c-0.3,0-0.6,0-0.8-0.1s-0.4-0.2-0.6-0.3c-0.2-0.2-0.4-0.4-0.5-0.6c-0.2-0.3-0.4-0.6-0.6-1l-4.1-7.7
		c-0.2-0.5-0.5-1-0.7-1.5s-0.5-1-0.7-1.5l0,0c0,0.6,0.1,1.2,0.1,1.8c0,0.6,0,1.2,0,1.9v8.6c0,0.1,0,0.2-0.1,0.2
		c0,0.1-0.1,0.1-0.2,0.2s-0.3,0.1-0.5,0.1s-0.4,0-0.8,0c-0.3,0-0.5,0-0.7,0s-0.3-0.1-0.5-0.1c-0.1,0-0.2-0.1-0.2-0.2
		s-0.1-0.1-0.1-0.2V93.5c0-0.4,0.1-0.7,0.3-0.9c0.2-0.2,0.5-0.3,0.9-0.3h1.8c0.3,0,0.6,0,0.8,0.1s0.4,0.1,0.6,0.3
		c0.2,0.1,0.3,0.3,0.5,0.5s0.3,0.5,0.5,0.8l3.2,6c0.2,0.4,0.4,0.7,0.6,1.1s0.4,0.7,0.5,1.1s0.3,0.7,0.5,1s0.3,0.7,0.5,1l0,0
		c0-0.6,0-1.2-0.1-1.9c0-0.6,0-1.3,0-1.8v-7.7c0-0.1,0-0.2,0.1-0.2c0.1-0.1,0.1-0.1,0.3-0.2s0.3-0.1,0.5-0.1s0.4,0,0.8,0
		c0.3,0,0.5,0,0.7,0s0.3,0.1,0.5,0.1s0.2,0.1,0.2,0.2s0.1,0.1,0.1,0.2L431,107.5L431,107.5z M437.6,108.3c0,0.1,0,0.2-0.1,0.2
		c-0.1,0.1-0.1,0.1-0.3,0.2c-0.1,0-0.3,0.1-0.5,0.1s-0.5,0-0.8,0s-0.6,0-0.8,0s-0.4-0.1-0.5-0.1s-0.2-0.1-0.3-0.2s-0.1-0.1-0.1-0.2
		V97c0-0.1,0-0.2,0.1-0.2c0.1-0.1,0.1-0.1,0.3-0.2c0.1,0,0.3-0.1,0.5-0.1s0.5,0,0.8,0s0.6,0,0.8,0s0.4,0.1,0.5,0.1s0.2,0.1,0.3,0.2
		s0.1,0.1,0.1,0.2V108.3z M437.4,94.4c-0.3,0.2-0.7,0.4-1.5,0.4c-0.7,0-1.2-0.1-1.5-0.4s-0.4-0.7-0.4-1.3c0-0.6,0.1-1.1,0.4-1.3
		s0.7-0.4,1.5-0.4c0.7,0,1.2,0.1,1.4,0.4c0.3,0.2,0.4,0.7,0.4,1.3C437.8,93.7,437.7,94.2,437.4,94.4z"/>
	<path class="st0" d="M-95.2,71.4c-15.9,0-28.7,12.8-28.7,28.7s12.8,28.7,28.7,28.7s28.7-12.8,28.7-28.7S-79.3,71.4-95.2,71.4z
		 M-91.8,107.5c0,0.2,0,0.4-0.1,0.5c-0.1,0.2-0.2,0.3-0.3,0.4s-0.3,0.2-0.4,0.2c-0.2,0-0.3,0.1-0.5,0.1h-1.4c-0.3,0-0.6,0-0.8-0.1
		s-0.4-0.2-0.6-0.3c-0.2-0.2-0.4-0.4-0.5-0.6c-0.2-0.3-0.4-0.6-0.6-1l-4.1-7.7c-0.2-0.5-0.5-1-0.7-1.5s-0.5-1-0.7-1.5l0,0
		c0,0.6,0.1,1.2,0.1,1.8s0,1.2,0,1.9v8.6c0,0.1,0,0.2-0.1,0.2c0,0.1-0.1,0.1-0.2,0.2s-0.3,0.1-0.5,0.1s-0.4,0-0.8,0
		c-0.3,0-0.5,0-0.7,0s-0.3-0.1-0.5-0.1c-0.1,0-0.2-0.1-0.2-0.2s-0.1-0.1-0.1-0.2V93.5c0-0.4,0.1-0.7,0.3-0.9
		c0.2-0.2,0.5-0.3,0.9-0.3h1.8c0.3,0,0.6,0,0.8,0.1s0.4,0.1,0.6,0.3c0.2,0.1,0.3,0.3,0.5,0.5s0.3,0.5,0.5,0.8l3.2,6
		c0.2,0.4,0.4,0.7,0.6,1.1c0.2,0.4,0.4,0.7,0.5,1.1s0.3,0.7,0.5,1s0.3,0.7,0.5,1l0,0c0-0.6,0-1.2-0.1-1.9c0-0.6,0-1.3,0-1.8v-7.7
		c0-0.1,0-0.2,0.1-0.2c0.1-0.1,0.1-0.1,0.3-0.2s0.3-0.1,0.5-0.1s0.4,0,0.8,0c0.3,0,0.5,0,0.7,0s0.3,0.1,0.5,0.1s0.2,0.1,0.2,0.2
		s0.1,0.1,0.1,0.2L-91.8,107.5L-91.8,107.5z M-85.2,108.3c0,0.1,0,0.2-0.1,0.2c-0.1,0.1-0.1,0.1-0.3,0.2c-0.1,0-0.3,0.1-0.5,0.1
		s-0.5,0-0.8,0s-0.6,0-0.8,0s-0.4-0.1-0.5-0.1s-0.2-0.1-0.3-0.2s-0.1-0.1-0.1-0.2V97c0-0.1,0-0.2,0.1-0.2c0.1-0.1,0.1-0.1,0.3-0.2
		c0.1,0,0.3-0.1,0.5-0.1s0.5,0,0.8,0s0.6,0,0.8,0s0.4,0.1,0.5,0.1s0.2,0.1,0.3,0.2s0.1,0.1,0.1,0.2V108.3z M-85.4,94.4
		c-0.3,0.2-0.7,0.4-1.5,0.4c-0.7,0-1.2-0.1-1.5-0.4s-0.4-0.7-0.4-1.3s0.1-1.1,0.4-1.3c0.3-0.2,0.7-0.4,1.5-0.4
		c0.7,0,1.2,0.1,1.4,0.4c0.3,0.2,0.4,0.7,0.4,1.3C-85,93.7-85.1,94.2-85.4,94.4z"/>
	<path class="st0" d="M100.8,6C84.9,6,72.1,18.8,72.1,34.7s12.8,28.7,28.7,28.7s28.7-12.8,28.7-28.7C129.5,18.9,116.7,6,100.8,6z
		 M104.1,42.1c0,0.2,0,0.4-0.1,0.5c-0.1,0.2-0.2,0.3-0.3,0.4c-0.1,0.1-0.3,0.2-0.4,0.2c-0.2,0-0.3,0.1-0.5,0.1h-1.4
		c-0.3,0-0.6,0-0.8-0.1c-0.2-0.1-0.4-0.2-0.6-0.3c-0.2-0.2-0.4-0.4-0.5-0.6c-0.2-0.3-0.4-0.6-0.6-1l-4.1-7.7c-0.2-0.5-0.5-1-0.7-1.5
		s-0.5-1-0.7-1.5l0,0c0,0.6,0.1,1.2,0.1,1.8s0,1.2,0,1.9v8.6c0,0.1,0,0.2-0.1,0.2c0,0.1-0.1,0.1-0.2,0.2s-0.3,0.1-0.5,0.1
		s-0.4,0-0.8,0c-0.3,0-0.5,0-0.7,0s-0.3-0.1-0.5-0.1c-0.1,0-0.2-0.1-0.2-0.2s-0.1-0.1-0.1-0.2V28.1c0-0.4,0.1-0.7,0.3-0.9
		c0.2-0.2,0.5-0.3,0.9-0.3h1.8c0.3,0,0.6,0,0.8,0.1c0.2,0.1,0.4,0.1,0.6,0.3c0.2,0.1,0.3,0.3,0.5,0.5s0.3,0.5,0.5,0.8l3.2,6
		c0.2,0.4,0.4,0.7,0.6,1.1s0.4,0.7,0.5,1.1s0.3,0.7,0.5,1s0.3,0.7,0.5,1l0,0c0-0.6,0-1.2-0.1-1.9c0-0.6,0-1.3,0-1.8v-7.7
		c0-0.1,0-0.2,0.1-0.2c0.1-0.1,0.1-0.1,0.3-0.2s0.3-0.1,0.5-0.1s0.4,0,0.8,0c0.3,0,0.5,0,0.7,0s0.3,0.1,0.5,0.1s0.2,0.1,0.2,0.2
		s0.1,0.1,0.1,0.2L104.1,42.1L104.1,42.1z M110.7,42.9c0,0.1,0,0.2-0.1,0.2c-0.1,0.1-0.1,0.1-0.3,0.2c-0.1,0-0.3,0.1-0.5,0.1
		s-0.5,0-0.8,0s-0.6,0-0.8,0c-0.2,0-0.4-0.1-0.5-0.1s-0.2-0.1-0.3-0.2c-0.1-0.1-0.1-0.1-0.1-0.2V31.6c0-0.1,0-0.2,0.1-0.2
		c0.1-0.1,0.1-0.1,0.3-0.2c0.1,0,0.3-0.1,0.5-0.1s0.5,0,0.8,0s0.6,0,0.8,0c0.2,0,0.4,0.1,0.5,0.1s0.2,0.1,0.3,0.2
		c0.1,0.1,0.1,0.1,0.1,0.2V42.9z M110.5,29c-0.3,0.2-0.7,0.4-1.5,0.4c-0.7,0-1.2-0.1-1.5-0.4s-0.4-0.7-0.4-1.3
		c0-0.6,0.1-1.1,0.4-1.3s0.7-0.4,1.5-0.4c0.7,0,1.2,0.1,1.4,0.4c0.3,0.2,0.4,0.7,0.4,1.3C110.9,28.3,110.8,28.8,110.5,29z"/>
	<path class="st0" d="M231.5,6c-15.9,0-28.7,12.8-28.7,28.7s12.8,28.7,28.7,28.7s28.7-12.8,28.7-28.7C260.2,18.9,247.4,6,231.5,6z
		 M234.9,42.1c0,0.2,0,0.4-0.1,0.5c-0.1,0.2-0.2,0.3-0.3,0.4c-0.1,0.1-0.3,0.2-0.4,0.2c-0.2,0-0.3,0.1-0.5,0.1h-1.4
		c-0.3,0-0.6,0-0.8-0.1s-0.4-0.2-0.6-0.3c-0.2-0.2-0.4-0.4-0.5-0.6c-0.2-0.3-0.4-0.6-0.6-1l-4.1-7.7c-0.2-0.5-0.5-1-0.7-1.5
		s-0.5-1-0.7-1.5l0,0c0,0.6,0.1,1.2,0.1,1.8s0,1.2,0,1.9v8.6c0,0.1,0,0.2-0.1,0.2c0,0.1-0.1,0.1-0.2,0.2s-0.3,0.1-0.5,0.1
		s-0.4,0-0.8,0c-0.3,0-0.5,0-0.7,0s-0.3-0.1-0.5-0.1c-0.1,0-0.2-0.1-0.2-0.2s-0.1-0.1-0.1-0.2V28.1c0-0.4,0.1-0.7,0.3-0.9
		c0.2-0.2,0.5-0.3,0.9-0.3h1.8c0.3,0,0.6,0,0.8,0.1s0.4,0.1,0.6,0.3c0.2,0.1,0.3,0.3,0.5,0.5s0.3,0.5,0.5,0.8l3.2,6
		c0.2,0.4,0.4,0.7,0.6,1.1s0.4,0.7,0.5,1.1s0.3,0.7,0.5,1s0.3,0.7,0.5,1l0,0c0-0.6,0-1.2-0.1-1.9c0-0.6,0-1.3,0-1.8v-7.7
		c0-0.1,0-0.2,0.1-0.2c0.1-0.1,0.1-0.1,0.3-0.2s0.3-0.1,0.5-0.1s0.4,0,0.8,0c0.3,0,0.5,0,0.7,0s0.3,0.1,0.5,0.1s0.2,0.1,0.2,0.2
		s0.1,0.1,0.1,0.2L234.9,42.1L234.9,42.1z M241.5,42.9c0,0.1,0,0.2-0.1,0.2c-0.1,0.1-0.1,0.1-0.3,0.2c-0.1,0-0.3,0.1-0.5,0.1
		s-0.5,0-0.8,0s-0.6,0-0.8,0s-0.4-0.1-0.5-0.1s-0.2-0.1-0.3-0.2c-0.1-0.1-0.1-0.1-0.1-0.2V31.6c0-0.1,0-0.2,0.1-0.2
		c0.1-0.1,0.1-0.1,0.3-0.2c0.1,0,0.3-0.1,0.5-0.1s0.5,0,0.8,0s0.6,0,0.8,0s0.4,0.1,0.5,0.1s0.2,0.1,0.3,0.2s0.1,0.1,0.1,0.2V42.9z
		 M241.3,29c-0.3,0.2-0.7,0.4-1.5,0.4c-0.7,0-1.2-0.1-1.5-0.4s-0.4-0.7-0.4-1.3c0-0.6,0.1-1.1,0.4-1.3s0.7-0.4,1.5-0.4
		c0.7,0,1.2,0.1,1.4,0.4c0.3,0.2,0.4,0.7,0.4,1.3C241.7,28.3,241.6,28.8,241.3,29z"/>
	<path class="st0" d="M362.3,6c-15.9,0-28.7,12.8-28.7,28.7s12.8,28.7,28.7,28.7S391,50.6,391,34.7C391,18.9,378.2,6,362.3,6z
		 M365.6,42.1c0,0.2,0,0.4-0.1,0.5c-0.1,0.2-0.2,0.3-0.3,0.4s-0.3,0.2-0.4,0.2c-0.2,0-0.3,0.1-0.5,0.1h-1.4c-0.3,0-0.6,0-0.8-0.1
		s-0.4-0.2-0.6-0.3c-0.2-0.2-0.4-0.4-0.5-0.6c-0.2-0.3-0.4-0.6-0.6-1l-4.1-7.7c-0.2-0.5-0.5-1-0.7-1.5s-0.5-1-0.7-1.5l0,0
		c0,0.6,0.1,1.2,0.1,1.8s0,1.2,0,1.9v8.6c0,0.1,0,0.2-0.1,0.2c0,0.1-0.1,0.1-0.2,0.2s-0.3,0.1-0.5,0.1s-0.4,0-0.8,0
		c-0.3,0-0.5,0-0.7,0s-0.3-0.1-0.5-0.1c-0.1,0-0.2-0.1-0.2-0.2s-0.1-0.1-0.1-0.2V28.1c0-0.4,0.1-0.7,0.3-0.9
		c0.2-0.2,0.5-0.3,0.9-0.3h1.8c0.3,0,0.6,0,0.8,0.1s0.4,0.1,0.6,0.3c0.2,0.1,0.3,0.3,0.5,0.5s0.3,0.5,0.5,0.8l3.2,6
		c0.2,0.4,0.4,0.7,0.6,1.1c0.2,0.4,0.4,0.7,0.5,1.1s0.3,0.7,0.5,1s0.3,0.7,0.5,1l0,0c0-0.6,0-1.2-0.1-1.9c0-0.6,0-1.3,0-1.8v-7.7
		c0-0.1,0-0.2,0.1-0.2c0.1-0.1,0.1-0.1,0.3-0.2s0.3-0.1,0.5-0.1s0.4,0,0.8,0c0.3,0,0.5,0,0.7,0s0.3,0.1,0.5,0.1s0.2,0.1,0.2,0.2
		s0.1,0.1,0.1,0.2L365.6,42.1L365.6,42.1z M372.2,42.9c0,0.1,0,0.2-0.1,0.2c-0.1,0.1-0.1,0.1-0.3,0.2c-0.1,0-0.3,0.1-0.5,0.1
		s-0.5,0-0.8,0s-0.6,0-0.8,0s-0.4-0.1-0.5-0.1s-0.2-0.1-0.3-0.2s-0.1-0.1-0.1-0.2V31.6c0-0.1,0-0.2,0.1-0.2c0.1-0.1,0.1-0.1,0.3-0.2
		c0.1,0,0.3-0.1,0.5-0.1s0.5,0,0.8,0s0.6,0,0.8,0s0.4,0.1,0.5,0.1s0.2,0.1,0.3,0.2s0.1,0.1,0.1,0.2V42.9z M372,29
		c-0.3,0.2-0.7,0.4-1.5,0.4c-0.7,0-1.2-0.1-1.5-0.4s-0.4-0.7-0.4-1.3c0-0.6,0.1-1.1,0.4-1.3s0.7-0.4,1.5-0.4c0.7,0,1.2,0.1,1.4,0.4
		c0.3,0.2,0.4,0.7,0.4,1.3C372.4,28.3,372.3,28.8,372,29z"/>
	<path class="st0" d="M493,6c-15.9,0-28.7,12.8-28.7,28.7s12.8,28.7,28.7,28.7s28.7-12.8,28.7-28.7C521.7,18.9,508.9,6,493,6z
		 M496.4,42.1c0,0.2,0,0.4-0.1,0.5c-0.1,0.2-0.2,0.3-0.3,0.4s-0.3,0.2-0.4,0.2c-0.2,0-0.3,0.1-0.5,0.1h-1.4c-0.3,0-0.6,0-0.8-0.1
		s-0.4-0.2-0.6-0.3c-0.2-0.2-0.4-0.4-0.5-0.6c-0.2-0.3-0.4-0.6-0.6-1l-4.1-7.7c-0.2-0.5-0.5-1-0.7-1.5s-0.5-1-0.7-1.5l0,0
		c0,0.6,0.1,1.2,0.1,1.8s0,1.2,0,1.9v8.6c0,0.1,0,0.2-0.1,0.2c0,0.1-0.1,0.1-0.2,0.2s-0.3,0.1-0.5,0.1s-0.4,0-0.8,0
		c-0.3,0-0.5,0-0.7,0s-0.3-0.1-0.5-0.1c-0.1,0-0.2-0.1-0.2-0.2s-0.1-0.1-0.1-0.2V28.1c0-0.4,0.1-0.7,0.3-0.9
		c0.2-0.2,0.5-0.3,0.9-0.3h1.8c0.3,0,0.6,0,0.8,0.1s0.4,0.1,0.6,0.3c0.2,0.1,0.3,0.3,0.5,0.5s0.3,0.5,0.5,0.8l3.2,6
		c0.2,0.4,0.4,0.7,0.6,1.1c0.2,0.4,0.4,0.7,0.5,1.1s0.3,0.7,0.5,1s0.3,0.7,0.5,1l0,0c0-0.6,0-1.2-0.1-1.9c0-0.6,0-1.3,0-1.8v-7.7
		c0-0.1,0-0.2,0.1-0.2c0.1-0.1,0.1-0.1,0.3-0.2s0.3-0.1,0.5-0.1s0.4,0,0.8,0c0.3,0,0.5,0,0.7,0s0.3,0.1,0.5,0.1s0.2,0.1,0.2,0.2
		s0.1,0.1,0.1,0.2L496.4,42.1L496.4,42.1z M503,42.9c0,0.1,0,0.2-0.1,0.2c-0.1,0.1-0.1,0.1-0.3,0.2c-0.1,0-0.3,0.1-0.5,0.1
		s-0.5,0-0.8,0s-0.6,0-0.8,0s-0.4-0.1-0.5-0.1s-0.2-0.1-0.3-0.2s-0.1-0.1-0.1-0.2V31.6c0-0.1,0-0.2,0.1-0.2c0.1-0.1,0.1-0.1,0.3-0.2
		c0.1,0,0.3-0.1,0.5-0.1s0.5,0,0.8,0s0.6,0,0.8,0s0.4,0.1,0.5,0.1s0.2,0.1,0.3,0.2s0.1,0.1,0.1,0.2V42.9z M502.8,29
		c-0.3,0.2-0.7,0.4-1.5,0.4c-0.7,0-1.2-0.1-1.5-0.4s-0.4-0.7-0.4-1.3c0-0.6,0.1-1.1,0.4-1.3s0.7-0.4,1.5-0.4c0.7,0,1.2,0.1,1.4,0.4
		c0.3,0.2,0.4,0.7,0.4,1.3C503.2,28.3,503.1,28.8,502.8,29z"/>
	<path class="st0" d="M623.7,6C607.8,6,595,18.8,595,34.7s12.8,28.7,28.7,28.7s28.7-12.8,28.7-28.7C652.4,18.9,639.6,6,623.7,6z
		 M627,42.1c0,0.2,0,0.4-0.1,0.5c-0.1,0.2-0.2,0.3-0.3,0.4c-0.1,0.1-0.3,0.2-0.4,0.2c-0.2,0-0.3,0.1-0.5,0.1h-1.4
		c-0.3,0-0.6,0-0.8-0.1s-0.4-0.2-0.6-0.3c-0.2-0.2-0.4-0.4-0.5-0.6c-0.2-0.3-0.4-0.6-0.6-1l-4.1-7.7c-0.2-0.5-0.5-1-0.7-1.5
		s-0.5-1-0.7-1.5l0,0c0,0.6,0.1,1.2,0.1,1.8s0,1.2,0,1.9v8.6c0,0.1,0,0.2-0.1,0.2c0,0.1-0.1,0.1-0.2,0.2c-0.1,0.1-0.3,0.1-0.5,0.1
		c-0.2,0-0.4,0-0.8,0c-0.3,0-0.5,0-0.7,0c-0.2,0-0.3-0.1-0.5-0.1c-0.1,0-0.2-0.1-0.2-0.2s-0.1-0.1-0.1-0.2V28.1
		c0-0.4,0.1-0.7,0.3-0.9c0.2-0.2,0.5-0.3,0.9-0.3h1.8c0.3,0,0.6,0,0.8,0.1s0.4,0.1,0.6,0.3c0.2,0.1,0.3,0.3,0.5,0.5s0.3,0.5,0.5,0.8
		l3.2,6c0.2,0.4,0.4,0.7,0.6,1.1c0.2,0.4,0.4,0.7,0.5,1.1c0.1,0.4,0.3,0.7,0.5,1c0.2,0.3,0.3,0.7,0.5,1l0,0c0-0.6,0-1.2-0.1-1.9
		c0-0.6,0-1.3,0-1.8v-7.7c0-0.1,0-0.2,0.1-0.2c0.1-0.1,0.1-0.1,0.3-0.2c0.2-0.1,0.3-0.1,0.5-0.1c0.2,0,0.4,0,0.8,0
		c0.3,0,0.5,0,0.7,0c0.2,0,0.3,0.1,0.5,0.1c0.2,0,0.2,0.1,0.2,0.2s0.1,0.1,0.1,0.2L627,42.1L627,42.1z M633.6,42.9
		c0,0.1,0,0.2-0.1,0.2c-0.1,0.1-0.1,0.1-0.3,0.2c-0.1,0-0.3,0.1-0.5,0.1s-0.5,0-0.8,0c-0.3,0-0.6,0-0.8,0c-0.2,0-0.4-0.1-0.5-0.1
		c-0.1,0-0.2-0.1-0.3-0.2c-0.1-0.1-0.1-0.1-0.1-0.2V31.6c0-0.1,0-0.2,0.1-0.2c0.1-0.1,0.1-0.1,0.3-0.2c0.1,0,0.3-0.1,0.5-0.1
		c0.2,0,0.5,0,0.8,0c0.3,0,0.6,0,0.8,0s0.4,0.1,0.5,0.1c0.1,0,0.2,0.1,0.3,0.2s0.1,0.1,0.1,0.2V42.9z M633.4,29
		c-0.3,0.2-0.7,0.4-1.5,0.4c-0.7,0-1.2-0.1-1.5-0.4c-0.3-0.3-0.4-0.7-0.4-1.3c0-0.6,0.1-1.1,0.4-1.3c0.3-0.2,0.7-0.4,1.5-0.4
		c0.7,0,1.2,0.1,1.4,0.4c0.3,0.2,0.4,0.7,0.4,1.3C633.8,28.3,633.7,28.8,633.4,29z"/>
	<path class="st0" d="M689.2,40.4c-15.9,0-28.7,12.8-28.7,28.7s12.8,28.7,28.7,28.7s28.7-12.8,28.7-28.7S705.1,40.4,689.2,40.4z
		 M692.6,76.5c0,0.2,0,0.4-0.1,0.5c-0.1,0.2-0.2,0.3-0.3,0.4c-0.1,0.1-0.3,0.2-0.4,0.2c-0.2,0-0.3,0.1-0.5,0.1h-1.4
		c-0.3,0-0.6,0-0.8-0.1c-0.2-0.1-0.4-0.2-0.6-0.3c-0.2-0.2-0.4-0.4-0.5-0.6c-0.2-0.3-0.4-0.6-0.6-1l-4.1-7.7c-0.2-0.5-0.5-1-0.7-1.5
		s-0.5-1-0.7-1.5l0,0c0,0.6,0.1,1.2,0.1,1.8s0,1.2,0,1.9v8.6c0,0.1,0,0.2-0.1,0.2c0,0.1-0.1,0.1-0.2,0.2s-0.3,0.1-0.5,0.1
		s-0.4,0-0.8,0c-0.3,0-0.5,0-0.7,0s-0.3-0.1-0.5-0.1c-0.1,0-0.2-0.1-0.2-0.2s-0.1-0.1-0.1-0.2V62.5c0-0.4,0.1-0.7,0.3-0.9
		c0.2-0.2,0.5-0.3,0.9-0.3h1.8c0.3,0,0.6,0,0.8,0.1c0.2,0.1,0.4,0.1,0.6,0.3c0.2,0.1,0.3,0.3,0.5,0.5c0.2,0.2,0.3,0.5,0.5,0.8l3.2,6
		c0.2,0.4,0.4,0.7,0.6,1.1s0.4,0.7,0.5,1.1s0.3,0.7,0.5,1s0.3,0.7,0.5,1l0,0c0-0.6,0-1.2-0.1-1.9c0-0.6,0-1.3,0-1.8v-7.7
		c0-0.1,0-0.2,0.1-0.2c0.1-0.1,0.1-0.1,0.3-0.2s0.3-0.1,0.5-0.1s0.4,0,0.8,0c0.3,0,0.5,0,0.7,0s0.3,0.1,0.5,0.1s0.2,0.1,0.2,0.2
		s0.1,0.1,0.1,0.2L692.6,76.5L692.6,76.5z M699.2,77.3c0,0.1,0,0.2-0.1,0.2c-0.1,0.1-0.1,0.1-0.3,0.2c-0.1,0-0.3,0.1-0.5,0.1
		s-0.5,0-0.8,0s-0.6,0-0.8,0c-0.2,0-0.4-0.1-0.5-0.1s-0.2-0.1-0.3-0.2c-0.1-0.1-0.1-0.1-0.1-0.2V66c0-0.1,0-0.2,0.1-0.2
		c0.1-0.1,0.1-0.1,0.3-0.2c0.1,0,0.3-0.1,0.5-0.1s0.5,0,0.8,0s0.6,0,0.8,0c0.2,0,0.4,0.1,0.5,0.1s0.2,0.1,0.3,0.2
		c0.1,0.1,0.1,0.1,0.1,0.2V77.3z M699,63.4c-0.3,0.2-0.7,0.4-1.5,0.4c-0.7,0-1.2-0.1-1.5-0.4s-0.4-0.7-0.4-1.3s0.1-1.1,0.4-1.3
		c0.3-0.2,0.7-0.4,1.5-0.4c0.7,0,1.2,0.1,1.4,0.4c0.3,0.2,0.4,0.7,0.4,1.3C699.4,62.7,699.3,63.2,699,63.4z"/>
	<path class="st0" d="M950.7,40.4c-15.9,0-28.7,12.8-28.7,28.7s12.8,28.7,28.7,28.7s28.7-12.8,28.7-28.7S966.6,40.4,950.7,40.4z
		 M954.1,76.5c0,0.2,0,0.4-0.1,0.5c-0.1,0.2-0.2,0.3-0.3,0.4s-0.3,0.2-0.4,0.2c-0.2,0-0.3,0.1-0.5,0.1h-1.4c-0.3,0-0.6,0-0.8-0.1
		s-0.4-0.2-0.6-0.3c-0.2-0.2-0.4-0.4-0.5-0.6c-0.2-0.3-0.4-0.6-0.6-1l-4.1-7.7c-0.2-0.5-0.5-1-0.7-1.5s-0.5-1-0.7-1.5l0,0
		c0,0.6,0.1,1.2,0.1,1.8s0,1.2,0,1.9v8.6c0,0.1,0,0.2-0.1,0.2c0,0.1-0.1,0.1-0.2,0.2s-0.3,0.1-0.5,0.1s-0.4,0-0.8,0
		c-0.3,0-0.5,0-0.7,0s-0.3-0.1-0.5-0.1c-0.1,0-0.2-0.1-0.2-0.2s-0.1-0.1-0.1-0.2V62.5c0-0.4,0.1-0.7,0.3-0.9
		c0.2-0.2,0.5-0.3,0.9-0.3h1.8c0.3,0,0.6,0,0.8,0.1s0.4,0.1,0.6,0.3c0.2,0.1,0.3,0.3,0.5,0.5s0.3,0.5,0.5,0.8l3.2,6
		c0.2,0.4,0.4,0.7,0.6,1.1c0.2,0.4,0.4,0.7,0.5,1.1s0.3,0.7,0.5,1s0.3,0.7,0.5,1l0,0c0-0.6,0-1.2-0.1-1.9c0-0.6,0-1.3,0-1.8v-7.7
		c0-0.1,0-0.2,0.1-0.2c0.1-0.1,0.1-0.1,0.3-0.2s0.3-0.1,0.5-0.1s0.4,0,0.8,0c0.3,0,0.5,0,0.7,0s0.3,0.1,0.5,0.1s0.2,0.1,0.2,0.2
		s0.1,0.1,0.1,0.2L954.1,76.5L954.1,76.5z M960.7,77.3c0,0.1,0,0.2-0.1,0.2c-0.1,0.1-0.1,0.1-0.3,0.2c-0.1,0-0.3,0.1-0.5,0.1
		s-0.5,0-0.8,0s-0.6,0-0.8,0s-0.4-0.1-0.5-0.1s-0.2-0.1-0.3-0.2s-0.1-0.1-0.1-0.2V66c0-0.1,0-0.2,0.1-0.2c0.1-0.1,0.1-0.1,0.3-0.2
		c0.1,0,0.3-0.1,0.5-0.1s0.5,0,0.8,0s0.6,0,0.8,0s0.4,0.1,0.5,0.1s0.2,0.1,0.3,0.2s0.1,0.1,0.1,0.2V77.3z M960.5,63.4
		c-0.3,0.2-0.7,0.4-1.5,0.4c-0.7,0-1.2-0.1-1.5-0.4s-0.4-0.7-0.4-1.3s0.1-1.1,0.4-1.3c0.3-0.2,0.7-0.4,1.5-0.4
		c0.7,0,1.2,0.1,1.4,0.4c0.3,0.2,0.4,0.7,0.4,1.3C960.9,62.7,960.8,63.2,960.5,63.4z"/>
	<path class="st0" d="M819.9,40.4c-15.9,0-28.7,12.8-28.7,28.7s12.8,28.7,28.7,28.7s28.7-12.8,28.7-28.7
		C848.6,53.3,835.8,40.4,819.9,40.4z M823.3,76.5c0,0.2,0,0.4-0.1,0.5c-0.1,0.2-0.2,0.3-0.3,0.4s-0.3,0.2-0.4,0.2
		c-0.2,0-0.3,0.1-0.5,0.1h-1.4c-0.3,0-0.6,0-0.8-0.1c-0.2-0.1-0.4-0.2-0.6-0.3c-0.2-0.2-0.4-0.4-0.5-0.6c-0.2-0.3-0.4-0.6-0.6-1
		L814,68c-0.2-0.5-0.5-1-0.7-1.5s-0.5-1-0.7-1.5l0,0c0,0.6,0.1,1.2,0.1,1.8c0,0.6,0,1.2,0,1.9v8.6c0,0.1,0,0.2-0.1,0.2
		c0,0.1-0.1,0.1-0.2,0.2s-0.3,0.1-0.5,0.1s-0.4,0-0.8,0c-0.3,0-0.5,0-0.7,0s-0.3-0.1-0.5-0.1c-0.1,0-0.2-0.1-0.2-0.2
		s-0.1-0.1-0.1-0.2V62.5c0-0.4,0.1-0.7,0.3-0.9c0.2-0.2,0.5-0.3,0.9-0.3h1.8c0.3,0,0.6,0,0.8,0.1s0.4,0.1,0.6,0.3
		c0.2,0.1,0.3,0.3,0.5,0.5c0.2,0.2,0.3,0.5,0.5,0.8l3.2,6c0.2,0.4,0.4,0.7,0.6,1.1s0.4,0.7,0.5,1.1s0.3,0.7,0.5,1s0.3,0.7,0.5,1l0,0
		c0-0.6,0-1.2-0.1-1.9c0-0.6,0-1.3,0-1.8v-7.7c0-0.1,0-0.2,0.1-0.2c0.1-0.1,0.1-0.1,0.3-0.2s0.3-0.1,0.5-0.1s0.4,0,0.8,0
		c0.3,0,0.5,0,0.7,0s0.3,0.1,0.5,0.1s0.2,0.1,0.2,0.2s0.1,0.1,0.1,0.2L823.3,76.5L823.3,76.5z M829.9,77.3c0,0.1,0,0.2-0.1,0.2
		c-0.1,0.1-0.1,0.1-0.3,0.2c-0.1,0-0.3,0.1-0.5,0.1s-0.5,0-0.8,0s-0.6,0-0.8,0s-0.4-0.1-0.5-0.1s-0.2-0.1-0.3-0.2s-0.1-0.1-0.1-0.2
		V66c0-0.1,0-0.2,0.1-0.2c0.1-0.1,0.1-0.1,0.3-0.2c0.1,0,0.3-0.1,0.5-0.1s0.5,0,0.8,0s0.6,0,0.8,0s0.4,0.1,0.5,0.1s0.2,0.1,0.3,0.2
		s0.1,0.1,0.1,0.2V77.3z M829.7,63.4c-0.3,0.2-0.7,0.4-1.5,0.4c-0.7,0-1.2-0.1-1.5-0.4c-0.3-0.3-0.4-0.7-0.4-1.3
		c0-0.6,0.1-1.1,0.4-1.3c0.3-0.2,0.7-0.4,1.5-0.4c0.7,0,1.2,0.1,1.4,0.4c0.3,0.2,0.4,0.7,0.4,1.3C830.1,62.7,830,63.2,829.7,63.4z"
		/>
	<path class="st0" d="M1016,6c-15.9,0-28.7,12.8-28.7,28.7s12.8,28.7,28.7,28.7c15.9,0,28.7-12.8,28.7-28.7
		C1044.7,18.9,1031.9,6,1016,6z M1019.3,42.1c0,0.2,0,0.4-0.1,0.5c-0.1,0.2-0.2,0.3-0.3,0.4c-0.1,0.1-0.3,0.2-0.4,0.2
		c-0.2,0-0.3,0.1-0.5,0.1h-1.4c-0.3,0-0.6,0-0.8-0.1s-0.4-0.2-0.6-0.3c-0.2-0.2-0.4-0.4-0.5-0.6c-0.2-0.3-0.4-0.6-0.6-1l-4.1-7.7
		c-0.2-0.5-0.5-1-0.7-1.5s-0.5-1-0.7-1.5l0,0c0,0.6,0.1,1.2,0.1,1.8s0,1.2,0,1.9v8.6c0,0.1,0,0.2-0.1,0.2c0,0.1-0.1,0.1-0.2,0.2
		c-0.1,0.1-0.3,0.1-0.5,0.1c-0.2,0-0.4,0-0.8,0c-0.3,0-0.5,0-0.7,0c-0.2,0-0.3-0.1-0.5-0.1c-0.1,0-0.2-0.1-0.2-0.2s-0.1-0.1-0.1-0.2
		V28.1c0-0.4,0.1-0.7,0.3-0.9c0.2-0.2,0.5-0.3,0.9-0.3h1.8c0.3,0,0.6,0,0.8,0.1s0.4,0.1,0.6,0.3c0.2,0.1,0.3,0.3,0.5,0.5
		s0.3,0.5,0.5,0.8l3.2,6c0.2,0.4,0.4,0.7,0.6,1.1c0.2,0.4,0.4,0.7,0.5,1.1c0.1,0.4,0.3,0.7,0.5,1c0.2,0.3,0.3,0.7,0.5,1l0,0
		c0-0.6,0-1.2-0.1-1.9c0-0.6,0-1.3,0-1.8v-7.7c0-0.1,0-0.2,0.1-0.2c0.1-0.1,0.1-0.1,0.3-0.2c0.2-0.1,0.3-0.1,0.5-0.1
		c0.2,0,0.4,0,0.8,0c0.3,0,0.5,0,0.7,0c0.2,0,0.3,0.1,0.5,0.1c0.2,0,0.2,0.1,0.2,0.2s0.1,0.1,0.1,0.2L1019.3,42.1L1019.3,42.1z
		 M1025.9,42.9c0,0.1,0,0.2-0.1,0.2c-0.1,0.1-0.1,0.1-0.3,0.2c-0.1,0-0.3,0.1-0.5,0.1c-0.2,0-0.5,0-0.8,0c-0.3,0-0.6,0-0.8,0
		c-0.2,0-0.4-0.1-0.5-0.1c-0.1,0-0.2-0.1-0.3-0.2c-0.1-0.1-0.1-0.1-0.1-0.2V31.6c0-0.1,0-0.2,0.1-0.2c0.1-0.1,0.1-0.1,0.3-0.2
		c0.1,0,0.3-0.1,0.5-0.1c0.2,0,0.5,0,0.8,0c0.3,0,0.6,0,0.8,0c0.2,0,0.4,0.1,0.5,0.1c0.1,0,0.2,0.1,0.3,0.2s0.1,0.1,0.1,0.2V42.9z
		 M1025.7,29c-0.3,0.2-0.7,0.4-1.5,0.4c-0.7,0-1.2-0.1-1.5-0.4c-0.3-0.3-0.4-0.7-0.4-1.3c0-0.6,0.1-1.1,0.4-1.3
		c0.3-0.2,0.7-0.4,1.5-0.4c0.7,0,1.2,0.1,1.4,0.4c0.3,0.2,0.4,0.7,0.4,1.3C1026.1,28.3,1026,28.8,1025.7,29z"/>
	<path class="st0" d="M-30,6c-15.9,0-28.7,12.8-28.7,28.7S-45.9,63.4-30,63.4S-1.3,50.6-1.3,34.7C-1.3,18.9-14.1,6-30,6z
		 M-26.6,42.1c0,0.2,0,0.4-0.1,0.5c-0.1,0.2-0.2,0.3-0.3,0.4s-0.3,0.2-0.4,0.2c-0.2,0-0.3,0.1-0.5,0.1h-1.4c-0.3,0-0.6,0-0.8-0.1
		s-0.4-0.2-0.6-0.3c-0.2-0.2-0.4-0.4-0.5-0.6c-0.2-0.3-0.4-0.6-0.6-1l-4.1-7.7c-0.2-0.5-0.5-1-0.7-1.5s-0.5-1-0.7-1.5l0,0
		c0,0.6,0.1,1.2,0.1,1.8s0,1.2,0,1.9v8.6c0,0.1,0,0.2-0.1,0.2c0,0.1-0.1,0.1-0.2,0.2s-0.3,0.1-0.5,0.1s-0.4,0-0.8,0
		c-0.3,0-0.5,0-0.7,0s-0.3-0.1-0.5-0.1c-0.1,0-0.2-0.1-0.2-0.2s-0.1-0.1-0.1-0.2V28.1c0-0.4,0.1-0.7,0.3-0.9
		c0.2-0.2,0.5-0.3,0.9-0.3h1.8c0.3,0,0.6,0,0.8,0.1s0.4,0.1,0.6,0.3c0.2,0.1,0.3,0.3,0.5,0.5s0.3,0.5,0.5,0.8l3.2,6
		c0.2,0.4,0.4,0.7,0.6,1.1c0.2,0.4,0.4,0.7,0.5,1.1s0.3,0.7,0.5,1s0.3,0.7,0.5,1l0,0c0-0.6,0-1.2-0.1-1.9c0-0.6,0-1.3,0-1.8v-7.7
		c0-0.1,0-0.2,0.1-0.2c0.1-0.1,0.1-0.1,0.3-0.2s0.3-0.1,0.5-0.1s0.4,0,0.8,0c0.3,0,0.5,0,0.7,0S-27,27-26.8,27s0.2,0.1,0.2,0.2
		s0.1,0.1,0.1,0.2L-26.6,42.1L-26.6,42.1z M-20,42.9c0,0.1,0,0.2-0.1,0.2c-0.1,0.1-0.1,0.1-0.3,0.2c-0.1,0-0.3,0.1-0.5,0.1
		s-0.5,0-0.8,0s-0.6,0-0.8,0s-0.4-0.1-0.5-0.1s-0.2-0.1-0.3-0.2s-0.1-0.1-0.1-0.2V31.6c0-0.1,0-0.2,0.1-0.2c0.1-0.1,0.1-0.1,0.3-0.2
		c0.1,0,0.3-0.1,0.5-0.1s0.5,0,0.8,0s0.6,0,0.8,0s0.4,0.1,0.5,0.1s0.2,0.1,0.3,0.2s0.1,0.1,0.1,0.2V42.9z M-20.2,29
		c-0.3,0.2-0.7,0.4-1.5,0.4c-0.7,0-1.2-0.1-1.5-0.4s-0.4-0.7-0.4-1.3c0-0.6,0.1-1.1,0.4-1.3s0.7-0.4,1.5-0.4c0.7,0,1.2,0.1,1.4,0.4
		c0.3,0.2,0.4,0.7,0.4,1.3C-19.8,28.3-19.9,28.8-20.2,29z"/>
	<path class="st0" d="M754.4,6c-15.9,0-28.7,12.8-28.7,28.7s12.8,28.7,28.7,28.7c15.9,0,28.7-12.8,28.7-28.7
		C783.1,18.9,770.3,6,754.4,6z M757.8,42.1c0,0.2,0,0.4-0.1,0.5c-0.1,0.2-0.2,0.3-0.3,0.4c-0.1,0.1-0.3,0.2-0.4,0.2
		c-0.2,0-0.3,0.1-0.5,0.1h-1.4c-0.3,0-0.6,0-0.8-0.1s-0.4-0.2-0.6-0.3c-0.2-0.2-0.4-0.4-0.5-0.6c-0.2-0.3-0.4-0.6-0.6-1l-4.1-7.7
		c-0.2-0.5-0.5-1-0.7-1.5s-0.5-1-0.7-1.5l0,0c0,0.6,0.1,1.2,0.1,1.8s0,1.2,0,1.9v8.6c0,0.1,0,0.2-0.1,0.2c0,0.1-0.1,0.1-0.2,0.2
		c-0.1,0.1-0.3,0.1-0.5,0.1c-0.2,0-0.4,0-0.8,0c-0.3,0-0.5,0-0.7,0c-0.2,0-0.3-0.1-0.5-0.1c-0.1,0-0.2-0.1-0.2-0.2s-0.1-0.1-0.1-0.2
		V28.1c0-0.4,0.1-0.7,0.3-0.9c0.2-0.2,0.5-0.3,0.9-0.3h1.8c0.3,0,0.6,0,0.8,0.1c0.2,0.1,0.4,0.1,0.6,0.3c0.2,0.1,0.3,0.3,0.5,0.5
		s0.3,0.5,0.5,0.8l3.2,6c0.2,0.4,0.4,0.7,0.6,1.1s0.4,0.7,0.5,1.1c0.1,0.4,0.3,0.7,0.5,1s0.3,0.7,0.5,1l0,0c0-0.6,0-1.2-0.1-1.9
		c0-0.6,0-1.3,0-1.8v-7.7c0-0.1,0-0.2,0.1-0.2c0.1-0.1,0.1-0.1,0.3-0.2c0.2-0.1,0.3-0.1,0.5-0.1c0.2,0,0.4,0,0.8,0
		c0.3,0,0.5,0,0.7,0c0.2,0,0.3,0.1,0.5,0.1c0.2,0,0.2,0.1,0.2,0.2s0.1,0.1,0.1,0.2L757.8,42.1L757.8,42.1z M764.4,42.9
		c0,0.1,0,0.2-0.1,0.2c-0.1,0.1-0.1,0.1-0.3,0.2c-0.1,0-0.3,0.1-0.5,0.1s-0.5,0-0.8,0c-0.3,0-0.6,0-0.8,0c-0.2,0-0.4-0.1-0.5-0.1
		c-0.1,0-0.2-0.1-0.3-0.2C761,43,761,43,761,42.9V31.6c0-0.1,0-0.2,0.1-0.2c0.1-0.1,0.1-0.1,0.3-0.2c0.1,0,0.3-0.1,0.5-0.1
		c0.2,0,0.5,0,0.8,0c0.3,0,0.6,0,0.8,0s0.4,0.1,0.5,0.1c0.1,0,0.2,0.1,0.3,0.2c0.1,0.1,0.1,0.1,0.1,0.2V42.9z M764.2,29
		c-0.3,0.2-0.7,0.4-1.5,0.4c-0.7,0-1.2-0.1-1.5-0.4s-0.4-0.7-0.4-1.3c0-0.6,0.1-1.1,0.4-1.3s0.7-0.4,1.5-0.4c0.7,0,1.2,0.1,1.4,0.4
		c0.3,0.2,0.4,0.7,0.4,1.3C764.6,28.3,764.5,28.8,764.2,29z"/>
	<path class="st0" d="M885.2,6c-15.9,0-28.7,12.8-28.7,28.7s12.8,28.7,28.7,28.7s28.7-12.8,28.7-28.7C913.9,18.9,901.1,6,885.2,6z
		 M888.5,42.1c0,0.2,0,0.4-0.1,0.5c-0.1,0.2-0.2,0.3-0.3,0.4s-0.3,0.2-0.4,0.2c-0.2,0-0.3,0.1-0.5,0.1h-1.4c-0.3,0-0.6,0-0.8-0.1
		c-0.2-0.1-0.4-0.2-0.6-0.3c-0.2-0.2-0.4-0.4-0.5-0.6c-0.2-0.3-0.4-0.6-0.6-1l-4.1-7.7c-0.2-0.5-0.5-1-0.7-1.5s-0.5-1-0.7-1.5l0,0
		c0,0.6,0.1,1.2,0.1,1.8s0,1.2,0,1.9v8.6c0,0.1,0,0.2-0.1,0.2c0,0.1-0.1,0.1-0.2,0.2c-0.1,0.1-0.3,0.1-0.5,0.1s-0.4,0-0.8,0
		c-0.3,0-0.5,0-0.7,0s-0.3-0.1-0.5-0.1c-0.1,0-0.2-0.1-0.2-0.2s-0.1-0.1-0.1-0.2V28.1c0-0.4,0.1-0.7,0.3-0.9
		c0.2-0.2,0.5-0.3,0.9-0.3h1.8c0.3,0,0.6,0,0.8,0.1c0.2,0.1,0.4,0.1,0.6,0.3c0.2,0.1,0.3,0.3,0.5,0.5s0.3,0.5,0.5,0.8l3.2,6
		c0.2,0.4,0.4,0.7,0.6,1.1c0.2,0.4,0.4,0.7,0.5,1.1c0.1,0.4,0.3,0.7,0.5,1s0.3,0.7,0.5,1l0,0c0-0.6,0-1.2-0.1-1.9c0-0.6,0-1.3,0-1.8
		v-7.7c0-0.1,0-0.2,0.1-0.2c0.1-0.1,0.1-0.1,0.3-0.2c0.2-0.1,0.3-0.1,0.5-0.1s0.4,0,0.8,0c0.3,0,0.5,0,0.7,0s0.3,0.1,0.5,0.1
		s0.2,0.1,0.2,0.2s0.1,0.1,0.1,0.2L888.5,42.1L888.5,42.1z M895.1,42.9c0,0.1,0,0.2-0.1,0.2c-0.1,0.1-0.1,0.1-0.3,0.2
		c-0.1,0-0.3,0.1-0.5,0.1s-0.5,0-0.8,0s-0.6,0-0.8,0c-0.2,0-0.4-0.1-0.5-0.1c-0.1,0-0.2-0.1-0.3-0.2s-0.1-0.1-0.1-0.2V31.6
		c0-0.1,0-0.2,0.1-0.2c0.1-0.1,0.1-0.1,0.3-0.2c0.1,0,0.3-0.1,0.5-0.1s0.5,0,0.8,0s0.6,0,0.8,0c0.2,0,0.4,0.1,0.5,0.1
		c0.1,0,0.2,0.1,0.3,0.2s0.1,0.1,0.1,0.2V42.9z M894.9,29c-0.3,0.2-0.7,0.4-1.5,0.4c-0.7,0-1.2-0.1-1.5-0.4s-0.4-0.7-0.4-1.3
		c0-0.6,0.1-1.1,0.4-1.3s0.7-0.4,1.5-0.4c0.7,0,1.2,0.1,1.4,0.4c0.3,0.2,0.4,0.7,0.4,1.3C895.3,28.3,895.2,28.8,894.9,29z"/>
</g>
<g>
	<g>
		<path class="st1" d="M656.8,121.6c-16.4,0-29.8,13.3-29.8,29.8s13.3,29.8,29.8,29.8c16.4,0,29.8-13.3,29.8-29.8
			S673.3,121.6,656.8,121.6z M661.6,159.9c-0.1,0.1-0.3,0.1-0.5,0.2c-0.2,0-0.5,0-1,0c-0.4,0-0.7,0-1,0c-0.2,0-0.4,0-0.5-0.1
			c-0.1,0-0.2-0.1-0.3-0.2c0-0.1-0.1-0.2-0.1-0.3l-1.1-3.2h-6l-1,3.1c0,0.1-0.1,0.2-0.1,0.3c-0.1,0.1-0.1,0.1-0.3,0.2
			c-0.1,0-0.3,0.1-0.5,0.1s-0.5,0-0.9,0s-0.7,0-0.9,0s-0.4-0.1-0.4-0.2c-0.1-0.1-0.1-0.2-0.1-0.4s0.1-0.4,0.2-0.7l4.9-14.2
			c0-0.1,0.1-0.3,0.2-0.3c0.1-0.1,0.2-0.2,0.3-0.2s0.3-0.1,0.6-0.1s0.6,0,1,0c0.5,0,0.9,0,1.2,0s0.5,0,0.7,0.1
			c0.2,0,0.3,0.1,0.3,0.2c0.1,0.1,0.1,0.2,0.2,0.4l5,14.2c0.1,0.3,0.2,0.5,0.2,0.7C661.7,159.6,661.7,159.8,661.6,159.9z
			 M666.7,159.5c0,0.1,0,0.2-0.1,0.2c-0.1,0.1-0.1,0.1-0.3,0.2c-0.1,0-0.3,0.1-0.5,0.1s-0.5,0-0.8,0s-0.6,0-0.8,0s-0.4-0.1-0.5-0.1
			s-0.2-0.1-0.3-0.2c0-0.1-0.1-0.1-0.1-0.2v-16.2c0-0.1,0-0.2,0.1-0.2c0-0.1,0.1-0.1,0.3-0.2c0.1,0,0.3-0.1,0.5-0.1s0.5,0,0.8,0
			s0.6,0,0.8,0s0.4,0.1,0.5,0.1s0.2,0.1,0.3,0.2c0,0.1,0.1,0.1,0.1,0.2V159.5z"/>
		<polygon class="st1" points="654.2,147 651.9,153.8 656.4,153.8 		"/>
	</g>
	<g>
		<path class="st1" d="M814.3,122.3c-16.4,0-29.8,13.3-29.8,29.8s13.3,29.8,29.8,29.8c16.4,0,29.8-13.3,29.8-29.8
			S830.8,122.3,814.3,122.3z M819.1,160.6c-0.1,0.1-0.3,0.1-0.5,0.2c-0.2,0-0.5,0-1,0c-0.4,0-0.7,0-1,0c-0.2,0-0.4,0-0.5-0.1
			c-0.1,0-0.2-0.1-0.3-0.2c0-0.1-0.1-0.2-0.1-0.3l-1.1-3.2h-6l-1,3.1c0,0.1-0.1,0.2-0.1,0.3c-0.1,0.1-0.1,0.1-0.3,0.2
			c-0.1,0-0.3,0.1-0.5,0.1s-0.5,0-0.9,0s-0.7,0-0.9,0s-0.4-0.1-0.4-0.2c-0.1-0.1-0.1-0.2-0.1-0.4s0.1-0.4,0.2-0.7l4.9-14.2
			c0-0.1,0.1-0.3,0.2-0.3c0.1-0.1,0.2-0.2,0.3-0.2s0.3-0.1,0.6-0.1s0.6,0,1,0c0.5,0,0.9,0,1.2,0s0.5,0,0.7,0.1
			c0.2,0,0.3,0.1,0.3,0.2c0.1,0.1,0.1,0.2,0.2,0.4l5,14.2c0.1,0.3,0.2,0.5,0.2,0.7C819.2,160.3,819.2,160.5,819.1,160.6z
			 M824.2,160.3c0,0.1,0,0.2-0.1,0.2c-0.1,0.1-0.1,0.1-0.3,0.2c-0.1,0-0.3,0.1-0.5,0.1s-0.5,0-0.8,0s-0.6,0-0.8,0s-0.4-0.1-0.5-0.1
			s-0.2-0.1-0.3-0.2c0-0.1-0.1-0.1-0.1-0.2v-16.2c0-0.1,0-0.2,0.1-0.2c0-0.1,0.1-0.1,0.3-0.2c0.1,0,0.3-0.1,0.5-0.1s0.5,0,0.8,0
			s0.6,0,0.8,0s0.4,0.1,0.5,0.1s0.2,0.1,0.3,0.2c0,0.1,0.1,0.1,0.1,0.2V160.3z"/>
		<polygon class="st1" points="811.7,147.8 809.4,154.5 813.9,154.5 		"/>
	</g>
	<path class="st0" d="M735.6,201.5c-15.9,0-28.7,12.8-28.7,28.7s12.8,28.7,28.7,28.7s28.7-12.8,28.7-28.7
		C764.3,214.4,751.5,201.5,735.6,201.5z M739,237.6c0,0.2,0,0.4-0.1,0.5c-0.1,0.2-0.2,0.3-0.3,0.4s-0.3,0.2-0.4,0.2
		c-0.2,0-0.3,0.1-0.5,0.1h-1.4c-0.3,0-0.6,0-0.8-0.1s-0.4-0.2-0.6-0.3c-0.2-0.2-0.4-0.4-0.5-0.6c-0.2-0.3-0.4-0.6-0.6-1l-4.1-7.7
		c-0.2-0.5-0.5-1-0.7-1.5s-0.5-1-0.7-1.5l0,0c0,0.6,0.1,1.2,0.1,1.8s0,1.2,0,1.9v8.6c0,0.1,0,0.2-0.1,0.2c0,0.1-0.1,0.1-0.2,0.2
		c-0.1,0.1-0.3,0.1-0.5,0.1s-0.4,0-0.8,0c-0.3,0-0.5,0-0.7,0s-0.3-0.1-0.5-0.1c-0.1,0-0.2-0.1-0.2-0.2s-0.1-0.1-0.1-0.2v-14.8
		c0-0.4,0.1-0.7,0.3-0.9s0.5-0.3,0.9-0.3h1.8c0.3,0,0.6,0,0.8,0.1s0.4,0.1,0.6,0.3c0.2,0.1,0.3,0.3,0.5,0.5s0.3,0.5,0.5,0.8l3.2,6
		c0.2,0.4,0.4,0.7,0.6,1.1c0.2,0.4,0.4,0.7,0.5,1.1s0.3,0.7,0.5,1s0.3,0.7,0.5,1l0,0c0-0.6,0-1.2-0.1-1.9c0-0.6,0-1.3,0-1.8V223
		c0-0.1,0-0.2,0.1-0.2c0.1-0.1,0.1-0.1,0.3-0.2s0.3-0.1,0.5-0.1s0.4,0,0.8,0c0.3,0,0.5,0,0.7,0s0.3,0.1,0.5,0.1s0.2,0.1,0.2,0.2
		s0.1,0.1,0.1,0.2L739,237.6L739,237.6z M745.6,238.4c0,0.1,0,0.2-0.1,0.2c-0.1,0.1-0.1,0.1-0.3,0.2c-0.1,0-0.3,0.1-0.5,0.1
		s-0.5,0-0.8,0s-0.6,0-0.8,0s-0.4-0.1-0.5-0.1s-0.2-0.1-0.3-0.2s-0.1-0.1-0.1-0.2v-11.3c0-0.1,0-0.2,0.1-0.2
		c0.1-0.1,0.1-0.1,0.3-0.2c0.1,0,0.3-0.1,0.5-0.1s0.5,0,0.8,0s0.6,0,0.8,0s0.4,0.1,0.5,0.1s0.2,0.1,0.3,0.2s0.1,0.1,0.1,0.2V238.4z
		 M745.4,224.5c-0.3,0.2-0.7,0.4-1.5,0.4c-0.7,0-1.2-0.1-1.5-0.4s-0.4-0.7-0.4-1.3s0.1-1.1,0.4-1.3c0.3-0.2,0.7-0.4,1.5-0.4
		c0.7,0,1.2,0.1,1.4,0.4c0.3,0.2,0.4,0.7,0.4,1.3C745.8,223.9,745.7,224.4,745.4,224.5z"/>
	<g>
		<path class="st1" d="M656.8,279.1c-16.4,0-29.8,13.3-29.8,29.8s13.3,29.8,29.8,29.8c16.4,0,29.8-13.3,29.8-29.8
			S673.3,279.1,656.8,279.1z M661.6,317.4c-0.1,0.1-0.3,0.1-0.5,0.2c-0.2,0-0.5,0-1,0c-0.4,0-0.7,0-1,0c-0.2,0-0.4,0-0.5-0.1
			c-0.1,0-0.2-0.1-0.3-0.2c0-0.1-0.1-0.2-0.1-0.3l-1.1-3.2h-6l-1,3.1c0,0.1-0.1,0.2-0.1,0.3c-0.1,0.1-0.1,0.1-0.3,0.2
			c-0.1,0-0.3,0.1-0.5,0.1s-0.5,0-0.9,0s-0.7,0-0.9,0s-0.4-0.1-0.4-0.2c-0.1-0.1-0.1-0.2-0.1-0.4c0-0.2,0.1-0.4,0.2-0.7L652,302
			c0-0.1,0.1-0.3,0.2-0.3c0.1-0.1,0.2-0.2,0.3-0.2s0.3-0.1,0.6-0.1s0.6,0,1,0c0.5,0,0.9,0,1.2,0s0.5,0,0.7,0.1
			c0.2,0,0.3,0.1,0.3,0.2c0.1,0.1,0.1,0.2,0.2,0.4l5,14.2c0.1,0.3,0.2,0.5,0.2,0.7C661.7,317.1,661.7,317.4,661.6,317.4z M666.7,317
			c0,0.1,0,0.2-0.1,0.2c-0.1,0.1-0.1,0.1-0.3,0.2c-0.1,0-0.3,0.1-0.5,0.1s-0.5,0-0.8,0s-0.6,0-0.8,0s-0.4-0.1-0.5-0.1
			s-0.2-0.1-0.3-0.2c0-0.1-0.1-0.1-0.1-0.2v-16.2c0-0.1,0-0.2,0.1-0.2c0-0.1,0.1-0.1,0.3-0.2c0.1,0,0.3-0.1,0.5-0.1s0.5,0,0.8,0
			s0.6,0,0.8,0s0.4,0.1,0.5,0.1s0.2,0.1,0.3,0.2c0,0.1,0.1,0.1,0.1,0.2V317z"/>
		<polygon class="st1" points="654.2,304.5 651.9,311.4 656.4,311.4 		"/>
	</g>
	<g>
		<path class="st1" d="M814.3,279.9c-16.4,0-29.8,13.3-29.8,29.8s13.3,29.8,29.8,29.8c16.4,0,29.8-13.3,29.8-29.8
			S830.8,279.9,814.3,279.9z M819.1,318.1c-0.1,0.1-0.3,0.1-0.5,0.2c-0.2,0-0.5,0-1,0c-0.4,0-0.7,0-1,0c-0.2,0-0.4,0-0.5-0.1
			c-0.1,0-0.2-0.1-0.3-0.2c0-0.1-0.1-0.2-0.1-0.3l-1.1-3.2h-6l-1,3.1c0,0.1-0.1,0.2-0.1,0.3c-0.1,0.1-0.1,0.1-0.3,0.2
			c-0.1,0-0.3,0.1-0.5,0.1s-0.5,0-0.9,0s-0.7,0-0.9,0s-0.4-0.1-0.4-0.2c-0.1-0.1-0.1-0.2-0.1-0.4c0-0.2,0.1-0.4,0.2-0.7l4.9-14.2
			c0-0.1,0.1-0.3,0.2-0.3c0.1-0.1,0.2-0.2,0.3-0.2s0.3-0.1,0.6-0.1s0.6,0,1,0c0.5,0,0.9,0,1.2,0s0.5,0,0.7,0.1
			c0.2,0,0.3,0.1,0.3,0.2c0.1,0.1,0.1,0.2,0.2,0.4l5,14.2c0.1,0.3,0.2,0.5,0.2,0.7C819.2,317.9,819.2,318,819.1,318.1z M824.2,317.8
			c0,0.1,0,0.2-0.1,0.2c-0.1,0.1-0.1,0.1-0.3,0.2c-0.1,0-0.3,0.1-0.5,0.1s-0.5,0-0.8,0s-0.6,0-0.8,0s-0.4-0.1-0.5-0.1
			s-0.2-0.1-0.3-0.2c0-0.1-0.1-0.1-0.1-0.2v-16.2c0-0.1,0-0.2,0.1-0.2c0-0.1,0.1-0.1,0.3-0.2c0.1,0,0.3-0.1,0.5-0.1s0.5,0,0.8,0
			s0.6,0,0.8,0s0.4,0.1,0.5,0.1s0.2,0.1,0.3,0.2c0,0.1,0.1,0.1,0.1,0.2V317.8z"/>
		<polygon class="st1" points="811.7,305.3 809.4,312 813.9,312 		"/>
	</g>
	<g>
		<path class="st1" d="M972.5,122.3c-16.4,0-29.8,13.3-29.8,29.8s13.3,29.8,29.8,29.8c16.4,0,29.8-13.3,29.8-29.8
			S989,122.3,972.5,122.3z M977.3,160.6c-0.1,0.1-0.3,0.1-0.5,0.2c-0.2,0-0.5,0-1,0c-0.4,0-0.7,0-1,0c-0.2,0-0.4,0-0.5-0.1
			c-0.1,0-0.2-0.1-0.3-0.2c0-0.1-0.1-0.2-0.1-0.3l-1.1-3.2h-6l-1,3.1c0,0.1-0.1,0.2-0.1,0.3c-0.1,0.1-0.1,0.1-0.3,0.2
			c-0.1,0-0.3,0.1-0.5,0.1s-0.5,0-0.9,0s-0.7,0-0.9,0s-0.4-0.1-0.4-0.2c-0.1-0.1-0.1-0.2-0.1-0.4s0.1-0.4,0.2-0.7l4.9-14.2
			c0-0.1,0.1-0.3,0.2-0.3c0.1-0.1,0.2-0.2,0.3-0.2s0.3-0.1,0.6-0.1s0.6,0,1,0c0.5,0,0.9,0,1.2,0s0.5,0,0.7,0.1
			c0.2,0,0.3,0.1,0.3,0.2c0.1,0.1,0.1,0.2,0.2,0.4l5,14.2c0.1,0.3,0.2,0.5,0.2,0.7C977.4,160.3,977.4,160.5,977.3,160.6z
			 M982.4,160.3c0,0.1,0,0.2-0.1,0.2c-0.1,0.1-0.1,0.1-0.3,0.2c-0.1,0-0.3,0.1-0.5,0.1s-0.5,0-0.8,0s-0.6,0-0.8,0s-0.4-0.1-0.5-0.1
			s-0.2-0.1-0.3-0.2c0-0.1-0.1-0.1-0.1-0.2v-16.2c0-0.1,0-0.2,0.1-0.2c0-0.1,0.1-0.1,0.3-0.2c0.1,0,0.3-0.1,0.5-0.1s0.5,0,0.8,0
			s0.6,0,0.8,0s0.4,0.1,0.5,0.1s0.2,0.1,0.3,0.2c0,0.1,0.1,0.1,0.1,0.2V160.3z"/>
		<polygon class="st1" points="969.9,147.8 967.6,154.5 972.1,154.5 		"/>
	</g>
	<path class="st0" d="M893.9,201.5c-15.9,0-28.7,12.8-28.7,28.7S878,259,893.9,259s28.7-12.8,28.7-28.7
		C922.6,214.4,909.8,201.5,893.9,201.5z M897.3,237.6c0,0.2,0,0.4-0.1,0.5c-0.1,0.2-0.2,0.3-0.3,0.4s-0.3,0.2-0.4,0.2
		c-0.2,0-0.3,0.1-0.5,0.1h-1.4c-0.3,0-0.6,0-0.8-0.1s-0.4-0.2-0.6-0.3c-0.2-0.2-0.4-0.4-0.5-0.6c-0.2-0.3-0.4-0.6-0.6-1l-4.1-7.7
		c-0.2-0.5-0.5-1-0.7-1.5s-0.5-1-0.7-1.5l0,0c0,0.6,0.1,1.2,0.1,1.8s0,1.2,0,1.9v8.6c0,0.1,0,0.2-0.1,0.2c0,0.1-0.1,0.1-0.2,0.2
		c-0.1,0.1-0.3,0.1-0.5,0.1s-0.4,0-0.8,0c-0.3,0-0.5,0-0.7,0s-0.3-0.1-0.5-0.1c-0.1,0-0.2-0.1-0.2-0.2s-0.1-0.1-0.1-0.2v-14.8
		c0-0.4,0.1-0.7,0.3-0.9s0.5-0.3,0.9-0.3h1.8c0.3,0,0.6,0,0.8,0.1s0.4,0.1,0.6,0.3c0.2,0.1,0.3,0.3,0.5,0.5s0.3,0.5,0.5,0.8l3.2,6
		c0.2,0.4,0.4,0.7,0.6,1.1c0.2,0.4,0.4,0.7,0.5,1.1s0.3,0.7,0.5,1s0.3,0.7,0.5,1l0,0c0-0.6,0-1.2-0.1-1.9c0-0.6,0-1.3,0-1.8V223
		c0-0.1,0-0.2,0.1-0.2c0.1-0.1,0.1-0.1,0.3-0.2s0.3-0.1,0.5-0.1s0.4,0,0.8,0c0.3,0,0.5,0,0.7,0s0.3,0.1,0.5,0.1s0.2,0.1,0.2,0.2
		s0.1,0.1,0.1,0.2L897.3,237.6L897.3,237.6z M903.9,238.4c0,0.1,0,0.2-0.1,0.2c-0.1,0.1-0.1,0.1-0.3,0.2c-0.1,0-0.3,0.1-0.5,0.1
		s-0.5,0-0.8,0s-0.6,0-0.8,0s-0.4-0.1-0.5-0.1s-0.2-0.1-0.3-0.2s-0.1-0.1-0.1-0.2v-11.3c0-0.1,0-0.2,0.1-0.2
		c0.1-0.1,0.1-0.1,0.3-0.2c0.1,0,0.3-0.1,0.5-0.1s0.5,0,0.8,0s0.6,0,0.8,0s0.4,0.1,0.5,0.1s0.2,0.1,0.3,0.2s0.1,0.1,0.1,0.2V238.4z
		 M903.7,224.5c-0.3,0.2-0.7,0.4-1.5,0.4c-0.7,0-1.2-0.1-1.5-0.4s-0.4-0.7-0.4-1.3s0.1-1.1,0.4-1.3c0.3-0.2,0.7-0.4,1.5-0.4
		c0.7,0,1.2,0.1,1.4,0.4c0.3,0.2,0.4,0.7,0.4,1.3C904.1,223.9,904,224.4,903.7,224.5z"/>
	<g>
		<path class="st1" d="M972.5,279.9c-16.4,0-29.8,13.3-29.8,29.8s13.3,29.8,29.8,29.8c16.4,0,29.8-13.3,29.8-29.8
			S989,279.9,972.5,279.9z M977.3,318.1c-0.1,0.1-0.3,0.1-0.5,0.2c-0.2,0-0.5,0-1,0c-0.4,0-0.7,0-1,0c-0.2,0-0.4,0-0.5-0.1
			c-0.1,0-0.2-0.1-0.3-0.2c0-0.1-0.1-0.2-0.1-0.3l-1.1-3.2h-6l-1,3.1c0,0.1-0.1,0.2-0.1,0.3c-0.1,0.1-0.1,0.1-0.3,0.2
			c-0.1,0-0.3,0.1-0.5,0.1s-0.5,0-0.9,0s-0.7,0-0.9,0s-0.4-0.1-0.4-0.2c-0.1-0.1-0.1-0.2-0.1-0.4c0-0.2,0.1-0.4,0.2-0.7l4.9-14.2
			c0-0.1,0.1-0.3,0.2-0.3c0.1-0.1,0.2-0.2,0.3-0.2s0.3-0.1,0.6-0.1s0.6,0,1,0c0.5,0,0.9,0,1.2,0s0.5,0,0.7,0.1
			c0.2,0,0.3,0.1,0.3,0.2c0.1,0.1,0.1,0.2,0.2,0.4l5,14.2c0.1,0.3,0.2,0.5,0.2,0.7C977.4,317.9,977.4,318,977.3,318.1z M982.4,317.8
			c0,0.1,0,0.2-0.1,0.2c-0.1,0.1-0.1,0.1-0.3,0.2c-0.1,0-0.3,0.1-0.5,0.1s-0.5,0-0.8,0s-0.6,0-0.8,0s-0.4-0.1-0.5-0.1
			s-0.2-0.1-0.3-0.2c0-0.1-0.1-0.1-0.1-0.2v-16.2c0-0.1,0-0.2,0.1-0.2c0-0.1,0.1-0.1,0.3-0.2c0.1,0,0.3-0.1,0.5-0.1s0.5,0,0.8,0
			s0.6,0,0.8,0s0.4,0.1,0.5,0.1s0.2,0.1,0.3,0.2c0,0.1,0.1,0.1,0.1,0.2V317.8z"/>
		<polygon class="st1" points="969.9,305.3 967.6,312 972.1,312 		"/>
	</g>
	<path class="st2" d="M974,353.4H655.3c-23.4,0-42.5-19.1-42.5-42.5V150.9c0-23.4,19.1-42.5,42.5-42.5H974
		c23.4,0,42.5,19.1,42.5,42.5v160.1C1016.5,334.3,997.4,353.4,974,353.4z"/>
</g>
</svg>
