<svg id="图层_1" data-name="图层 1" xmlns="http://www.w3.org/2000/svg" viewBox="0 0 1133.9 672.3"><defs><style>.cls-1,.cls-7{fill:none;stroke-miterlimit:10;}.cls-1{stroke:#999899;stroke-width:3px;}.cls-2{isolation:isolate;font-size:24px;fill:#231815;font-family:Calibri-Bold, Calibri;font-weight:700;}.cls-3{letter-spacing:-0.01em;}.cls-4{letter-spacing:-0.01em;}.cls-5{letter-spacing:-0.04em;}.cls-6{fill:#2f5288;}.cls-7{stroke:#2f5288;stroke-linecap:round;stroke-width:6px;}</style></defs><title>Ti</title><path class="cls-1" d="M223.5,35.6H979.4a12,12,0,0,1,12,12V564.8a12,12,0,0,1-12,12H223.5a12,12,0,0,1-12-12V47.6A12,12,0,0,1,223.5,35.6Z"/><line class="cls-1" x1="211.5" y1="139.89" x2="991.4" y2="139.89"/><line class="cls-1" x1="211.5" y1="358.29" x2="991.4" y2="358.29"/><line class="cls-1" x1="383" y1="576.7" x2="383" y2="35.6"/><line class="cls-1" x1="544" y1="576.7" x2="544" y2="35.6"/><line class="cls-1" x1="692.88" y1="576.7" x2="692.88" y2="35.6"/><line class="cls-1" x1="838" y1="576.7" x2="838" y2="35.6"/><text class="cls-2" transform="translate(133.61 410.19) rotate(-90)">L<tspan class="cls-3" x="10.15" y="0">a</tspan><tspan x="21.77" y="0">ttice Mism</tspan><tspan class="cls-3" x="126.76" y="0">a</tspan><tspan class="cls-4" x="138.39" y="0">t</tspan><tspan x="146.39" y="0">ch / %</tspan></text><text class="cls-2" transform="translate(154.08 145.49)">0.20</text><text class="cls-2" transform="translate(154.08 363.9)">0.00</text><text class="cls-2" transform="translate(146.73 582.3)">-0.20</text><text class="cls-2" transform="translate(205.44 602.73)">0</text><text class="cls-2" transform="translate(528.63 602.73)">1.0</text><text class="cls-2" transform="translate(822.63 602.73)">2.0</text><text class="cls-2" transform="translate(577.71 647.33)">Ti<tspan class="cls-5" x="17.78" y="0">/</tspan><tspan x="27.04" y="0">Al</tspan></text><circle class="cls-6" cx="383.57" cy="250.79" r="8.6"/><circle class="cls-6" cx="544" cy="341.89" r="8.6"/><circle class="cls-6" cx="838" cy="452.72" r="8.6"/><line class="cls-7" x1="383.57" y1="250.79" x2="838" y2="452.72"/></svg>