<?xml version="1.0" encoding="utf-8"?>
<!-- Generator: Adobe Illustrator 23.0.0, SVG Export Plug-In . SVG Version: 6.00 Build 0)  -->
<svg version="1.1" id="图层_1" xmlns="http://www.w3.org/2000/svg" xmlns:xlink="http://www.w3.org/1999/xlink" x="0px" y="0px"
	 viewBox="0 0 70.9 70.9" style="enable-background:new 0 0 70.9 70.9;" xml:space="preserve">
<style type="text/css">
	.st0{fill:#333333;}
</style>
<title>画板 27</title>
<g>
	<circle class="st0" cx="35.7" cy="36.1" r="18.7"/>
	<path class="st0" d="M67.5,19.5c-0.2-2.7-2-5.1-4.6-6.1c-1-0.4-1.9-0.5-2.8-0.4c-0.7,0-1.2-0.5-1.2-1.2C59,10.9,58.8,10,58.5,9
		c-1-2.6-3.4-4.4-6.1-4.6c-4.2-0.3-7.7,3.2-7.4,7.4c0.2,2.7,2,5.1,4.6,6.1c1,0.4,1.9,0.5,2.8,0.4c0.7,0,1.2,0.5,1.2,1.2
		c-0.1,0.9,0.1,1.8,0.4,2.8c1,2.6,3.4,4.4,6.1,4.6C64.3,27.2,67.8,23.7,67.5,19.5z"/>
	<path class="st0" d="M19.1,3.7c-2.7,0.2-5.1,2-6.1,4.6c-0.4,1-0.5,1.9-0.4,2.8c0,0.7-0.5,1.2-1.2,1.2c-0.9-0.1-1.8,0.1-2.8,0.4
		c-2.6,1-4.4,3.4-4.6,6.1c-0.3,4.2,3.2,7.7,7.4,7.4c2.7-0.2,5.1-2,6.1-4.6c0.4-1,0.5-1.9,0.4-2.8c0-0.7,0.5-1.2,1.2-1.2
		c0.9,0.1,1.8-0.1,2.8-0.4c2.6-1,4.4-3.4,4.6-6.1C26.8,6.9,23.4,3.4,19.1,3.7z"/>
	<path class="st0" d="M3.3,52.1c0.2,2.7,2,5.1,4.6,6.1c1,0.4,1.9,0.5,2.8,0.4c0.7,0,1.2,0.5,1.2,1.2c-0.1,0.9,0.1,1.8,0.4,2.8
		c1,2.6,3.4,4.4,6.1,4.6c4.2,0.3,7.7-3.2,7.4-7.4c-0.2-2.7-2-5.1-4.6-6.1c-1-0.4-1.9-0.5-2.8-0.4c-0.7,0-1.2-0.5-1.2-1.2
		c0.1-0.9-0.1-1.8-0.4-2.8c-1-2.6-3.4-4.4-6.1-4.6C6.6,44.4,3.1,47.8,3.3,52.1z"/>
	<path class="st0" d="M52.4,67.2c2.7-0.2,5.1-2,6.1-4.6c0.4-1,0.5-1.9,0.4-2.8c0-0.7,0.5-1.2,1.2-1.2c0.9,0.1,1.8-0.1,2.8-0.4
		c2.6-1,4.4-3.4,4.6-6.1c0.3-4.2-3.2-7.7-7.4-7.4c-2.7,0.2-5.1,2-6.1,4.6c-0.4,1-0.5,1.9-0.4,2.8c0,0.7-0.5,1.2-1.2,1.2
		c-0.9-0.1-1.8,0.1-2.8,0.4c-2.6,1-4.4,3.4-4.6,6.1C44.7,64,48.2,67.5,52.4,67.2z"/>
</g>
</svg>
