<?xml version="1.0" encoding="utf-8"?>
<!-- Generator: Adobe Illustrator 23.0.0, SVG Export Plug-In . SVG Version: 6.00 Build 0)  -->
<svg version="1.1" id="图层_1" xmlns="http://www.w3.org/2000/svg" xmlns:xlink="http://www.w3.org/1999/xlink" x="0px" y="0px"
	 viewBox="0 0 226.8 226.8" style="enable-background:new 0 0 226.8 226.8;" xml:space="preserve">
<style type="text/css">
	.st0{fill:url(#SVGID_1_);}
	.st1{fill:#FFFFFF;}
</style>
<title></title>
<g>
	
		<linearGradient id="SVGID_1_" gradientUnits="userSpaceOnUse" x1="-178.5154" y1="521.9797" x2="-178.5154" y2="526.8071" gradientTransform="matrix(40 0 0 -39.7778 7254.0005 20969.1484)">
		<stop  offset="0" style="stop-color:#0062E0"/>
		<stop  offset="1" style="stop-color:#19AFFF"/>
	</linearGradient>
	<path class="st0" d="M96.8,211.7c-47-8.3-82.9-49.2-82.9-98.3c0-54.7,44.8-99.5,99.5-99.5s99.5,44.8,99.5,99.5
		c0,49.2-35.9,90.1-82.9,98.3l-5.5-4.4h-22.1L96.8,211.7z"/>
	<path class="st1" d="M152.1,141l4.4-27.6H130V94c0-7.7,2.8-13.8,14.9-13.8h12.7V54.8c-7.2-1.1-14.9-2.2-22.1-2.2
		c-22.7,0-38.7,13.8-38.7,38.7v22.1H71.9V141h24.9v70.2c5.5,1.1,11.1,1.7,16.6,1.7s11.1-0.6,16.6-1.7V141H152.1z"/>
</g>
</svg>
