<?xml version="1.0" encoding="utf-8"?>
<!-- Generator: Adobe Illustrator 23.0.0, SVG Export Plug-In . SVG Version: 6.00 Build 0)  -->
<svg version="1.1" id="图层_1" xmlns="http://www.w3.org/2000/svg" xmlns:xlink="http://www.w3.org/1999/xlink" x="0px" y="0px"
	 viewBox="0 0 226.8 226.8" style="enable-background:new 0 0 226.8 226.8;" xml:space="preserve">
<style type="text/css">
	.st0{fill:#0A66C2;}
</style>
<title>LEADS</title>
<path id="_复合路径_" class="st0" d="M191.9,24.9H34.9c-5.5,0-9.9,4.5-9.9,9.9v157.1c0,5.5,4.5,9.9,9.9,9.9h157.1
	c5.5,0,9.9-4.5,9.9-9.9V34.9C201.8,29.4,197.3,24.9,191.9,24.9z M75,174.7H51.6V94.1H75V174.7z M63.3,79.9
	c-7.6,0-13.7-6.1-13.7-13.6c0-7.6,6.1-13.7,13.6-13.7c7.6,0,13.7,6.1,13.7,13.6c0,0,0,0,0,0.1C76.9,73.8,70.9,79.9,63.3,79.9z
	 M173.6,116.6v58.1h-23.3v-48.2c0-2.5,0.2-5.1-1-7.3c-4-7.2-12.7-10.1-20.3-6.9c-2.6,1-5.1,2.7-7,4.8c-1.7,1.8-2.6,4.3-2.6,6.8v50.9
	H94.2V92.9h25.2v11.7c3-4.6,7.1-8.5,11.9-11.3c2.8-1.6,8.3-3.5,15.4-3.6c4.9-0.1,9.8,1.2,14.1,3.7c3.7,1.8,6.8,4.6,9,8.1
	C173.9,107.9,173.6,116.6,173.6,116.6z"/>
</svg>
