<svg id="图层_1" data-name="图层 1" xmlns="http://www.w3.org/2000/svg" viewBox="0 0 691.78 672.27"><defs><style>.cls-1{fill:#fff;}.cls-1,.cls-2{stroke:#999899;stroke-width:3px;}.cls-1,.cls-2,.cls-9{stroke-miterlimit:10;}.cls-2,.cls-9{fill:none;}.cls-3,.cls-8{isolation:isolate;font-size:24px;font-family:Calibri-Bold, Calibri;font-weight:700;}.cls-3{fill:#231815;}.cls-4{font-size:14px;}.cls-5{letter-spacing:-0.02em;}.cls-6{letter-spacing:1.11em;}.cls-7{letter-spacing:1.27em;}.cls-8{fill:#7e4e60;}.cls-9{stroke:#7e4e60;stroke-linecap:round;stroke-width:6px;}</style></defs><title>table1</title><rect class="cls-1" x="123.57" y="27.06" width="541.15" height="541.15" rx="13.13"/><line class="cls-2" x1="123.57" y1="140.19" x2="664.72" y2="140.19"/><text class="cls-3" transform="translate(64.88 32.66)">1000</text><line class="cls-2" x1="123.57" y1="248.87" x2="664.72" y2="248.87"/><text class="cls-3" transform="translate(77.05 145.79)">800</text><text class="cls-3" transform="translate(45.66 410.32) rotate(-90)">σ<tspan class="cls-4" x="13.07" y="4">b</tspan><tspan x="20.58" y="0">/M</tspan><tspan class="cls-5" x="51.87" y="0">P</tspan><tspan x="64.17" y="0">a</tspan><tspan class="cls-6" x="76.02" y="0">	</tspan><tspan class="cls-7" x="108" y="0">	</tspan><tspan x="144" y="0">τ/h</tspan></text><line class="cls-2" x1="123.57" y1="360.3" x2="664.72" y2="360.3"/><text class="cls-3" transform="translate(77.05 254.48)">600</text><line class="cls-2" x1="123.57" y1="472.86" x2="664.72" y2="472.86"/><text class="cls-3" transform="translate(77.05 365.9)">400</text><text class="cls-3" transform="translate(77.05 478.46)">200</text><text class="cls-3" transform="translate(101.37 573.81)">0</text><line class="cls-2" x1="250.93" y1="568.21" x2="250.93" y2="27.06"/><text class="cls-3" transform="translate(235.94 594.23)">0.5</text><text class="cls-8" transform="translate(572 162.26)">σ<tspan class="cls-4" x="13.07" y="4">b</tspan></text><text class="cls-8" transform="translate(577.58 271.28)">τ</text><line class="cls-2" x1="379.2" y1="568.21" x2="379.2" y2="27.06"/><line class="cls-2" x1="518.68" y1="568.21" x2="518.68" y2="27.06"/><text class="cls-3" transform="translate(364.2 594.23)">1.0</text><text class="cls-3" transform="translate(503.68 594.23)">1.5</text><text class="cls-3" transform="translate(352.62 638.83)">Mn / %</text><text class="cls-3" transform="translate(649.72 594.23)">2.5</text><path class="cls-9" d="M201.28,143.09s419.06,38.72,444.41,47"/><path class="cls-9" d="M257.91,129.07S540,260.58,639.75,330.87"/></svg>