<?xml version="1.0" encoding="utf-8"?>
<!-- Generator: Adobe Illustrator 23.0.0, SVG Export Plug-In . SVG Version: 6.00 Build 0)  -->
<svg version="1.1" id="图层_1" xmlns="http://www.w3.org/2000/svg" xmlns:xlink="http://www.w3.org/1999/xlink" x="0px" y="0px"
	 viewBox="0 0 850.4 243.1" style="enable-background:new 0 0 850.4 243.1;" xml:space="preserve">
<style type="text/css">
	.st0{fill:#EEEEEE;}
	.st1{fill:#32558E;}
	.st2{fill:#FBA971;}
</style>
<path class="st0" d="M620.7,21.8H357.6c-8.1,0-15.9,3.2-21.6,8.9l-66.2,66.2c-21.8,21.8-6.4,59.1,24.5,59.1h263.5
	c7.5,0,14.7-3,20-8.3L645,80.5C666.7,58.8,651.4,21.8,620.7,21.8z"/>
<title>cold-rolling</title>
<title>cold-rolling</title>
<path class="st1" d="M97.9,27.5c-15.9,0-28.7,12.8-28.7,28.7S82,84.9,97.9,84.9s28.7-12.8,28.7-28.7S113.8,27.5,97.9,27.5z
	 M101.3,63.6c0,0.2,0,0.4-0.1,0.5c-0.1,0.2-0.2,0.3-0.3,0.4c-0.1,0.1-0.3,0.2-0.4,0.2c-0.2,0-0.3,0.1-0.5,0.1h-1.4
	c-0.3,0-0.6,0-0.8-0.1c-0.2-0.1-0.4-0.2-0.6-0.3c-0.2-0.2-0.4-0.4-0.5-0.6c-0.2-0.3-0.4-0.6-0.6-1L92,55.1c-0.2-0.5-0.5-1-0.7-1.5
	s-0.5-1-0.7-1.5l0,0c0,0.6,0.1,1.2,0.1,1.8s0,1.2,0,1.9v8.6c0,0.1,0,0.2-0.1,0.2c0,0.1-0.1,0.1-0.2,0.2s-0.3,0.1-0.5,0.1
	s-0.4,0-0.8,0c-0.3,0-0.5,0-0.7,0s-0.3-0.1-0.5-0.1c-0.1,0-0.2-0.1-0.2-0.2s-0.1-0.1-0.1-0.2V49.6c0-0.4,0.1-0.7,0.3-0.9
	c0.2-0.2,0.5-0.3,0.9-0.3h1.8c0.3,0,0.6,0,0.8,0.1c0.2,0.1,0.4,0.1,0.6,0.3c0.2,0.1,0.3,0.3,0.5,0.5s0.3,0.5,0.5,0.8l3.2,6
	c0.2,0.4,0.4,0.7,0.6,1.1c0.2,0.4,0.4,0.7,0.5,1.1s0.3,0.7,0.5,1s0.3,0.7,0.5,1l0,0c0-0.6,0-1.2-0.1-1.9c0-0.6,0-1.3,0-1.8v-7.7
	c0-0.1,0-0.2,0.1-0.2c0.1-0.1,0.1-0.1,0.3-0.2s0.3-0.1,0.5-0.1s0.4,0,0.8,0c0.3,0,0.5,0,0.7,0s0.3,0.1,0.5,0.1s0.2,0.1,0.2,0.2
	c0,0.1,0.1,0.1,0.1,0.2v14.7C101.4,63.6,101.3,63.6,101.3,63.6z M107.9,64.4c0,0.1,0,0.2-0.1,0.2c-0.1,0.1-0.1,0.1-0.3,0.2
	c-0.1,0-0.3,0.1-0.5,0.1s-0.5,0-0.8,0s-0.6,0-0.8,0c-0.2,0-0.4-0.1-0.5-0.1s-0.2-0.1-0.3-0.2c-0.1-0.1-0.1-0.1-0.1-0.2V53.1
	c0-0.1,0-0.2,0.1-0.2c0.1-0.1,0.1-0.1,0.3-0.2c0.1,0,0.3-0.1,0.5-0.1s0.5,0,0.8,0s0.6,0,0.8,0c0.2,0,0.4,0.1,0.5,0.1
	s0.2,0.1,0.3,0.2c0.1,0.1,0.1,0.1,0.1,0.2V64.4z M107.7,50.5c-0.3,0.2-0.7,0.4-1.5,0.4c-0.7,0-1.2-0.1-1.5-0.4s-0.4-0.7-0.4-1.3
	s0.1-1.1,0.4-1.3s0.7-0.4,1.5-0.4c0.7,0,1.2,0.1,1.4,0.4c0.3,0.2,0.4,0.7,0.4,1.3C108.1,49.8,108,50.3,107.7,50.5z"/>
<path class="st1" d="M228.7,27.5c-15.9,0-28.7,12.8-28.7,28.7s12.8,28.7,28.7,28.7s28.7-12.8,28.7-28.7S244.6,27.5,228.7,27.5z
	 M232.1,63.6c0,0.2,0,0.4-0.1,0.5c-0.1,0.2-0.2,0.3-0.3,0.4s-0.3,0.2-0.4,0.2c-0.2,0-0.3,0.1-0.5,0.1h-1.4c-0.3,0-0.6,0-0.8-0.1
	s-0.4-0.2-0.6-0.3c-0.2-0.2-0.4-0.4-0.5-0.6c-0.2-0.3-0.4-0.6-0.6-1l-4.1-7.7c-0.2-0.5-0.5-1-0.7-1.5s-0.5-1-0.7-1.5l0,0
	c0,0.6,0.1,1.2,0.1,1.8s0,1.2,0,1.9v8.6c0,0.1,0,0.2-0.1,0.2c0,0.1-0.1,0.1-0.2,0.2s-0.3,0.1-0.5,0.1s-0.4,0-0.8,0
	c-0.3,0-0.5,0-0.7,0s-0.3-0.1-0.5-0.1c-0.1,0-0.2-0.1-0.2-0.2s-0.1-0.1-0.1-0.2V49.6c0-0.4,0.1-0.7,0.3-0.9s0.5-0.3,0.9-0.3h1.8
	c0.3,0,0.6,0,0.8,0.1s0.4,0.1,0.6,0.3c0.2,0.1,0.3,0.3,0.5,0.5s0.3,0.5,0.5,0.8l3.2,6c0.2,0.4,0.4,0.7,0.6,1.1
	c0.2,0.4,0.4,0.7,0.5,1.1s0.3,0.7,0.5,1s0.3,0.7,0.5,1l0,0c0-0.6,0-1.2-0.1-1.9c0-0.6,0-1.3,0-1.8v-7.7c0-0.1,0-0.2,0.1-0.2
	c0.1-0.1,0.1-0.1,0.3-0.2s0.3-0.1,0.5-0.1s0.4,0,0.8,0c0.3,0,0.5,0,0.7,0s0.3,0.1,0.5,0.1s0.2,0.1,0.2,0.2c0,0.1,0.1,0.1,0.1,0.2
	v14.7C232.2,63.6,232.1,63.6,232.1,63.6z M238.7,64.4c0,0.1,0,0.2-0.1,0.2c-0.1,0.1-0.1,0.1-0.3,0.2c-0.1,0-0.3,0.1-0.5,0.1
	s-0.5,0-0.8,0s-0.6,0-0.8,0s-0.4-0.1-0.5-0.1s-0.2-0.1-0.3-0.2s-0.1-0.1-0.1-0.2V53.1c0-0.1,0-0.2,0.1-0.2c0.1-0.1,0.1-0.1,0.3-0.2
	c0.1,0,0.3-0.1,0.5-0.1s0.5,0,0.8,0s0.6,0,0.8,0s0.4,0.1,0.5,0.1s0.2,0.1,0.3,0.2c0.1,0.1,0.1,0.1,0.1,0.2V64.4z M238.5,50.5
	c-0.3,0.2-0.7,0.4-1.5,0.4c-0.7,0-1.2-0.1-1.5-0.4s-0.4-0.7-0.4-1.3s0.1-1.1,0.4-1.3s0.7-0.4,1.5-0.4c0.7,0,1.2,0.1,1.4,0.4
	c0.3,0.2,0.4,0.7,0.4,1.3C238.9,49.8,238.8,50.3,238.5,50.5z"/>
<path class="st1" d="M751.7,27.5c-15.9,0-28.7,12.8-28.7,28.7s12.8,28.7,28.7,28.7s28.7-12.8,28.7-28.7S767.6,27.5,751.7,27.5z
	 M755.1,63.6c0,0.2,0,0.4-0.1,0.5c-0.1,0.2-0.2,0.3-0.3,0.4s-0.3,0.2-0.4,0.2c-0.2,0-0.3,0.1-0.5,0.1h-1.4c-0.3,0-0.6,0-0.8-0.1
	s-0.4-0.2-0.6-0.3c-0.2-0.2-0.4-0.4-0.5-0.6c-0.2-0.3-0.4-0.6-0.6-1l-4.1-7.7c-0.2-0.5-0.5-1-0.7-1.5s-0.5-1-0.7-1.5l0,0
	c0,0.6,0.1,1.2,0.1,1.8s0,1.2,0,1.9v8.6c0,0.1,0,0.2-0.1,0.2c0,0.1-0.1,0.1-0.2,0.2s-0.3,0.1-0.5,0.1s-0.4,0-0.8,0
	c-0.3,0-0.5,0-0.7,0s-0.3-0.1-0.5-0.1c-0.1,0-0.2-0.1-0.2-0.2s-0.1-0.1-0.1-0.2V49.6c0-0.4,0.1-0.7,0.3-0.9s0.5-0.3,0.9-0.3h1.8
	c0.3,0,0.6,0,0.8,0.1s0.4,0.1,0.6,0.3c0.2,0.1,0.3,0.3,0.5,0.5s0.3,0.5,0.5,0.8l3.2,6c0.2,0.4,0.4,0.7,0.6,1.1
	c0.2,0.4,0.4,0.7,0.5,1.1s0.3,0.7,0.5,1s0.3,0.7,0.5,1l0,0c0-0.6,0-1.2-0.1-1.9c0-0.6,0-1.3,0-1.8v-7.7c0-0.1,0-0.2,0.1-0.2
	c0.1-0.1,0.1-0.1,0.3-0.2s0.3-0.1,0.5-0.1s0.4,0,0.8,0c0.3,0,0.5,0,0.7,0s0.3,0.1,0.5,0.1s0.2,0.1,0.2,0.2c0,0.1,0.1,0.1,0.1,0.2
	L755.1,63.6L755.1,63.6z M761.7,64.4c0,0.1,0,0.2-0.1,0.2c-0.1,0.1-0.1,0.1-0.3,0.2c-0.1,0-0.3,0.1-0.5,0.1s-0.5,0-0.8,0
	s-0.6,0-0.8,0s-0.4-0.1-0.5-0.1s-0.2-0.1-0.3-0.2s-0.1-0.1-0.1-0.2V53.1c0-0.1,0-0.2,0.1-0.2c0.1-0.1,0.1-0.1,0.3-0.2
	c0.1,0,0.3-0.1,0.5-0.1s0.5,0,0.8,0s0.6,0,0.8,0s0.4,0.1,0.5,0.1s0.2,0.1,0.3,0.2c0.1,0.1,0.1,0.1,0.1,0.2V64.4z M761.5,50.5
	c-0.3,0.2-0.7,0.4-1.5,0.4c-0.7,0-1.2-0.1-1.5-0.4s-0.4-0.7-0.4-1.3s0.1-1.1,0.4-1.3s0.7-0.4,1.5-0.4c0.7,0,1.2,0.1,1.4,0.4
	c0.3,0.2,0.4,0.7,0.4,1.3C761.9,49.8,761.8,50.3,761.5,50.5z"/>
<path class="st1" d="M97.9,27.5c-15.9,0-28.7,12.8-28.7,28.7S82,84.9,97.9,84.9s28.7-12.8,28.7-28.7S113.8,27.5,97.9,27.5z
	 M101.3,63.6c0,0.2,0,0.4-0.1,0.5c-0.1,0.2-0.2,0.3-0.3,0.4c-0.1,0.1-0.3,0.2-0.4,0.2c-0.2,0-0.3,0.1-0.5,0.1h-1.4
	c-0.3,0-0.6,0-0.8-0.1s-0.4-0.2-0.6-0.3c-0.2-0.2-0.4-0.4-0.5-0.6c-0.2-0.3-0.4-0.6-0.6-1L92,55.1c-0.2-0.5-0.5-1-0.7-1.5
	s-0.5-1-0.7-1.5l0,0c0,0.6,0.1,1.2,0.1,1.8s0,1.2,0,1.9v8.6c0,0.1,0,0.2-0.1,0.2c0,0.1-0.1,0.1-0.2,0.2s-0.3,0.1-0.5,0.1
	s-0.4,0-0.8,0c-0.3,0-0.5,0-0.7,0s-0.3-0.1-0.5-0.1c-0.1,0-0.2-0.1-0.2-0.2s-0.1-0.1-0.1-0.2V49.6c0-0.4,0.1-0.7,0.3-0.9
	s0.5-0.3,0.9-0.3h1.8c0.3,0,0.6,0,0.8,0.1s0.4,0.1,0.6,0.3c0.2,0.1,0.3,0.3,0.5,0.5s0.3,0.5,0.5,0.8l3.2,6c0.2,0.4,0.4,0.7,0.6,1.1
	c0.2,0.4,0.4,0.7,0.5,1.1s0.3,0.7,0.5,1s0.3,0.7,0.5,1l0,0c0-0.6,0-1.2-0.1-1.9c0-0.6,0-1.3,0-1.8v-7.7c0-0.1,0-0.2,0.1-0.2
	c0.1-0.1,0.1-0.1,0.3-0.2s0.3-0.1,0.5-0.1s0.4,0,0.8,0c0.3,0,0.5,0,0.7,0s0.3,0.1,0.5,0.1s0.2,0.1,0.2,0.2c0,0.1,0.1,0.1,0.1,0.2
	v14.7C101.4,63.6,101.3,63.6,101.3,63.6z M107.9,64.4c0,0.1,0,0.2-0.1,0.2c-0.1,0.1-0.1,0.1-0.3,0.2c-0.1,0-0.3,0.1-0.5,0.1
	s-0.5,0-0.8,0s-0.6,0-0.8,0s-0.4-0.1-0.5-0.1s-0.2-0.1-0.3-0.2c-0.1-0.1-0.1-0.1-0.1-0.2V53.1c0-0.1,0-0.2,0.1-0.2
	c0.1-0.1,0.1-0.1,0.3-0.2c0.1,0,0.3-0.1,0.5-0.1s0.5,0,0.8,0s0.6,0,0.8,0s0.4,0.1,0.5,0.1s0.2,0.1,0.3,0.2c0.1,0.1,0.1,0.1,0.1,0.2
	V64.4z M107.7,50.5c-0.3,0.2-0.7,0.4-1.5,0.4c-0.7,0-1.2-0.1-1.5-0.4s-0.4-0.7-0.4-1.3s0.1-1.1,0.4-1.3s0.7-0.4,1.5-0.4
	c0.7,0,1.2,0.1,1.4,0.4c0.3,0.2,0.4,0.7,0.4,1.3C108.1,49.8,108,50.3,107.7,50.5z"/>
<path class="st1" d="M97.9,158.3c-15.9,0-28.7,12.8-28.7,28.7s12.8,28.7,28.7,28.7s28.7-12.8,28.7-28.7S113.8,158.3,97.9,158.3z
	 M101.3,194.4c0,0.2,0,0.4-0.1,0.5c-0.1,0.2-0.2,0.3-0.3,0.4c-0.1,0.1-0.3,0.2-0.4,0.2c-0.2,0-0.3,0.1-0.5,0.1h-1.4
	c-0.3,0-0.6,0-0.8-0.1c-0.2-0.1-0.4-0.2-0.6-0.3c-0.2-0.2-0.4-0.4-0.5-0.6c-0.2-0.3-0.4-0.6-0.6-1l-4.1-7.7c-0.2-0.5-0.5-1-0.7-1.5
	s-0.5-1-0.7-1.5l0,0c0,0.6,0.1,1.2,0.1,1.8s0,1.2,0,1.9v8.6c0,0.1,0,0.2-0.1,0.2c0,0.1-0.1,0.1-0.2,0.2s-0.3,0.1-0.5,0.1
	s-0.4,0-0.8,0c-0.3,0-0.5,0-0.7,0s-0.3-0.1-0.5-0.1c-0.1,0-0.2-0.1-0.2-0.2c0-0.1-0.1-0.1-0.1-0.2v-14.8c0-0.4,0.1-0.7,0.3-0.9
	c0.2-0.2,0.5-0.3,0.9-0.3h1.8c0.3,0,0.6,0,0.8,0.1c0.2,0.1,0.4,0.1,0.6,0.3c0.2,0.1,0.3,0.3,0.5,0.5s0.3,0.5,0.5,0.8l3.2,6
	c0.2,0.4,0.4,0.7,0.6,1.1c0.2,0.4,0.4,0.7,0.5,1.1s0.3,0.7,0.5,1s0.3,0.7,0.5,1l0,0c0-0.6,0-1.2-0.1-1.9c0-0.6,0-1.3,0-1.8v-7.7
	c0-0.1,0-0.2,0.1-0.2c0.1-0.1,0.1-0.1,0.3-0.2s0.3-0.1,0.5-0.1s0.4,0,0.8,0c0.3,0,0.5,0,0.7,0s0.3,0.1,0.5,0.1s0.2,0.1,0.2,0.2
	c0,0.1,0.1,0.1,0.1,0.2v14.7L101.3,194.4L101.3,194.4z M107.9,195.2c0,0.1,0,0.2-0.1,0.2c-0.1,0.1-0.1,0.1-0.3,0.2
	c-0.1,0-0.3,0.1-0.5,0.1s-0.5,0-0.8,0s-0.6,0-0.8,0c-0.2,0-0.4-0.1-0.5-0.1s-0.2-0.1-0.3-0.2c-0.1-0.1-0.1-0.1-0.1-0.2v-11.3
	c0-0.1,0-0.2,0.1-0.2c0.1-0.1,0.1-0.1,0.3-0.2c0.1,0,0.3-0.1,0.5-0.1s0.5,0,0.8,0s0.6,0,0.8,0c0.2,0,0.4,0.1,0.5,0.1
	s0.2,0.1,0.3,0.2c0.1,0.1,0.1,0.1,0.1,0.2V195.2z M107.7,181.3c-0.3,0.2-0.7,0.4-1.5,0.4c-0.7,0-1.2-0.1-1.5-0.4s-0.4-0.7-0.4-1.3
	s0.1-1.1,0.4-1.3s0.7-0.4,1.5-0.4c0.7,0,1.2,0.1,1.4,0.4c0.3,0.2,0.4,0.7,0.4,1.3C108.1,180.6,108,181.1,107.7,181.3z"/>
<path class="st1" d="M359.4,158.3c-15.9,0-28.7,12.8-28.7,28.7s12.8,28.7,28.7,28.7s28.7-12.8,28.7-28.7S375.3,158.3,359.4,158.3z
	 M362.8,194.4c0,0.2,0,0.4-0.1,0.5c-0.1,0.2-0.2,0.3-0.3,0.4c-0.1,0.1-0.3,0.2-0.4,0.2c-0.2,0-0.3,0.1-0.5,0.1h-1.4
	c-0.3,0-0.6,0-0.8-0.1c-0.2-0.1-0.4-0.2-0.6-0.3c-0.2-0.2-0.4-0.4-0.5-0.6c-0.2-0.3-0.4-0.6-0.6-1l-4.1-7.7c-0.2-0.5-0.5-1-0.7-1.5
	s-0.5-1-0.7-1.5l0,0c0,0.6,0.1,1.2,0.1,1.8s0,1.2,0,1.9v8.6c0,0.1,0,0.2-0.1,0.2c0,0.1-0.1,0.1-0.2,0.2s-0.3,0.1-0.5,0.1
	s-0.4,0-0.8,0c-0.3,0-0.5,0-0.7,0s-0.3-0.1-0.5-0.1c-0.1,0-0.2-0.1-0.2-0.2c0-0.1-0.1-0.1-0.1-0.2v-14.8c0-0.4,0.1-0.7,0.3-0.9
	c0.2-0.2,0.5-0.3,0.9-0.3h1.8c0.3,0,0.6,0,0.8,0.1c0.2,0.1,0.4,0.1,0.6,0.3c0.2,0.1,0.3,0.3,0.5,0.5s0.3,0.5,0.5,0.8l3.2,6
	c0.2,0.4,0.4,0.7,0.6,1.1c0.2,0.4,0.4,0.7,0.5,1.1s0.3,0.7,0.5,1s0.3,0.7,0.5,1l0,0c0-0.6,0-1.2-0.1-1.9c0-0.6,0-1.3,0-1.8v-7.7
	c0-0.1,0-0.2,0.1-0.2c0.1-0.1,0.1-0.1,0.3-0.2s0.3-0.1,0.5-0.1s0.4,0,0.8,0c0.3,0,0.5,0,0.7,0s0.3,0.1,0.5,0.1s0.2,0.1,0.2,0.2
	c0,0.1,0.1,0.1,0.1,0.2L362.8,194.4L362.8,194.4z M369.4,195.2c0,0.1,0,0.2-0.1,0.2c-0.1,0.1-0.1,0.1-0.3,0.2
	c-0.1,0-0.3,0.1-0.5,0.1s-0.5,0-0.8,0s-0.6,0-0.8,0c-0.2,0-0.4-0.1-0.5-0.1s-0.2-0.1-0.3-0.2c-0.1-0.1-0.1-0.1-0.1-0.2v-11.3
	c0-0.1,0-0.2,0.1-0.2c0.1-0.1,0.1-0.1,0.3-0.2c0.1,0,0.3-0.1,0.5-0.1s0.5,0,0.8,0s0.6,0,0.8,0c0.2,0,0.4,0.1,0.5,0.1
	s0.2,0.1,0.3,0.2c0.1,0.1,0.1,0.1,0.1,0.2V195.2z M369.2,181.3c-0.3,0.2-0.7,0.4-1.5,0.4c-0.7,0-1.2-0.1-1.5-0.4s-0.4-0.7-0.4-1.3
	s0.1-1.1,0.4-1.3s0.7-0.4,1.5-0.4c0.7,0,1.2,0.1,1.4,0.4c0.3,0.2,0.4,0.7,0.4,1.3C369.6,180.6,369.5,181.1,369.2,181.3z"/>
<path class="st1" d="M228.7,158.3c-15.9,0-28.7,12.8-28.7,28.7s12.8,28.7,28.7,28.7s28.7-12.8,28.7-28.7S244.6,158.3,228.7,158.3z
	 M232.1,194.4c0,0.2,0,0.4-0.1,0.5c-0.1,0.2-0.2,0.3-0.3,0.4c-0.1,0.1-0.3,0.2-0.4,0.2c-0.2,0-0.3,0.1-0.5,0.1h-1.4
	c-0.3,0-0.6,0-0.8-0.1c-0.2-0.1-0.4-0.2-0.6-0.3c-0.2-0.2-0.4-0.4-0.5-0.6c-0.2-0.3-0.4-0.6-0.6-1l-4.1-7.7c-0.2-0.5-0.5-1-0.7-1.5
	s-0.5-1-0.7-1.5l0,0c0,0.6,0.1,1.2,0.1,1.8s0,1.2,0,1.9v8.6c0,0.1,0,0.2-0.1,0.2c0,0.1-0.1,0.1-0.2,0.2s-0.3,0.1-0.5,0.1
	s-0.4,0-0.8,0c-0.3,0-0.5,0-0.7,0s-0.3-0.1-0.5-0.1c-0.1,0-0.2-0.1-0.2-0.2c0-0.1-0.1-0.1-0.1-0.2v-14.8c0-0.4,0.1-0.7,0.3-0.9
	c0.2-0.2,0.5-0.3,0.9-0.3h1.8c0.3,0,0.6,0,0.8,0.1c0.2,0.1,0.4,0.1,0.6,0.3c0.2,0.1,0.3,0.3,0.5,0.5s0.3,0.5,0.5,0.8l3.2,6
	c0.2,0.4,0.4,0.7,0.6,1.1c0.2,0.4,0.4,0.7,0.5,1.1s0.3,0.7,0.5,1s0.3,0.7,0.5,1l0,0c0-0.6,0-1.2-0.1-1.9c0-0.6,0-1.3,0-1.8v-7.7
	c0-0.1,0-0.2,0.1-0.2c0.1-0.1,0.1-0.1,0.3-0.2s0.3-0.1,0.5-0.1s0.4,0,0.8,0c0.3,0,0.5,0,0.7,0s0.3,0.1,0.5,0.1s0.2,0.1,0.2,0.2
	c0,0.1,0.1,0.1,0.1,0.2L232.1,194.4L232.1,194.4z M238.7,195.2c0,0.1,0,0.2-0.1,0.2c-0.1,0.1-0.1,0.1-0.3,0.2
	c-0.1,0-0.3,0.1-0.5,0.1s-0.5,0-0.8,0s-0.6,0-0.8,0c-0.2,0-0.4-0.1-0.5-0.1s-0.2-0.1-0.3-0.2c-0.1-0.1-0.1-0.1-0.1-0.2v-11.3
	c0-0.1,0-0.2,0.1-0.2c0.1-0.1,0.1-0.1,0.3-0.2c0.1,0,0.3-0.1,0.5-0.1s0.5,0,0.8,0s0.6,0,0.8,0c0.2,0,0.4,0.1,0.5,0.1
	s0.2,0.1,0.3,0.2c0.1,0.1,0.1,0.1,0.1,0.2V195.2z M238.5,181.3c-0.3,0.2-0.7,0.4-1.5,0.4c-0.7,0-1.2-0.1-1.5-0.4s-0.4-0.7-0.4-1.3
	s0.1-1.1,0.4-1.3s0.7-0.4,1.5-0.4c0.7,0,1.2,0.1,1.4,0.4c0.3,0.2,0.4,0.7,0.4,1.3C238.9,180.6,238.8,181.1,238.5,181.3z"/>
<path class="st1" d="M490.2,158.3c-15.9,0-28.7,12.8-28.7,28.7s12.8,28.7,28.7,28.7s28.7-12.8,28.7-28.7S506.1,158.3,490.2,158.3z
	 M493.6,194.4c0,0.2,0,0.4-0.1,0.5c-0.1,0.2-0.2,0.3-0.3,0.4c-0.1,0.1-0.3,0.2-0.4,0.2c-0.2,0-0.3,0.1-0.5,0.1h-1.4
	c-0.3,0-0.6,0-0.8-0.1c-0.2-0.1-0.4-0.2-0.6-0.3c-0.2-0.2-0.4-0.4-0.5-0.6c-0.2-0.3-0.4-0.6-0.6-1l-4.1-7.7c-0.2-0.5-0.5-1-0.7-1.5
	s-0.5-1-0.7-1.5l0,0c0,0.6,0.1,1.2,0.1,1.8s0,1.2,0,1.9v8.6c0,0.1,0,0.2-0.1,0.2c0,0.1-0.1,0.1-0.2,0.2s-0.3,0.1-0.5,0.1
	s-0.4,0-0.8,0c-0.3,0-0.5,0-0.7,0s-0.3-0.1-0.5-0.1c-0.1,0-0.2-0.1-0.2-0.2c0-0.1-0.1-0.1-0.1-0.2v-14.8c0-0.4,0.1-0.7,0.3-0.9
	c0.2-0.2,0.5-0.3,0.9-0.3h1.8c0.3,0,0.6,0,0.8,0.1c0.2,0.1,0.4,0.1,0.6,0.3c0.2,0.1,0.3,0.3,0.5,0.5s0.3,0.5,0.5,0.8l3.2,6
	c0.2,0.4,0.4,0.7,0.6,1.1c0.2,0.4,0.4,0.7,0.5,1.1s0.3,0.7,0.5,1s0.3,0.7,0.5,1l0,0c0-0.6,0-1.2-0.1-1.9c0-0.6,0-1.3,0-1.8v-7.7
	c0-0.1,0-0.2,0.1-0.2c0.1-0.1,0.1-0.1,0.3-0.2s0.3-0.1,0.5-0.1s0.4,0,0.8,0c0.3,0,0.5,0,0.7,0s0.3,0.1,0.5,0.1s0.2,0.1,0.2,0.2
	c0,0.1,0.1,0.1,0.1,0.2L493.6,194.4L493.6,194.4z M500.2,195.2c0,0.1,0,0.2-0.1,0.2c-0.1,0.1-0.1,0.1-0.3,0.2
	c-0.1,0-0.3,0.1-0.5,0.1s-0.5,0-0.8,0s-0.6,0-0.8,0c-0.2,0-0.4-0.1-0.5-0.1s-0.2-0.1-0.3-0.2c-0.1-0.1-0.1-0.1-0.1-0.2v-11.3
	c0-0.1,0-0.2,0.1-0.2c0.1-0.1,0.1-0.1,0.3-0.2c0.1,0,0.3-0.1,0.5-0.1s0.5,0,0.8,0s0.6,0,0.8,0c0.2,0,0.4,0.1,0.5,0.1
	s0.2,0.1,0.3,0.2c0.1,0.1,0.1,0.1,0.1,0.2V195.2z M500,181.3c-0.3,0.2-0.7,0.4-1.5,0.4c-0.7,0-1.2-0.1-1.5-0.4s-0.4-0.7-0.4-1.3
	s0.1-1.1,0.4-1.3s0.7-0.4,1.5-0.4c0.7,0,1.2,0.1,1.4,0.4c0.3,0.2,0.4,0.7,0.4,1.3C500.4,180.6,500.3,181.1,500,181.3z"/>
<path class="st1" d="M620.9,158.3c-15.9,0-28.7,12.8-28.7,28.7s12.8,28.7,28.7,28.7s28.7-12.8,28.7-28.7S636.8,158.3,620.9,158.3z
	 M624.3,194.4c0,0.2,0,0.4-0.1,0.5c-0.1,0.2-0.2,0.3-0.3,0.4c-0.1,0.1-0.3,0.2-0.4,0.2c-0.2,0-0.3,0.1-0.5,0.1h-1.4
	c-0.3,0-0.6,0-0.8-0.1s-0.4-0.2-0.6-0.3c-0.2-0.2-0.4-0.4-0.5-0.6c-0.2-0.3-0.4-0.6-0.6-1l-4.1-7.7c-0.2-0.5-0.5-1-0.7-1.5
	s-0.5-1-0.7-1.5l0,0c0,0.6,0.1,1.2,0.1,1.8s0,1.2,0,1.9v8.6c0,0.1,0,0.2-0.1,0.2c0,0.1-0.1,0.1-0.2,0.2s-0.3,0.1-0.5,0.1
	s-0.4,0-0.8,0c-0.3,0-0.5,0-0.7,0s-0.3-0.1-0.5-0.1c-0.1,0-0.2-0.1-0.2-0.2c0-0.1-0.1-0.1-0.1-0.2v-14.8c0-0.4,0.1-0.7,0.3-0.9
	s0.5-0.3,0.9-0.3h1.8c0.3,0,0.6,0,0.8,0.1s0.4,0.1,0.6,0.3c0.2,0.1,0.3,0.3,0.5,0.5s0.3,0.5,0.5,0.8l3.2,6c0.2,0.4,0.4,0.7,0.6,1.1
	c0.2,0.4,0.4,0.7,0.5,1.1s0.3,0.7,0.5,1s0.3,0.7,0.5,1l0,0c0-0.6,0-1.2-0.1-1.9c0-0.6,0-1.3,0-1.8v-7.7c0-0.1,0-0.2,0.1-0.2
	c0.1-0.1,0.1-0.1,0.3-0.2s0.3-0.1,0.5-0.1s0.4,0,0.8,0c0.3,0,0.5,0,0.7,0s0.3,0.1,0.5,0.1s0.2,0.1,0.2,0.2c0,0.1,0.1,0.1,0.1,0.2
	L624.3,194.4L624.3,194.4z M630.9,195.2c0,0.1,0,0.2-0.1,0.2c-0.1,0.1-0.1,0.1-0.3,0.2c-0.1,0-0.3,0.1-0.5,0.1s-0.5,0-0.8,0
	s-0.6,0-0.8,0s-0.4-0.1-0.5-0.1s-0.2-0.1-0.3-0.2c-0.1-0.1-0.1-0.1-0.1-0.2v-11.3c0-0.1,0-0.2,0.1-0.2c0.1-0.1,0.1-0.1,0.3-0.2
	c0.1,0,0.3-0.1,0.5-0.1s0.5,0,0.8,0s0.6,0,0.8,0s0.4,0.1,0.5,0.1s0.2,0.1,0.3,0.2c0.1,0.1,0.1,0.1,0.1,0.2V195.2z M630.7,181.3
	c-0.3,0.2-0.7,0.4-1.5,0.4c-0.7,0-1.2-0.1-1.5-0.4s-0.4-0.7-0.4-1.3s0.1-1.1,0.4-1.3s0.7-0.4,1.5-0.4c0.7,0,1.2,0.1,1.4,0.4
	c0.3,0.2,0.4,0.7,0.4,1.3C631.1,180.6,631,181.1,630.7,181.3z"/>
<path class="st1" d="M751.7,158.3c-15.9,0-28.7,12.8-28.7,28.7s12.8,28.7,28.7,28.7s28.7-12.8,28.7-28.7S767.6,158.3,751.7,158.3z
	 M755.1,194.4c0,0.2,0,0.4-0.1,0.5c-0.1,0.2-0.2,0.3-0.3,0.4c-0.1,0.1-0.3,0.2-0.4,0.2c-0.2,0-0.3,0.1-0.5,0.1h-1.4
	c-0.3,0-0.6,0-0.8-0.1s-0.4-0.2-0.6-0.3c-0.2-0.2-0.4-0.4-0.5-0.6c-0.2-0.3-0.4-0.6-0.6-1l-4.1-7.7c-0.2-0.5-0.5-1-0.7-1.5
	s-0.5-1-0.7-1.5l0,0c0,0.6,0.1,1.2,0.1,1.8s0,1.2,0,1.9v8.6c0,0.1,0,0.2-0.1,0.2c0,0.1-0.1,0.1-0.2,0.2s-0.3,0.1-0.5,0.1
	s-0.4,0-0.8,0c-0.3,0-0.5,0-0.7,0s-0.3-0.1-0.5-0.1c-0.1,0-0.2-0.1-0.2-0.2c0-0.1-0.1-0.1-0.1-0.2v-14.8c0-0.4,0.1-0.7,0.3-0.9
	s0.5-0.3,0.9-0.3h1.8c0.3,0,0.6,0,0.8,0.1s0.4,0.1,0.6,0.3c0.2,0.1,0.3,0.3,0.5,0.5s0.3,0.5,0.5,0.8l3.2,6c0.2,0.4,0.4,0.7,0.6,1.1
	c0.2,0.4,0.4,0.7,0.5,1.1s0.3,0.7,0.5,1s0.3,0.7,0.5,1l0,0c0-0.6,0-1.2-0.1-1.9c0-0.6,0-1.3,0-1.8v-7.7c0-0.1,0-0.2,0.1-0.2
	c0.1-0.1,0.1-0.1,0.3-0.2s0.3-0.1,0.5-0.1s0.4,0,0.8,0c0.3,0,0.5,0,0.7,0s0.3,0.1,0.5,0.1s0.2,0.1,0.2,0.2c0,0.1,0.1,0.1,0.1,0.2
	L755.1,194.4L755.1,194.4z M761.7,195.2c0,0.1,0,0.2-0.1,0.2c-0.1,0.1-0.1,0.1-0.3,0.2c-0.1,0-0.3,0.1-0.5,0.1s-0.5,0-0.8,0
	s-0.6,0-0.8,0s-0.4-0.1-0.5-0.1s-0.2-0.1-0.3-0.2c-0.1-0.1-0.1-0.1-0.1-0.2v-11.3c0-0.1,0-0.2,0.1-0.2c0.1-0.1,0.1-0.1,0.3-0.2
	c0.1,0,0.3-0.1,0.5-0.1s0.5,0,0.8,0s0.6,0,0.8,0s0.4,0.1,0.5,0.1s0.2,0.1,0.3,0.2c0.1,0.1,0.1,0.1,0.1,0.2V195.2z M761.5,181.3
	c-0.3,0.2-0.7,0.4-1.5,0.4c-0.7,0-1.2-0.1-1.5-0.4s-0.4-0.7-0.4-1.3s0.1-1.1,0.4-1.3s0.7-0.4,1.5-0.4c0.7,0,1.2,0.1,1.4,0.4
	c0.3,0.2,0.4,0.7,0.4,1.3C761.9,180.6,761.8,181.1,761.5,181.3z"/>
<path class="st1" d="M97.9,158.3c-15.9,0-28.7,12.8-28.7,28.7s12.8,28.7,28.7,28.7s28.7-12.8,28.7-28.7S113.8,158.3,97.9,158.3z
	 M101.3,194.4c0,0.2,0,0.4-0.1,0.5c-0.1,0.2-0.2,0.3-0.3,0.4c-0.1,0.1-0.3,0.2-0.4,0.2c-0.2,0-0.3,0.1-0.5,0.1h-1.4
	c-0.3,0-0.6,0-0.8-0.1s-0.4-0.2-0.6-0.3c-0.2-0.2-0.4-0.4-0.5-0.6c-0.2-0.3-0.4-0.6-0.6-1l-4.1-7.7c-0.2-0.5-0.5-1-0.7-1.5
	s-0.5-1-0.7-1.5l0,0c0,0.6,0.1,1.2,0.1,1.8s0,1.2,0,1.9v8.6c0,0.1,0,0.2-0.1,0.2c0,0.1-0.1,0.1-0.2,0.2s-0.3,0.1-0.5,0.1
	s-0.4,0-0.8,0c-0.3,0-0.5,0-0.7,0s-0.3-0.1-0.5-0.1c-0.1,0-0.2-0.1-0.2-0.2c0-0.1-0.1-0.1-0.1-0.2v-14.8c0-0.4,0.1-0.7,0.3-0.9
	s0.5-0.3,0.9-0.3h1.8c0.3,0,0.6,0,0.8,0.1s0.4,0.1,0.6,0.3c0.2,0.1,0.3,0.3,0.5,0.5s0.3,0.5,0.5,0.8l3.2,6c0.2,0.4,0.4,0.7,0.6,1.1
	c0.2,0.4,0.4,0.7,0.5,1.1s0.3,0.7,0.5,1s0.3,0.7,0.5,1l0,0c0-0.6,0-1.2-0.1-1.9c0-0.6,0-1.3,0-1.8v-7.7c0-0.1,0-0.2,0.1-0.2
	c0.1-0.1,0.1-0.1,0.3-0.2s0.3-0.1,0.5-0.1s0.4,0,0.8,0c0.3,0,0.5,0,0.7,0s0.3,0.1,0.5,0.1s0.2,0.1,0.2,0.2c0,0.1,0.1,0.1,0.1,0.2
	v14.7L101.3,194.4L101.3,194.4z M107.9,195.2c0,0.1,0,0.2-0.1,0.2c-0.1,0.1-0.1,0.1-0.3,0.2c-0.1,0-0.3,0.1-0.5,0.1s-0.5,0-0.8,0
	s-0.6,0-0.8,0s-0.4-0.1-0.5-0.1s-0.2-0.1-0.3-0.2c-0.1-0.1-0.1-0.1-0.1-0.2v-11.3c0-0.1,0-0.2,0.1-0.2c0.1-0.1,0.1-0.1,0.3-0.2
	c0.1,0,0.3-0.1,0.5-0.1s0.5,0,0.8,0s0.6,0,0.8,0s0.4,0.1,0.5,0.1s0.2,0.1,0.3,0.2c0.1,0.1,0.1,0.1,0.1,0.2V195.2z M107.7,181.3
	c-0.3,0.2-0.7,0.4-1.5,0.4c-0.7,0-1.2-0.1-1.5-0.4s-0.4-0.7-0.4-1.3s0.1-1.1,0.4-1.3s0.7-0.4,1.5-0.4c0.7,0,1.2,0.1,1.4,0.4
	c0.3,0.2,0.4,0.7,0.4,1.3C108.1,180.6,108,181.1,107.7,181.3z"/>
<path class="st1" d="M163.3,92.9c-15.9,0-28.7,12.8-28.7,28.7s12.8,28.7,28.7,28.7s28.7-12.8,28.7-28.7
	C192,105.8,179.2,92.9,163.3,92.9z M166.7,129c0,0.2,0,0.4-0.1,0.5c-0.1,0.2-0.2,0.3-0.3,0.4s-0.3,0.2-0.4,0.2
	c-0.2,0-0.3,0.1-0.5,0.1H164c-0.3,0-0.6,0-0.8-0.1s-0.4-0.2-0.6-0.3c-0.2-0.2-0.4-0.4-0.5-0.6c-0.2-0.3-0.4-0.6-0.6-1l-4.1-7.7
	c-0.2-0.5-0.5-1-0.7-1.5s-0.5-1-0.7-1.5l0,0c0,0.6,0.1,1.2,0.1,1.8c0,0.6,0,1.2,0,1.9v8.6c0,0.1,0,0.2-0.1,0.2
	c0,0.1-0.1,0.1-0.2,0.2s-0.3,0.1-0.5,0.1s-0.4,0-0.8,0c-0.3,0-0.5,0-0.7,0s-0.3-0.1-0.5-0.1c-0.1,0-0.2-0.1-0.2-0.2
	s-0.1-0.1-0.1-0.2V115c0-0.4,0.1-0.7,0.3-0.9c0.2-0.2,0.5-0.3,0.9-0.3h1.8c0.3,0,0.6,0,0.8,0.1s0.4,0.1,0.6,0.3
	c0.2,0.1,0.3,0.3,0.5,0.5s0.3,0.5,0.5,0.8l3.2,6c0.2,0.4,0.4,0.7,0.6,1.1c0.2,0.4,0.4,0.7,0.5,1.1s0.3,0.7,0.5,1s0.3,0.7,0.5,1l0,0
	c0-0.6,0-1.2-0.1-1.9c0-0.6,0-1.3,0-1.8v-7.7c0-0.1,0-0.2,0.1-0.2c0.1-0.1,0.1-0.1,0.3-0.2s0.3-0.1,0.5-0.1s0.4,0,0.8,0
	c0.3,0,0.5,0,0.7,0s0.3,0.1,0.5,0.1s0.2,0.1,0.2,0.2s0.1,0.1,0.1,0.2V129H166.7z M173.3,129.8c0,0.1,0,0.2-0.1,0.2
	c-0.1,0.1-0.1,0.1-0.3,0.2c-0.1,0-0.3,0.1-0.5,0.1s-0.5,0-0.8,0s-0.6,0-0.8,0s-0.4-0.1-0.5-0.1s-0.2-0.1-0.3-0.2s-0.1-0.1-0.1-0.2
	v-11.3c0-0.1,0-0.2,0.1-0.2c0.1-0.1,0.1-0.1,0.3-0.2c0.1,0,0.3-0.1,0.5-0.1s0.5,0,0.8,0s0.6,0,0.8,0s0.4,0.1,0.5,0.1
	s0.2,0.1,0.3,0.2s0.1,0.1,0.1,0.2V129.8z M173.1,115.9c-0.3,0.2-0.7,0.4-1.5,0.4c-0.7,0-1.2-0.1-1.5-0.4s-0.4-0.7-0.4-1.3
	c0-0.6,0.1-1.1,0.4-1.3s0.7-0.4,1.5-0.4c0.7,0,1.2,0.1,1.4,0.4c0.3,0.2,0.4,0.7,0.4,1.3C173.5,115.2,173.4,115.7,173.1,115.9z"/>
<path class="st1" d="M32.5,92.9c-15.9,0-28.7,12.8-28.7,28.7s12.8,28.7,28.7,28.7s28.7-12.8,28.7-28.7
	C61.2,105.8,48.4,92.9,32.5,92.9z M35.9,129c0,0.2,0,0.4-0.1,0.5c-0.1,0.2-0.2,0.3-0.3,0.4s-0.3,0.2-0.4,0.2c-0.2,0-0.3,0.1-0.5,0.1
	h-1.4c-0.3,0-0.6,0-0.8-0.1s-0.4-0.2-0.6-0.3c-0.2-0.2-0.4-0.4-0.5-0.6c-0.2-0.3-0.4-0.6-0.6-1l-4.1-7.7c-0.2-0.5-0.5-1-0.7-1.5
	s-0.5-1-0.7-1.5l0,0c0,0.6,0.1,1.2,0.1,1.8c0,0.6,0,1.2,0,1.9v8.6c0,0.1,0,0.2-0.1,0.2c0,0.1-0.1,0.1-0.2,0.2s-0.3,0.1-0.5,0.1
	s-0.4,0-0.8,0c-0.3,0-0.5,0-0.7,0s-0.3-0.1-0.5-0.1c-0.1,0-0.2-0.1-0.2-0.2s-0.1-0.1-0.1-0.2V115c0-0.4,0.1-0.7,0.3-0.9
	c0.2-0.2,0.5-0.3,0.9-0.3h1.8c0.3,0,0.6,0,0.8,0.1s0.4,0.1,0.6,0.3c0.2,0.1,0.3,0.3,0.5,0.5s0.3,0.5,0.5,0.8l3.2,6
	c0.2,0.4,0.4,0.7,0.6,1.1s0.4,0.7,0.5,1.1s0.3,0.7,0.5,1s0.3,0.7,0.5,1l0,0c0-0.6,0-1.2-0.1-1.9c0-0.6,0-1.3,0-1.8v-7.7
	c0-0.1,0-0.2,0.1-0.2c0.1-0.1,0.1-0.1,0.3-0.2s0.3-0.1,0.5-0.1s0.4,0,0.8,0c0.3,0,0.5,0,0.7,0s0.3,0.1,0.5,0.1s0.2,0.1,0.2,0.2
	s0.1,0.1,0.1,0.2L35.9,129L35.9,129z M42.5,129.8c0,0.1,0,0.2-0.1,0.2c-0.1,0.1-0.1,0.1-0.3,0.2c-0.1,0-0.3,0.1-0.5,0.1
	s-0.5,0-0.8,0s-0.6,0-0.8,0s-0.4-0.1-0.5-0.1s-0.2-0.1-0.3-0.2s-0.1-0.1-0.1-0.2v-11.3c0-0.1,0-0.2,0.1-0.2c0.1-0.1,0.1-0.1,0.3-0.2
	c0.1,0,0.3-0.1,0.5-0.1s0.5,0,0.8,0s0.6,0,0.8,0s0.4,0.1,0.5,0.1s0.2,0.1,0.3,0.2s0.1,0.1,0.1,0.2V129.8z M42.3,115.9
	c-0.3,0.2-0.7,0.4-1.5,0.4c-0.7,0-1.2-0.1-1.5-0.4s-0.4-0.7-0.4-1.3c0-0.6,0.1-1.1,0.4-1.3s0.7-0.4,1.5-0.4c0.7,0,1.2,0.1,1.4,0.4
	c0.3,0.2,0.4,0.7,0.4,1.3C42.7,115.2,42.6,115.7,42.3,115.9z"/>
<path class="st1" d="M686.3,92.9c-15.9,0-28.7,12.8-28.7,28.7s12.8,28.7,28.7,28.7s28.7-12.8,28.7-28.7
	C715,105.8,702.2,92.9,686.3,92.9z M689.7,129c0,0.2,0,0.4-0.1,0.5c-0.1,0.2-0.2,0.3-0.3,0.4s-0.3,0.2-0.4,0.2
	c-0.2,0-0.3,0.1-0.5,0.1H687c-0.3,0-0.6,0-0.8-0.1s-0.4-0.2-0.6-0.3c-0.2-0.2-0.4-0.4-0.5-0.6c-0.2-0.3-0.4-0.6-0.6-1l-4.1-7.7
	c-0.2-0.5-0.5-1-0.7-1.5s-0.5-1-0.7-1.5l0,0c0,0.6,0.1,1.2,0.1,1.8c0,0.6,0,1.2,0,1.9v8.6c0,0.1,0,0.2-0.1,0.2
	c0,0.1-0.1,0.1-0.2,0.2s-0.3,0.1-0.5,0.1s-0.4,0-0.8,0c-0.3,0-0.5,0-0.7,0s-0.3-0.1-0.5-0.1c-0.1,0-0.2-0.1-0.2-0.2
	s-0.1-0.1-0.1-0.2V115c0-0.4,0.1-0.7,0.3-0.9c0.2-0.2,0.5-0.3,0.9-0.3h1.8c0.3,0,0.6,0,0.8,0.1s0.4,0.1,0.6,0.3
	c0.2,0.1,0.3,0.3,0.5,0.5s0.3,0.5,0.5,0.8l3.2,6c0.2,0.4,0.4,0.7,0.6,1.1c0.2,0.4,0.4,0.7,0.5,1.1s0.3,0.7,0.5,1s0.3,0.7,0.5,1l0,0
	c0-0.6,0-1.2-0.1-1.9c0-0.6,0-1.3,0-1.8v-7.7c0-0.1,0-0.2,0.1-0.2c0.1-0.1,0.1-0.1,0.3-0.2s0.3-0.1,0.5-0.1s0.4,0,0.8,0
	c0.3,0,0.5,0,0.7,0s0.3,0.1,0.5,0.1s0.2,0.1,0.2,0.2s0.1,0.1,0.1,0.2L689.7,129L689.7,129z M696.3,129.8c0,0.1,0,0.2-0.1,0.2
	c-0.1,0.1-0.1,0.1-0.3,0.2c-0.1,0-0.3,0.1-0.5,0.1s-0.5,0-0.8,0s-0.6,0-0.8,0s-0.4-0.1-0.5-0.1s-0.2-0.1-0.3-0.2s-0.1-0.1-0.1-0.2
	v-11.3c0-0.1,0-0.2,0.1-0.2c0.1-0.1,0.1-0.1,0.3-0.2c0.1,0,0.3-0.1,0.5-0.1s0.5,0,0.8,0s0.6,0,0.8,0s0.4,0.1,0.5,0.1
	s0.2,0.1,0.3,0.2s0.1,0.1,0.1,0.2V129.8z M696.1,115.9c-0.3,0.2-0.7,0.4-1.5,0.4c-0.7,0-1.2-0.1-1.5-0.4s-0.4-0.7-0.4-1.3
	c0-0.6,0.1-1.1,0.4-1.3s0.7-0.4,1.5-0.4c0.7,0,1.2,0.1,1.4,0.4c0.3,0.2,0.4,0.7,0.4,1.3C696.5,115.2,696.4,115.7,696.1,115.9z"/>
<path class="st1" d="M817.1,92.9c-15.9,0-28.7,12.8-28.7,28.7s12.8,28.7,28.7,28.7s28.7-12.8,28.7-28.7
	C845.8,105.8,833,92.9,817.1,92.9z M820.5,129c0,0.2,0,0.4-0.1,0.5c-0.1,0.2-0.2,0.3-0.3,0.4s-0.3,0.2-0.4,0.2
	c-0.2,0-0.3,0.1-0.5,0.1h-1.4c-0.3,0-0.6,0-0.8-0.1s-0.4-0.2-0.6-0.3c-0.2-0.2-0.4-0.4-0.5-0.6c-0.2-0.3-0.4-0.6-0.6-1l-4.1-7.7
	c-0.2-0.5-0.5-1-0.7-1.5s-0.5-1-0.7-1.5l0,0c0,0.6,0.1,1.2,0.1,1.8c0,0.6,0,1.2,0,1.9v8.6c0,0.1,0,0.2-0.1,0.2
	c0,0.1-0.1,0.1-0.2,0.2s-0.3,0.1-0.5,0.1s-0.4,0-0.8,0c-0.3,0-0.5,0-0.7,0s-0.3-0.1-0.5-0.1c-0.1,0-0.2-0.1-0.2-0.2
	s-0.1-0.1-0.1-0.2V115c0-0.4,0.1-0.7,0.3-0.9c0.2-0.2,0.5-0.3,0.9-0.3h1.8c0.3,0,0.6,0,0.8,0.1s0.4,0.1,0.6,0.3
	c0.2,0.1,0.3,0.3,0.5,0.5s0.3,0.5,0.5,0.8l3.2,6c0.2,0.4,0.4,0.7,0.6,1.1c0.2,0.4,0.4,0.7,0.5,1.1s0.3,0.7,0.5,1s0.3,0.7,0.5,1l0,0
	c0-0.6,0-1.2-0.1-1.9c0-0.6,0-1.3,0-1.8v-7.7c0-0.1,0-0.2,0.1-0.2c0.1-0.1,0.1-0.1,0.3-0.2s0.3-0.1,0.5-0.1s0.4,0,0.8,0
	c0.3,0,0.5,0,0.7,0s0.3,0.1,0.5,0.1s0.2,0.1,0.2,0.2s0.1,0.1,0.1,0.2L820.5,129L820.5,129z M827.1,129.8c0,0.1,0,0.2-0.1,0.2
	c-0.1,0.1-0.1,0.1-0.3,0.2c-0.1,0-0.3,0.1-0.5,0.1s-0.5,0-0.8,0s-0.6,0-0.8,0s-0.4-0.1-0.5-0.1s-0.2-0.1-0.3-0.2s-0.1-0.1-0.1-0.2
	v-11.3c0-0.1,0-0.2,0.1-0.2c0.1-0.1,0.1-0.1,0.3-0.2c0.1,0,0.3-0.1,0.5-0.1s0.5,0,0.8,0s0.6,0,0.8,0s0.4,0.1,0.5,0.1
	s0.2,0.1,0.3,0.2s0.1,0.1,0.1,0.2V129.8z M826.9,115.9c-0.3,0.2-0.7,0.4-1.5,0.4c-0.7,0-1.2-0.1-1.5-0.4s-0.4-0.7-0.4-1.3
	c0-0.6,0.1-1.1,0.4-1.3s0.7-0.4,1.5-0.4c0.7,0,1.2,0.1,1.4,0.4c0.3,0.2,0.4,0.7,0.4,1.3C827.3,115.2,827.2,115.7,826.9,115.9z"/>
<path class="st2" d="M620.9,21.8c-19,0-34.4,15.4-34.4,34.4s15.4,34.4,34.4,34.4c19,0,34.4-15.4,34.4-34.4S639.9,21.8,620.9,21.8z
	 M622.2,62.5c0,0.1,0,0.3-0.1,0.4c0,0.1-0.1,0.2-0.1,0.3c0,0.1-0.1,0.2-0.2,0.3c-0.1,0.1-0.3,0.2-0.5,0.4s-0.6,0.3-1,0.4
	c-0.4,0.1-0.8,0.3-1.3,0.3c-0.5,0.1-1,0.1-1.6,0.1c-1.1,0-2.1-0.2-3.1-0.5c-0.9-0.3-1.7-0.9-2.3-1.6c-0.6-0.7-1.1-1.6-1.5-2.6
	c-0.3-1-0.5-2.2-0.5-3.6c0-1.4,0.2-2.6,0.6-3.7c0.4-1.1,0.9-2,1.6-2.7c0.7-0.7,1.5-1.3,2.4-1.7c0.9-0.4,2-0.6,3.1-0.6
	c0.5,0,0.9,0,1.3,0.1s0.8,0.2,1.2,0.3c0.4,0.1,0.7,0.3,1,0.4c0.3,0.2,0.5,0.3,0.6,0.4c0.1,0.1,0.2,0.2,0.2,0.3
	c0,0.1,0.1,0.2,0.1,0.3c0,0.1,0,0.3,0.1,0.4c0,0.2,0,0.4,0,0.6c0,0.3,0,0.5,0,0.6s0,0.3-0.1,0.4c0,0.1-0.1,0.2-0.2,0.2
	c-0.1,0.1-0.1,0.1-0.2,0.1c-0.1,0-0.3-0.1-0.5-0.2c-0.2-0.1-0.4-0.3-0.8-0.5c-0.3-0.2-0.7-0.3-1.1-0.5s-0.9-0.2-1.5-0.2
	c-0.7,0-1.2,0.1-1.7,0.4s-0.9,0.6-1.3,1.1c-0.4,0.5-0.6,1.1-0.8,1.8s-0.3,1.5-0.3,2.4c0,1,0.1,1.8,0.3,2.5c0.2,0.7,0.5,1.3,0.9,1.7
	c0.4,0.5,0.8,0.8,1.3,1c0.5,0.2,1.1,0.3,1.8,0.3c0.6,0,1.1-0.1,1.5-0.2c0.4-0.1,0.8-0.3,1.1-0.5c0.3-0.2,0.6-0.3,0.8-0.5
	c0.2-0.1,0.4-0.2,0.5-0.2c0.1,0,0.2,0,0.2,0.1c0.1,0,0.1,0.1,0.1,0.2c0,0.1,0.1,0.2,0.1,0.4c0,0.2,0,0.4,0,0.7
	C622.2,62.1,622.2,62.3,622.2,62.5z M631.7,54.5c0,0.2,0,0.3-0.1,0.5c0,0.1-0.1,0.2-0.1,0.2c-0.1,0-0.1,0.1-0.2,0.1
	c-0.1,0-0.1,0-0.2,0c-0.1,0-0.2-0.1-0.3-0.1c-0.1,0-0.2-0.1-0.3-0.1c-0.1,0-0.3,0-0.4,0c-0.2,0-0.4,0-0.5,0.1
	c-0.2,0.1-0.4,0.2-0.6,0.3c-0.2,0.2-0.4,0.4-0.6,0.6c-0.2,0.3-0.4,0.6-0.7,0.9V64c0,0.1,0,0.2-0.1,0.2c-0.1,0.1-0.1,0.1-0.3,0.2
	c-0.1,0-0.3,0.1-0.5,0.1c-0.2,0-0.5,0-0.8,0s-0.6,0-0.8,0c-0.2,0-0.4-0.1-0.5-0.1c-0.1,0-0.2-0.1-0.3-0.2s-0.1-0.1-0.1-0.2V52.7
	c0-0.1,0-0.2,0.1-0.2s0.1-0.1,0.2-0.2c0.1,0,0.3-0.1,0.4-0.1c0.2,0,0.4,0,0.7,0c0.3,0,0.5,0,0.7,0c0.2,0,0.3,0.1,0.4,0.1
	c0.1,0,0.2,0.1,0.2,0.2s0.1,0.1,0.1,0.2v1.4c0.3-0.4,0.6-0.8,0.8-1c0.3-0.3,0.5-0.5,0.8-0.7c0.2-0.2,0.5-0.3,0.7-0.3
	s0.5-0.1,0.7-0.1c0.1,0,0.2,0,0.4,0s0.3,0,0.4,0.1c0.1,0,0.3,0.1,0.4,0.1c0.1,0,0.2,0.1,0.2,0.1c0,0,0.1,0.1,0.1,0.1
	c0,0.1,0,0.1,0.1,0.2c0,0.1,0,0.2,0,0.4c0,0.2,0,0.4,0,0.7C631.7,54,631.7,54.3,631.7,54.5z"/>
<path class="st2" d="M490.2,21.8c-19,0-34.4,15.4-34.4,34.4s15.4,34.4,34.4,34.4s34.4-15.4,34.4-34.4S509.2,21.8,490.2,21.8z
	 M491.5,62.5c0,0.1,0,0.3-0.1,0.4c0,0.1-0.1,0.2-0.1,0.3c0,0.1-0.1,0.2-0.2,0.3c-0.1,0.1-0.3,0.2-0.5,0.4s-0.6,0.3-1,0.4
	c-0.4,0.1-0.8,0.3-1.3,0.3c-0.5,0.1-1,0.1-1.6,0.1c-1.1,0-2.1-0.2-3.1-0.5c-0.9-0.3-1.7-0.9-2.3-1.6c-0.6-0.7-1.1-1.6-1.5-2.6
	c-0.3-1-0.5-2.2-0.5-3.6c0-1.4,0.2-2.6,0.6-3.7c0.4-1.1,0.9-2,1.6-2.7c0.7-0.7,1.5-1.3,2.4-1.7c0.9-0.4,2-0.6,3.1-0.6
	c0.5,0,0.9,0,1.3,0.1s0.8,0.2,1.2,0.3c0.4,0.1,0.7,0.3,1,0.4c0.3,0.2,0.5,0.3,0.6,0.4c0.1,0.1,0.2,0.2,0.2,0.3
	c0,0.1,0.1,0.2,0.1,0.3c0,0.1,0,0.3,0.1,0.4c0,0.2,0,0.4,0,0.6c0,0.3,0,0.5,0,0.6s0,0.3-0.1,0.4c0,0.1-0.1,0.2-0.2,0.2
	c-0.1,0.1-0.1,0.1-0.2,0.1c-0.1,0-0.3-0.1-0.5-0.2c-0.2-0.1-0.4-0.3-0.8-0.5c-0.3-0.2-0.7-0.3-1.1-0.5s-0.9-0.2-1.5-0.2
	c-0.7,0-1.2,0.1-1.7,0.4s-0.9,0.6-1.3,1.1c-0.4,0.5-0.6,1.1-0.8,1.8s-0.3,1.5-0.3,2.4c0,1,0.1,1.8,0.3,2.5c0.2,0.7,0.5,1.3,0.9,1.7
	c0.4,0.5,0.8,0.8,1.3,1c0.5,0.2,1.1,0.3,1.8,0.3c0.6,0,1.1-0.1,1.5-0.2c0.4-0.1,0.8-0.3,1.1-0.5c0.3-0.2,0.6-0.3,0.8-0.5
	c0.2-0.1,0.4-0.2,0.5-0.2c0.1,0,0.2,0,0.2,0.1c0.1,0,0.1,0.1,0.1,0.2c0,0.1,0.1,0.2,0.1,0.4c0,0.2,0,0.4,0,0.7
	C491.5,62.1,491.5,62.3,491.5,62.5z M501,54.5c0,0.2,0,0.3-0.1,0.5c0,0.1-0.1,0.2-0.1,0.2c-0.1,0-0.1,0.1-0.2,0.1
	c-0.1,0-0.1,0-0.2,0c-0.1,0-0.2-0.1-0.3-0.1c-0.1,0-0.2-0.1-0.3-0.1c-0.1,0-0.3,0-0.4,0c-0.2,0-0.4,0-0.5,0.1
	c-0.2,0.1-0.4,0.2-0.6,0.3c-0.2,0.2-0.4,0.4-0.6,0.6c-0.2,0.3-0.4,0.6-0.7,0.9V64c0,0.1,0,0.2-0.1,0.2c-0.1,0.1-0.1,0.1-0.3,0.2
	c-0.1,0-0.3,0.1-0.5,0.1c-0.2,0-0.5,0-0.8,0s-0.6,0-0.8,0c-0.2,0-0.4-0.1-0.5-0.1c-0.1,0-0.2-0.1-0.3-0.2s-0.1-0.1-0.1-0.2V52.7
	c0-0.1,0-0.2,0.1-0.2s0.1-0.1,0.2-0.2c0.1,0,0.3-0.1,0.4-0.1c0.2,0,0.4,0,0.7,0c0.3,0,0.5,0,0.7,0c0.2,0,0.3,0.1,0.4,0.1
	c0.1,0,0.2,0.1,0.2,0.2s0.1,0.1,0.1,0.2v1.4c0.3-0.4,0.6-0.8,0.8-1c0.3-0.3,0.5-0.5,0.8-0.7c0.2-0.2,0.5-0.3,0.7-0.3
	s0.5-0.1,0.7-0.1c0.1,0,0.2,0,0.4,0s0.3,0,0.4,0.1c0.1,0,0.3,0.1,0.4,0.1c0.1,0,0.2,0.1,0.2,0.1c0,0,0.1,0.1,0.1,0.1
	c0,0.1,0,0.1,0.1,0.2c0,0.1,0,0.2,0,0.4c0,0.2,0,0.4,0,0.7C501,54,501,54.3,501,54.5z"/>
<path class="st2" d="M424.8,87.2c-19,0-34.4,15.4-34.4,34.4s15.4,34.4,34.4,34.4s34.4-15.4,34.4-34.4S443.8,87.2,424.8,87.2z
	 M426.1,127.9c0,0.1,0,0.3-0.1,0.4c0,0.1-0.1,0.2-0.1,0.3c0,0.1-0.1,0.2-0.2,0.3c-0.1,0.1-0.3,0.2-0.5,0.4s-0.6,0.3-1,0.4
	c-0.4,0.1-0.8,0.3-1.3,0.3c-0.5,0.1-1,0.1-1.6,0.1c-1.1,0-2.1-0.2-3.1-0.5c-0.9-0.3-1.7-0.9-2.3-1.6c-0.6-0.7-1.1-1.6-1.5-2.6
	c-0.3-1-0.5-2.2-0.5-3.6c0-1.4,0.2-2.6,0.6-3.7c0.4-1.1,0.9-2,1.6-2.7c0.7-0.7,1.5-1.3,2.4-1.7c0.9-0.4,2-0.6,3.1-0.6
	c0.5,0,0.9,0,1.3,0.1s0.8,0.2,1.2,0.3c0.4,0.1,0.7,0.3,1,0.4c0.3,0.2,0.5,0.3,0.6,0.4c0.1,0.1,0.2,0.2,0.2,0.3
	c0,0.1,0.1,0.2,0.1,0.3c0,0.1,0,0.3,0.1,0.4c0,0.2,0,0.4,0,0.6c0,0.3,0,0.5,0,0.6s0,0.3-0.1,0.4c0,0.1-0.1,0.2-0.2,0.2
	c-0.1,0.1-0.1,0.1-0.2,0.1c-0.1,0-0.3-0.1-0.5-0.2c-0.2-0.1-0.4-0.3-0.8-0.5c-0.3-0.2-0.7-0.3-1.1-0.5s-0.9-0.2-1.5-0.2
	c-0.7,0-1.2,0.1-1.7,0.4s-0.9,0.6-1.3,1.1c-0.4,0.5-0.6,1.1-0.8,1.8s-0.3,1.5-0.3,2.4c0,1,0.1,1.8,0.3,2.5c0.2,0.7,0.5,1.3,0.9,1.7
	c0.4,0.5,0.8,0.8,1.3,1c0.5,0.2,1.1,0.3,1.8,0.3c0.6,0,1.1-0.1,1.5-0.2c0.4-0.1,0.8-0.3,1.1-0.5c0.3-0.2,0.6-0.3,0.8-0.5
	c0.2-0.1,0.4-0.2,0.5-0.2c0.1,0,0.2,0,0.2,0.1c0.1,0,0.1,0.1,0.1,0.2c0,0.1,0.1,0.2,0.1,0.4c0,0.2,0,0.4,0,0.7
	C426.1,127.5,426.1,127.7,426.1,127.9z M435.6,119.9c0,0.2,0,0.3-0.1,0.5c0,0.1-0.1,0.2-0.1,0.2c-0.1,0-0.1,0.1-0.2,0.1
	c-0.1,0-0.1,0-0.2,0c-0.1,0-0.2-0.1-0.3-0.1c-0.1,0-0.2-0.1-0.3-0.1c-0.1,0-0.3,0-0.4,0c-0.2,0-0.4,0-0.5,0.1
	c-0.2,0.1-0.4,0.2-0.6,0.3c-0.2,0.2-0.4,0.4-0.6,0.6c-0.2,0.3-0.4,0.6-0.7,0.9v7.1c0,0.1,0,0.2-0.1,0.2c-0.1,0.1-0.1,0.1-0.3,0.2
	c-0.1,0-0.3,0.1-0.5,0.1c-0.2,0-0.5,0-0.8,0s-0.6,0-0.8,0c-0.2,0-0.4-0.1-0.5-0.1c-0.1,0-0.2-0.1-0.3-0.2s-0.1-0.1-0.1-0.2v-11.3
	c0-0.1,0-0.2,0.1-0.2s0.1-0.1,0.2-0.2c0.1,0,0.3-0.1,0.4-0.1c0.2,0,0.4,0,0.7,0c0.3,0,0.5,0,0.7,0c0.2,0,0.3,0.1,0.4,0.1
	c0.1,0,0.2,0.1,0.2,0.2s0.1,0.1,0.1,0.2v1.4c0.3-0.4,0.6-0.8,0.8-1c0.3-0.3,0.5-0.5,0.8-0.7c0.2-0.2,0.5-0.3,0.7-0.3
	s0.5-0.1,0.7-0.1c0.1,0,0.2,0,0.4,0s0.3,0,0.4,0.1c0.1,0,0.3,0.1,0.4,0.1c0.1,0,0.2,0.1,0.2,0.1c0,0,0.1,0.1,0.1,0.1
	c0,0.1,0,0.1,0.1,0.2c0,0.1,0,0.2,0,0.4c0,0.2,0,0.4,0,0.7C435.6,119.4,435.6,119.7,435.6,119.9z"/>
<path class="st2" d="M294.1,87.2c-19,0-34.4,15.4-34.4,34.4s15.4,34.4,34.4,34.4s34.4-15.4,34.4-34.4S313.1,87.2,294.1,87.2z
	 M295.4,127.9c0,0.1,0,0.3-0.1,0.4c0,0.1-0.1,0.2-0.1,0.3c0,0.1-0.1,0.2-0.2,0.3c-0.1,0.1-0.3,0.2-0.5,0.4s-0.6,0.3-1,0.4
	c-0.4,0.1-0.8,0.3-1.3,0.3c-0.5,0.1-1,0.1-1.6,0.1c-1.1,0-2.1-0.2-3.1-0.5c-0.9-0.3-1.7-0.9-2.3-1.6c-0.6-0.7-1.1-1.6-1.5-2.6
	c-0.3-1-0.5-2.2-0.5-3.6c0-1.4,0.2-2.6,0.6-3.7c0.4-1.1,0.9-2,1.6-2.7c0.7-0.7,1.5-1.3,2.4-1.7c0.9-0.4,2-0.6,3.1-0.6
	c0.5,0,0.9,0,1.3,0.1s0.8,0.2,1.2,0.3c0.4,0.1,0.7,0.3,1,0.4c0.3,0.2,0.5,0.3,0.6,0.4c0.1,0.1,0.2,0.2,0.2,0.3
	c0,0.1,0.1,0.2,0.1,0.3c0,0.1,0,0.3,0.1,0.4c0,0.2,0,0.4,0,0.6c0,0.3,0,0.5,0,0.6s0,0.3-0.1,0.4c0,0.1-0.1,0.2-0.2,0.2
	c-0.1,0.1-0.1,0.1-0.2,0.1c-0.1,0-0.3-0.1-0.5-0.2c-0.2-0.1-0.4-0.3-0.8-0.5c-0.3-0.2-0.7-0.3-1.1-0.5s-0.9-0.2-1.5-0.2
	c-0.7,0-1.2,0.1-1.7,0.4s-0.9,0.6-1.3,1.1c-0.4,0.5-0.6,1.1-0.8,1.8s-0.3,1.5-0.3,2.4c0,1,0.1,1.8,0.3,2.5c0.2,0.7,0.5,1.3,0.9,1.7
	c0.4,0.5,0.8,0.8,1.3,1c0.5,0.2,1.1,0.3,1.8,0.3c0.6,0,1.1-0.1,1.5-0.2c0.4-0.1,0.8-0.3,1.1-0.5c0.3-0.2,0.6-0.3,0.8-0.5
	c0.2-0.1,0.4-0.2,0.5-0.2c0.1,0,0.2,0,0.2,0.1c0.1,0,0.1,0.1,0.1,0.2c0,0.1,0.1,0.2,0.1,0.4c0,0.2,0,0.4,0,0.7
	C295.4,127.5,295.4,127.7,295.4,127.9z M304.9,119.9c0,0.2,0,0.3-0.1,0.5c0,0.1-0.1,0.2-0.1,0.2c-0.1,0-0.1,0.1-0.2,0.1
	c-0.1,0-0.1,0-0.2,0c-0.1,0-0.2-0.1-0.3-0.1c-0.1,0-0.2-0.1-0.3-0.1c-0.1,0-0.3,0-0.4,0c-0.2,0-0.4,0-0.5,0.1
	c-0.2,0.1-0.4,0.2-0.6,0.3c-0.2,0.2-0.4,0.4-0.6,0.6c-0.2,0.3-0.4,0.6-0.7,0.9v7.1c0,0.1,0,0.2-0.1,0.2c-0.1,0.1-0.1,0.1-0.3,0.2
	c-0.1,0-0.3,0.1-0.5,0.1c-0.2,0-0.5,0-0.8,0s-0.6,0-0.8,0c-0.2,0-0.4-0.1-0.5-0.1c-0.1,0-0.2-0.1-0.3-0.2s-0.1-0.1-0.1-0.2v-11.3
	c0-0.1,0-0.2,0.1-0.2s0.1-0.1,0.2-0.2c0.1,0,0.3-0.1,0.4-0.1c0.2,0,0.4,0,0.7,0c0.3,0,0.5,0,0.7,0c0.2,0,0.3,0.1,0.4,0.1
	c0.1,0,0.2,0.1,0.2,0.2s0.1,0.1,0.1,0.2v1.4c0.3-0.4,0.6-0.8,0.8-1c0.3-0.3,0.5-0.5,0.8-0.7c0.2-0.2,0.5-0.3,0.7-0.3
	s0.5-0.1,0.7-0.1c0.1,0,0.2,0,0.4,0s0.3,0,0.4,0.1c0.1,0,0.3,0.1,0.4,0.1c0.1,0,0.2,0.1,0.2,0.1c0,0,0.1,0.1,0.1,0.1
	c0,0.1,0,0.1,0.1,0.2c0,0.1,0,0.2,0,0.4c0,0.2,0,0.4,0,0.7C304.9,119.4,304.9,119.7,304.9,119.9z"/>
<path class="st2" d="M555.6,87.2c-19,0-34.4,15.4-34.4,34.4s15.4,34.4,34.4,34.4c19,0,34.4-15.4,34.4-34.4S574.6,87.2,555.6,87.2z
	 M556.9,127.9c0,0.1,0,0.3-0.1,0.4c0,0.1-0.1,0.2-0.1,0.3c0,0.1-0.1,0.2-0.2,0.3c-0.1,0.1-0.3,0.2-0.5,0.4s-0.6,0.3-1,0.4
	c-0.4,0.1-0.8,0.3-1.3,0.3c-0.5,0.1-1,0.1-1.6,0.1c-1.1,0-2.1-0.2-3.1-0.5c-0.9-0.3-1.7-0.9-2.3-1.6c-0.6-0.7-1.1-1.6-1.5-2.6
	c-0.3-1-0.5-2.2-0.5-3.6c0-1.4,0.2-2.6,0.6-3.7c0.4-1.1,0.9-2,1.6-2.7c0.7-0.7,1.5-1.3,2.4-1.7c0.9-0.4,2-0.6,3.1-0.6
	c0.5,0,0.9,0,1.3,0.1s0.8,0.2,1.2,0.3c0.4,0.1,0.7,0.3,1,0.4c0.3,0.2,0.5,0.3,0.6,0.4c0.1,0.1,0.2,0.2,0.2,0.3
	c0,0.1,0.1,0.2,0.1,0.3c0,0.1,0,0.3,0.1,0.4c0,0.2,0,0.4,0,0.6c0,0.3,0,0.5,0,0.6s0,0.3-0.1,0.4c0,0.1-0.1,0.2-0.2,0.2
	c-0.1,0.1-0.1,0.1-0.2,0.1c-0.1,0-0.3-0.1-0.5-0.2c-0.2-0.1-0.4-0.3-0.8-0.5c-0.3-0.2-0.7-0.3-1.1-0.5s-0.9-0.2-1.5-0.2
	c-0.7,0-1.2,0.1-1.7,0.4s-0.9,0.6-1.3,1.1c-0.4,0.5-0.6,1.1-0.8,1.8s-0.3,1.5-0.3,2.4c0,1,0.1,1.8,0.3,2.5c0.2,0.7,0.5,1.3,0.9,1.7
	c0.4,0.5,0.8,0.8,1.3,1c0.5,0.2,1.1,0.3,1.8,0.3c0.6,0,1.1-0.1,1.5-0.2c0.4-0.1,0.8-0.3,1.1-0.5c0.3-0.2,0.6-0.3,0.8-0.5
	c0.2-0.1,0.4-0.2,0.5-0.2c0.1,0,0.2,0,0.2,0.1c0.1,0,0.1,0.1,0.1,0.2c0,0.1,0.1,0.2,0.1,0.4c0,0.2,0,0.4,0,0.7
	C556.9,127.5,556.9,127.7,556.9,127.9z M566.4,119.9c0,0.2,0,0.3-0.1,0.5c0,0.1-0.1,0.2-0.1,0.2c-0.1,0-0.1,0.1-0.2,0.1
	c-0.1,0-0.1,0-0.2,0c-0.1,0-0.2-0.1-0.3-0.1c-0.1,0-0.2-0.1-0.3-0.1c-0.1,0-0.3,0-0.4,0c-0.2,0-0.4,0-0.5,0.1
	c-0.2,0.1-0.4,0.2-0.6,0.3c-0.2,0.2-0.4,0.4-0.6,0.6c-0.2,0.3-0.4,0.6-0.7,0.9v7.1c0,0.1,0,0.2-0.1,0.2c-0.1,0.1-0.1,0.1-0.3,0.2
	c-0.1,0-0.3,0.1-0.5,0.1c-0.2,0-0.5,0-0.8,0s-0.6,0-0.8,0c-0.2,0-0.4-0.1-0.5-0.1c-0.1,0-0.2-0.1-0.3-0.2s-0.1-0.1-0.1-0.2v-11.3
	c0-0.1,0-0.2,0.1-0.2s0.1-0.1,0.2-0.2c0.1,0,0.3-0.1,0.4-0.1c0.2,0,0.4,0,0.7,0c0.3,0,0.5,0,0.7,0c0.2,0,0.3,0.1,0.4,0.1
	c0.1,0,0.2,0.1,0.2,0.2s0.1,0.1,0.1,0.2v1.4c0.3-0.4,0.6-0.8,0.8-1c0.3-0.3,0.5-0.5,0.8-0.7c0.2-0.2,0.5-0.3,0.7-0.3
	s0.5-0.1,0.7-0.1c0.1,0,0.2,0,0.4,0s0.3,0,0.4,0.1c0.1,0,0.3,0.1,0.4,0.1c0.1,0,0.2,0.1,0.2,0.1c0,0,0.1,0.1,0.1,0.1
	c0,0.1,0,0.1,0.1,0.2c0,0.1,0,0.2,0,0.4c0,0.2,0,0.4,0,0.7C566.4,119.4,566.4,119.7,566.4,119.9z"/>
<path class="st2" d="M359.4,21.8c-19,0-34.4,15.4-34.4,34.4s15.4,34.4,34.4,34.4s34.4-15.4,34.4-34.4S378.4,21.8,359.4,21.8z
	 M360.7,62.5c0,0.1,0,0.3-0.1,0.4c0,0.1-0.1,0.2-0.1,0.3c0,0.1-0.1,0.2-0.2,0.3c-0.1,0.1-0.3,0.2-0.5,0.4s-0.6,0.3-1,0.4
	c-0.4,0.1-0.8,0.3-1.3,0.3c-0.5,0.1-1,0.1-1.6,0.1c-1.1,0-2.1-0.2-3.1-0.5c-0.9-0.3-1.7-0.9-2.3-1.6c-0.6-0.7-1.1-1.6-1.5-2.6
	c-0.3-1-0.5-2.2-0.5-3.6c0-1.4,0.2-2.6,0.6-3.7c0.4-1.1,0.9-2,1.6-2.7c0.7-0.7,1.5-1.3,2.4-1.7c0.9-0.4,2-0.6,3.1-0.6
	c0.5,0,0.9,0,1.3,0.1s0.8,0.2,1.2,0.3c0.4,0.1,0.7,0.3,1,0.4c0.3,0.2,0.5,0.3,0.6,0.4c0.1,0.1,0.2,0.2,0.2,0.3
	c0,0.1,0.1,0.2,0.1,0.3c0,0.1,0,0.3,0.1,0.4c0,0.2,0,0.4,0,0.6c0,0.3,0,0.5,0,0.6s0,0.3-0.1,0.4c0,0.1-0.1,0.2-0.2,0.2
	c-0.1,0.1-0.1,0.1-0.2,0.1c-0.1,0-0.3-0.1-0.5-0.2c-0.2-0.1-0.4-0.3-0.8-0.5c-0.3-0.2-0.7-0.3-1.1-0.5s-0.9-0.2-1.5-0.2
	c-0.7,0-1.2,0.1-1.7,0.4s-0.9,0.6-1.3,1.1c-0.4,0.5-0.6,1.1-0.8,1.8s-0.3,1.5-0.3,2.4c0,1,0.1,1.8,0.3,2.5c0.2,0.7,0.5,1.3,0.9,1.7
	c0.4,0.5,0.8,0.8,1.3,1c0.5,0.2,1.1,0.3,1.8,0.3c0.6,0,1.1-0.1,1.5-0.2c0.4-0.1,0.8-0.3,1.1-0.5c0.3-0.2,0.6-0.3,0.8-0.5
	c0.2-0.1,0.4-0.2,0.5-0.2c0.1,0,0.2,0,0.2,0.1c0.1,0,0.1,0.1,0.1,0.2c0,0.1,0.1,0.2,0.1,0.4c0,0.2,0,0.4,0,0.7
	C360.7,62.1,360.7,62.3,360.7,62.5z M370.2,54.5c0,0.2,0,0.3-0.1,0.5c0,0.1-0.1,0.2-0.1,0.2c-0.1,0-0.1,0.1-0.2,0.1
	c-0.1,0-0.1,0-0.2,0c-0.1,0-0.2-0.1-0.3-0.1c-0.1,0-0.2-0.1-0.3-0.1c-0.1,0-0.3,0-0.4,0c-0.2,0-0.4,0-0.5,0.1
	c-0.2,0.1-0.4,0.2-0.6,0.3c-0.2,0.2-0.4,0.4-0.6,0.6c-0.2,0.3-0.4,0.6-0.7,0.9V64c0,0.1,0,0.2-0.1,0.2c-0.1,0.1-0.1,0.1-0.3,0.2
	c-0.1,0-0.3,0.1-0.5,0.1c-0.2,0-0.5,0-0.8,0s-0.6,0-0.8,0c-0.2,0-0.4-0.1-0.5-0.1c-0.1,0-0.2-0.1-0.3-0.2s-0.1-0.1-0.1-0.2V52.7
	c0-0.1,0-0.2,0.1-0.2s0.1-0.1,0.2-0.2c0.1,0,0.3-0.1,0.4-0.1c0.2,0,0.4,0,0.7,0c0.3,0,0.5,0,0.7,0c0.2,0,0.3,0.1,0.4,0.1
	c0.1,0,0.2,0.1,0.2,0.2s0.1,0.1,0.1,0.2v1.4c0.3-0.4,0.6-0.8,0.8-1c0.3-0.3,0.5-0.5,0.8-0.7c0.2-0.2,0.5-0.3,0.7-0.3
	s0.5-0.1,0.7-0.1c0.1,0,0.2,0,0.4,0s0.3,0,0.4,0.1c0.1,0,0.3,0.1,0.4,0.1c0.1,0,0.2,0.1,0.2,0.1c0,0,0.1,0.1,0.1,0.1
	c0,0.1,0,0.1,0.1,0.2c0,0.1,0,0.2,0,0.4c0,0.2,0,0.4,0,0.7C370.2,54,370.2,54.3,370.2,54.5z"/>
</svg>
