<?xml version="1.0" encoding="utf-8"?>
<!-- Generator: Adobe Illustrator 23.0.0, SVG Export Plug-In . SVG Version: 6.00 Build 0)  -->
<svg version="1.1" id="图层_1" xmlns="http://www.w3.org/2000/svg" xmlns:xlink="http://www.w3.org/1999/xlink" x="0px" y="0px"
	 viewBox="0 0 850.4 243.1" style="enable-background:new 0 0 850.4 243.1;" xml:space="preserve">
<style type="text/css">
	.st0{fill:#32558E;}
	.st1{fill:#B7C8B5;}
	.st2{fill:#544343;}
	.st3{fill:#FBA971;}
	.st4{fill:#7FB285;}
</style>
<title>cold-rolling</title>
<title>cold-rolling</title>
<path class="st0" d="M97.9,27.5c-15.9,0-28.7,12.8-28.7,28.7S82,84.9,97.9,84.9s28.7-12.8,28.7-28.7S113.8,27.5,97.9,27.5z
	 M101.3,63.6c0,0.2,0,0.4-0.1,0.5c-0.1,0.2-0.2,0.3-0.3,0.4c-0.1,0.1-0.3,0.2-0.4,0.2c-0.2,0-0.3,0.1-0.5,0.1h-1.4
	c-0.3,0-0.6,0-0.8-0.1c-0.2-0.1-0.4-0.2-0.6-0.3c-0.2-0.2-0.4-0.4-0.5-0.6c-0.2-0.3-0.4-0.6-0.6-1L92,55.1c-0.2-0.5-0.5-1-0.7-1.5
	s-0.5-1-0.7-1.5l0,0c0,0.6,0.1,1.2,0.1,1.8s0,1.2,0,1.9v8.6c0,0.1,0,0.2-0.1,0.2c0,0.1-0.1,0.1-0.2,0.2s-0.3,0.1-0.5,0.1
	s-0.4,0-0.8,0c-0.3,0-0.5,0-0.7,0s-0.3-0.1-0.5-0.1c-0.1,0-0.2-0.1-0.2-0.2s-0.1-0.1-0.1-0.2V49.6c0-0.4,0.1-0.7,0.3-0.9
	c0.2-0.2,0.5-0.3,0.9-0.3h1.8c0.3,0,0.6,0,0.8,0.1c0.2,0.1,0.4,0.1,0.6,0.3c0.2,0.1,0.3,0.3,0.5,0.5s0.3,0.5,0.5,0.8l3.2,6
	c0.2,0.4,0.4,0.7,0.6,1.1c0.2,0.4,0.4,0.7,0.5,1.1s0.3,0.7,0.5,1s0.3,0.7,0.5,1l0,0c0-0.6,0-1.2-0.1-1.9c0-0.6,0-1.3,0-1.8v-7.7
	c0-0.1,0-0.2,0.1-0.2c0.1-0.1,0.1-0.1,0.3-0.2s0.3-0.1,0.5-0.1s0.4,0,0.8,0c0.3,0,0.5,0,0.7,0s0.3,0.1,0.5,0.1s0.2,0.1,0.2,0.2
	c0,0.1,0.1,0.1,0.1,0.2v14.7C101.4,63.6,101.3,63.6,101.3,63.6z M107.9,64.4c0,0.1,0,0.2-0.1,0.2c-0.1,0.1-0.1,0.1-0.3,0.2
	c-0.1,0-0.3,0.1-0.5,0.1s-0.5,0-0.8,0s-0.6,0-0.8,0c-0.2,0-0.4-0.1-0.5-0.1s-0.2-0.1-0.3-0.2c-0.1-0.1-0.1-0.1-0.1-0.2V53.1
	c0-0.1,0-0.2,0.1-0.2c0.1-0.1,0.1-0.1,0.3-0.2c0.1,0,0.3-0.1,0.5-0.1s0.5,0,0.8,0s0.6,0,0.8,0c0.2,0,0.4,0.1,0.5,0.1
	s0.2,0.1,0.3,0.2c0.1,0.1,0.1,0.1,0.1,0.2V64.4z M107.7,50.5c-0.3,0.2-0.7,0.4-1.5,0.4c-0.7,0-1.2-0.1-1.5-0.4s-0.4-0.7-0.4-1.3
	s0.1-1.1,0.4-1.3s0.7-0.4,1.5-0.4c0.7,0,1.2,0.1,1.4,0.4c0.3,0.2,0.4,0.7,0.4,1.3C108.1,49.8,108,50.3,107.7,50.5z"/>
<path class="st0" d="M359.4,27.5c-15.9,0-28.7,12.8-28.7,28.7s12.8,28.7,28.7,28.7s28.7-12.8,28.7-28.7S375.3,27.5,359.4,27.5z
	 M362.8,63.6c0,0.2,0,0.4-0.1,0.5c-0.1,0.2-0.2,0.3-0.3,0.4c-0.1,0.1-0.3,0.2-0.4,0.2c-0.2,0-0.3,0.1-0.5,0.1h-1.4
	c-0.3,0-0.6,0-0.8-0.1c-0.2-0.1-0.4-0.2-0.6-0.3c-0.2-0.2-0.4-0.4-0.5-0.6c-0.2-0.3-0.4-0.6-0.6-1l-4.1-7.7c-0.2-0.5-0.5-1-0.7-1.5
	s-0.5-1-0.7-1.5l0,0c0,0.6,0.1,1.2,0.1,1.8s0,1.2,0,1.9v8.6c0,0.1,0,0.2-0.1,0.2c0,0.1-0.1,0.1-0.2,0.2s-0.3,0.1-0.5,0.1
	s-0.4,0-0.8,0c-0.3,0-0.5,0-0.7,0s-0.3-0.1-0.5-0.1c-0.1,0-0.2-0.1-0.2-0.2s-0.1-0.1-0.1-0.2V49.6c0-0.4,0.1-0.7,0.3-0.9
	c0.2-0.2,0.5-0.3,0.9-0.3h1.8c0.3,0,0.6,0,0.8,0.1c0.2,0.1,0.4,0.1,0.6,0.3c0.2,0.1,0.3,0.3,0.5,0.5s0.3,0.5,0.5,0.8l3.2,6
	c0.2,0.4,0.4,0.7,0.6,1.1c0.2,0.4,0.4,0.7,0.5,1.1s0.3,0.7,0.5,1s0.3,0.7,0.5,1l0,0c0-0.6,0-1.2-0.1-1.9c0-0.6,0-1.3,0-1.8v-7.7
	c0-0.1,0-0.2,0.1-0.2c0.1-0.1,0.1-0.1,0.3-0.2s0.3-0.1,0.5-0.1s0.4,0,0.8,0c0.3,0,0.5,0,0.7,0s0.3,0.1,0.5,0.1s0.2,0.1,0.2,0.2
	c0,0.1,0.1,0.1,0.1,0.2L362.8,63.6L362.8,63.6z M369.4,64.4c0,0.1,0,0.2-0.1,0.2c-0.1,0.1-0.1,0.1-0.3,0.2c-0.1,0-0.3,0.1-0.5,0.1
	s-0.5,0-0.8,0s-0.6,0-0.8,0c-0.2,0-0.4-0.1-0.5-0.1s-0.2-0.1-0.3-0.2c-0.1-0.1-0.1-0.1-0.1-0.2V53.1c0-0.1,0-0.2,0.1-0.2
	c0.1-0.1,0.1-0.1,0.3-0.2c0.1,0,0.3-0.1,0.5-0.1s0.5,0,0.8,0s0.6,0,0.8,0c0.2,0,0.4,0.1,0.5,0.1s0.2,0.1,0.3,0.2
	c0.1,0.1,0.1,0.1,0.1,0.2V64.4z M369.2,50.5c-0.3,0.2-0.7,0.4-1.5,0.4c-0.7,0-1.2-0.1-1.5-0.4s-0.4-0.7-0.4-1.3s0.1-1.1,0.4-1.3
	s0.7-0.4,1.5-0.4c0.7,0,1.2,0.1,1.4,0.4c0.3,0.2,0.4,0.7,0.4,1.3C369.6,49.8,369.5,50.3,369.2,50.5z"/>
<path class="st0" d="M490.2,27.5c-15.9,0-28.7,12.8-28.7,28.7s12.8,28.7,28.7,28.7s28.7-12.8,28.7-28.7S506.1,27.5,490.2,27.5z
	 M493.6,63.6c0,0.2,0,0.4-0.1,0.5c-0.1,0.2-0.2,0.3-0.3,0.4c-0.1,0.1-0.3,0.2-0.4,0.2c-0.2,0-0.3,0.1-0.5,0.1h-1.4
	c-0.3,0-0.6,0-0.8-0.1c-0.2-0.1-0.4-0.2-0.6-0.3c-0.2-0.2-0.4-0.4-0.5-0.6c-0.2-0.3-0.4-0.6-0.6-1l-4.1-7.7c-0.2-0.5-0.5-1-0.7-1.5
	s-0.5-1-0.7-1.5l0,0c0,0.6,0.1,1.2,0.1,1.8s0,1.2,0,1.9v8.6c0,0.1,0,0.2-0.1,0.2c0,0.1-0.1,0.1-0.2,0.2s-0.3,0.1-0.5,0.1
	s-0.4,0-0.8,0c-0.3,0-0.5,0-0.7,0s-0.3-0.1-0.5-0.1c-0.1,0-0.2-0.1-0.2-0.2s-0.1-0.1-0.1-0.2V49.6c0-0.4,0.1-0.7,0.3-0.9
	c0.2-0.2,0.5-0.3,0.9-0.3h1.8c0.3,0,0.6,0,0.8,0.1c0.2,0.1,0.4,0.1,0.6,0.3c0.2,0.1,0.3,0.3,0.5,0.5s0.3,0.5,0.5,0.8l3.2,6
	c0.2,0.4,0.4,0.7,0.6,1.1c0.2,0.4,0.4,0.7,0.5,1.1s0.3,0.7,0.5,1s0.3,0.7,0.5,1l0,0c0-0.6,0-1.2-0.1-1.9c0-0.6,0-1.3,0-1.8v-7.7
	c0-0.1,0-0.2,0.1-0.2c0.1-0.1,0.1-0.1,0.3-0.2s0.3-0.1,0.5-0.1s0.4,0,0.8,0c0.3,0,0.5,0,0.7,0s0.3,0.1,0.5,0.1s0.2,0.1,0.2,0.2
	c0,0.1,0.1,0.1,0.1,0.2L493.6,63.6L493.6,63.6z M500.2,64.4c0,0.1,0,0.2-0.1,0.2c-0.1,0.1-0.1,0.1-0.3,0.2c-0.1,0-0.3,0.1-0.5,0.1
	s-0.5,0-0.8,0s-0.6,0-0.8,0c-0.2,0-0.4-0.1-0.5-0.1s-0.2-0.1-0.3-0.2c-0.1-0.1-0.1-0.1-0.1-0.2V53.1c0-0.1,0-0.2,0.1-0.2
	c0.1-0.1,0.1-0.1,0.3-0.2c0.1,0,0.3-0.1,0.5-0.1s0.5,0,0.8,0s0.6,0,0.8,0c0.2,0,0.4,0.1,0.5,0.1s0.2,0.1,0.3,0.2
	c0.1,0.1,0.1,0.1,0.1,0.2V64.4z M500,50.5c-0.3,0.2-0.7,0.4-1.5,0.4c-0.7,0-1.2-0.1-1.5-0.4s-0.4-0.7-0.4-1.3s0.1-1.1,0.4-1.3
	s0.7-0.4,1.5-0.4c0.7,0,1.2,0.1,1.4,0.4c0.3,0.2,0.4,0.7,0.4,1.3C500.4,49.8,500.3,50.3,500,50.5z"/>
<path class="st0" d="M751.7,27.5c-15.9,0-28.7,12.8-28.7,28.7s12.8,28.7,28.7,28.7s28.7-12.8,28.7-28.7S767.6,27.5,751.7,27.5z
	 M755.1,63.6c0,0.2,0,0.4-0.1,0.5c-0.1,0.2-0.2,0.3-0.3,0.4s-0.3,0.2-0.4,0.2c-0.2,0-0.3,0.1-0.5,0.1h-1.4c-0.3,0-0.6,0-0.8-0.1
	s-0.4-0.2-0.6-0.3c-0.2-0.2-0.4-0.4-0.5-0.6c-0.2-0.3-0.4-0.6-0.6-1l-4.1-7.7c-0.2-0.5-0.5-1-0.7-1.5s-0.5-1-0.7-1.5l0,0
	c0,0.6,0.1,1.2,0.1,1.8s0,1.2,0,1.9v8.6c0,0.1,0,0.2-0.1,0.2c0,0.1-0.1,0.1-0.2,0.2s-0.3,0.1-0.5,0.1s-0.4,0-0.8,0
	c-0.3,0-0.5,0-0.7,0s-0.3-0.1-0.5-0.1c-0.1,0-0.2-0.1-0.2-0.2s-0.1-0.1-0.1-0.2V49.6c0-0.4,0.1-0.7,0.3-0.9s0.5-0.3,0.9-0.3h1.8
	c0.3,0,0.6,0,0.8,0.1s0.4,0.1,0.6,0.3c0.2,0.1,0.3,0.3,0.5,0.5s0.3,0.5,0.5,0.8l3.2,6c0.2,0.4,0.4,0.7,0.6,1.1
	c0.2,0.4,0.4,0.7,0.5,1.1s0.3,0.7,0.5,1s0.3,0.7,0.5,1l0,0c0-0.6,0-1.2-0.1-1.9c0-0.6,0-1.3,0-1.8v-7.7c0-0.1,0-0.2,0.1-0.2
	c0.1-0.1,0.1-0.1,0.3-0.2s0.3-0.1,0.5-0.1s0.4,0,0.8,0c0.3,0,0.5,0,0.7,0s0.3,0.1,0.5,0.1s0.2,0.1,0.2,0.2c0,0.1,0.1,0.1,0.1,0.2
	L755.1,63.6L755.1,63.6z M761.7,64.4c0,0.1,0,0.2-0.1,0.2c-0.1,0.1-0.1,0.1-0.3,0.2c-0.1,0-0.3,0.1-0.5,0.1s-0.5,0-0.8,0
	s-0.6,0-0.8,0s-0.4-0.1-0.5-0.1s-0.2-0.1-0.3-0.2s-0.1-0.1-0.1-0.2V53.1c0-0.1,0-0.2,0.1-0.2c0.1-0.1,0.1-0.1,0.3-0.2
	c0.1,0,0.3-0.1,0.5-0.1s0.5,0,0.8,0s0.6,0,0.8,0s0.4,0.1,0.5,0.1s0.2,0.1,0.3,0.2c0.1,0.1,0.1,0.1,0.1,0.2V64.4z M761.5,50.5
	c-0.3,0.2-0.7,0.4-1.5,0.4c-0.7,0-1.2-0.1-1.5-0.4s-0.4-0.7-0.4-1.3s0.1-1.1,0.4-1.3s0.7-0.4,1.5-0.4c0.7,0,1.2,0.1,1.4,0.4
	c0.3,0.2,0.4,0.7,0.4,1.3C761.9,49.8,761.8,50.3,761.5,50.5z"/>
<path class="st0" d="M97.9,27.5c-15.9,0-28.7,12.8-28.7,28.7S82,84.9,97.9,84.9s28.7-12.8,28.7-28.7S113.8,27.5,97.9,27.5z
	 M101.3,63.6c0,0.2,0,0.4-0.1,0.5c-0.1,0.2-0.2,0.3-0.3,0.4c-0.1,0.1-0.3,0.2-0.4,0.2c-0.2,0-0.3,0.1-0.5,0.1h-1.4
	c-0.3,0-0.6,0-0.8-0.1s-0.4-0.2-0.6-0.3c-0.2-0.2-0.4-0.4-0.5-0.6c-0.2-0.3-0.4-0.6-0.6-1L92,55.1c-0.2-0.5-0.5-1-0.7-1.5
	s-0.5-1-0.7-1.5l0,0c0,0.6,0.1,1.2,0.1,1.8s0,1.2,0,1.9v8.6c0,0.1,0,0.2-0.1,0.2c0,0.1-0.1,0.1-0.2,0.2s-0.3,0.1-0.5,0.1
	s-0.4,0-0.8,0c-0.3,0-0.5,0-0.7,0s-0.3-0.1-0.5-0.1c-0.1,0-0.2-0.1-0.2-0.2s-0.1-0.1-0.1-0.2V49.6c0-0.4,0.1-0.7,0.3-0.9
	s0.5-0.3,0.9-0.3h1.8c0.3,0,0.6,0,0.8,0.1s0.4,0.1,0.6,0.3c0.2,0.1,0.3,0.3,0.5,0.5s0.3,0.5,0.5,0.8l3.2,6c0.2,0.4,0.4,0.7,0.6,1.1
	c0.2,0.4,0.4,0.7,0.5,1.1s0.3,0.7,0.5,1s0.3,0.7,0.5,1l0,0c0-0.6,0-1.2-0.1-1.9c0-0.6,0-1.3,0-1.8v-7.7c0-0.1,0-0.2,0.1-0.2
	c0.1-0.1,0.1-0.1,0.3-0.2s0.3-0.1,0.5-0.1s0.4,0,0.8,0c0.3,0,0.5,0,0.7,0s0.3,0.1,0.5,0.1s0.2,0.1,0.2,0.2c0,0.1,0.1,0.1,0.1,0.2
	v14.7C101.4,63.6,101.3,63.6,101.3,63.6z M107.9,64.4c0,0.1,0,0.2-0.1,0.2c-0.1,0.1-0.1,0.1-0.3,0.2c-0.1,0-0.3,0.1-0.5,0.1
	s-0.5,0-0.8,0s-0.6,0-0.8,0s-0.4-0.1-0.5-0.1s-0.2-0.1-0.3-0.2c-0.1-0.1-0.1-0.1-0.1-0.2V53.1c0-0.1,0-0.2,0.1-0.2
	c0.1-0.1,0.1-0.1,0.3-0.2c0.1,0,0.3-0.1,0.5-0.1s0.5,0,0.8,0s0.6,0,0.8,0s0.4,0.1,0.5,0.1s0.2,0.1,0.3,0.2c0.1,0.1,0.1,0.1,0.1,0.2
	V64.4z M107.7,50.5c-0.3,0.2-0.7,0.4-1.5,0.4c-0.7,0-1.2-0.1-1.5-0.4s-0.4-0.7-0.4-1.3s0.1-1.1,0.4-1.3s0.7-0.4,1.5-0.4
	c0.7,0,1.2,0.1,1.4,0.4c0.3,0.2,0.4,0.7,0.4,1.3C108.1,49.8,108,50.3,107.7,50.5z"/>
<path class="st0" d="M97.9,158.3c-15.9,0-28.7,12.8-28.7,28.7s12.8,28.7,28.7,28.7s28.7-12.8,28.7-28.7S113.8,158.3,97.9,158.3z
	 M101.3,194.4c0,0.2,0,0.4-0.1,0.5c-0.1,0.2-0.2,0.3-0.3,0.4c-0.1,0.1-0.3,0.2-0.4,0.2c-0.2,0-0.3,0.1-0.5,0.1h-1.4
	c-0.3,0-0.6,0-0.8-0.1c-0.2-0.1-0.4-0.2-0.6-0.3c-0.2-0.2-0.4-0.4-0.5-0.6c-0.2-0.3-0.4-0.6-0.6-1l-4.1-7.7c-0.2-0.5-0.5-1-0.7-1.5
	s-0.5-1-0.7-1.5l0,0c0,0.6,0.1,1.2,0.1,1.8s0,1.2,0,1.9v8.6c0,0.1,0,0.2-0.1,0.2c0,0.1-0.1,0.1-0.2,0.2s-0.3,0.1-0.5,0.1
	s-0.4,0-0.8,0c-0.3,0-0.5,0-0.7,0s-0.3-0.1-0.5-0.1c-0.1,0-0.2-0.1-0.2-0.2c0-0.1-0.1-0.1-0.1-0.2v-14.8c0-0.4,0.1-0.7,0.3-0.9
	c0.2-0.2,0.5-0.3,0.9-0.3h1.8c0.3,0,0.6,0,0.8,0.1c0.2,0.1,0.4,0.1,0.6,0.3c0.2,0.1,0.3,0.3,0.5,0.5s0.3,0.5,0.5,0.8l3.2,6
	c0.2,0.4,0.4,0.7,0.6,1.1c0.2,0.4,0.4,0.7,0.5,1.1s0.3,0.7,0.5,1s0.3,0.7,0.5,1l0,0c0-0.6,0-1.2-0.1-1.9c0-0.6,0-1.3,0-1.8v-7.7
	c0-0.1,0-0.2,0.1-0.2c0.1-0.1,0.1-0.1,0.3-0.2s0.3-0.1,0.5-0.1s0.4,0,0.8,0c0.3,0,0.5,0,0.7,0s0.3,0.1,0.5,0.1s0.2,0.1,0.2,0.2
	c0,0.1,0.1,0.1,0.1,0.2v14.7L101.3,194.4L101.3,194.4z M107.9,195.2c0,0.1,0,0.2-0.1,0.2c-0.1,0.1-0.1,0.1-0.3,0.2
	c-0.1,0-0.3,0.1-0.5,0.1s-0.5,0-0.8,0s-0.6,0-0.8,0c-0.2,0-0.4-0.1-0.5-0.1s-0.2-0.1-0.3-0.2c-0.1-0.1-0.1-0.1-0.1-0.2v-11.3
	c0-0.1,0-0.2,0.1-0.2c0.1-0.1,0.1-0.1,0.3-0.2c0.1,0,0.3-0.1,0.5-0.1s0.5,0,0.8,0s0.6,0,0.8,0c0.2,0,0.4,0.1,0.5,0.1
	s0.2,0.1,0.3,0.2c0.1,0.1,0.1,0.1,0.1,0.2V195.2z M107.7,181.3c-0.3,0.2-0.7,0.4-1.5,0.4c-0.7,0-1.2-0.1-1.5-0.4s-0.4-0.7-0.4-1.3
	s0.1-1.1,0.4-1.3s0.7-0.4,1.5-0.4c0.7,0,1.2,0.1,1.4,0.4c0.3,0.2,0.4,0.7,0.4,1.3C108.1,180.6,108,181.1,107.7,181.3z"/>
<path class="st0" d="M359.4,158.3c-15.9,0-28.7,12.8-28.7,28.7s12.8,28.7,28.7,28.7s28.7-12.8,28.7-28.7S375.3,158.3,359.4,158.3z
	 M362.8,194.4c0,0.2,0,0.4-0.1,0.5c-0.1,0.2-0.2,0.3-0.3,0.4c-0.1,0.1-0.3,0.2-0.4,0.2c-0.2,0-0.3,0.1-0.5,0.1h-1.4
	c-0.3,0-0.6,0-0.8-0.1c-0.2-0.1-0.4-0.2-0.6-0.3c-0.2-0.2-0.4-0.4-0.5-0.6c-0.2-0.3-0.4-0.6-0.6-1l-4.1-7.7c-0.2-0.5-0.5-1-0.7-1.5
	s-0.5-1-0.7-1.5l0,0c0,0.6,0.1,1.2,0.1,1.8s0,1.2,0,1.9v8.6c0,0.1,0,0.2-0.1,0.2c0,0.1-0.1,0.1-0.2,0.2s-0.3,0.1-0.5,0.1
	s-0.4,0-0.8,0c-0.3,0-0.5,0-0.7,0s-0.3-0.1-0.5-0.1c-0.1,0-0.2-0.1-0.2-0.2c0-0.1-0.1-0.1-0.1-0.2v-14.8c0-0.4,0.1-0.7,0.3-0.9
	c0.2-0.2,0.5-0.3,0.9-0.3h1.8c0.3,0,0.6,0,0.8,0.1c0.2,0.1,0.4,0.1,0.6,0.3c0.2,0.1,0.3,0.3,0.5,0.5s0.3,0.5,0.5,0.8l3.2,6
	c0.2,0.4,0.4,0.7,0.6,1.1c0.2,0.4,0.4,0.7,0.5,1.1s0.3,0.7,0.5,1s0.3,0.7,0.5,1l0,0c0-0.6,0-1.2-0.1-1.9c0-0.6,0-1.3,0-1.8v-7.7
	c0-0.1,0-0.2,0.1-0.2c0.1-0.1,0.1-0.1,0.3-0.2s0.3-0.1,0.5-0.1s0.4,0,0.8,0c0.3,0,0.5,0,0.7,0s0.3,0.1,0.5,0.1s0.2,0.1,0.2,0.2
	c0,0.1,0.1,0.1,0.1,0.2L362.8,194.4L362.8,194.4z M369.4,195.2c0,0.1,0,0.2-0.1,0.2c-0.1,0.1-0.1,0.1-0.3,0.2
	c-0.1,0-0.3,0.1-0.5,0.1s-0.5,0-0.8,0s-0.6,0-0.8,0c-0.2,0-0.4-0.1-0.5-0.1s-0.2-0.1-0.3-0.2c-0.1-0.1-0.1-0.1-0.1-0.2v-11.3
	c0-0.1,0-0.2,0.1-0.2c0.1-0.1,0.1-0.1,0.3-0.2c0.1,0,0.3-0.1,0.5-0.1s0.5,0,0.8,0s0.6,0,0.8,0c0.2,0,0.4,0.1,0.5,0.1
	s0.2,0.1,0.3,0.2c0.1,0.1,0.1,0.1,0.1,0.2V195.2z M369.2,181.3c-0.3,0.2-0.7,0.4-1.5,0.4c-0.7,0-1.2-0.1-1.5-0.4s-0.4-0.7-0.4-1.3
	s0.1-1.1,0.4-1.3s0.7-0.4,1.5-0.4c0.7,0,1.2,0.1,1.4,0.4c0.3,0.2,0.4,0.7,0.4,1.3C369.6,180.6,369.5,181.1,369.2,181.3z"/>
<path class="st0" d="M490.2,158.3c-15.9,0-28.7,12.8-28.7,28.7s12.8,28.7,28.7,28.7s28.7-12.8,28.7-28.7S506.1,158.3,490.2,158.3z
	 M493.6,194.4c0,0.2,0,0.4-0.1,0.5c-0.1,0.2-0.2,0.3-0.3,0.4c-0.1,0.1-0.3,0.2-0.4,0.2c-0.2,0-0.3,0.1-0.5,0.1h-1.4
	c-0.3,0-0.6,0-0.8-0.1c-0.2-0.1-0.4-0.2-0.6-0.3c-0.2-0.2-0.4-0.4-0.5-0.6c-0.2-0.3-0.4-0.6-0.6-1l-4.1-7.7c-0.2-0.5-0.5-1-0.7-1.5
	s-0.5-1-0.7-1.5l0,0c0,0.6,0.1,1.2,0.1,1.8s0,1.2,0,1.9v8.6c0,0.1,0,0.2-0.1,0.2c0,0.1-0.1,0.1-0.2,0.2s-0.3,0.1-0.5,0.1
	s-0.4,0-0.8,0c-0.3,0-0.5,0-0.7,0s-0.3-0.1-0.5-0.1c-0.1,0-0.2-0.1-0.2-0.2c0-0.1-0.1-0.1-0.1-0.2v-14.8c0-0.4,0.1-0.7,0.3-0.9
	c0.2-0.2,0.5-0.3,0.9-0.3h1.8c0.3,0,0.6,0,0.8,0.1c0.2,0.1,0.4,0.1,0.6,0.3c0.2,0.1,0.3,0.3,0.5,0.5s0.3,0.5,0.5,0.8l3.2,6
	c0.2,0.4,0.4,0.7,0.6,1.1c0.2,0.4,0.4,0.7,0.5,1.1s0.3,0.7,0.5,1s0.3,0.7,0.5,1l0,0c0-0.6,0-1.2-0.1-1.9c0-0.6,0-1.3,0-1.8v-7.7
	c0-0.1,0-0.2,0.1-0.2c0.1-0.1,0.1-0.1,0.3-0.2s0.3-0.1,0.5-0.1s0.4,0,0.8,0c0.3,0,0.5,0,0.7,0s0.3,0.1,0.5,0.1s0.2,0.1,0.2,0.2
	c0,0.1,0.1,0.1,0.1,0.2L493.6,194.4L493.6,194.4z M500.2,195.2c0,0.1,0,0.2-0.1,0.2c-0.1,0.1-0.1,0.1-0.3,0.2
	c-0.1,0-0.3,0.1-0.5,0.1s-0.5,0-0.8,0s-0.6,0-0.8,0c-0.2,0-0.4-0.1-0.5-0.1s-0.2-0.1-0.3-0.2c-0.1-0.1-0.1-0.1-0.1-0.2v-11.3
	c0-0.1,0-0.2,0.1-0.2c0.1-0.1,0.1-0.1,0.3-0.2c0.1,0,0.3-0.1,0.5-0.1s0.5,0,0.8,0s0.6,0,0.8,0c0.2,0,0.4,0.1,0.5,0.1
	s0.2,0.1,0.3,0.2c0.1,0.1,0.1,0.1,0.1,0.2V195.2z M500,181.3c-0.3,0.2-0.7,0.4-1.5,0.4c-0.7,0-1.2-0.1-1.5-0.4s-0.4-0.7-0.4-1.3
	s0.1-1.1,0.4-1.3s0.7-0.4,1.5-0.4c0.7,0,1.2,0.1,1.4,0.4c0.3,0.2,0.4,0.7,0.4,1.3C500.4,180.6,500.3,181.1,500,181.3z"/>
<path class="st0" d="M620.9,158.3c-15.9,0-28.7,12.8-28.7,28.7s12.8,28.7,28.7,28.7s28.7-12.8,28.7-28.7S636.8,158.3,620.9,158.3z
	 M624.3,194.4c0,0.2,0,0.4-0.1,0.5c-0.1,0.2-0.2,0.3-0.3,0.4c-0.1,0.1-0.3,0.2-0.4,0.2c-0.2,0-0.3,0.1-0.5,0.1h-1.4
	c-0.3,0-0.6,0-0.8-0.1s-0.4-0.2-0.6-0.3c-0.2-0.2-0.4-0.4-0.5-0.6c-0.2-0.3-0.4-0.6-0.6-1l-4.1-7.7c-0.2-0.5-0.5-1-0.7-1.5
	s-0.5-1-0.7-1.5l0,0c0,0.6,0.1,1.2,0.1,1.8s0,1.2,0,1.9v8.6c0,0.1,0,0.2-0.1,0.2c0,0.1-0.1,0.1-0.2,0.2s-0.3,0.1-0.5,0.1
	s-0.4,0-0.8,0c-0.3,0-0.5,0-0.7,0s-0.3-0.1-0.5-0.1c-0.1,0-0.2-0.1-0.2-0.2c0-0.1-0.1-0.1-0.1-0.2v-14.8c0-0.4,0.1-0.7,0.3-0.9
	s0.5-0.3,0.9-0.3h1.8c0.3,0,0.6,0,0.8,0.1s0.4,0.1,0.6,0.3c0.2,0.1,0.3,0.3,0.5,0.5s0.3,0.5,0.5,0.8l3.2,6c0.2,0.4,0.4,0.7,0.6,1.1
	c0.2,0.4,0.4,0.7,0.5,1.1s0.3,0.7,0.5,1s0.3,0.7,0.5,1l0,0c0-0.6,0-1.2-0.1-1.9c0-0.6,0-1.3,0-1.8v-7.7c0-0.1,0-0.2,0.1-0.2
	c0.1-0.1,0.1-0.1,0.3-0.2s0.3-0.1,0.5-0.1s0.4,0,0.8,0c0.3,0,0.5,0,0.7,0s0.3,0.1,0.5,0.1s0.2,0.1,0.2,0.2c0,0.1,0.1,0.1,0.1,0.2
	L624.3,194.4L624.3,194.4z M630.9,195.2c0,0.1,0,0.2-0.1,0.2c-0.1,0.1-0.1,0.1-0.3,0.2c-0.1,0-0.3,0.1-0.5,0.1s-0.5,0-0.8,0
	s-0.6,0-0.8,0s-0.4-0.1-0.5-0.1s-0.2-0.1-0.3-0.2c-0.1-0.1-0.1-0.1-0.1-0.2v-11.3c0-0.1,0-0.2,0.1-0.2c0.1-0.1,0.1-0.1,0.3-0.2
	c0.1,0,0.3-0.1,0.5-0.1s0.5,0,0.8,0s0.6,0,0.8,0s0.4,0.1,0.5,0.1s0.2,0.1,0.3,0.2c0.1,0.1,0.1,0.1,0.1,0.2V195.2z M630.7,181.3
	c-0.3,0.2-0.7,0.4-1.5,0.4c-0.7,0-1.2-0.1-1.5-0.4s-0.4-0.7-0.4-1.3s0.1-1.1,0.4-1.3s0.7-0.4,1.5-0.4c0.7,0,1.2,0.1,1.4,0.4
	c0.3,0.2,0.4,0.7,0.4,1.3C631.1,180.6,631,181.1,630.7,181.3z"/>
<path class="st0" d="M751.7,158.3c-15.9,0-28.7,12.8-28.7,28.7s12.8,28.7,28.7,28.7s28.7-12.8,28.7-28.7S767.6,158.3,751.7,158.3z
	 M755.1,194.4c0,0.2,0,0.4-0.1,0.5c-0.1,0.2-0.2,0.3-0.3,0.4c-0.1,0.1-0.3,0.2-0.4,0.2c-0.2,0-0.3,0.1-0.5,0.1h-1.4
	c-0.3,0-0.6,0-0.8-0.1s-0.4-0.2-0.6-0.3c-0.2-0.2-0.4-0.4-0.5-0.6c-0.2-0.3-0.4-0.6-0.6-1l-4.1-7.7c-0.2-0.5-0.5-1-0.7-1.5
	s-0.5-1-0.7-1.5l0,0c0,0.6,0.1,1.2,0.1,1.8s0,1.2,0,1.9v8.6c0,0.1,0,0.2-0.1,0.2c0,0.1-0.1,0.1-0.2,0.2s-0.3,0.1-0.5,0.1
	s-0.4,0-0.8,0c-0.3,0-0.5,0-0.7,0s-0.3-0.1-0.5-0.1c-0.1,0-0.2-0.1-0.2-0.2c0-0.1-0.1-0.1-0.1-0.2v-14.8c0-0.4,0.1-0.7,0.3-0.9
	s0.5-0.3,0.9-0.3h1.8c0.3,0,0.6,0,0.8,0.1s0.4,0.1,0.6,0.3c0.2,0.1,0.3,0.3,0.5,0.5s0.3,0.5,0.5,0.8l3.2,6c0.2,0.4,0.4,0.7,0.6,1.1
	c0.2,0.4,0.4,0.7,0.5,1.1s0.3,0.7,0.5,1s0.3,0.7,0.5,1l0,0c0-0.6,0-1.2-0.1-1.9c0-0.6,0-1.3,0-1.8v-7.7c0-0.1,0-0.2,0.1-0.2
	c0.1-0.1,0.1-0.1,0.3-0.2s0.3-0.1,0.5-0.1s0.4,0,0.8,0c0.3,0,0.5,0,0.7,0s0.3,0.1,0.5,0.1s0.2,0.1,0.2,0.2c0,0.1,0.1,0.1,0.1,0.2
	L755.1,194.4L755.1,194.4z M761.7,195.2c0,0.1,0,0.2-0.1,0.2c-0.1,0.1-0.1,0.1-0.3,0.2c-0.1,0-0.3,0.1-0.5,0.1s-0.5,0-0.8,0
	s-0.6,0-0.8,0s-0.4-0.1-0.5-0.1s-0.2-0.1-0.3-0.2c-0.1-0.1-0.1-0.1-0.1-0.2v-11.3c0-0.1,0-0.2,0.1-0.2c0.1-0.1,0.1-0.1,0.3-0.2
	c0.1,0,0.3-0.1,0.5-0.1s0.5,0,0.8,0s0.6,0,0.8,0s0.4,0.1,0.5,0.1s0.2,0.1,0.3,0.2c0.1,0.1,0.1,0.1,0.1,0.2V195.2z M761.5,181.3
	c-0.3,0.2-0.7,0.4-1.5,0.4c-0.7,0-1.2-0.1-1.5-0.4s-0.4-0.7-0.4-1.3s0.1-1.1,0.4-1.3s0.7-0.4,1.5-0.4c0.7,0,1.2,0.1,1.4,0.4
	c0.3,0.2,0.4,0.7,0.4,1.3C761.9,180.6,761.8,181.1,761.5,181.3z"/>
<path class="st0" d="M97.9,158.3c-15.9,0-28.7,12.8-28.7,28.7s12.8,28.7,28.7,28.7s28.7-12.8,28.7-28.7S113.8,158.3,97.9,158.3z
	 M101.3,194.4c0,0.2,0,0.4-0.1,0.5c-0.1,0.2-0.2,0.3-0.3,0.4c-0.1,0.1-0.3,0.2-0.4,0.2c-0.2,0-0.3,0.1-0.5,0.1h-1.4
	c-0.3,0-0.6,0-0.8-0.1s-0.4-0.2-0.6-0.3c-0.2-0.2-0.4-0.4-0.5-0.6c-0.2-0.3-0.4-0.6-0.6-1l-4.1-7.7c-0.2-0.5-0.5-1-0.7-1.5
	s-0.5-1-0.7-1.5l0,0c0,0.6,0.1,1.2,0.1,1.8s0,1.2,0,1.9v8.6c0,0.1,0,0.2-0.1,0.2c0,0.1-0.1,0.1-0.2,0.2s-0.3,0.1-0.5,0.1
	s-0.4,0-0.8,0c-0.3,0-0.5,0-0.7,0s-0.3-0.1-0.5-0.1c-0.1,0-0.2-0.1-0.2-0.2c0-0.1-0.1-0.1-0.1-0.2v-14.8c0-0.4,0.1-0.7,0.3-0.9
	s0.5-0.3,0.9-0.3h1.8c0.3,0,0.6,0,0.8,0.1s0.4,0.1,0.6,0.3c0.2,0.1,0.3,0.3,0.5,0.5s0.3,0.5,0.5,0.8l3.2,6c0.2,0.4,0.4,0.7,0.6,1.1
	c0.2,0.4,0.4,0.7,0.5,1.1s0.3,0.7,0.5,1s0.3,0.7,0.5,1l0,0c0-0.6,0-1.2-0.1-1.9c0-0.6,0-1.3,0-1.8v-7.7c0-0.1,0-0.2,0.1-0.2
	c0.1-0.1,0.1-0.1,0.3-0.2s0.3-0.1,0.5-0.1s0.4,0,0.8,0c0.3,0,0.5,0,0.7,0s0.3,0.1,0.5,0.1s0.2,0.1,0.2,0.2c0,0.1,0.1,0.1,0.1,0.2
	v14.7L101.3,194.4L101.3,194.4z M107.9,195.2c0,0.1,0,0.2-0.1,0.2c-0.1,0.1-0.1,0.1-0.3,0.2c-0.1,0-0.3,0.1-0.5,0.1s-0.5,0-0.8,0
	s-0.6,0-0.8,0s-0.4-0.1-0.5-0.1s-0.2-0.1-0.3-0.2c-0.1-0.1-0.1-0.1-0.1-0.2v-11.3c0-0.1,0-0.2,0.1-0.2c0.1-0.1,0.1-0.1,0.3-0.2
	c0.1,0,0.3-0.1,0.5-0.1s0.5,0,0.8,0s0.6,0,0.8,0s0.4,0.1,0.5,0.1s0.2,0.1,0.3,0.2c0.1,0.1,0.1,0.1,0.1,0.2V195.2z M107.7,181.3
	c-0.3,0.2-0.7,0.4-1.5,0.4c-0.7,0-1.2-0.1-1.5-0.4s-0.4-0.7-0.4-1.3s0.1-1.1,0.4-1.3s0.7-0.4,1.5-0.4c0.7,0,1.2,0.1,1.4,0.4
	c0.3,0.2,0.4,0.7,0.4,1.3C108.1,180.6,108,181.1,107.7,181.3z"/>
<path class="st0" d="M32.5,92.9c-15.9,0-28.7,12.8-28.7,28.7s12.8,28.7,28.7,28.7s28.7-12.8,28.7-28.7
	C61.2,105.8,48.4,92.9,32.5,92.9z M35.9,129c0,0.2,0,0.4-0.1,0.5c-0.1,0.2-0.2,0.3-0.3,0.4s-0.3,0.2-0.4,0.2c-0.2,0-0.3,0.1-0.5,0.1
	h-1.4c-0.3,0-0.6,0-0.8-0.1s-0.4-0.2-0.6-0.3c-0.2-0.2-0.4-0.4-0.5-0.6c-0.2-0.3-0.4-0.6-0.6-1l-4.1-7.7c-0.2-0.5-0.5-1-0.7-1.5
	s-0.5-1-0.7-1.5l0,0c0,0.6,0.1,1.2,0.1,1.8c0,0.6,0,1.2,0,1.9v8.6c0,0.1,0,0.2-0.1,0.2c0,0.1-0.1,0.1-0.2,0.2s-0.3,0.1-0.5,0.1
	s-0.4,0-0.8,0c-0.3,0-0.5,0-0.7,0s-0.3-0.1-0.5-0.1c-0.1,0-0.2-0.1-0.2-0.2s-0.1-0.1-0.1-0.2V115c0-0.4,0.1-0.7,0.3-0.9
	c0.2-0.2,0.5-0.3,0.9-0.3h1.8c0.3,0,0.6,0,0.8,0.1s0.4,0.1,0.6,0.3c0.2,0.1,0.3,0.3,0.5,0.5s0.3,0.5,0.5,0.8l3.2,6
	c0.2,0.4,0.4,0.7,0.6,1.1s0.4,0.7,0.5,1.1s0.3,0.7,0.5,1s0.3,0.7,0.5,1l0,0c0-0.6,0-1.2-0.1-1.9c0-0.6,0-1.3,0-1.8v-7.7
	c0-0.1,0-0.2,0.1-0.2c0.1-0.1,0.1-0.1,0.3-0.2s0.3-0.1,0.5-0.1s0.4,0,0.8,0c0.3,0,0.5,0,0.7,0s0.3,0.1,0.5,0.1s0.2,0.1,0.2,0.2
	s0.1,0.1,0.1,0.2L35.9,129L35.9,129z M42.5,129.8c0,0.1,0,0.2-0.1,0.2c-0.1,0.1-0.1,0.1-0.3,0.2c-0.1,0-0.3,0.1-0.5,0.1
	s-0.5,0-0.8,0s-0.6,0-0.8,0s-0.4-0.1-0.5-0.1s-0.2-0.1-0.3-0.2s-0.1-0.1-0.1-0.2v-11.3c0-0.1,0-0.2,0.1-0.2c0.1-0.1,0.1-0.1,0.3-0.2
	c0.1,0,0.3-0.1,0.5-0.1s0.5,0,0.8,0s0.6,0,0.8,0s0.4,0.1,0.5,0.1s0.2,0.1,0.3,0.2s0.1,0.1,0.1,0.2V129.8z M42.3,115.9
	c-0.3,0.2-0.7,0.4-1.5,0.4c-0.7,0-1.2-0.1-1.5-0.4s-0.4-0.7-0.4-1.3c0-0.6,0.1-1.1,0.4-1.3s0.7-0.4,1.5-0.4c0.7,0,1.2,0.1,1.4,0.4
	c0.3,0.2,0.4,0.7,0.4,1.3C42.7,115.2,42.6,115.7,42.3,115.9z"/>
<path class="st0" d="M424.8,92.9c-15.9,0-28.7,12.8-28.7,28.7s12.8,28.7,28.7,28.7s28.7-12.8,28.7-28.7
	C453.5,105.8,440.7,92.9,424.8,92.9z M428.2,129c0,0.2,0,0.4-0.1,0.5c-0.1,0.2-0.2,0.3-0.3,0.4c-0.1,0.1-0.3,0.2-0.4,0.2
	c-0.2,0-0.3,0.1-0.5,0.1h-1.4c-0.3,0-0.6,0-0.8-0.1c-0.2-0.1-0.4-0.2-0.6-0.3c-0.2-0.2-0.4-0.4-0.5-0.6c-0.2-0.3-0.4-0.6-0.6-1
	l-4.1-7.7c-0.2-0.5-0.5-1-0.7-1.5s-0.5-1-0.7-1.5l0,0c0,0.6,0.1,1.2,0.1,1.8c0,0.6,0,1.2,0,1.9v8.6c0,0.1,0,0.2-0.1,0.2
	c0,0.1-0.1,0.1-0.2,0.2s-0.3,0.1-0.5,0.1s-0.4,0-0.8,0c-0.3,0-0.5,0-0.7,0s-0.3-0.1-0.5-0.1c-0.1,0-0.2-0.1-0.2-0.2
	s-0.1-0.1-0.1-0.2V115c0-0.4,0.1-0.7,0.3-0.9c0.2-0.2,0.5-0.3,0.9-0.3h1.8c0.3,0,0.6,0,0.8,0.1c0.2,0.1,0.4,0.1,0.6,0.3
	c0.2,0.1,0.3,0.3,0.5,0.5s0.3,0.5,0.5,0.8l3.2,6c0.2,0.4,0.4,0.7,0.6,1.1s0.4,0.7,0.5,1.1s0.3,0.7,0.5,1s0.3,0.7,0.5,1l0,0
	c0-0.6,0-1.2-0.1-1.9c0-0.6,0-1.3,0-1.8v-7.7c0-0.1,0-0.2,0.1-0.2c0.1-0.1,0.1-0.1,0.3-0.2s0.3-0.1,0.5-0.1s0.4,0,0.8,0
	c0.3,0,0.5,0,0.7,0s0.3,0.1,0.5,0.1s0.2,0.1,0.2,0.2s0.1,0.1,0.1,0.2L428.2,129L428.2,129z M434.8,129.8c0,0.1,0,0.2-0.1,0.2
	c-0.1,0.1-0.1,0.1-0.3,0.2c-0.1,0-0.3,0.1-0.5,0.1s-0.5,0-0.8,0s-0.6,0-0.8,0c-0.2,0-0.4-0.1-0.5-0.1s-0.2-0.1-0.3-0.2
	c-0.1-0.1-0.1-0.1-0.1-0.2v-11.3c0-0.1,0-0.2,0.1-0.2c0.1-0.1,0.1-0.1,0.3-0.2c0.1,0,0.3-0.1,0.5-0.1s0.5,0,0.8,0s0.6,0,0.8,0
	c0.2,0,0.4,0.1,0.5,0.1s0.2,0.1,0.3,0.2c0.1,0.1,0.1,0.1,0.1,0.2V129.8z M434.6,115.9c-0.3,0.2-0.7,0.4-1.5,0.4
	c-0.7,0-1.2-0.1-1.5-0.4s-0.4-0.7-0.4-1.3c0-0.6,0.1-1.1,0.4-1.3s0.7-0.4,1.5-0.4c0.7,0,1.2,0.1,1.4,0.4c0.3,0.2,0.4,0.7,0.4,1.3
	C435,115.2,434.9,115.7,434.6,115.9z"/>
<path class="st0" d="M555.6,92.9c-15.9,0-28.7,12.8-28.7,28.7s12.8,28.7,28.7,28.7s28.7-12.8,28.7-28.7
	C584.3,105.8,571.5,92.9,555.6,92.9z M558.9,129c0,0.2,0,0.4-0.1,0.5c-0.1,0.2-0.2,0.3-0.3,0.4s-0.3,0.2-0.4,0.2
	c-0.2,0-0.3,0.1-0.5,0.1h-1.4c-0.3,0-0.6,0-0.8-0.1s-0.4-0.2-0.6-0.3c-0.2-0.2-0.4-0.4-0.5-0.6c-0.2-0.3-0.4-0.6-0.6-1l-4.1-7.7
	c-0.2-0.5-0.5-1-0.7-1.5s-0.5-1-0.7-1.5l0,0c0,0.6,0.1,1.2,0.1,1.8c0,0.6,0,1.2,0,1.9v8.6c0,0.1,0,0.2-0.1,0.2
	c0,0.1-0.1,0.1-0.2,0.2s-0.3,0.1-0.5,0.1s-0.4,0-0.8,0c-0.3,0-0.5,0-0.7,0s-0.3-0.1-0.5-0.1c-0.1,0-0.2-0.1-0.2-0.2
	s-0.1-0.1-0.1-0.2V115c0-0.4,0.1-0.7,0.3-0.9c0.2-0.2,0.5-0.3,0.9-0.3h1.8c0.3,0,0.6,0,0.8,0.1s0.4,0.1,0.6,0.3
	c0.2,0.1,0.3,0.3,0.5,0.5s0.3,0.5,0.5,0.8l3.2,6c0.2,0.4,0.4,0.7,0.6,1.1c0.2,0.4,0.4,0.7,0.5,1.1s0.3,0.7,0.5,1s0.3,0.7,0.5,1l0,0
	c0-0.6,0-1.2-0.1-1.9c0-0.6,0-1.3,0-1.8v-7.7c0-0.1,0-0.2,0.1-0.2c0.1-0.1,0.1-0.1,0.3-0.2s0.3-0.1,0.5-0.1s0.4,0,0.8,0
	c0.3,0,0.5,0,0.7,0s0.3,0.1,0.5,0.1s0.2,0.1,0.2,0.2s0.1,0.1,0.1,0.2L558.9,129L558.9,129z M565.5,129.8c0,0.1,0,0.2-0.1,0.2
	c-0.1,0.1-0.1,0.1-0.3,0.2c-0.1,0-0.3,0.1-0.5,0.1s-0.5,0-0.8,0s-0.6,0-0.8,0s-0.4-0.1-0.5-0.1s-0.2-0.1-0.3-0.2s-0.1-0.1-0.1-0.2
	v-11.3c0-0.1,0-0.2,0.1-0.2c0.1-0.1,0.1-0.1,0.3-0.2c0.1,0,0.3-0.1,0.5-0.1s0.5,0,0.8,0s0.6,0,0.8,0s0.4,0.1,0.5,0.1
	s0.2,0.1,0.3,0.2s0.1,0.1,0.1,0.2V129.8z M565.3,115.9c-0.3,0.2-0.7,0.4-1.5,0.4c-0.7,0-1.2-0.1-1.5-0.4s-0.4-0.7-0.4-1.3
	c0-0.6,0.1-1.1,0.4-1.3s0.7-0.4,1.5-0.4c0.7,0,1.2,0.1,1.4,0.4c0.3,0.2,0.4,0.7,0.4,1.3C565.7,115.2,565.6,115.7,565.3,115.9z"/>
<path class="st0" d="M620.9,27.5c-15.9,0-28.7,12.8-28.7,28.7s12.8,28.7,28.7,28.7s28.7-12.8,28.7-28.7
	C649.6,40.4,636.8,27.5,620.9,27.5z M624.2,63.6c0,0.2,0,0.4-0.1,0.5c-0.1,0.2-0.2,0.3-0.3,0.4s-0.3,0.2-0.4,0.2
	c-0.2,0-0.3,0.1-0.5,0.1h-1.4c-0.3,0-0.6,0-0.8-0.1s-0.4-0.2-0.6-0.3c-0.2-0.2-0.4-0.4-0.5-0.6c-0.2-0.3-0.4-0.6-0.6-1l-4.1-7.7
	c-0.2-0.5-0.5-1-0.7-1.5s-0.5-1-0.7-1.5l0,0c0,0.6,0.1,1.2,0.1,1.8c0,0.6,0,1.2,0,1.9v8.6c0,0.1,0,0.2-0.1,0.2
	c0,0.1-0.1,0.1-0.2,0.2s-0.3,0.1-0.5,0.1s-0.4,0-0.8,0c-0.3,0-0.5,0-0.7,0s-0.3-0.1-0.5-0.1c-0.1,0-0.2-0.1-0.2-0.2
	s-0.1-0.1-0.1-0.2V49.6c0-0.4,0.1-0.7,0.3-0.9c0.2-0.2,0.5-0.3,0.9-0.3h1.8c0.3,0,0.6,0,0.8,0.1s0.4,0.1,0.6,0.3
	c0.2,0.1,0.3,0.3,0.5,0.5s0.3,0.5,0.5,0.8l3.2,6c0.2,0.4,0.4,0.7,0.6,1.1c0.2,0.4,0.4,0.7,0.5,1.1s0.3,0.7,0.5,1s0.3,0.7,0.5,1l0,0
	c0-0.6,0-1.2-0.1-1.9c0-0.6,0-1.3,0-1.8v-7.7c0-0.1,0-0.2,0.1-0.2c0.1-0.1,0.1-0.1,0.3-0.2s0.3-0.1,0.5-0.1s0.4,0,0.8,0
	c0.3,0,0.5,0,0.7,0s0.3,0.1,0.5,0.1s0.2,0.1,0.2,0.2s0.1,0.1,0.1,0.2L624.2,63.6L624.2,63.6z M630.8,64.4c0,0.1,0,0.2-0.1,0.2
	c-0.1,0.1-0.1,0.1-0.3,0.2c-0.1,0-0.3,0.1-0.5,0.1s-0.5,0-0.8,0s-0.6,0-0.8,0s-0.4-0.1-0.5-0.1s-0.2-0.1-0.3-0.2s-0.1-0.1-0.1-0.2
	V53.1c0-0.1,0-0.2,0.1-0.2c0.1-0.1,0.1-0.1,0.3-0.2c0.1,0,0.3-0.1,0.5-0.1s0.5,0,0.8,0s0.6,0,0.8,0s0.4,0.1,0.5,0.1s0.2,0.1,0.3,0.2
	s0.1,0.1,0.1,0.2V64.4z M630.6,50.5c-0.3,0.2-0.7,0.4-1.5,0.4c-0.7,0-1.2-0.1-1.5-0.4s-0.4-0.7-0.4-1.3c0-0.6,0.1-1.1,0.4-1.3
	s0.7-0.4,1.5-0.4c0.7,0,1.2,0.1,1.4,0.4c0.3,0.2,0.4,0.7,0.4,1.3C631,49.8,630.9,50.3,630.6,50.5z"/>
<path class="st0" d="M686.3,92.9c-15.9,0-28.7,12.8-28.7,28.7s12.8,28.7,28.7,28.7s28.7-12.8,28.7-28.7
	C715,105.8,702.2,92.9,686.3,92.9z M689.7,129c0,0.2,0,0.4-0.1,0.5c-0.1,0.2-0.2,0.3-0.3,0.4s-0.3,0.2-0.4,0.2
	c-0.2,0-0.3,0.1-0.5,0.1H687c-0.3,0-0.6,0-0.8-0.1s-0.4-0.2-0.6-0.3c-0.2-0.2-0.4-0.4-0.5-0.6c-0.2-0.3-0.4-0.6-0.6-1l-4.1-7.7
	c-0.2-0.5-0.5-1-0.7-1.5s-0.5-1-0.7-1.5l0,0c0,0.6,0.1,1.2,0.1,1.8c0,0.6,0,1.2,0,1.9v8.6c0,0.1,0,0.2-0.1,0.2
	c0,0.1-0.1,0.1-0.2,0.2s-0.3,0.1-0.5,0.1s-0.4,0-0.8,0c-0.3,0-0.5,0-0.7,0s-0.3-0.1-0.5-0.1c-0.1,0-0.2-0.1-0.2-0.2
	s-0.1-0.1-0.1-0.2V115c0-0.4,0.1-0.7,0.3-0.9c0.2-0.2,0.5-0.3,0.9-0.3h1.8c0.3,0,0.6,0,0.8,0.1s0.4,0.1,0.6,0.3
	c0.2,0.1,0.3,0.3,0.5,0.5s0.3,0.5,0.5,0.8l3.2,6c0.2,0.4,0.4,0.7,0.6,1.1c0.2,0.4,0.4,0.7,0.5,1.1s0.3,0.7,0.5,1s0.3,0.7,0.5,1l0,0
	c0-0.6,0-1.2-0.1-1.9c0-0.6,0-1.3,0-1.8v-7.7c0-0.1,0-0.2,0.1-0.2c0.1-0.1,0.1-0.1,0.3-0.2s0.3-0.1,0.5-0.1s0.4,0,0.8,0
	c0.3,0,0.5,0,0.7,0s0.3,0.1,0.5,0.1s0.2,0.1,0.2,0.2s0.1,0.1,0.1,0.2L689.7,129L689.7,129z M696.3,129.8c0,0.1,0,0.2-0.1,0.2
	c-0.1,0.1-0.1,0.1-0.3,0.2c-0.1,0-0.3,0.1-0.5,0.1s-0.5,0-0.8,0s-0.6,0-0.8,0s-0.4-0.1-0.5-0.1s-0.2-0.1-0.3-0.2s-0.1-0.1-0.1-0.2
	v-11.3c0-0.1,0-0.2,0.1-0.2c0.1-0.1,0.1-0.1,0.3-0.2c0.1,0,0.3-0.1,0.5-0.1s0.5,0,0.8,0s0.6,0,0.8,0s0.4,0.1,0.5,0.1
	s0.2,0.1,0.3,0.2s0.1,0.1,0.1,0.2V129.8z M696.1,115.9c-0.3,0.2-0.7,0.4-1.5,0.4c-0.7,0-1.2-0.1-1.5-0.4s-0.4-0.7-0.4-1.3
	c0-0.6,0.1-1.1,0.4-1.3s0.7-0.4,1.5-0.4c0.7,0,1.2,0.1,1.4,0.4c0.3,0.2,0.4,0.7,0.4,1.3C696.5,115.2,696.4,115.7,696.1,115.9z"/>
<path class="st0" d="M817.1,92.9c-15.9,0-28.7,12.8-28.7,28.7s12.8,28.7,28.7,28.7s28.7-12.8,28.7-28.7
	C845.8,105.8,833,92.9,817.1,92.9z M820.5,129c0,0.2,0,0.4-0.1,0.5c-0.1,0.2-0.2,0.3-0.3,0.4s-0.3,0.2-0.4,0.2
	c-0.2,0-0.3,0.1-0.5,0.1h-1.4c-0.3,0-0.6,0-0.8-0.1s-0.4-0.2-0.6-0.3c-0.2-0.2-0.4-0.4-0.5-0.6c-0.2-0.3-0.4-0.6-0.6-1l-4.1-7.7
	c-0.2-0.5-0.5-1-0.7-1.5s-0.5-1-0.7-1.5l0,0c0,0.6,0.1,1.2,0.1,1.8c0,0.6,0,1.2,0,1.9v8.6c0,0.1,0,0.2-0.1,0.2
	c0,0.1-0.1,0.1-0.2,0.2s-0.3,0.1-0.5,0.1s-0.4,0-0.8,0c-0.3,0-0.5,0-0.7,0s-0.3-0.1-0.5-0.1c-0.1,0-0.2-0.1-0.2-0.2
	s-0.1-0.1-0.1-0.2V115c0-0.4,0.1-0.7,0.3-0.9c0.2-0.2,0.5-0.3,0.9-0.3h1.8c0.3,0,0.6,0,0.8,0.1s0.4,0.1,0.6,0.3
	c0.2,0.1,0.3,0.3,0.5,0.5s0.3,0.5,0.5,0.8l3.2,6c0.2,0.4,0.4,0.7,0.6,1.1c0.2,0.4,0.4,0.7,0.5,1.1s0.3,0.7,0.5,1s0.3,0.7,0.5,1l0,0
	c0-0.6,0-1.2-0.1-1.9c0-0.6,0-1.3,0-1.8v-7.7c0-0.1,0-0.2,0.1-0.2c0.1-0.1,0.1-0.1,0.3-0.2s0.3-0.1,0.5-0.1s0.4,0,0.8,0
	c0.3,0,0.5,0,0.7,0s0.3,0.1,0.5,0.1s0.2,0.1,0.2,0.2s0.1,0.1,0.1,0.2L820.5,129L820.5,129z M827.1,129.8c0,0.1,0,0.2-0.1,0.2
	c-0.1,0.1-0.1,0.1-0.3,0.2c-0.1,0-0.3,0.1-0.5,0.1s-0.5,0-0.8,0s-0.6,0-0.8,0s-0.4-0.1-0.5-0.1s-0.2-0.1-0.3-0.2s-0.1-0.1-0.1-0.2
	v-11.3c0-0.1,0-0.2,0.1-0.2c0.1-0.1,0.1-0.1,0.3-0.2c0.1,0,0.3-0.1,0.5-0.1s0.5,0,0.8,0s0.6,0,0.8,0s0.4,0.1,0.5,0.1
	s0.2,0.1,0.3,0.2s0.1,0.1,0.1,0.2V129.8z M826.9,115.9c-0.3,0.2-0.7,0.4-1.5,0.4c-0.7,0-1.2-0.1-1.5-0.4s-0.4-0.7-0.4-1.3
	c0-0.6,0.1-1.1,0.4-1.3s0.7-0.4,1.5-0.4c0.7,0,1.2,0.1,1.4,0.4c0.3,0.2,0.4,0.7,0.4,1.3C827.3,115.2,827.2,115.7,826.9,115.9z"/>
<g>
	<path class="st1" d="M265,67.8c-0.2-0.3-0.5-0.6-0.8-0.8c-0.4-0.2-0.8-0.3-1.3-0.3s-0.9,0.1-1.2,0.3c-0.4,0.2-0.6,0.4-0.9,0.8
		c-0.2,0.3-0.4,0.7-0.5,1.2s-0.2,1-0.2,1.6s0,1.1,0.1,1.5c0.1,0.5,0.2,0.9,0.5,1.2c0.2,0.3,0.5,0.6,0.8,0.8c0.4,0.2,0.8,0.3,1.3,0.3
		s0.9-0.1,1.3-0.3s0.6-0.4,0.9-0.8c0.2-0.3,0.4-0.7,0.5-1.2s0.2-1,0.2-1.6s0-1.1-0.1-1.5C265.3,68.5,265.2,68.1,265,67.8z"/>
	<path class="st1" d="M251.8,29.7c-21.5,0-38.9,17.4-38.9,38.9s17.4,38.9,38.9,38.9s38.9-17.4,38.9-38.9S273.3,29.7,251.8,29.7z
		 M254,76.2c0,0.1,0,0.2-0.1,0.2c0,0.1-0.1,0.1-0.3,0.2c-0.1,0-0.3,0.1-0.5,0.1s-0.5,0-0.8,0s-0.6,0-0.8,0c-0.2,0-0.4-0.1-0.5-0.1
		s-0.2-0.1-0.3-0.2c-0.1-0.1-0.1-0.1-0.1-0.2V62.8l0,0l-4.8,13.4c0,0.1-0.1,0.2-0.2,0.3c-0.1,0.1-0.2,0.1-0.3,0.2
		c-0.1,0-0.3,0.1-0.5,0.1s-0.4,0-0.7,0c-0.3,0-0.5,0-0.7,0s-0.4-0.1-0.5-0.1s-0.2-0.1-0.3-0.2c-0.1-0.1-0.1-0.1-0.2-0.2l-4.6-13.4
		l0,0v13.4c0,0.1,0,0.2-0.1,0.2c0,0.1-0.1,0.1-0.3,0.2c-0.1,0-0.3,0.1-0.5,0.1s-0.5,0-0.8,0s-0.6,0-0.8,0c-0.2,0-0.4-0.1-0.5-0.1
		s-0.2-0.1-0.3-0.2c0-0.1-0.1-0.1-0.1-0.2V61.5c0-0.4,0.1-0.8,0.3-1c0.2-0.2,0.5-0.3,0.9-0.3h2.2c0.4,0,0.7,0,1,0.1s0.5,0.2,0.7,0.3
		s0.4,0.3,0.5,0.6c0.1,0.2,0.3,0.5,0.4,0.9l3.6,9.8h0.1l3.7-9.8c0.1-0.4,0.2-0.7,0.4-0.9c0.1-0.2,0.3-0.4,0.5-0.6
		c0.2-0.2,0.4-0.3,0.6-0.3c0.2-0.1,0.5-0.1,0.8-0.1h2.2c0.2,0,0.4,0,0.6,0.1s0.3,0.1,0.4,0.3c0.1,0.1,0.2,0.3,0.2,0.4
		c0.1,0.2,0.1,0.4,0.1,0.6v14.6H254z M268.4,73.1c-0.3,0.8-0.6,1.5-1.2,2.1c-0.5,0.6-1.2,1-1.9,1.3c-0.8,0.3-1.7,0.5-2.7,0.5
		s-1.9-0.1-2.6-0.4s-1.4-0.7-1.9-1.2s-0.9-1.2-1.1-2s-0.4-1.7-0.4-2.7s0.1-1.8,0.4-2.6c0.3-0.8,0.6-1.5,1.2-2.1
		c0.5-0.6,1.2-1,1.9-1.3c0.8-0.3,1.7-0.5,2.7-0.5s1.9,0.1,2.6,0.4s1.4,0.7,1.8,1.2c0.5,0.5,0.8,1.2,1.1,2c0.2,0.8,0.4,1.7,0.4,2.7
		C268.8,71.4,268.7,72.3,268.4,73.1z"/>
</g>
<path class="st2" d="M224.2,147.1c-23.6,0-42.8,19.2-42.8,42.8s19.2,42.8,42.8,42.8s42.8-19.2,42.8-42.8
	C267,166.2,247.8,147.1,224.2,147.1z M235.3,182.9l-3.8,14.3c-0.1,0.2-0.1,0.4-0.2,0.5c-0.1,0.1-0.2,0.2-0.4,0.3
	c-0.2,0.1-0.4,0.1-0.7,0.1c-0.3,0-0.6,0-1.1,0s-0.9,0-1.2,0c-0.3,0-0.5-0.1-0.7-0.1c-0.2-0.1-0.3-0.2-0.4-0.3s-0.1-0.3-0.2-0.5
	l-2.5-10.4l0,0l-2.5,10.4c0,0.2-0.1,0.4-0.2,0.5c-0.1,0.1-0.2,0.2-0.4,0.3c-0.2,0.1-0.4,0.1-0.7,0.1c-0.3,0-0.7,0-1.1,0
	c-0.5,0-0.9,0-1.2,0s-0.5-0.1-0.7-0.1s-0.3-0.2-0.4-0.3s-0.1-0.3-0.2-0.5l-3.7-14.4c-0.1-0.3-0.1-0.5-0.1-0.7s0-0.3,0.1-0.4
	c0.1-0.1,0.3-0.2,0.5-0.2s0.6,0,1,0s0.7,0,0.9,0c0.2,0,0.4,0,0.5,0.1c0.1,0.1,0.2,0.1,0.2,0.2s0.1,0.2,0.1,0.4l2.9,12.6l0,0l3-12.5
	c0-0.2,0.1-0.3,0.1-0.4c0.1-0.1,0.1-0.2,0.3-0.2s0.3-0.1,0.5-0.1s0.5,0,0.9,0s0.7,0,1,0c0.2,0,0.4,0.1,0.6,0.1s0.2,0.1,0.3,0.2
	c0.1,0.1,0.1,0.2,0.1,0.4l3.1,12.5l0,0l2.9-12.6c0-0.1,0.1-0.3,0.1-0.3c0-0.1,0.1-0.2,0.2-0.2s0.3-0.1,0.5-0.1s0.5,0,0.9,0
	s0.7,0,0.9,0s0.4,0.1,0.5,0.2c0.1,0.1,0.1,0.2,0.1,0.4C235.4,182.4,235.4,182.6,235.3,182.9z"/>
<path class="st3" d="M168.2,81.9c-19,0-34.4,15.4-34.4,34.4s15.4,34.4,34.4,34.4s34.4-15.4,34.4-34.4S187.2,81.9,168.2,81.9z
	 M169.5,122.6c0,0.1,0,0.3-0.1,0.4c0,0.1-0.1,0.2-0.1,0.3c0,0.1-0.1,0.2-0.2,0.3c-0.1,0.1-0.3,0.2-0.5,0.4s-0.6,0.3-1,0.4
	c-0.4,0.1-0.8,0.3-1.3,0.3c-0.5,0.1-1,0.1-1.6,0.1c-1.1,0-2.1-0.2-3.1-0.5c-0.9-0.3-1.7-0.9-2.3-1.6c-0.6-0.7-1.1-1.6-1.5-2.6
	c-0.3-1-0.5-2.2-0.5-3.6c0-1.4,0.2-2.6,0.6-3.7c0.4-1.1,0.9-2,1.6-2.7c0.7-0.7,1.5-1.3,2.4-1.7c0.9-0.4,2-0.6,3.1-0.6
	c0.5,0,0.9,0,1.3,0.1s0.8,0.2,1.2,0.3c0.4,0.1,0.7,0.3,1,0.4c0.3,0.2,0.5,0.3,0.6,0.4c0.1,0.1,0.2,0.2,0.2,0.3
	c0,0.1,0.1,0.2,0.1,0.3c0,0.1,0,0.3,0.1,0.4c0,0.2,0,0.4,0,0.6c0,0.3,0,0.5,0,0.6s0,0.3-0.1,0.4c0,0.1-0.1,0.2-0.2,0.2
	c-0.1,0.1-0.1,0.1-0.2,0.1c-0.1,0-0.3-0.1-0.5-0.2c-0.2-0.1-0.4-0.3-0.8-0.5c-0.3-0.2-0.7-0.3-1.1-0.5s-0.9-0.2-1.5-0.2
	c-0.7,0-1.2,0.1-1.7,0.4s-0.9,0.6-1.3,1.1c-0.4,0.5-0.6,1.1-0.8,1.8s-0.3,1.5-0.3,2.4c0,1,0.1,1.8,0.3,2.5c0.2,0.7,0.5,1.3,0.9,1.7
	c0.4,0.5,0.8,0.8,1.3,1c0.5,0.2,1.1,0.3,1.8,0.3c0.6,0,1.1-0.1,1.5-0.2c0.4-0.1,0.8-0.3,1.1-0.5c0.3-0.2,0.6-0.3,0.8-0.5
	c0.2-0.1,0.4-0.2,0.5-0.2c0.1,0,0.2,0,0.2,0.1c0.1,0,0.1,0.1,0.1,0.2c0,0.1,0.1,0.2,0.1,0.4c0,0.2,0,0.4,0,0.7
	C169.5,122.2,169.5,122.4,169.5,122.6z M179,114.6c0,0.2,0,0.3-0.1,0.5c0,0.1-0.1,0.2-0.1,0.2c-0.1,0-0.1,0.1-0.2,0.1
	c-0.1,0-0.1,0-0.2,0c-0.1,0-0.2-0.1-0.3-0.1c-0.1,0-0.2-0.1-0.3-0.1c-0.1,0-0.3,0-0.4,0c-0.2,0-0.4,0-0.5,0.1
	c-0.2,0.1-0.4,0.2-0.6,0.3c-0.2,0.2-0.4,0.4-0.6,0.6c-0.2,0.3-0.4,0.6-0.7,0.9v7.1c0,0.1,0,0.2-0.1,0.2c-0.1,0.1-0.1,0.1-0.3,0.2
	c-0.1,0-0.3,0.1-0.5,0.1c-0.2,0-0.5,0-0.8,0s-0.6,0-0.8,0c-0.2,0-0.4-0.1-0.5-0.1c-0.1,0-0.2-0.1-0.3-0.2s-0.1-0.1-0.1-0.2v-11.3
	c0-0.1,0-0.2,0.1-0.2s0.1-0.1,0.2-0.2c0.1,0,0.3-0.1,0.4-0.1c0.2,0,0.4,0,0.7,0c0.3,0,0.5,0,0.7,0c0.2,0,0.3,0.1,0.4,0.1
	c0.1,0,0.2,0.1,0.2,0.2s0.1,0.1,0.1,0.2v1.4c0.3-0.4,0.6-0.8,0.8-1c0.3-0.3,0.5-0.5,0.8-0.7c0.2-0.2,0.5-0.3,0.7-0.3
	s0.5-0.1,0.7-0.1c0.1,0,0.2,0,0.4,0s0.3,0,0.4,0.1c0.1,0,0.3,0.1,0.4,0.1c0.1,0,0.2,0.1,0.2,0.1c0,0,0.1,0.1,0.1,0.1
	c0,0.1,0,0.1,0.1,0.2c0,0.1,0,0.2,0,0.4c0,0.2,0,0.4,0,0.7C179,114.1,179,114.4,179,114.6z"/>
<path class="st3" d="M305.1,102.8c-19,0-34.4,15.4-34.4,34.4s15.4,34.4,34.4,34.4s34.4-15.4,34.4-34.4S324.1,102.8,305.1,102.8z
	 M306.4,143.5c0,0.1,0,0.3-0.1,0.4c0,0.1-0.1,0.2-0.1,0.3c0,0.1-0.1,0.2-0.2,0.3c-0.1,0.1-0.3,0.2-0.5,0.4s-0.6,0.3-1,0.4
	c-0.4,0.1-0.8,0.3-1.3,0.3c-0.5,0.1-1,0.1-1.6,0.1c-1.1,0-2.1-0.2-3.1-0.5c-0.9-0.3-1.7-0.9-2.3-1.6c-0.6-0.7-1.1-1.6-1.5-2.6
	c-0.3-1-0.5-2.2-0.5-3.6c0-1.4,0.2-2.6,0.6-3.7c0.4-1.1,0.9-2,1.6-2.7c0.7-0.7,1.5-1.3,2.4-1.7c0.9-0.4,2-0.6,3.1-0.6
	c0.5,0,0.9,0,1.3,0.1s0.8,0.2,1.2,0.3c0.4,0.1,0.7,0.3,1,0.4c0.3,0.2,0.5,0.3,0.6,0.4c0.1,0.1,0.2,0.2,0.2,0.3
	c0,0.1,0.1,0.2,0.1,0.3c0,0.1,0,0.3,0.1,0.4c0,0.2,0,0.4,0,0.6c0,0.3,0,0.5,0,0.6s0,0.3-0.1,0.4c0,0.1-0.1,0.2-0.2,0.2
	c-0.1,0.1-0.1,0.1-0.2,0.1c-0.1,0-0.3-0.1-0.5-0.2c-0.2-0.1-0.4-0.3-0.8-0.5c-0.3-0.2-0.7-0.3-1.1-0.5s-0.9-0.2-1.5-0.2
	c-0.7,0-1.2,0.1-1.7,0.4s-0.9,0.6-1.3,1.1c-0.4,0.5-0.6,1.1-0.8,1.8s-0.3,1.5-0.3,2.4c0,1,0.1,1.8,0.3,2.5c0.2,0.7,0.5,1.3,0.9,1.7
	c0.4,0.5,0.8,0.8,1.3,1c0.5,0.2,1.1,0.3,1.8,0.3c0.6,0,1.1-0.1,1.5-0.2c0.4-0.1,0.8-0.3,1.1-0.5c0.3-0.2,0.6-0.3,0.8-0.5
	c0.2-0.1,0.4-0.2,0.5-0.2c0.1,0,0.2,0,0.2,0.1c0.1,0,0.1,0.1,0.1,0.2c0,0.1,0.1,0.2,0.1,0.4c0,0.2,0,0.4,0,0.7
	C306.4,143.2,306.4,143.4,306.4,143.5z M315.9,135.5c0,0.2,0,0.3-0.1,0.5c0,0.1-0.1,0.2-0.1,0.2c-0.1,0-0.1,0.1-0.2,0.1
	c-0.1,0-0.1,0-0.2,0c-0.1,0-0.2-0.1-0.3-0.1c-0.1,0-0.2-0.1-0.3-0.1c-0.1,0-0.3,0-0.4,0c-0.2,0-0.4,0-0.5,0.1
	c-0.2,0.1-0.4,0.2-0.6,0.3c-0.2,0.2-0.4,0.4-0.6,0.6c-0.2,0.3-0.4,0.6-0.7,0.9v7.1c0,0.1,0,0.2-0.1,0.2c-0.1,0.1-0.1,0.1-0.3,0.2
	c-0.1,0-0.3,0.1-0.5,0.1c-0.2,0-0.5,0-0.8,0s-0.6,0-0.8,0c-0.2,0-0.4-0.1-0.5-0.1c-0.1,0-0.2-0.1-0.3-0.2s-0.1-0.1-0.1-0.2v-11.3
	c0-0.1,0-0.2,0.1-0.2s0.1-0.1,0.2-0.2c0.1,0,0.3-0.1,0.4-0.1c0.2,0,0.4,0,0.7,0c0.3,0,0.5,0,0.7,0c0.2,0,0.3,0.1,0.4,0.1
	c0.1,0,0.2,0.1,0.2,0.2s0.1,0.1,0.1,0.2v1.4c0.3-0.4,0.6-0.8,0.8-1c0.3-0.3,0.5-0.5,0.8-0.7c0.2-0.2,0.5-0.3,0.7-0.3
	s0.5-0.1,0.7-0.1c0.1,0,0.2,0,0.4,0s0.3,0,0.4,0.1c0.1,0,0.3,0.1,0.4,0.1c0.1,0,0.2,0.1,0.2,0.1c0,0,0.1,0.1,0.1,0.1
	c0,0.1,0,0.1,0.1,0.2c0,0.1,0,0.2,0,0.4c0,0.2,0,0.4,0,0.7C315.9,135.1,315.9,135.3,315.9,135.5z"/>
<g>
	<path class="st4" d="M180.9,38.3c-0.2-0.3-0.5-0.6-0.8-0.8c-0.4-0.2-0.8-0.3-1.3-0.3c-0.5,0-0.9,0.1-1.2,0.3
		c-0.4,0.2-0.6,0.4-0.9,0.8c-0.2,0.3-0.4,0.7-0.5,1.2s-0.2,1-0.2,1.6c0,0.6,0,1.1,0.1,1.5c0.1,0.5,0.2,0.9,0.5,1.2
		c0.2,0.3,0.5,0.6,0.8,0.8c0.4,0.2,0.8,0.3,1.3,0.3c0.5,0,0.9-0.1,1.3-0.3c0.4-0.2,0.6-0.4,0.9-0.8c0.2-0.3,0.4-0.7,0.5-1.2
		s0.2-1,0.2-1.6c0-0.6,0-1.1-0.1-1.5C181.2,39,181.1,38.6,180.9,38.3z"/>
	<path class="st4" d="M171.8,9c-16.5,0-30,13.4-30,30s13.4,30,30,30s30-13.4,30-30S188.4,9,171.8,9z M171.1,45.2
		c0,0.1,0,0.3-0.1,0.4c0,0.1-0.1,0.2-0.1,0.3c0,0.1-0.1,0.2-0.2,0.3c-0.1,0.1-0.3,0.2-0.5,0.4c-0.3,0.2-0.6,0.3-1,0.4
		c-0.4,0.1-0.8,0.3-1.3,0.3c-0.5,0.1-1,0.1-1.6,0.1c-1.1,0-2.1-0.2-3-0.5c-0.9-0.3-1.7-0.9-2.3-1.6c-0.6-0.7-1.1-1.6-1.5-2.6
		c-0.3-1-0.5-2.2-0.5-3.6c0-1.4,0.2-2.6,0.6-3.7c0.4-1.1,0.9-2,1.6-2.7s1.5-1.3,2.4-1.7c0.9-0.4,2-0.6,3.1-0.6c0.5,0,0.9,0,1.3,0.1
		s0.8,0.2,1.2,0.3c0.4,0.1,0.7,0.3,1,0.4c0.3,0.2,0.5,0.3,0.6,0.4c0.1,0.1,0.2,0.2,0.2,0.3s0.1,0.2,0.1,0.3c0,0.1,0,0.3,0.1,0.4
		c0,0.2,0,0.4,0,0.6c0,0.3,0,0.5,0,0.6c0,0.2,0,0.3-0.1,0.4c0,0.1-0.1,0.2-0.2,0.2s-0.1,0.1-0.2,0.1c-0.1,0-0.3-0.1-0.5-0.2
		s-0.4-0.3-0.8-0.5c-0.3-0.2-0.7-0.3-1.1-0.5s-0.9-0.2-1.5-0.2c-0.7,0-1.2,0.1-1.7,0.4s-0.9,0.6-1.3,1.1c-0.4,0.5-0.6,1.1-0.8,1.8
		s-0.3,1.5-0.3,2.4c0,1,0.1,1.8,0.3,2.5c0.2,0.7,0.5,1.3,0.9,1.7c0.4,0.5,0.8,0.8,1.3,1c0.5,0.2,1.1,0.3,1.8,0.3
		c0.6,0,1.1-0.1,1.5-0.2s0.8-0.3,1.1-0.5c0.3-0.2,0.6-0.3,0.8-0.5c0.2-0.1,0.4-0.2,0.5-0.2c0.1,0,0.2,0,0.2,0.1
		c0.1,0,0.1,0.1,0.1,0.2c0,0.1,0.1,0.2,0.1,0.4c0,0.2,0,0.4,0,0.7C171.1,44.9,171.1,45,171.1,45.2z M184.4,43.6
		c-0.3,0.8-0.6,1.5-1.2,2.1c-0.5,0.6-1.2,1-1.9,1.3s-1.7,0.5-2.7,0.5c-1,0-1.9-0.1-2.6-0.4c-0.7-0.3-1.4-0.7-1.9-1.2
		c-0.5-0.5-0.9-1.2-1.1-2s-0.4-1.7-0.4-2.7c0-1,0.1-1.8,0.4-2.7c0.3-0.8,0.6-1.5,1.2-2.1c0.5-0.6,1.2-1,1.9-1.3s1.7-0.5,2.7-0.5
		c1,0,1.9,0.1,2.6,0.4c0.7,0.3,1.4,0.7,1.8,1.2c0.5,0.5,0.8,1.2,1.1,2c0.2,0.8,0.4,1.7,0.4,2.7C184.8,41.9,184.6,42.8,184.4,43.6z"
		/>
</g>
</svg>
