<?xml version="1.0" encoding="utf-8"?>
<!-- Generator: Adobe Illustrator 23.0.0, SVG Export Plug-In . SVG Version: 6.00 Build 0)  -->
<svg version="1.1" id="图层_1" xmlns="http://www.w3.org/2000/svg" xmlns:xlink="http://www.w3.org/1999/xlink" x="0px" y="0px"
	 viewBox="0 0 442.1 186.3" style="enable-background:new 0 0 442.1 186.3;" xml:space="preserve">
<style type="text/css">
	.st0{fill:url(#SVGID_1_);}
	.st1{fill:url(#SVGID_2_);}
	.st2{fill:none;stroke:#FFFFFF;stroke-width:5;stroke-linecap:round;stroke-miterlimit:10;}
	.st3{fill:#FFFFFF;}
	#circle{
		animation: circle 1s infinite linear;
		transform-origin: 217.3472px 69.9429px;
	}
	@keyframes circle{
		0%{transform: rotate(0);}
		100%{transform: rotate(360deg);}
	}
</style>
<linearGradient id="SVGID_1_" gradientUnits="userSpaceOnUse" x1="221.0331" y1="186.2885" x2="221.0331" y2="110.2781">
	<stop  offset="0" style="stop-color:#999999"/>
	<stop  offset="0.198" style="stop-color:#9B9796"/>
	<stop  offset="0.3498" style="stop-color:#A18F8C"/>
	<stop  offset="0.4863" style="stop-color:#AB837C"/>
	<stop  offset="0.6137" style="stop-color:#B97165"/>
	<stop  offset="0.7348" style="stop-color:#CC5A47"/>
	<stop  offset="0.8497" style="stop-color:#E23E23"/>
	<stop  offset="0.8771" style="stop-color:#E83719"/>
	<stop  offset="1" style="stop-color:#E33D21"/>
</linearGradient>
<path class="st0" d="M335.3,151.5c-8,0-15.6-3.7-20.4-10.1c-2.8-3.6-5.6-8.1-8-13.5c-7.7-17.4-18-7.4-33.8-10.8
	c-15.8-3.4-16.9-11-33.4-4c-16.5,7-26.4,7.4-32.7,2c-6.3-5.4-12.8-4.9-20.5,0c-7.7,4.9-23,6.8-25.5,4.8s-11.9-8.4-20.9-2.2
	c-7.9,5.5-9.9,9-20,26.9c-2.4,4.2-6.8,6.8-11.6,6.8H80.9v34.8h280.3v-34.8H335.3z"/>
<g id="circle">
	<radialGradient id="SVGID_2_" cx="217.3472" cy="69.9429" r="62.382" gradientUnits="userSpaceOnUse">
		<stop  offset="0" style="stop-color:#666666"/>
		<stop  offset="0.43" style="stop-color:#686565"/>
		<stop  offset="0.5849" style="stop-color:#6F6361"/>
		<stop  offset="0.6954" style="stop-color:#7A5F5B"/>
		<stop  offset="0.7846" style="stop-color:#8B5A51"/>
		<stop  offset="0.8611" style="stop-color:#A15345"/>
		<stop  offset="0.9287" style="stop-color:#BD4A36"/>
		<stop  offset="0.9885" style="stop-color:#DC3F25"/>
		<stop  offset="1" style="stop-color:#E33D21"/>
	</radialGradient>
	<circle class="st1" cx="217.3" cy="69.9" r="62.4"/>
	<g>
		<g>
			<path class="st2" d="M177.8,69.9c0-18.1,12.2-33.4,28.9-38.1"/>
			<g>
				<polygon class="st3" points="205.7,39.8 217.3,30.4 203.4,25.1 				"/>
			</g>
		</g>
	</g>
</g>
</svg>
