<?xml version="1.0" encoding="utf-8"?>
<!-- Generator: Adobe Illustrator 23.0.0, SVG Export Plug-In . SVG Version: 6.00 Build 0)  -->
<svg version="1.1" id="图层_1" xmlns="http://www.w3.org/2000/svg" xmlns:xlink="http://www.w3.org/1999/xlink" x="0px" y="0px"
	 viewBox="0 0 1026.9 462.3" style="enable-background:new 0 0 1026.9 462.3;" xml:space="preserve">
<style type="text/css">
	.st0{fill:#32558E;}
	.st1{fill:none;stroke:#E83719;stroke-width:3;stroke-miterlimit:10;}
	.st2{fill:#E83719;}
	.st3{fill:#AD6A6C;}
</style>
<title>cold-rolling</title>
<title>cold-rolling</title>
<g>
	<path class="st0" d="M0,0v57.4h1026.9V0H0z M495.3,38c0,0.1,0,0.2-0.1,0.3s-0.2,0.1-0.3,0.2s-0.3,0.1-0.6,0.1s-0.5,0-0.9,0
		c-0.4,0-0.6,0-0.9,0s-0.4-0.1-0.6-0.1s-0.2-0.1-0.3-0.2s-0.1-0.2-0.1-0.3V22.5h0l-5.5,15.4c0,0.1-0.1,0.2-0.2,0.3s-0.2,0.1-0.4,0.2
		s-0.3,0.1-0.6,0.1s-0.5,0-0.8,0s-0.6,0-0.8,0s-0.4-0.1-0.6-0.1s-0.3-0.1-0.4-0.2s-0.1-0.2-0.2-0.3l-5.3-15.4h0V38
		c0,0.1,0,0.2-0.1,0.3s-0.2,0.1-0.3,0.2s-0.3,0.1-0.6,0.1s-0.5,0-0.9,0c-0.4,0-0.6,0-0.9,0s-0.4-0.1-0.6-0.1s-0.2-0.1-0.3-0.2
		s-0.1-0.2-0.1-0.3V21.1c0-0.5,0.1-0.9,0.4-1.1s0.6-0.4,1.1-0.4h2.5c0.4,0,0.8,0,1.2,0.1s0.6,0.2,0.8,0.4s0.4,0.4,0.6,0.7
		s0.3,0.6,0.4,1l4.1,11.3h0.1l4.2-11.3c0.1-0.4,0.3-0.8,0.4-1s0.3-0.5,0.5-0.7s0.4-0.3,0.7-0.4s0.6-0.1,1-0.1h2.6
		c0.3,0,0.5,0,0.7,0.1s0.3,0.2,0.5,0.3s0.2,0.3,0.3,0.5s0.1,0.4,0.1,0.7V38z M510.4,38c0,0.1,0,0.2-0.1,0.3s-0.3,0.1-0.5,0.2
		s-0.5,0.1-0.9,0.1c-0.4,0-0.8,0-1-0.1s-0.3-0.1-0.4-0.2s-0.1-0.2-0.1-0.3v-1c-0.5,0.6-1.1,1-1.8,1.3s-1.5,0.5-2.3,0.5
		c-0.7,0-1.3-0.1-1.9-0.3s-1.1-0.4-1.5-0.8s-0.8-0.8-1-1.3s-0.4-1.1-0.4-1.8c0-0.8,0.1-1.4,0.4-2s0.7-1,1.3-1.4s1.3-0.6,2.2-0.8
		s1.9-0.3,3.1-0.3h1.3v-0.8c0-0.4,0-0.8-0.1-1.1s-0.2-0.6-0.4-0.8s-0.4-0.4-0.8-0.5s-0.7-0.1-1.2-0.1c-0.6,0-1.2,0.1-1.6,0.2
		s-0.9,0.3-1.3,0.5s-0.7,0.3-0.9,0.5s-0.5,0.2-0.6,0.2c-0.1,0-0.2,0-0.3-0.1s-0.2-0.2-0.2-0.3s-0.1-0.3-0.1-0.5s0-0.4,0-0.6
		c0-0.3,0-0.5,0.1-0.7s0.1-0.3,0.3-0.5s0.4-0.3,0.7-0.5s0.7-0.3,1.2-0.5s1-0.3,1.5-0.4s1.1-0.1,1.7-0.1c1,0,1.9,0.1,2.6,0.3
		s1.3,0.5,1.8,0.9s0.8,0.9,1,1.6s0.3,1.4,0.3,2.3V38z M518.4,35.1c0.2,0.4,0.6,0.5,1.2,0.5c0.2,0,0.4,0,0.5-0.1s0.3-0.1,0.4-0.1
		s0.2-0.1,0.3-0.1s0.2-0.1,0.2-0.1c0.1,0,0.1,0,0.2,0.1s0.1,0.1,0.1,0.2s0.1,0.2,0.1,0.4s0,0.4,0,0.7c0,0.4,0,0.8-0.1,1
		s-0.1,0.4-0.2,0.5s-0.2,0.2-0.4,0.2s-0.4,0.1-0.6,0.2s-0.5,0.1-0.7,0.1s-0.5,0-0.8,0c-0.7,0-1.4-0.1-1.9-0.3s-1-0.5-1.3-0.9
		s-0.6-0.9-0.8-1.5s-0.2-1.3-0.2-2.1v-6.7h-1.6c-0.2,0-0.3-0.1-0.4-0.3s-0.1-0.6-0.1-1.1c0-0.3,0-0.5,0-0.7s0.1-0.3,0.1-0.5
		s0.1-0.2,0.2-0.2s0.2-0.1,0.3-0.1h1.6v-2.9c0-0.1,0-0.2,0.1-0.3s0.2-0.1,0.3-0.2s0.3-0.1,0.6-0.1s0.5,0,0.9,0c0.4,0,0.7,0,0.9,0
		s0.4,0.1,0.6,0.1s0.2,0.1,0.3,0.2s0.1,0.2,0.1,0.3v2.9h2.8c0.1,0,0.2,0,0.3,0.1s0.1,0.1,0.2,0.2s0.1,0.3,0.1,0.5s0,0.4,0,0.7
		c0,0.5,0,0.9-0.1,1.1s-0.2,0.3-0.4,0.3h-2.9v6.1C518.1,34.3,518.2,34.8,518.4,35.1z M532.5,27c0,0.2,0,0.4-0.1,0.5
		s-0.1,0.2-0.2,0.3s-0.1,0.1-0.2,0.1c-0.1,0-0.2,0-0.3-0.1s-0.2-0.1-0.3-0.1s-0.3-0.1-0.4-0.1s-0.3-0.1-0.5-0.1
		c-0.2,0-0.4,0-0.6,0.1s-0.4,0.2-0.6,0.4s-0.4,0.4-0.7,0.7s-0.5,0.7-0.8,1.1V38c0,0.1,0,0.2-0.1,0.3s-0.2,0.1-0.3,0.2
		s-0.3,0.1-0.6,0.1s-0.5,0-0.9,0s-0.7,0-0.9,0s-0.4-0.1-0.6-0.1s-0.2-0.1-0.3-0.2s-0.1-0.2-0.1-0.3V24.9c0-0.1,0-0.2,0.1-0.3
		s0.1-0.1,0.3-0.2s0.3-0.1,0.5-0.1s0.5,0,0.8,0c0.3,0,0.6,0,0.8,0s0.4,0.1,0.5,0.1s0.2,0.1,0.2,0.2s0.1,0.2,0.1,0.3v1.6
		c0.3-0.5,0.7-0.9,1-1.2s0.6-0.6,0.9-0.8s0.5-0.3,0.8-0.4s0.5-0.1,0.8-0.1c0.1,0,0.3,0,0.4,0s0.3,0,0.5,0.1s0.3,0.1,0.4,0.1
		s0.2,0.1,0.3,0.1s0.1,0.1,0.1,0.2s0,0.1,0.1,0.2s0,0.3,0,0.5s0,0.5,0,0.8S532.6,26.8,532.5,27z M538.5,38c0,0.1,0,0.2-0.1,0.3
		s-0.2,0.1-0.3,0.2s-0.3,0.1-0.6,0.1s-0.5,0-0.9,0s-0.7,0-0.9,0s-0.4-0.1-0.6-0.1s-0.2-0.1-0.3-0.2s-0.1-0.2-0.1-0.3v-13
		c0-0.1,0-0.2,0.1-0.3s0.2-0.1,0.3-0.2s0.3-0.1,0.6-0.1s0.5,0,0.9,0s0.7,0,0.9,0s0.4,0.1,0.6,0.1s0.2,0.1,0.3,0.2s0.1,0.2,0.1,0.3
		V38z M538.3,22c-0.3,0.3-0.9,0.4-1.7,0.4c-0.8,0-1.4-0.1-1.7-0.4s-0.4-0.8-0.4-1.5c0-0.7,0.1-1.3,0.4-1.5s0.9-0.4,1.7-0.4
		c0.8,0,1.4,0.1,1.7,0.4s0.4,0.8,0.4,1.5C538.8,21.2,538.7,21.7,538.3,22z M553.5,38.4c-0.1,0.1-0.3,0.1-0.6,0.1s-0.7,0-1.1,0
		c-0.4,0-0.8,0-1.1,0s-0.5,0-0.6-0.1s-0.3-0.1-0.3-0.2s-0.1-0.1-0.2-0.2l-2.4-4.6l-2.4,4.6c0,0.1-0.1,0.2-0.2,0.2s-0.2,0.1-0.3,0.2
		s-0.3,0.1-0.6,0.1s-0.6,0-1,0c-0.4,0-0.8,0-1,0s-0.4-0.1-0.6-0.1s-0.2-0.2-0.2-0.3s0-0.2,0.1-0.4l3.6-6.4l-3.3-6
		c-0.1-0.2-0.1-0.3-0.1-0.4s0.1-0.2,0.2-0.3s0.3-0.1,0.6-0.1s0.7,0,1.1,0c0.4,0,0.8,0,1,0s0.5,0,0.6,0.1s0.3,0.1,0.3,0.1
		s0.1,0.1,0.2,0.2l2.3,4.4l2.3-4.4c0-0.1,0.1-0.1,0.1-0.2s0.2-0.1,0.3-0.1s0.3-0.1,0.5-0.1s0.5,0,0.9,0c0.4,0,0.8,0,1,0
		s0.4,0.1,0.6,0.1s0.2,0.2,0.2,0.3s-0.1,0.3-0.2,0.5l-3.3,5.9l3.6,6.5c0.1,0.2,0.1,0.3,0.1,0.4S553.6,38.3,553.5,38.4z"/>
	<path class="st0" d="M503.8,32.6c-0.4,0.1-0.8,0.2-1,0.4s-0.5,0.4-0.6,0.6s-0.2,0.5-0.2,0.9c0,0.5,0.2,1,0.5,1.3s0.8,0.5,1.4,0.5
		c0.5,0,1-0.1,1.4-0.4s0.9-0.6,1.3-1.2v-2.2h-1.4C504.7,32.4,504.2,32.5,503.8,32.6z"/>
</g>
<g>
	<path class="st0" d="M0,202.5v57.4h1026.9v-57.4H0z M495.3,240.4c0,0.1,0,0.2-0.1,0.3s-0.2,0.1-0.3,0.2s-0.3,0.1-0.6,0.1
		s-0.5,0-0.9,0c-0.4,0-0.6,0-0.9,0s-0.4-0.1-0.6-0.1s-0.2-0.1-0.3-0.2s-0.1-0.2-0.1-0.3V225h0l-5.5,15.4c0,0.1-0.1,0.2-0.2,0.3
		s-0.2,0.1-0.4,0.2s-0.3,0.1-0.6,0.1s-0.5,0-0.8,0s-0.6,0-0.8,0s-0.4-0.1-0.6-0.1s-0.3-0.1-0.4-0.2s-0.1-0.2-0.2-0.3l-5.3-15.4h0
		v15.4c0,0.1,0,0.2-0.1,0.3s-0.2,0.1-0.3,0.2s-0.3,0.1-0.6,0.1s-0.5,0-0.9,0c-0.4,0-0.6,0-0.9,0s-0.4-0.1-0.6-0.1s-0.2-0.1-0.3-0.2
		s-0.1-0.2-0.1-0.3v-16.9c0-0.5,0.1-0.9,0.4-1.1s0.6-0.4,1.1-0.4h2.5c0.4,0,0.8,0,1.2,0.1s0.6,0.2,0.8,0.4s0.4,0.4,0.6,0.7
		s0.3,0.6,0.4,1l4.1,11.3h0.1l4.2-11.3c0.1-0.4,0.3-0.8,0.4-1s0.3-0.5,0.5-0.7s0.4-0.3,0.7-0.4s0.6-0.1,1-0.1h2.6
		c0.3,0,0.5,0,0.7,0.1s0.3,0.2,0.5,0.3s0.2,0.3,0.3,0.5s0.1,0.4,0.1,0.7V240.4z M510.4,240.5c0,0.1,0,0.2-0.1,0.3s-0.3,0.1-0.5,0.2
		s-0.5,0.1-0.9,0.1c-0.4,0-0.8,0-1-0.1s-0.3-0.1-0.4-0.2s-0.1-0.2-0.1-0.3v-1c-0.5,0.6-1.1,1-1.8,1.3s-1.5,0.5-2.3,0.5
		c-0.7,0-1.3-0.1-1.9-0.3s-1.1-0.4-1.5-0.8s-0.8-0.8-1-1.3s-0.4-1.1-0.4-1.8c0-0.8,0.1-1.4,0.4-2s0.7-1,1.3-1.4s1.3-0.6,2.2-0.8
		s1.9-0.3,3.1-0.3h1.3v-0.8c0-0.4,0-0.8-0.1-1.1s-0.2-0.6-0.4-0.8s-0.4-0.4-0.8-0.5s-0.7-0.1-1.2-0.1c-0.6,0-1.2,0.1-1.6,0.2
		s-0.9,0.3-1.3,0.5s-0.7,0.3-0.9,0.5s-0.5,0.2-0.6,0.2c-0.1,0-0.2,0-0.3-0.1s-0.2-0.2-0.2-0.3s-0.1-0.3-0.1-0.5s0-0.4,0-0.6
		c0-0.3,0-0.5,0.1-0.7s0.1-0.3,0.3-0.5s0.4-0.3,0.7-0.5s0.7-0.3,1.2-0.5s1-0.3,1.5-0.4s1.1-0.1,1.7-0.1c1,0,1.9,0.1,2.6,0.3
		s1.3,0.5,1.8,0.9s0.8,0.9,1,1.6s0.3,1.4,0.3,2.3V240.5z M518.4,237.6c0.2,0.4,0.6,0.5,1.2,0.5c0.2,0,0.4,0,0.5-0.1s0.3-0.1,0.4-0.1
		s0.2-0.1,0.3-0.1s0.2-0.1,0.2-0.1c0.1,0,0.1,0,0.2,0.1s0.1,0.1,0.1,0.2s0.1,0.2,0.1,0.4s0,0.4,0,0.7c0,0.4,0,0.8-0.1,1
		s-0.1,0.4-0.2,0.5s-0.2,0.2-0.4,0.2s-0.4,0.1-0.6,0.2s-0.5,0.1-0.7,0.1s-0.5,0-0.8,0c-0.7,0-1.4-0.1-1.9-0.3s-1-0.5-1.3-0.9
		s-0.6-0.9-0.8-1.5s-0.2-1.3-0.2-2.1v-6.7h-1.6c-0.2,0-0.3-0.1-0.4-0.3s-0.1-0.6-0.1-1.1c0-0.3,0-0.5,0-0.7s0.1-0.3,0.1-0.5
		s0.1-0.2,0.2-0.2s0.2-0.1,0.3-0.1h1.6V224c0-0.1,0-0.2,0.1-0.3s0.2-0.1,0.3-0.2s0.3-0.1,0.6-0.1s0.5,0,0.9,0c0.4,0,0.7,0,0.9,0
		s0.4,0.1,0.6,0.1s0.2,0.1,0.3,0.2s0.1,0.2,0.1,0.3v2.9h2.8c0.1,0,0.2,0,0.3,0.1s0.1,0.1,0.2,0.2s0.1,0.3,0.1,0.5s0,0.4,0,0.7
		c0,0.5,0,0.9-0.1,1.1s-0.2,0.3-0.4,0.3h-2.9v6.1C518.1,236.7,518.2,237.2,518.4,237.6z M532.5,229.4c0,0.2,0,0.4-0.1,0.5
		s-0.1,0.2-0.2,0.3s-0.1,0.1-0.2,0.1c-0.1,0-0.2,0-0.3-0.1s-0.2-0.1-0.3-0.1s-0.3-0.1-0.4-0.1s-0.3-0.1-0.5-0.1
		c-0.2,0-0.4,0-0.6,0.1s-0.4,0.2-0.6,0.4s-0.4,0.4-0.7,0.7s-0.5,0.7-0.8,1.1v8.1c0,0.1,0,0.2-0.1,0.3s-0.2,0.1-0.3,0.2
		s-0.3,0.1-0.6,0.1s-0.5,0-0.9,0s-0.7,0-0.9,0s-0.4-0.1-0.6-0.1s-0.2-0.1-0.3-0.2s-0.1-0.2-0.1-0.3v-13.1c0-0.1,0-0.2,0.1-0.3
		s0.1-0.1,0.3-0.2s0.3-0.1,0.5-0.1s0.5,0,0.8,0c0.3,0,0.6,0,0.8,0s0.4,0.1,0.5,0.1s0.2,0.1,0.2,0.2s0.1,0.2,0.1,0.3v1.6
		c0.3-0.5,0.7-0.9,1-1.2s0.6-0.6,0.9-0.8s0.5-0.3,0.8-0.4s0.5-0.1,0.8-0.1c0.1,0,0.3,0,0.4,0s0.3,0,0.5,0.1s0.3,0.1,0.4,0.1
		s0.2,0.1,0.3,0.1s0.1,0.1,0.1,0.2s0,0.1,0.1,0.2s0,0.3,0,0.5s0,0.5,0,0.8S532.6,229.2,532.5,229.4z M538.5,240.4
		c0,0.1,0,0.2-0.1,0.3s-0.2,0.1-0.3,0.2s-0.3,0.1-0.6,0.1s-0.5,0-0.9,0s-0.7,0-0.9,0s-0.4-0.1-0.6-0.1s-0.2-0.1-0.3-0.2
		s-0.1-0.2-0.1-0.3v-13c0-0.1,0-0.2,0.1-0.3s0.2-0.1,0.3-0.2s0.3-0.1,0.6-0.1s0.5,0,0.9,0s0.7,0,0.9,0s0.4,0.1,0.6,0.1
		s0.2,0.1,0.3,0.2s0.1,0.2,0.1,0.3V240.4z M538.3,224.5c-0.3,0.3-0.9,0.4-1.7,0.4c-0.8,0-1.4-0.1-1.7-0.4s-0.4-0.8-0.4-1.5
		c0-0.7,0.1-1.3,0.4-1.5s0.9-0.4,1.7-0.4c0.8,0,1.4,0.1,1.7,0.4s0.4,0.8,0.4,1.5C538.8,223.7,538.7,224.2,538.3,224.5z M553.5,240.8
		c-0.1,0.1-0.3,0.1-0.6,0.1s-0.7,0-1.1,0c-0.4,0-0.8,0-1.1,0s-0.5,0-0.6-0.1s-0.3-0.1-0.3-0.2s-0.1-0.1-0.2-0.2l-2.4-4.6l-2.4,4.6
		c0,0.1-0.1,0.2-0.2,0.2s-0.2,0.1-0.3,0.2s-0.3,0.1-0.6,0.1s-0.6,0-1,0c-0.4,0-0.8,0-1,0s-0.4-0.1-0.6-0.1s-0.2-0.2-0.2-0.3
		s0-0.2,0.1-0.4l3.6-6.4l-3.3-6c-0.1-0.2-0.1-0.3-0.1-0.4s0.1-0.2,0.2-0.3s0.3-0.1,0.6-0.1s0.7,0,1.1,0c0.4,0,0.8,0,1,0
		s0.5,0,0.6,0.1s0.3,0.1,0.3,0.1s0.1,0.1,0.2,0.2l2.3,4.4l2.3-4.4c0-0.1,0.1-0.1,0.1-0.2s0.2-0.1,0.3-0.1s0.3-0.1,0.5-0.1
		s0.5,0,0.9,0c0.4,0,0.8,0,1,0s0.4,0.1,0.6,0.1s0.2,0.2,0.2,0.3s-0.1,0.3-0.2,0.5l-3.3,5.9l3.6,6.5c0.1,0.2,0.1,0.3,0.1,0.4
		S553.6,240.8,553.5,240.8z"/>
	<path class="st0" d="M503.8,235c-0.4,0.1-0.8,0.2-1,0.4s-0.5,0.4-0.6,0.6s-0.2,0.5-0.2,0.9c0,0.5,0.2,1,0.5,1.3s0.8,0.5,1.4,0.5
		c0.5,0,1-0.1,1.4-0.4s0.9-0.6,1.3-1.2v-2.2h-1.4C504.7,234.9,504.2,234.9,503.8,235z"/>
</g>
<g>
	<path class="st0" d="M0,404.9v57.4h1026.9v-57.4H0z M495.3,442.9c0,0.1,0,0.2-0.1,0.3s-0.2,0.1-0.3,0.2s-0.3,0.1-0.6,0.1
		s-0.5,0-0.9,0c-0.4,0-0.6,0-0.9,0s-0.4-0.1-0.6-0.1s-0.2-0.1-0.3-0.2s-0.1-0.2-0.1-0.3v-15.4h0l-5.5,15.4c0,0.1-0.1,0.2-0.2,0.3
		s-0.2,0.1-0.4,0.2s-0.3,0.1-0.6,0.1s-0.5,0-0.8,0s-0.6,0-0.8,0s-0.4-0.1-0.6-0.1s-0.3-0.1-0.4-0.2s-0.1-0.2-0.2-0.3l-5.3-15.4h0
		v15.4c0,0.1,0,0.2-0.1,0.3s-0.2,0.1-0.3,0.2s-0.3,0.1-0.6,0.1s-0.5,0-0.9,0c-0.4,0-0.6,0-0.9,0s-0.4-0.1-0.6-0.1s-0.2-0.1-0.3-0.2
		s-0.1-0.2-0.1-0.3V426c0-0.5,0.1-0.9,0.4-1.1s0.6-0.4,1.1-0.4h2.5c0.4,0,0.8,0,1.2,0.1s0.6,0.2,0.8,0.4s0.4,0.4,0.6,0.7
		s0.3,0.6,0.4,1l4.1,11.3h0.1l4.2-11.3c0.1-0.4,0.3-0.8,0.4-1s0.3-0.5,0.5-0.7s0.4-0.3,0.7-0.4s0.6-0.1,1-0.1h2.6
		c0.3,0,0.5,0,0.7,0.1s0.3,0.2,0.5,0.3s0.2,0.3,0.3,0.5s0.1,0.4,0.1,0.7V442.9z M510.4,442.9c0,0.1,0,0.2-0.1,0.3s-0.3,0.1-0.5,0.2
		s-0.5,0.1-0.9,0.1c-0.4,0-0.8,0-1-0.1s-0.3-0.1-0.4-0.2s-0.1-0.2-0.1-0.3v-1c-0.5,0.6-1.1,1-1.8,1.3s-1.5,0.5-2.3,0.5
		c-0.7,0-1.3-0.1-1.9-0.3s-1.1-0.4-1.5-0.8s-0.8-0.8-1-1.3s-0.4-1.1-0.4-1.8c0-0.8,0.1-1.4,0.4-2s0.7-1,1.3-1.4s1.3-0.6,2.2-0.8
		s1.9-0.3,3.1-0.3h1.3v-0.8c0-0.4,0-0.8-0.1-1.1s-0.2-0.6-0.4-0.8s-0.4-0.4-0.8-0.5s-0.7-0.1-1.2-0.1c-0.6,0-1.2,0.1-1.6,0.2
		s-0.9,0.3-1.3,0.5s-0.7,0.3-0.9,0.5s-0.5,0.2-0.6,0.2c-0.1,0-0.2,0-0.3-0.1s-0.2-0.2-0.2-0.3s-0.1-0.3-0.1-0.5s0-0.4,0-0.6
		c0-0.3,0-0.5,0.1-0.7s0.1-0.3,0.3-0.5s0.4-0.3,0.7-0.5s0.7-0.3,1.2-0.5s1-0.3,1.5-0.4s1.1-0.1,1.7-0.1c1,0,1.9,0.1,2.6,0.3
		s1.3,0.5,1.8,0.9s0.8,0.9,1,1.6s0.3,1.4,0.3,2.3V442.9z M518.4,440c0.2,0.4,0.6,0.5,1.2,0.5c0.2,0,0.4,0,0.5-0.1s0.3-0.1,0.4-0.1
		s0.2-0.1,0.3-0.1s0.2-0.1,0.2-0.1c0.1,0,0.1,0,0.2,0.1s0.1,0.1,0.1,0.2s0.1,0.2,0.1,0.4s0,0.4,0,0.7c0,0.4,0,0.8-0.1,1
		s-0.1,0.4-0.2,0.5s-0.2,0.2-0.4,0.2s-0.4,0.1-0.6,0.2s-0.5,0.1-0.7,0.1s-0.5,0-0.8,0c-0.7,0-1.4-0.1-1.9-0.3s-1-0.5-1.3-0.9
		s-0.6-0.9-0.8-1.5s-0.2-1.3-0.2-2.1v-6.7h-1.6c-0.2,0-0.3-0.1-0.4-0.3s-0.1-0.6-0.1-1.1c0-0.3,0-0.5,0-0.7s0.1-0.3,0.1-0.5
		s0.1-0.2,0.2-0.2s0.2-0.1,0.3-0.1h1.6v-2.9c0-0.1,0-0.2,0.1-0.3s0.2-0.1,0.3-0.2s0.3-0.1,0.6-0.1s0.5,0,0.9,0c0.4,0,0.7,0,0.9,0
		s0.4,0.1,0.6,0.1s0.2,0.1,0.3,0.2s0.1,0.2,0.1,0.3v2.9h2.8c0.1,0,0.2,0,0.3,0.1s0.1,0.1,0.2,0.2s0.1,0.3,0.1,0.5s0,0.4,0,0.7
		c0,0.5,0,0.9-0.1,1.1s-0.2,0.3-0.4,0.3h-2.9v6.1C518.1,439.2,518.2,439.7,518.4,440z M532.5,431.9c0,0.2,0,0.4-0.1,0.5
		s-0.1,0.2-0.2,0.3s-0.1,0.1-0.2,0.1c-0.1,0-0.2,0-0.3-0.1s-0.2-0.1-0.3-0.1s-0.3-0.1-0.4-0.1s-0.3-0.1-0.5-0.1
		c-0.2,0-0.4,0-0.6,0.1s-0.4,0.2-0.6,0.4s-0.4,0.4-0.7,0.7s-0.5,0.7-0.8,1.1v8.1c0,0.1,0,0.2-0.1,0.3s-0.2,0.1-0.3,0.2
		s-0.3,0.1-0.6,0.1s-0.5,0-0.9,0s-0.7,0-0.9,0s-0.4-0.1-0.6-0.1s-0.2-0.1-0.3-0.2s-0.1-0.2-0.1-0.3v-13.1c0-0.1,0-0.2,0.1-0.3
		s0.1-0.1,0.3-0.2s0.3-0.1,0.5-0.1s0.5,0,0.8,0c0.3,0,0.6,0,0.8,0s0.4,0.1,0.5,0.1s0.2,0.1,0.2,0.2s0.1,0.2,0.1,0.3v1.6
		c0.3-0.5,0.7-0.9,1-1.2s0.6-0.6,0.9-0.8s0.5-0.3,0.8-0.4s0.5-0.1,0.8-0.1c0.1,0,0.3,0,0.4,0s0.3,0,0.5,0.1s0.3,0.1,0.4,0.1
		s0.2,0.1,0.3,0.1s0.1,0.1,0.1,0.2s0,0.1,0.1,0.2s0,0.3,0,0.5s0,0.5,0,0.8S532.6,431.7,532.5,431.9z M538.5,442.9
		c0,0.1,0,0.2-0.1,0.3s-0.2,0.1-0.3,0.2s-0.3,0.1-0.6,0.1s-0.5,0-0.9,0s-0.7,0-0.9,0s-0.4-0.1-0.6-0.1s-0.2-0.1-0.3-0.2
		s-0.1-0.2-0.1-0.3v-13c0-0.1,0-0.2,0.1-0.3s0.2-0.1,0.3-0.2s0.3-0.1,0.6-0.1s0.5,0,0.9,0s0.7,0,0.9,0s0.4,0.1,0.6,0.1
		s0.2,0.1,0.3,0.2s0.1,0.2,0.1,0.3V442.9z M538.3,426.9c-0.3,0.3-0.9,0.4-1.7,0.4c-0.8,0-1.4-0.1-1.7-0.4s-0.4-0.8-0.4-1.5
		c0-0.7,0.1-1.3,0.4-1.5s0.9-0.4,1.7-0.4c0.8,0,1.4,0.1,1.7,0.4s0.4,0.8,0.4,1.5C538.8,426.1,538.7,426.6,538.3,426.9z M553.5,443.3
		c-0.1,0.1-0.3,0.1-0.6,0.1s-0.7,0-1.1,0c-0.4,0-0.8,0-1.1,0s-0.5,0-0.6-0.1s-0.3-0.1-0.3-0.2s-0.1-0.1-0.2-0.2l-2.4-4.6l-2.4,4.6
		c0,0.1-0.1,0.2-0.2,0.2s-0.2,0.1-0.3,0.2s-0.3,0.1-0.6,0.1s-0.6,0-1,0c-0.4,0-0.8,0-1,0s-0.4-0.1-0.6-0.1s-0.2-0.2-0.2-0.3
		s0-0.2,0.1-0.4l3.6-6.4l-3.3-6c-0.1-0.2-0.1-0.3-0.1-0.4s0.1-0.2,0.2-0.3s0.3-0.1,0.6-0.1s0.7,0,1.1,0c0.4,0,0.8,0,1,0
		s0.5,0,0.6,0.1s0.3,0.1,0.3,0.1s0.1,0.1,0.2,0.2l2.3,4.4l2.3-4.4c0-0.1,0.1-0.1,0.1-0.2s0.2-0.1,0.3-0.1s0.3-0.1,0.5-0.1
		s0.5,0,0.9,0c0.4,0,0.8,0,1,0s0.4,0.1,0.6,0.1s0.2,0.2,0.2,0.3s-0.1,0.3-0.2,0.5l-3.3,5.9l3.6,6.5c0.1,0.2,0.1,0.3,0.1,0.4
		S553.6,443.2,553.5,443.3z"/>
	<path class="st0" d="M503.8,437.5c-0.4,0.1-0.8,0.2-1,0.4s-0.5,0.4-0.6,0.6s-0.2,0.5-0.2,0.9c0,0.5,0.2,1,0.5,1.3s0.8,0.5,1.4,0.5
		c0.5,0,1-0.1,1.4-0.4s0.9-0.6,1.3-1.2v-2.2h-1.4C504.7,437.3,504.2,437.4,503.8,437.5z"/>
</g>
<g>
	<g>
		<g>
			<g>
				<line class="st1" x1="37.6" y1="64.9" x2="37.6" y2="84.8"/>
				<g>
					<polygon class="st2" points="32.3,66.5 37.6,57.4 42.8,66.5 					"/>
				</g>
				<g>
					<polygon class="st2" points="32.3,83.3 37.6,92.4 42.8,83.3 					"/>
				</g>
			</g>
		</g>
		<g>
			<g>
				<line class="st1" x1="37.6" y1="175" x2="37.6" y2="194.9"/>
				<g>
					<polygon class="st2" points="32.3,176.6 37.6,167.5 42.8,176.6 					"/>
				</g>
				<g>
					<polygon class="st2" points="32.3,193.4 37.6,202.5 42.8,193.4 					"/>
				</g>
			</g>
		</g>
		<g>
			<path class="st3" d="M49.4,125.1c-0.4-0.6-0.9-1-1.5-1.3s-1.4-0.5-2.3-0.5c-0.9,0-1.7,0.2-2.4,0.5s-1.1,0.8-1.5,1.4
				s-0.7,1.3-0.8,2.1s-0.2,1.6-0.2,2.5c0,1,0.1,2,0.2,2.8s0.4,1.5,0.8,2.1s0.9,1,1.5,1.3s1.4,0.5,2.4,0.5s1.7-0.2,2.4-0.5
				s1.1-0.8,1.5-1.4s0.7-1.3,0.8-2.1s0.2-1.7,0.2-2.6c0-1-0.1-1.9-0.2-2.7S49.8,125.7,49.4,125.1z"/>
			<path class="st3" d="M37.6,92.4C16.8,92.4,0,109.2,0,129.9c0,20.8,16.8,37.6,37.6,37.6s37.6-16.8,37.6-37.6
				C75.1,109.2,58.3,92.4,37.6,92.4z M25.9,121c-0.1,0.2-0.2,0.5-0.4,0.8l-5.2,10.3v6.7c0,0.1,0,0.2-0.1,0.3s-0.2,0.1-0.3,0.2
				s-0.3,0.1-0.6,0.1s-0.6,0-0.9,0c-0.4,0-0.7,0-0.9,0s-0.4-0.1-0.6-0.1s-0.3-0.1-0.3-0.2s-0.1-0.2-0.1-0.3v-6.7l-5.2-10.3
				c-0.2-0.4-0.3-0.6-0.4-0.8s0-0.4,0.1-0.5s0.3-0.2,0.6-0.2s0.7,0,1.3,0c0.4,0,0.8,0,1.1,0s0.5,0.1,0.6,0.1s0.3,0.1,0.3,0.2
				s0.1,0.2,0.2,0.3l2.1,4.7c0.2,0.4,0.4,0.9,0.6,1.4s0.4,1,0.6,1.6h0c0.2-0.5,0.4-1,0.6-1.5s0.4-1,0.6-1.4l2.1-4.6
				c0-0.2,0.1-0.3,0.2-0.4s0.2-0.2,0.3-0.2s0.3-0.1,0.6-0.1s0.6,0,1,0c0.6,0,1,0,1.3,0s0.5,0.1,0.6,0.2S26,120.8,25.9,121z
				 M34.6,139.2c-0.1,0.2-0.2,0.2-0.3,0.2h-6.5c-0.2,0-0.3,0-0.4,0s-0.2-0.1-0.3-0.2S27,139,27,138.9s0-0.4,0-0.6c0-0.2,0-0.3,0-0.5
				s0-0.2,0.1-0.3s0.1-0.2,0.2-0.3s0.2-0.2,0.3-0.3l1.8-1.6c0.3-0.3,0.5-0.5,0.7-0.7s0.3-0.4,0.5-0.5s0.2-0.3,0.3-0.5
				s0.1-0.3,0.1-0.5c0-0.3-0.1-0.5-0.3-0.7s-0.5-0.3-0.8-0.3c-0.3,0-0.6,0-0.8,0.1s-0.4,0.1-0.6,0.2s-0.4,0.2-0.5,0.2
				s-0.2,0.1-0.3,0.1c0,0-0.1,0-0.1-0.1s-0.1-0.1-0.1-0.2s-0.1-0.2-0.1-0.4s0-0.3,0-0.6c0-0.3,0-0.5,0.1-0.6s0.1-0.2,0.2-0.3
				s0.2-0.2,0.4-0.3s0.5-0.2,0.7-0.3s0.6-0.2,1-0.2s0.8-0.1,1.2-0.1c0.6,0,1.1,0.1,1.6,0.2s0.8,0.3,1.1,0.6s0.5,0.5,0.7,0.9
				s0.2,0.7,0.2,1.1c0,0.3,0,0.6-0.1,0.9s-0.2,0.6-0.4,0.9s-0.5,0.7-0.8,1s-0.8,0.7-1.3,1.1l-1.2,0.9h3.8c0.1,0,0.3,0.1,0.3,0.3
				s0.1,0.4,0.1,0.8C34.7,138.7,34.7,139,34.6,139.2z M53.9,133.9c-0.4,1.2-1,2.3-1.7,3.2s-1.7,1.5-2.9,2s-2.5,0.7-3.9,0.7
				c-1.5,0-2.8-0.2-3.9-0.6s-2-1-2.7-1.8s-1.3-1.8-1.6-3s-0.5-2.7-0.5-4.3c0-1.5,0.2-2.9,0.6-4.1s1-2.3,1.7-3.1s1.7-1.5,2.9-2
				s2.5-0.7,4-0.7c1.4,0,2.7,0.2,3.8,0.6s2,1,2.8,1.8s1.3,1.8,1.7,3s0.6,2.6,0.6,4.3C54.5,131.3,54.3,132.7,53.9,133.9z M63.9,137.9
				c-0.2,0.4-0.5,0.7-0.9,1s-0.9,0.5-1.5,0.6s-1.2,0.2-1.9,0.2c-0.4,0-0.8,0-1.1-0.1s-0.7-0.1-0.9-0.2s-0.5-0.1-0.7-0.2
				s-0.3-0.2-0.4-0.3s-0.2-0.2-0.2-0.4s-0.1-0.4-0.1-0.7c0-0.3,0-0.5,0.1-0.6s0.1-0.1,0.2-0.1c0.1,0,0.2,0,0.3,0.1s0.3,0.1,0.5,0.2
				s0.4,0.1,0.7,0.2s0.6,0.1,1,0.1c0.3,0,0.6,0,0.8-0.1s0.4-0.1,0.5-0.2s0.2-0.2,0.3-0.3s0.1-0.3,0.1-0.4c0-0.2,0-0.3-0.1-0.5
				s-0.2-0.3-0.4-0.4s-0.4-0.2-0.7-0.2s-0.6-0.1-1-0.1h-0.9c-0.1,0-0.2,0-0.2,0s-0.1-0.1-0.1-0.1s-0.1-0.2-0.1-0.3s0-0.3,0-0.5
				s0-0.3,0-0.5s0-0.2,0.1-0.3s0.1-0.1,0.1-0.1s0.1,0,0.2,0h1c0.6,0,1.1-0.1,1.4-0.3s0.5-0.5,0.5-0.8c0-0.3-0.1-0.5-0.3-0.7
				s-0.6-0.3-1-0.3c-0.3,0-0.6,0-0.8,0.1s-0.5,0.2-0.7,0.2s-0.4,0.2-0.5,0.2s-0.3,0.1-0.3,0.1c0,0-0.1,0-0.1,0s-0.1-0.1-0.1-0.1
				s-0.1-0.2-0.1-0.3s0-0.3,0-0.5c0-0.1,0-0.3,0-0.4s0-0.2,0-0.3s0-0.1,0.1-0.2s0.1-0.1,0.1-0.1s0.2-0.1,0.4-0.2s0.5-0.2,0.8-0.3
				s0.6-0.2,1-0.2s0.8-0.1,1.3-0.1c0.6,0,1.1,0.1,1.6,0.2s0.8,0.3,1.1,0.5s0.5,0.5,0.7,0.8s0.2,0.7,0.2,1.1c0,0.3,0,0.5-0.1,0.8
				s-0.2,0.5-0.4,0.7s-0.4,0.4-0.6,0.5s-0.5,0.3-0.9,0.3c0.4,0,0.8,0.1,1.1,0.2s0.6,0.3,0.8,0.5s0.3,0.4,0.4,0.7s0.1,0.5,0.1,0.8
				C64.2,137.1,64.1,137.5,63.9,137.9z"/>
		</g>
	</g>
	<g>
		<g>
			<g>
				<line class="st1" x1="37.6" y1="267.4" x2="37.6" y2="287.3"/>
				<g>
					<polygon class="st2" points="32.3,268.9 37.6,259.8 42.8,268.9 					"/>
				</g>
				<g>
					<polygon class="st2" points="32.3,285.7 37.6,294.8 42.8,285.7 					"/>
				</g>
			</g>
		</g>
		<g>
			<g>
				<line class="st1" x1="37.6" y1="377.5" x2="37.6" y2="397.4"/>
				<g>
					<polygon class="st2" points="32.3,379 37.6,369.9 42.8,379 					"/>
				</g>
				<g>
					<polygon class="st2" points="32.3,395.8 37.6,404.9 42.8,395.8 					"/>
				</g>
			</g>
		</g>
		<g>
			<path class="st3" d="M49.4,327.5c-0.4-0.6-0.9-1-1.5-1.3s-1.4-0.5-2.3-0.5c-0.9,0-1.7,0.2-2.4,0.5s-1.1,0.8-1.5,1.4
				s-0.7,1.3-0.8,2.1s-0.2,1.6-0.2,2.5c0,1,0.1,2,0.2,2.8s0.4,1.5,0.8,2.1s0.9,1,1.5,1.3s1.4,0.5,2.4,0.5s1.7-0.2,2.4-0.5
				s1.1-0.8,1.5-1.4s0.7-1.3,0.8-2.1s0.2-1.7,0.2-2.6c0-1-0.1-1.9-0.2-2.7S49.8,328.1,49.4,327.5z"/>
			<path class="st3" d="M37.6,294.8C16.8,294.8,0,311.6,0,332.4c0,20.8,16.8,37.6,37.6,37.6s37.6-16.8,37.6-37.6
				C75.1,311.6,58.3,294.8,37.6,294.8z M25.9,323.5c-0.1,0.2-0.2,0.5-0.4,0.8l-5.2,10.3v6.7c0,0.1,0,0.2-0.1,0.3s-0.2,0.1-0.3,0.2
				s-0.3,0.1-0.6,0.1s-0.6,0-0.9,0c-0.4,0-0.7,0-0.9,0s-0.4-0.1-0.6-0.1s-0.3-0.1-0.3-0.2s-0.1-0.2-0.1-0.3v-6.7l-5.2-10.3
				c-0.2-0.4-0.3-0.6-0.4-0.8s0-0.4,0.1-0.5s0.3-0.2,0.6-0.2s0.7,0,1.3,0c0.4,0,0.8,0,1.1,0s0.5,0.1,0.6,0.1s0.3,0.1,0.3,0.2
				s0.1,0.2,0.2,0.3l2.1,4.7c0.2,0.4,0.4,0.9,0.6,1.4s0.4,1,0.6,1.6h0c0.2-0.5,0.4-1,0.6-1.5s0.4-1,0.6-1.4l2.1-4.6
				c0-0.2,0.1-0.3,0.2-0.4s0.2-0.2,0.3-0.2s0.3-0.1,0.6-0.1s0.6,0,1,0c0.6,0,1,0,1.3,0s0.5,0.1,0.6,0.2S26,323.3,25.9,323.5z
				 M34.6,341.6c-0.1,0.2-0.2,0.2-0.3,0.2h-6.5c-0.2,0-0.3,0-0.4,0s-0.2-0.1-0.3-0.2s-0.1-0.2-0.1-0.4s0-0.4,0-0.6
				c0-0.2,0-0.3,0-0.5s0-0.2,0.1-0.3s0.1-0.2,0.2-0.3s0.2-0.2,0.3-0.3l1.8-1.6c0.3-0.3,0.5-0.5,0.7-0.7s0.3-0.4,0.5-0.5
				s0.2-0.3,0.3-0.5s0.1-0.3,0.1-0.5c0-0.3-0.1-0.5-0.3-0.7s-0.5-0.3-0.8-0.3c-0.3,0-0.6,0-0.8,0.1s-0.4,0.1-0.6,0.2
				s-0.4,0.2-0.5,0.2s-0.2,0.1-0.3,0.1c0,0-0.1,0-0.1-0.1s-0.1-0.1-0.1-0.2s-0.1-0.2-0.1-0.4s0-0.3,0-0.6c0-0.3,0-0.5,0.1-0.6
				s0.1-0.2,0.2-0.3s0.2-0.2,0.4-0.3s0.5-0.2,0.7-0.3s0.6-0.2,1-0.2s0.8-0.1,1.2-0.1c0.6,0,1.1,0.1,1.6,0.2s0.8,0.3,1.1,0.6
				s0.5,0.5,0.7,0.9s0.2,0.7,0.2,1.1c0,0.3,0,0.6-0.1,0.9s-0.2,0.6-0.4,0.9s-0.5,0.7-0.8,1s-0.8,0.7-1.3,1.1l-1.2,0.9h3.8
				c0.1,0,0.3,0.1,0.3,0.3s0.1,0.4,0.1,0.8C34.7,341.2,34.7,341.5,34.6,341.6z M53.9,336.4c-0.4,1.2-1,2.3-1.7,3.2s-1.7,1.5-2.9,2
				s-2.5,0.7-3.9,0.7c-1.5,0-2.8-0.2-3.9-0.6s-2-1-2.7-1.8s-1.3-1.8-1.6-3s-0.5-2.7-0.5-4.3c0-1.5,0.2-2.9,0.6-4.1s1-2.3,1.7-3.1
				s1.7-1.5,2.9-2s2.5-0.7,4-0.7c1.4,0,2.7,0.2,3.8,0.6s2,1,2.8,1.8s1.3,1.8,1.7,3s0.6,2.6,0.6,4.3
				C54.5,333.7,54.3,335.1,53.9,336.4z M63.9,340.3c-0.2,0.4-0.5,0.7-0.9,1s-0.9,0.5-1.5,0.6s-1.2,0.2-1.9,0.2c-0.4,0-0.8,0-1.1-0.1
				s-0.7-0.1-0.9-0.2s-0.5-0.1-0.7-0.2s-0.3-0.2-0.4-0.3s-0.2-0.2-0.2-0.4s-0.1-0.4-0.1-0.7c0-0.3,0-0.5,0.1-0.6s0.1-0.1,0.2-0.1
				c0.1,0,0.2,0,0.3,0.1s0.3,0.1,0.5,0.2s0.4,0.1,0.7,0.2s0.6,0.1,1,0.1c0.3,0,0.6,0,0.8-0.1s0.4-0.1,0.5-0.2s0.2-0.2,0.3-0.3
				s0.1-0.3,0.1-0.4c0-0.2,0-0.3-0.1-0.5s-0.2-0.3-0.4-0.4s-0.4-0.2-0.7-0.2s-0.6-0.1-1-0.1h-0.9c-0.1,0-0.2,0-0.2,0
				s-0.1-0.1-0.1-0.1s-0.1-0.2-0.1-0.3s0-0.3,0-0.5s0-0.3,0-0.5s0-0.2,0.1-0.3s0.1-0.1,0.1-0.1s0.1,0,0.2,0h1c0.6,0,1.1-0.1,1.4-0.3
				s0.5-0.5,0.5-0.8c0-0.3-0.1-0.5-0.3-0.7s-0.6-0.3-1-0.3c-0.3,0-0.6,0-0.8,0.1s-0.5,0.2-0.7,0.2s-0.4,0.2-0.5,0.2
				s-0.3,0.1-0.3,0.1c0,0-0.1,0-0.1,0s-0.1-0.1-0.1-0.1s-0.1-0.2-0.1-0.3s0-0.3,0-0.5c0-0.1,0-0.3,0-0.4s0-0.2,0-0.3s0-0.1,0.1-0.2
				s0.1-0.1,0.1-0.1s0.2-0.1,0.4-0.2s0.5-0.2,0.8-0.3s0.6-0.2,1-0.2s0.8-0.1,1.3-0.1c0.6,0,1.1,0.1,1.6,0.2s0.8,0.3,1.1,0.5
				s0.5,0.5,0.7,0.8s0.2,0.7,0.2,1.1c0,0.3,0,0.5-0.1,0.8s-0.2,0.5-0.4,0.7s-0.4,0.4-0.6,0.5s-0.5,0.3-0.9,0.3
				c0.4,0,0.8,0.1,1.1,0.2s0.6,0.3,0.8,0.5s0.3,0.4,0.4,0.7s0.1,0.5,0.1,0.8C64.2,339.5,64.1,340,63.9,340.3z"/>
		</g>
	</g>
</g>
<g>
	<g>
		<g>
			<g>
				<line class="st1" x1="227.9" y1="64.9" x2="227.9" y2="84.8"/>
				<g>
					<polygon class="st2" points="222.7,66.5 227.9,57.4 233.2,66.5 					"/>
				</g>
				<g>
					<polygon class="st2" points="222.7,83.3 227.9,92.4 233.2,83.3 					"/>
				</g>
			</g>
		</g>
		<g>
			<g>
				<line class="st1" x1="227.9" y1="175" x2="227.9" y2="194.9"/>
				<g>
					<polygon class="st2" points="222.7,176.6 227.9,167.5 233.2,176.6 					"/>
				</g>
				<g>
					<polygon class="st2" points="222.7,193.4 227.9,202.5 233.2,193.4 					"/>
				</g>
			</g>
		</g>
		<g>
			<path class="st3" d="M239.8,125.1c-0.4-0.6-0.9-1-1.5-1.3s-1.4-0.5-2.3-0.5c-0.9,0-1.7,0.2-2.4,0.5s-1.1,0.8-1.5,1.4
				s-0.7,1.3-0.8,2.1s-0.2,1.6-0.2,2.5c0,1,0.1,2,0.2,2.8s0.4,1.5,0.8,2.1s0.9,1,1.5,1.3s1.4,0.5,2.4,0.5s1.7-0.2,2.4-0.5
				s1.1-0.8,1.5-1.4s0.7-1.3,0.8-2.1s0.2-1.7,0.2-2.6c0-1-0.1-1.9-0.2-2.7S240.1,125.7,239.8,125.1z"/>
			<path class="st3" d="M227.9,92.4c-20.8,0-37.6,16.8-37.6,37.6c0,20.8,16.8,37.6,37.6,37.6s37.6-16.8,37.6-37.6
				C265.5,109.2,248.7,92.4,227.9,92.4z M216.3,121c-0.1,0.2-0.2,0.5-0.4,0.8l-5.2,10.3v6.7c0,0.1,0,0.2-0.1,0.3s-0.2,0.1-0.3,0.2
				s-0.3,0.1-0.6,0.1s-0.6,0-0.9,0c-0.4,0-0.7,0-0.9,0s-0.4-0.1-0.6-0.1s-0.3-0.1-0.3-0.2s-0.1-0.2-0.1-0.3v-6.7l-5.2-10.3
				c-0.2-0.4-0.3-0.6-0.4-0.8s0-0.4,0.1-0.5s0.3-0.2,0.6-0.2s0.7,0,1.3,0c0.4,0,0.8,0,1.1,0s0.5,0.1,0.6,0.1s0.3,0.1,0.3,0.2
				s0.1,0.2,0.2,0.3l2.1,4.7c0.2,0.4,0.4,0.9,0.6,1.4s0.4,1,0.6,1.6h0c0.2-0.5,0.4-1,0.6-1.5s0.4-1,0.6-1.4l2.1-4.6
				c0-0.2,0.1-0.3,0.2-0.4s0.2-0.2,0.3-0.2s0.3-0.1,0.6-0.1s0.6,0,1,0c0.6,0,1,0,1.3,0s0.5,0.1,0.6,0.2S216.3,120.8,216.3,121z
				 M225,139.2c-0.1,0.2-0.2,0.2-0.3,0.2h-6.5c-0.2,0-0.3,0-0.4,0s-0.2-0.1-0.3-0.2s-0.1-0.2-0.1-0.4s0-0.4,0-0.6c0-0.2,0-0.3,0-0.5
				s0-0.2,0.1-0.3s0.1-0.2,0.2-0.3s0.2-0.2,0.3-0.3l1.8-1.6c0.3-0.3,0.5-0.5,0.7-0.7s0.3-0.4,0.5-0.5s0.2-0.3,0.3-0.5
				s0.1-0.3,0.1-0.5c0-0.3-0.1-0.5-0.3-0.7s-0.5-0.3-0.8-0.3c-0.3,0-0.6,0-0.8,0.1s-0.4,0.1-0.6,0.2s-0.4,0.2-0.5,0.2
				s-0.2,0.1-0.3,0.1c0,0-0.1,0-0.1-0.1s-0.1-0.1-0.1-0.2s-0.1-0.2-0.1-0.4s0-0.3,0-0.6c0-0.3,0-0.5,0.1-0.6s0.1-0.2,0.2-0.3
				s0.2-0.2,0.4-0.3s0.5-0.2,0.7-0.3s0.6-0.2,1-0.2s0.8-0.1,1.2-0.1c0.6,0,1.1,0.1,1.6,0.2s0.8,0.3,1.1,0.6s0.5,0.5,0.7,0.9
				s0.2,0.7,0.2,1.1c0,0.3,0,0.6-0.1,0.9s-0.2,0.6-0.4,0.9s-0.5,0.7-0.8,1s-0.8,0.7-1.3,1.1l-1.2,0.9h3.8c0.1,0,0.3,0.1,0.3,0.3
				s0.1,0.4,0.1,0.8C225.1,138.7,225,139,225,139.2z M244.3,133.9c-0.4,1.2-1,2.3-1.7,3.2s-1.7,1.5-2.9,2s-2.5,0.7-3.9,0.7
				c-1.5,0-2.8-0.2-3.9-0.6s-2-1-2.7-1.8s-1.3-1.8-1.6-3s-0.5-2.7-0.5-4.3c0-1.5,0.2-2.9,0.6-4.1s1-2.3,1.7-3.1s1.7-1.5,2.9-2
				s2.5-0.7,4-0.7c1.4,0,2.7,0.2,3.8,0.6s2,1,2.8,1.8s1.3,1.8,1.7,3s0.6,2.6,0.6,4.3C244.8,131.3,244.6,132.7,244.3,133.9z
				 M254.2,137.9c-0.2,0.4-0.5,0.7-0.9,1s-0.9,0.5-1.5,0.6s-1.2,0.2-1.9,0.2c-0.4,0-0.8,0-1.1-0.1s-0.7-0.1-0.9-0.2
				s-0.5-0.1-0.7-0.2s-0.3-0.2-0.4-0.3s-0.2-0.2-0.2-0.4s-0.1-0.4-0.1-0.7c0-0.3,0-0.5,0.1-0.6s0.1-0.1,0.2-0.1c0.1,0,0.2,0,0.3,0.1
				s0.3,0.1,0.5,0.2s0.4,0.1,0.7,0.2s0.6,0.1,1,0.1c0.3,0,0.6,0,0.8-0.1s0.4-0.1,0.5-0.2s0.2-0.2,0.3-0.3s0.1-0.3,0.1-0.4
				c0-0.2,0-0.3-0.1-0.5s-0.2-0.3-0.4-0.4s-0.4-0.2-0.7-0.2s-0.6-0.1-1-0.1h-0.9c-0.1,0-0.2,0-0.2,0s-0.1-0.1-0.1-0.1
				s-0.1-0.2-0.1-0.3s0-0.3,0-0.5s0-0.3,0-0.5s0-0.2,0.1-0.3s0.1-0.1,0.1-0.1s0.1,0,0.2,0h1c0.6,0,1.1-0.1,1.4-0.3s0.5-0.5,0.5-0.8
				c0-0.3-0.1-0.5-0.3-0.7s-0.6-0.3-1-0.3c-0.3,0-0.6,0-0.8,0.1s-0.5,0.2-0.7,0.2s-0.4,0.2-0.5,0.2s-0.3,0.1-0.3,0.1
				c0,0-0.1,0-0.1,0s-0.1-0.1-0.1-0.1s-0.1-0.2-0.1-0.3s0-0.3,0-0.5c0-0.1,0-0.3,0-0.4s0-0.2,0-0.3s0-0.1,0.1-0.2s0.1-0.1,0.1-0.1
				s0.2-0.1,0.4-0.2s0.5-0.2,0.8-0.3s0.6-0.2,1-0.2s0.8-0.1,1.3-0.1c0.6,0,1.1,0.1,1.6,0.2s0.8,0.3,1.1,0.5s0.5,0.5,0.7,0.8
				s0.2,0.7,0.2,1.1c0,0.3,0,0.5-0.1,0.8s-0.2,0.5-0.4,0.7s-0.4,0.4-0.6,0.5s-0.5,0.3-0.9,0.3c0.4,0,0.8,0.1,1.1,0.2
				s0.6,0.3,0.8,0.5s0.3,0.4,0.4,0.7s0.1,0.5,0.1,0.8C254.6,137.1,254.5,137.5,254.2,137.9z"/>
		</g>
	</g>
	<g>
		<g>
			<g>
				<line class="st1" x1="227.9" y1="267.4" x2="227.9" y2="287.3"/>
				<g>
					<polygon class="st2" points="222.7,268.9 227.9,259.8 233.2,268.9 					"/>
				</g>
				<g>
					<polygon class="st2" points="222.7,285.7 227.9,294.8 233.2,285.7 					"/>
				</g>
			</g>
		</g>
		<g>
			<g>
				<line class="st1" x1="227.9" y1="377.5" x2="227.9" y2="397.4"/>
				<g>
					<polygon class="st2" points="222.7,379 227.9,369.9 233.2,379 					"/>
				</g>
				<g>
					<polygon class="st2" points="222.7,395.8 227.9,404.9 233.2,395.8 					"/>
				</g>
			</g>
		</g>
		<g>
			<path class="st3" d="M239.8,327.5c-0.4-0.6-0.9-1-1.5-1.3s-1.4-0.5-2.3-0.5c-0.9,0-1.7,0.2-2.4,0.5s-1.1,0.8-1.5,1.4
				s-0.7,1.3-0.8,2.1s-0.2,1.6-0.2,2.5c0,1,0.1,2,0.2,2.8s0.4,1.5,0.8,2.1s0.9,1,1.5,1.3s1.4,0.5,2.4,0.5s1.7-0.2,2.4-0.5
				s1.1-0.8,1.5-1.4s0.7-1.3,0.8-2.1s0.2-1.7,0.2-2.6c0-1-0.1-1.9-0.2-2.7S240.1,328.1,239.8,327.5z"/>
			<path class="st3" d="M227.9,294.8c-20.8,0-37.6,16.8-37.6,37.6c0,20.8,16.8,37.6,37.6,37.6s37.6-16.8,37.6-37.6
				C265.5,311.6,248.7,294.8,227.9,294.8z M216.3,323.5c-0.1,0.2-0.2,0.5-0.4,0.8l-5.2,10.3v6.7c0,0.1,0,0.2-0.1,0.3
				s-0.2,0.1-0.3,0.2s-0.3,0.1-0.6,0.1s-0.6,0-0.9,0c-0.4,0-0.7,0-0.9,0s-0.4-0.1-0.6-0.1s-0.3-0.1-0.3-0.2s-0.1-0.2-0.1-0.3v-6.7
				l-5.2-10.3c-0.2-0.4-0.3-0.6-0.4-0.8s0-0.4,0.1-0.5s0.3-0.2,0.6-0.2s0.7,0,1.3,0c0.4,0,0.8,0,1.1,0s0.5,0.1,0.6,0.1
				s0.3,0.1,0.3,0.2s0.1,0.2,0.2,0.3l2.1,4.7c0.2,0.4,0.4,0.9,0.6,1.4s0.4,1,0.6,1.6h0c0.2-0.5,0.4-1,0.6-1.5s0.4-1,0.6-1.4l2.1-4.6
				c0-0.2,0.1-0.3,0.2-0.4s0.2-0.2,0.3-0.2s0.3-0.1,0.6-0.1s0.6,0,1,0c0.6,0,1,0,1.3,0s0.5,0.1,0.6,0.2S216.3,323.3,216.3,323.5z
				 M225,341.6c-0.1,0.2-0.2,0.2-0.3,0.2h-6.5c-0.2,0-0.3,0-0.4,0s-0.2-0.1-0.3-0.2s-0.1-0.2-0.1-0.4s0-0.4,0-0.6c0-0.2,0-0.3,0-0.5
				s0-0.2,0.1-0.3s0.1-0.2,0.2-0.3s0.2-0.2,0.3-0.3l1.8-1.6c0.3-0.3,0.5-0.5,0.7-0.7s0.3-0.4,0.5-0.5s0.2-0.3,0.3-0.5
				s0.1-0.3,0.1-0.5c0-0.3-0.1-0.5-0.3-0.7s-0.5-0.3-0.8-0.3c-0.3,0-0.6,0-0.8,0.1s-0.4,0.1-0.6,0.2s-0.4,0.2-0.5,0.2
				s-0.2,0.1-0.3,0.1c0,0-0.1,0-0.1-0.1s-0.1-0.1-0.1-0.2s-0.1-0.2-0.1-0.4s0-0.3,0-0.6c0-0.3,0-0.5,0.1-0.6s0.1-0.2,0.2-0.3
				s0.2-0.2,0.4-0.3s0.5-0.2,0.7-0.3s0.6-0.2,1-0.2s0.8-0.1,1.2-0.1c0.6,0,1.1,0.1,1.6,0.2s0.8,0.3,1.1,0.6s0.5,0.5,0.7,0.9
				s0.2,0.7,0.2,1.1c0,0.3,0,0.6-0.1,0.9s-0.2,0.6-0.4,0.9s-0.5,0.7-0.8,1s-0.8,0.7-1.3,1.1l-1.2,0.9h3.8c0.1,0,0.3,0.1,0.3,0.3
				s0.1,0.4,0.1,0.8C225.1,341.2,225,341.5,225,341.6z M244.3,336.4c-0.4,1.2-1,2.3-1.7,3.2s-1.7,1.5-2.9,2s-2.5,0.7-3.9,0.7
				c-1.5,0-2.8-0.2-3.9-0.6s-2-1-2.7-1.8s-1.3-1.8-1.6-3s-0.5-2.7-0.5-4.3c0-1.5,0.2-2.9,0.6-4.1s1-2.3,1.7-3.1s1.7-1.5,2.9-2
				s2.5-0.7,4-0.7c1.4,0,2.7,0.2,3.8,0.6s2,1,2.8,1.8s1.3,1.8,1.7,3s0.6,2.6,0.6,4.3C244.8,333.7,244.6,335.1,244.3,336.4z
				 M254.2,340.3c-0.2,0.4-0.5,0.7-0.9,1s-0.9,0.5-1.5,0.6s-1.2,0.2-1.9,0.2c-0.4,0-0.8,0-1.1-0.1s-0.7-0.1-0.9-0.2
				s-0.5-0.1-0.7-0.2s-0.3-0.2-0.4-0.3s-0.2-0.2-0.2-0.4s-0.1-0.4-0.1-0.7c0-0.3,0-0.5,0.1-0.6s0.1-0.1,0.2-0.1c0.1,0,0.2,0,0.3,0.1
				s0.3,0.1,0.5,0.2s0.4,0.1,0.7,0.2s0.6,0.1,1,0.1c0.3,0,0.6,0,0.8-0.1s0.4-0.1,0.5-0.2s0.2-0.2,0.3-0.3s0.1-0.3,0.1-0.4
				c0-0.2,0-0.3-0.1-0.5s-0.2-0.3-0.4-0.4s-0.4-0.2-0.7-0.2s-0.6-0.1-1-0.1h-0.9c-0.1,0-0.2,0-0.2,0s-0.1-0.1-0.1-0.1
				s-0.1-0.2-0.1-0.3s0-0.3,0-0.5s0-0.3,0-0.5s0-0.2,0.1-0.3s0.1-0.1,0.1-0.1s0.1,0,0.2,0h1c0.6,0,1.1-0.1,1.4-0.3s0.5-0.5,0.5-0.8
				c0-0.3-0.1-0.5-0.3-0.7s-0.6-0.3-1-0.3c-0.3,0-0.6,0-0.8,0.1s-0.5,0.2-0.7,0.2s-0.4,0.2-0.5,0.2s-0.3,0.1-0.3,0.1
				c0,0-0.1,0-0.1,0s-0.1-0.1-0.1-0.1s-0.1-0.2-0.1-0.3s0-0.3,0-0.5c0-0.1,0-0.3,0-0.4s0-0.2,0-0.3s0-0.1,0.1-0.2s0.1-0.1,0.1-0.1
				s0.2-0.1,0.4-0.2s0.5-0.2,0.8-0.3s0.6-0.2,1-0.2s0.8-0.1,1.3-0.1c0.6,0,1.1,0.1,1.6,0.2s0.8,0.3,1.1,0.5s0.5,0.5,0.7,0.8
				s0.2,0.7,0.2,1.1c0,0.3,0,0.5-0.1,0.8s-0.2,0.5-0.4,0.7s-0.4,0.4-0.6,0.5s-0.5,0.3-0.9,0.3c0.4,0,0.8,0.1,1.1,0.2
				s0.6,0.3,0.8,0.5s0.3,0.4,0.4,0.7s0.1,0.5,0.1,0.8C254.6,339.5,254.5,340,254.2,340.3z"/>
		</g>
	</g>
</g>
<g>
	<g>
		<g>
			<g>
				<line class="st1" x1="418.3" y1="64.9" x2="418.3" y2="84.8"/>
				<g>
					<polygon class="st2" points="413,66.5 418.3,57.4 423.5,66.5 					"/>
				</g>
				<g>
					<polygon class="st2" points="413,83.3 418.3,92.4 423.5,83.3 					"/>
				</g>
			</g>
		</g>
		<g>
			<g>
				<line class="st1" x1="418.3" y1="175" x2="418.3" y2="194.9"/>
				<g>
					<polygon class="st2" points="413,176.6 418.3,167.5 423.5,176.6 					"/>
				</g>
				<g>
					<polygon class="st2" points="413,193.4 418.3,202.5 423.5,193.4 					"/>
				</g>
			</g>
		</g>
		<g>
			<path class="st3" d="M430.1,125.1c-0.4-0.6-0.9-1-1.5-1.3s-1.4-0.5-2.3-0.5c-0.9,0-1.7,0.2-2.4,0.5s-1.1,0.8-1.5,1.4
				s-0.7,1.3-0.8,2.1s-0.2,1.6-0.2,2.5c0,1,0.1,2,0.2,2.8s0.4,1.5,0.8,2.1s0.9,1,1.5,1.3s1.4,0.5,2.4,0.5s1.7-0.2,2.4-0.5
				s1.1-0.8,1.5-1.4s0.7-1.3,0.8-2.1s0.2-1.7,0.2-2.6c0-1-0.1-1.9-0.2-2.7S430.5,125.7,430.1,125.1z"/>
			<path class="st3" d="M418.3,92.4c-20.8,0-37.6,16.8-37.6,37.6c0,20.8,16.8,37.6,37.6,37.6s37.6-16.8,37.6-37.6
				C455.8,109.2,439,92.4,418.3,92.4z M406.6,121c-0.1,0.2-0.2,0.5-0.4,0.8l-5.2,10.3v6.7c0,0.1,0,0.2-0.1,0.3s-0.2,0.1-0.3,0.2
				s-0.3,0.1-0.6,0.1s-0.6,0-0.9,0c-0.4,0-0.7,0-0.9,0s-0.4-0.1-0.6-0.1s-0.3-0.1-0.3-0.2s-0.1-0.2-0.1-0.3v-6.7l-5.2-10.3
				c-0.2-0.4-0.3-0.6-0.4-0.8s0-0.4,0.1-0.5s0.3-0.2,0.6-0.2s0.7,0,1.3,0c0.4,0,0.8,0,1.1,0s0.5,0.1,0.6,0.1s0.3,0.1,0.3,0.2
				s0.1,0.2,0.2,0.3l2.1,4.7c0.2,0.4,0.4,0.9,0.6,1.4s0.4,1,0.6,1.6h0c0.2-0.5,0.4-1,0.6-1.5s0.4-1,0.6-1.4l2.1-4.6
				c0-0.2,0.1-0.3,0.2-0.4s0.2-0.2,0.3-0.2s0.3-0.1,0.6-0.1s0.6,0,1,0c0.6,0,1,0,1.3,0s0.5,0.1,0.6,0.2S406.7,120.8,406.6,121z
				 M415.3,139.2c-0.1,0.2-0.2,0.2-0.3,0.2h-6.5c-0.2,0-0.3,0-0.4,0s-0.2-0.1-0.3-0.2s-0.1-0.2-0.1-0.4s0-0.4,0-0.6
				c0-0.2,0-0.3,0-0.5s0-0.2,0.1-0.3s0.1-0.2,0.2-0.3s0.2-0.2,0.3-0.3l1.8-1.6c0.3-0.3,0.5-0.5,0.7-0.7s0.3-0.4,0.5-0.5
				s0.2-0.3,0.3-0.5s0.1-0.3,0.1-0.5c0-0.3-0.1-0.5-0.3-0.7s-0.5-0.3-0.8-0.3c-0.3,0-0.6,0-0.8,0.1s-0.4,0.1-0.6,0.2
				s-0.4,0.2-0.5,0.2s-0.2,0.1-0.3,0.1c0,0-0.1,0-0.1-0.1s-0.1-0.1-0.1-0.2s-0.1-0.2-0.1-0.4s0-0.3,0-0.6c0-0.3,0-0.5,0.1-0.6
				s0.1-0.2,0.2-0.3s0.2-0.2,0.4-0.3s0.5-0.2,0.7-0.3s0.6-0.2,1-0.2s0.8-0.1,1.2-0.1c0.6,0,1.1,0.1,1.6,0.2s0.8,0.3,1.1,0.6
				s0.5,0.5,0.7,0.9s0.2,0.7,0.2,1.1c0,0.3,0,0.6-0.1,0.9s-0.2,0.6-0.4,0.9s-0.5,0.7-0.8,1s-0.8,0.7-1.3,1.1l-1.2,0.9h3.8
				c0.1,0,0.3,0.1,0.3,0.3s0.1,0.4,0.1,0.8C415.4,138.7,415.4,139,415.3,139.2z M434.6,133.9c-0.4,1.2-1,2.3-1.7,3.2s-1.7,1.5-2.9,2
				s-2.5,0.7-3.9,0.7c-1.5,0-2.8-0.2-3.9-0.6s-2-1-2.7-1.8s-1.3-1.8-1.6-3s-0.5-2.7-0.5-4.3c0-1.5,0.2-2.9,0.6-4.1s1-2.3,1.7-3.1
				s1.7-1.5,2.9-2s2.5-0.7,4-0.7c1.4,0,2.7,0.2,3.8,0.6s2,1,2.8,1.8s1.3,1.8,1.7,3s0.6,2.6,0.6,4.3
				C435.2,131.3,435,132.7,434.6,133.9z M444.6,137.9c-0.2,0.4-0.5,0.7-0.9,1s-0.9,0.5-1.5,0.6s-1.2,0.2-1.9,0.2
				c-0.4,0-0.8,0-1.1-0.1s-0.7-0.1-0.9-0.2s-0.5-0.1-0.7-0.2s-0.3-0.2-0.4-0.3s-0.2-0.2-0.2-0.4s-0.1-0.4-0.1-0.7
				c0-0.3,0-0.5,0.1-0.6s0.1-0.1,0.2-0.1c0.1,0,0.2,0,0.3,0.1s0.3,0.1,0.5,0.2s0.4,0.1,0.7,0.2s0.6,0.1,1,0.1c0.3,0,0.6,0,0.8-0.1
				s0.4-0.1,0.5-0.2s0.2-0.2,0.3-0.3s0.1-0.3,0.1-0.4c0-0.2,0-0.3-0.1-0.5s-0.2-0.3-0.4-0.4s-0.4-0.2-0.7-0.2s-0.6-0.1-1-0.1h-0.9
				c-0.1,0-0.2,0-0.2,0s-0.1-0.1-0.1-0.1s-0.1-0.2-0.1-0.3s0-0.3,0-0.5s0-0.3,0-0.5s0-0.2,0.1-0.3s0.1-0.1,0.1-0.1s0.1,0,0.2,0h1
				c0.6,0,1.1-0.1,1.4-0.3s0.5-0.5,0.5-0.8c0-0.3-0.1-0.5-0.3-0.7s-0.6-0.3-1-0.3c-0.3,0-0.6,0-0.8,0.1s-0.5,0.2-0.7,0.2
				s-0.4,0.2-0.5,0.2s-0.3,0.1-0.3,0.1c0,0-0.1,0-0.1,0s-0.1-0.1-0.1-0.1s-0.1-0.2-0.1-0.3s0-0.3,0-0.5c0-0.1,0-0.3,0-0.4
				s0-0.2,0-0.3s0-0.1,0.1-0.2s0.1-0.1,0.1-0.1s0.2-0.1,0.4-0.2s0.5-0.2,0.8-0.3s0.6-0.2,1-0.2s0.8-0.1,1.3-0.1
				c0.6,0,1.1,0.1,1.6,0.2s0.8,0.3,1.1,0.5s0.5,0.5,0.7,0.8s0.2,0.7,0.2,1.1c0,0.3,0,0.5-0.1,0.8s-0.2,0.5-0.4,0.7s-0.4,0.4-0.6,0.5
				s-0.5,0.3-0.9,0.3c0.4,0,0.8,0.1,1.1,0.2s0.6,0.3,0.8,0.5s0.3,0.4,0.4,0.7s0.1,0.5,0.1,0.8C444.9,137.1,444.8,137.5,444.6,137.9z
				"/>
		</g>
	</g>
	<g>
		<g>
			<g>
				<line class="st1" x1="418.3" y1="267.4" x2="418.3" y2="287.3"/>
				<g>
					<polygon class="st2" points="413,268.9 418.3,259.8 423.5,268.9 					"/>
				</g>
				<g>
					<polygon class="st2" points="413,285.7 418.3,294.8 423.5,285.7 					"/>
				</g>
			</g>
		</g>
		<g>
			<g>
				<line class="st1" x1="418.3" y1="377.5" x2="418.3" y2="397.4"/>
				<g>
					<polygon class="st2" points="413,379 418.3,369.9 423.5,379 					"/>
				</g>
				<g>
					<polygon class="st2" points="413,395.8 418.3,404.9 423.5,395.8 					"/>
				</g>
			</g>
		</g>
		<g>
			<path class="st3" d="M430.1,327.5c-0.4-0.6-0.9-1-1.5-1.3s-1.4-0.5-2.3-0.5c-0.9,0-1.7,0.2-2.4,0.5s-1.1,0.8-1.5,1.4
				s-0.7,1.3-0.8,2.1s-0.2,1.6-0.2,2.5c0,1,0.1,2,0.2,2.8s0.4,1.5,0.8,2.1s0.9,1,1.5,1.3s1.4,0.5,2.4,0.5s1.7-0.2,2.4-0.5
				s1.1-0.8,1.5-1.4s0.7-1.3,0.8-2.1s0.2-1.7,0.2-2.6c0-1-0.1-1.9-0.2-2.7S430.5,328.1,430.1,327.5z"/>
			<path class="st3" d="M418.3,294.8c-20.8,0-37.6,16.8-37.6,37.6c0,20.8,16.8,37.6,37.6,37.6s37.6-16.8,37.6-37.6
				C455.8,311.6,439,294.8,418.3,294.8z M406.6,323.5c-0.1,0.2-0.2,0.5-0.4,0.8l-5.2,10.3v6.7c0,0.1,0,0.2-0.1,0.3s-0.2,0.1-0.3,0.2
				s-0.3,0.1-0.6,0.1s-0.6,0-0.9,0c-0.4,0-0.7,0-0.9,0s-0.4-0.1-0.6-0.1s-0.3-0.1-0.3-0.2s-0.1-0.2-0.1-0.3v-6.7l-5.2-10.3
				c-0.2-0.4-0.3-0.6-0.4-0.8s0-0.4,0.1-0.5s0.3-0.2,0.6-0.2s0.7,0,1.3,0c0.4,0,0.8,0,1.1,0s0.5,0.1,0.6,0.1s0.3,0.1,0.3,0.2
				s0.1,0.2,0.2,0.3l2.1,4.7c0.2,0.4,0.4,0.9,0.6,1.4s0.4,1,0.6,1.6h0c0.2-0.5,0.4-1,0.6-1.5s0.4-1,0.6-1.4l2.1-4.6
				c0-0.2,0.1-0.3,0.2-0.4s0.2-0.2,0.3-0.2s0.3-0.1,0.6-0.1s0.6,0,1,0c0.6,0,1,0,1.3,0s0.5,0.1,0.6,0.2S406.7,323.3,406.6,323.5z
				 M415.3,341.6c-0.1,0.2-0.2,0.2-0.3,0.2h-6.5c-0.2,0-0.3,0-0.4,0s-0.2-0.1-0.3-0.2s-0.1-0.2-0.1-0.4s0-0.4,0-0.6
				c0-0.2,0-0.3,0-0.5s0-0.2,0.1-0.3s0.1-0.2,0.2-0.3s0.2-0.2,0.3-0.3l1.8-1.6c0.3-0.3,0.5-0.5,0.7-0.7s0.3-0.4,0.5-0.5
				s0.2-0.3,0.3-0.5s0.1-0.3,0.1-0.5c0-0.3-0.1-0.5-0.3-0.7s-0.5-0.3-0.8-0.3c-0.3,0-0.6,0-0.8,0.1s-0.4,0.1-0.6,0.2
				s-0.4,0.2-0.5,0.2s-0.2,0.1-0.3,0.1c0,0-0.1,0-0.1-0.1s-0.1-0.1-0.1-0.2s-0.1-0.2-0.1-0.4s0-0.3,0-0.6c0-0.3,0-0.5,0.1-0.6
				s0.1-0.2,0.2-0.3s0.2-0.2,0.4-0.3s0.5-0.2,0.7-0.3s0.6-0.2,1-0.2s0.8-0.1,1.2-0.1c0.6,0,1.1,0.1,1.6,0.2s0.8,0.3,1.1,0.6
				s0.5,0.5,0.7,0.9s0.2,0.7,0.2,1.1c0,0.3,0,0.6-0.1,0.9s-0.2,0.6-0.4,0.9s-0.5,0.7-0.8,1s-0.8,0.7-1.3,1.1l-1.2,0.9h3.8
				c0.1,0,0.3,0.1,0.3,0.3s0.1,0.4,0.1,0.8C415.4,341.2,415.4,341.5,415.3,341.6z M434.6,336.4c-0.4,1.2-1,2.3-1.7,3.2
				s-1.7,1.5-2.9,2s-2.5,0.7-3.9,0.7c-1.5,0-2.8-0.2-3.9-0.6s-2-1-2.7-1.8s-1.3-1.8-1.6-3s-0.5-2.7-0.5-4.3c0-1.5,0.2-2.9,0.6-4.1
				s1-2.3,1.7-3.1s1.7-1.5,2.9-2s2.5-0.7,4-0.7c1.4,0,2.7,0.2,3.8,0.6s2,1,2.8,1.8s1.3,1.8,1.7,3s0.6,2.6,0.6,4.3
				C435.2,333.7,435,335.1,434.6,336.4z M444.6,340.3c-0.2,0.4-0.5,0.7-0.9,1s-0.9,0.5-1.5,0.6s-1.2,0.2-1.9,0.2
				c-0.4,0-0.8,0-1.1-0.1s-0.7-0.1-0.9-0.2s-0.5-0.1-0.7-0.2s-0.3-0.2-0.4-0.3s-0.2-0.2-0.2-0.4s-0.1-0.4-0.1-0.7
				c0-0.3,0-0.5,0.1-0.6s0.1-0.1,0.2-0.1c0.1,0,0.2,0,0.3,0.1s0.3,0.1,0.5,0.2s0.4,0.1,0.7,0.2s0.6,0.1,1,0.1c0.3,0,0.6,0,0.8-0.1
				s0.4-0.1,0.5-0.2s0.2-0.2,0.3-0.3s0.1-0.3,0.1-0.4c0-0.2,0-0.3-0.1-0.5s-0.2-0.3-0.4-0.4s-0.4-0.2-0.7-0.2s-0.6-0.1-1-0.1h-0.9
				c-0.1,0-0.2,0-0.2,0s-0.1-0.1-0.1-0.1s-0.1-0.2-0.1-0.3s0-0.3,0-0.5s0-0.3,0-0.5s0-0.2,0.1-0.3s0.1-0.1,0.1-0.1s0.1,0,0.2,0h1
				c0.6,0,1.1-0.1,1.4-0.3s0.5-0.5,0.5-0.8c0-0.3-0.1-0.5-0.3-0.7s-0.6-0.3-1-0.3c-0.3,0-0.6,0-0.8,0.1s-0.5,0.2-0.7,0.2
				s-0.4,0.2-0.5,0.2s-0.3,0.1-0.3,0.1c0,0-0.1,0-0.1,0s-0.1-0.1-0.1-0.1s-0.1-0.2-0.1-0.3s0-0.3,0-0.5c0-0.1,0-0.3,0-0.4
				s0-0.2,0-0.3s0-0.1,0.1-0.2s0.1-0.1,0.1-0.1s0.2-0.1,0.4-0.2s0.5-0.2,0.8-0.3s0.6-0.2,1-0.2s0.8-0.1,1.3-0.1
				c0.6,0,1.1,0.1,1.6,0.2s0.8,0.3,1.1,0.5s0.5,0.5,0.7,0.8s0.2,0.7,0.2,1.1c0,0.3,0,0.5-0.1,0.8s-0.2,0.5-0.4,0.7s-0.4,0.4-0.6,0.5
				s-0.5,0.3-0.9,0.3c0.4,0,0.8,0.1,1.1,0.2s0.6,0.3,0.8,0.5s0.3,0.4,0.4,0.7s0.1,0.5,0.1,0.8C444.9,339.5,444.8,340,444.6,340.3z"
				/>
		</g>
	</g>
</g>
<g>
	<g>
		<g>
			<g>
				<line class="st1" x1="608.6" y1="64.9" x2="608.6" y2="84.8"/>
				<g>
					<polygon class="st2" points="603.4,66.5 608.6,57.4 613.9,66.5 					"/>
				</g>
				<g>
					<polygon class="st2" points="603.4,83.3 608.6,92.4 613.9,83.3 					"/>
				</g>
			</g>
		</g>
		<g>
			<g>
				<line class="st1" x1="608.6" y1="175" x2="608.6" y2="194.9"/>
				<g>
					<polygon class="st2" points="603.4,176.6 608.6,167.5 613.9,176.6 					"/>
				</g>
				<g>
					<polygon class="st2" points="603.4,193.4 608.6,202.5 613.9,193.4 					"/>
				</g>
			</g>
		</g>
		<g>
			<path class="st3" d="M620.5,125.1c-0.4-0.6-0.9-1-1.5-1.3s-1.4-0.5-2.3-0.5c-0.9,0-1.7,0.2-2.4,0.5s-1.1,0.8-1.5,1.4
				s-0.7,1.3-0.8,2.1s-0.2,1.6-0.2,2.5c0,1,0.1,2,0.2,2.8s0.4,1.5,0.8,2.1s0.9,1,1.5,1.3s1.4,0.5,2.4,0.5s1.7-0.2,2.4-0.5
				s1.1-0.8,1.5-1.4s0.7-1.3,0.8-2.1s0.2-1.7,0.2-2.6c0-1-0.1-1.9-0.2-2.7S620.8,125.7,620.5,125.1z"/>
			<path class="st3" d="M608.6,92.4c-20.8,0-37.6,16.8-37.6,37.6c0,20.8,16.8,37.6,37.6,37.6s37.6-16.8,37.6-37.6
				C646.2,109.2,629.4,92.4,608.6,92.4z M597,121c-0.1,0.2-0.2,0.5-0.4,0.8l-5.2,10.3v6.7c0,0.1,0,0.2-0.1,0.3s-0.2,0.1-0.3,0.2
				s-0.3,0.1-0.6,0.1s-0.6,0-0.9,0c-0.4,0-0.7,0-0.9,0s-0.4-0.1-0.6-0.1s-0.3-0.1-0.3-0.2s-0.1-0.2-0.1-0.3v-6.7l-5.2-10.3
				c-0.2-0.4-0.3-0.6-0.4-0.8s0-0.4,0.1-0.5s0.3-0.2,0.6-0.2s0.7,0,1.3,0c0.4,0,0.8,0,1.1,0s0.5,0.1,0.6,0.1s0.3,0.1,0.3,0.2
				s0.1,0.2,0.2,0.3l2.1,4.7c0.2,0.4,0.4,0.9,0.6,1.4s0.4,1,0.6,1.6h0c0.2-0.5,0.4-1,0.6-1.5s0.4-1,0.6-1.4l2.1-4.6
				c0-0.2,0.1-0.3,0.2-0.4s0.2-0.2,0.3-0.2s0.3-0.1,0.6-0.1s0.6,0,1,0c0.6,0,1,0,1.3,0s0.5,0.1,0.6,0.2S597,120.8,597,121z
				 M605.7,139.2c-0.1,0.2-0.2,0.2-0.3,0.2h-6.5c-0.2,0-0.3,0-0.4,0s-0.2-0.1-0.3-0.2s-0.1-0.2-0.1-0.4s0-0.4,0-0.6
				c0-0.2,0-0.3,0-0.5s0-0.2,0.1-0.3s0.1-0.2,0.2-0.3s0.2-0.2,0.3-0.3l1.8-1.6c0.3-0.3,0.5-0.5,0.7-0.7s0.3-0.4,0.5-0.5
				s0.2-0.3,0.3-0.5s0.1-0.3,0.1-0.5c0-0.3-0.1-0.5-0.3-0.7s-0.5-0.3-0.8-0.3c-0.3,0-0.6,0-0.8,0.1s-0.4,0.1-0.6,0.2
				s-0.4,0.2-0.5,0.2s-0.2,0.1-0.3,0.1c0,0-0.1,0-0.1-0.1s-0.1-0.1-0.1-0.2s-0.1-0.2-0.1-0.4s0-0.3,0-0.6c0-0.3,0-0.5,0.1-0.6
				s0.1-0.2,0.2-0.3s0.2-0.2,0.4-0.3s0.5-0.2,0.7-0.3s0.6-0.2,1-0.2s0.8-0.1,1.2-0.1c0.6,0,1.1,0.1,1.6,0.2s0.8,0.3,1.1,0.6
				s0.5,0.5,0.7,0.9s0.2,0.7,0.2,1.1c0,0.3,0,0.6-0.1,0.9s-0.2,0.6-0.4,0.9s-0.5,0.7-0.8,1s-0.8,0.7-1.3,1.1l-1.2,0.9h3.8
				c0.1,0,0.3,0.1,0.3,0.3s0.1,0.4,0.1,0.8C605.8,138.7,605.7,139,605.7,139.2z M625,133.9c-0.4,1.2-1,2.3-1.7,3.2s-1.7,1.5-2.9,2
				s-2.5,0.7-3.9,0.7c-1.5,0-2.8-0.2-3.9-0.6s-2-1-2.7-1.8s-1.3-1.8-1.6-3s-0.5-2.7-0.5-4.3c0-1.5,0.2-2.9,0.6-4.1s1-2.3,1.7-3.1
				s1.7-1.5,2.9-2s2.5-0.7,4-0.7c1.4,0,2.7,0.2,3.8,0.6s2,1,2.8,1.8s1.3,1.8,1.7,3s0.6,2.6,0.6,4.3
				C625.5,131.3,625.3,132.7,625,133.9z M634.9,137.9c-0.2,0.4-0.5,0.7-0.9,1s-0.9,0.5-1.5,0.6s-1.2,0.2-1.9,0.2
				c-0.4,0-0.8,0-1.1-0.1s-0.7-0.1-0.9-0.2s-0.5-0.1-0.7-0.2s-0.3-0.2-0.4-0.3s-0.2-0.2-0.2-0.4s-0.1-0.4-0.1-0.7
				c0-0.3,0-0.5,0.1-0.6s0.1-0.1,0.2-0.1c0.1,0,0.2,0,0.3,0.1s0.3,0.1,0.5,0.2s0.4,0.1,0.7,0.2s0.6,0.1,1,0.1c0.3,0,0.6,0,0.8-0.1
				s0.4-0.1,0.5-0.2s0.2-0.2,0.3-0.3s0.1-0.3,0.1-0.4c0-0.2,0-0.3-0.1-0.5s-0.2-0.3-0.4-0.4s-0.4-0.2-0.7-0.2s-0.6-0.1-1-0.1h-0.9
				c-0.1,0-0.2,0-0.2,0s-0.1-0.1-0.1-0.1s-0.1-0.2-0.1-0.3s0-0.3,0-0.5s0-0.3,0-0.5s0-0.2,0.1-0.3s0.1-0.1,0.1-0.1s0.1,0,0.2,0h1
				c0.6,0,1.1-0.1,1.4-0.3s0.5-0.5,0.5-0.8c0-0.3-0.1-0.5-0.3-0.7s-0.6-0.3-1-0.3c-0.3,0-0.6,0-0.8,0.1s-0.5,0.2-0.7,0.2
				s-0.4,0.2-0.5,0.2s-0.3,0.1-0.3,0.1c0,0-0.1,0-0.1,0s-0.1-0.1-0.1-0.1s-0.1-0.2-0.1-0.3s0-0.3,0-0.5c0-0.1,0-0.3,0-0.4
				s0-0.2,0-0.3s0-0.1,0.1-0.2s0.1-0.1,0.1-0.1s0.2-0.1,0.4-0.2s0.5-0.2,0.8-0.3s0.6-0.2,1-0.2s0.8-0.1,1.3-0.1
				c0.6,0,1.1,0.1,1.6,0.2s0.8,0.3,1.1,0.5s0.5,0.5,0.7,0.8s0.2,0.7,0.2,1.1c0,0.3,0,0.5-0.1,0.8s-0.2,0.5-0.4,0.7s-0.4,0.4-0.6,0.5
				s-0.5,0.3-0.9,0.3c0.4,0,0.8,0.1,1.1,0.2s0.6,0.3,0.8,0.5s0.3,0.4,0.4,0.7s0.1,0.5,0.1,0.8C635.3,137.1,635.2,137.5,634.9,137.9z
				"/>
		</g>
	</g>
	<g>
		<g>
			<g>
				<line class="st1" x1="608.6" y1="267.4" x2="608.6" y2="287.3"/>
				<g>
					<polygon class="st2" points="603.4,268.9 608.6,259.8 613.9,268.9 					"/>
				</g>
				<g>
					<polygon class="st2" points="603.4,285.7 608.6,294.8 613.9,285.7 					"/>
				</g>
			</g>
		</g>
		<g>
			<g>
				<line class="st1" x1="608.6" y1="377.5" x2="608.6" y2="397.4"/>
				<g>
					<polygon class="st2" points="603.4,379 608.6,369.9 613.9,379 					"/>
				</g>
				<g>
					<polygon class="st2" points="603.4,395.8 608.6,404.9 613.9,395.8 					"/>
				</g>
			</g>
		</g>
		<g>
			<path class="st3" d="M620.5,327.5c-0.4-0.6-0.9-1-1.5-1.3s-1.4-0.5-2.3-0.5c-0.9,0-1.7,0.2-2.4,0.5s-1.1,0.8-1.5,1.4
				s-0.7,1.3-0.8,2.1s-0.2,1.6-0.2,2.5c0,1,0.1,2,0.2,2.8s0.4,1.5,0.8,2.1s0.9,1,1.5,1.3s1.4,0.5,2.4,0.5s1.7-0.2,2.4-0.5
				s1.1-0.8,1.5-1.4s0.7-1.3,0.8-2.1s0.2-1.7,0.2-2.6c0-1-0.1-1.9-0.2-2.7S620.8,328.1,620.5,327.5z"/>
			<path class="st3" d="M608.6,294.8c-20.8,0-37.6,16.8-37.6,37.6c0,20.8,16.8,37.6,37.6,37.6s37.6-16.8,37.6-37.6
				C646.2,311.6,629.4,294.8,608.6,294.8z M597,323.5c-0.1,0.2-0.2,0.5-0.4,0.8l-5.2,10.3v6.7c0,0.1,0,0.2-0.1,0.3s-0.2,0.1-0.3,0.2
				s-0.3,0.1-0.6,0.1s-0.6,0-0.9,0c-0.4,0-0.7,0-0.9,0s-0.4-0.1-0.6-0.1s-0.3-0.1-0.3-0.2s-0.1-0.2-0.1-0.3v-6.7l-5.2-10.3
				c-0.2-0.4-0.3-0.6-0.4-0.8s0-0.4,0.1-0.5s0.3-0.2,0.6-0.2s0.7,0,1.3,0c0.4,0,0.8,0,1.1,0s0.5,0.1,0.6,0.1s0.3,0.1,0.3,0.2
				s0.1,0.2,0.2,0.3l2.1,4.7c0.2,0.4,0.4,0.9,0.6,1.4s0.4,1,0.6,1.6h0c0.2-0.5,0.4-1,0.6-1.5s0.4-1,0.6-1.4l2.1-4.6
				c0-0.2,0.1-0.3,0.2-0.4s0.2-0.2,0.3-0.2s0.3-0.1,0.6-0.1s0.6,0,1,0c0.6,0,1,0,1.3,0s0.5,0.1,0.6,0.2S597,323.3,597,323.5z
				 M605.7,341.6c-0.1,0.2-0.2,0.2-0.3,0.2h-6.5c-0.2,0-0.3,0-0.4,0s-0.2-0.1-0.3-0.2s-0.1-0.2-0.1-0.4s0-0.4,0-0.6
				c0-0.2,0-0.3,0-0.5s0-0.2,0.1-0.3s0.1-0.2,0.2-0.3s0.2-0.2,0.3-0.3l1.8-1.6c0.3-0.3,0.5-0.5,0.7-0.7s0.3-0.4,0.5-0.5
				s0.2-0.3,0.3-0.5s0.1-0.3,0.1-0.5c0-0.3-0.1-0.5-0.3-0.7s-0.5-0.3-0.8-0.3c-0.3,0-0.6,0-0.8,0.1s-0.4,0.1-0.6,0.2
				s-0.4,0.2-0.5,0.2s-0.2,0.1-0.3,0.1c0,0-0.1,0-0.1-0.1s-0.1-0.1-0.1-0.2s-0.1-0.2-0.1-0.4s0-0.3,0-0.6c0-0.3,0-0.5,0.1-0.6
				s0.1-0.2,0.2-0.3s0.2-0.2,0.4-0.3s0.5-0.2,0.7-0.3s0.6-0.2,1-0.2s0.8-0.1,1.2-0.1c0.6,0,1.1,0.1,1.6,0.2s0.8,0.3,1.1,0.6
				s0.5,0.5,0.7,0.9s0.2,0.7,0.2,1.1c0,0.3,0,0.6-0.1,0.9s-0.2,0.6-0.4,0.9s-0.5,0.7-0.8,1s-0.8,0.7-1.3,1.1l-1.2,0.9h3.8
				c0.1,0,0.3,0.1,0.3,0.3s0.1,0.4,0.1,0.8C605.8,341.2,605.7,341.5,605.7,341.6z M625,336.4c-0.4,1.2-1,2.3-1.7,3.2s-1.7,1.5-2.9,2
				s-2.5,0.7-3.9,0.7c-1.5,0-2.8-0.2-3.9-0.6s-2-1-2.7-1.8s-1.3-1.8-1.6-3s-0.5-2.7-0.5-4.3c0-1.5,0.2-2.9,0.6-4.1s1-2.3,1.7-3.1
				s1.7-1.5,2.9-2s2.5-0.7,4-0.7c1.4,0,2.7,0.2,3.8,0.6s2,1,2.8,1.8s1.3,1.8,1.7,3s0.6,2.6,0.6,4.3
				C625.5,333.7,625.3,335.1,625,336.4z M634.9,340.3c-0.2,0.4-0.5,0.7-0.9,1s-0.9,0.5-1.5,0.6s-1.2,0.2-1.9,0.2
				c-0.4,0-0.8,0-1.1-0.1s-0.7-0.1-0.9-0.2s-0.5-0.1-0.7-0.2s-0.3-0.2-0.4-0.3s-0.2-0.2-0.2-0.4s-0.1-0.4-0.1-0.7
				c0-0.3,0-0.5,0.1-0.6s0.1-0.1,0.2-0.1c0.1,0,0.2,0,0.3,0.1s0.3,0.1,0.5,0.2s0.4,0.1,0.7,0.2s0.6,0.1,1,0.1c0.3,0,0.6,0,0.8-0.1
				s0.4-0.1,0.5-0.2s0.2-0.2,0.3-0.3s0.1-0.3,0.1-0.4c0-0.2,0-0.3-0.1-0.5s-0.2-0.3-0.4-0.4s-0.4-0.2-0.7-0.2s-0.6-0.1-1-0.1h-0.9
				c-0.1,0-0.2,0-0.2,0s-0.1-0.1-0.1-0.1s-0.1-0.2-0.1-0.3s0-0.3,0-0.5s0-0.3,0-0.5s0-0.2,0.1-0.3s0.1-0.1,0.1-0.1s0.1,0,0.2,0h1
				c0.6,0,1.1-0.1,1.4-0.3s0.5-0.5,0.5-0.8c0-0.3-0.1-0.5-0.3-0.7s-0.6-0.3-1-0.3c-0.3,0-0.6,0-0.8,0.1s-0.5,0.2-0.7,0.2
				s-0.4,0.2-0.5,0.2s-0.3,0.1-0.3,0.1c0,0-0.1,0-0.1,0s-0.1-0.1-0.1-0.1s-0.1-0.2-0.1-0.3s0-0.3,0-0.5c0-0.1,0-0.3,0-0.4
				s0-0.2,0-0.3s0-0.1,0.1-0.2s0.1-0.1,0.1-0.1s0.2-0.1,0.4-0.2s0.5-0.2,0.8-0.3s0.6-0.2,1-0.2s0.8-0.1,1.3-0.1
				c0.6,0,1.1,0.1,1.6,0.2s0.8,0.3,1.1,0.5s0.5,0.5,0.7,0.8s0.2,0.7,0.2,1.1c0,0.3,0,0.5-0.1,0.8s-0.2,0.5-0.4,0.7s-0.4,0.4-0.6,0.5
				s-0.5,0.3-0.9,0.3c0.4,0,0.8,0.1,1.1,0.2s0.6,0.3,0.8,0.5s0.3,0.4,0.4,0.7s0.1,0.5,0.1,0.8C635.3,339.5,635.2,340,634.9,340.3z"
				/>
		</g>
	</g>
</g>
<g>
	<g>
		<g>
			<g>
				<line class="st1" x1="799" y1="64.9" x2="799" y2="84.8"/>
				<g>
					<polygon class="st2" points="793.7,66.5 799,57.4 804.2,66.5 					"/>
				</g>
				<g>
					<polygon class="st2" points="793.7,83.3 799,92.4 804.2,83.3 					"/>
				</g>
			</g>
		</g>
		<g>
			<g>
				<line class="st1" x1="799" y1="175" x2="799" y2="194.9"/>
				<g>
					<polygon class="st2" points="793.7,176.6 799,167.5 804.2,176.6 					"/>
				</g>
				<g>
					<polygon class="st2" points="793.7,193.4 799,202.5 804.2,193.4 					"/>
				</g>
			</g>
		</g>
		<g>
			<path class="st3" d="M810.8,125.1c-0.4-0.6-0.9-1-1.5-1.3s-1.4-0.5-2.3-0.5c-0.9,0-1.7,0.2-2.4,0.5s-1.1,0.8-1.5,1.4
				s-0.7,1.3-0.8,2.1s-0.2,1.6-0.2,2.5c0,1,0.1,2,0.2,2.8s0.4,1.5,0.8,2.1s0.9,1,1.5,1.3s1.4,0.5,2.4,0.5s1.7-0.2,2.4-0.5
				s1.1-0.8,1.5-1.4s0.7-1.3,0.8-2.1s0.2-1.7,0.2-2.6c0-1-0.1-1.9-0.2-2.7S811.2,125.7,810.8,125.1z"/>
			<path class="st3" d="M799,92.4c-20.8,0-37.6,16.8-37.6,37.6c0,20.8,16.8,37.6,37.6,37.6s37.6-16.8,37.6-37.6
				C836.5,109.2,819.7,92.4,799,92.4z M787.3,121c-0.1,0.2-0.2,0.5-0.4,0.8l-5.2,10.3v6.7c0,0.1,0,0.2-0.1,0.3s-0.2,0.1-0.3,0.2
				s-0.3,0.1-0.6,0.1s-0.6,0-0.9,0c-0.4,0-0.7,0-0.9,0s-0.4-0.1-0.6-0.1s-0.3-0.1-0.3-0.2s-0.1-0.2-0.1-0.3v-6.7l-5.2-10.3
				c-0.2-0.4-0.3-0.6-0.4-0.8s0-0.4,0.1-0.5s0.3-0.2,0.6-0.2s0.7,0,1.3,0c0.4,0,0.8,0,1.1,0s0.5,0.1,0.6,0.1s0.3,0.1,0.3,0.2
				s0.1,0.2,0.2,0.3l2.1,4.7c0.2,0.4,0.4,0.9,0.6,1.4s0.4,1,0.6,1.6h0c0.2-0.5,0.4-1,0.6-1.5s0.4-1,0.6-1.4l2.1-4.6
				c0-0.2,0.1-0.3,0.2-0.4s0.2-0.2,0.3-0.2s0.3-0.1,0.6-0.1s0.6,0,1,0c0.6,0,1,0,1.3,0s0.5,0.1,0.6,0.2S787.4,120.8,787.3,121z
				 M796,139.2c-0.1,0.2-0.2,0.2-0.3,0.2h-6.5c-0.2,0-0.3,0-0.4,0s-0.2-0.1-0.3-0.2s-0.1-0.2-0.1-0.4s0-0.4,0-0.6c0-0.2,0-0.3,0-0.5
				s0-0.2,0.1-0.3s0.1-0.2,0.2-0.3s0.2-0.2,0.3-0.3l1.8-1.6c0.3-0.3,0.5-0.5,0.7-0.7s0.3-0.4,0.5-0.5s0.2-0.3,0.3-0.5
				s0.1-0.3,0.1-0.5c0-0.3-0.1-0.5-0.3-0.7s-0.5-0.3-0.8-0.3c-0.3,0-0.6,0-0.8,0.1s-0.4,0.1-0.6,0.2s-0.4,0.2-0.5,0.2
				s-0.2,0.1-0.3,0.1c0,0-0.1,0-0.1-0.1s-0.1-0.1-0.1-0.2s-0.1-0.2-0.1-0.4s0-0.3,0-0.6c0-0.3,0-0.5,0.1-0.6s0.1-0.2,0.2-0.3
				s0.2-0.2,0.4-0.3s0.5-0.2,0.7-0.3s0.6-0.2,1-0.2s0.8-0.1,1.2-0.1c0.6,0,1.1,0.1,1.6,0.2s0.8,0.3,1.1,0.6s0.5,0.5,0.7,0.9
				s0.2,0.7,0.2,1.1c0,0.3,0,0.6-0.1,0.9s-0.2,0.6-0.4,0.9s-0.5,0.7-0.8,1s-0.8,0.7-1.3,1.1l-1.2,0.9h3.8c0.1,0,0.3,0.1,0.3,0.3
				s0.1,0.4,0.1,0.8C796.1,138.7,796.1,139,796,139.2z M815.3,133.9c-0.4,1.2-1,2.3-1.7,3.2s-1.7,1.5-2.9,2s-2.5,0.7-3.9,0.7
				c-1.5,0-2.8-0.2-3.9-0.6s-2-1-2.7-1.8s-1.3-1.8-1.6-3s-0.5-2.7-0.5-4.3c0-1.5,0.2-2.9,0.6-4.1s1-2.3,1.7-3.1s1.7-1.5,2.9-2
				s2.5-0.7,4-0.7c1.4,0,2.7,0.2,3.8,0.6s2,1,2.8,1.8s1.3,1.8,1.7,3s0.6,2.6,0.6,4.3C815.9,131.3,815.7,132.7,815.3,133.9z
				 M825.3,137.9c-0.2,0.4-0.5,0.7-0.9,1s-0.9,0.5-1.5,0.6s-1.2,0.2-1.9,0.2c-0.4,0-0.8,0-1.1-0.1s-0.7-0.1-0.9-0.2
				s-0.5-0.1-0.7-0.2s-0.3-0.2-0.4-0.3s-0.2-0.2-0.2-0.4s-0.1-0.4-0.1-0.7c0-0.3,0-0.5,0.1-0.6s0.1-0.1,0.2-0.1c0.1,0,0.2,0,0.3,0.1
				s0.3,0.1,0.5,0.2s0.4,0.1,0.7,0.2s0.6,0.1,1,0.1c0.3,0,0.6,0,0.8-0.1s0.4-0.1,0.5-0.2s0.2-0.2,0.3-0.3s0.1-0.3,0.1-0.4
				c0-0.2,0-0.3-0.1-0.5s-0.2-0.3-0.4-0.4s-0.4-0.2-0.7-0.2s-0.6-0.1-1-0.1h-0.9c-0.1,0-0.2,0-0.2,0s-0.1-0.1-0.1-0.1
				s-0.1-0.2-0.1-0.3s0-0.3,0-0.5s0-0.3,0-0.5s0-0.2,0.1-0.3s0.1-0.1,0.1-0.1s0.1,0,0.2,0h1c0.6,0,1.1-0.1,1.4-0.3s0.5-0.5,0.5-0.8
				c0-0.3-0.1-0.5-0.3-0.7s-0.6-0.3-1-0.3c-0.3,0-0.6,0-0.8,0.1s-0.5,0.2-0.7,0.2s-0.4,0.2-0.5,0.2s-0.3,0.1-0.3,0.1
				c0,0-0.1,0-0.1,0s-0.1-0.1-0.1-0.1s-0.1-0.2-0.1-0.3s0-0.3,0-0.5c0-0.1,0-0.3,0-0.4s0-0.2,0-0.3s0-0.1,0.1-0.2s0.1-0.1,0.1-0.1
				s0.2-0.1,0.4-0.2s0.5-0.2,0.8-0.3s0.6-0.2,1-0.2s0.8-0.1,1.3-0.1c0.6,0,1.1,0.1,1.6,0.2s0.8,0.3,1.1,0.5s0.5,0.5,0.7,0.8
				s0.2,0.7,0.2,1.1c0,0.3,0,0.5-0.1,0.8s-0.2,0.5-0.4,0.7s-0.4,0.4-0.6,0.5s-0.5,0.3-0.9,0.3c0.4,0,0.8,0.1,1.1,0.2
				s0.6,0.3,0.8,0.5s0.3,0.4,0.4,0.7s0.1,0.5,0.1,0.8C825.6,137.1,825.5,137.5,825.3,137.9z"/>
		</g>
	</g>
	<g>
		<g>
			<g>
				<line class="st1" x1="799" y1="267.4" x2="799" y2="287.3"/>
				<g>
					<polygon class="st2" points="793.7,268.9 799,259.8 804.2,268.9 					"/>
				</g>
				<g>
					<polygon class="st2" points="793.7,285.7 799,294.8 804.2,285.7 					"/>
				</g>
			</g>
		</g>
		<g>
			<g>
				<line class="st1" x1="799" y1="377.5" x2="799" y2="397.4"/>
				<g>
					<polygon class="st2" points="793.7,379 799,369.9 804.2,379 					"/>
				</g>
				<g>
					<polygon class="st2" points="793.7,395.8 799,404.9 804.2,395.8 					"/>
				</g>
			</g>
		</g>
		<g>
			<path class="st3" d="M810.8,327.5c-0.4-0.6-0.9-1-1.5-1.3s-1.4-0.5-2.3-0.5c-0.9,0-1.7,0.2-2.4,0.5s-1.1,0.8-1.5,1.4
				s-0.7,1.3-0.8,2.1s-0.2,1.6-0.2,2.5c0,1,0.1,2,0.2,2.8s0.4,1.5,0.8,2.1s0.9,1,1.5,1.3s1.4,0.5,2.4,0.5s1.7-0.2,2.4-0.5
				s1.1-0.8,1.5-1.4s0.7-1.3,0.8-2.1s0.2-1.7,0.2-2.6c0-1-0.1-1.9-0.2-2.7S811.2,328.1,810.8,327.5z"/>
			<path class="st3" d="M799,294.8c-20.8,0-37.6,16.8-37.6,37.6c0,20.8,16.8,37.6,37.6,37.6s37.6-16.8,37.6-37.6
				C836.5,311.6,819.7,294.8,799,294.8z M787.3,323.5c-0.1,0.2-0.2,0.5-0.4,0.8l-5.2,10.3v6.7c0,0.1,0,0.2-0.1,0.3s-0.2,0.1-0.3,0.2
				s-0.3,0.1-0.6,0.1s-0.6,0-0.9,0c-0.4,0-0.7,0-0.9,0s-0.4-0.1-0.6-0.1s-0.3-0.1-0.3-0.2s-0.1-0.2-0.1-0.3v-6.7l-5.2-10.3
				c-0.2-0.4-0.3-0.6-0.4-0.8s0-0.4,0.1-0.5s0.3-0.2,0.6-0.2s0.7,0,1.3,0c0.4,0,0.8,0,1.1,0s0.5,0.1,0.6,0.1s0.3,0.1,0.3,0.2
				s0.1,0.2,0.2,0.3l2.1,4.7c0.2,0.4,0.4,0.9,0.6,1.4s0.4,1,0.6,1.6h0c0.2-0.5,0.4-1,0.6-1.5s0.4-1,0.6-1.4l2.1-4.6
				c0-0.2,0.1-0.3,0.2-0.4s0.2-0.2,0.3-0.2s0.3-0.1,0.6-0.1s0.6,0,1,0c0.6,0,1,0,1.3,0s0.5,0.1,0.6,0.2S787.4,323.3,787.3,323.5z
				 M796,341.6c-0.1,0.2-0.2,0.2-0.3,0.2h-6.5c-0.2,0-0.3,0-0.4,0s-0.2-0.1-0.3-0.2s-0.1-0.2-0.1-0.4s0-0.4,0-0.6c0-0.2,0-0.3,0-0.5
				s0-0.2,0.1-0.3s0.1-0.2,0.2-0.3s0.2-0.2,0.3-0.3l1.8-1.6c0.3-0.3,0.5-0.5,0.7-0.7s0.3-0.4,0.5-0.5s0.2-0.3,0.3-0.5
				s0.1-0.3,0.1-0.5c0-0.3-0.1-0.5-0.3-0.7s-0.5-0.3-0.8-0.3c-0.3,0-0.6,0-0.8,0.1s-0.4,0.1-0.6,0.2s-0.4,0.2-0.5,0.2
				s-0.2,0.1-0.3,0.1c0,0-0.1,0-0.1-0.1s-0.1-0.1-0.1-0.2s-0.1-0.2-0.1-0.4s0-0.3,0-0.6c0-0.3,0-0.5,0.1-0.6s0.1-0.2,0.2-0.3
				s0.2-0.2,0.4-0.3s0.5-0.2,0.7-0.3s0.6-0.2,1-0.2s0.8-0.1,1.2-0.1c0.6,0,1.1,0.1,1.6,0.2s0.8,0.3,1.1,0.6s0.5,0.5,0.7,0.9
				s0.2,0.7,0.2,1.1c0,0.3,0,0.6-0.1,0.9s-0.2,0.6-0.4,0.9s-0.5,0.7-0.8,1s-0.8,0.7-1.3,1.1l-1.2,0.9h3.8c0.1,0,0.3,0.1,0.3,0.3
				s0.1,0.4,0.1,0.8C796.1,341.2,796.1,341.5,796,341.6z M815.3,336.4c-0.4,1.2-1,2.3-1.7,3.2s-1.7,1.5-2.9,2s-2.5,0.7-3.9,0.7
				c-1.5,0-2.8-0.2-3.9-0.6s-2-1-2.7-1.8s-1.3-1.8-1.6-3s-0.5-2.7-0.5-4.3c0-1.5,0.2-2.9,0.6-4.1s1-2.3,1.7-3.1s1.7-1.5,2.9-2
				s2.5-0.7,4-0.7c1.4,0,2.7,0.2,3.8,0.6s2,1,2.8,1.8s1.3,1.8,1.7,3s0.6,2.6,0.6,4.3C815.9,333.7,815.7,335.1,815.3,336.4z
				 M825.3,340.3c-0.2,0.4-0.5,0.7-0.9,1s-0.9,0.5-1.5,0.6s-1.2,0.2-1.9,0.2c-0.4,0-0.8,0-1.1-0.1s-0.7-0.1-0.9-0.2
				s-0.5-0.1-0.7-0.2s-0.3-0.2-0.4-0.3s-0.2-0.2-0.2-0.4s-0.1-0.4-0.1-0.7c0-0.3,0-0.5,0.1-0.6s0.1-0.1,0.2-0.1c0.1,0,0.2,0,0.3,0.1
				s0.3,0.1,0.5,0.2s0.4,0.1,0.7,0.2s0.6,0.1,1,0.1c0.3,0,0.6,0,0.8-0.1s0.4-0.1,0.5-0.2s0.2-0.2,0.3-0.3s0.1-0.3,0.1-0.4
				c0-0.2,0-0.3-0.1-0.5s-0.2-0.3-0.4-0.4s-0.4-0.2-0.7-0.2s-0.6-0.1-1-0.1h-0.9c-0.1,0-0.2,0-0.2,0s-0.1-0.1-0.1-0.1
				s-0.1-0.2-0.1-0.3s0-0.3,0-0.5s0-0.3,0-0.5s0-0.2,0.1-0.3s0.1-0.1,0.1-0.1s0.1,0,0.2,0h1c0.6,0,1.1-0.1,1.4-0.3s0.5-0.5,0.5-0.8
				c0-0.3-0.1-0.5-0.3-0.7s-0.6-0.3-1-0.3c-0.3,0-0.6,0-0.8,0.1s-0.5,0.2-0.7,0.2s-0.4,0.2-0.5,0.2s-0.3,0.1-0.3,0.1
				c0,0-0.1,0-0.1,0s-0.1-0.1-0.1-0.1s-0.1-0.2-0.1-0.3s0-0.3,0-0.5c0-0.1,0-0.3,0-0.4s0-0.2,0-0.3s0-0.1,0.1-0.2s0.1-0.1,0.1-0.1
				s0.2-0.1,0.4-0.2s0.5-0.2,0.8-0.3s0.6-0.2,1-0.2s0.8-0.1,1.3-0.1c0.6,0,1.1,0.1,1.6,0.2s0.8,0.3,1.1,0.5s0.5,0.5,0.7,0.8
				s0.2,0.7,0.2,1.1c0,0.3,0,0.5-0.1,0.8s-0.2,0.5-0.4,0.7s-0.4,0.4-0.6,0.5s-0.5,0.3-0.9,0.3c0.4,0,0.8,0.1,1.1,0.2
				s0.6,0.3,0.8,0.5s0.3,0.4,0.4,0.7s0.1,0.5,0.1,0.8C825.6,339.5,825.5,340,825.3,340.3z"/>
		</g>
	</g>
</g>
<g>
	<g>
		<g>
			<g>
				<line class="st1" x1="989.3" y1="64.9" x2="989.3" y2="84.8"/>
				<g>
					<polygon class="st2" points="984.1,66.5 989.3,57.4 994.6,66.5 					"/>
				</g>
				<g>
					<polygon class="st2" points="984.1,83.3 989.3,92.4 994.6,83.3 					"/>
				</g>
			</g>
		</g>
		<g>
			<g>
				<line class="st1" x1="989.3" y1="175" x2="989.3" y2="194.9"/>
				<g>
					<polygon class="st2" points="984.1,176.6 989.3,167.5 994.6,176.6 					"/>
				</g>
				<g>
					<polygon class="st2" points="984.1,193.4 989.3,202.5 994.6,193.4 					"/>
				</g>
			</g>
		</g>
		<g>
			<path class="st3" d="M1001.2,125.1c-0.4-0.6-0.9-1-1.5-1.3s-1.4-0.5-2.3-0.5c-0.9,0-1.7,0.2-2.4,0.5s-1.1,0.8-1.5,1.4
				s-0.7,1.3-0.8,2.1s-0.2,1.6-0.2,2.5c0,1,0.1,2,0.2,2.8s0.4,1.5,0.8,2.1s0.9,1,1.5,1.3s1.4,0.5,2.4,0.5s1.7-0.2,2.4-0.5
				s1.1-0.8,1.5-1.4s0.7-1.3,0.8-2.1s0.2-1.7,0.2-2.6c0-1-0.1-1.9-0.2-2.7S1001.5,125.7,1001.2,125.1z"/>
			<path class="st3" d="M989.3,92.4c-20.8,0-37.6,16.8-37.6,37.6c0,20.8,16.8,37.6,37.6,37.6s37.6-16.8,37.6-37.6
				C1026.9,109.2,1010.1,92.4,989.3,92.4z M977.7,121c-0.1,0.2-0.2,0.5-0.4,0.8l-5.2,10.3v6.7c0,0.1,0,0.2-0.1,0.3s-0.2,0.1-0.3,0.2
				s-0.3,0.1-0.6,0.1s-0.6,0-0.9,0c-0.4,0-0.7,0-0.9,0s-0.4-0.1-0.6-0.1s-0.3-0.1-0.3-0.2s-0.1-0.2-0.1-0.3v-6.7l-5.2-10.3
				c-0.2-0.4-0.3-0.6-0.4-0.8s0-0.4,0.1-0.5s0.3-0.2,0.6-0.2s0.7,0,1.3,0c0.4,0,0.8,0,1.1,0s0.5,0.1,0.6,0.1s0.3,0.1,0.3,0.2
				s0.1,0.2,0.2,0.3l2.1,4.7c0.2,0.4,0.4,0.9,0.6,1.4s0.4,1,0.6,1.6h0c0.2-0.5,0.4-1,0.6-1.5s0.4-1,0.6-1.4l2.1-4.6
				c0-0.2,0.1-0.3,0.2-0.4s0.2-0.2,0.3-0.2s0.3-0.1,0.6-0.1s0.6,0,1,0c0.6,0,1,0,1.3,0s0.5,0.1,0.6,0.2S977.7,120.8,977.7,121z
				 M986.4,139.2c-0.1,0.2-0.2,0.2-0.3,0.2h-6.5c-0.2,0-0.3,0-0.4,0s-0.2-0.1-0.3-0.2s-0.1-0.2-0.1-0.4s0-0.4,0-0.6
				c0-0.2,0-0.3,0-0.5s0-0.2,0.1-0.3s0.1-0.2,0.2-0.3s0.2-0.2,0.3-0.3l1.8-1.6c0.3-0.3,0.5-0.5,0.7-0.7s0.3-0.4,0.5-0.5
				s0.2-0.3,0.3-0.5s0.1-0.3,0.1-0.5c0-0.3-0.1-0.5-0.3-0.7s-0.5-0.3-0.8-0.3c-0.3,0-0.6,0-0.8,0.1s-0.4,0.1-0.6,0.2
				s-0.4,0.2-0.5,0.2s-0.2,0.1-0.3,0.1c0,0-0.1,0-0.1-0.1s-0.1-0.1-0.1-0.2s-0.1-0.2-0.1-0.4s0-0.3,0-0.6c0-0.3,0-0.5,0.1-0.6
				s0.1-0.2,0.2-0.3s0.2-0.2,0.4-0.3s0.5-0.2,0.7-0.3s0.6-0.2,1-0.2s0.8-0.1,1.2-0.1c0.6,0,1.1,0.1,1.6,0.2s0.8,0.3,1.1,0.6
				s0.5,0.5,0.7,0.9s0.2,0.7,0.2,1.1c0,0.3,0,0.6-0.1,0.9s-0.2,0.6-0.4,0.9s-0.5,0.7-0.8,1s-0.8,0.7-1.3,1.1l-1.2,0.9h3.8
				c0.1,0,0.3,0.1,0.3,0.3s0.1,0.4,0.1,0.8C986.5,138.7,986.4,139,986.4,139.2z M1005.7,133.9c-0.4,1.2-1,2.3-1.7,3.2
				s-1.7,1.5-2.9,2s-2.5,0.7-3.9,0.7c-1.5,0-2.8-0.2-3.9-0.6s-2-1-2.7-1.8s-1.3-1.8-1.6-3s-0.5-2.7-0.5-4.3c0-1.5,0.2-2.9,0.6-4.1
				s1-2.3,1.7-3.1s1.7-1.5,2.9-2s2.5-0.7,4-0.7c1.4,0,2.7,0.2,3.8,0.6s2,1,2.8,1.8s1.3,1.8,1.7,3s0.6,2.6,0.6,4.3
				C1006.2,131.3,1006,132.7,1005.7,133.9z M1015.6,137.9c-0.2,0.4-0.5,0.7-0.9,1s-0.9,0.5-1.5,0.6s-1.2,0.2-1.9,0.2
				c-0.4,0-0.8,0-1.1-0.1s-0.7-0.1-0.9-0.2s-0.5-0.1-0.7-0.2s-0.3-0.2-0.4-0.3s-0.2-0.2-0.2-0.4s-0.1-0.4-0.1-0.7
				c0-0.3,0-0.5,0.1-0.6s0.1-0.1,0.2-0.1c0.1,0,0.2,0,0.3,0.1s0.3,0.1,0.5,0.2s0.4,0.1,0.7,0.2s0.6,0.1,1,0.1c0.3,0,0.6,0,0.8-0.1
				s0.4-0.1,0.5-0.2s0.2-0.2,0.3-0.3s0.1-0.3,0.1-0.4c0-0.2,0-0.3-0.1-0.5s-0.2-0.3-0.4-0.4s-0.4-0.2-0.7-0.2s-0.6-0.1-1-0.1h-0.9
				c-0.1,0-0.2,0-0.2,0s-0.1-0.1-0.1-0.1s-0.1-0.2-0.1-0.3s0-0.3,0-0.5s0-0.3,0-0.5s0-0.2,0.1-0.3s0.1-0.1,0.1-0.1s0.1,0,0.2,0h1
				c0.6,0,1.1-0.1,1.4-0.3s0.5-0.5,0.5-0.8c0-0.3-0.1-0.5-0.3-0.7s-0.6-0.3-1-0.3c-0.3,0-0.6,0-0.8,0.1s-0.5,0.2-0.7,0.2
				s-0.4,0.2-0.5,0.2s-0.3,0.1-0.3,0.1c0,0-0.1,0-0.1,0s-0.1-0.1-0.1-0.1s-0.1-0.2-0.1-0.3s0-0.3,0-0.5c0-0.1,0-0.3,0-0.4
				s0-0.2,0-0.3s0-0.1,0.1-0.2s0.1-0.1,0.1-0.1s0.2-0.1,0.4-0.2s0.5-0.2,0.8-0.3s0.6-0.2,1-0.2s0.8-0.1,1.3-0.1
				c0.6,0,1.1,0.1,1.6,0.2s0.8,0.3,1.1,0.5s0.5,0.5,0.7,0.8s0.2,0.7,0.2,1.1c0,0.3,0,0.5-0.1,0.8s-0.2,0.5-0.4,0.7s-0.4,0.4-0.6,0.5
				s-0.5,0.3-0.9,0.3c0.4,0,0.8,0.1,1.1,0.2s0.6,0.3,0.8,0.5s0.3,0.4,0.4,0.7s0.1,0.5,0.1,0.8C1016,137.1,1015.9,137.5,1015.6,137.9
				z"/>
		</g>
	</g>
	<g>
		<g>
			<g>
				<line class="st1" x1="989.3" y1="267.4" x2="989.3" y2="287.3"/>
				<g>
					<polygon class="st2" points="984.1,268.9 989.3,259.8 994.6,268.9 					"/>
				</g>
				<g>
					<polygon class="st2" points="984.1,285.7 989.3,294.8 994.6,285.7 					"/>
				</g>
			</g>
		</g>
		<g>
			<g>
				<line class="st1" x1="989.3" y1="377.5" x2="989.3" y2="397.4"/>
				<g>
					<polygon class="st2" points="984.1,379 989.3,369.9 994.6,379 					"/>
				</g>
				<g>
					<polygon class="st2" points="984.1,395.8 989.3,404.9 994.6,395.8 					"/>
				</g>
			</g>
		</g>
		<g>
			<path class="st3" d="M1001.2,327.5c-0.4-0.6-0.9-1-1.5-1.3s-1.4-0.5-2.3-0.5c-0.9,0-1.7,0.2-2.4,0.5s-1.1,0.8-1.5,1.4
				s-0.7,1.3-0.8,2.1s-0.2,1.6-0.2,2.5c0,1,0.1,2,0.2,2.8s0.4,1.5,0.8,2.1s0.9,1,1.5,1.3s1.4,0.5,2.4,0.5s1.7-0.2,2.4-0.5
				s1.1-0.8,1.5-1.4s0.7-1.3,0.8-2.1s0.2-1.7,0.2-2.6c0-1-0.1-1.9-0.2-2.7S1001.5,328.1,1001.2,327.5z"/>
			<path class="st3" d="M989.3,294.8c-20.8,0-37.6,16.8-37.6,37.6c0,20.8,16.8,37.6,37.6,37.6s37.6-16.8,37.6-37.6
				C1026.9,311.6,1010.1,294.8,989.3,294.8z M977.7,323.5c-0.1,0.2-0.2,0.5-0.4,0.8l-5.2,10.3v6.7c0,0.1,0,0.2-0.1,0.3
				s-0.2,0.1-0.3,0.2s-0.3,0.1-0.6,0.1s-0.6,0-0.9,0c-0.4,0-0.7,0-0.9,0s-0.4-0.1-0.6-0.1s-0.3-0.1-0.3-0.2s-0.1-0.2-0.1-0.3v-6.7
				l-5.2-10.3c-0.2-0.4-0.3-0.6-0.4-0.8s0-0.4,0.1-0.5s0.3-0.2,0.6-0.2s0.7,0,1.3,0c0.4,0,0.8,0,1.1,0s0.5,0.1,0.6,0.1
				s0.3,0.1,0.3,0.2s0.1,0.2,0.2,0.3l2.1,4.7c0.2,0.4,0.4,0.9,0.6,1.4s0.4,1,0.6,1.6h0c0.2-0.5,0.4-1,0.6-1.5s0.4-1,0.6-1.4l2.1-4.6
				c0-0.2,0.1-0.3,0.2-0.4s0.2-0.2,0.3-0.2s0.3-0.1,0.6-0.1s0.6,0,1,0c0.6,0,1,0,1.3,0s0.5,0.1,0.6,0.2S977.7,323.3,977.7,323.5z
				 M986.4,341.6c-0.1,0.2-0.2,0.2-0.3,0.2h-6.5c-0.2,0-0.3,0-0.4,0s-0.2-0.1-0.3-0.2s-0.1-0.2-0.1-0.4s0-0.4,0-0.6
				c0-0.2,0-0.3,0-0.5s0-0.2,0.1-0.3s0.1-0.2,0.2-0.3s0.2-0.2,0.3-0.3l1.8-1.6c0.3-0.3,0.5-0.5,0.7-0.7s0.3-0.4,0.5-0.5
				s0.2-0.3,0.3-0.5s0.1-0.3,0.1-0.5c0-0.3-0.1-0.5-0.3-0.7s-0.5-0.3-0.8-0.3c-0.3,0-0.6,0-0.8,0.1s-0.4,0.1-0.6,0.2
				s-0.4,0.2-0.5,0.2s-0.2,0.1-0.3,0.1c0,0-0.1,0-0.1-0.1s-0.1-0.1-0.1-0.2s-0.1-0.2-0.1-0.4s0-0.3,0-0.6c0-0.3,0-0.5,0.1-0.6
				s0.1-0.2,0.2-0.3s0.2-0.2,0.4-0.3s0.5-0.2,0.7-0.3s0.6-0.2,1-0.2s0.8-0.1,1.2-0.1c0.6,0,1.1,0.1,1.6,0.2s0.8,0.3,1.1,0.6
				s0.5,0.5,0.7,0.9s0.2,0.7,0.2,1.1c0,0.3,0,0.6-0.1,0.9s-0.2,0.6-0.4,0.9s-0.5,0.7-0.8,1s-0.8,0.7-1.3,1.1l-1.2,0.9h3.8
				c0.1,0,0.3,0.1,0.3,0.3s0.1,0.4,0.1,0.8C986.5,341.2,986.4,341.5,986.4,341.6z M1005.7,336.4c-0.4,1.2-1,2.3-1.7,3.2
				s-1.7,1.5-2.9,2s-2.5,0.7-3.9,0.7c-1.5,0-2.8-0.2-3.9-0.6s-2-1-2.7-1.8s-1.3-1.8-1.6-3s-0.5-2.7-0.5-4.3c0-1.5,0.2-2.9,0.6-4.1
				s1-2.3,1.7-3.1s1.7-1.5,2.9-2s2.5-0.7,4-0.7c1.4,0,2.7,0.2,3.8,0.6s2,1,2.8,1.8s1.3,1.8,1.7,3s0.6,2.6,0.6,4.3
				C1006.2,333.7,1006,335.1,1005.7,336.4z M1015.6,340.3c-0.2,0.4-0.5,0.7-0.9,1s-0.9,0.5-1.5,0.6s-1.2,0.2-1.9,0.2
				c-0.4,0-0.8,0-1.1-0.1s-0.7-0.1-0.9-0.2s-0.5-0.1-0.7-0.2s-0.3-0.2-0.4-0.3s-0.2-0.2-0.2-0.4s-0.1-0.4-0.1-0.7
				c0-0.3,0-0.5,0.1-0.6s0.1-0.1,0.2-0.1c0.1,0,0.2,0,0.3,0.1s0.3,0.1,0.5,0.2s0.4,0.1,0.7,0.2s0.6,0.1,1,0.1c0.3,0,0.6,0,0.8-0.1
				s0.4-0.1,0.5-0.2s0.2-0.2,0.3-0.3s0.1-0.3,0.1-0.4c0-0.2,0-0.3-0.1-0.5s-0.2-0.3-0.4-0.4s-0.4-0.2-0.7-0.2s-0.6-0.1-1-0.1h-0.9
				c-0.1,0-0.2,0-0.2,0s-0.1-0.1-0.1-0.1s-0.1-0.2-0.1-0.3s0-0.3,0-0.5s0-0.3,0-0.5s0-0.2,0.1-0.3s0.1-0.1,0.1-0.1s0.1,0,0.2,0h1
				c0.6,0,1.1-0.1,1.4-0.3s0.5-0.5,0.5-0.8c0-0.3-0.1-0.5-0.3-0.7s-0.6-0.3-1-0.3c-0.3,0-0.6,0-0.8,0.1s-0.5,0.2-0.7,0.2
				s-0.4,0.2-0.5,0.2s-0.3,0.1-0.3,0.1c0,0-0.1,0-0.1,0s-0.1-0.1-0.1-0.1s-0.1-0.2-0.1-0.3s0-0.3,0-0.5c0-0.1,0-0.3,0-0.4
				s0-0.2,0-0.3s0-0.1,0.1-0.2s0.1-0.1,0.1-0.1s0.2-0.1,0.4-0.2s0.5-0.2,0.8-0.3s0.6-0.2,1-0.2s0.8-0.1,1.3-0.1
				c0.6,0,1.1,0.1,1.6,0.2s0.8,0.3,1.1,0.5s0.5,0.5,0.7,0.8s0.2,0.7,0.2,1.1c0,0.3,0,0.5-0.1,0.8s-0.2,0.5-0.4,0.7s-0.4,0.4-0.6,0.5
				s-0.5,0.3-0.9,0.3c0.4,0,0.8,0.1,1.1,0.2s0.6,0.3,0.8,0.5s0.3,0.4,0.4,0.7s0.1,0.5,0.1,0.8C1016,339.5,1015.9,340,1015.6,340.3z"
				/>
		</g>
	</g>
</g>
</svg>
