<svg id="图层_1" data-name="图层 1" xmlns="http://www.w3.org/2000/svg" viewBox="0 0 1100.22 667.15"><defs><style>.cls-1,.cls-11,.cls-12{fill:none;stroke-miterlimit:10;}.cls-1{stroke:#999899;stroke-width:3px;}.cls-2,.cls-3{isolation:isolate;}.cls-13,.cls-16,.cls-3{font-size:24px;font-family:Calibri-Bold, Calibri;font-weight:700;}.cls-3{fill:#231815;}.cls-4{letter-spacing:-0.01em;}.cls-5{letter-spacing:-0.02em;}.cls-6{letter-spacing:-0.09em;}.cls-7{letter-spacing:-0.02em;}.cls-8{letter-spacing:-0.01em;}.cls-13,.cls-9{fill:#c4af9a;}.cls-10,.cls-16{fill:#ad6a6c;}.cls-11{stroke:#c4af9a;}.cls-11,.cls-12{stroke-linecap:round;stroke-width:6px;}.cls-12{stroke:#ad6a6c;}.cls-14{letter-spacing:-0.01em;}.cls-15{letter-spacing:-0.01em;}.cls-17{letter-spacing:-0.01em;}</style></defs><title>compare</title><path class="cls-1" d="M303.38,28.52H877c5,0,9.1,5.44,9.1,12.16V564.62c0,6.72-4.08,12.16-9.1,12.16H303.38c-5,0-9.11-5.44-9.11-12.16V40.68C294.27,34,298.35,28.52,303.38,28.52Z"/><line class="cls-1" x1="418.79" y1="576.7" x2="418.79" y2="28.52"/><line class="cls-1" x1="536.9" y1="576.7" x2="536.9" y2="28.52"/><line class="cls-1" x1="657.9" y1="576.7" x2="657.9" y2="28.52"/><line class="cls-1" x1="776.01" y1="576.7" x2="776.01" y2="28.52"/><g class="cls-2"><text class="cls-3" transform="translate(216.74 357.43) rotate(-90)">St<tspan class="cls-4" x="19.66" y="0">r</tspan><tspan x="27.93" y="0">ess / M</tspan><tspan class="cls-5" x="101.3" y="0">P</tspan><tspan x="113.6" y="0">a</tspan></text></g><text class="cls-3" transform="translate(267.95 582.32)">0</text><text class="cls-3" transform="translate(243.63 482.43)">100</text><text class="cls-3" transform="translate(243.63 392.15)">200</text><text class="cls-3" transform="translate(243.63 301.86)">300</text><text class="cls-3" transform="translate(243.63 211.57)">400</text><text class="cls-3" transform="translate(243.63 121.29)">500</text><text class="cls-3" transform="translate(243.63 34.12)">600</text><text class="cls-3" transform="translate(276.03 606.69)">500</text><text class="cls-3" transform="translate(400.54 606.69)">700</text><text class="cls-3" transform="translate(518.65 606.69)">800</text><text class="cls-3" transform="translate(639.66 606.69)">900</text><text class="cls-3" transform="translate(751.69 606.69)">1000</text><text class="cls-3" transform="translate(861.73 606.69)">1100</text><text class="cls-3" transform="translate(516.43 647.33)"><tspan class="cls-6">T</tspan><tspan x="9.81" y="0">empe</tspan><tspan class="cls-7" x="66.38" y="0">r</tspan><tspan class="cls-8" x="74.38" y="0">a</tspan><tspan x="86" y="0">tu</tspan><tspan class="cls-4" x="107.2" y="0">r</tspan><tspan x="115.46" y="0">e / °C</tspan></text><line class="cls-1" x1="294.27" y1="115.69" x2="886.06" y2="115.69"/><line class="cls-1" x1="294.27" y1="476.83" x2="886.06" y2="476.83"/><line class="cls-1" x1="294.27" y1="386.54" x2="886.06" y2="386.54"/><line class="cls-1" x1="294.27" y1="296.26" x2="886.06" y2="296.26"/><line class="cls-1" x1="294.27" y1="205.97" x2="886.06" y2="205.97"/><circle class="cls-9" cx="419.92" cy="206.54" r="8.6"/><circle class="cls-9" cx="489.21" cy="315.13" r="8.6"/><circle class="cls-9" cx="553.92" cy="424.45" r="8.6"/><circle class="cls-9" cx="620.79" cy="497.26" r="8.6"/><circle class="cls-9" cx="354.15" cy="90.42" r="8.6"/><circle class="cls-10" cx="356.42" cy="127.62" r="8.6"/><circle class="cls-10" cx="556.75" cy="385.81" r="8.6"/><circle class="cls-10" cx="688.56" cy="430.21" r="8.6"/><circle class="cls-10" cx="823.33" cy="458.1" r="8.6"/><path class="cls-11" d="M339.51,67.15C388.85,158.56,528,433.21,640.45,512.9"/><path class="cls-12" d="M339.51,99c29.93,57.52,136.6,221.43,176.92,258.41S620.73,430,823.33,458.1"/><text class="cls-13" transform="translate(376.03 81.82)">P<tspan class="cls-4" x="12.77" y="0">r</tspan><tspan x="21.04" y="0">ecipi</tspan><tspan class="cls-14" x="67.83" y="0">t</tspan><tspan class="cls-8" x="75.91" y="0">a</tspan><tspan x="87.54" y="0">tion St</tspan><tspan class="cls-4" x="152.46" y="0">r</tspan><tspan x="160.72" y="0">en</tspan><tspan class="cls-15" x="185.68" y="0">g</tspan><tspan x="196.89" y="0">thening</tspan></text><text class="cls-16" transform="translate(575.85 373.06)">Dispe<tspan class="cls-17" x="55.56" y="0">r</tspan><tspan x="63.8" y="0">sion St</tspan><tspan class="cls-4" x="130.14" y="0">r</tspan><tspan x="138.4" y="0">en</tspan><tspan class="cls-15" x="163.36" y="0">g</tspan><tspan x="174.56" y="0">thening</tspan></text></svg>