<?xml version="1.0" encoding="utf-8"?>
<!-- Generator: Adobe Illustrator 23.0.0, SVG Export Plug-In . SVG Version: 6.00 Build 0)  -->
<svg version="1.1" id="图层_1" xmlns="http://www.w3.org/2000/svg" xmlns:xlink="http://www.w3.org/1999/xlink" x="0px" y="0px"
	 viewBox="0 0 875.7 316.5" style="enable-background:new 0 0 875.7 316.5;" xml:space="preserve">
<style type="text/css">
	.st0{clip-path:url(#SVGID_2_);}
	.st1{fill:#32558E;}
	.st2{fill:none;stroke:#32558E;stroke-width:6;stroke-miterlimit:10;}
	.st3{clip-path:url(#SVGID_4_);}
</style>
<g>
	<g>
		<defs>
			<circle id="SVGID_1_" cx="614.8" cy="158.3" r="145.1"/>
		</defs>
		<clipPath id="SVGID_2_">
			<use xlink:href="#SVGID_1_"  style="overflow:visible;"/>
		</clipPath>
		<g class="st0">
			<circle class="st1" cx="469.7" cy="129.2" r="22.7"/>
			<circle class="st1" cx="469.7" cy="187.3" r="22.7"/>
			<circle class="st1" cx="527.7" cy="71.2" r="22.7"/>
			<circle class="st1" cx="527.7" cy="129.2" r="22.7"/>
			<circle class="st1" cx="527.7" cy="187.3" r="22.7"/>
			<circle class="st1" cx="527.7" cy="245.3" r="22.7"/>
			<circle class="st1" cx="585.8" cy="71.2" r="22.7"/>
			<circle class="st1" cx="585.8" cy="129.2" r="22.7"/>
			<circle class="st1" cx="585.8" cy="187.3" r="22.7"/>
			<circle class="st1" cx="585.8" cy="245.3" r="22.7"/>
			<circle class="st1" cx="585.8" cy="303.4" r="22.7"/>
			<circle class="st1" cx="643.8" cy="71.2" r="22.7"/>
			<circle class="st1" cx="643.8" cy="129.2" r="22.7"/>
			<circle class="st1" cx="643.8" cy="187.3" r="22.7"/>
			<circle class="st1" cx="643.8" cy="245.3" r="22.7"/>
			<circle class="st1" cx="643.8" cy="303.4" r="22.7"/>
			<circle class="st1" cx="701.9" cy="71.2" r="22.7"/>
			<circle class="st1" cx="701.9" cy="129.2" r="22.7"/>
			<circle class="st1" cx="701.9" cy="187.3" r="22.7"/>
			<circle class="st1" cx="701.9" cy="245.3" r="22.7"/>
			<circle class="st1" cx="759.9" cy="129.2" r="22.7"/>
			<circle class="st1" cx="759.9" cy="187.3" r="22.7"/>
			<circle class="st1" cx="585.8" cy="13.1" r="22.7"/>
			<circle class="st1" cx="643.8" cy="13.1" r="22.7"/>
		</g>
	</g>
	<title>cold-rolling</title>
	<title>cold-rolling</title>
	<circle class="st2" cx="614.8" cy="158.3" r="145.1"/>
	<circle class="st2" cx="260.9" cy="158.3" r="145.1"/>
	<g>
		<defs>
			<circle id="SVGID_3_" cx="260.9" cy="158.3" r="145.1"/>
		</defs>
		<clipPath id="SVGID_4_">
			<use xlink:href="#SVGID_3_"  style="overflow:visible;"/>
		</clipPath>
		<g class="st3">
			<rect x="100.5" y="106.7" class="st1" width="320.7" height="45.1"/>
			<rect x="100.5" y="-9.4" class="st1" width="320.7" height="45.1"/>
			<rect x="100.5" y="48.6" class="st1" width="320.7" height="45.1"/>
			<rect x="100.5" y="164.7" class="st1" width="320.7" height="45.1"/>
			<rect x="100.5" y="222.8" class="st1" width="320.7" height="45.1"/>
			<rect x="100.5" y="280.9" class="st1" width="320.7" height="45.1"/>
		</g>
	</g>
</g>
</svg>
