<svg id="图层_1" data-name="图层 1" xmlns="http://www.w3.org/2000/svg" viewBox="0 0 691.78 672.27"><defs><style>.cls-1{fill:#fff;}.cls-1,.cls-2{stroke:#999899;stroke-width:3px;}.cls-1,.cls-11,.cls-12,.cls-2{stroke-miterlimit:10;}.cls-11,.cls-12,.cls-2{fill:none;}.cls-16,.cls-3{isolation:isolate;}.cls-13,.cls-16,.cls-3{font-size:24px;font-family:Calibri-Bold, Calibri;font-weight:700;}.cls-3{fill:#231815;}.cls-4{letter-spacing:-0.04em;}.cls-5{letter-spacing:-0.01em;}.cls-6{letter-spacing:-0.01em;}.cls-7{letter-spacing:0.03em;}.cls-8{letter-spacing:-0.02em;}.cls-9{letter-spacing:-0.01em;}.cls-10{letter-spacing:-0.01em;}.cls-11{stroke:#2f5288;stroke-linecap:round;}.cls-11,.cls-12{stroke-width:6px;}.cls-12{stroke:#fba971;}.cls-13{fill:#2f5288;}.cls-14{letter-spacing:0em;}.cls-15{letter-spacing:-0.01em;}.cls-16{fill:#fba971;}</style></defs><rect class="cls-1" x="123.57" y="27.06" width="541.15" height="541.15" rx="13.13"/><line class="cls-2" x1="123.57" y1="158.62" x2="664.72" y2="158.62"/><text class="cls-3" transform="translate(65.19 164.22)">-100</text><line class="cls-2" x1="123.57" y1="60.14" x2="664.72" y2="60.14"/><text class="cls-3" transform="translate(96.87 65.74)">0</text><line class="cls-2" x1="123.57" y1="261.02" x2="664.72" y2="261.02"/><text class="cls-3" transform="translate(65.19 266.62)">-200</text><text class="cls-3" transform="translate(45.66 420.34) rotate(-90)"><tspan class="cls-4">W</tspan><tspan x="20.89" y="0">eig</tspan><tspan class="cls-5" x="50.25" y="0">h</tspan><tspan x="62.91" y="0">t Chan</tspan><tspan class="cls-6" x="126.96" y="0">g</tspan><tspan x="138.08" y="0">e, m</tspan><tspan class="cls-7" x="181.3" y="0">g</tspan><tspan class="cls-8" x="193.38" y="0">/</tspan><tspan x="203.11" y="0">cm2 </tspan></text><line class="cls-2" x1="123.57" y1="363.41" x2="664.72" y2="363.41"/><text class="cls-3" transform="translate(65.19 369.02)">-300</text><line class="cls-2" x1="123.57" y1="465.81" x2="664.72" y2="465.81"/><text class="cls-3" transform="translate(65.19 471.41)">-400</text><text class="cls-3" transform="translate(65.19 573.81)">-500</text><text class="cls-3" transform="translate(278.31 638.83)">C<tspan class="cls-9" x="12.7" y="0">y</tspan><tspan x="23.77" y="0">clic Exposu</tspan><tspan class="cls-10" x="132.04" y="0">r</tspan><tspan x="140.3" y="0">e Time, h</tspan></text><line class="cls-2" x1="340.03" y1="568.21" x2="340.03" y2="27.06"/><text class="cls-3" transform="translate(321.78 594.23)">400</text><line class="cls-2" x1="231.8" y1="568.21" x2="231.8" y2="27.06"/><text class="cls-3" transform="translate(213.55 594.23)">200</text><text class="cls-3" transform="translate(117.49 594.23)">0</text><line class="cls-2" x1="448.25" y1="568.21" x2="448.25" y2="27.06"/><text class="cls-3" transform="translate(430.01 594.23)">600</text><line class="cls-2" x1="556.49" y1="567.84" x2="556.49" y2="26.69"/><text class="cls-3" transform="translate(538.24 593.86)">800</text><text class="cls-3" transform="translate(640.39 593.86)">1000</text><path class="cls-11" d="M123.57,53.79s50.91,2.14,55.74,6.09c0,0,146.68,176.05,214.83,237.75S661.46,542,661.46,542"/><path class="cls-12" d="M664.72,59.88s-104.27-10-163.73-10-377.42,3.94-377.42,3.94"/><text class="cls-13" transform="translate(282.11 384.04)">In<tspan class="cls-14" x="19.28" y="0">c</tspan><tspan x="29.2" y="0">onel all</tspan><tspan class="cls-15" x="102.02" y="0">o</tspan><tspan x="114.79" y="0">y 600</tspan></text><text class="cls-16" transform="translate(351.66 83.49)">In<tspan class="cls-14" x="19.28" y="0">c</tspan><tspan x="29.2" y="0">onel all</tspan><tspan class="cls-15" x="102.02" y="0">o</tspan><tspan x="114.79" y="0">y 601</tspan></text></svg>